M48
;GenerationSoftware,Autodesk,EAGLE,9.6.1*%
;CreationDate,2020-05-28T01:06:21Z*%
FMAT,2
ICI,OFF
METRIC,TZ,000.000
T2C0.350
T1C1.016
%
G90
M71
T1
X29527Y45085
X32067Y45085
X34608Y45085
X37148Y45085
X39688Y45085
T2
X28956Y23114
X46332Y36576
X48537Y36576
X33973Y36259
X40132Y23241
X39878Y39751
X26289Y38989
X26289Y30480
X24918Y27176
X30162Y33427
X29094Y33427
X29654Y34989
X42799Y30020
X27178Y41783
X25895Y43421
X44893Y34544
X48133Y30988
X44092Y28091
X37125Y21761
X46228Y39116
X22809Y35687
X28519Y34981
X24511Y32004
X37973Y42926
X43332Y41720
X35687Y29845
X34544Y29845
M30