M48
;GenerationSoftware,Autodesk,EAGLE,9.6.1*%
;CreationDate,2024-10-30T09:59:31Z*%
FMAT,2
ICI,OFF
METRIC,TZ,000.000
T4C0.250
T3C0.350
T2C1.016
T1C1.500
%
G90
M71
T1
X-2286Y26035
X2794Y26035
T2
X4699Y7239
X-9525Y18669
X-9525Y16129
X-9525Y13589
T3
X-572Y16701
X-1778Y22098
X-6604Y10414
X-15113Y13335
X8128Y14947
X-6587Y6634
X3683Y22098
X10033Y11176
X-3957Y13823
X-4211Y14839
X-4572Y15748
X6819Y26543
X-12573Y19288
X3162Y10160
X2540Y9398
X9749Y6822
X10287Y25019
X1004Y10260
X-8890Y7874
X-1778Y19939
X-3048Y22733
T4
X2581Y2203
M30