M48
;GenerationSoftware,Autodesk,EAGLE,9.6.1*%
;CreationDate,2024-10-03T09:11:34Z*%
FMAT,2
ICI,OFF
METRIC,TZ,000.000
T4C0.250
T3C0.350
T2C1.016
T1C1.500
%
G90
M71
T1
X-2286Y26035
X2794Y26035
T2
X4699Y7620
X-9271Y18669
X-9271Y16129
X-9271Y13589
T3
X-572Y16701
X-2159Y21971
X-5715Y14605
X-15113Y13335
X-1143Y6731
X6604Y14185
X4318Y19177
X8255Y4572
X-3957Y13823
X-4211Y14966
X-4445Y16129
X9042Y24574
X-12573Y19288
X3162Y10541
X2540Y9398
X9749Y6822
X9962Y21447
X-8890Y7874
T4
X2581Y2203
M30