G04 EAGLE Gerber RS-274X export*
G75*
%MOMM*%
%FSLAX34Y34*%
%LPD*%
%IN*%
%IPPOS*%
%AMOC8*
5,1,8,0,0,1.08239X$1,22.5*%
G01*
%ADD10C,0.254000*%


D10*
X-103350Y130810D02*
X-16750Y-19190D01*
X156450Y-19190D01*
X243050Y130810D01*
X243050Y280810D01*
X-103350Y280810D01*
X-103350Y130810D01*
X-6550Y92219D02*
X-6627Y91240D01*
X-6781Y90270D01*
X-7010Y89314D01*
X-7314Y88380D01*
X-7689Y87473D01*
X-8135Y86598D01*
X-8649Y85760D01*
X-9226Y84965D01*
X-9864Y84218D01*
X-10558Y83524D01*
X-11305Y82886D01*
X-12100Y82309D01*
X-12938Y81795D01*
X-13813Y81349D01*
X-14720Y80974D01*
X-15654Y80670D01*
X-16610Y80441D01*
X-17580Y80287D01*
X-18559Y80210D01*
X-19541Y80210D01*
X-20520Y80287D01*
X-21491Y80441D01*
X-22446Y80670D01*
X-23380Y80974D01*
X-24287Y81349D01*
X-25162Y81795D01*
X-26000Y82309D01*
X-26795Y82886D01*
X-27542Y83524D01*
X-28236Y84218D01*
X-28874Y84965D01*
X-29451Y85760D01*
X-29965Y86598D01*
X-30411Y87473D01*
X-30786Y88380D01*
X-31090Y89314D01*
X-31319Y90270D01*
X-31473Y91240D01*
X-31550Y92219D01*
X-31550Y93201D01*
X-31473Y94180D01*
X-31319Y95151D01*
X-31090Y96106D01*
X-30786Y97040D01*
X-30411Y97947D01*
X-29965Y98822D01*
X-29451Y99660D01*
X-28874Y100455D01*
X-28236Y101202D01*
X-27542Y101896D01*
X-26795Y102534D01*
X-26000Y103111D01*
X-25162Y103625D01*
X-24287Y104071D01*
X-23380Y104446D01*
X-22446Y104750D01*
X-21491Y104979D01*
X-20520Y105133D01*
X-19541Y105210D01*
X-18559Y105210D01*
X-17580Y105133D01*
X-16610Y104979D01*
X-15654Y104750D01*
X-14720Y104446D01*
X-13813Y104071D01*
X-12938Y103625D01*
X-12100Y103111D01*
X-11305Y102534D01*
X-10558Y101896D01*
X-9864Y101202D01*
X-9226Y100455D01*
X-8649Y99660D01*
X-8135Y98822D01*
X-7689Y97947D01*
X-7314Y97040D01*
X-7010Y96106D01*
X-6781Y95151D01*
X-6627Y94180D01*
X-6550Y93201D01*
X-6550Y92219D01*
X171250Y92219D02*
X171173Y91240D01*
X171019Y90270D01*
X170790Y89314D01*
X170486Y88380D01*
X170111Y87473D01*
X169665Y86598D01*
X169151Y85760D01*
X168574Y84965D01*
X167936Y84218D01*
X167242Y83524D01*
X166495Y82886D01*
X165700Y82309D01*
X164862Y81795D01*
X163987Y81349D01*
X163080Y80974D01*
X162146Y80670D01*
X161191Y80441D01*
X160220Y80287D01*
X159241Y80210D01*
X158259Y80210D01*
X157280Y80287D01*
X156310Y80441D01*
X155354Y80670D01*
X154420Y80974D01*
X153513Y81349D01*
X152638Y81795D01*
X151800Y82309D01*
X151005Y82886D01*
X150258Y83524D01*
X149564Y84218D01*
X148926Y84965D01*
X148349Y85760D01*
X147835Y86598D01*
X147389Y87473D01*
X147014Y88380D01*
X146710Y89314D01*
X146481Y90270D01*
X146327Y91240D01*
X146250Y92219D01*
X146250Y93201D01*
X146327Y94180D01*
X146481Y95151D01*
X146710Y96106D01*
X147014Y97040D01*
X147389Y97947D01*
X147835Y98822D01*
X148349Y99660D01*
X148926Y100455D01*
X149564Y101202D01*
X150258Y101896D01*
X151005Y102534D01*
X151800Y103111D01*
X152638Y103625D01*
X153513Y104071D01*
X154420Y104446D01*
X155354Y104750D01*
X156310Y104979D01*
X157280Y105133D01*
X158259Y105210D01*
X159241Y105210D01*
X160220Y105133D01*
X161191Y104979D01*
X162146Y104750D01*
X163080Y104446D01*
X163987Y104071D01*
X164862Y103625D01*
X165700Y103111D01*
X166495Y102534D01*
X167242Y101896D01*
X167936Y101202D01*
X168574Y100455D01*
X169151Y99660D01*
X169665Y98822D01*
X170111Y97947D01*
X170486Y97040D01*
X170790Y96106D01*
X171019Y95151D01*
X171173Y94180D01*
X171250Y93201D01*
X171250Y92219D01*
M02*
