G04 EAGLE Gerber RS-274X export*
G75*
%MOMM*%
%FSLAX34Y34*%
%LPD*%
%INTop Copper*%
%IPPOS*%
%AMOC8*
5,1,8,0,0,1.08239X$1,22.5*%
G01*
%ADD10R,1.100000X1.000000*%
%ADD11C,1.000000*%
%ADD12R,1.500000X1.300000*%
%ADD13R,1.000000X1.100000*%
%ADD14R,2.500000X2.500000*%
%ADD15C,2.500000*%
%ADD16C,0.147500*%
%ADD17P,1.649562X8X22.500000*%
%ADD18R,0.800000X0.800000*%
%ADD19C,0.756400*%
%ADD20C,0.609600*%
%ADD21C,0.355600*%
%ADD22C,0.254000*%
%ADD23C,0.660400*%
%ADD24C,0.656400*%
%ADD25C,0.304800*%

G36*
X-66810Y128D02*
X-66810Y128D01*
X-66782Y126D01*
X-66714Y148D01*
X-66643Y162D01*
X-66620Y178D01*
X-66593Y187D01*
X-66538Y234D01*
X-66479Y275D01*
X-66464Y299D01*
X-66443Y317D01*
X-66411Y382D01*
X-66372Y442D01*
X-66367Y470D01*
X-66355Y496D01*
X-66346Y597D01*
X-66339Y639D01*
X-66341Y649D01*
X-66340Y662D01*
X-66496Y2623D01*
X-28825Y2623D01*
X-28713Y2641D01*
X-28599Y2657D01*
X-28591Y2661D01*
X-28582Y2662D01*
X-28482Y2716D01*
X-28379Y2767D01*
X-28372Y2773D01*
X-28365Y2778D01*
X-28286Y2860D01*
X-28205Y2942D01*
X-28201Y2950D01*
X-28195Y2956D01*
X-28147Y3060D01*
X-28097Y3162D01*
X-28095Y3173D01*
X-28092Y3179D01*
X-28089Y3202D01*
X-28066Y3327D01*
X-28024Y3883D01*
X-28027Y3918D01*
X-28022Y3952D01*
X-28038Y4040D01*
X-28045Y4128D01*
X-28059Y4160D01*
X-28065Y4194D01*
X-28100Y4266D01*
X-27957Y4893D01*
X-27955Y4926D01*
X-27940Y5006D01*
X-27892Y5644D01*
X-27851Y5703D01*
X-27794Y5771D01*
X-27781Y5804D01*
X-27762Y5832D01*
X-27706Y5990D01*
X-27216Y8137D01*
X-27214Y8172D01*
X-27204Y8205D01*
X-27207Y8294D01*
X-27201Y8383D01*
X-27210Y8416D01*
X-27211Y8451D01*
X-27235Y8527D01*
X-27000Y9126D01*
X-26993Y9158D01*
X-26966Y9234D01*
X-26824Y9859D01*
X-26774Y9911D01*
X-26708Y9970D01*
X-26690Y10000D01*
X-26666Y10025D01*
X-26588Y10173D01*
X-25784Y12223D01*
X-25777Y12257D01*
X-25762Y12288D01*
X-25751Y12377D01*
X-25732Y12464D01*
X-25736Y12498D01*
X-25732Y12532D01*
X-25744Y12611D01*
X-25422Y13168D01*
X-25410Y13199D01*
X-25373Y13271D01*
X-25139Y13867D01*
X-25082Y13911D01*
X-25008Y13959D01*
X-24986Y13987D01*
X-24959Y14008D01*
X-24859Y14143D01*
X-23758Y16050D01*
X-23746Y16082D01*
X-23727Y16111D01*
X-23703Y16197D01*
X-23671Y16280D01*
X-23670Y16315D01*
X-23661Y16348D01*
X-23661Y16428D01*
X-23260Y16931D01*
X-23244Y16960D01*
X-23196Y17025D01*
X-22875Y17579D01*
X-22813Y17615D01*
X-22732Y17651D01*
X-22706Y17675D01*
X-22676Y17692D01*
X-22558Y17811D01*
X-21185Y19532D01*
X-21168Y19563D01*
X-21145Y19588D01*
X-21108Y19669D01*
X-21065Y19747D01*
X-21058Y19781D01*
X-21044Y19813D01*
X-21032Y19891D01*
X-20561Y20329D01*
X-20540Y20355D01*
X-20483Y20412D01*
X-20084Y20913D01*
X-20051Y20926D01*
X-20009Y20932D01*
X-19975Y20950D01*
X-19931Y20963D01*
X-19903Y20982D01*
X-19870Y20995D01*
X-19817Y21034D01*
X-19792Y21048D01*
X-19774Y21066D01*
X-19736Y21094D01*
X-18121Y22592D01*
X-18100Y22619D01*
X-18073Y22641D01*
X-18025Y22716D01*
X-17971Y22786D01*
X-17959Y22819D01*
X-17940Y22848D01*
X-17917Y22924D01*
X-17385Y23287D01*
X-17361Y23309D01*
X-17336Y23328D01*
X-17330Y23331D01*
X-17326Y23336D01*
X-17296Y23358D01*
X-16827Y23793D01*
X-16757Y23809D01*
X-16669Y23820D01*
X-16637Y23835D01*
X-16604Y23842D01*
X-16455Y23921D01*
X-14636Y25161D01*
X-14611Y25185D01*
X-14581Y25203D01*
X-14522Y25269D01*
X-14458Y25331D01*
X-14442Y25361D01*
X-14419Y25387D01*
X-14385Y25459D01*
X-13805Y25738D01*
X-13778Y25757D01*
X-13706Y25795D01*
X-13177Y26156D01*
X-13105Y26161D01*
X-13016Y26158D01*
X-12983Y26169D01*
X-12949Y26171D01*
X-12791Y26227D01*
X-10807Y27182D01*
X-10778Y27202D01*
X-10746Y27215D01*
X-10678Y27272D01*
X-10605Y27323D01*
X-10585Y27351D01*
X-10558Y27373D01*
X-10514Y27439D01*
X-9899Y27629D01*
X-9869Y27644D01*
X-9793Y27670D01*
X-9216Y27948D01*
X-9144Y27942D01*
X-9057Y27927D01*
X-9022Y27932D01*
X-8988Y27929D01*
X-8823Y27961D01*
X-6719Y28610D01*
X-6688Y28625D01*
X-6654Y28633D01*
X-6578Y28679D01*
X-6499Y28719D01*
X-6474Y28744D01*
X-6445Y28762D01*
X-6391Y28820D01*
X-5754Y28916D01*
X-5723Y28926D01*
X-5643Y28941D01*
X-5031Y29130D01*
X-4962Y29114D01*
X-4877Y29085D01*
X-4843Y29085D01*
X-4809Y29077D01*
X-4641Y29084D01*
X-2464Y29412D01*
X-2431Y29423D01*
X-2396Y29425D01*
X-2315Y29460D01*
X-2230Y29487D01*
X-2202Y29508D01*
X-2170Y29522D01*
X-2108Y29571D01*
X-1465Y29571D01*
X-1432Y29577D01*
X-1351Y29580D01*
X-718Y29675D01*
X-651Y29648D01*
X-572Y29608D01*
X-538Y29603D01*
X-506Y29590D01*
X-339Y29571D01*
X1863Y29571D01*
X1897Y29577D01*
X1932Y29574D01*
X2018Y29597D01*
X2106Y29611D01*
X2136Y29627D01*
X2170Y29636D01*
X2239Y29676D01*
X2875Y29580D01*
X2908Y29580D01*
X2989Y29571D01*
X3629Y29571D01*
X3691Y29535D01*
X3763Y29483D01*
X3796Y29473D01*
X3826Y29455D01*
X3988Y29412D01*
X6165Y29084D01*
X6200Y29084D01*
X6234Y29077D01*
X6322Y29086D01*
X6411Y29087D01*
X6444Y29098D01*
X6479Y29102D01*
X6552Y29131D01*
X7167Y28941D01*
X7200Y28937D01*
X7278Y28916D01*
X7912Y28821D01*
X7967Y28775D01*
X8031Y28713D01*
X8062Y28698D01*
X8089Y28676D01*
X8243Y28610D01*
X10347Y27961D01*
X10381Y27956D01*
X10414Y27943D01*
X10503Y27939D01*
X10591Y27927D01*
X10625Y27933D01*
X10659Y27932D01*
X10737Y27950D01*
X11317Y27670D01*
X11348Y27661D01*
X11423Y27629D01*
X12034Y27440D01*
X12083Y27387D01*
X12136Y27316D01*
X12165Y27297D01*
X12188Y27271D01*
X12331Y27182D01*
X14315Y26227D01*
X14348Y26217D01*
X14378Y26200D01*
X14465Y26182D01*
X14550Y26157D01*
X14585Y26158D01*
X14619Y26152D01*
X14698Y26158D01*
X15230Y25795D01*
X15260Y25781D01*
X15329Y25738D01*
X15906Y25460D01*
X15945Y25401D01*
X15988Y25323D01*
X16013Y25299D01*
X16033Y25270D01*
X16160Y25161D01*
X17979Y23921D01*
X18011Y23906D01*
X18038Y23885D01*
X18122Y23854D01*
X18202Y23817D01*
X18237Y23813D01*
X18269Y23801D01*
X18349Y23795D01*
X18820Y23358D01*
X18848Y23339D01*
X18909Y23287D01*
X19438Y22926D01*
X19449Y22904D01*
X19450Y22897D01*
X19459Y22881D01*
X19469Y22861D01*
X19499Y22778D01*
X19521Y22750D01*
X19536Y22719D01*
X19645Y22592D01*
X19724Y22520D01*
X19772Y22488D01*
X19813Y22448D01*
X19873Y22420D01*
X19928Y22384D01*
X19984Y22369D01*
X20036Y22345D01*
X20102Y22337D01*
X20166Y22320D01*
X20224Y22324D01*
X20281Y22317D01*
X20345Y22331D01*
X20412Y22336D01*
X20465Y22357D01*
X20521Y22370D01*
X20578Y22404D01*
X20639Y22429D01*
X20683Y22466D01*
X20732Y22496D01*
X20775Y22546D01*
X20825Y22589D01*
X20855Y22639D01*
X20892Y22683D01*
X20917Y22744D01*
X20951Y22801D01*
X20963Y22857D01*
X20984Y22911D01*
X20995Y23011D01*
X21002Y23042D01*
X21000Y23056D01*
X21003Y23078D01*
X21003Y24022D01*
X23818Y26838D01*
X27800Y26838D01*
X30616Y24022D01*
X30616Y20040D01*
X27800Y17224D01*
X25989Y17224D01*
X25899Y17210D01*
X25808Y17203D01*
X25778Y17190D01*
X25746Y17185D01*
X25665Y17142D01*
X25581Y17106D01*
X25549Y17081D01*
X25529Y17070D01*
X25506Y17046D01*
X25450Y17001D01*
X25409Y16960D01*
X25383Y16924D01*
X25351Y16895D01*
X25312Y16825D01*
X25265Y16760D01*
X25252Y16718D01*
X25231Y16680D01*
X25216Y16601D01*
X25193Y16525D01*
X25194Y16481D01*
X25186Y16438D01*
X25197Y16359D01*
X25199Y16279D01*
X25214Y16238D01*
X25220Y16194D01*
X25279Y16061D01*
X25284Y16048D01*
X25286Y16045D01*
X25288Y16041D01*
X26383Y14143D01*
X26405Y14116D01*
X26420Y14085D01*
X26483Y14021D01*
X26539Y13953D01*
X26568Y13934D01*
X26593Y13910D01*
X26662Y13870D01*
X26897Y13271D01*
X26913Y13243D01*
X26946Y13168D01*
X27266Y12614D01*
X27266Y12542D01*
X27257Y12454D01*
X27264Y12420D01*
X27264Y12385D01*
X27308Y12223D01*
X28112Y10173D01*
X28130Y10144D01*
X28140Y10111D01*
X28192Y10039D01*
X28238Y9962D01*
X28264Y9939D01*
X28285Y9911D01*
X28347Y9862D01*
X28490Y9234D01*
X28502Y9204D01*
X28524Y9126D01*
X28757Y8530D01*
X28746Y8459D01*
X28724Y8373D01*
X28727Y8338D01*
X28721Y8304D01*
X28740Y8137D01*
X29230Y5990D01*
X29243Y5958D01*
X29249Y5924D01*
X29290Y5845D01*
X29323Y5763D01*
X29346Y5736D01*
X29362Y5706D01*
X29416Y5648D01*
X29464Y5006D01*
X29472Y4974D01*
X29481Y4893D01*
X29623Y4269D01*
X29602Y4200D01*
X29567Y4119D01*
X29565Y4084D01*
X29554Y4051D01*
X29548Y3883D01*
X29590Y3327D01*
X29617Y3216D01*
X29641Y3104D01*
X29645Y3097D01*
X29647Y3088D01*
X29709Y2991D01*
X29767Y2893D01*
X29774Y2887D01*
X29778Y2880D01*
X29867Y2807D01*
X29954Y2733D01*
X29962Y2730D01*
X29969Y2724D01*
X30075Y2684D01*
X30182Y2641D01*
X30193Y2640D01*
X30199Y2638D01*
X30222Y2637D01*
X30349Y2623D01*
X68020Y2623D01*
X67864Y662D01*
X67868Y633D01*
X67863Y605D01*
X67880Y536D01*
X67888Y464D01*
X67903Y440D01*
X67909Y412D01*
X67952Y354D01*
X67988Y292D01*
X68010Y275D01*
X68027Y252D01*
X68089Y215D01*
X68146Y172D01*
X68174Y165D01*
X68198Y150D01*
X68298Y134D01*
X68339Y123D01*
X68349Y125D01*
X68362Y123D01*
X87362Y123D01*
X87438Y138D01*
X87516Y147D01*
X87535Y158D01*
X87557Y162D01*
X87621Y206D01*
X87689Y245D01*
X87705Y264D01*
X87721Y275D01*
X87745Y313D01*
X87795Y373D01*
X97295Y16873D01*
X97304Y16900D01*
X97320Y16924D01*
X97335Y16994D01*
X97358Y17062D01*
X97355Y17090D01*
X97361Y17118D01*
X97348Y17189D01*
X97342Y17260D01*
X97329Y17285D01*
X97323Y17313D01*
X97283Y17373D01*
X97250Y17436D01*
X97228Y17454D01*
X97212Y17478D01*
X97129Y17536D01*
X97097Y17563D01*
X97086Y17566D01*
X97076Y17573D01*
X95318Y18405D01*
X114129Y50986D01*
X114169Y51094D01*
X114177Y51112D01*
X114189Y51138D01*
X114189Y51143D01*
X114212Y51199D01*
X114213Y51208D01*
X114216Y51216D01*
X114220Y51330D01*
X114227Y51445D01*
X114224Y51453D01*
X114225Y51462D01*
X114192Y51572D01*
X114162Y51682D01*
X114157Y51689D01*
X114155Y51698D01*
X114089Y51792D01*
X114025Y51887D01*
X114017Y51893D01*
X114013Y51899D01*
X113995Y51913D01*
X113898Y51996D01*
X113443Y52306D01*
X113411Y52321D01*
X113384Y52342D01*
X113301Y52372D01*
X113220Y52410D01*
X113185Y52414D01*
X113153Y52425D01*
X113074Y52431D01*
X112602Y52869D01*
X112574Y52887D01*
X112513Y52940D01*
X111983Y53300D01*
X111953Y53365D01*
X111922Y53449D01*
X111901Y53476D01*
X111886Y53507D01*
X111776Y53634D01*
X110160Y55133D01*
X110131Y55152D01*
X110107Y55177D01*
X110029Y55219D01*
X109955Y55269D01*
X109921Y55278D01*
X109891Y55294D01*
X109814Y55312D01*
X109412Y55815D01*
X109388Y55837D01*
X109335Y55898D01*
X108865Y56334D01*
X108845Y56402D01*
X108827Y56489D01*
X108810Y56519D01*
X108800Y56553D01*
X108710Y56694D01*
X107335Y58417D01*
X107310Y58441D01*
X107290Y58469D01*
X107219Y58523D01*
X107153Y58582D01*
X107121Y58596D01*
X107093Y58617D01*
X107019Y58646D01*
X106697Y59203D01*
X106676Y59229D01*
X106633Y59297D01*
X106234Y59798D01*
X106224Y59868D01*
X106219Y59957D01*
X106207Y59990D01*
X106202Y60024D01*
X106134Y60178D01*
X105032Y62086D01*
X105010Y62113D01*
X104994Y62144D01*
X104932Y62207D01*
X104876Y62276D01*
X104846Y62295D01*
X104822Y62320D01*
X104753Y62359D01*
X104518Y62958D01*
X104501Y62987D01*
X104469Y63061D01*
X104148Y63615D01*
X104149Y63687D01*
X104158Y63775D01*
X104150Y63809D01*
X104150Y63844D01*
X104106Y64006D01*
X103300Y66057D01*
X103283Y66087D01*
X103272Y66120D01*
X103220Y66192D01*
X103175Y66269D01*
X103148Y66291D01*
X103128Y66319D01*
X103066Y66369D01*
X102922Y66996D01*
X102910Y67027D01*
X102889Y67105D01*
X102655Y67701D01*
X102666Y67772D01*
X102688Y67858D01*
X102685Y67893D01*
X102691Y67927D01*
X102672Y68093D01*
X102181Y70242D01*
X102167Y70274D01*
X102162Y70309D01*
X102121Y70388D01*
X102088Y70470D01*
X102065Y70496D01*
X102049Y70527D01*
X101995Y70585D01*
X101947Y71227D01*
X101939Y71259D01*
X101930Y71339D01*
X101787Y71964D01*
X101809Y72032D01*
X101843Y72114D01*
X101846Y72149D01*
X101856Y72182D01*
X101862Y72349D01*
X101697Y74547D01*
X101689Y74581D01*
X101689Y74616D01*
X101660Y74700D01*
X101639Y74786D01*
X101620Y74816D01*
X101609Y74848D01*
X101564Y74914D01*
X101612Y75556D01*
X101609Y75589D01*
X101612Y75670D01*
X101564Y76308D01*
X101596Y76373D01*
X101642Y76448D01*
X101650Y76482D01*
X101665Y76513D01*
X101696Y76678D01*
X101860Y78876D01*
X101857Y78911D01*
X101862Y78945D01*
X101846Y79033D01*
X101839Y79121D01*
X101825Y79153D01*
X101819Y79187D01*
X101784Y79259D01*
X101927Y79886D01*
X101929Y79919D01*
X101944Y79999D01*
X101992Y80637D01*
X102032Y80696D01*
X102090Y80764D01*
X102102Y80797D01*
X102122Y80825D01*
X102177Y80984D01*
X102202Y81094D01*
X102209Y81199D01*
X102220Y81303D01*
X102216Y81321D01*
X102217Y81340D01*
X102190Y81441D01*
X102168Y81543D01*
X102158Y81559D01*
X102154Y81577D01*
X102095Y81665D01*
X102042Y81754D01*
X102028Y81766D01*
X102017Y81782D01*
X101935Y81846D01*
X101855Y81914D01*
X101838Y81921D01*
X101823Y81933D01*
X101724Y81967D01*
X101627Y82006D01*
X101604Y82009D01*
X101591Y82013D01*
X101559Y82014D01*
X101460Y82025D01*
X99289Y82025D01*
X99199Y82010D01*
X99108Y82003D01*
X99078Y81990D01*
X99046Y81985D01*
X98966Y81942D01*
X98882Y81906D01*
X98850Y81881D01*
X98829Y81870D01*
X98807Y81846D01*
X98751Y81802D01*
X97470Y80521D01*
X93488Y80521D01*
X90672Y83336D01*
X90672Y87318D01*
X93488Y90134D01*
X97470Y90134D01*
X98751Y88853D01*
X98825Y88800D01*
X98894Y88740D01*
X98924Y88728D01*
X98951Y88709D01*
X99038Y88683D01*
X99122Y88649D01*
X99163Y88644D01*
X99186Y88637D01*
X99218Y88638D01*
X99289Y88630D01*
X104132Y88630D01*
X104133Y88630D01*
X104135Y88630D01*
X104256Y88650D01*
X104375Y88670D01*
X104376Y88670D01*
X104377Y88671D01*
X104487Y88729D01*
X104592Y88785D01*
X104593Y88786D01*
X104594Y88786D01*
X104603Y88796D01*
X104668Y88824D01*
X104697Y88843D01*
X104730Y88855D01*
X104800Y88909D01*
X104875Y88958D01*
X104896Y88985D01*
X104924Y89006D01*
X105023Y89141D01*
X106124Y91051D01*
X106137Y91083D01*
X106156Y91112D01*
X106180Y91198D01*
X106211Y91281D01*
X106213Y91315D01*
X106222Y91349D01*
X106222Y91428D01*
X106623Y91932D01*
X106639Y91960D01*
X106687Y92026D01*
X107007Y92580D01*
X107069Y92616D01*
X107150Y92652D01*
X107176Y92676D01*
X107206Y92693D01*
X107324Y92812D01*
X108698Y94535D01*
X108715Y94566D01*
X108738Y94591D01*
X108775Y94673D01*
X108818Y94750D01*
X108825Y94784D01*
X108839Y94816D01*
X108850Y94894D01*
X109322Y95332D01*
X109342Y95358D01*
X109399Y95416D01*
X109799Y95917D01*
X109866Y95942D01*
X109951Y95966D01*
X109980Y95986D01*
X110012Y95998D01*
X110147Y96098D01*
X111762Y97598D01*
X111784Y97625D01*
X111811Y97647D01*
X111858Y97722D01*
X111913Y97792D01*
X111925Y97825D01*
X111943Y97854D01*
X111966Y97930D01*
X112498Y98293D01*
X112522Y98315D01*
X112587Y98364D01*
X113056Y98799D01*
X113126Y98815D01*
X113215Y98826D01*
X113246Y98841D01*
X113280Y98848D01*
X113428Y98927D01*
X115249Y100169D01*
X115274Y100193D01*
X115304Y100211D01*
X115362Y100277D01*
X115427Y100339D01*
X115443Y100370D01*
X115466Y100396D01*
X115500Y100467D01*
X116080Y100747D01*
X116107Y100766D01*
X116178Y100804D01*
X116707Y101164D01*
X116779Y101169D01*
X116868Y101167D01*
X116901Y101177D01*
X116936Y101180D01*
X117094Y101235D01*
X119079Y102192D01*
X119108Y102212D01*
X119140Y102225D01*
X119208Y102282D01*
X119281Y102333D01*
X119301Y102361D01*
X119328Y102384D01*
X119372Y102449D01*
X119987Y102639D01*
X120017Y102654D01*
X120093Y102681D01*
X120670Y102959D01*
X120742Y102953D01*
X120829Y102938D01*
X120863Y102943D01*
X120898Y102940D01*
X121063Y102971D01*
X123169Y103622D01*
X123200Y103637D01*
X123234Y103645D01*
X123310Y103692D01*
X123389Y103731D01*
X123413Y103756D01*
X123443Y103774D01*
X123497Y103832D01*
X124133Y103929D01*
X124165Y103939D01*
X124244Y103954D01*
X124856Y104143D01*
X124926Y104126D01*
X125010Y104098D01*
X125045Y104098D01*
X125079Y104090D01*
X125246Y104097D01*
X127426Y104426D01*
X127459Y104437D01*
X127493Y104439D01*
X127575Y104474D01*
X127660Y104501D01*
X127688Y104522D01*
X127720Y104536D01*
X127781Y104585D01*
X128425Y104585D01*
X128458Y104591D01*
X128539Y104594D01*
X129172Y104690D01*
X129238Y104663D01*
X129317Y104622D01*
X129352Y104617D01*
X129384Y104604D01*
X129551Y104586D01*
X131755Y104587D01*
X131789Y104592D01*
X131824Y104590D01*
X131910Y104612D01*
X131997Y104626D01*
X132028Y104643D01*
X132062Y104651D01*
X132130Y104691D01*
X132767Y104595D01*
X132800Y104596D01*
X132880Y104587D01*
X133521Y104587D01*
X133583Y104551D01*
X133655Y104499D01*
X133688Y104489D01*
X133718Y104471D01*
X133880Y104428D01*
X136060Y104100D01*
X136094Y104101D01*
X136128Y104093D01*
X136217Y104102D01*
X136305Y104103D01*
X136338Y104115D01*
X136373Y104118D01*
X136447Y104148D01*
X137062Y103958D01*
X137094Y103954D01*
X137172Y103933D01*
X137806Y103838D01*
X137862Y103792D01*
X137925Y103730D01*
X137956Y103715D01*
X137983Y103693D01*
X138137Y103627D01*
X140244Y102978D01*
X140278Y102973D01*
X140310Y102960D01*
X140399Y102956D01*
X140487Y102944D01*
X140521Y102951D01*
X140556Y102949D01*
X140633Y102967D01*
X141213Y102688D01*
X141245Y102678D01*
X141319Y102646D01*
X141931Y102458D01*
X141980Y102405D01*
X142033Y102334D01*
X142062Y102314D01*
X142085Y102289D01*
X142228Y102200D01*
X142740Y101953D01*
X142849Y101921D01*
X142959Y101886D01*
X142968Y101886D01*
X142976Y101884D01*
X143091Y101888D01*
X143205Y101890D01*
X143213Y101893D01*
X143222Y101893D01*
X143329Y101934D01*
X143437Y101972D01*
X143444Y101977D01*
X143452Y101980D01*
X143541Y102053D01*
X143630Y102123D01*
X143637Y102132D01*
X143642Y102136D01*
X143655Y102156D01*
X143730Y102258D01*
X162541Y134841D01*
X164178Y133711D01*
X164205Y133700D01*
X164227Y133681D01*
X164296Y133661D01*
X164361Y133633D01*
X164390Y133633D01*
X164418Y133625D01*
X164489Y133633D01*
X164560Y133633D01*
X164587Y133644D01*
X164616Y133647D01*
X164678Y133682D01*
X164743Y133710D01*
X164764Y133730D01*
X164789Y133745D01*
X164852Y133822D01*
X164882Y133852D01*
X164886Y133862D01*
X164895Y133873D01*
X174395Y150373D01*
X174405Y150405D01*
X174414Y150418D01*
X174418Y150442D01*
X174419Y150446D01*
X174450Y150516D01*
X174450Y150540D01*
X174458Y150562D01*
X174452Y150638D01*
X174453Y150715D01*
X174443Y150739D01*
X174442Y150760D01*
X174421Y150799D01*
X174395Y150871D01*
X164895Y167371D01*
X164876Y167393D01*
X164863Y167419D01*
X164810Y167467D01*
X164763Y167520D01*
X164737Y167533D01*
X164716Y167552D01*
X164648Y167575D01*
X164584Y167606D01*
X164555Y167608D01*
X164528Y167617D01*
X164456Y167612D01*
X164385Y167615D01*
X164358Y167605D01*
X164329Y167603D01*
X164239Y167561D01*
X164199Y167546D01*
X164191Y167539D01*
X164178Y167533D01*
X162541Y166403D01*
X143730Y198986D01*
X143657Y199075D01*
X143587Y199164D01*
X143580Y199169D01*
X143574Y199176D01*
X143476Y199237D01*
X143382Y199300D01*
X143373Y199302D01*
X143366Y199307D01*
X143254Y199334D01*
X143144Y199363D01*
X143135Y199362D01*
X143127Y199364D01*
X143013Y199354D01*
X142899Y199347D01*
X142889Y199343D01*
X142882Y199343D01*
X142860Y199333D01*
X142740Y199291D01*
X142228Y199044D01*
X142199Y199024D01*
X142167Y199012D01*
X142099Y198954D01*
X142026Y198903D01*
X142006Y198875D01*
X141979Y198853D01*
X141934Y198787D01*
X141319Y198598D01*
X141290Y198583D01*
X141213Y198556D01*
X140636Y198279D01*
X140565Y198285D01*
X140477Y198300D01*
X140443Y198295D01*
X140409Y198298D01*
X140244Y198266D01*
X138137Y197617D01*
X138106Y197602D01*
X138072Y197594D01*
X137997Y197548D01*
X137917Y197508D01*
X137892Y197483D01*
X137863Y197465D01*
X137809Y197407D01*
X137173Y197311D01*
X137141Y197301D01*
X137062Y197286D01*
X136450Y197097D01*
X136380Y197114D01*
X136296Y197142D01*
X136261Y197142D01*
X136227Y197150D01*
X136060Y197144D01*
X133880Y196816D01*
X133847Y196805D01*
X133812Y196803D01*
X133730Y196768D01*
X133646Y196741D01*
X133618Y196720D01*
X133586Y196706D01*
X133524Y196657D01*
X132880Y196657D01*
X132848Y196652D01*
X132767Y196649D01*
X132134Y196553D01*
X132067Y196580D01*
X131988Y196621D01*
X131954Y196626D01*
X131921Y196639D01*
X131755Y196657D01*
X129551Y196658D01*
X129516Y196653D01*
X129482Y196655D01*
X129396Y196633D01*
X129308Y196619D01*
X129277Y196602D01*
X129244Y196594D01*
X129175Y196554D01*
X128539Y196650D01*
X128506Y196650D01*
X128425Y196659D01*
X127785Y196659D01*
X127723Y196695D01*
X127651Y196747D01*
X127618Y196757D01*
X127588Y196775D01*
X127426Y196818D01*
X125246Y197147D01*
X125211Y197147D01*
X125178Y197155D01*
X125089Y197145D01*
X125000Y197144D01*
X124968Y197133D01*
X124933Y197129D01*
X124859Y197100D01*
X124244Y197290D01*
X124212Y197295D01*
X124133Y197315D01*
X123500Y197411D01*
X123444Y197456D01*
X123381Y197518D01*
X123350Y197533D01*
X123323Y197555D01*
X123169Y197622D01*
X122633Y197788D01*
X122622Y197789D01*
X122613Y197794D01*
X122501Y197806D01*
X122389Y197821D01*
X122379Y197819D01*
X122369Y197821D01*
X122258Y197797D01*
X122147Y197776D01*
X122138Y197771D01*
X122128Y197768D01*
X122031Y197710D01*
X121933Y197655D01*
X121926Y197647D01*
X121917Y197642D01*
X121844Y197556D01*
X121768Y197473D01*
X121764Y197463D01*
X121757Y197455D01*
X121715Y197351D01*
X121670Y197247D01*
X121669Y197237D01*
X121665Y197227D01*
X121647Y197060D01*
X121647Y193589D01*
X118831Y190773D01*
X114849Y190773D01*
X112033Y193589D01*
X112033Y197571D01*
X113314Y198852D01*
X113367Y198926D01*
X113427Y198995D01*
X113439Y199026D01*
X113458Y199052D01*
X113485Y199139D01*
X113519Y199224D01*
X113523Y199265D01*
X113530Y199287D01*
X113529Y199319D01*
X113537Y199390D01*
X113537Y201680D01*
X113532Y201714D01*
X113534Y201748D01*
X113512Y201834D01*
X113498Y201923D01*
X113482Y201953D01*
X113473Y201986D01*
X113424Y202061D01*
X113382Y202140D01*
X113358Y202163D01*
X113339Y202192D01*
X113269Y202248D01*
X113204Y202309D01*
X113200Y202311D01*
X112587Y202880D01*
X112560Y202899D01*
X112498Y202951D01*
X111969Y203312D01*
X111939Y203377D01*
X111908Y203461D01*
X111887Y203488D01*
X111872Y203519D01*
X111762Y203646D01*
X110147Y205146D01*
X110118Y205165D01*
X110094Y205190D01*
X110016Y205233D01*
X109942Y205282D01*
X109909Y205291D01*
X109878Y205307D01*
X109801Y205325D01*
X109399Y205828D01*
X109375Y205851D01*
X109322Y205912D01*
X108853Y206347D01*
X108832Y206416D01*
X108815Y206503D01*
X108797Y206533D01*
X108787Y206567D01*
X108698Y206709D01*
X107324Y208432D01*
X107299Y208455D01*
X107279Y208484D01*
X107208Y208538D01*
X107142Y208597D01*
X107110Y208611D01*
X107082Y208632D01*
X107008Y208661D01*
X106687Y209218D01*
X106666Y209244D01*
X106623Y209312D01*
X106224Y209813D01*
X106214Y209884D01*
X106209Y209973D01*
X106197Y210005D01*
X106192Y210040D01*
X106124Y210193D01*
X105023Y212103D01*
X105001Y212129D01*
X104986Y212161D01*
X104923Y212224D01*
X104867Y212293D01*
X104838Y212311D01*
X104814Y212336D01*
X104745Y212376D01*
X104510Y212975D01*
X104493Y213003D01*
X104492Y213006D01*
X104491Y213008D01*
X104490Y213009D01*
X104460Y213077D01*
X104140Y213632D01*
X104141Y213704D01*
X104150Y213792D01*
X104142Y213826D01*
X104143Y213861D01*
X104099Y214023D01*
X103294Y216075D01*
X103277Y216105D01*
X103266Y216138D01*
X103214Y216210D01*
X103169Y216286D01*
X103142Y216309D01*
X103122Y216337D01*
X103060Y216386D01*
X102917Y217014D01*
X102905Y217045D01*
X102883Y217123D01*
X102650Y217719D01*
X102661Y217790D01*
X102683Y217876D01*
X102680Y217910D01*
X102686Y217945D01*
X102667Y218111D01*
X102177Y220260D01*
X102164Y220292D01*
X102159Y220327D01*
X102118Y220406D01*
X102084Y220488D01*
X102062Y220515D01*
X102046Y220545D01*
X101992Y220603D01*
X101944Y221245D01*
X101936Y221277D01*
X101927Y221358D01*
X101785Y221982D01*
X101806Y222050D01*
X101841Y222132D01*
X101844Y222167D01*
X101854Y222200D01*
X101860Y222368D01*
X101696Y224566D01*
X101688Y224599D01*
X101688Y224634D01*
X101659Y224719D01*
X101638Y224805D01*
X101620Y224834D01*
X101609Y224867D01*
X101564Y224933D01*
X101612Y225574D01*
X101609Y225607D01*
X101612Y225688D01*
X101565Y226327D01*
X101596Y226391D01*
X101643Y226467D01*
X101651Y226501D01*
X101666Y226532D01*
X101697Y226697D01*
X101862Y228895D01*
X101859Y228929D01*
X101864Y228964D01*
X101849Y229051D01*
X101841Y229140D01*
X101827Y229172D01*
X101821Y229206D01*
X101786Y229277D01*
X101930Y229905D01*
X101932Y229938D01*
X101947Y230017D01*
X101995Y230656D01*
X102036Y230714D01*
X102093Y230783D01*
X102106Y230815D01*
X102125Y230843D01*
X102181Y231002D01*
X102672Y233151D01*
X102674Y233185D01*
X102684Y233218D01*
X102681Y233307D01*
X102687Y233396D01*
X102678Y233430D01*
X102677Y233464D01*
X102654Y233540D01*
X102889Y234139D01*
X102896Y234171D01*
X102922Y234248D01*
X103065Y234872D01*
X103114Y234924D01*
X103181Y234983D01*
X103198Y235013D01*
X103222Y235038D01*
X103300Y235187D01*
X104106Y237238D01*
X104114Y237272D01*
X104129Y237303D01*
X104139Y237392D01*
X104158Y237479D01*
X104154Y237513D01*
X104158Y237548D01*
X104147Y237626D01*
X104469Y238183D01*
X104480Y238214D01*
X104518Y238286D01*
X104752Y238882D01*
X104809Y238926D01*
X104883Y238974D01*
X104905Y239001D01*
X104932Y239023D01*
X105032Y239158D01*
X106134Y241066D01*
X106147Y241099D01*
X106166Y241128D01*
X106190Y241213D01*
X106221Y241296D01*
X106223Y241331D01*
X106232Y241365D01*
X106232Y241444D01*
X106633Y241947D01*
X106646Y241970D01*
X106663Y241988D01*
X106672Y242006D01*
X106697Y242041D01*
X107018Y242595D01*
X107080Y242631D01*
X107161Y242667D01*
X107187Y242691D01*
X107217Y242708D01*
X107335Y242827D01*
X108710Y244550D01*
X108727Y244580D01*
X108751Y244605D01*
X108787Y244686D01*
X108830Y244764D01*
X108837Y244798D01*
X108851Y244830D01*
X108863Y244908D01*
X109335Y245346D01*
X109355Y245372D01*
X109412Y245429D01*
X109812Y245930D01*
X109878Y245955D01*
X109964Y245979D01*
X109993Y245999D01*
X110025Y246011D01*
X110160Y246111D01*
X111776Y247610D01*
X111797Y247637D01*
X111825Y247659D01*
X111873Y247734D01*
X111927Y247804D01*
X111939Y247837D01*
X111957Y247866D01*
X111981Y247942D01*
X112513Y248304D01*
X112537Y248327D01*
X112602Y248375D01*
X113071Y248811D01*
X113141Y248826D01*
X113230Y248837D01*
X113261Y248852D01*
X113295Y248859D01*
X113443Y248938D01*
X113898Y249248D01*
X113981Y249327D01*
X114066Y249404D01*
X114070Y249412D01*
X114076Y249418D01*
X114130Y249519D01*
X114185Y249619D01*
X114187Y249627D01*
X114191Y249635D01*
X114210Y249748D01*
X114230Y249861D01*
X114229Y249869D01*
X114231Y249878D01*
X114212Y249991D01*
X114196Y250104D01*
X114192Y250114D01*
X114191Y250121D01*
X114180Y250141D01*
X114129Y250258D01*
X95318Y282839D01*
X97076Y283671D01*
X97098Y283688D01*
X97125Y283698D01*
X97177Y283747D01*
X97235Y283790D01*
X97249Y283815D01*
X97270Y283834D01*
X97299Y283900D01*
X97335Y283962D01*
X97338Y283990D01*
X97350Y284016D01*
X97351Y284088D01*
X97360Y284159D01*
X97352Y284186D01*
X97353Y284215D01*
X97317Y284310D01*
X97306Y284350D01*
X97299Y284359D01*
X97295Y284371D01*
X87795Y300871D01*
X87743Y300930D01*
X87697Y300992D01*
X87678Y301003D01*
X87663Y301020D01*
X87593Y301054D01*
X87526Y301094D01*
X87502Y301098D01*
X87484Y301106D01*
X87439Y301108D01*
X87362Y301121D01*
X68362Y301121D01*
X68334Y301116D01*
X68306Y301118D01*
X68238Y301096D01*
X68167Y301082D01*
X68144Y301066D01*
X68117Y301057D01*
X68062Y301010D01*
X68003Y300969D01*
X67988Y300945D01*
X67967Y300927D01*
X67935Y300862D01*
X67896Y300802D01*
X67891Y300774D01*
X67879Y300748D01*
X67870Y300647D01*
X67863Y300605D01*
X67865Y300595D01*
X67864Y300582D01*
X68020Y298621D01*
X-66496Y298621D01*
X-66340Y300582D01*
X-66344Y300611D01*
X-66339Y300639D01*
X-66356Y300708D01*
X-66364Y300780D01*
X-66379Y300804D01*
X-66385Y300832D01*
X-66428Y300890D01*
X-66464Y300952D01*
X-66486Y300969D01*
X-66503Y300992D01*
X-66565Y301029D01*
X-66622Y301072D01*
X-66650Y301079D01*
X-66674Y301094D01*
X-66774Y301110D01*
X-66815Y301121D01*
X-66825Y301119D01*
X-66838Y301121D01*
X-85838Y301121D01*
X-85914Y301106D01*
X-85992Y301097D01*
X-86011Y301086D01*
X-86033Y301082D01*
X-86097Y301038D01*
X-86165Y300999D01*
X-86181Y300980D01*
X-86197Y300969D01*
X-86221Y300931D01*
X-86271Y300871D01*
X-95771Y284371D01*
X-95780Y284344D01*
X-95796Y284320D01*
X-95811Y284250D01*
X-95834Y284182D01*
X-95831Y284154D01*
X-95837Y284126D01*
X-95824Y284056D01*
X-95818Y283984D01*
X-95805Y283959D01*
X-95799Y283931D01*
X-95759Y283871D01*
X-95726Y283808D01*
X-95704Y283790D01*
X-95688Y283766D01*
X-95605Y283708D01*
X-95573Y283681D01*
X-95562Y283678D01*
X-95552Y283671D01*
X-93794Y282839D01*
X-112605Y250258D01*
X-112645Y250151D01*
X-112688Y250045D01*
X-112689Y250036D01*
X-112692Y250028D01*
X-112696Y249914D01*
X-112703Y249799D01*
X-112700Y249791D01*
X-112701Y249782D01*
X-112668Y249672D01*
X-112638Y249562D01*
X-112633Y249555D01*
X-112631Y249546D01*
X-112565Y249452D01*
X-112501Y249357D01*
X-112493Y249351D01*
X-112489Y249345D01*
X-112471Y249331D01*
X-112374Y249248D01*
X-111919Y248938D01*
X-111887Y248923D01*
X-111860Y248902D01*
X-111776Y248872D01*
X-111696Y248834D01*
X-111661Y248830D01*
X-111629Y248819D01*
X-111550Y248813D01*
X-111078Y248375D01*
X-111050Y248357D01*
X-110989Y248304D01*
X-110459Y247944D01*
X-110429Y247879D01*
X-110398Y247795D01*
X-110377Y247768D01*
X-110362Y247737D01*
X-110252Y247610D01*
X-108636Y246111D01*
X-108607Y246092D01*
X-108583Y246067D01*
X-108505Y246024D01*
X-108431Y245975D01*
X-108398Y245966D01*
X-108367Y245950D01*
X-108290Y245932D01*
X-107888Y245429D01*
X-107864Y245407D01*
X-107811Y245346D01*
X-107341Y244911D01*
X-107321Y244842D01*
X-107303Y244755D01*
X-107286Y244725D01*
X-107276Y244691D01*
X-107186Y244550D01*
X-105811Y242827D01*
X-105786Y242803D01*
X-105766Y242775D01*
X-105695Y242721D01*
X-105629Y242662D01*
X-105597Y242648D01*
X-105569Y242627D01*
X-105495Y242598D01*
X-105173Y242041D01*
X-105152Y242015D01*
X-105109Y241947D01*
X-104710Y241446D01*
X-104700Y241376D01*
X-104695Y241287D01*
X-104683Y241254D01*
X-104678Y241220D01*
X-104610Y241066D01*
X-103508Y239158D01*
X-103486Y239131D01*
X-103470Y239100D01*
X-103408Y239037D01*
X-103352Y238968D01*
X-103322Y238949D01*
X-103298Y238924D01*
X-103229Y238885D01*
X-102994Y238286D01*
X-102977Y238257D01*
X-102945Y238183D01*
X-102624Y237629D01*
X-102625Y237557D01*
X-102634Y237469D01*
X-102626Y237435D01*
X-102626Y237400D01*
X-102582Y237238D01*
X-101776Y235187D01*
X-101759Y235157D01*
X-101748Y235124D01*
X-101696Y235052D01*
X-101651Y234975D01*
X-101624Y234953D01*
X-101604Y234925D01*
X-101542Y234875D01*
X-101398Y234248D01*
X-101386Y234217D01*
X-101365Y234139D01*
X-101131Y233543D01*
X-101142Y233472D01*
X-101164Y233386D01*
X-101161Y233351D01*
X-101167Y233317D01*
X-101148Y233151D01*
X-100657Y231002D01*
X-100643Y230970D01*
X-100638Y230935D01*
X-100597Y230856D01*
X-100564Y230774D01*
X-100541Y230748D01*
X-100525Y230717D01*
X-100471Y230659D01*
X-100423Y230017D01*
X-100415Y229985D01*
X-100406Y229905D01*
X-100263Y229280D01*
X-100285Y229212D01*
X-100319Y229130D01*
X-100322Y229095D01*
X-100332Y229062D01*
X-100338Y228895D01*
X-100173Y226697D01*
X-100165Y226663D01*
X-100165Y226628D01*
X-100136Y226544D01*
X-100115Y226458D01*
X-100096Y226428D01*
X-100085Y226396D01*
X-100033Y226320D01*
X-100038Y226275D01*
X-100022Y226201D01*
X-100016Y226126D01*
X-99996Y226081D01*
X-99986Y226034D01*
X-99948Y225969D01*
X-99917Y225900D01*
X-99885Y225864D01*
X-99860Y225823D01*
X-99803Y225774D01*
X-99752Y225718D01*
X-99710Y225695D01*
X-99673Y225663D01*
X-99603Y225635D01*
X-99537Y225598D01*
X-99490Y225589D01*
X-99445Y225571D01*
X-99318Y225557D01*
X-99295Y225553D01*
X-99289Y225554D01*
X-99278Y225553D01*
X-77470Y225553D01*
X-77380Y225567D01*
X-77289Y225575D01*
X-77260Y225587D01*
X-77228Y225592D01*
X-77147Y225635D01*
X-77063Y225671D01*
X-77031Y225697D01*
X-77010Y225708D01*
X-76988Y225731D01*
X-76932Y225776D01*
X-75651Y227057D01*
X-71669Y227057D01*
X-68853Y224241D01*
X-68853Y220259D01*
X-71669Y217443D01*
X-75651Y217443D01*
X-76932Y218724D01*
X-77006Y218777D01*
X-77075Y218837D01*
X-77106Y218849D01*
X-77132Y218868D01*
X-77219Y218895D01*
X-77304Y218929D01*
X-77345Y218933D01*
X-77367Y218940D01*
X-77399Y218939D01*
X-77470Y218947D01*
X-100345Y218947D01*
X-100402Y218938D01*
X-100461Y218938D01*
X-100523Y218918D01*
X-100588Y218908D01*
X-100639Y218880D01*
X-100694Y218862D01*
X-100747Y218823D01*
X-100805Y218792D01*
X-100845Y218750D01*
X-100892Y218716D01*
X-100929Y218662D01*
X-100975Y218614D01*
X-100999Y218561D01*
X-101032Y218514D01*
X-101065Y218420D01*
X-101078Y218391D01*
X-101080Y218377D01*
X-101087Y218355D01*
X-101143Y218111D01*
X-101145Y218077D01*
X-101155Y218044D01*
X-101153Y217955D01*
X-101158Y217866D01*
X-101149Y217832D01*
X-101148Y217798D01*
X-101124Y217722D01*
X-101359Y217123D01*
X-101366Y217090D01*
X-101393Y217014D01*
X-101535Y216390D01*
X-101584Y216338D01*
X-101651Y216279D01*
X-101668Y216249D01*
X-101692Y216223D01*
X-101770Y216075D01*
X-102575Y214023D01*
X-102582Y213989D01*
X-102597Y213958D01*
X-102608Y213869D01*
X-102627Y213782D01*
X-102623Y213748D01*
X-102627Y213713D01*
X-102615Y213635D01*
X-102936Y213078D01*
X-102948Y213047D01*
X-102986Y212975D01*
X-103220Y212379D01*
X-103276Y212335D01*
X-103351Y212286D01*
X-103372Y212259D01*
X-103400Y212238D01*
X-103499Y212103D01*
X-104600Y210193D01*
X-104613Y210161D01*
X-104632Y210132D01*
X-104656Y210046D01*
X-104687Y209963D01*
X-104689Y209929D01*
X-104698Y209895D01*
X-104698Y209816D01*
X-105099Y209312D01*
X-105115Y209284D01*
X-105163Y209218D01*
X-105483Y208664D01*
X-105545Y208628D01*
X-105626Y208592D01*
X-105652Y208568D01*
X-105682Y208551D01*
X-105800Y208432D01*
X-107174Y206709D01*
X-107191Y206678D01*
X-107214Y206653D01*
X-107251Y206571D01*
X-107294Y206494D01*
X-107301Y206460D01*
X-107315Y206428D01*
X-107326Y206350D01*
X-107798Y205912D01*
X-107818Y205886D01*
X-107875Y205828D01*
X-108275Y205327D01*
X-108342Y205302D01*
X-108427Y205278D01*
X-108456Y205258D01*
X-108488Y205246D01*
X-108623Y205146D01*
X-110238Y203646D01*
X-110260Y203619D01*
X-110287Y203597D01*
X-110334Y203522D01*
X-110389Y203452D01*
X-110401Y203419D01*
X-110419Y203390D01*
X-110442Y203314D01*
X-110974Y202951D01*
X-110998Y202929D01*
X-111063Y202880D01*
X-111532Y202445D01*
X-111602Y202429D01*
X-111691Y202418D01*
X-111722Y202403D01*
X-111756Y202396D01*
X-111904Y202317D01*
X-113725Y201075D01*
X-113750Y201051D01*
X-113780Y201033D01*
X-113838Y200967D01*
X-113903Y200905D01*
X-113919Y200875D01*
X-113942Y200848D01*
X-113976Y200777D01*
X-114556Y200497D01*
X-114583Y200479D01*
X-114654Y200440D01*
X-115183Y200080D01*
X-115255Y200075D01*
X-115344Y200077D01*
X-115377Y200067D01*
X-115412Y200064D01*
X-115570Y200009D01*
X-117555Y199052D01*
X-117584Y199032D01*
X-117616Y199019D01*
X-117684Y198962D01*
X-117757Y198911D01*
X-117777Y198883D01*
X-117804Y198860D01*
X-117848Y198795D01*
X-118463Y198605D01*
X-118493Y198590D01*
X-118569Y198563D01*
X-119146Y198285D01*
X-119218Y198291D01*
X-119305Y198306D01*
X-119339Y198301D01*
X-119374Y198304D01*
X-119539Y198273D01*
X-121645Y197622D01*
X-121676Y197607D01*
X-121710Y197599D01*
X-121786Y197552D01*
X-121865Y197513D01*
X-121889Y197488D01*
X-121919Y197470D01*
X-121973Y197412D01*
X-122609Y197315D01*
X-122641Y197305D01*
X-122720Y197290D01*
X-123332Y197101D01*
X-123402Y197118D01*
X-123486Y197146D01*
X-123521Y197146D01*
X-123555Y197154D01*
X-123722Y197147D01*
X-125902Y196818D01*
X-125935Y196807D01*
X-125969Y196805D01*
X-126051Y196770D01*
X-126136Y196743D01*
X-126164Y196722D01*
X-126196Y196708D01*
X-126257Y196659D01*
X-126901Y196659D01*
X-126934Y196653D01*
X-127015Y196650D01*
X-127648Y196554D01*
X-127714Y196581D01*
X-127793Y196622D01*
X-127828Y196627D01*
X-127860Y196640D01*
X-128027Y196658D01*
X-130231Y196657D01*
X-130265Y196652D01*
X-130300Y196654D01*
X-130386Y196632D01*
X-130473Y196618D01*
X-130504Y196601D01*
X-130538Y196593D01*
X-130606Y196553D01*
X-131243Y196649D01*
X-131276Y196648D01*
X-131356Y196657D01*
X-131997Y196657D01*
X-132059Y196693D01*
X-132131Y196745D01*
X-132164Y196755D01*
X-132194Y196773D01*
X-132356Y196816D01*
X-134536Y197144D01*
X-134570Y197143D01*
X-134604Y197151D01*
X-134692Y197142D01*
X-134781Y197141D01*
X-134814Y197129D01*
X-134849Y197126D01*
X-134923Y197096D01*
X-135538Y197286D01*
X-135570Y197290D01*
X-135649Y197311D01*
X-136282Y197406D01*
X-136338Y197452D01*
X-136401Y197514D01*
X-136432Y197529D01*
X-136459Y197551D01*
X-136613Y197617D01*
X-138720Y198266D01*
X-138754Y198271D01*
X-138786Y198284D01*
X-138875Y198288D01*
X-138963Y198300D01*
X-138997Y198293D01*
X-139032Y198295D01*
X-139109Y198277D01*
X-139689Y198556D01*
X-139721Y198566D01*
X-139795Y198598D01*
X-140407Y198786D01*
X-140456Y198839D01*
X-140509Y198910D01*
X-140538Y198930D01*
X-140561Y198955D01*
X-140704Y199044D01*
X-141216Y199291D01*
X-141325Y199323D01*
X-141435Y199358D01*
X-141444Y199358D01*
X-141452Y199360D01*
X-141567Y199356D01*
X-141681Y199354D01*
X-141689Y199351D01*
X-141698Y199351D01*
X-141805Y199310D01*
X-141913Y199272D01*
X-141920Y199267D01*
X-141928Y199264D01*
X-142017Y199191D01*
X-142106Y199121D01*
X-142113Y199112D01*
X-142118Y199108D01*
X-142131Y199088D01*
X-142206Y198986D01*
X-161017Y166403D01*
X-162654Y167533D01*
X-162681Y167544D01*
X-162703Y167563D01*
X-162772Y167583D01*
X-162837Y167611D01*
X-162866Y167611D01*
X-162894Y167619D01*
X-162965Y167611D01*
X-163036Y167612D01*
X-163063Y167600D01*
X-163092Y167597D01*
X-163154Y167562D01*
X-163219Y167534D01*
X-163240Y167514D01*
X-163265Y167499D01*
X-163328Y167422D01*
X-163358Y167392D01*
X-163362Y167382D01*
X-163371Y167371D01*
X-172871Y150871D01*
X-172895Y150798D01*
X-172926Y150728D01*
X-172926Y150704D01*
X-172934Y150682D01*
X-172928Y150606D01*
X-172929Y150529D01*
X-172919Y150505D01*
X-172918Y150484D01*
X-172897Y150445D01*
X-172878Y150393D01*
X-172877Y150387D01*
X-172875Y150385D01*
X-172871Y150373D01*
X-163371Y133873D01*
X-163352Y133851D01*
X-163339Y133825D01*
X-163286Y133777D01*
X-163239Y133724D01*
X-163213Y133711D01*
X-163192Y133692D01*
X-163124Y133669D01*
X-163060Y133638D01*
X-163031Y133637D01*
X-163004Y133627D01*
X-162932Y133632D01*
X-162861Y133629D01*
X-162834Y133639D01*
X-162805Y133641D01*
X-162715Y133683D01*
X-162675Y133698D01*
X-162667Y133705D01*
X-162654Y133711D01*
X-161017Y134841D01*
X-142206Y102258D01*
X-142133Y102169D01*
X-142063Y102080D01*
X-142056Y102075D01*
X-142050Y102068D01*
X-141953Y102007D01*
X-141858Y101944D01*
X-141849Y101942D01*
X-141842Y101937D01*
X-141730Y101910D01*
X-141620Y101881D01*
X-141611Y101882D01*
X-141603Y101880D01*
X-141489Y101890D01*
X-141375Y101897D01*
X-141365Y101901D01*
X-141358Y101902D01*
X-141336Y101911D01*
X-141216Y101953D01*
X-140704Y102200D01*
X-140675Y102220D01*
X-140643Y102232D01*
X-140575Y102290D01*
X-140502Y102341D01*
X-140482Y102369D01*
X-140455Y102391D01*
X-140410Y102457D01*
X-139795Y102646D01*
X-139766Y102661D01*
X-139689Y102688D01*
X-139112Y102965D01*
X-139041Y102959D01*
X-138953Y102944D01*
X-138919Y102949D01*
X-138885Y102946D01*
X-138720Y102978D01*
X-136613Y103627D01*
X-136582Y103642D01*
X-136548Y103650D01*
X-136473Y103696D01*
X-136393Y103736D01*
X-136368Y103761D01*
X-136339Y103779D01*
X-136285Y103837D01*
X-135649Y103933D01*
X-135617Y103943D01*
X-135538Y103958D01*
X-134926Y104147D01*
X-134856Y104130D01*
X-134772Y104102D01*
X-134737Y104102D01*
X-134703Y104094D01*
X-134536Y104100D01*
X-132356Y104428D01*
X-132323Y104439D01*
X-132288Y104441D01*
X-132206Y104476D01*
X-132122Y104503D01*
X-132094Y104524D01*
X-132062Y104538D01*
X-132000Y104587D01*
X-131356Y104587D01*
X-131324Y104592D01*
X-131243Y104595D01*
X-130610Y104691D01*
X-130543Y104664D01*
X-130464Y104623D01*
X-130430Y104618D01*
X-130397Y104605D01*
X-130231Y104587D01*
X-128027Y104586D01*
X-127992Y104591D01*
X-127958Y104589D01*
X-127872Y104611D01*
X-127784Y104625D01*
X-127753Y104642D01*
X-127720Y104650D01*
X-127651Y104690D01*
X-127015Y104594D01*
X-126982Y104594D01*
X-126901Y104585D01*
X-126261Y104585D01*
X-126199Y104549D01*
X-126127Y104497D01*
X-126094Y104487D01*
X-126064Y104469D01*
X-125902Y104426D01*
X-123722Y104097D01*
X-123687Y104097D01*
X-123654Y104089D01*
X-123565Y104099D01*
X-123476Y104100D01*
X-123444Y104111D01*
X-123409Y104115D01*
X-123335Y104144D01*
X-122720Y103954D01*
X-122688Y103949D01*
X-122609Y103929D01*
X-121976Y103833D01*
X-121921Y103788D01*
X-121857Y103726D01*
X-121826Y103711D01*
X-121799Y103689D01*
X-121645Y103622D01*
X-119539Y102971D01*
X-119504Y102967D01*
X-119472Y102954D01*
X-119383Y102950D01*
X-119295Y102938D01*
X-119261Y102944D01*
X-119226Y102943D01*
X-119149Y102960D01*
X-118569Y102681D01*
X-118538Y102672D01*
X-118463Y102639D01*
X-117851Y102450D01*
X-117803Y102397D01*
X-117749Y102326D01*
X-117721Y102307D01*
X-117697Y102281D01*
X-117555Y102192D01*
X-115570Y101235D01*
X-115537Y101226D01*
X-115506Y101208D01*
X-115419Y101191D01*
X-115334Y101166D01*
X-115299Y101167D01*
X-115265Y101160D01*
X-115186Y101166D01*
X-114654Y100804D01*
X-114624Y100790D01*
X-114556Y100747D01*
X-113979Y100469D01*
X-113939Y100409D01*
X-113897Y100331D01*
X-113871Y100307D01*
X-113852Y100278D01*
X-113725Y100169D01*
X-111904Y98927D01*
X-111872Y98912D01*
X-111845Y98891D01*
X-111762Y98861D01*
X-111681Y98823D01*
X-111646Y98819D01*
X-111614Y98807D01*
X-111535Y98802D01*
X-111063Y98364D01*
X-111036Y98345D01*
X-110974Y98293D01*
X-110445Y97932D01*
X-110415Y97867D01*
X-110384Y97783D01*
X-110363Y97756D01*
X-110348Y97725D01*
X-110238Y97598D01*
X-108623Y96098D01*
X-108594Y96079D01*
X-108570Y96054D01*
X-108492Y96011D01*
X-108418Y95962D01*
X-108385Y95953D01*
X-108354Y95937D01*
X-108277Y95919D01*
X-107875Y95416D01*
X-107851Y95393D01*
X-107798Y95332D01*
X-107329Y94897D01*
X-107308Y94828D01*
X-107291Y94741D01*
X-107273Y94711D01*
X-107263Y94677D01*
X-107174Y94535D01*
X-105800Y92812D01*
X-105775Y92789D01*
X-105755Y92760D01*
X-105684Y92706D01*
X-105618Y92647D01*
X-105586Y92633D01*
X-105558Y92612D01*
X-105484Y92583D01*
X-105163Y92026D01*
X-105142Y92000D01*
X-105099Y91932D01*
X-104700Y91431D01*
X-104690Y91360D01*
X-104685Y91271D01*
X-104673Y91239D01*
X-104668Y91204D01*
X-104600Y91051D01*
X-103499Y89141D01*
X-103477Y89115D01*
X-103462Y89083D01*
X-103399Y89020D01*
X-103343Y88951D01*
X-103314Y88933D01*
X-103290Y88908D01*
X-103221Y88868D01*
X-102986Y88269D01*
X-102969Y88241D01*
X-102936Y88167D01*
X-102616Y87612D01*
X-102617Y87540D01*
X-102626Y87452D01*
X-102618Y87418D01*
X-102619Y87383D01*
X-102575Y87221D01*
X-101770Y85169D01*
X-101753Y85139D01*
X-101742Y85106D01*
X-101690Y85034D01*
X-101645Y84958D01*
X-101618Y84935D01*
X-101598Y84907D01*
X-101536Y84858D01*
X-101393Y84230D01*
X-101381Y84199D01*
X-101359Y84121D01*
X-101126Y83525D01*
X-101128Y83520D01*
X-101131Y83491D01*
X-101137Y83454D01*
X-101159Y83368D01*
X-101156Y83334D01*
X-101162Y83299D01*
X-101143Y83133D01*
X-100653Y80984D01*
X-100640Y80951D01*
X-100635Y80917D01*
X-100594Y80838D01*
X-100560Y80756D01*
X-100538Y80729D01*
X-100522Y80699D01*
X-100468Y80641D01*
X-100461Y80554D01*
X-100451Y80511D01*
X-100450Y80468D01*
X-100422Y80393D01*
X-100404Y80315D01*
X-100380Y80278D01*
X-100365Y80237D01*
X-100315Y80174D01*
X-100273Y80106D01*
X-100239Y80079D01*
X-100212Y80045D01*
X-100144Y80002D01*
X-100082Y79951D01*
X-100041Y79935D01*
X-100005Y79912D01*
X-99927Y79892D01*
X-99852Y79864D01*
X-99809Y79862D01*
X-99766Y79852D01*
X-99686Y79858D01*
X-99606Y79855D01*
X-99564Y79868D01*
X-99521Y79871D01*
X-99447Y79902D01*
X-99370Y79925D01*
X-99335Y79950D01*
X-99295Y79967D01*
X-99180Y80059D01*
X-99169Y80067D01*
X-99167Y80069D01*
X-99164Y80072D01*
X-98249Y80987D01*
X-94267Y80987D01*
X-91451Y78171D01*
X-91451Y74189D01*
X-94267Y71374D01*
X-98249Y71374D01*
X-99024Y72149D01*
X-99113Y72213D01*
X-99200Y72280D01*
X-99213Y72285D01*
X-99224Y72293D01*
X-99328Y72325D01*
X-99432Y72361D01*
X-99446Y72361D01*
X-99459Y72365D01*
X-99569Y72362D01*
X-99678Y72363D01*
X-99691Y72359D01*
X-99705Y72359D01*
X-99808Y72321D01*
X-99912Y72287D01*
X-99923Y72279D01*
X-99936Y72274D01*
X-100021Y72206D01*
X-100109Y72141D01*
X-100117Y72129D01*
X-100128Y72120D01*
X-100187Y72029D01*
X-100250Y71939D01*
X-100255Y71923D01*
X-100261Y71914D01*
X-100268Y71885D01*
X-100305Y71780D01*
X-100406Y71339D01*
X-100408Y71306D01*
X-100423Y71227D01*
X-100471Y70588D01*
X-100512Y70530D01*
X-100569Y70461D01*
X-100582Y70429D01*
X-100601Y70401D01*
X-100657Y70242D01*
X-101148Y68093D01*
X-101150Y68059D01*
X-101160Y68026D01*
X-101157Y67937D01*
X-101163Y67848D01*
X-101154Y67814D01*
X-101153Y67780D01*
X-101130Y67704D01*
X-101365Y67105D01*
X-101372Y67073D01*
X-101398Y66996D01*
X-101541Y66372D01*
X-101590Y66320D01*
X-101657Y66261D01*
X-101674Y66231D01*
X-101698Y66206D01*
X-101776Y66057D01*
X-102582Y64006D01*
X-102590Y63972D01*
X-102605Y63941D01*
X-102615Y63852D01*
X-102634Y63765D01*
X-102630Y63731D01*
X-102634Y63696D01*
X-102623Y63618D01*
X-102945Y63061D01*
X-102956Y63030D01*
X-102994Y62958D01*
X-103228Y62362D01*
X-103285Y62318D01*
X-103359Y62270D01*
X-103381Y62243D01*
X-103408Y62221D01*
X-103508Y62086D01*
X-104610Y60178D01*
X-104623Y60145D01*
X-104642Y60116D01*
X-104666Y60031D01*
X-104697Y59948D01*
X-104699Y59913D01*
X-104708Y59879D01*
X-104708Y59800D01*
X-105109Y59297D01*
X-105125Y59268D01*
X-105173Y59203D01*
X-105494Y58649D01*
X-105556Y58613D01*
X-105637Y58577D01*
X-105663Y58553D01*
X-105693Y58536D01*
X-105811Y58417D01*
X-107186Y56694D01*
X-107203Y56664D01*
X-107227Y56639D01*
X-107263Y56558D01*
X-107306Y56480D01*
X-107313Y56446D01*
X-107327Y56414D01*
X-107339Y56336D01*
X-107811Y55898D01*
X-107831Y55872D01*
X-107888Y55815D01*
X-108288Y55314D01*
X-108354Y55289D01*
X-108440Y55265D01*
X-108469Y55245D01*
X-108501Y55233D01*
X-108636Y55133D01*
X-110252Y53634D01*
X-110274Y53607D01*
X-110301Y53585D01*
X-110349Y53510D01*
X-110403Y53440D01*
X-110415Y53407D01*
X-110433Y53378D01*
X-110457Y53302D01*
X-110989Y52940D01*
X-111013Y52917D01*
X-111078Y52869D01*
X-111547Y52433D01*
X-111617Y52418D01*
X-111705Y52407D01*
X-111737Y52392D01*
X-111771Y52385D01*
X-111919Y52306D01*
X-112374Y51996D01*
X-112457Y51917D01*
X-112542Y51840D01*
X-112546Y51832D01*
X-112552Y51826D01*
X-112606Y51725D01*
X-112661Y51625D01*
X-112663Y51616D01*
X-112667Y51609D01*
X-112686Y51495D01*
X-112706Y51383D01*
X-112705Y51375D01*
X-112707Y51366D01*
X-112688Y51253D01*
X-112672Y51140D01*
X-112668Y51130D01*
X-112667Y51123D01*
X-112656Y51103D01*
X-112641Y51068D01*
X-112640Y51063D01*
X-112635Y51056D01*
X-112605Y50986D01*
X-93794Y18405D01*
X-95552Y17573D01*
X-95574Y17556D01*
X-95601Y17546D01*
X-95653Y17497D01*
X-95711Y17454D01*
X-95725Y17429D01*
X-95746Y17410D01*
X-95775Y17344D01*
X-95811Y17282D01*
X-95814Y17254D01*
X-95826Y17228D01*
X-95827Y17156D01*
X-95836Y17085D01*
X-95828Y17058D01*
X-95829Y17029D01*
X-95793Y16934D01*
X-95782Y16894D01*
X-95775Y16885D01*
X-95771Y16873D01*
X-86271Y373D01*
X-86219Y315D01*
X-86173Y252D01*
X-86154Y241D01*
X-86139Y224D01*
X-86069Y190D01*
X-86002Y150D01*
X-85978Y146D01*
X-85960Y138D01*
X-85915Y136D01*
X-85838Y123D01*
X-66838Y123D01*
X-66810Y128D01*
G37*
%LPC*%
G36*
X70084Y58622D02*
X70084Y58622D01*
X69190Y59515D01*
X69190Y70778D01*
X70084Y71671D01*
X72242Y71671D01*
X72257Y71674D01*
X72272Y71672D01*
X72378Y71693D01*
X72485Y71711D01*
X72498Y71718D01*
X72513Y71721D01*
X72607Y71775D01*
X72702Y71826D01*
X72713Y71837D01*
X72726Y71844D01*
X72797Y71926D01*
X72872Y72004D01*
X72878Y72018D01*
X72888Y72029D01*
X72930Y72129D01*
X72975Y72227D01*
X72977Y72242D01*
X72983Y72256D01*
X73003Y72423D01*
X73322Y97839D01*
X73321Y97843D01*
X73322Y97849D01*
X73322Y99215D01*
X74301Y100170D01*
X74303Y100173D01*
X74308Y100177D01*
X77020Y102890D01*
X77073Y102964D01*
X77133Y103033D01*
X77145Y103063D01*
X77164Y103089D01*
X77191Y103176D01*
X77225Y103261D01*
X77229Y103302D01*
X77236Y103324D01*
X77235Y103356D01*
X77243Y103428D01*
X77243Y106820D01*
X79359Y108936D01*
X79401Y108994D01*
X79450Y109046D01*
X79472Y109093D01*
X79502Y109135D01*
X79524Y109204D01*
X79554Y109269D01*
X79559Y109321D01*
X79575Y109371D01*
X79573Y109442D01*
X79581Y109513D01*
X79570Y109564D01*
X79568Y109616D01*
X79544Y109684D01*
X79529Y109754D01*
X79502Y109799D01*
X79484Y109847D01*
X79439Y109903D01*
X79402Y109965D01*
X79363Y109999D01*
X79330Y110039D01*
X79270Y110078D01*
X79215Y110125D01*
X79167Y110144D01*
X79123Y110172D01*
X79054Y110190D01*
X78987Y110217D01*
X78916Y110225D01*
X78885Y110233D01*
X78862Y110231D01*
X78821Y110235D01*
X-11318Y110235D01*
X-42103Y141020D01*
X-42177Y141073D01*
X-42246Y141133D01*
X-42276Y141145D01*
X-42302Y141164D01*
X-42389Y141191D01*
X-42474Y141225D01*
X-42515Y141229D01*
X-42537Y141236D01*
X-42570Y141235D01*
X-42641Y141243D01*
X-45171Y141243D01*
X-47987Y144059D01*
X-47987Y148041D01*
X-46071Y149957D01*
X-46059Y149973D01*
X-46044Y149985D01*
X-45988Y150073D01*
X-45928Y150156D01*
X-45922Y150175D01*
X-45911Y150192D01*
X-45886Y150293D01*
X-45855Y150392D01*
X-45856Y150411D01*
X-45851Y150431D01*
X-45859Y150534D01*
X-45862Y150637D01*
X-45868Y150656D01*
X-45870Y150676D01*
X-45910Y150771D01*
X-45946Y150868D01*
X-45958Y150884D01*
X-45966Y150902D01*
X-46071Y151033D01*
X-47987Y152949D01*
X-47987Y156935D01*
X-47954Y156980D01*
X-47905Y157032D01*
X-47883Y157079D01*
X-47852Y157121D01*
X-47831Y157190D01*
X-47801Y157255D01*
X-47795Y157307D01*
X-47780Y157356D01*
X-47782Y157428D01*
X-47774Y157499D01*
X-47785Y157550D01*
X-47786Y157602D01*
X-47811Y157670D01*
X-47826Y157740D01*
X-47853Y157785D01*
X-47871Y157833D01*
X-47916Y157889D01*
X-47953Y157951D01*
X-47992Y157985D01*
X-48025Y158025D01*
X-48085Y158064D01*
X-48139Y158111D01*
X-48188Y158130D01*
X-48232Y158158D01*
X-48301Y158176D01*
X-48368Y158203D01*
X-48439Y158211D01*
X-48470Y158219D01*
X-48493Y158217D01*
X-48534Y158221D01*
X-51999Y158221D01*
X-52089Y158207D01*
X-52180Y158199D01*
X-52210Y158187D01*
X-52242Y158182D01*
X-52323Y158139D01*
X-52407Y158103D01*
X-52439Y158077D01*
X-52460Y158066D01*
X-52482Y158043D01*
X-52538Y157998D01*
X-55224Y155312D01*
X-55278Y155238D01*
X-55337Y155168D01*
X-55349Y155138D01*
X-55368Y155112D01*
X-55395Y155025D01*
X-55429Y154940D01*
X-55433Y154899D01*
X-55440Y154877D01*
X-55440Y154845D01*
X-55447Y154773D01*
X-55447Y152243D01*
X-58263Y149427D01*
X-62245Y149427D01*
X-65061Y152243D01*
X-65061Y156225D01*
X-62245Y159041D01*
X-59715Y159041D01*
X-59625Y159056D01*
X-59534Y159063D01*
X-59504Y159075D01*
X-59472Y159081D01*
X-59392Y159123D01*
X-59308Y159159D01*
X-59276Y159185D01*
X-59255Y159196D01*
X-59233Y159219D01*
X-59177Y159264D01*
X-56490Y161951D01*
X-54407Y164034D01*
X-33746Y184695D01*
X-31886Y186555D01*
X-24296Y186555D01*
X-24276Y186558D01*
X-24257Y186556D01*
X-24155Y186578D01*
X-24053Y186594D01*
X-24036Y186604D01*
X-24016Y186608D01*
X-23927Y186661D01*
X-23836Y186710D01*
X-23822Y186724D01*
X-23805Y186734D01*
X-23738Y186813D01*
X-23666Y186888D01*
X-23658Y186906D01*
X-23645Y186921D01*
X-23606Y187017D01*
X-23563Y187111D01*
X-23561Y187131D01*
X-23553Y187149D01*
X-23535Y187316D01*
X-23535Y189392D01*
X-22642Y190285D01*
X-11096Y190285D01*
X-11076Y190288D01*
X-11057Y190286D01*
X-10955Y190308D01*
X-10853Y190324D01*
X-10836Y190334D01*
X-10816Y190338D01*
X-10727Y190391D01*
X-10636Y190440D01*
X-10622Y190454D01*
X-10605Y190464D01*
X-10538Y190543D01*
X-10466Y190618D01*
X-10458Y190636D01*
X-10445Y190651D01*
X-10406Y190747D01*
X-10363Y190841D01*
X-10361Y190861D01*
X-10353Y190879D01*
X-10335Y191046D01*
X-10335Y201673D01*
X-10349Y201763D01*
X-10357Y201854D01*
X-10369Y201883D01*
X-10374Y201915D01*
X-10417Y201996D01*
X-10453Y202080D01*
X-10479Y202112D01*
X-10490Y202133D01*
X-10513Y202155D01*
X-10558Y202211D01*
X-16937Y208590D01*
X-16953Y208602D01*
X-16965Y208617D01*
X-17053Y208673D01*
X-17136Y208733D01*
X-17155Y208739D01*
X-17172Y208750D01*
X-17273Y208775D01*
X-17372Y208806D01*
X-17391Y208805D01*
X-17411Y208810D01*
X-17514Y208802D01*
X-17617Y208799D01*
X-17636Y208793D01*
X-17656Y208791D01*
X-17751Y208751D01*
X-17848Y208715D01*
X-17864Y208702D01*
X-17882Y208695D01*
X-18013Y208590D01*
X-52100Y174503D01*
X-52153Y174429D01*
X-52213Y174359D01*
X-52225Y174329D01*
X-52244Y174303D01*
X-52271Y174216D01*
X-52305Y174131D01*
X-52309Y174090D01*
X-52316Y174068D01*
X-52315Y174036D01*
X-52323Y173965D01*
X-52323Y173921D01*
X-55151Y171093D01*
X-59149Y171093D01*
X-61977Y173921D01*
X-61977Y177919D01*
X-59149Y180747D01*
X-59105Y180747D01*
X-59015Y180761D01*
X-58924Y180769D01*
X-58895Y180781D01*
X-58863Y180786D01*
X-58782Y180829D01*
X-58698Y180865D01*
X-58666Y180891D01*
X-58645Y180902D01*
X-58638Y180910D01*
X-58637Y180910D01*
X-58621Y180926D01*
X-58567Y180970D01*
X-26386Y213151D01*
X-26333Y213225D01*
X-26273Y213295D01*
X-26261Y213325D01*
X-26242Y213351D01*
X-26215Y213438D01*
X-26181Y213523D01*
X-26177Y213564D01*
X-26170Y213586D01*
X-26171Y213618D01*
X-26163Y213689D01*
X-26163Y216463D01*
X-26177Y216553D01*
X-26185Y216644D01*
X-26197Y216673D01*
X-26202Y216705D01*
X-26245Y216786D01*
X-26281Y216870D01*
X-26307Y216902D01*
X-26318Y216923D01*
X-26341Y216945D01*
X-26386Y217001D01*
X-26897Y217512D01*
X-26897Y221908D01*
X-23788Y225017D01*
X-19392Y225017D01*
X-16283Y221908D01*
X-16283Y221185D01*
X-16269Y221095D01*
X-16261Y221004D01*
X-16249Y220975D01*
X-16244Y220943D01*
X-16201Y220862D01*
X-16165Y220778D01*
X-16139Y220746D01*
X-16128Y220725D01*
X-16105Y220703D01*
X-16060Y220647D01*
X-1189Y205776D01*
X-1189Y178576D01*
X-1175Y178486D01*
X-1167Y178395D01*
X-1155Y178365D01*
X-1150Y178333D01*
X-1107Y178252D01*
X-1071Y178168D01*
X-1045Y178136D01*
X-1034Y178115D01*
X-1011Y178093D01*
X-966Y178037D01*
X-897Y177968D01*
X-897Y174546D01*
X-894Y174526D01*
X-896Y174507D01*
X-874Y174405D01*
X-858Y174303D01*
X-848Y174286D01*
X-844Y174266D01*
X-791Y174177D01*
X-742Y174086D01*
X-728Y174072D01*
X-718Y174055D01*
X-639Y173988D01*
X-564Y173916D01*
X-546Y173908D01*
X-531Y173895D01*
X-435Y173856D01*
X-341Y173813D01*
X-321Y173811D01*
X-303Y173803D01*
X-136Y173785D01*
X9442Y173785D01*
X10335Y172892D01*
X10335Y172094D01*
X10338Y172074D01*
X10336Y172055D01*
X10358Y171953D01*
X10374Y171851D01*
X10384Y171834D01*
X10388Y171814D01*
X10441Y171725D01*
X10490Y171634D01*
X10504Y171620D01*
X10514Y171603D01*
X10593Y171536D01*
X10668Y171464D01*
X10686Y171456D01*
X10701Y171443D01*
X10797Y171404D01*
X10891Y171361D01*
X10911Y171359D01*
X10929Y171351D01*
X11096Y171333D01*
X14344Y171333D01*
X14364Y171336D01*
X14383Y171334D01*
X14485Y171356D01*
X14587Y171372D01*
X14604Y171382D01*
X14624Y171386D01*
X14713Y171439D01*
X14804Y171488D01*
X14818Y171502D01*
X14835Y171512D01*
X14902Y171591D01*
X14974Y171666D01*
X14982Y171684D01*
X14995Y171699D01*
X15034Y171795D01*
X15077Y171889D01*
X15079Y171909D01*
X15087Y171927D01*
X15105Y172094D01*
X15105Y172892D01*
X15998Y173785D01*
X32262Y173785D01*
X33155Y172892D01*
X33155Y163617D01*
X33158Y163597D01*
X33156Y163578D01*
X33178Y163476D01*
X33194Y163374D01*
X33204Y163357D01*
X33208Y163337D01*
X33261Y163248D01*
X33310Y163157D01*
X33324Y163143D01*
X33334Y163126D01*
X33413Y163059D01*
X33488Y162987D01*
X33506Y162979D01*
X33521Y162966D01*
X33617Y162927D01*
X33711Y162884D01*
X33731Y162882D01*
X33749Y162874D01*
X33916Y162856D01*
X51907Y162856D01*
X51978Y162867D01*
X52050Y162869D01*
X52099Y162887D01*
X52150Y162895D01*
X52213Y162929D01*
X52281Y162954D01*
X52321Y162986D01*
X52367Y163011D01*
X52417Y163063D01*
X52473Y163107D01*
X52501Y163151D01*
X52537Y163189D01*
X52567Y163254D01*
X52606Y163314D01*
X52618Y163365D01*
X52640Y163412D01*
X52648Y163483D01*
X52666Y163553D01*
X52662Y163605D01*
X52667Y163656D01*
X52652Y163727D01*
X52647Y163798D01*
X52626Y163846D01*
X52615Y163897D01*
X52578Y163958D01*
X52550Y164024D01*
X52505Y164080D01*
X52489Y164108D01*
X52471Y164123D01*
X52445Y164155D01*
X51405Y165195D01*
X51405Y172938D01*
X51391Y173028D01*
X51383Y173119D01*
X51371Y173148D01*
X51366Y173180D01*
X51323Y173261D01*
X51287Y173345D01*
X51261Y173377D01*
X51250Y173398D01*
X51227Y173420D01*
X51209Y173442D01*
X51209Y229914D01*
X51195Y230004D01*
X51187Y230095D01*
X51175Y230125D01*
X51170Y230157D01*
X51127Y230238D01*
X51091Y230322D01*
X51065Y230354D01*
X51054Y230374D01*
X51031Y230397D01*
X50986Y230452D01*
X34189Y247250D01*
X34094Y247318D01*
X34001Y247388D01*
X33995Y247390D01*
X33989Y247393D01*
X33878Y247427D01*
X33767Y247464D01*
X33760Y247464D01*
X33754Y247466D01*
X33638Y247462D01*
X33521Y247461D01*
X33513Y247459D01*
X33509Y247459D01*
X33491Y247453D01*
X33360Y247415D01*
X30730Y246325D01*
X25150Y246325D01*
X19996Y248460D01*
X16050Y252406D01*
X13915Y257560D01*
X13915Y263140D01*
X16050Y268294D01*
X19996Y272240D01*
X25150Y274375D01*
X30730Y274375D01*
X35884Y272240D01*
X39830Y268294D01*
X41965Y263140D01*
X41965Y257560D01*
X40650Y254387D01*
X40624Y254273D01*
X40595Y254160D01*
X40595Y254153D01*
X40594Y254147D01*
X40605Y254031D01*
X40614Y253914D01*
X40617Y253909D01*
X40617Y253902D01*
X40665Y253795D01*
X40710Y253688D01*
X40715Y253682D01*
X40717Y253678D01*
X40730Y253664D01*
X40815Y253557D01*
X60355Y234018D01*
X60355Y177552D01*
X60370Y177462D01*
X60377Y177371D01*
X60389Y177342D01*
X60394Y177310D01*
X60437Y177229D01*
X60453Y177192D01*
X60453Y173302D01*
X60434Y173276D01*
X60407Y173189D01*
X60373Y173104D01*
X60369Y173063D01*
X60362Y173041D01*
X60363Y173009D01*
X60355Y172938D01*
X60355Y165195D01*
X59315Y164155D01*
X59273Y164097D01*
X59223Y164045D01*
X59201Y163998D01*
X59171Y163956D01*
X59150Y163887D01*
X59120Y163822D01*
X59114Y163770D01*
X59099Y163720D01*
X59101Y163649D01*
X59093Y163578D01*
X59104Y163527D01*
X59105Y163475D01*
X59130Y163407D01*
X59145Y163337D01*
X59172Y163292D01*
X59189Y163244D01*
X59234Y163187D01*
X59271Y163126D01*
X59311Y163092D01*
X59343Y163052D01*
X59403Y163013D01*
X59458Y162966D01*
X59506Y162947D01*
X59550Y162919D01*
X59620Y162901D01*
X59686Y162874D01*
X59757Y162866D01*
X59789Y162858D01*
X59812Y162860D01*
X59853Y162856D01*
X64607Y162856D01*
X64678Y162867D01*
X64750Y162869D01*
X64799Y162887D01*
X64850Y162895D01*
X64913Y162929D01*
X64981Y162954D01*
X65021Y162986D01*
X65067Y163011D01*
X65117Y163063D01*
X65173Y163107D01*
X65201Y163151D01*
X65237Y163189D01*
X65267Y163254D01*
X65306Y163314D01*
X65318Y163365D01*
X65340Y163412D01*
X65348Y163483D01*
X65366Y163553D01*
X65362Y163605D01*
X65367Y163656D01*
X65352Y163727D01*
X65347Y163798D01*
X65326Y163846D01*
X65315Y163897D01*
X65278Y163958D01*
X65250Y164024D01*
X65205Y164080D01*
X65189Y164108D01*
X65171Y164123D01*
X65145Y164155D01*
X64105Y165195D01*
X64105Y172938D01*
X64090Y173028D01*
X64083Y173119D01*
X64071Y173148D01*
X64066Y173180D01*
X64023Y173261D01*
X64007Y173298D01*
X64007Y177188D01*
X64026Y177214D01*
X64053Y177301D01*
X64087Y177386D01*
X64091Y177427D01*
X64098Y177449D01*
X64097Y177481D01*
X64105Y177552D01*
X64105Y185295D01*
X64174Y185364D01*
X64227Y185438D01*
X64287Y185507D01*
X64299Y185537D01*
X64318Y185563D01*
X64345Y185650D01*
X64379Y185735D01*
X64383Y185776D01*
X64390Y185798D01*
X64389Y185831D01*
X64397Y185902D01*
X64397Y190991D01*
X64383Y191081D01*
X64375Y191172D01*
X64363Y191202D01*
X64358Y191234D01*
X64315Y191315D01*
X64279Y191398D01*
X64253Y191431D01*
X64242Y191451D01*
X64219Y191473D01*
X64174Y191529D01*
X63215Y192488D01*
X63215Y203752D01*
X63248Y203785D01*
X63301Y203859D01*
X63361Y203928D01*
X63373Y203958D01*
X63392Y203984D01*
X63419Y204071D01*
X63453Y204156D01*
X63457Y204197D01*
X63464Y204219D01*
X63463Y204252D01*
X63471Y204323D01*
X63471Y258677D01*
X63457Y258767D01*
X63449Y258858D01*
X63437Y258887D01*
X63432Y258919D01*
X63389Y259000D01*
X63353Y259084D01*
X63327Y259116D01*
X63316Y259137D01*
X63293Y259159D01*
X63248Y259215D01*
X46589Y275874D01*
X46515Y275927D01*
X46445Y275987D01*
X46415Y275999D01*
X46389Y276018D01*
X46302Y276045D01*
X46217Y276079D01*
X46176Y276083D01*
X46154Y276090D01*
X46122Y276089D01*
X46051Y276097D01*
X-331Y276097D01*
X-421Y276083D01*
X-512Y276075D01*
X-541Y276063D01*
X-573Y276058D01*
X-654Y276015D01*
X-738Y275979D01*
X-770Y275953D01*
X-791Y275942D01*
X-813Y275919D01*
X-869Y275874D01*
X-8612Y268131D01*
X-8665Y268057D01*
X-8725Y267987D01*
X-8737Y267957D01*
X-8756Y267931D01*
X-8783Y267844D01*
X-8817Y267759D01*
X-8821Y267718D01*
X-8828Y267696D01*
X-8827Y267664D01*
X-8835Y267593D01*
X-8835Y247218D01*
X-9728Y246325D01*
X-35992Y246325D01*
X-36885Y247218D01*
X-36885Y273482D01*
X-35992Y274375D01*
X-15617Y274375D01*
X-15527Y274389D01*
X-15436Y274397D01*
X-15407Y274409D01*
X-15375Y274414D01*
X-15294Y274457D01*
X-15210Y274493D01*
X-15178Y274519D01*
X-15157Y274530D01*
X-15144Y274543D01*
X-15143Y274544D01*
X-15132Y274555D01*
X-15079Y274598D01*
X-4434Y285243D01*
X50154Y285243D01*
X72617Y262780D01*
X72617Y253531D01*
X72620Y253511D01*
X72618Y253492D01*
X72640Y253390D01*
X72656Y253288D01*
X72666Y253271D01*
X72670Y253251D01*
X72723Y253162D01*
X72772Y253071D01*
X72786Y253057D01*
X72796Y253040D01*
X72875Y252973D01*
X72950Y252901D01*
X72968Y252893D01*
X72983Y252880D01*
X73079Y252841D01*
X73173Y252798D01*
X73193Y252796D01*
X73211Y252788D01*
X73378Y252770D01*
X79047Y252770D01*
X79940Y251877D01*
X79940Y242304D01*
X79951Y242234D01*
X79953Y242162D01*
X79971Y242113D01*
X79979Y242062D01*
X80013Y241998D01*
X80038Y241931D01*
X80070Y241890D01*
X80095Y241844D01*
X80147Y241795D01*
X80191Y241739D01*
X80235Y241711D01*
X80273Y241675D01*
X80338Y241645D01*
X80398Y241606D01*
X80449Y241593D01*
X80496Y241571D01*
X80567Y241563D01*
X80637Y241546D01*
X80689Y241550D01*
X80740Y241544D01*
X80811Y241559D01*
X80882Y241565D01*
X80930Y241585D01*
X80981Y241596D01*
X81042Y241633D01*
X81108Y241661D01*
X81164Y241706D01*
X81192Y241723D01*
X81207Y241740D01*
X81239Y241766D01*
X81759Y242286D01*
X83667Y244194D01*
X83714Y244259D01*
X83726Y244272D01*
X83729Y244278D01*
X83780Y244338D01*
X83792Y244368D01*
X83811Y244394D01*
X83838Y244481D01*
X83872Y244566D01*
X83876Y244607D01*
X83883Y244629D01*
X83882Y244661D01*
X83890Y244732D01*
X83890Y251877D01*
X84783Y252770D01*
X96047Y252770D01*
X96940Y251877D01*
X96940Y239613D01*
X96047Y238720D01*
X91442Y238720D01*
X91352Y238706D01*
X91261Y238698D01*
X91232Y238686D01*
X91200Y238681D01*
X91119Y238638D01*
X91035Y238602D01*
X91003Y238576D01*
X90982Y238565D01*
X90960Y238542D01*
X90904Y238497D01*
X88226Y235819D01*
X88173Y235745D01*
X88113Y235675D01*
X88101Y235645D01*
X88082Y235619D01*
X88055Y235532D01*
X88021Y235447D01*
X88017Y235406D01*
X88010Y235384D01*
X88011Y235352D01*
X88003Y235281D01*
X88003Y205406D01*
X88006Y205386D01*
X88004Y205367D01*
X88026Y205265D01*
X88042Y205163D01*
X88052Y205146D01*
X88056Y205126D01*
X88109Y205037D01*
X88158Y204946D01*
X88172Y204932D01*
X88182Y204915D01*
X88261Y204848D01*
X88336Y204776D01*
X88354Y204768D01*
X88369Y204755D01*
X88465Y204716D01*
X88559Y204673D01*
X88579Y204671D01*
X88597Y204663D01*
X88764Y204645D01*
X93372Y204645D01*
X94265Y203752D01*
X94265Y192488D01*
X93372Y191595D01*
X81108Y191595D01*
X80215Y192488D01*
X80215Y198363D01*
X80201Y198453D01*
X80193Y198544D01*
X80181Y198573D01*
X80176Y198605D01*
X80133Y198686D01*
X80097Y198770D01*
X80071Y198802D01*
X80060Y198823D01*
X80037Y198845D01*
X79992Y198901D01*
X78857Y200036D01*
X78857Y237959D01*
X78854Y237979D01*
X78856Y237998D01*
X78834Y238100D01*
X78818Y238202D01*
X78808Y238219D01*
X78804Y238239D01*
X78751Y238328D01*
X78702Y238419D01*
X78688Y238433D01*
X78678Y238450D01*
X78599Y238517D01*
X78524Y238589D01*
X78506Y238597D01*
X78491Y238610D01*
X78395Y238649D01*
X78301Y238692D01*
X78281Y238694D01*
X78263Y238702D01*
X78096Y238720D01*
X73378Y238720D01*
X73358Y238717D01*
X73339Y238719D01*
X73237Y238697D01*
X73135Y238681D01*
X73118Y238671D01*
X73098Y238667D01*
X73009Y238614D01*
X72918Y238565D01*
X72904Y238551D01*
X72887Y238541D01*
X72820Y238462D01*
X72748Y238387D01*
X72740Y238369D01*
X72727Y238354D01*
X72688Y238258D01*
X72645Y238164D01*
X72643Y238144D01*
X72635Y238126D01*
X72617Y237959D01*
X72617Y205406D01*
X72620Y205386D01*
X72618Y205367D01*
X72640Y205265D01*
X72656Y205163D01*
X72666Y205146D01*
X72670Y205126D01*
X72723Y205037D01*
X72772Y204946D01*
X72786Y204932D01*
X72796Y204915D01*
X72875Y204848D01*
X72950Y204776D01*
X72968Y204768D01*
X72983Y204755D01*
X73079Y204716D01*
X73173Y204673D01*
X73193Y204671D01*
X73211Y204663D01*
X73378Y204645D01*
X76372Y204645D01*
X77265Y203752D01*
X77265Y192488D01*
X76372Y191595D01*
X74304Y191595D01*
X74284Y191592D01*
X74265Y191594D01*
X74163Y191572D01*
X74061Y191556D01*
X74044Y191546D01*
X74024Y191542D01*
X73935Y191489D01*
X73844Y191440D01*
X73830Y191426D01*
X73813Y191416D01*
X73746Y191337D01*
X73674Y191262D01*
X73666Y191244D01*
X73653Y191229D01*
X73614Y191133D01*
X73571Y191039D01*
X73569Y191019D01*
X73561Y191001D01*
X73543Y190834D01*
X73543Y173741D01*
X73278Y173476D01*
X73224Y173402D01*
X73165Y173332D01*
X73153Y173302D01*
X73134Y173276D01*
X73107Y173189D01*
X73073Y173104D01*
X73069Y173063D01*
X73062Y173041D01*
X73063Y173009D01*
X73055Y172938D01*
X73055Y167719D01*
X73066Y167649D01*
X73068Y167577D01*
X73086Y167528D01*
X73094Y167477D01*
X73128Y167413D01*
X73153Y167346D01*
X73185Y167305D01*
X73210Y167259D01*
X73262Y167210D01*
X73306Y167154D01*
X73350Y167126D01*
X73388Y167090D01*
X73453Y167060D01*
X73513Y167021D01*
X73564Y167008D01*
X73611Y166986D01*
X73682Y166978D01*
X73752Y166961D01*
X73804Y166965D01*
X73855Y166959D01*
X73926Y166974D01*
X73997Y166980D01*
X74045Y167000D01*
X74096Y167011D01*
X74157Y167048D01*
X74223Y167076D01*
X74279Y167121D01*
X74307Y167138D01*
X74322Y167155D01*
X74354Y167181D01*
X76484Y169311D01*
X76537Y169385D01*
X76597Y169455D01*
X76609Y169485D01*
X76628Y169511D01*
X76655Y169598D01*
X76689Y169683D01*
X76693Y169724D01*
X76700Y169746D01*
X76699Y169778D01*
X76707Y169849D01*
X76707Y177188D01*
X76726Y177214D01*
X76753Y177301D01*
X76787Y177386D01*
X76791Y177427D01*
X76798Y177449D01*
X76797Y177481D01*
X76805Y177552D01*
X76805Y185295D01*
X78130Y186620D01*
X84430Y186620D01*
X85755Y185295D01*
X85755Y177552D01*
X85770Y177462D01*
X85777Y177371D01*
X85789Y177342D01*
X85794Y177310D01*
X85837Y177229D01*
X85853Y177192D01*
X85853Y165697D01*
X85834Y165671D01*
X85807Y165584D01*
X85773Y165499D01*
X85769Y165458D01*
X85762Y165436D01*
X85763Y165404D01*
X85755Y165333D01*
X85755Y165195D01*
X84430Y163870D01*
X84292Y163870D01*
X84202Y163856D01*
X84111Y163848D01*
X84082Y163836D01*
X84050Y163831D01*
X83969Y163788D01*
X83885Y163752D01*
X83853Y163726D01*
X83832Y163715D01*
X83810Y163692D01*
X83754Y163647D01*
X73817Y153710D01*
X29713Y153710D01*
X25911Y157512D01*
X25837Y157565D01*
X25767Y157625D01*
X25737Y157637D01*
X25711Y157656D01*
X25624Y157683D01*
X25539Y157717D01*
X25498Y157721D01*
X25476Y157728D01*
X25444Y157727D01*
X25373Y157735D01*
X15998Y157735D01*
X15105Y158628D01*
X15105Y161426D01*
X15102Y161446D01*
X15104Y161465D01*
X15082Y161567D01*
X15066Y161669D01*
X15056Y161686D01*
X15052Y161706D01*
X14999Y161795D01*
X14950Y161886D01*
X14936Y161900D01*
X14926Y161917D01*
X14847Y161984D01*
X14772Y162056D01*
X14754Y162064D01*
X14739Y162077D01*
X14643Y162116D01*
X14549Y162159D01*
X14529Y162161D01*
X14511Y162169D01*
X14344Y162187D01*
X11096Y162187D01*
X11076Y162184D01*
X11057Y162186D01*
X10955Y162164D01*
X10853Y162148D01*
X10836Y162138D01*
X10816Y162134D01*
X10727Y162081D01*
X10636Y162032D01*
X10622Y162018D01*
X10605Y162008D01*
X10538Y161929D01*
X10466Y161854D01*
X10458Y161836D01*
X10445Y161821D01*
X10406Y161725D01*
X10363Y161631D01*
X10361Y161611D01*
X10353Y161593D01*
X10335Y161426D01*
X10335Y160628D01*
X9442Y159735D01*
X-1822Y159735D01*
X-2715Y160628D01*
X-2715Y160937D01*
X-2718Y160957D01*
X-2716Y160976D01*
X-2738Y161078D01*
X-2754Y161180D01*
X-2764Y161197D01*
X-2768Y161217D01*
X-2821Y161306D01*
X-2870Y161397D01*
X-2884Y161411D01*
X-2894Y161428D01*
X-2973Y161495D01*
X-3048Y161567D01*
X-3066Y161575D01*
X-3081Y161588D01*
X-3177Y161627D01*
X-3271Y161670D01*
X-3291Y161672D01*
X-3309Y161680D01*
X-3476Y161698D01*
X-7913Y161698D01*
X-8179Y161964D01*
X-8253Y162017D01*
X-8281Y162041D01*
X-8296Y162056D01*
X-8300Y162057D01*
X-8323Y162077D01*
X-8353Y162089D01*
X-8379Y162108D01*
X-8466Y162135D01*
X-8468Y162136D01*
X-8519Y162159D01*
X-8530Y162160D01*
X-8551Y162169D01*
X-8592Y162173D01*
X-8614Y162180D01*
X-8646Y162179D01*
X-8717Y162187D01*
X-8724Y162187D01*
X-8744Y162184D01*
X-8763Y162186D01*
X-8815Y162175D01*
X-8860Y162174D01*
X-8904Y162158D01*
X-8967Y162148D01*
X-8984Y162138D01*
X-9004Y162134D01*
X-9059Y162101D01*
X-9091Y162089D01*
X-9119Y162067D01*
X-9184Y162032D01*
X-9198Y162018D01*
X-9215Y162008D01*
X-9263Y161952D01*
X-9283Y161936D01*
X-9297Y161913D01*
X-9354Y161854D01*
X-9362Y161836D01*
X-9375Y161821D01*
X-9405Y161745D01*
X-9416Y161729D01*
X-9421Y161709D01*
X-9457Y161631D01*
X-9459Y161611D01*
X-9467Y161593D01*
X-9485Y161426D01*
X-9485Y161128D01*
X-10378Y160235D01*
X-22642Y160235D01*
X-23535Y161128D01*
X-23535Y172392D01*
X-22642Y173285D01*
X-10985Y173285D01*
X-10914Y173296D01*
X-10843Y173298D01*
X-10794Y173316D01*
X-10742Y173324D01*
X-10679Y173358D01*
X-10612Y173383D01*
X-10571Y173415D01*
X-10525Y173440D01*
X-10476Y173492D01*
X-10420Y173536D01*
X-10392Y173580D01*
X-10356Y173618D01*
X-10325Y173683D01*
X-10287Y173743D01*
X-10274Y173794D01*
X-10252Y173841D01*
X-10244Y173912D01*
X-10227Y173982D01*
X-10231Y174034D01*
X-10225Y174085D01*
X-10240Y174156D01*
X-10246Y174227D01*
X-10266Y174275D01*
X-10277Y174326D01*
X-10314Y174387D01*
X-10335Y174436D01*
X-10335Y176474D01*
X-10338Y176494D01*
X-10336Y176513D01*
X-10358Y176615D01*
X-10374Y176717D01*
X-10384Y176734D01*
X-10388Y176754D01*
X-10441Y176843D01*
X-10490Y176934D01*
X-10504Y176948D01*
X-10514Y176965D01*
X-10593Y177032D01*
X-10668Y177104D01*
X-10686Y177112D01*
X-10701Y177125D01*
X-10797Y177164D01*
X-10891Y177207D01*
X-10911Y177209D01*
X-10929Y177217D01*
X-11096Y177235D01*
X-22642Y177235D01*
X-23535Y178128D01*
X-23535Y180204D01*
X-23538Y180224D01*
X-23536Y180243D01*
X-23558Y180345D01*
X-23574Y180447D01*
X-23584Y180464D01*
X-23588Y180484D01*
X-23641Y180573D01*
X-23690Y180664D01*
X-23704Y180678D01*
X-23714Y180695D01*
X-23793Y180762D01*
X-23868Y180834D01*
X-23886Y180842D01*
X-23901Y180855D01*
X-23997Y180894D01*
X-24091Y180937D01*
X-24111Y180939D01*
X-24129Y180947D01*
X-24296Y180965D01*
X-29255Y180965D01*
X-29345Y180951D01*
X-29436Y180943D01*
X-29466Y180931D01*
X-29498Y180926D01*
X-29579Y180883D01*
X-29663Y180847D01*
X-29695Y180821D01*
X-29716Y180810D01*
X-29738Y180787D01*
X-29794Y180742D01*
X-45426Y165110D01*
X-45468Y165052D01*
X-45517Y165000D01*
X-45539Y164953D01*
X-45569Y164911D01*
X-45590Y164842D01*
X-45621Y164777D01*
X-45626Y164725D01*
X-45642Y164675D01*
X-45640Y164604D01*
X-45648Y164533D01*
X-45637Y164482D01*
X-45635Y164430D01*
X-45611Y164362D01*
X-45595Y164292D01*
X-45569Y164248D01*
X-45551Y164199D01*
X-45506Y164143D01*
X-45469Y164081D01*
X-45430Y164047D01*
X-45397Y164007D01*
X-45337Y163968D01*
X-45282Y163921D01*
X-45234Y163902D01*
X-45190Y163874D01*
X-45121Y163856D01*
X-45054Y163829D01*
X-44983Y163821D01*
X-44952Y163813D01*
X-44928Y163815D01*
X-44887Y163811D01*
X-39506Y163811D01*
X-19642Y143947D01*
X-19568Y143894D01*
X-19498Y143834D01*
X-19468Y143822D01*
X-19442Y143803D01*
X-19355Y143776D01*
X-19270Y143742D01*
X-19229Y143738D01*
X-19207Y143731D01*
X-19175Y143732D01*
X-19103Y143724D01*
X50553Y143724D01*
X52413Y141864D01*
X56934Y137343D01*
X57008Y137290D01*
X57077Y137230D01*
X57107Y137218D01*
X57134Y137199D01*
X57221Y137172D01*
X57306Y137138D01*
X57346Y137134D01*
X57369Y137127D01*
X57401Y137128D01*
X57472Y137120D01*
X59030Y137120D01*
X60355Y135795D01*
X60355Y129301D01*
X60358Y129281D01*
X60356Y129262D01*
X60378Y129160D01*
X60394Y129058D01*
X60404Y129041D01*
X60408Y129021D01*
X60461Y128932D01*
X60510Y128841D01*
X60524Y128827D01*
X60534Y128810D01*
X60613Y128743D01*
X60688Y128671D01*
X60706Y128663D01*
X60721Y128650D01*
X60817Y128611D01*
X60911Y128568D01*
X60931Y128566D01*
X60949Y128558D01*
X61116Y128540D01*
X63344Y128540D01*
X63364Y128543D01*
X63383Y128541D01*
X63485Y128563D01*
X63587Y128579D01*
X63604Y128589D01*
X63624Y128593D01*
X63713Y128646D01*
X63804Y128695D01*
X63818Y128709D01*
X63835Y128719D01*
X63902Y128798D01*
X63974Y128873D01*
X63982Y128891D01*
X63995Y128906D01*
X64034Y129002D01*
X64077Y129096D01*
X64079Y129116D01*
X64087Y129134D01*
X64105Y129301D01*
X64105Y135795D01*
X65430Y137120D01*
X71730Y137120D01*
X73055Y135795D01*
X73055Y116586D01*
X73058Y116566D01*
X73056Y116547D01*
X73078Y116445D01*
X73094Y116343D01*
X73104Y116326D01*
X73108Y116306D01*
X73161Y116217D01*
X73210Y116126D01*
X73224Y116112D01*
X73234Y116095D01*
X73313Y116028D01*
X73388Y115956D01*
X73406Y115948D01*
X73421Y115935D01*
X73517Y115896D01*
X73611Y115853D01*
X73631Y115851D01*
X73649Y115843D01*
X73816Y115825D01*
X76044Y115825D01*
X76064Y115828D01*
X76083Y115826D01*
X76185Y115848D01*
X76287Y115864D01*
X76304Y115874D01*
X76324Y115878D01*
X76413Y115931D01*
X76504Y115980D01*
X76518Y115994D01*
X76535Y116004D01*
X76602Y116083D01*
X76674Y116158D01*
X76682Y116176D01*
X76695Y116191D01*
X76734Y116287D01*
X76777Y116381D01*
X76779Y116401D01*
X76787Y116419D01*
X76805Y116586D01*
X76805Y135795D01*
X78130Y137120D01*
X84430Y137120D01*
X85755Y135795D01*
X85755Y115695D01*
X84430Y114370D01*
X84348Y114370D01*
X84258Y114356D01*
X84167Y114348D01*
X84137Y114336D01*
X84105Y114331D01*
X84025Y114288D01*
X83941Y114252D01*
X83908Y114226D01*
X83888Y114215D01*
X83866Y114192D01*
X83810Y114147D01*
X81758Y112095D01*
X80891Y111228D01*
X80849Y111170D01*
X80799Y111118D01*
X80777Y111071D01*
X80747Y111029D01*
X80726Y110960D01*
X80696Y110895D01*
X80690Y110843D01*
X80675Y110793D01*
X80677Y110722D01*
X80669Y110651D01*
X80680Y110600D01*
X80681Y110548D01*
X80706Y110480D01*
X80721Y110410D01*
X80748Y110365D01*
X80766Y110317D01*
X80810Y110261D01*
X80847Y110199D01*
X80887Y110165D01*
X80919Y110125D01*
X80980Y110086D01*
X81034Y110039D01*
X81082Y110020D01*
X81126Y109992D01*
X81196Y109974D01*
X81262Y109947D01*
X81333Y109939D01*
X81365Y109931D01*
X81388Y109933D01*
X81429Y109929D01*
X84748Y109929D01*
X87857Y106820D01*
X87857Y102424D01*
X84748Y99315D01*
X83103Y99315D01*
X83013Y99301D01*
X82922Y99293D01*
X82892Y99281D01*
X82860Y99276D01*
X82779Y99233D01*
X82696Y99197D01*
X82663Y99171D01*
X82643Y99160D01*
X82630Y99147D01*
X82629Y99147D01*
X82618Y99135D01*
X82565Y99092D01*
X80129Y96657D01*
X80079Y96587D01*
X80022Y96522D01*
X80007Y96487D01*
X79986Y96457D01*
X79960Y96375D01*
X79927Y96295D01*
X79921Y96247D01*
X79913Y96222D01*
X79914Y96191D01*
X79906Y96128D01*
X79610Y72442D01*
X79613Y72417D01*
X79611Y72393D01*
X79632Y72296D01*
X79646Y72199D01*
X79658Y72177D01*
X79663Y72153D01*
X79714Y72068D01*
X79759Y71980D01*
X79776Y71963D01*
X79789Y71941D01*
X79864Y71877D01*
X79935Y71808D01*
X79957Y71798D01*
X79976Y71781D01*
X80068Y71744D01*
X80157Y71702D01*
X80181Y71699D01*
X80204Y71690D01*
X80371Y71671D01*
X82347Y71671D01*
X83240Y70778D01*
X83240Y59515D01*
X82347Y58622D01*
X70084Y58622D01*
G37*
%LPD*%
G36*
X132703Y198189D02*
X132703Y198189D01*
X132746Y198188D01*
X136739Y198789D01*
X136769Y198800D01*
X136812Y198805D01*
X140671Y199994D01*
X140699Y200009D01*
X140740Y200021D01*
X144378Y201772D01*
X144400Y201789D01*
X144426Y201798D01*
X144479Y201848D01*
X144537Y201892D01*
X144550Y201916D01*
X144570Y201935D01*
X144600Y202001D01*
X144636Y202065D01*
X144639Y202092D01*
X144650Y202117D01*
X144651Y202190D01*
X144660Y202262D01*
X144652Y202288D01*
X144652Y202316D01*
X144616Y202414D01*
X144604Y202453D01*
X144598Y202461D01*
X144594Y202472D01*
X117594Y249272D01*
X117576Y249292D01*
X117565Y249317D01*
X117511Y249366D01*
X117463Y249421D01*
X117438Y249432D01*
X117418Y249451D01*
X117349Y249475D01*
X117283Y249506D01*
X117256Y249508D01*
X117231Y249517D01*
X117158Y249512D01*
X117085Y249515D01*
X117059Y249506D01*
X117032Y249504D01*
X116936Y249460D01*
X116898Y249446D01*
X116891Y249439D01*
X116881Y249435D01*
X113544Y247161D01*
X113522Y247138D01*
X113486Y247115D01*
X110525Y244369D01*
X110506Y244343D01*
X110474Y244315D01*
X107956Y241159D01*
X107941Y241130D01*
X107914Y241097D01*
X105894Y237601D01*
X105884Y237571D01*
X105861Y237534D01*
X104385Y233776D01*
X104380Y233744D01*
X104363Y233704D01*
X103463Y229768D01*
X103463Y229736D01*
X103452Y229694D01*
X103149Y225668D01*
X103152Y225645D01*
X103149Y225625D01*
X103151Y225615D01*
X103149Y225594D01*
X103450Y221567D01*
X103458Y221536D01*
X103461Y221493D01*
X104358Y217557D01*
X104371Y217528D01*
X104380Y217485D01*
X105854Y213726D01*
X105871Y213699D01*
X105886Y213659D01*
X107904Y210162D01*
X107925Y210138D01*
X107946Y210100D01*
X110462Y206942D01*
X110487Y206922D01*
X110513Y206888D01*
X113472Y204140D01*
X113499Y204124D01*
X113530Y204094D01*
X116866Y201818D01*
X116895Y201806D01*
X116930Y201781D01*
X120568Y200028D01*
X120598Y200020D01*
X120637Y200001D01*
X124495Y198809D01*
X124527Y198806D01*
X124568Y198793D01*
X128560Y198190D01*
X128592Y198191D01*
X128634Y198184D01*
X132672Y198183D01*
X132703Y198189D01*
G37*
G36*
X-127110Y198184D02*
X-127110Y198184D01*
X-127079Y198190D01*
X-127036Y198190D01*
X-123044Y198793D01*
X-123014Y198804D01*
X-122971Y198809D01*
X-119113Y200001D01*
X-119085Y200016D01*
X-119044Y200028D01*
X-115406Y201781D01*
X-115381Y201800D01*
X-115342Y201818D01*
X-112006Y204094D01*
X-111984Y204117D01*
X-111948Y204140D01*
X-108989Y206888D01*
X-108970Y206913D01*
X-108938Y206942D01*
X-106422Y210100D01*
X-106407Y210128D01*
X-106380Y210162D01*
X-104362Y213659D01*
X-104352Y213689D01*
X-104330Y213726D01*
X-102856Y217485D01*
X-102850Y217517D01*
X-102834Y217557D01*
X-101937Y221493D01*
X-101936Y221525D01*
X-101926Y221567D01*
X-101625Y225594D01*
X-101629Y225625D01*
X-101628Y225641D01*
X-101625Y225658D01*
X-101626Y225662D01*
X-101625Y225668D01*
X-101928Y229694D01*
X-101937Y229725D01*
X-101939Y229768D01*
X-102839Y233704D01*
X-102852Y233733D01*
X-102861Y233776D01*
X-104337Y237534D01*
X-104355Y237561D01*
X-104370Y237601D01*
X-106390Y241097D01*
X-106411Y241121D01*
X-106432Y241159D01*
X-108950Y244315D01*
X-108975Y244335D01*
X-109001Y244369D01*
X-111962Y247115D01*
X-111989Y247131D01*
X-112020Y247161D01*
X-115357Y249435D01*
X-115382Y249445D01*
X-115403Y249462D01*
X-115473Y249483D01*
X-115540Y249512D01*
X-115568Y249512D01*
X-115594Y249519D01*
X-115666Y249511D01*
X-115739Y249511D01*
X-115764Y249500D01*
X-115791Y249497D01*
X-115855Y249461D01*
X-115922Y249433D01*
X-115941Y249413D01*
X-115964Y249400D01*
X-116032Y249319D01*
X-116060Y249289D01*
X-116063Y249280D01*
X-116070Y249272D01*
X-143070Y202472D01*
X-143079Y202446D01*
X-143095Y202423D01*
X-143110Y202352D01*
X-143134Y202283D01*
X-143131Y202256D01*
X-143137Y202229D01*
X-143124Y202158D01*
X-143118Y202085D01*
X-143105Y202060D01*
X-143100Y202034D01*
X-143060Y201973D01*
X-143026Y201908D01*
X-143005Y201891D01*
X-142990Y201868D01*
X-142904Y201807D01*
X-142873Y201782D01*
X-142864Y201779D01*
X-142854Y201772D01*
X-139216Y200021D01*
X-139185Y200014D01*
X-139147Y199994D01*
X-135288Y198805D01*
X-135256Y198802D01*
X-135215Y198789D01*
X-131222Y198188D01*
X-131191Y198190D01*
X-131148Y198183D01*
X-127110Y198184D01*
G37*
G36*
X117190Y51733D02*
X117190Y51733D01*
X117263Y51733D01*
X117288Y51744D01*
X117315Y51747D01*
X117379Y51783D01*
X117446Y51811D01*
X117465Y51831D01*
X117488Y51844D01*
X117556Y51925D01*
X117584Y51955D01*
X117587Y51964D01*
X117594Y51973D01*
X144594Y98773D01*
X144603Y98798D01*
X144619Y98821D01*
X144634Y98892D01*
X144658Y98961D01*
X144655Y98988D01*
X144661Y99015D01*
X144648Y99086D01*
X144642Y99159D01*
X144629Y99184D01*
X144624Y99210D01*
X144584Y99271D01*
X144550Y99336D01*
X144529Y99353D01*
X144514Y99376D01*
X144428Y99437D01*
X144397Y99462D01*
X144388Y99465D01*
X144378Y99472D01*
X140740Y101223D01*
X140709Y101230D01*
X140671Y101250D01*
X136812Y102439D01*
X136780Y102442D01*
X136739Y102455D01*
X132746Y103056D01*
X132715Y103054D01*
X132672Y103061D01*
X128634Y103060D01*
X128603Y103054D01*
X128560Y103054D01*
X124568Y102451D01*
X124538Y102440D01*
X124495Y102435D01*
X120637Y101243D01*
X120609Y101228D01*
X120568Y101216D01*
X116930Y99463D01*
X116905Y99444D01*
X116866Y99426D01*
X113530Y97150D01*
X113508Y97127D01*
X113472Y97104D01*
X110513Y94356D01*
X110494Y94331D01*
X110462Y94302D01*
X107946Y91144D01*
X107931Y91116D01*
X107904Y91082D01*
X105886Y87585D01*
X105876Y87555D01*
X105854Y87518D01*
X104380Y83759D01*
X104374Y83727D01*
X104358Y83687D01*
X103461Y79751D01*
X103460Y79719D01*
X103450Y79677D01*
X103149Y75651D01*
X103153Y75619D01*
X103149Y75576D01*
X103452Y71550D01*
X103461Y71519D01*
X103463Y71476D01*
X104363Y67540D01*
X104376Y67511D01*
X104385Y67468D01*
X105861Y63710D01*
X105879Y63683D01*
X105894Y63643D01*
X107914Y60147D01*
X107935Y60123D01*
X107956Y60085D01*
X110474Y56929D01*
X110499Y56909D01*
X110525Y56875D01*
X113486Y54129D01*
X113513Y54113D01*
X113544Y54083D01*
X116881Y51809D01*
X116906Y51799D01*
X116927Y51782D01*
X116997Y51761D01*
X117064Y51732D01*
X117092Y51733D01*
X117118Y51725D01*
X117190Y51733D01*
G37*
G36*
X-115634Y51732D02*
X-115634Y51732D01*
X-115561Y51729D01*
X-115535Y51738D01*
X-115508Y51740D01*
X-115412Y51784D01*
X-115374Y51798D01*
X-115367Y51805D01*
X-115357Y51809D01*
X-112020Y54083D01*
X-111998Y54106D01*
X-111962Y54129D01*
X-109001Y56875D01*
X-108982Y56901D01*
X-108950Y56929D01*
X-106432Y60085D01*
X-106417Y60114D01*
X-106390Y60147D01*
X-104370Y63643D01*
X-104360Y63673D01*
X-104337Y63710D01*
X-102861Y67468D01*
X-102856Y67500D01*
X-102839Y67540D01*
X-101939Y71476D01*
X-101939Y71508D01*
X-101928Y71550D01*
X-101625Y75576D01*
X-101629Y75607D01*
X-101625Y75651D01*
X-101926Y79677D01*
X-101934Y79708D01*
X-101937Y79751D01*
X-102834Y83687D01*
X-102847Y83716D01*
X-102856Y83759D01*
X-104330Y87518D01*
X-104347Y87545D01*
X-104362Y87585D01*
X-106380Y91082D01*
X-106401Y91106D01*
X-106422Y91144D01*
X-108938Y94302D01*
X-108963Y94322D01*
X-108989Y94356D01*
X-111948Y97104D01*
X-111975Y97120D01*
X-112006Y97150D01*
X-115342Y99426D01*
X-115371Y99438D01*
X-115406Y99463D01*
X-119044Y101216D01*
X-119074Y101224D01*
X-119113Y101243D01*
X-122971Y102435D01*
X-123003Y102438D01*
X-123044Y102451D01*
X-127036Y103054D01*
X-127068Y103053D01*
X-127110Y103060D01*
X-131148Y103061D01*
X-131179Y103055D01*
X-131222Y103056D01*
X-135215Y102455D01*
X-135245Y102444D01*
X-135288Y102439D01*
X-139147Y101250D01*
X-139175Y101235D01*
X-139216Y101223D01*
X-142854Y99472D01*
X-142876Y99455D01*
X-142902Y99446D01*
X-142955Y99396D01*
X-143013Y99352D01*
X-143026Y99328D01*
X-143046Y99309D01*
X-143076Y99243D01*
X-143112Y99179D01*
X-143115Y99152D01*
X-143126Y99127D01*
X-143127Y99054D01*
X-143136Y98982D01*
X-143128Y98956D01*
X-143128Y98928D01*
X-143092Y98830D01*
X-143080Y98791D01*
X-143074Y98783D01*
X-143070Y98773D01*
X-116070Y51973D01*
X-116052Y51952D01*
X-116041Y51927D01*
X-115987Y51878D01*
X-115939Y51824D01*
X-115914Y51812D01*
X-115894Y51793D01*
X-115825Y51769D01*
X-115759Y51738D01*
X-115732Y51737D01*
X-115707Y51727D01*
X-115634Y51732D01*
G37*
G36*
X27789Y128D02*
X27789Y128D01*
X27816Y126D01*
X27885Y148D01*
X27957Y162D01*
X27979Y178D01*
X28005Y186D01*
X28061Y234D01*
X28121Y275D01*
X28135Y298D01*
X28156Y316D01*
X28189Y381D01*
X28228Y442D01*
X28232Y469D01*
X28244Y494D01*
X28254Y598D01*
X28261Y639D01*
X28259Y648D01*
X28260Y659D01*
X27958Y4683D01*
X27950Y4714D01*
X27947Y4757D01*
X27049Y8691D01*
X27036Y8720D01*
X27027Y8763D01*
X25553Y12519D01*
X25536Y12546D01*
X25521Y12587D01*
X23503Y16081D01*
X23482Y16105D01*
X23461Y16143D01*
X20945Y19298D01*
X20920Y19318D01*
X20894Y19353D01*
X17936Y22097D01*
X17909Y22114D01*
X17877Y22144D01*
X14543Y24417D01*
X14514Y24430D01*
X14479Y24455D01*
X10843Y26205D01*
X10812Y26213D01*
X10773Y26233D01*
X6917Y27422D01*
X6886Y27425D01*
X6844Y27439D01*
X2854Y28040D01*
X2822Y28039D01*
X2780Y28046D01*
X-1256Y28046D01*
X-1287Y28039D01*
X-1330Y28040D01*
X-5320Y27439D01*
X-5350Y27428D01*
X-5393Y27422D01*
X-9249Y26233D01*
X-9277Y26217D01*
X-9319Y26205D01*
X-12955Y24455D01*
X-12980Y24435D01*
X-13019Y24417D01*
X-16353Y22144D01*
X-16376Y22121D01*
X-16412Y22097D01*
X-19370Y19353D01*
X-19389Y19327D01*
X-19421Y19298D01*
X-21937Y16143D01*
X-21951Y16115D01*
X-21979Y16081D01*
X-23997Y12587D01*
X-24007Y12556D01*
X-24029Y12519D01*
X-25503Y8763D01*
X-25509Y8731D01*
X-25525Y8691D01*
X-26423Y4757D01*
X-26424Y4725D01*
X-26434Y4683D01*
X-26736Y659D01*
X-26732Y632D01*
X-26737Y605D01*
X-26720Y535D01*
X-26711Y462D01*
X-26697Y438D01*
X-26691Y412D01*
X-26648Y353D01*
X-26611Y290D01*
X-26589Y274D01*
X-26573Y252D01*
X-26510Y215D01*
X-26452Y171D01*
X-26425Y164D01*
X-26402Y150D01*
X-26298Y133D01*
X-26259Y123D01*
X-26249Y125D01*
X-26238Y123D01*
X27762Y123D01*
X27789Y128D01*
G37*
%LPC*%
G36*
X-66862Y55315D02*
X-66862Y55315D01*
X-67755Y56208D01*
X-67755Y65472D01*
X-66862Y66365D01*
X-65786Y66365D01*
X-65766Y66368D01*
X-65747Y66366D01*
X-65645Y66388D01*
X-65543Y66404D01*
X-65526Y66414D01*
X-65506Y66418D01*
X-65417Y66471D01*
X-65326Y66520D01*
X-65312Y66534D01*
X-65295Y66544D01*
X-65228Y66623D01*
X-65156Y66698D01*
X-65148Y66716D01*
X-65135Y66731D01*
X-65096Y66827D01*
X-65053Y66921D01*
X-65051Y66941D01*
X-65043Y66959D01*
X-65025Y67126D01*
X-65025Y68034D01*
X-65028Y68054D01*
X-65026Y68073D01*
X-65048Y68175D01*
X-65064Y68277D01*
X-65074Y68294D01*
X-65078Y68314D01*
X-65131Y68403D01*
X-65180Y68494D01*
X-65194Y68508D01*
X-65204Y68525D01*
X-65283Y68592D01*
X-65358Y68664D01*
X-65376Y68672D01*
X-65391Y68685D01*
X-65487Y68724D01*
X-65581Y68767D01*
X-65601Y68769D01*
X-65619Y68777D01*
X-65786Y68795D01*
X-68362Y68795D01*
X-69338Y69771D01*
X-69396Y69813D01*
X-69448Y69863D01*
X-69495Y69885D01*
X-69537Y69915D01*
X-69606Y69936D01*
X-69671Y69966D01*
X-69723Y69972D01*
X-69773Y69987D01*
X-69844Y69985D01*
X-69915Y69993D01*
X-69966Y69982D01*
X-70018Y69981D01*
X-70086Y69956D01*
X-70156Y69941D01*
X-70201Y69914D01*
X-70249Y69897D01*
X-70305Y69852D01*
X-70367Y69815D01*
X-70401Y69775D01*
X-70441Y69743D01*
X-70480Y69683D01*
X-70527Y69628D01*
X-70546Y69580D01*
X-70574Y69536D01*
X-70592Y69466D01*
X-70619Y69400D01*
X-70627Y69329D01*
X-70635Y69297D01*
X-70633Y69274D01*
X-70637Y69233D01*
X-70637Y68922D01*
X-73746Y65813D01*
X-78142Y65813D01*
X-81251Y68922D01*
X-81251Y73318D01*
X-80996Y73573D01*
X-80943Y73647D01*
X-80883Y73717D01*
X-80871Y73747D01*
X-80852Y73773D01*
X-80825Y73860D01*
X-80791Y73945D01*
X-80787Y73986D01*
X-80780Y74008D01*
X-80781Y74040D01*
X-80773Y74111D01*
X-80773Y89463D01*
X-80787Y89553D01*
X-80795Y89644D01*
X-80807Y89673D01*
X-80812Y89705D01*
X-80855Y89786D01*
X-80891Y89870D01*
X-80917Y89902D01*
X-80928Y89923D01*
X-80951Y89945D01*
X-80996Y90001D01*
X-81507Y90512D01*
X-81507Y94908D01*
X-78398Y98017D01*
X-74002Y98017D01*
X-70893Y94908D01*
X-70893Y90512D01*
X-71404Y90001D01*
X-71457Y89927D01*
X-71517Y89857D01*
X-71529Y89827D01*
X-71548Y89801D01*
X-71575Y89714D01*
X-71609Y89629D01*
X-71613Y89588D01*
X-71620Y89566D01*
X-71619Y89534D01*
X-71627Y89463D01*
X-71627Y74623D01*
X-71613Y74534D01*
X-71605Y74442D01*
X-71593Y74413D01*
X-71588Y74381D01*
X-71545Y74300D01*
X-71509Y74216D01*
X-71483Y74184D01*
X-71472Y74163D01*
X-71449Y74141D01*
X-71404Y74085D01*
X-70554Y73235D01*
X-70496Y73193D01*
X-70444Y73144D01*
X-70397Y73122D01*
X-70355Y73092D01*
X-70286Y73070D01*
X-70221Y73040D01*
X-70169Y73035D01*
X-70119Y73019D01*
X-70048Y73021D01*
X-69977Y73013D01*
X-69926Y73024D01*
X-69874Y73026D01*
X-69806Y73050D01*
X-69736Y73065D01*
X-69691Y73092D01*
X-69643Y73110D01*
X-69587Y73155D01*
X-69525Y73192D01*
X-69491Y73231D01*
X-69451Y73264D01*
X-69412Y73324D01*
X-69365Y73379D01*
X-69346Y73427D01*
X-69318Y73471D01*
X-69300Y73540D01*
X-69273Y73607D01*
X-69265Y73678D01*
X-69257Y73709D01*
X-69259Y73732D01*
X-69255Y73773D01*
X-69255Y80952D01*
X-68362Y81845D01*
X-56098Y81845D01*
X-55205Y80952D01*
X-55205Y69688D01*
X-56098Y68795D01*
X-58674Y68795D01*
X-58694Y68792D01*
X-58713Y68794D01*
X-58815Y68772D01*
X-58917Y68756D01*
X-58934Y68746D01*
X-58954Y68742D01*
X-59043Y68689D01*
X-59134Y68640D01*
X-59148Y68626D01*
X-59165Y68616D01*
X-59232Y68537D01*
X-59304Y68462D01*
X-59312Y68444D01*
X-59325Y68429D01*
X-59364Y68333D01*
X-59407Y68239D01*
X-59409Y68219D01*
X-59417Y68201D01*
X-59435Y68034D01*
X-59435Y67126D01*
X-59432Y67106D01*
X-59434Y67087D01*
X-59412Y66985D01*
X-59396Y66883D01*
X-59386Y66866D01*
X-59382Y66846D01*
X-59329Y66757D01*
X-59280Y66666D01*
X-59266Y66652D01*
X-59256Y66635D01*
X-59177Y66568D01*
X-59102Y66496D01*
X-59084Y66488D01*
X-59069Y66475D01*
X-58973Y66436D01*
X-58879Y66393D01*
X-58859Y66391D01*
X-58841Y66383D01*
X-58674Y66365D01*
X-57598Y66365D01*
X-56705Y65472D01*
X-56705Y56208D01*
X-57598Y55315D01*
X-66862Y55315D01*
G37*
%LPD*%
%LPC*%
G36*
X127022Y114045D02*
X127022Y114045D01*
X121665Y119402D01*
X121665Y126978D01*
X125767Y131080D01*
X125779Y131096D01*
X125794Y131108D01*
X125850Y131196D01*
X125911Y131279D01*
X125916Y131298D01*
X125927Y131315D01*
X125952Y131416D01*
X125983Y131514D01*
X125982Y131534D01*
X125987Y131554D01*
X125979Y131657D01*
X125977Y131760D01*
X125970Y131779D01*
X125968Y131799D01*
X125928Y131894D01*
X125892Y131991D01*
X125880Y132007D01*
X125872Y132025D01*
X125767Y132156D01*
X111589Y146334D01*
X111515Y146387D01*
X111445Y146447D01*
X111415Y146459D01*
X111389Y146478D01*
X111302Y146505D01*
X111217Y146539D01*
X111176Y146543D01*
X111154Y146550D01*
X111122Y146549D01*
X111051Y146557D01*
X107304Y146557D01*
X107214Y146543D01*
X107123Y146535D01*
X107094Y146523D01*
X107062Y146518D01*
X106981Y146475D01*
X106897Y146439D01*
X106865Y146413D01*
X106844Y146402D01*
X106822Y146379D01*
X106766Y146334D01*
X105485Y145053D01*
X101503Y145053D01*
X98687Y147869D01*
X98687Y151851D01*
X101503Y154667D01*
X105485Y154667D01*
X106766Y153386D01*
X106840Y153333D01*
X106909Y153273D01*
X106940Y153261D01*
X106966Y153242D01*
X107053Y153215D01*
X107138Y153181D01*
X107179Y153177D01*
X107201Y153170D01*
X107233Y153171D01*
X107304Y153163D01*
X113743Y153163D01*
X115677Y151228D01*
X115677Y151184D01*
X115692Y151094D01*
X115699Y151003D01*
X115712Y150973D01*
X115717Y150941D01*
X115760Y150861D01*
X115796Y150777D01*
X115821Y150745D01*
X115832Y150724D01*
X115856Y150702D01*
X115900Y150646D01*
X131850Y134696D01*
X133989Y132558D01*
X134063Y132505D01*
X134132Y132445D01*
X134162Y132433D01*
X134188Y132414D01*
X134275Y132387D01*
X134360Y132353D01*
X134401Y132349D01*
X134423Y132342D01*
X134456Y132343D01*
X134527Y132335D01*
X134598Y132335D01*
X139955Y126978D01*
X139955Y119402D01*
X134598Y114045D01*
X127022Y114045D01*
G37*
%LPD*%
%LPC*%
G36*
X-68362Y85795D02*
X-68362Y85795D01*
X-69255Y86688D01*
X-69255Y97952D01*
X-68362Y98845D01*
X-59973Y98845D01*
X-59883Y98859D01*
X-59792Y98867D01*
X-59762Y98879D01*
X-59730Y98884D01*
X-59650Y98927D01*
X-59566Y98963D01*
X-59534Y98989D01*
X-59513Y99000D01*
X-59491Y99023D01*
X-59435Y99068D01*
X-44385Y114117D01*
X-44374Y114133D01*
X-44358Y114146D01*
X-44302Y114233D01*
X-44242Y114317D01*
X-44236Y114336D01*
X-44225Y114353D01*
X-44200Y114453D01*
X-44169Y114552D01*
X-44170Y114572D01*
X-44165Y114591D01*
X-44173Y114694D01*
X-44176Y114798D01*
X-44177Y114800D01*
X-44177Y118967D01*
X-41361Y121783D01*
X-37379Y121783D01*
X-34563Y118967D01*
X-34563Y114985D01*
X-37379Y112169D01*
X-38113Y112169D01*
X-38203Y112155D01*
X-38294Y112147D01*
X-38324Y112135D01*
X-38356Y112130D01*
X-38436Y112087D01*
X-38520Y112051D01*
X-38552Y112025D01*
X-38573Y112014D01*
X-38595Y111991D01*
X-38651Y111946D01*
X-54982Y95615D01*
X-55035Y95541D01*
X-55095Y95472D01*
X-55107Y95442D01*
X-55126Y95416D01*
X-55153Y95329D01*
X-55187Y95244D01*
X-55191Y95203D01*
X-55198Y95181D01*
X-55197Y95148D01*
X-55205Y95077D01*
X-55205Y86688D01*
X-56098Y85795D01*
X-68362Y85795D01*
G37*
%LPD*%
%LPC*%
G36*
X115686Y164873D02*
X115686Y164873D01*
X112577Y167982D01*
X112577Y172378D01*
X115686Y175487D01*
X120082Y175487D01*
X120593Y174976D01*
X120667Y174923D01*
X120737Y174863D01*
X120767Y174851D01*
X120793Y174832D01*
X120880Y174805D01*
X120965Y174771D01*
X121006Y174767D01*
X121028Y174760D01*
X121060Y174761D01*
X121131Y174753D01*
X136679Y174753D01*
X136769Y174767D01*
X136860Y174775D01*
X136889Y174787D01*
X136921Y174792D01*
X137002Y174835D01*
X137086Y174871D01*
X137118Y174897D01*
X137139Y174908D01*
X137161Y174931D01*
X137217Y174976D01*
X137728Y175487D01*
X142124Y175487D01*
X145233Y172378D01*
X145233Y167982D01*
X142124Y164873D01*
X137728Y164873D01*
X137217Y165384D01*
X137143Y165437D01*
X137073Y165497D01*
X137043Y165509D01*
X137017Y165528D01*
X136930Y165555D01*
X136845Y165589D01*
X136804Y165593D01*
X136782Y165600D01*
X136750Y165599D01*
X136679Y165607D01*
X121131Y165607D01*
X121041Y165593D01*
X120950Y165585D01*
X120921Y165573D01*
X120889Y165568D01*
X120808Y165525D01*
X120724Y165489D01*
X120692Y165463D01*
X120671Y165452D01*
X120649Y165429D01*
X120593Y165384D01*
X120082Y164873D01*
X115686Y164873D01*
G37*
%LPD*%
%LPC*%
G36*
X8218Y86133D02*
X8218Y86133D01*
X5109Y89242D01*
X5109Y93638D01*
X8218Y96747D01*
X12614Y96747D01*
X13125Y96236D01*
X13199Y96183D01*
X13269Y96123D01*
X13299Y96111D01*
X13325Y96092D01*
X13412Y96065D01*
X13497Y96031D01*
X13538Y96027D01*
X13560Y96020D01*
X13592Y96021D01*
X13663Y96013D01*
X27861Y96013D01*
X27951Y96027D01*
X28042Y96035D01*
X28071Y96047D01*
X28103Y96052D01*
X28184Y96095D01*
X28268Y96131D01*
X28300Y96157D01*
X28321Y96168D01*
X28343Y96191D01*
X28399Y96236D01*
X28910Y96747D01*
X33306Y96747D01*
X36415Y93638D01*
X36415Y89242D01*
X33306Y86133D01*
X28910Y86133D01*
X28399Y86644D01*
X28325Y86697D01*
X28255Y86757D01*
X28225Y86769D01*
X28199Y86788D01*
X28112Y86815D01*
X28027Y86849D01*
X27986Y86853D01*
X27964Y86860D01*
X27932Y86859D01*
X27861Y86867D01*
X13663Y86867D01*
X13573Y86853D01*
X13482Y86845D01*
X13453Y86833D01*
X13421Y86828D01*
X13340Y86785D01*
X13256Y86749D01*
X13224Y86723D01*
X13203Y86712D01*
X13181Y86689D01*
X13125Y86644D01*
X12614Y86133D01*
X8218Y86133D01*
G37*
%LPD*%
%LPC*%
G36*
X-82528Y232155D02*
X-82528Y232155D01*
X-87885Y237512D01*
X-87885Y245088D01*
X-82528Y250445D01*
X-74952Y250445D01*
X-69595Y245088D01*
X-69595Y237512D01*
X-74952Y232155D01*
X-82528Y232155D01*
G37*
%LPD*%
%LPC*%
G36*
X-119358Y140715D02*
X-119358Y140715D01*
X-124715Y146072D01*
X-124715Y153648D01*
X-119358Y159005D01*
X-111782Y159005D01*
X-106425Y153648D01*
X-106425Y146072D01*
X-111782Y140715D01*
X-119358Y140715D01*
G37*
%LPD*%
%LPC*%
G36*
X-119358Y115315D02*
X-119358Y115315D01*
X-124715Y120672D01*
X-124715Y128248D01*
X-119358Y133605D01*
X-111782Y133605D01*
X-106425Y128248D01*
X-106425Y120672D01*
X-111782Y115315D01*
X-119358Y115315D01*
G37*
%LPD*%
%LPC*%
G36*
X-66862Y40315D02*
X-66862Y40315D01*
X-67755Y41208D01*
X-67755Y50472D01*
X-66862Y51365D01*
X-57598Y51365D01*
X-57483Y51250D01*
X-57409Y51197D01*
X-57340Y51137D01*
X-57310Y51125D01*
X-57284Y51106D01*
X-57197Y51079D01*
X-57112Y51045D01*
X-57071Y51041D01*
X-57049Y51034D01*
X-57016Y51035D01*
X-56945Y51027D01*
X-52412Y51027D01*
X-49303Y47918D01*
X-49303Y43522D01*
X-52412Y40413D01*
X-56974Y40413D01*
X-57051Y40437D01*
X-57071Y40437D01*
X-57090Y40441D01*
X-57193Y40433D01*
X-57297Y40431D01*
X-57315Y40424D01*
X-57335Y40422D01*
X-57431Y40382D01*
X-57528Y40346D01*
X-57543Y40334D01*
X-57562Y40326D01*
X-57575Y40315D01*
X-66862Y40315D01*
G37*
%LPD*%
D10*
X76215Y65146D03*
X76215Y48146D03*
D11*
X83362Y293722D03*
X165962Y150622D03*
X83362Y7522D03*
X-81838Y7522D03*
X-164438Y150622D03*
X-81838Y293722D03*
X124662Y222122D03*
X124662Y79122D03*
X762Y7522D03*
X-123138Y79122D03*
X-123138Y222122D03*
D12*
X24130Y184760D03*
X24130Y165760D03*
D13*
X3810Y183760D03*
X3810Y166760D03*
D14*
X-22860Y260350D03*
D15*
X27940Y260350D03*
D16*
X45393Y134858D02*
X45393Y116632D01*
X40967Y116632D01*
X40967Y134858D01*
X45393Y134858D01*
X45393Y118033D02*
X40967Y118033D01*
X40967Y119434D02*
X45393Y119434D01*
X45393Y120835D02*
X40967Y120835D01*
X40967Y122236D02*
X45393Y122236D01*
X45393Y123637D02*
X40967Y123637D01*
X40967Y125038D02*
X45393Y125038D01*
X45393Y126439D02*
X40967Y126439D01*
X40967Y127840D02*
X45393Y127840D01*
X45393Y129241D02*
X40967Y129241D01*
X40967Y130642D02*
X45393Y130642D01*
X45393Y132043D02*
X40967Y132043D01*
X40967Y133444D02*
X45393Y133444D01*
X45393Y134845D02*
X40967Y134845D01*
X58093Y134858D02*
X58093Y116632D01*
X53667Y116632D01*
X53667Y134858D01*
X58093Y134858D01*
X58093Y118033D02*
X53667Y118033D01*
X53667Y119434D02*
X58093Y119434D01*
X58093Y120835D02*
X53667Y120835D01*
X53667Y122236D02*
X58093Y122236D01*
X58093Y123637D02*
X53667Y123637D01*
X53667Y125038D02*
X58093Y125038D01*
X58093Y126439D02*
X53667Y126439D01*
X53667Y127840D02*
X58093Y127840D01*
X58093Y129241D02*
X53667Y129241D01*
X53667Y130642D02*
X58093Y130642D01*
X58093Y132043D02*
X53667Y132043D01*
X53667Y133444D02*
X58093Y133444D01*
X58093Y134845D02*
X53667Y134845D01*
X70793Y134858D02*
X70793Y116632D01*
X66367Y116632D01*
X66367Y134858D01*
X70793Y134858D01*
X70793Y118033D02*
X66367Y118033D01*
X66367Y119434D02*
X70793Y119434D01*
X70793Y120835D02*
X66367Y120835D01*
X66367Y122236D02*
X70793Y122236D01*
X70793Y123637D02*
X66367Y123637D01*
X66367Y125038D02*
X70793Y125038D01*
X70793Y126439D02*
X66367Y126439D01*
X66367Y127840D02*
X70793Y127840D01*
X70793Y129241D02*
X66367Y129241D01*
X66367Y130642D02*
X70793Y130642D01*
X70793Y132043D02*
X66367Y132043D01*
X66367Y133444D02*
X70793Y133444D01*
X70793Y134845D02*
X66367Y134845D01*
X83493Y134858D02*
X83493Y116632D01*
X79067Y116632D01*
X79067Y134858D01*
X83493Y134858D01*
X83493Y118033D02*
X79067Y118033D01*
X79067Y119434D02*
X83493Y119434D01*
X83493Y120835D02*
X79067Y120835D01*
X79067Y122236D02*
X83493Y122236D01*
X83493Y123637D02*
X79067Y123637D01*
X79067Y125038D02*
X83493Y125038D01*
X83493Y126439D02*
X79067Y126439D01*
X79067Y127840D02*
X83493Y127840D01*
X83493Y129241D02*
X79067Y129241D01*
X79067Y130642D02*
X83493Y130642D01*
X83493Y132043D02*
X79067Y132043D01*
X79067Y133444D02*
X83493Y133444D01*
X83493Y134845D02*
X79067Y134845D01*
X83493Y166132D02*
X83493Y184358D01*
X83493Y166132D02*
X79067Y166132D01*
X79067Y184358D01*
X83493Y184358D01*
X83493Y167533D02*
X79067Y167533D01*
X79067Y168934D02*
X83493Y168934D01*
X83493Y170335D02*
X79067Y170335D01*
X79067Y171736D02*
X83493Y171736D01*
X83493Y173137D02*
X79067Y173137D01*
X79067Y174538D02*
X83493Y174538D01*
X83493Y175939D02*
X79067Y175939D01*
X79067Y177340D02*
X83493Y177340D01*
X83493Y178741D02*
X79067Y178741D01*
X79067Y180142D02*
X83493Y180142D01*
X83493Y181543D02*
X79067Y181543D01*
X79067Y182944D02*
X83493Y182944D01*
X83493Y184345D02*
X79067Y184345D01*
X70793Y184358D02*
X70793Y166132D01*
X66367Y166132D01*
X66367Y184358D01*
X70793Y184358D01*
X70793Y167533D02*
X66367Y167533D01*
X66367Y168934D02*
X70793Y168934D01*
X70793Y170335D02*
X66367Y170335D01*
X66367Y171736D02*
X70793Y171736D01*
X70793Y173137D02*
X66367Y173137D01*
X66367Y174538D02*
X70793Y174538D01*
X70793Y175939D02*
X66367Y175939D01*
X66367Y177340D02*
X70793Y177340D01*
X70793Y178741D02*
X66367Y178741D01*
X66367Y180142D02*
X70793Y180142D01*
X70793Y181543D02*
X66367Y181543D01*
X66367Y182944D02*
X70793Y182944D01*
X70793Y184345D02*
X66367Y184345D01*
X58093Y184358D02*
X58093Y166132D01*
X53667Y166132D01*
X53667Y184358D01*
X58093Y184358D01*
X58093Y167533D02*
X53667Y167533D01*
X53667Y168934D02*
X58093Y168934D01*
X58093Y170335D02*
X53667Y170335D01*
X53667Y171736D02*
X58093Y171736D01*
X58093Y173137D02*
X53667Y173137D01*
X53667Y174538D02*
X58093Y174538D01*
X58093Y175939D02*
X53667Y175939D01*
X53667Y177340D02*
X58093Y177340D01*
X58093Y178741D02*
X53667Y178741D01*
X53667Y180142D02*
X58093Y180142D01*
X58093Y181543D02*
X53667Y181543D01*
X53667Y182944D02*
X58093Y182944D01*
X58093Y184345D02*
X53667Y184345D01*
X45393Y184358D02*
X45393Y166132D01*
X40967Y166132D01*
X40967Y184358D01*
X45393Y184358D01*
X45393Y167533D02*
X40967Y167533D01*
X40967Y168934D02*
X45393Y168934D01*
X45393Y170335D02*
X40967Y170335D01*
X40967Y171736D02*
X45393Y171736D01*
X45393Y173137D02*
X40967Y173137D01*
X40967Y174538D02*
X45393Y174538D01*
X45393Y175939D02*
X40967Y175939D01*
X40967Y177340D02*
X45393Y177340D01*
X45393Y178741D02*
X40967Y178741D01*
X40967Y180142D02*
X45393Y180142D01*
X45393Y181543D02*
X40967Y181543D01*
X40967Y182944D02*
X45393Y182944D01*
X45393Y184345D02*
X40967Y184345D01*
D10*
X70240Y198120D03*
X87240Y198120D03*
D13*
X90415Y245745D03*
X73415Y245745D03*
D10*
X-16510Y183760D03*
X-16510Y166760D03*
D17*
X-115570Y124460D03*
X-115570Y149860D03*
X-78740Y241300D03*
X130810Y123190D03*
D10*
X-62230Y75320D03*
X-62230Y92320D03*
D18*
X-62230Y60840D03*
X-62230Y45840D03*
D19*
X10416Y91440D03*
D20*
X31108Y91440D01*
D19*
X31108Y91440D03*
X117884Y170180D03*
D20*
X139926Y170180D01*
D19*
X139926Y170180D03*
D20*
X23130Y166760D02*
X3810Y166760D01*
D21*
X23130Y166760D02*
X24130Y165760D01*
D20*
X3810Y166760D02*
X-5470Y166760D01*
D21*
X-5715Y167005D01*
D19*
X-5715Y167005D03*
D20*
X81280Y167640D02*
X81280Y175245D01*
X71923Y158283D02*
X31607Y158283D01*
X24130Y165760D01*
X71923Y158283D02*
X81280Y167640D01*
X-5470Y166760D02*
X-16510Y166760D01*
D22*
X-54730Y45840D02*
X-62230Y45840D01*
X-54730Y45840D02*
X-54610Y45720D01*
D19*
X-54610Y45720D03*
X-75944Y71120D03*
D20*
X-76200Y71376D01*
X-76200Y92710D01*
D19*
X-76200Y92710D03*
X-21590Y219710D03*
D20*
X-5762Y176366D02*
X-5470Y176074D01*
X-5470Y166760D01*
X-5762Y203882D02*
X-21590Y219710D01*
X-5762Y203882D02*
X-5762Y176366D01*
X-21590Y211480D02*
X-21590Y219710D01*
X-21590Y211480D02*
X-57150Y175920D01*
D23*
X-57150Y175920D03*
D19*
X41910Y214630D03*
X-82550Y194310D03*
X-82550Y109220D03*
D24*
X-96258Y76180D03*
D21*
X-113010Y76180D01*
D22*
X-119380Y82550D01*
D21*
X-119710Y82550D02*
X-123138Y79122D01*
X-119710Y82550D02*
X-119380Y82550D01*
D22*
X81280Y115570D02*
X81280Y125745D01*
X81280Y115570D02*
X78740Y113030D01*
X-10160Y113030D01*
X-43180Y146050D01*
D24*
X-43180Y146050D03*
D22*
X39370Y129555D02*
X43180Y125745D01*
X39370Y129555D02*
X-17795Y129555D01*
X-43180Y154940D01*
D24*
X-43180Y154940D03*
D19*
X82550Y104622D03*
D21*
X76625Y97823D02*
X76215Y65146D01*
X76625Y97823D02*
X82154Y103352D01*
X82154Y104226D02*
X82550Y104622D01*
X82154Y104226D02*
X82154Y103352D01*
D24*
X-73660Y222250D03*
D21*
X-123010Y222250D02*
X-123138Y222122D01*
X-123010Y222250D02*
X-73660Y222250D01*
D24*
X103494Y149860D03*
D21*
X112375Y149860D01*
D25*
X130810Y131425D01*
X130810Y123190D01*
D24*
X95479Y85327D03*
D21*
X119727Y85327D01*
X124662Y80392D01*
X124662Y79122D01*
D24*
X25809Y22031D03*
D21*
X19018Y15240D01*
D22*
X5080Y15240D01*
D21*
X762Y10922D01*
X762Y7522D01*
D24*
X116840Y195580D03*
D21*
X116840Y214300D01*
D22*
X124662Y222122D01*
D24*
X-60254Y154234D03*
D22*
X-53472Y161016D01*
X-30728Y183760D01*
X-16510Y183760D01*
X55880Y125745D02*
X68580Y125745D01*
X55880Y125745D02*
X55880Y134444D01*
X49395Y140929D01*
X-40663Y161016D02*
X-53472Y161016D01*
X-20576Y140929D02*
X49395Y140929D01*
X-20576Y140929D02*
X-40663Y161016D01*
D20*
X55782Y175343D02*
X55880Y175245D01*
X55782Y175343D02*
X55782Y232124D01*
X27649Y260257D01*
X27742Y260350D02*
X27940Y260350D01*
X27742Y260350D02*
X27649Y260257D01*
X68970Y196850D02*
X68970Y175635D01*
X68580Y175245D01*
X68970Y196850D02*
X70240Y198120D01*
X68044Y246030D02*
X68044Y260886D01*
X68044Y246030D02*
X68044Y245454D01*
X68044Y200316D01*
X70240Y198120D01*
X-2540Y280670D02*
X-22860Y260350D01*
X-2540Y280670D02*
X48260Y280670D01*
X68044Y260886D01*
X73415Y245745D02*
X73124Y245454D01*
X68044Y245454D01*
X68329Y245745D02*
X68044Y246030D01*
X68329Y245745D02*
X73415Y245745D01*
X90415Y245745D02*
X90415Y244475D01*
X83430Y237490D01*
X83430Y201930D01*
X87240Y198120D01*
D19*
X90415Y245745D03*
D24*
X-39370Y116976D03*
D22*
X-39370Y115180D01*
X-62230Y92320D01*
X-62230Y75320D02*
X-62230Y60840D01*
M02*
