G04 EAGLE Gerber RS-274X export*
G75*
%MOMM*%
%FSLAX34Y34*%
%LPD*%
%INSolderpaste Bottom*%
%IPPOS*%
%AMOC8*
5,1,8,0,0,1.08239X$1,22.5*%
G01*
%ADD10R,1.000000X1.100000*%
%ADD11R,1.500000X1.300000*%
%ADD12C,0.124994*%
%ADD13R,5.699988X5.699988*%
%ADD14R,1.399997X0.400000*%
%ADD15R,1.100000X1.000000*%
%ADD16R,0.500000X0.800000*%


D10*
X95250Y146440D03*
X95250Y163440D03*
D11*
X95250Y109880D03*
X95250Y128880D03*
D12*
X32387Y177497D02*
X32387Y178747D01*
X38137Y178747D01*
X38137Y177497D01*
X32387Y177497D01*
X32387Y178684D02*
X38137Y178684D01*
X32387Y173747D02*
X32387Y172497D01*
X32387Y173747D02*
X38137Y173747D01*
X38137Y172497D01*
X32387Y172497D01*
X32387Y173684D02*
X38137Y173684D01*
X32387Y168747D02*
X32387Y167497D01*
X32387Y168747D02*
X38137Y168747D01*
X38137Y167497D01*
X32387Y167497D01*
X32387Y168684D02*
X38137Y168684D01*
X32387Y163747D02*
X32387Y162497D01*
X32387Y163747D02*
X38137Y163747D01*
X38137Y162497D01*
X32387Y162497D01*
X32387Y163684D02*
X38137Y163684D01*
X32387Y158747D02*
X32387Y157497D01*
X32387Y158747D02*
X38137Y158747D01*
X38137Y157497D01*
X32387Y157497D01*
X32387Y158684D02*
X38137Y158684D01*
X32387Y153747D02*
X32387Y152497D01*
X32387Y153747D02*
X38137Y153747D01*
X38137Y152497D01*
X32387Y152497D01*
X32387Y153684D02*
X38137Y153684D01*
X32387Y148747D02*
X32387Y147497D01*
X32387Y148747D02*
X38137Y148747D01*
X38137Y147497D01*
X32387Y147497D01*
X32387Y148684D02*
X38137Y148684D01*
X32387Y143747D02*
X32387Y142497D01*
X32387Y143747D02*
X38137Y143747D01*
X38137Y142497D01*
X32387Y142497D01*
X32387Y143684D02*
X38137Y143684D01*
X32387Y138747D02*
X32387Y137497D01*
X32387Y138747D02*
X38137Y138747D01*
X38137Y137497D01*
X32387Y137497D01*
X32387Y138684D02*
X38137Y138684D01*
X32387Y133747D02*
X32387Y132497D01*
X32387Y133747D02*
X38137Y133747D01*
X38137Y132497D01*
X32387Y132497D01*
X32387Y133684D02*
X38137Y133684D01*
X32387Y128747D02*
X32387Y127497D01*
X32387Y128747D02*
X38137Y128747D01*
X38137Y127497D01*
X32387Y127497D01*
X32387Y128684D02*
X38137Y128684D01*
X32387Y123747D02*
X32387Y122497D01*
X32387Y123747D02*
X38137Y123747D01*
X38137Y122497D01*
X32387Y122497D01*
X32387Y123684D02*
X38137Y123684D01*
X28887Y118997D02*
X27637Y118997D01*
X28887Y118997D02*
X28887Y113247D01*
X27637Y113247D01*
X27637Y118997D01*
X27637Y114434D02*
X28887Y114434D01*
X28887Y115621D02*
X27637Y115621D01*
X27637Y116808D02*
X28887Y116808D01*
X28887Y117995D02*
X27637Y117995D01*
X23887Y118997D02*
X22637Y118997D01*
X23887Y118997D02*
X23887Y113247D01*
X22637Y113247D01*
X22637Y118997D01*
X22637Y114434D02*
X23887Y114434D01*
X23887Y115621D02*
X22637Y115621D01*
X22637Y116808D02*
X23887Y116808D01*
X23887Y117995D02*
X22637Y117995D01*
X18887Y118997D02*
X17637Y118997D01*
X18887Y118997D02*
X18887Y113247D01*
X17637Y113247D01*
X17637Y118997D01*
X17637Y114434D02*
X18887Y114434D01*
X18887Y115621D02*
X17637Y115621D01*
X17637Y116808D02*
X18887Y116808D01*
X18887Y117995D02*
X17637Y117995D01*
X13887Y118997D02*
X12637Y118997D01*
X13887Y118997D02*
X13887Y113247D01*
X12637Y113247D01*
X12637Y118997D01*
X12637Y114434D02*
X13887Y114434D01*
X13887Y115621D02*
X12637Y115621D01*
X12637Y116808D02*
X13887Y116808D01*
X13887Y117995D02*
X12637Y117995D01*
X8887Y118997D02*
X7637Y118997D01*
X8887Y118997D02*
X8887Y113247D01*
X7637Y113247D01*
X7637Y118997D01*
X7637Y114434D02*
X8887Y114434D01*
X8887Y115621D02*
X7637Y115621D01*
X7637Y116808D02*
X8887Y116808D01*
X8887Y117995D02*
X7637Y117995D01*
X3887Y118997D02*
X2637Y118997D01*
X3887Y118997D02*
X3887Y113247D01*
X2637Y113247D01*
X2637Y118997D01*
X2637Y114434D02*
X3887Y114434D01*
X3887Y115621D02*
X2637Y115621D01*
X2637Y116808D02*
X3887Y116808D01*
X3887Y117995D02*
X2637Y117995D01*
X-1113Y118997D02*
X-2363Y118997D01*
X-1113Y118997D02*
X-1113Y113247D01*
X-2363Y113247D01*
X-2363Y118997D01*
X-2363Y114434D02*
X-1113Y114434D01*
X-1113Y115621D02*
X-2363Y115621D01*
X-2363Y116808D02*
X-1113Y116808D01*
X-1113Y117995D02*
X-2363Y117995D01*
X-6113Y118997D02*
X-7363Y118997D01*
X-6113Y118997D02*
X-6113Y113247D01*
X-7363Y113247D01*
X-7363Y118997D01*
X-7363Y114434D02*
X-6113Y114434D01*
X-6113Y115621D02*
X-7363Y115621D01*
X-7363Y116808D02*
X-6113Y116808D01*
X-6113Y117995D02*
X-7363Y117995D01*
X-11113Y118997D02*
X-12363Y118997D01*
X-11113Y118997D02*
X-11113Y113247D01*
X-12363Y113247D01*
X-12363Y118997D01*
X-12363Y114434D02*
X-11113Y114434D01*
X-11113Y115621D02*
X-12363Y115621D01*
X-12363Y116808D02*
X-11113Y116808D01*
X-11113Y117995D02*
X-12363Y117995D01*
X-16113Y118997D02*
X-17363Y118997D01*
X-16113Y118997D02*
X-16113Y113247D01*
X-17363Y113247D01*
X-17363Y118997D01*
X-17363Y114434D02*
X-16113Y114434D01*
X-16113Y115621D02*
X-17363Y115621D01*
X-17363Y116808D02*
X-16113Y116808D01*
X-16113Y117995D02*
X-17363Y117995D01*
X-21113Y118997D02*
X-22363Y118997D01*
X-21113Y118997D02*
X-21113Y113247D01*
X-22363Y113247D01*
X-22363Y118997D01*
X-22363Y114434D02*
X-21113Y114434D01*
X-21113Y115621D02*
X-22363Y115621D01*
X-22363Y116808D02*
X-21113Y116808D01*
X-21113Y117995D02*
X-22363Y117995D01*
X-26113Y118997D02*
X-27363Y118997D01*
X-26113Y118997D02*
X-26113Y113247D01*
X-27363Y113247D01*
X-27363Y118997D01*
X-27363Y114434D02*
X-26113Y114434D01*
X-26113Y115621D02*
X-27363Y115621D01*
X-27363Y116808D02*
X-26113Y116808D01*
X-26113Y117995D02*
X-27363Y117995D01*
X-30863Y122497D02*
X-30863Y123747D01*
X-30863Y122497D02*
X-36613Y122497D01*
X-36613Y123747D01*
X-30863Y123747D01*
X-30863Y123684D02*
X-36613Y123684D01*
X-30863Y127497D02*
X-30863Y128747D01*
X-30863Y127497D02*
X-36613Y127497D01*
X-36613Y128747D01*
X-30863Y128747D01*
X-30863Y128684D02*
X-36613Y128684D01*
X-30863Y132497D02*
X-30863Y133747D01*
X-30863Y132497D02*
X-36613Y132497D01*
X-36613Y133747D01*
X-30863Y133747D01*
X-30863Y133684D02*
X-36613Y133684D01*
X-30863Y137497D02*
X-30863Y138747D01*
X-30863Y137497D02*
X-36613Y137497D01*
X-36613Y138747D01*
X-30863Y138747D01*
X-30863Y138684D02*
X-36613Y138684D01*
X-30863Y142497D02*
X-30863Y143747D01*
X-30863Y142497D02*
X-36613Y142497D01*
X-36613Y143747D01*
X-30863Y143747D01*
X-30863Y143684D02*
X-36613Y143684D01*
X-30863Y147497D02*
X-30863Y148747D01*
X-30863Y147497D02*
X-36613Y147497D01*
X-36613Y148747D01*
X-30863Y148747D01*
X-30863Y148684D02*
X-36613Y148684D01*
X-30863Y152497D02*
X-30863Y153747D01*
X-30863Y152497D02*
X-36613Y152497D01*
X-36613Y153747D01*
X-30863Y153747D01*
X-30863Y153684D02*
X-36613Y153684D01*
X-30863Y157497D02*
X-30863Y158747D01*
X-30863Y157497D02*
X-36613Y157497D01*
X-36613Y158747D01*
X-30863Y158747D01*
X-30863Y158684D02*
X-36613Y158684D01*
X-30863Y162497D02*
X-30863Y163747D01*
X-30863Y162497D02*
X-36613Y162497D01*
X-36613Y163747D01*
X-30863Y163747D01*
X-30863Y163684D02*
X-36613Y163684D01*
X-30863Y167497D02*
X-30863Y168747D01*
X-30863Y167497D02*
X-36613Y167497D01*
X-36613Y168747D01*
X-30863Y168747D01*
X-30863Y168684D02*
X-36613Y168684D01*
X-30863Y172497D02*
X-30863Y173747D01*
X-30863Y172497D02*
X-36613Y172497D01*
X-36613Y173747D01*
X-30863Y173747D01*
X-30863Y173684D02*
X-36613Y173684D01*
X-30863Y177497D02*
X-30863Y178747D01*
X-30863Y177497D02*
X-36613Y177497D01*
X-36613Y178747D01*
X-30863Y178747D01*
X-30863Y178684D02*
X-36613Y178684D01*
X-27363Y182247D02*
X-26113Y182247D01*
X-27363Y182247D02*
X-27363Y187997D01*
X-26113Y187997D01*
X-26113Y182247D01*
X-26113Y183434D02*
X-27363Y183434D01*
X-27363Y184621D02*
X-26113Y184621D01*
X-26113Y185808D02*
X-27363Y185808D01*
X-27363Y186995D02*
X-26113Y186995D01*
X-22363Y182247D02*
X-21113Y182247D01*
X-22363Y182247D02*
X-22363Y187997D01*
X-21113Y187997D01*
X-21113Y182247D01*
X-21113Y183434D02*
X-22363Y183434D01*
X-22363Y184621D02*
X-21113Y184621D01*
X-21113Y185808D02*
X-22363Y185808D01*
X-22363Y186995D02*
X-21113Y186995D01*
X-17363Y182247D02*
X-16113Y182247D01*
X-17363Y182247D02*
X-17363Y187997D01*
X-16113Y187997D01*
X-16113Y182247D01*
X-16113Y183434D02*
X-17363Y183434D01*
X-17363Y184621D02*
X-16113Y184621D01*
X-16113Y185808D02*
X-17363Y185808D01*
X-17363Y186995D02*
X-16113Y186995D01*
X-12363Y182247D02*
X-11113Y182247D01*
X-12363Y182247D02*
X-12363Y187997D01*
X-11113Y187997D01*
X-11113Y182247D01*
X-11113Y183434D02*
X-12363Y183434D01*
X-12363Y184621D02*
X-11113Y184621D01*
X-11113Y185808D02*
X-12363Y185808D01*
X-12363Y186995D02*
X-11113Y186995D01*
X-7363Y182247D02*
X-6113Y182247D01*
X-7363Y182247D02*
X-7363Y187997D01*
X-6113Y187997D01*
X-6113Y182247D01*
X-6113Y183434D02*
X-7363Y183434D01*
X-7363Y184621D02*
X-6113Y184621D01*
X-6113Y185808D02*
X-7363Y185808D01*
X-7363Y186995D02*
X-6113Y186995D01*
X-2363Y182247D02*
X-1113Y182247D01*
X-2363Y182247D02*
X-2363Y187997D01*
X-1113Y187997D01*
X-1113Y182247D01*
X-1113Y183434D02*
X-2363Y183434D01*
X-2363Y184621D02*
X-1113Y184621D01*
X-1113Y185808D02*
X-2363Y185808D01*
X-2363Y186995D02*
X-1113Y186995D01*
X2637Y182247D02*
X3887Y182247D01*
X2637Y182247D02*
X2637Y187997D01*
X3887Y187997D01*
X3887Y182247D01*
X3887Y183434D02*
X2637Y183434D01*
X2637Y184621D02*
X3887Y184621D01*
X3887Y185808D02*
X2637Y185808D01*
X2637Y186995D02*
X3887Y186995D01*
X7637Y182247D02*
X8887Y182247D01*
X7637Y182247D02*
X7637Y187997D01*
X8887Y187997D01*
X8887Y182247D01*
X8887Y183434D02*
X7637Y183434D01*
X7637Y184621D02*
X8887Y184621D01*
X8887Y185808D02*
X7637Y185808D01*
X7637Y186995D02*
X8887Y186995D01*
X12637Y182247D02*
X13887Y182247D01*
X12637Y182247D02*
X12637Y187997D01*
X13887Y187997D01*
X13887Y182247D01*
X13887Y183434D02*
X12637Y183434D01*
X12637Y184621D02*
X13887Y184621D01*
X13887Y185808D02*
X12637Y185808D01*
X12637Y186995D02*
X13887Y186995D01*
X17637Y182247D02*
X18887Y182247D01*
X17637Y182247D02*
X17637Y187997D01*
X18887Y187997D01*
X18887Y182247D01*
X18887Y183434D02*
X17637Y183434D01*
X17637Y184621D02*
X18887Y184621D01*
X18887Y185808D02*
X17637Y185808D01*
X17637Y186995D02*
X18887Y186995D01*
X22637Y182247D02*
X23887Y182247D01*
X22637Y182247D02*
X22637Y187997D01*
X23887Y187997D01*
X23887Y182247D01*
X23887Y183434D02*
X22637Y183434D01*
X22637Y184621D02*
X23887Y184621D01*
X23887Y185808D02*
X22637Y185808D01*
X22637Y186995D02*
X23887Y186995D01*
X27637Y182247D02*
X28887Y182247D01*
X27637Y182247D02*
X27637Y187997D01*
X28887Y187997D01*
X28887Y182247D01*
X28887Y183434D02*
X27637Y183434D01*
X27637Y184621D02*
X28887Y184621D01*
X28887Y185808D02*
X27637Y185808D01*
X27637Y186995D02*
X28887Y186995D01*
D13*
X762Y150622D03*
D14*
X72865Y167430D03*
X72865Y155430D03*
X72865Y143430D03*
D15*
X8890Y216780D03*
X8890Y199780D03*
D11*
X-69850Y194920D03*
X-69850Y175920D03*
X-69850Y109880D03*
X-69850Y128880D03*
D10*
X72390Y110880D03*
X72390Y127880D03*
X-49530Y195190D03*
X-49530Y178190D03*
X-49530Y110880D03*
X-49530Y127880D03*
D15*
X42790Y203200D03*
X25790Y203200D03*
D10*
X50800Y186300D03*
X50800Y169300D03*
D15*
X115570Y163440D03*
X115570Y146440D03*
D11*
X54610Y265380D03*
X54610Y246380D03*
D10*
X76590Y242570D03*
X93590Y242570D03*
D16*
X-87630Y173150D03*
X-87630Y195150D03*
M02*
