G04 EAGLE Gerber RS-274X export*
G75*
%MOMM*%
%FSLAX34Y34*%
%LPD*%
%INSoldermask Top*%
%IPPOS*%
%AMOC8*
5,1,8,0,0,1.08239X$1,22.5*%
G01*
%ADD10R,1.201600X1.101600*%
%ADD11C,1.101600*%
%ADD12R,1.601600X1.401600*%
%ADD13R,1.101600X1.201600*%
%ADD14R,2.601600X2.601600*%
%ADD15C,2.601600*%
%ADD16C,0.248975*%
%ADD17P,1.759533X8X22.500000*%
%ADD18R,0.901600X0.901600*%

G36*
X17791Y129D02*
X17791Y129D01*
X17820Y126D01*
X17887Y148D01*
X17957Y162D01*
X17981Y179D01*
X18009Y188D01*
X18062Y235D01*
X18121Y275D01*
X18137Y299D01*
X18159Y319D01*
X18190Y383D01*
X18228Y442D01*
X18233Y471D01*
X18245Y497D01*
X18254Y597D01*
X18261Y639D01*
X18258Y649D01*
X18260Y663D01*
X18028Y3461D01*
X18018Y3495D01*
X18014Y3543D01*
X17325Y6264D01*
X17310Y6296D01*
X17298Y6342D01*
X16170Y8914D01*
X16150Y8942D01*
X16131Y8986D01*
X14595Y11337D01*
X14571Y11361D01*
X14545Y11402D01*
X12643Y13467D01*
X12615Y13488D01*
X12582Y13523D01*
X10367Y15248D01*
X10336Y15263D01*
X10298Y15293D01*
X7828Y16629D01*
X7795Y16639D01*
X7753Y16662D01*
X6567Y17070D01*
X5113Y17569D01*
X5097Y17574D01*
X5063Y17579D01*
X5017Y17594D01*
X2248Y18056D01*
X2213Y18055D01*
X2166Y18063D01*
X-642Y18063D01*
X-676Y18056D01*
X-724Y18056D01*
X-3493Y17594D01*
X-3526Y17582D01*
X-3573Y17574D01*
X-6229Y16662D01*
X-6259Y16645D01*
X-6304Y16629D01*
X-8774Y15293D01*
X-8800Y15271D01*
X-8843Y15248D01*
X-11058Y13523D01*
X-11081Y13497D01*
X-11119Y13467D01*
X-13021Y11402D01*
X-13039Y11372D01*
X-13071Y11337D01*
X-14607Y8986D01*
X-14620Y8954D01*
X-14646Y8914D01*
X-15774Y6342D01*
X-15781Y6309D01*
X-15784Y6302D01*
X-15790Y6293D01*
X-15791Y6287D01*
X-15801Y6264D01*
X-16490Y3543D01*
X-16492Y3508D01*
X-16504Y3461D01*
X-16736Y663D01*
X-16732Y634D01*
X-16737Y605D01*
X-16721Y536D01*
X-16712Y466D01*
X-16698Y440D01*
X-16691Y412D01*
X-16649Y355D01*
X-16614Y293D01*
X-16590Y275D01*
X-16573Y252D01*
X-16512Y216D01*
X-16455Y173D01*
X-16427Y165D01*
X-16402Y150D01*
X-16304Y134D01*
X-16263Y123D01*
X-16252Y125D01*
X-16238Y123D01*
X17762Y123D01*
X17791Y129D01*
G37*
G36*
X-120631Y60432D02*
X-120631Y60432D01*
X-120560Y60429D01*
X-120533Y60439D01*
X-120504Y60441D01*
X-120414Y60483D01*
X-120374Y60498D01*
X-120366Y60506D01*
X-120353Y60512D01*
X-118050Y62111D01*
X-118026Y62137D01*
X-117986Y62164D01*
X-115977Y64121D01*
X-115958Y64150D01*
X-115923Y64183D01*
X-114264Y66444D01*
X-114249Y66475D01*
X-114220Y66514D01*
X-112956Y69017D01*
X-112947Y69051D01*
X-112925Y69094D01*
X-112089Y71771D01*
X-112086Y71805D01*
X-112071Y71851D01*
X-111688Y74630D01*
X-111690Y74664D01*
X-111684Y74712D01*
X-111763Y77515D01*
X-111771Y77549D01*
X-111772Y77597D01*
X-112311Y80349D01*
X-112325Y80381D01*
X-112334Y80429D01*
X-113319Y83054D01*
X-113334Y83079D01*
X-113339Y83099D01*
X-113347Y83110D01*
X-113354Y83129D01*
X-114758Y85557D01*
X-114781Y85583D01*
X-114805Y85625D01*
X-116589Y87788D01*
X-116616Y87810D01*
X-116647Y87847D01*
X-118763Y89688D01*
X-118793Y89705D01*
X-118829Y89737D01*
X-121220Y91204D01*
X-121252Y91215D01*
X-121293Y91241D01*
X-123892Y92294D01*
X-123926Y92301D01*
X-123971Y92319D01*
X-126708Y92930D01*
X-126743Y92931D01*
X-126790Y92942D01*
X-129590Y93094D01*
X-129624Y93089D01*
X-129672Y93092D01*
X-132460Y92782D01*
X-132493Y92771D01*
X-132541Y92766D01*
X-135239Y92001D01*
X-135269Y91985D01*
X-135316Y91972D01*
X-137851Y90773D01*
X-137875Y90756D01*
X-137902Y90746D01*
X-137954Y90697D01*
X-138011Y90654D01*
X-138025Y90629D01*
X-138047Y90609D01*
X-138075Y90544D01*
X-138111Y90483D01*
X-138114Y90454D01*
X-138126Y90427D01*
X-138127Y90356D01*
X-138136Y90285D01*
X-138128Y90257D01*
X-138128Y90228D01*
X-138094Y90135D01*
X-138082Y90094D01*
X-138075Y90085D01*
X-138070Y90072D01*
X-121070Y60672D01*
X-121051Y60650D01*
X-121038Y60624D01*
X-120985Y60576D01*
X-120938Y60523D01*
X-120912Y60511D01*
X-120890Y60491D01*
X-120823Y60468D01*
X-120759Y60438D01*
X-120730Y60436D01*
X-120702Y60427D01*
X-120631Y60432D01*
G37*
G36*
X131148Y208155D02*
X131148Y208155D01*
X131196Y208152D01*
X133984Y208462D01*
X134017Y208473D01*
X134065Y208478D01*
X136763Y209243D01*
X136793Y209259D01*
X136840Y209272D01*
X139375Y210471D01*
X139399Y210488D01*
X139426Y210498D01*
X139478Y210547D01*
X139535Y210590D01*
X139549Y210615D01*
X139571Y210635D01*
X139599Y210700D01*
X139635Y210762D01*
X139638Y210790D01*
X139650Y210817D01*
X139651Y210888D01*
X139660Y210959D01*
X139652Y210987D01*
X139652Y211016D01*
X139618Y211109D01*
X139606Y211150D01*
X139599Y211159D01*
X139594Y211172D01*
X122594Y240572D01*
X122575Y240594D01*
X122562Y240620D01*
X122509Y240668D01*
X122462Y240721D01*
X122436Y240733D01*
X122414Y240753D01*
X122347Y240776D01*
X122283Y240806D01*
X122254Y240808D01*
X122226Y240817D01*
X122155Y240812D01*
X122084Y240815D01*
X122057Y240805D01*
X122028Y240803D01*
X121938Y240761D01*
X121898Y240746D01*
X121890Y240738D01*
X121877Y240732D01*
X119574Y239133D01*
X119550Y239108D01*
X119510Y239080D01*
X117501Y237123D01*
X117482Y237094D01*
X117447Y237061D01*
X115788Y234800D01*
X115773Y234769D01*
X115744Y234730D01*
X114480Y232227D01*
X114471Y232193D01*
X114449Y232150D01*
X113613Y229473D01*
X113610Y229439D01*
X113595Y229393D01*
X113212Y226614D01*
X113214Y226580D01*
X113208Y226532D01*
X113287Y223729D01*
X113295Y223695D01*
X113296Y223647D01*
X113835Y220895D01*
X113849Y220863D01*
X113858Y220815D01*
X114843Y218190D01*
X114861Y218160D01*
X114878Y218115D01*
X116282Y215687D01*
X116305Y215661D01*
X116329Y215620D01*
X118113Y213456D01*
X118140Y213434D01*
X118171Y213397D01*
X120287Y211556D01*
X120317Y211539D01*
X120353Y211508D01*
X122744Y210040D01*
X122776Y210029D01*
X122817Y210003D01*
X125416Y208950D01*
X125450Y208943D01*
X125495Y208925D01*
X128232Y208314D01*
X128267Y208313D01*
X128314Y208302D01*
X131114Y208150D01*
X131148Y208155D01*
G37*
G36*
X122188Y60433D02*
X122188Y60433D01*
X122259Y60432D01*
X122286Y60443D01*
X122315Y60447D01*
X122377Y60481D01*
X122442Y60509D01*
X122463Y60530D01*
X122488Y60544D01*
X122551Y60620D01*
X122581Y60651D01*
X122585Y60661D01*
X122594Y60672D01*
X139594Y90072D01*
X139603Y90100D01*
X139620Y90124D01*
X139635Y90193D01*
X139657Y90261D01*
X139655Y90290D01*
X139661Y90318D01*
X139648Y90388D01*
X139642Y90459D01*
X139629Y90485D01*
X139623Y90513D01*
X139583Y90572D01*
X139551Y90635D01*
X139528Y90654D01*
X139512Y90678D01*
X139430Y90735D01*
X139397Y90762D01*
X139387Y90765D01*
X139375Y90773D01*
X136840Y91972D01*
X136806Y91980D01*
X136763Y92001D01*
X134065Y92766D01*
X134030Y92768D01*
X133984Y92782D01*
X131196Y93092D01*
X131162Y93089D01*
X131114Y93094D01*
X128314Y92942D01*
X128280Y92933D01*
X128232Y92930D01*
X125495Y92319D01*
X125463Y92305D01*
X125416Y92294D01*
X122817Y91241D01*
X122788Y91222D01*
X122744Y91204D01*
X120353Y89737D01*
X120328Y89713D01*
X120287Y89688D01*
X118171Y87847D01*
X118150Y87820D01*
X118113Y87788D01*
X116329Y85625D01*
X116313Y85594D01*
X116282Y85557D01*
X114878Y83129D01*
X114867Y83096D01*
X114860Y83083D01*
X114850Y83069D01*
X114850Y83066D01*
X114843Y83054D01*
X113858Y80429D01*
X113852Y80394D01*
X113835Y80349D01*
X113296Y77597D01*
X113296Y77563D01*
X113287Y77515D01*
X113208Y74712D01*
X113214Y74678D01*
X113212Y74630D01*
X113595Y71851D01*
X113607Y71819D01*
X113613Y71771D01*
X114449Y69094D01*
X114466Y69063D01*
X114480Y69017D01*
X115744Y66514D01*
X115766Y66487D01*
X115788Y66444D01*
X117447Y64183D01*
X117473Y64160D01*
X117501Y64121D01*
X119510Y62164D01*
X119539Y62145D01*
X119574Y62111D01*
X121877Y60512D01*
X121904Y60500D01*
X121927Y60482D01*
X121995Y60461D01*
X122060Y60433D01*
X122089Y60433D01*
X122117Y60425D01*
X122188Y60433D01*
G37*
G36*
X-126790Y208302D02*
X-126790Y208302D01*
X-126756Y208311D01*
X-126708Y208314D01*
X-123971Y208925D01*
X-123939Y208939D01*
X-123892Y208950D01*
X-121293Y210003D01*
X-121264Y210022D01*
X-121220Y210040D01*
X-118829Y211508D01*
X-118804Y211531D01*
X-118763Y211556D01*
X-116647Y213397D01*
X-116626Y213424D01*
X-116589Y213456D01*
X-114805Y215620D01*
X-114789Y215650D01*
X-114758Y215687D01*
X-113354Y218115D01*
X-113343Y218148D01*
X-113319Y218190D01*
X-112334Y220815D01*
X-112328Y220850D01*
X-112311Y220895D01*
X-111772Y223647D01*
X-111772Y223682D01*
X-111763Y223729D01*
X-111684Y226532D01*
X-111690Y226566D01*
X-111688Y226614D01*
X-112071Y229393D01*
X-112083Y229425D01*
X-112089Y229473D01*
X-112925Y232150D01*
X-112942Y232181D01*
X-112956Y232227D01*
X-114220Y234730D01*
X-114242Y234757D01*
X-114264Y234800D01*
X-115923Y237061D01*
X-115949Y237084D01*
X-115977Y237123D01*
X-117986Y239080D01*
X-118015Y239099D01*
X-118050Y239133D01*
X-120353Y240732D01*
X-120380Y240744D01*
X-120403Y240762D01*
X-120471Y240783D01*
X-120536Y240811D01*
X-120565Y240811D01*
X-120593Y240819D01*
X-120664Y240811D01*
X-120735Y240812D01*
X-120762Y240801D01*
X-120791Y240797D01*
X-120853Y240763D01*
X-120918Y240735D01*
X-120939Y240714D01*
X-120964Y240700D01*
X-121027Y240624D01*
X-121057Y240593D01*
X-121061Y240583D01*
X-121070Y240572D01*
X-138070Y211172D01*
X-138079Y211144D01*
X-138096Y211120D01*
X-138111Y211051D01*
X-138133Y210983D01*
X-138131Y210954D01*
X-138137Y210926D01*
X-138124Y210856D01*
X-138118Y210785D01*
X-138105Y210759D01*
X-138099Y210731D01*
X-138059Y210672D01*
X-138027Y210609D01*
X-138004Y210590D01*
X-137988Y210566D01*
X-137906Y210509D01*
X-137873Y210482D01*
X-137863Y210479D01*
X-137851Y210471D01*
X-135316Y209272D01*
X-135282Y209264D01*
X-135239Y209243D01*
X-132541Y208478D01*
X-132506Y208476D01*
X-132460Y208462D01*
X-129672Y208152D01*
X-129638Y208155D01*
X-129590Y208150D01*
X-126790Y208302D01*
G37*
G36*
X164489Y133633D02*
X164489Y133633D01*
X164560Y133633D01*
X164587Y133644D01*
X164616Y133647D01*
X164678Y133682D01*
X164743Y133710D01*
X164764Y133730D01*
X164789Y133745D01*
X164852Y133822D01*
X164882Y133852D01*
X164886Y133862D01*
X164895Y133873D01*
X174395Y150373D01*
X174405Y150405D01*
X174414Y150418D01*
X174418Y150442D01*
X174419Y150446D01*
X174450Y150516D01*
X174450Y150540D01*
X174458Y150562D01*
X174452Y150638D01*
X174453Y150715D01*
X174443Y150739D01*
X174442Y150760D01*
X174421Y150799D01*
X174395Y150871D01*
X164895Y167371D01*
X164876Y167393D01*
X164863Y167419D01*
X164810Y167467D01*
X164763Y167520D01*
X164737Y167533D01*
X164716Y167552D01*
X164648Y167575D01*
X164584Y167606D01*
X164555Y167608D01*
X164528Y167617D01*
X164456Y167612D01*
X164385Y167615D01*
X164358Y167605D01*
X164329Y167603D01*
X164239Y167561D01*
X164199Y167546D01*
X164191Y167539D01*
X164178Y167533D01*
X161655Y165791D01*
X161631Y165767D01*
X161593Y165740D01*
X159381Y163616D01*
X159362Y163588D01*
X159328Y163556D01*
X157486Y161105D01*
X157472Y161074D01*
X157443Y161037D01*
X156018Y158322D01*
X156009Y158291D01*
X155993Y158266D01*
X155992Y158258D01*
X155987Y158248D01*
X155016Y155340D01*
X155012Y155306D01*
X154997Y155262D01*
X154505Y152235D01*
X154506Y152201D01*
X154498Y152155D01*
X154498Y149089D01*
X154499Y149085D01*
X154499Y149083D01*
X154505Y149056D01*
X154505Y149009D01*
X154997Y145982D01*
X155009Y145951D01*
X155016Y145904D01*
X155987Y142996D01*
X156004Y142967D01*
X156018Y142922D01*
X157443Y140207D01*
X157465Y140181D01*
X157486Y140139D01*
X159328Y137688D01*
X159353Y137665D01*
X159381Y137628D01*
X161593Y135504D01*
X161621Y135486D01*
X161655Y135453D01*
X164178Y133711D01*
X164205Y133700D01*
X164227Y133681D01*
X164296Y133661D01*
X164361Y133633D01*
X164390Y133633D01*
X164418Y133625D01*
X164489Y133633D01*
G37*
G36*
X-162932Y133632D02*
X-162932Y133632D01*
X-162861Y133629D01*
X-162834Y133639D01*
X-162805Y133641D01*
X-162715Y133683D01*
X-162675Y133698D01*
X-162667Y133705D01*
X-162654Y133711D01*
X-160131Y135453D01*
X-160107Y135477D01*
X-160069Y135504D01*
X-157857Y137628D01*
X-157838Y137656D01*
X-157804Y137688D01*
X-155962Y140139D01*
X-155948Y140170D01*
X-155919Y140207D01*
X-154494Y142922D01*
X-154485Y142955D01*
X-154463Y142996D01*
X-153492Y145904D01*
X-153488Y145938D01*
X-153473Y145982D01*
X-152981Y149009D01*
X-152982Y149043D01*
X-152974Y149089D01*
X-152974Y152155D01*
X-152981Y152188D01*
X-152981Y152235D01*
X-153473Y155262D01*
X-153485Y155293D01*
X-153492Y155340D01*
X-154463Y158248D01*
X-154476Y158271D01*
X-154482Y158296D01*
X-154489Y158305D01*
X-154494Y158322D01*
X-155919Y161037D01*
X-155941Y161063D01*
X-155962Y161105D01*
X-157804Y163556D01*
X-157829Y163579D01*
X-157857Y163616D01*
X-160069Y165740D01*
X-160097Y165758D01*
X-160131Y165791D01*
X-162654Y167533D01*
X-162681Y167544D01*
X-162703Y167563D01*
X-162772Y167583D01*
X-162837Y167611D01*
X-162866Y167611D01*
X-162894Y167619D01*
X-162965Y167611D01*
X-163036Y167612D01*
X-163063Y167600D01*
X-163092Y167597D01*
X-163154Y167562D01*
X-163219Y167534D01*
X-163240Y167514D01*
X-163265Y167499D01*
X-163328Y167422D01*
X-163358Y167392D01*
X-163362Y167382D01*
X-163371Y167371D01*
X-172871Y150871D01*
X-172895Y150798D01*
X-172926Y150728D01*
X-172926Y150704D01*
X-172934Y150682D01*
X-172928Y150606D01*
X-172929Y150529D01*
X-172919Y150505D01*
X-172918Y150484D01*
X-172897Y150445D01*
X-172878Y150393D01*
X-172877Y150387D01*
X-172875Y150385D01*
X-172871Y150373D01*
X-163371Y133873D01*
X-163352Y133851D01*
X-163339Y133825D01*
X-163286Y133777D01*
X-163239Y133724D01*
X-163213Y133711D01*
X-163192Y133692D01*
X-163124Y133669D01*
X-163060Y133638D01*
X-163031Y133637D01*
X-163004Y133627D01*
X-162932Y133632D01*
G37*
G36*
X87438Y138D02*
X87438Y138D01*
X87516Y147D01*
X87535Y158D01*
X87557Y162D01*
X87621Y206D01*
X87689Y245D01*
X87705Y264D01*
X87721Y275D01*
X87745Y313D01*
X87795Y373D01*
X97295Y16873D01*
X97304Y16900D01*
X97320Y16924D01*
X97335Y16994D01*
X97358Y17062D01*
X97355Y17090D01*
X97361Y17118D01*
X97348Y17189D01*
X97342Y17260D01*
X97329Y17285D01*
X97323Y17313D01*
X97283Y17373D01*
X97250Y17436D01*
X97228Y17454D01*
X97212Y17478D01*
X97129Y17536D01*
X97097Y17563D01*
X97086Y17566D01*
X97076Y17573D01*
X94310Y18882D01*
X94277Y18890D01*
X94234Y18910D01*
X91294Y19758D01*
X91260Y19761D01*
X91216Y19774D01*
X88178Y20139D01*
X88144Y20136D01*
X88097Y20142D01*
X85040Y20015D01*
X85007Y20007D01*
X84960Y20006D01*
X81963Y19390D01*
X81932Y19377D01*
X81886Y19368D01*
X79026Y18279D01*
X78998Y18261D01*
X78954Y18245D01*
X76306Y16711D01*
X76280Y16689D01*
X76240Y16666D01*
X73872Y14728D01*
X73850Y14701D01*
X73814Y14672D01*
X71787Y12379D01*
X71771Y12350D01*
X71739Y12315D01*
X70107Y9727D01*
X70095Y9695D01*
X70070Y9656D01*
X68874Y6839D01*
X68867Y6806D01*
X68864Y6799D01*
X68860Y6793D01*
X68859Y6787D01*
X68848Y6763D01*
X68120Y3791D01*
X68118Y3757D01*
X68107Y3712D01*
X67864Y662D01*
X67868Y633D01*
X67863Y605D01*
X67880Y536D01*
X67888Y464D01*
X67903Y440D01*
X67909Y412D01*
X67952Y354D01*
X67988Y292D01*
X68010Y275D01*
X68027Y252D01*
X68089Y215D01*
X68146Y172D01*
X68174Y165D01*
X68198Y150D01*
X68298Y134D01*
X68339Y123D01*
X68349Y125D01*
X68362Y123D01*
X87362Y123D01*
X87438Y138D01*
G37*
G36*
X88131Y281107D02*
X88131Y281107D01*
X88178Y281105D01*
X91216Y281470D01*
X91248Y281481D01*
X91294Y281486D01*
X94234Y282334D01*
X94264Y282350D01*
X94310Y282362D01*
X97076Y283671D01*
X97098Y283688D01*
X97125Y283698D01*
X97177Y283747D01*
X97235Y283790D01*
X97249Y283815D01*
X97270Y283834D01*
X97299Y283900D01*
X97335Y283962D01*
X97338Y283990D01*
X97350Y284016D01*
X97351Y284088D01*
X97360Y284159D01*
X97352Y284186D01*
X97353Y284215D01*
X97317Y284310D01*
X97306Y284350D01*
X97299Y284359D01*
X97295Y284371D01*
X87795Y300871D01*
X87743Y300930D01*
X87697Y300992D01*
X87678Y301003D01*
X87663Y301020D01*
X87593Y301054D01*
X87526Y301094D01*
X87502Y301098D01*
X87484Y301106D01*
X87439Y301108D01*
X87362Y301121D01*
X68362Y301121D01*
X68334Y301116D01*
X68306Y301118D01*
X68238Y301096D01*
X68167Y301082D01*
X68144Y301066D01*
X68117Y301057D01*
X68062Y301010D01*
X68003Y300969D01*
X67988Y300945D01*
X67967Y300927D01*
X67935Y300862D01*
X67896Y300802D01*
X67891Y300774D01*
X67879Y300748D01*
X67870Y300647D01*
X67863Y300605D01*
X67865Y300595D01*
X67864Y300582D01*
X68107Y297532D01*
X68116Y297500D01*
X68120Y297453D01*
X68848Y294481D01*
X68863Y294450D01*
X68874Y294405D01*
X70070Y291588D01*
X70089Y291560D01*
X70107Y291517D01*
X71739Y288929D01*
X71763Y288905D01*
X71787Y288865D01*
X73814Y286572D01*
X73841Y286552D01*
X73872Y286516D01*
X76240Y284578D01*
X76270Y284562D01*
X76306Y284533D01*
X78954Y283000D01*
X78986Y282989D01*
X79026Y282965D01*
X81886Y281877D01*
X81919Y281871D01*
X81963Y281854D01*
X84960Y281238D01*
X84994Y281238D01*
X85040Y281229D01*
X88097Y281102D01*
X88131Y281107D01*
G37*
G36*
X-66810Y128D02*
X-66810Y128D01*
X-66782Y126D01*
X-66714Y148D01*
X-66643Y162D01*
X-66620Y178D01*
X-66593Y187D01*
X-66538Y234D01*
X-66479Y275D01*
X-66464Y299D01*
X-66443Y317D01*
X-66411Y382D01*
X-66372Y442D01*
X-66367Y470D01*
X-66355Y496D01*
X-66346Y597D01*
X-66339Y639D01*
X-66341Y649D01*
X-66340Y662D01*
X-66583Y3712D01*
X-66592Y3744D01*
X-66596Y3791D01*
X-67324Y6763D01*
X-67339Y6794D01*
X-67350Y6839D01*
X-68546Y9656D01*
X-68565Y9684D01*
X-68583Y9727D01*
X-70215Y12315D01*
X-70239Y12339D01*
X-70263Y12379D01*
X-72290Y14672D01*
X-72317Y14692D01*
X-72348Y14728D01*
X-74716Y16666D01*
X-74746Y16682D01*
X-74782Y16711D01*
X-77430Y18245D01*
X-77462Y18255D01*
X-77502Y18279D01*
X-80362Y19368D01*
X-80395Y19373D01*
X-80439Y19390D01*
X-83436Y20006D01*
X-83470Y20006D01*
X-83516Y20015D01*
X-86573Y20142D01*
X-86607Y20137D01*
X-86654Y20139D01*
X-89692Y19774D01*
X-89724Y19763D01*
X-89770Y19758D01*
X-92710Y18910D01*
X-92740Y18894D01*
X-92786Y18882D01*
X-95552Y17573D01*
X-95574Y17556D01*
X-95601Y17546D01*
X-95653Y17497D01*
X-95711Y17454D01*
X-95725Y17429D01*
X-95746Y17410D01*
X-95775Y17344D01*
X-95811Y17282D01*
X-95814Y17254D01*
X-95826Y17228D01*
X-95827Y17156D01*
X-95836Y17085D01*
X-95828Y17058D01*
X-95829Y17029D01*
X-95793Y16934D01*
X-95782Y16894D01*
X-95775Y16885D01*
X-95771Y16873D01*
X-86271Y373D01*
X-86219Y315D01*
X-86173Y252D01*
X-86154Y241D01*
X-86139Y224D01*
X-86069Y190D01*
X-86002Y150D01*
X-85978Y146D01*
X-85960Y138D01*
X-85915Y136D01*
X-85838Y123D01*
X-66838Y123D01*
X-66810Y128D01*
G37*
G36*
X-83516Y281229D02*
X-83516Y281229D01*
X-83483Y281237D01*
X-83436Y281238D01*
X-80439Y281854D01*
X-80408Y281867D01*
X-80362Y281877D01*
X-77502Y282965D01*
X-77474Y282983D01*
X-77430Y283000D01*
X-74782Y284533D01*
X-74756Y284555D01*
X-74716Y284578D01*
X-72348Y286516D01*
X-72326Y286543D01*
X-72290Y286572D01*
X-70263Y288865D01*
X-70247Y288894D01*
X-70215Y288929D01*
X-68583Y291517D01*
X-68571Y291549D01*
X-68546Y291588D01*
X-67350Y294405D01*
X-67343Y294438D01*
X-67324Y294481D01*
X-66596Y297453D01*
X-66594Y297487D01*
X-66583Y297532D01*
X-66340Y300582D01*
X-66344Y300611D01*
X-66339Y300639D01*
X-66356Y300708D01*
X-66364Y300780D01*
X-66379Y300804D01*
X-66385Y300832D01*
X-66428Y300890D01*
X-66464Y300952D01*
X-66486Y300969D01*
X-66503Y300992D01*
X-66565Y301029D01*
X-66622Y301072D01*
X-66650Y301079D01*
X-66674Y301094D01*
X-66774Y301110D01*
X-66815Y301121D01*
X-66825Y301119D01*
X-66838Y301121D01*
X-85838Y301121D01*
X-85914Y301106D01*
X-85992Y301097D01*
X-86011Y301086D01*
X-86033Y301082D01*
X-86097Y301038D01*
X-86165Y300999D01*
X-86181Y300980D01*
X-86197Y300969D01*
X-86221Y300931D01*
X-86271Y300871D01*
X-95771Y284371D01*
X-95780Y284344D01*
X-95796Y284320D01*
X-95811Y284250D01*
X-95834Y284182D01*
X-95831Y284154D01*
X-95837Y284126D01*
X-95824Y284056D01*
X-95818Y283984D01*
X-95805Y283959D01*
X-95799Y283931D01*
X-95759Y283871D01*
X-95726Y283808D01*
X-95704Y283790D01*
X-95688Y283766D01*
X-95605Y283708D01*
X-95573Y283681D01*
X-95562Y283678D01*
X-95552Y283671D01*
X-92786Y282362D01*
X-92753Y282354D01*
X-92710Y282334D01*
X-89770Y281486D01*
X-89736Y281483D01*
X-89692Y281470D01*
X-86654Y281105D01*
X-86620Y281108D01*
X-86573Y281102D01*
X-83516Y281229D01*
G37*
D10*
X76215Y65146D03*
X76215Y48146D03*
D11*
X83362Y293722D03*
X165962Y150622D03*
X83362Y7522D03*
X-81838Y7522D03*
X-164438Y150622D03*
X-81838Y293722D03*
X124662Y222122D03*
X124662Y79122D03*
X762Y7522D03*
X-123138Y79122D03*
X-123138Y222122D03*
D12*
X24130Y184760D03*
X24130Y165760D03*
D13*
X3810Y183760D03*
X3810Y166760D03*
D14*
X-22860Y260350D03*
D15*
X27940Y260350D03*
D16*
X45393Y134858D02*
X45393Y116632D01*
X40967Y116632D01*
X40967Y134858D01*
X45393Y134858D01*
X45393Y118997D02*
X40967Y118997D01*
X40967Y121362D02*
X45393Y121362D01*
X45393Y123727D02*
X40967Y123727D01*
X40967Y126092D02*
X45393Y126092D01*
X45393Y128457D02*
X40967Y128457D01*
X40967Y130822D02*
X45393Y130822D01*
X45393Y133187D02*
X40967Y133187D01*
X58093Y134858D02*
X58093Y116632D01*
X53667Y116632D01*
X53667Y134858D01*
X58093Y134858D01*
X58093Y118997D02*
X53667Y118997D01*
X53667Y121362D02*
X58093Y121362D01*
X58093Y123727D02*
X53667Y123727D01*
X53667Y126092D02*
X58093Y126092D01*
X58093Y128457D02*
X53667Y128457D01*
X53667Y130822D02*
X58093Y130822D01*
X58093Y133187D02*
X53667Y133187D01*
X70793Y134858D02*
X70793Y116632D01*
X66367Y116632D01*
X66367Y134858D01*
X70793Y134858D01*
X70793Y118997D02*
X66367Y118997D01*
X66367Y121362D02*
X70793Y121362D01*
X70793Y123727D02*
X66367Y123727D01*
X66367Y126092D02*
X70793Y126092D01*
X70793Y128457D02*
X66367Y128457D01*
X66367Y130822D02*
X70793Y130822D01*
X70793Y133187D02*
X66367Y133187D01*
X83493Y134858D02*
X83493Y116632D01*
X79067Y116632D01*
X79067Y134858D01*
X83493Y134858D01*
X83493Y118997D02*
X79067Y118997D01*
X79067Y121362D02*
X83493Y121362D01*
X83493Y123727D02*
X79067Y123727D01*
X79067Y126092D02*
X83493Y126092D01*
X83493Y128457D02*
X79067Y128457D01*
X79067Y130822D02*
X83493Y130822D01*
X83493Y133187D02*
X79067Y133187D01*
X83493Y166132D02*
X83493Y184358D01*
X83493Y166132D02*
X79067Y166132D01*
X79067Y184358D01*
X83493Y184358D01*
X83493Y168497D02*
X79067Y168497D01*
X79067Y170862D02*
X83493Y170862D01*
X83493Y173227D02*
X79067Y173227D01*
X79067Y175592D02*
X83493Y175592D01*
X83493Y177957D02*
X79067Y177957D01*
X79067Y180322D02*
X83493Y180322D01*
X83493Y182687D02*
X79067Y182687D01*
X70793Y184358D02*
X70793Y166132D01*
X66367Y166132D01*
X66367Y184358D01*
X70793Y184358D01*
X70793Y168497D02*
X66367Y168497D01*
X66367Y170862D02*
X70793Y170862D01*
X70793Y173227D02*
X66367Y173227D01*
X66367Y175592D02*
X70793Y175592D01*
X70793Y177957D02*
X66367Y177957D01*
X66367Y180322D02*
X70793Y180322D01*
X70793Y182687D02*
X66367Y182687D01*
X58093Y184358D02*
X58093Y166132D01*
X53667Y166132D01*
X53667Y184358D01*
X58093Y184358D01*
X58093Y168497D02*
X53667Y168497D01*
X53667Y170862D02*
X58093Y170862D01*
X58093Y173227D02*
X53667Y173227D01*
X53667Y175592D02*
X58093Y175592D01*
X58093Y177957D02*
X53667Y177957D01*
X53667Y180322D02*
X58093Y180322D01*
X58093Y182687D02*
X53667Y182687D01*
X45393Y184358D02*
X45393Y166132D01*
X40967Y166132D01*
X40967Y184358D01*
X45393Y184358D01*
X45393Y168497D02*
X40967Y168497D01*
X40967Y170862D02*
X45393Y170862D01*
X45393Y173227D02*
X40967Y173227D01*
X40967Y175592D02*
X45393Y175592D01*
X45393Y177957D02*
X40967Y177957D01*
X40967Y180322D02*
X45393Y180322D01*
X45393Y182687D02*
X40967Y182687D01*
D10*
X70240Y198120D03*
X87240Y198120D03*
D13*
X90415Y245745D03*
X73415Y245745D03*
D10*
X-16510Y183760D03*
X-16510Y166760D03*
D17*
X-115570Y124460D03*
X-115570Y149860D03*
X-78740Y241300D03*
X130810Y123190D03*
D10*
X-62230Y75320D03*
X-62230Y92320D03*
D18*
X-62230Y60840D03*
X-62230Y45840D03*
M02*
