G04 EAGLE Gerber RS-274X export*
G75*
%MOMM*%
%FSLAX34Y34*%
%LPD*%
%INTop Copper*%
%IPPOS*%
%AMOC8*
5,1,8,0,0,1.08239X$1,22.5*%
G01*
%ADD10C,1.000000*%
%ADD11R,1.500000X1.300000*%
%ADD12R,1.000000X1.100000*%
%ADD13R,2.500000X2.500000*%
%ADD14C,2.500000*%
%ADD15C,0.147500*%
%ADD16R,1.100000X1.000000*%
%ADD17P,1.649562X8X202.500000*%
%ADD18C,1.524000*%
%ADD19C,0.609600*%
%ADD20C,0.355600*%
%ADD21C,0.756400*%
%ADD22C,0.254000*%
%ADD23C,0.656400*%

G36*
X-66810Y128D02*
X-66810Y128D01*
X-66782Y126D01*
X-66714Y148D01*
X-66643Y162D01*
X-66620Y178D01*
X-66593Y187D01*
X-66538Y234D01*
X-66479Y275D01*
X-66464Y299D01*
X-66443Y317D01*
X-66411Y382D01*
X-66372Y442D01*
X-66367Y470D01*
X-66355Y496D01*
X-66346Y597D01*
X-66339Y639D01*
X-66341Y649D01*
X-66340Y662D01*
X-66496Y2623D01*
X-28825Y2623D01*
X-28712Y2641D01*
X-28599Y2657D01*
X-28591Y2661D01*
X-28582Y2662D01*
X-28481Y2716D01*
X-28379Y2767D01*
X-28372Y2773D01*
X-28365Y2778D01*
X-28286Y2860D01*
X-28205Y2942D01*
X-28201Y2950D01*
X-28195Y2956D01*
X-28147Y3059D01*
X-28097Y3162D01*
X-28095Y3173D01*
X-28092Y3179D01*
X-28089Y3202D01*
X-28066Y3327D01*
X-28024Y3883D01*
X-28027Y3918D01*
X-28022Y3952D01*
X-28038Y4040D01*
X-28046Y4128D01*
X-28059Y4160D01*
X-28066Y4194D01*
X-28100Y4266D01*
X-27957Y4893D01*
X-27955Y4926D01*
X-27940Y5006D01*
X-27892Y5644D01*
X-27851Y5703D01*
X-27794Y5771D01*
X-27781Y5804D01*
X-27762Y5832D01*
X-27706Y5990D01*
X-27216Y8137D01*
X-27214Y8172D01*
X-27204Y8205D01*
X-27207Y8294D01*
X-27201Y8383D01*
X-27210Y8416D01*
X-27211Y8451D01*
X-27235Y8527D01*
X-27000Y9126D01*
X-26993Y9158D01*
X-26966Y9234D01*
X-26824Y9859D01*
X-26774Y9911D01*
X-26708Y9970D01*
X-26690Y10000D01*
X-26666Y10025D01*
X-26588Y10173D01*
X-25784Y12223D01*
X-25777Y12257D01*
X-25762Y12288D01*
X-25751Y12377D01*
X-25732Y12464D01*
X-25736Y12498D01*
X-25732Y12532D01*
X-25744Y12611D01*
X-25422Y13168D01*
X-25410Y13199D01*
X-25373Y13271D01*
X-25139Y13867D01*
X-25082Y13911D01*
X-25008Y13959D01*
X-24986Y13987D01*
X-24959Y14008D01*
X-24859Y14143D01*
X-23758Y16050D01*
X-23746Y16082D01*
X-23727Y16111D01*
X-23703Y16197D01*
X-23671Y16280D01*
X-23670Y16315D01*
X-23661Y16348D01*
X-23661Y16428D01*
X-23260Y16931D01*
X-23244Y16960D01*
X-23196Y17025D01*
X-22875Y17579D01*
X-22813Y17615D01*
X-22732Y17651D01*
X-22706Y17675D01*
X-22676Y17692D01*
X-22558Y17811D01*
X-21185Y19532D01*
X-21168Y19563D01*
X-21145Y19588D01*
X-21108Y19669D01*
X-21065Y19747D01*
X-21058Y19781D01*
X-21044Y19813D01*
X-21032Y19891D01*
X-20561Y20329D01*
X-20540Y20355D01*
X-20483Y20412D01*
X-20084Y20913D01*
X-20051Y20926D01*
X-20009Y20932D01*
X-19975Y20950D01*
X-19931Y20963D01*
X-19903Y20982D01*
X-19870Y20995D01*
X-19817Y21034D01*
X-19792Y21048D01*
X-19774Y21066D01*
X-19736Y21094D01*
X-18121Y22592D01*
X-18100Y22619D01*
X-18073Y22641D01*
X-18025Y22716D01*
X-17971Y22786D01*
X-17959Y22819D01*
X-17940Y22848D01*
X-17917Y22924D01*
X-17385Y23287D01*
X-17361Y23309D01*
X-17336Y23328D01*
X-17330Y23331D01*
X-17326Y23336D01*
X-17296Y23358D01*
X-16827Y23793D01*
X-16757Y23809D01*
X-16669Y23820D01*
X-16637Y23835D01*
X-16604Y23842D01*
X-16455Y23921D01*
X-14636Y25161D01*
X-14611Y25185D01*
X-14581Y25203D01*
X-14522Y25269D01*
X-14458Y25331D01*
X-14442Y25361D01*
X-14419Y25387D01*
X-14385Y25459D01*
X-13805Y25738D01*
X-13778Y25757D01*
X-13706Y25795D01*
X-13177Y26156D01*
X-13105Y26161D01*
X-13016Y26158D01*
X-12983Y26169D01*
X-12949Y26171D01*
X-12791Y26227D01*
X-10807Y27182D01*
X-10778Y27202D01*
X-10746Y27215D01*
X-10678Y27272D01*
X-10605Y27323D01*
X-10585Y27351D01*
X-10558Y27373D01*
X-10514Y27439D01*
X-9899Y27629D01*
X-9869Y27644D01*
X-9793Y27670D01*
X-9216Y27948D01*
X-9144Y27942D01*
X-9057Y27927D01*
X-9022Y27932D01*
X-8988Y27929D01*
X-8823Y27961D01*
X-6719Y28610D01*
X-6688Y28625D01*
X-6654Y28633D01*
X-6578Y28679D01*
X-6499Y28719D01*
X-6474Y28744D01*
X-6445Y28762D01*
X-6391Y28820D01*
X-5754Y28916D01*
X-5723Y28926D01*
X-5643Y28941D01*
X-5031Y29130D01*
X-4962Y29114D01*
X-4877Y29085D01*
X-4843Y29085D01*
X-4809Y29077D01*
X-4641Y29084D01*
X-2464Y29412D01*
X-2431Y29423D01*
X-2396Y29425D01*
X-2315Y29460D01*
X-2230Y29487D01*
X-2202Y29508D01*
X-2170Y29522D01*
X-2108Y29571D01*
X-1465Y29571D01*
X-1432Y29577D01*
X-1351Y29580D01*
X-718Y29675D01*
X-651Y29648D01*
X-572Y29608D01*
X-538Y29603D01*
X-506Y29590D01*
X-339Y29571D01*
X1863Y29571D01*
X1897Y29577D01*
X1932Y29574D01*
X2018Y29597D01*
X2106Y29611D01*
X2136Y29627D01*
X2170Y29636D01*
X2239Y29676D01*
X2875Y29580D01*
X2908Y29580D01*
X2989Y29571D01*
X3629Y29571D01*
X3691Y29535D01*
X3763Y29483D01*
X3796Y29473D01*
X3826Y29455D01*
X3988Y29412D01*
X6165Y29084D01*
X6200Y29084D01*
X6234Y29077D01*
X6322Y29086D01*
X6411Y29087D01*
X6444Y29098D01*
X6479Y29102D01*
X6552Y29131D01*
X7167Y28941D01*
X7200Y28937D01*
X7278Y28916D01*
X7912Y28821D01*
X7967Y28775D01*
X8031Y28713D01*
X8062Y28698D01*
X8089Y28676D01*
X8243Y28610D01*
X10347Y27961D01*
X10381Y27956D01*
X10414Y27943D01*
X10503Y27939D01*
X10591Y27927D01*
X10625Y27933D01*
X10659Y27932D01*
X10737Y27950D01*
X11317Y27670D01*
X11348Y27661D01*
X11423Y27629D01*
X12034Y27440D01*
X12083Y27387D01*
X12136Y27316D01*
X12165Y27297D01*
X12188Y27271D01*
X12331Y27182D01*
X14315Y26227D01*
X14348Y26217D01*
X14378Y26200D01*
X14465Y26182D01*
X14550Y26157D01*
X14585Y26158D01*
X14619Y26152D01*
X14698Y26158D01*
X15230Y25795D01*
X15260Y25781D01*
X15329Y25738D01*
X15906Y25460D01*
X15945Y25401D01*
X15988Y25323D01*
X16013Y25299D01*
X16033Y25270D01*
X16160Y25161D01*
X17979Y23921D01*
X18011Y23906D01*
X18038Y23885D01*
X18122Y23854D01*
X18202Y23817D01*
X18237Y23813D01*
X18269Y23801D01*
X18349Y23795D01*
X18820Y23358D01*
X18848Y23339D01*
X18909Y23287D01*
X19438Y22926D01*
X19449Y22904D01*
X19450Y22897D01*
X19459Y22881D01*
X19469Y22861D01*
X19499Y22778D01*
X19521Y22750D01*
X19536Y22719D01*
X19645Y22592D01*
X19724Y22520D01*
X19772Y22488D01*
X19813Y22448D01*
X19873Y22420D01*
X19928Y22384D01*
X19984Y22369D01*
X20036Y22345D01*
X20102Y22337D01*
X20166Y22320D01*
X20224Y22324D01*
X20281Y22317D01*
X20345Y22331D01*
X20412Y22336D01*
X20465Y22357D01*
X20521Y22370D01*
X20578Y22404D01*
X20639Y22429D01*
X20683Y22466D01*
X20732Y22496D01*
X20775Y22546D01*
X20825Y22589D01*
X20855Y22639D01*
X20892Y22683D01*
X20917Y22744D01*
X20951Y22801D01*
X20963Y22857D01*
X20984Y22911D01*
X20995Y23011D01*
X21002Y23042D01*
X21000Y23056D01*
X21003Y23078D01*
X21003Y24022D01*
X23818Y26838D01*
X27800Y26838D01*
X30616Y24022D01*
X30616Y20040D01*
X27800Y17224D01*
X25989Y17224D01*
X25899Y17210D01*
X25808Y17203D01*
X25778Y17190D01*
X25746Y17185D01*
X25666Y17142D01*
X25582Y17106D01*
X25549Y17081D01*
X25529Y17070D01*
X25506Y17046D01*
X25451Y17002D01*
X25409Y16960D01*
X25383Y16924D01*
X25351Y16895D01*
X25312Y16825D01*
X25265Y16760D01*
X25252Y16718D01*
X25231Y16680D01*
X25216Y16601D01*
X25193Y16525D01*
X25194Y16481D01*
X25186Y16438D01*
X25197Y16359D01*
X25199Y16279D01*
X25214Y16238D01*
X25220Y16194D01*
X25279Y16062D01*
X25283Y16048D01*
X25286Y16045D01*
X25288Y16041D01*
X26383Y14143D01*
X26405Y14116D01*
X26420Y14085D01*
X26483Y14021D01*
X26539Y13953D01*
X26568Y13934D01*
X26593Y13910D01*
X26662Y13870D01*
X26897Y13271D01*
X26913Y13243D01*
X26946Y13168D01*
X27266Y12614D01*
X27266Y12542D01*
X27257Y12454D01*
X27264Y12420D01*
X27264Y12385D01*
X27308Y12223D01*
X28112Y10173D01*
X28130Y10144D01*
X28140Y10111D01*
X28192Y10039D01*
X28238Y9962D01*
X28264Y9939D01*
X28285Y9911D01*
X28347Y9862D01*
X28490Y9234D01*
X28502Y9204D01*
X28524Y9126D01*
X28757Y8530D01*
X28746Y8459D01*
X28724Y8373D01*
X28727Y8338D01*
X28721Y8304D01*
X28740Y8137D01*
X29230Y5990D01*
X29243Y5958D01*
X29249Y5924D01*
X29290Y5845D01*
X29323Y5763D01*
X29346Y5736D01*
X29362Y5706D01*
X29416Y5648D01*
X29464Y5006D01*
X29472Y4974D01*
X29481Y4893D01*
X29623Y4269D01*
X29602Y4200D01*
X29567Y4119D01*
X29565Y4084D01*
X29554Y4051D01*
X29548Y3883D01*
X29590Y3327D01*
X29617Y3216D01*
X29641Y3104D01*
X29645Y3097D01*
X29647Y3088D01*
X29709Y2991D01*
X29767Y2893D01*
X29774Y2887D01*
X29778Y2880D01*
X29867Y2807D01*
X29954Y2733D01*
X29962Y2730D01*
X29969Y2724D01*
X30075Y2684D01*
X30182Y2641D01*
X30193Y2640D01*
X30199Y2638D01*
X30222Y2637D01*
X30349Y2623D01*
X68020Y2623D01*
X67864Y662D01*
X67868Y633D01*
X67863Y605D01*
X67880Y536D01*
X67888Y464D01*
X67903Y440D01*
X67909Y412D01*
X67952Y354D01*
X67988Y292D01*
X68010Y275D01*
X68027Y252D01*
X68089Y215D01*
X68146Y172D01*
X68174Y165D01*
X68198Y150D01*
X68298Y134D01*
X68339Y123D01*
X68349Y125D01*
X68362Y123D01*
X87362Y123D01*
X87438Y138D01*
X87516Y147D01*
X87535Y158D01*
X87557Y162D01*
X87621Y206D01*
X87689Y245D01*
X87705Y264D01*
X87721Y275D01*
X87745Y313D01*
X87795Y373D01*
X97295Y16873D01*
X97304Y16900D01*
X97320Y16924D01*
X97335Y16994D01*
X97358Y17062D01*
X97355Y17090D01*
X97361Y17118D01*
X97348Y17189D01*
X97342Y17260D01*
X97329Y17285D01*
X97323Y17313D01*
X97283Y17373D01*
X97250Y17436D01*
X97228Y17454D01*
X97212Y17478D01*
X97129Y17536D01*
X97097Y17563D01*
X97086Y17566D01*
X97076Y17573D01*
X95318Y18405D01*
X114129Y50986D01*
X114169Y51094D01*
X114177Y51112D01*
X114189Y51138D01*
X114189Y51143D01*
X114212Y51199D01*
X114213Y51208D01*
X114216Y51216D01*
X114220Y51330D01*
X114227Y51445D01*
X114224Y51453D01*
X114225Y51462D01*
X114192Y51572D01*
X114162Y51682D01*
X114157Y51689D01*
X114155Y51698D01*
X114089Y51792D01*
X114025Y51887D01*
X114017Y51893D01*
X114013Y51899D01*
X113995Y51913D01*
X113898Y51996D01*
X113443Y52306D01*
X113411Y52321D01*
X113384Y52342D01*
X113301Y52372D01*
X113220Y52410D01*
X113185Y52414D01*
X113153Y52425D01*
X113074Y52431D01*
X112602Y52869D01*
X112574Y52887D01*
X112513Y52940D01*
X111983Y53300D01*
X111953Y53365D01*
X111922Y53449D01*
X111901Y53476D01*
X111886Y53507D01*
X111776Y53634D01*
X110160Y55133D01*
X110131Y55152D01*
X110107Y55177D01*
X110029Y55219D01*
X109955Y55269D01*
X109921Y55278D01*
X109891Y55294D01*
X109814Y55312D01*
X109412Y55815D01*
X109388Y55837D01*
X109335Y55898D01*
X108865Y56334D01*
X108845Y56402D01*
X108827Y56489D01*
X108810Y56519D01*
X108800Y56553D01*
X108710Y56694D01*
X107335Y58417D01*
X107310Y58441D01*
X107290Y58469D01*
X107219Y58523D01*
X107153Y58582D01*
X107121Y58596D01*
X107093Y58617D01*
X107019Y58646D01*
X106697Y59203D01*
X106676Y59229D01*
X106633Y59297D01*
X106234Y59798D01*
X106224Y59868D01*
X106219Y59957D01*
X106207Y59990D01*
X106202Y60024D01*
X106134Y60178D01*
X105032Y62086D01*
X105010Y62113D01*
X104994Y62144D01*
X104932Y62207D01*
X104876Y62276D01*
X104846Y62295D01*
X104822Y62320D01*
X104753Y62359D01*
X104518Y62958D01*
X104501Y62987D01*
X104469Y63061D01*
X104148Y63615D01*
X104149Y63687D01*
X104158Y63775D01*
X104150Y63809D01*
X104150Y63844D01*
X104106Y64006D01*
X103594Y65310D01*
X103567Y65356D01*
X103549Y65406D01*
X103504Y65461D01*
X103468Y65522D01*
X103428Y65556D01*
X103395Y65598D01*
X103335Y65636D01*
X103282Y65682D01*
X103232Y65702D01*
X103188Y65731D01*
X103119Y65748D01*
X103054Y65775D01*
X103001Y65778D01*
X102950Y65791D01*
X102879Y65785D01*
X102808Y65789D01*
X102757Y65776D01*
X102704Y65772D01*
X102639Y65744D01*
X102571Y65725D01*
X102527Y65696D01*
X102478Y65675D01*
X102390Y65605D01*
X102366Y65589D01*
X102360Y65580D01*
X102347Y65570D01*
X99692Y62915D01*
X96454Y62915D01*
X96364Y62900D01*
X96273Y62893D01*
X96244Y62881D01*
X96212Y62875D01*
X96131Y62833D01*
X96047Y62797D01*
X96015Y62771D01*
X95994Y62760D01*
X95972Y62737D01*
X95916Y62692D01*
X91389Y58165D01*
X38212Y58165D01*
X22605Y73772D01*
X22605Y88955D01*
X22591Y89045D01*
X22583Y89136D01*
X22571Y89165D01*
X22566Y89197D01*
X22523Y89278D01*
X22487Y89362D01*
X22461Y89394D01*
X22450Y89415D01*
X22427Y89437D01*
X22382Y89493D01*
X20093Y91782D01*
X20093Y96178D01*
X23202Y99287D01*
X27598Y99287D01*
X30707Y96178D01*
X30707Y91782D01*
X28418Y89493D01*
X28365Y89419D01*
X28305Y89349D01*
X28293Y89319D01*
X28274Y89293D01*
X28247Y89206D01*
X28213Y89121D01*
X28209Y89080D01*
X28202Y89058D01*
X28203Y89026D01*
X28195Y88955D01*
X28195Y76403D01*
X28209Y76313D01*
X28217Y76222D01*
X28229Y76192D01*
X28234Y76160D01*
X28277Y76080D01*
X28313Y75996D01*
X28339Y75964D01*
X28350Y75943D01*
X28373Y75921D01*
X28418Y75865D01*
X40305Y63978D01*
X40379Y63925D01*
X40448Y63865D01*
X40478Y63853D01*
X40504Y63834D01*
X40591Y63807D01*
X40676Y63773D01*
X40717Y63769D01*
X40739Y63762D01*
X40772Y63763D01*
X40843Y63755D01*
X88759Y63755D01*
X88849Y63769D01*
X88940Y63777D01*
X88970Y63789D01*
X89002Y63794D01*
X89082Y63837D01*
X89166Y63873D01*
X89198Y63899D01*
X89219Y63910D01*
X89241Y63933D01*
X89297Y63978D01*
X91964Y66644D01*
X92017Y66718D01*
X92076Y66788D01*
X92089Y66818D01*
X92107Y66844D01*
X92134Y66931D01*
X92168Y67016D01*
X92173Y67057D01*
X92180Y67079D01*
X92179Y67111D01*
X92187Y67183D01*
X92187Y70420D01*
X95295Y73528D01*
X99692Y73528D01*
X100491Y72729D01*
X100573Y72670D01*
X100650Y72607D01*
X100672Y72599D01*
X100691Y72585D01*
X100787Y72556D01*
X100880Y72521D01*
X100904Y72520D01*
X100926Y72513D01*
X101026Y72515D01*
X101126Y72512D01*
X101149Y72519D01*
X101172Y72519D01*
X101266Y72553D01*
X101362Y72582D01*
X101381Y72595D01*
X101403Y72604D01*
X101481Y72666D01*
X101563Y72724D01*
X101577Y72743D01*
X101595Y72757D01*
X101649Y72842D01*
X101708Y72922D01*
X101715Y72944D01*
X101728Y72964D01*
X101753Y73061D01*
X101783Y73156D01*
X101784Y73186D01*
X101788Y73203D01*
X101786Y73236D01*
X101789Y73324D01*
X101697Y74547D01*
X101689Y74581D01*
X101689Y74616D01*
X101660Y74700D01*
X101639Y74786D01*
X101620Y74816D01*
X101609Y74848D01*
X101564Y74914D01*
X101612Y75556D01*
X101609Y75589D01*
X101612Y75670D01*
X101564Y76308D01*
X101596Y76373D01*
X101642Y76448D01*
X101650Y76482D01*
X101665Y76513D01*
X101696Y76678D01*
X101860Y78876D01*
X101857Y78911D01*
X101862Y78945D01*
X101846Y79033D01*
X101839Y79121D01*
X101825Y79153D01*
X101819Y79187D01*
X101784Y79259D01*
X101927Y79886D01*
X101929Y79919D01*
X101944Y79999D01*
X101978Y80461D01*
X101974Y80509D01*
X101979Y80557D01*
X101963Y80631D01*
X101957Y80706D01*
X101938Y80751D01*
X101927Y80798D01*
X101888Y80863D01*
X101858Y80932D01*
X101826Y80967D01*
X101801Y81009D01*
X101744Y81058D01*
X101693Y81114D01*
X101651Y81137D01*
X101614Y81169D01*
X101544Y81197D01*
X101478Y81234D01*
X101431Y81243D01*
X101386Y81261D01*
X101259Y81275D01*
X101236Y81279D01*
X101230Y81278D01*
X101219Y81279D01*
X70850Y81279D01*
X49737Y102392D01*
X49663Y102445D01*
X49594Y102505D01*
X49564Y102517D01*
X49538Y102536D01*
X49451Y102563D01*
X49366Y102597D01*
X49325Y102601D01*
X49303Y102608D01*
X49270Y102607D01*
X49199Y102615D01*
X36647Y102615D01*
X36557Y102601D01*
X36466Y102593D01*
X36437Y102581D01*
X36405Y102576D01*
X36324Y102533D01*
X36240Y102497D01*
X36208Y102471D01*
X36187Y102460D01*
X36165Y102437D01*
X36109Y102392D01*
X33820Y100103D01*
X29424Y100103D01*
X26315Y103212D01*
X26315Y105664D01*
X26312Y105684D01*
X26314Y105703D01*
X26292Y105805D01*
X26276Y105907D01*
X26266Y105924D01*
X26262Y105944D01*
X26209Y106033D01*
X26160Y106124D01*
X26146Y106138D01*
X26136Y106155D01*
X26057Y106222D01*
X25982Y106294D01*
X25964Y106302D01*
X25949Y106315D01*
X25853Y106354D01*
X25759Y106397D01*
X25739Y106399D01*
X25721Y106407D01*
X25554Y106425D01*
X-11728Y106425D01*
X-37998Y132695D01*
X-38072Y132748D01*
X-38141Y132808D01*
X-38171Y132820D01*
X-38197Y132839D01*
X-38284Y132866D01*
X-38369Y132900D01*
X-38410Y132904D01*
X-38432Y132911D01*
X-38465Y132910D01*
X-38536Y132918D01*
X-41773Y132918D01*
X-44882Y136027D01*
X-44882Y140423D01*
X-42256Y143049D01*
X-42214Y143107D01*
X-42165Y143159D01*
X-42143Y143206D01*
X-42113Y143249D01*
X-42091Y143317D01*
X-42061Y143382D01*
X-42055Y143434D01*
X-42040Y143484D01*
X-42042Y143555D01*
X-42034Y143627D01*
X-42045Y143677D01*
X-42047Y143729D01*
X-42071Y143797D01*
X-42086Y143867D01*
X-42113Y143912D01*
X-42131Y143961D01*
X-42176Y144017D01*
X-42213Y144078D01*
X-42252Y144112D01*
X-42285Y144153D01*
X-42345Y144191D01*
X-42399Y144238D01*
X-42448Y144257D01*
X-42492Y144286D01*
X-42561Y144303D01*
X-42628Y144330D01*
X-42699Y144338D01*
X-42730Y144346D01*
X-42753Y144344D01*
X-42794Y144348D01*
X-44313Y144348D01*
X-47422Y147457D01*
X-47422Y151853D01*
X-44591Y154684D01*
X-44549Y154742D01*
X-44500Y154794D01*
X-44478Y154841D01*
X-44448Y154883D01*
X-44426Y154952D01*
X-44396Y155017D01*
X-44391Y155069D01*
X-44375Y155119D01*
X-44377Y155190D01*
X-44369Y155261D01*
X-44380Y155312D01*
X-44382Y155364D01*
X-44406Y155432D01*
X-44421Y155502D01*
X-44448Y155547D01*
X-44466Y155595D01*
X-44511Y155651D01*
X-44548Y155713D01*
X-44587Y155747D01*
X-44620Y155787D01*
X-44680Y155826D01*
X-44735Y155873D01*
X-44783Y155892D01*
X-44827Y155920D01*
X-44896Y155938D01*
X-44963Y155965D01*
X-45034Y155973D01*
X-45065Y155981D01*
X-45088Y155979D01*
X-45129Y155983D01*
X-46648Y155983D01*
X-49757Y159092D01*
X-49757Y163488D01*
X-46648Y166597D01*
X-43411Y166597D01*
X-43321Y166611D01*
X-43230Y166619D01*
X-43200Y166631D01*
X-43168Y166636D01*
X-43088Y166679D01*
X-43004Y166715D01*
X-42972Y166741D01*
X-42951Y166752D01*
X-42929Y166775D01*
X-42873Y166820D01*
X-41118Y168575D01*
X-41065Y168649D01*
X-41005Y168718D01*
X-40993Y168748D01*
X-40974Y168774D01*
X-40947Y168861D01*
X-40913Y168946D01*
X-40909Y168987D01*
X-40902Y169009D01*
X-40903Y169042D01*
X-40895Y169113D01*
X-40895Y181498D01*
X-35838Y186555D01*
X-24296Y186555D01*
X-24276Y186558D01*
X-24257Y186556D01*
X-24155Y186578D01*
X-24053Y186594D01*
X-24036Y186604D01*
X-24016Y186608D01*
X-23927Y186661D01*
X-23836Y186710D01*
X-23822Y186724D01*
X-23805Y186734D01*
X-23738Y186813D01*
X-23666Y186888D01*
X-23658Y186906D01*
X-23645Y186921D01*
X-23606Y187017D01*
X-23563Y187111D01*
X-23561Y187131D01*
X-23553Y187149D01*
X-23535Y187316D01*
X-23535Y189392D01*
X-22642Y190285D01*
X-11096Y190285D01*
X-11076Y190288D01*
X-11057Y190286D01*
X-10955Y190308D01*
X-10853Y190324D01*
X-10836Y190334D01*
X-10816Y190338D01*
X-10727Y190391D01*
X-10636Y190440D01*
X-10622Y190454D01*
X-10605Y190464D01*
X-10538Y190543D01*
X-10466Y190618D01*
X-10458Y190636D01*
X-10445Y190651D01*
X-10406Y190747D01*
X-10363Y190841D01*
X-10361Y190861D01*
X-10353Y190879D01*
X-10335Y191046D01*
X-10335Y201673D01*
X-10349Y201763D01*
X-10357Y201854D01*
X-10369Y201883D01*
X-10374Y201915D01*
X-10417Y201996D01*
X-10453Y202080D01*
X-10479Y202112D01*
X-10490Y202133D01*
X-10513Y202155D01*
X-10558Y202211D01*
X-22527Y214180D01*
X-22601Y214233D01*
X-22671Y214293D01*
X-22701Y214305D01*
X-22727Y214324D01*
X-22814Y214351D01*
X-22899Y214385D01*
X-22940Y214389D01*
X-22962Y214396D01*
X-22994Y214395D01*
X-23065Y214403D01*
X-23788Y214403D01*
X-26897Y217512D01*
X-26897Y221908D01*
X-23788Y225017D01*
X-19392Y225017D01*
X-16283Y221908D01*
X-16283Y221185D01*
X-16269Y221095D01*
X-16261Y221004D01*
X-16249Y220975D01*
X-16244Y220943D01*
X-16201Y220862D01*
X-16165Y220778D01*
X-16139Y220746D01*
X-16128Y220725D01*
X-16105Y220703D01*
X-16060Y220647D01*
X-1189Y205776D01*
X-1189Y178576D01*
X-1175Y178486D01*
X-1167Y178395D01*
X-1155Y178365D01*
X-1150Y178333D01*
X-1107Y178252D01*
X-1071Y178168D01*
X-1045Y178136D01*
X-1034Y178115D01*
X-1011Y178093D01*
X-966Y178037D01*
X-897Y177968D01*
X-897Y174546D01*
X-894Y174526D01*
X-896Y174507D01*
X-874Y174405D01*
X-858Y174303D01*
X-848Y174286D01*
X-844Y174266D01*
X-791Y174177D01*
X-742Y174086D01*
X-728Y174072D01*
X-718Y174055D01*
X-639Y173988D01*
X-564Y173916D01*
X-546Y173908D01*
X-531Y173895D01*
X-435Y173856D01*
X-341Y173813D01*
X-321Y173811D01*
X-303Y173803D01*
X-136Y173785D01*
X9442Y173785D01*
X10335Y172892D01*
X10335Y172094D01*
X10338Y172074D01*
X10336Y172055D01*
X10358Y171953D01*
X10374Y171851D01*
X10384Y171834D01*
X10388Y171814D01*
X10441Y171725D01*
X10490Y171634D01*
X10504Y171620D01*
X10514Y171603D01*
X10593Y171536D01*
X10668Y171464D01*
X10686Y171456D01*
X10701Y171443D01*
X10797Y171404D01*
X10891Y171361D01*
X10911Y171359D01*
X10929Y171351D01*
X11096Y171333D01*
X14344Y171333D01*
X14364Y171336D01*
X14383Y171334D01*
X14485Y171356D01*
X14587Y171372D01*
X14604Y171382D01*
X14624Y171386D01*
X14713Y171439D01*
X14804Y171488D01*
X14818Y171502D01*
X14835Y171512D01*
X14902Y171591D01*
X14974Y171666D01*
X14982Y171684D01*
X14995Y171699D01*
X15034Y171795D01*
X15077Y171889D01*
X15079Y171909D01*
X15087Y171927D01*
X15105Y172094D01*
X15105Y172892D01*
X15998Y173785D01*
X32262Y173785D01*
X33155Y172892D01*
X33155Y163617D01*
X33158Y163597D01*
X33156Y163578D01*
X33178Y163476D01*
X33194Y163374D01*
X33204Y163357D01*
X33208Y163337D01*
X33261Y163248D01*
X33310Y163157D01*
X33324Y163143D01*
X33334Y163126D01*
X33413Y163059D01*
X33488Y162987D01*
X33506Y162979D01*
X33521Y162966D01*
X33617Y162927D01*
X33711Y162884D01*
X33731Y162882D01*
X33749Y162874D01*
X33916Y162856D01*
X51907Y162856D01*
X51978Y162867D01*
X52050Y162869D01*
X52099Y162887D01*
X52150Y162895D01*
X52213Y162929D01*
X52281Y162954D01*
X52321Y162986D01*
X52367Y163011D01*
X52417Y163063D01*
X52473Y163107D01*
X52501Y163151D01*
X52537Y163189D01*
X52567Y163254D01*
X52606Y163314D01*
X52618Y163365D01*
X52640Y163412D01*
X52648Y163483D01*
X52666Y163553D01*
X52662Y163605D01*
X52667Y163656D01*
X52652Y163727D01*
X52647Y163798D01*
X52626Y163846D01*
X52615Y163897D01*
X52578Y163958D01*
X52550Y164024D01*
X52505Y164080D01*
X52489Y164108D01*
X52471Y164123D01*
X52445Y164155D01*
X51405Y165195D01*
X51405Y172938D01*
X51391Y173028D01*
X51383Y173119D01*
X51371Y173148D01*
X51366Y173180D01*
X51323Y173261D01*
X51287Y173345D01*
X51261Y173377D01*
X51250Y173398D01*
X51227Y173420D01*
X51209Y173442D01*
X51209Y229914D01*
X51195Y230004D01*
X51187Y230095D01*
X51175Y230125D01*
X51170Y230157D01*
X51127Y230238D01*
X51091Y230322D01*
X51065Y230354D01*
X51054Y230374D01*
X51031Y230397D01*
X50986Y230452D01*
X34189Y247250D01*
X34094Y247318D01*
X34001Y247388D01*
X33995Y247390D01*
X33989Y247393D01*
X33878Y247427D01*
X33767Y247464D01*
X33760Y247464D01*
X33754Y247466D01*
X33638Y247462D01*
X33521Y247461D01*
X33513Y247459D01*
X33509Y247459D01*
X33491Y247453D01*
X33360Y247415D01*
X30730Y246325D01*
X25150Y246325D01*
X19996Y248460D01*
X16050Y252406D01*
X13915Y257560D01*
X13915Y263140D01*
X16050Y268294D01*
X19996Y272240D01*
X25150Y274375D01*
X30730Y274375D01*
X35884Y272240D01*
X39830Y268294D01*
X41965Y263140D01*
X41965Y257560D01*
X40650Y254387D01*
X40624Y254273D01*
X40595Y254160D01*
X40595Y254153D01*
X40594Y254147D01*
X40605Y254031D01*
X40614Y253914D01*
X40617Y253909D01*
X40617Y253902D01*
X40665Y253795D01*
X40710Y253688D01*
X40715Y253682D01*
X40717Y253678D01*
X40730Y253664D01*
X40815Y253557D01*
X60355Y234018D01*
X60355Y177552D01*
X60369Y177462D01*
X60377Y177371D01*
X60389Y177342D01*
X60394Y177310D01*
X60437Y177229D01*
X60453Y177192D01*
X60453Y173302D01*
X60434Y173276D01*
X60407Y173189D01*
X60373Y173104D01*
X60369Y173063D01*
X60362Y173041D01*
X60363Y173009D01*
X60355Y172938D01*
X60355Y165195D01*
X59315Y164155D01*
X59273Y164097D01*
X59223Y164045D01*
X59201Y163998D01*
X59171Y163956D01*
X59150Y163887D01*
X59120Y163822D01*
X59114Y163770D01*
X59099Y163720D01*
X59101Y163649D01*
X59093Y163578D01*
X59104Y163527D01*
X59105Y163475D01*
X59130Y163407D01*
X59145Y163337D01*
X59172Y163292D01*
X59189Y163244D01*
X59234Y163188D01*
X59271Y163126D01*
X59311Y163092D01*
X59343Y163052D01*
X59403Y163013D01*
X59458Y162966D01*
X59506Y162947D01*
X59550Y162919D01*
X59620Y162901D01*
X59686Y162874D01*
X59757Y162866D01*
X59789Y162858D01*
X59812Y162860D01*
X59853Y162856D01*
X64607Y162856D01*
X64678Y162867D01*
X64750Y162869D01*
X64799Y162887D01*
X64850Y162895D01*
X64913Y162929D01*
X64981Y162954D01*
X65021Y162986D01*
X65067Y163011D01*
X65117Y163063D01*
X65173Y163107D01*
X65201Y163151D01*
X65237Y163189D01*
X65267Y163254D01*
X65306Y163314D01*
X65318Y163365D01*
X65340Y163412D01*
X65348Y163483D01*
X65366Y163553D01*
X65362Y163605D01*
X65367Y163656D01*
X65352Y163727D01*
X65347Y163798D01*
X65326Y163846D01*
X65315Y163897D01*
X65278Y163958D01*
X65250Y164024D01*
X65205Y164080D01*
X65189Y164108D01*
X65171Y164123D01*
X65145Y164155D01*
X64105Y165195D01*
X64105Y172938D01*
X64091Y173028D01*
X64083Y173119D01*
X64071Y173148D01*
X64066Y173180D01*
X64023Y173261D01*
X64007Y173298D01*
X64007Y177188D01*
X64026Y177214D01*
X64053Y177301D01*
X64087Y177386D01*
X64091Y177427D01*
X64098Y177449D01*
X64097Y177481D01*
X64105Y177552D01*
X64105Y185295D01*
X64174Y185364D01*
X64227Y185438D01*
X64287Y185507D01*
X64299Y185537D01*
X64318Y185563D01*
X64345Y185650D01*
X64379Y185735D01*
X64383Y185776D01*
X64390Y185798D01*
X64389Y185831D01*
X64397Y185902D01*
X64397Y190991D01*
X64383Y191081D01*
X64375Y191172D01*
X64363Y191202D01*
X64358Y191234D01*
X64315Y191315D01*
X64279Y191398D01*
X64253Y191431D01*
X64242Y191451D01*
X64219Y191473D01*
X64174Y191529D01*
X63215Y192488D01*
X63215Y203752D01*
X63248Y203785D01*
X63301Y203859D01*
X63361Y203928D01*
X63373Y203958D01*
X63392Y203984D01*
X63419Y204071D01*
X63453Y204156D01*
X63457Y204197D01*
X63464Y204219D01*
X63463Y204252D01*
X63471Y204323D01*
X63471Y258677D01*
X63457Y258767D01*
X63449Y258858D01*
X63437Y258887D01*
X63432Y258919D01*
X63389Y259000D01*
X63353Y259084D01*
X63327Y259116D01*
X63316Y259137D01*
X63293Y259159D01*
X63248Y259215D01*
X46589Y275874D01*
X46515Y275927D01*
X46445Y275987D01*
X46415Y275999D01*
X46389Y276018D01*
X46302Y276045D01*
X46217Y276079D01*
X46176Y276083D01*
X46154Y276090D01*
X46122Y276089D01*
X46051Y276097D01*
X-331Y276097D01*
X-421Y276083D01*
X-512Y276075D01*
X-541Y276063D01*
X-573Y276058D01*
X-654Y276015D01*
X-738Y275979D01*
X-770Y275953D01*
X-791Y275942D01*
X-813Y275919D01*
X-869Y275874D01*
X-8612Y268131D01*
X-8665Y268057D01*
X-8725Y267987D01*
X-8737Y267957D01*
X-8756Y267931D01*
X-8783Y267844D01*
X-8817Y267759D01*
X-8821Y267718D01*
X-8828Y267696D01*
X-8827Y267664D01*
X-8835Y267593D01*
X-8835Y247218D01*
X-9728Y246325D01*
X-35992Y246325D01*
X-36885Y247218D01*
X-36885Y273482D01*
X-35992Y274375D01*
X-15617Y274375D01*
X-15527Y274389D01*
X-15436Y274397D01*
X-15407Y274409D01*
X-15375Y274414D01*
X-15294Y274457D01*
X-15210Y274493D01*
X-15178Y274519D01*
X-15157Y274530D01*
X-15144Y274543D01*
X-15143Y274544D01*
X-15132Y274555D01*
X-15079Y274598D01*
X-4434Y285243D01*
X50154Y285243D01*
X72617Y262780D01*
X72617Y253531D01*
X72620Y253511D01*
X72618Y253492D01*
X72640Y253390D01*
X72656Y253288D01*
X72666Y253271D01*
X72670Y253251D01*
X72723Y253162D01*
X72772Y253071D01*
X72786Y253057D01*
X72796Y253040D01*
X72875Y252973D01*
X72950Y252901D01*
X72968Y252893D01*
X72983Y252880D01*
X73079Y252841D01*
X73173Y252798D01*
X73193Y252796D01*
X73211Y252788D01*
X73378Y252770D01*
X79047Y252770D01*
X79940Y251877D01*
X79940Y242304D01*
X79951Y242234D01*
X79953Y242162D01*
X79971Y242113D01*
X79979Y242062D01*
X80013Y241998D01*
X80038Y241931D01*
X80070Y241890D01*
X80095Y241844D01*
X80147Y241795D01*
X80191Y241739D01*
X80235Y241711D01*
X80273Y241675D01*
X80338Y241645D01*
X80398Y241606D01*
X80449Y241593D01*
X80496Y241571D01*
X80567Y241563D01*
X80637Y241546D01*
X80689Y241550D01*
X80740Y241544D01*
X80811Y241559D01*
X80882Y241565D01*
X80930Y241585D01*
X80981Y241596D01*
X81042Y241633D01*
X81108Y241661D01*
X81164Y241706D01*
X81192Y241723D01*
X81207Y241740D01*
X81239Y241766D01*
X81759Y242286D01*
X83667Y244194D01*
X83714Y244259D01*
X83726Y244272D01*
X83729Y244278D01*
X83780Y244338D01*
X83792Y244368D01*
X83811Y244394D01*
X83838Y244481D01*
X83872Y244566D01*
X83876Y244607D01*
X83883Y244629D01*
X83882Y244661D01*
X83890Y244732D01*
X83890Y251877D01*
X84783Y252770D01*
X96047Y252770D01*
X96940Y251877D01*
X96940Y239613D01*
X96047Y238720D01*
X91442Y238720D01*
X91352Y238706D01*
X91261Y238698D01*
X91232Y238686D01*
X91200Y238681D01*
X91119Y238638D01*
X91035Y238602D01*
X91003Y238576D01*
X90982Y238565D01*
X90960Y238542D01*
X90904Y238497D01*
X88226Y235819D01*
X88173Y235745D01*
X88113Y235675D01*
X88101Y235645D01*
X88082Y235619D01*
X88055Y235532D01*
X88021Y235447D01*
X88017Y235406D01*
X88010Y235384D01*
X88011Y235352D01*
X88003Y235281D01*
X88003Y205406D01*
X88006Y205386D01*
X88004Y205367D01*
X88026Y205265D01*
X88042Y205163D01*
X88052Y205146D01*
X88056Y205126D01*
X88109Y205037D01*
X88158Y204946D01*
X88172Y204932D01*
X88182Y204915D01*
X88261Y204848D01*
X88336Y204776D01*
X88354Y204768D01*
X88369Y204755D01*
X88465Y204716D01*
X88559Y204673D01*
X88579Y204671D01*
X88597Y204663D01*
X88764Y204645D01*
X93372Y204645D01*
X94265Y203752D01*
X94265Y192488D01*
X93372Y191595D01*
X81108Y191595D01*
X80215Y192488D01*
X80215Y198363D01*
X80201Y198453D01*
X80193Y198544D01*
X80181Y198573D01*
X80176Y198605D01*
X80133Y198686D01*
X80097Y198770D01*
X80071Y198802D01*
X80060Y198823D01*
X80037Y198845D01*
X79992Y198901D01*
X78857Y200036D01*
X78857Y237959D01*
X78854Y237979D01*
X78856Y237998D01*
X78834Y238100D01*
X78818Y238202D01*
X78808Y238219D01*
X78804Y238239D01*
X78751Y238328D01*
X78702Y238419D01*
X78688Y238433D01*
X78678Y238450D01*
X78599Y238517D01*
X78524Y238589D01*
X78506Y238597D01*
X78491Y238610D01*
X78395Y238649D01*
X78301Y238692D01*
X78281Y238694D01*
X78263Y238702D01*
X78096Y238720D01*
X73378Y238720D01*
X73358Y238717D01*
X73339Y238719D01*
X73237Y238697D01*
X73135Y238681D01*
X73118Y238671D01*
X73098Y238667D01*
X73009Y238614D01*
X72918Y238565D01*
X72904Y238551D01*
X72887Y238541D01*
X72820Y238462D01*
X72748Y238387D01*
X72740Y238369D01*
X72727Y238354D01*
X72688Y238258D01*
X72645Y238164D01*
X72643Y238144D01*
X72635Y238126D01*
X72617Y237959D01*
X72617Y205406D01*
X72620Y205386D01*
X72618Y205367D01*
X72640Y205265D01*
X72656Y205163D01*
X72666Y205146D01*
X72670Y205126D01*
X72723Y205037D01*
X72772Y204946D01*
X72786Y204932D01*
X72796Y204915D01*
X72875Y204848D01*
X72950Y204776D01*
X72968Y204768D01*
X72983Y204755D01*
X73079Y204716D01*
X73173Y204673D01*
X73193Y204671D01*
X73211Y204663D01*
X73378Y204645D01*
X76372Y204645D01*
X77265Y203752D01*
X77265Y192488D01*
X76372Y191595D01*
X74304Y191595D01*
X74284Y191592D01*
X74265Y191594D01*
X74163Y191572D01*
X74061Y191556D01*
X74044Y191546D01*
X74024Y191542D01*
X73935Y191489D01*
X73844Y191440D01*
X73830Y191426D01*
X73813Y191416D01*
X73746Y191337D01*
X73674Y191262D01*
X73666Y191244D01*
X73653Y191229D01*
X73614Y191133D01*
X73571Y191039D01*
X73569Y191019D01*
X73561Y191001D01*
X73543Y190834D01*
X73543Y173741D01*
X73278Y173476D01*
X73225Y173402D01*
X73165Y173332D01*
X73153Y173302D01*
X73134Y173276D01*
X73107Y173189D01*
X73073Y173104D01*
X73069Y173063D01*
X73062Y173041D01*
X73063Y173009D01*
X73055Y172938D01*
X73055Y167719D01*
X73066Y167649D01*
X73068Y167577D01*
X73086Y167528D01*
X73094Y167477D01*
X73128Y167413D01*
X73153Y167346D01*
X73185Y167305D01*
X73210Y167259D01*
X73262Y167210D01*
X73306Y167154D01*
X73350Y167126D01*
X73388Y167090D01*
X73453Y167060D01*
X73513Y167021D01*
X73564Y167008D01*
X73611Y166986D01*
X73682Y166978D01*
X73752Y166961D01*
X73804Y166965D01*
X73855Y166959D01*
X73926Y166974D01*
X73997Y166980D01*
X74045Y167000D01*
X74096Y167011D01*
X74157Y167048D01*
X74223Y167076D01*
X74279Y167121D01*
X74307Y167138D01*
X74322Y167155D01*
X74354Y167181D01*
X76484Y169311D01*
X76537Y169385D01*
X76597Y169455D01*
X76609Y169485D01*
X76628Y169511D01*
X76655Y169598D01*
X76689Y169683D01*
X76693Y169724D01*
X76700Y169746D01*
X76699Y169778D01*
X76707Y169849D01*
X76707Y177188D01*
X76726Y177214D01*
X76753Y177301D01*
X76787Y177386D01*
X76791Y177427D01*
X76798Y177449D01*
X76797Y177481D01*
X76805Y177552D01*
X76805Y185295D01*
X78130Y186620D01*
X84430Y186620D01*
X85755Y185295D01*
X85755Y177552D01*
X85770Y177462D01*
X85777Y177371D01*
X85789Y177342D01*
X85794Y177310D01*
X85837Y177229D01*
X85853Y177192D01*
X85853Y165697D01*
X85834Y165671D01*
X85807Y165584D01*
X85773Y165499D01*
X85769Y165458D01*
X85762Y165436D01*
X85763Y165404D01*
X85755Y165333D01*
X85755Y165195D01*
X84430Y163870D01*
X84292Y163870D01*
X84202Y163856D01*
X84111Y163848D01*
X84082Y163836D01*
X84050Y163831D01*
X83969Y163788D01*
X83885Y163752D01*
X83853Y163726D01*
X83832Y163715D01*
X83810Y163692D01*
X83754Y163647D01*
X73817Y153710D01*
X69596Y153710D01*
X69576Y153707D01*
X69557Y153709D01*
X69455Y153687D01*
X69353Y153671D01*
X69336Y153661D01*
X69316Y153657D01*
X69227Y153604D01*
X69136Y153555D01*
X69122Y153541D01*
X69105Y153531D01*
X69038Y153452D01*
X68966Y153377D01*
X68958Y153359D01*
X68945Y153344D01*
X68906Y153248D01*
X68863Y153154D01*
X68861Y153134D01*
X68853Y153116D01*
X68835Y152949D01*
X68835Y146879D01*
X68849Y146789D01*
X68857Y146698D01*
X68869Y146669D01*
X68874Y146637D01*
X68917Y146556D01*
X68953Y146472D01*
X68979Y146440D01*
X68990Y146419D01*
X69013Y146397D01*
X69058Y146341D01*
X71347Y144052D01*
X71347Y139656D01*
X70110Y138419D01*
X70068Y138361D01*
X70019Y138309D01*
X69997Y138262D01*
X69967Y138220D01*
X69945Y138151D01*
X69915Y138086D01*
X69910Y138034D01*
X69894Y137984D01*
X69896Y137913D01*
X69888Y137842D01*
X69899Y137791D01*
X69901Y137739D01*
X69925Y137671D01*
X69940Y137601D01*
X69967Y137556D01*
X69985Y137508D01*
X70030Y137452D01*
X70067Y137390D01*
X70106Y137356D01*
X70139Y137316D01*
X70199Y137277D01*
X70254Y137230D01*
X70302Y137211D01*
X70346Y137183D01*
X70415Y137165D01*
X70482Y137138D01*
X70553Y137130D01*
X70584Y137122D01*
X70607Y137124D01*
X70648Y137120D01*
X71730Y137120D01*
X73055Y135795D01*
X73055Y115695D01*
X71730Y114370D01*
X65430Y114370D01*
X64105Y115695D01*
X64105Y122189D01*
X64102Y122209D01*
X64104Y122228D01*
X64082Y122330D01*
X64066Y122432D01*
X64056Y122449D01*
X64052Y122469D01*
X63999Y122558D01*
X63950Y122649D01*
X63936Y122663D01*
X63926Y122680D01*
X63847Y122747D01*
X63772Y122819D01*
X63754Y122827D01*
X63739Y122840D01*
X63643Y122879D01*
X63549Y122922D01*
X63529Y122924D01*
X63511Y122932D01*
X63344Y122950D01*
X61116Y122950D01*
X61096Y122947D01*
X61077Y122949D01*
X60975Y122927D01*
X60873Y122911D01*
X60856Y122901D01*
X60836Y122897D01*
X60747Y122844D01*
X60656Y122795D01*
X60642Y122781D01*
X60625Y122771D01*
X60558Y122692D01*
X60486Y122617D01*
X60478Y122599D01*
X60465Y122584D01*
X60426Y122488D01*
X60383Y122394D01*
X60381Y122374D01*
X60373Y122356D01*
X60355Y122189D01*
X60355Y115695D01*
X59030Y114370D01*
X53249Y114370D01*
X53179Y114359D01*
X53107Y114357D01*
X53058Y114339D01*
X53007Y114331D01*
X52943Y114297D01*
X52876Y114272D01*
X52835Y114240D01*
X52789Y114215D01*
X52740Y114163D01*
X52684Y114119D01*
X52656Y114075D01*
X52620Y114037D01*
X52590Y113972D01*
X52551Y113912D01*
X52538Y113861D01*
X52516Y113814D01*
X52508Y113743D01*
X52491Y113673D01*
X52495Y113621D01*
X52489Y113570D01*
X52504Y113499D01*
X52510Y113428D01*
X52530Y113380D01*
X52541Y113329D01*
X52578Y113268D01*
X52606Y113202D01*
X52651Y113146D01*
X52667Y113118D01*
X52685Y113103D01*
X52711Y113071D01*
X53544Y112238D01*
X53618Y112185D01*
X53687Y112125D01*
X53718Y112113D01*
X53744Y112094D01*
X53831Y112067D01*
X53916Y112033D01*
X53957Y112029D01*
X53979Y112022D01*
X54011Y112023D01*
X54082Y112015D01*
X72187Y112015D01*
X72277Y112029D01*
X72368Y112037D01*
X72398Y112049D01*
X72430Y112054D01*
X72510Y112097D01*
X72594Y112133D01*
X72626Y112159D01*
X72647Y112170D01*
X72669Y112193D01*
X72725Y112238D01*
X76582Y116095D01*
X76635Y116169D01*
X76695Y116238D01*
X76707Y116268D01*
X76726Y116294D01*
X76753Y116381D01*
X76787Y116466D01*
X76791Y116507D01*
X76798Y116529D01*
X76797Y116562D01*
X76805Y116633D01*
X76805Y135795D01*
X78130Y137120D01*
X84430Y137120D01*
X85755Y135795D01*
X85755Y115695D01*
X84430Y114370D01*
X83078Y114370D01*
X82988Y114356D01*
X82897Y114348D01*
X82867Y114336D01*
X82835Y114331D01*
X82755Y114288D01*
X82671Y114252D01*
X82639Y114226D01*
X82618Y114215D01*
X82596Y114192D01*
X82540Y114147D01*
X74818Y106425D01*
X55447Y106425D01*
X55376Y106414D01*
X55304Y106412D01*
X55255Y106394D01*
X55204Y106386D01*
X55141Y106352D01*
X55073Y106327D01*
X55033Y106295D01*
X54987Y106270D01*
X54937Y106218D01*
X54881Y106174D01*
X54853Y106130D01*
X54817Y106092D01*
X54787Y106027D01*
X54748Y105967D01*
X54736Y105916D01*
X54714Y105869D01*
X54706Y105798D01*
X54688Y105728D01*
X54692Y105676D01*
X54687Y105625D01*
X54702Y105554D01*
X54707Y105483D01*
X54728Y105435D01*
X54739Y105384D01*
X54776Y105323D01*
X54804Y105257D01*
X54849Y105201D01*
X54865Y105173D01*
X54883Y105158D01*
X54909Y105126D01*
X72943Y87092D01*
X73017Y87039D01*
X73086Y86979D01*
X73116Y86967D01*
X73142Y86948D01*
X73229Y86921D01*
X73314Y86887D01*
X73355Y86883D01*
X73377Y86876D01*
X73410Y86877D01*
X73481Y86869D01*
X103355Y86869D01*
X103472Y86888D01*
X103590Y86906D01*
X103594Y86908D01*
X103598Y86908D01*
X103701Y86963D01*
X103809Y87019D01*
X103812Y87022D01*
X103815Y87024D01*
X103896Y87109D01*
X103980Y87195D01*
X103982Y87199D01*
X103985Y87202D01*
X104035Y87309D01*
X104086Y87417D01*
X104087Y87421D01*
X104088Y87425D01*
X104101Y87542D01*
X104101Y87544D01*
X104460Y88167D01*
X104472Y88197D01*
X104510Y88269D01*
X104744Y88865D01*
X104800Y88909D01*
X104875Y88958D01*
X104896Y88985D01*
X104924Y89006D01*
X105023Y89141D01*
X106124Y91051D01*
X106137Y91083D01*
X106156Y91112D01*
X106180Y91198D01*
X106211Y91281D01*
X106213Y91315D01*
X106222Y91349D01*
X106222Y91428D01*
X106623Y91932D01*
X106639Y91960D01*
X106687Y92026D01*
X107007Y92580D01*
X107069Y92616D01*
X107150Y92652D01*
X107176Y92676D01*
X107206Y92693D01*
X107324Y92812D01*
X108698Y94535D01*
X108715Y94566D01*
X108738Y94591D01*
X108775Y94673D01*
X108818Y94750D01*
X108825Y94784D01*
X108839Y94816D01*
X108850Y94894D01*
X109322Y95332D01*
X109342Y95358D01*
X109399Y95416D01*
X109799Y95917D01*
X109866Y95942D01*
X109951Y95966D01*
X109980Y95986D01*
X110012Y95998D01*
X110147Y96098D01*
X111762Y97598D01*
X111783Y97625D01*
X111810Y97647D01*
X111858Y97722D01*
X111913Y97792D01*
X111924Y97825D01*
X111943Y97854D01*
X111966Y97930D01*
X112498Y98293D01*
X112522Y98315D01*
X112587Y98364D01*
X113056Y98799D01*
X113126Y98815D01*
X113215Y98826D01*
X113246Y98841D01*
X113280Y98848D01*
X113428Y98927D01*
X115249Y100169D01*
X115274Y100193D01*
X115304Y100211D01*
X115362Y100277D01*
X115427Y100339D01*
X115443Y100369D01*
X115466Y100396D01*
X115500Y100467D01*
X116080Y100747D01*
X116107Y100765D01*
X116178Y100804D01*
X116707Y101164D01*
X116779Y101169D01*
X116868Y101167D01*
X116901Y101177D01*
X116936Y101180D01*
X117094Y101235D01*
X119079Y102192D01*
X119108Y102212D01*
X119140Y102225D01*
X119208Y102282D01*
X119281Y102333D01*
X119301Y102361D01*
X119328Y102384D01*
X119372Y102449D01*
X119987Y102639D01*
X120017Y102654D01*
X120093Y102681D01*
X120670Y102959D01*
X120742Y102953D01*
X120829Y102938D01*
X120863Y102943D01*
X120898Y102940D01*
X121063Y102971D01*
X123169Y103622D01*
X123200Y103637D01*
X123234Y103645D01*
X123310Y103692D01*
X123389Y103731D01*
X123413Y103756D01*
X123443Y103774D01*
X123497Y103832D01*
X124133Y103929D01*
X124165Y103939D01*
X124244Y103954D01*
X124856Y104143D01*
X124926Y104126D01*
X125010Y104098D01*
X125045Y104098D01*
X125079Y104090D01*
X125246Y104097D01*
X127426Y104426D01*
X127459Y104437D01*
X127493Y104439D01*
X127575Y104474D01*
X127660Y104501D01*
X127688Y104522D01*
X127720Y104536D01*
X127781Y104585D01*
X128425Y104585D01*
X128458Y104591D01*
X128539Y104594D01*
X129172Y104690D01*
X129238Y104663D01*
X129317Y104622D01*
X129352Y104617D01*
X129384Y104604D01*
X129551Y104586D01*
X131755Y104587D01*
X131789Y104592D01*
X131824Y104590D01*
X131910Y104612D01*
X131997Y104626D01*
X132028Y104643D01*
X132062Y104651D01*
X132130Y104691D01*
X132767Y104595D01*
X132800Y104596D01*
X132880Y104587D01*
X133521Y104587D01*
X133583Y104551D01*
X133655Y104499D01*
X133688Y104489D01*
X133718Y104471D01*
X133880Y104428D01*
X136060Y104100D01*
X136094Y104101D01*
X136128Y104093D01*
X136217Y104102D01*
X136305Y104103D01*
X136338Y104115D01*
X136373Y104118D01*
X136447Y104148D01*
X137062Y103958D01*
X137094Y103954D01*
X137172Y103933D01*
X137806Y103838D01*
X137862Y103792D01*
X137925Y103730D01*
X137956Y103715D01*
X137983Y103693D01*
X138137Y103627D01*
X140244Y102978D01*
X140278Y102973D01*
X140310Y102960D01*
X140399Y102956D01*
X140487Y102944D01*
X140521Y102951D01*
X140556Y102949D01*
X140633Y102967D01*
X141213Y102688D01*
X141245Y102678D01*
X141319Y102646D01*
X141931Y102458D01*
X141980Y102405D01*
X142033Y102334D01*
X142062Y102314D01*
X142085Y102289D01*
X142228Y102200D01*
X142740Y101953D01*
X142849Y101921D01*
X142959Y101886D01*
X142968Y101886D01*
X142976Y101884D01*
X143091Y101888D01*
X143205Y101890D01*
X143213Y101893D01*
X143222Y101893D01*
X143329Y101934D01*
X143437Y101972D01*
X143444Y101977D01*
X143452Y101980D01*
X143541Y102053D01*
X143630Y102123D01*
X143637Y102132D01*
X143642Y102136D01*
X143655Y102156D01*
X143730Y102258D01*
X162541Y134841D01*
X164178Y133711D01*
X164205Y133700D01*
X164227Y133681D01*
X164296Y133661D01*
X164361Y133633D01*
X164390Y133633D01*
X164418Y133625D01*
X164489Y133633D01*
X164560Y133633D01*
X164587Y133644D01*
X164616Y133647D01*
X164678Y133682D01*
X164743Y133710D01*
X164764Y133730D01*
X164789Y133745D01*
X164852Y133822D01*
X164882Y133852D01*
X164886Y133862D01*
X164895Y133873D01*
X174395Y150373D01*
X174405Y150405D01*
X174414Y150418D01*
X174418Y150442D01*
X174419Y150446D01*
X174450Y150516D01*
X174450Y150540D01*
X174458Y150562D01*
X174452Y150638D01*
X174453Y150715D01*
X174443Y150739D01*
X174442Y150760D01*
X174421Y150799D01*
X174395Y150871D01*
X164895Y167371D01*
X164876Y167393D01*
X164863Y167419D01*
X164810Y167467D01*
X164763Y167520D01*
X164737Y167533D01*
X164716Y167552D01*
X164648Y167575D01*
X164584Y167606D01*
X164555Y167608D01*
X164528Y167617D01*
X164456Y167612D01*
X164385Y167615D01*
X164358Y167605D01*
X164329Y167603D01*
X164239Y167561D01*
X164199Y167546D01*
X164191Y167539D01*
X164178Y167533D01*
X162541Y166403D01*
X143730Y198986D01*
X143657Y199075D01*
X143587Y199164D01*
X143580Y199169D01*
X143574Y199176D01*
X143476Y199237D01*
X143382Y199300D01*
X143373Y199302D01*
X143366Y199307D01*
X143254Y199334D01*
X143144Y199363D01*
X143135Y199362D01*
X143127Y199364D01*
X143013Y199354D01*
X142899Y199347D01*
X142889Y199343D01*
X142882Y199343D01*
X142860Y199333D01*
X142740Y199291D01*
X142228Y199044D01*
X142199Y199024D01*
X142167Y199012D01*
X142099Y198954D01*
X142026Y198903D01*
X142006Y198875D01*
X141979Y198853D01*
X141934Y198787D01*
X141319Y198598D01*
X141290Y198583D01*
X141213Y198556D01*
X140636Y198279D01*
X140565Y198285D01*
X140477Y198300D01*
X140443Y198295D01*
X140409Y198298D01*
X140244Y198266D01*
X138137Y197617D01*
X138106Y197602D01*
X138072Y197594D01*
X137997Y197548D01*
X137917Y197508D01*
X137892Y197483D01*
X137863Y197465D01*
X137809Y197407D01*
X137173Y197311D01*
X137141Y197301D01*
X137062Y197286D01*
X136450Y197097D01*
X136380Y197114D01*
X136296Y197142D01*
X136261Y197142D01*
X136227Y197150D01*
X136060Y197144D01*
X133880Y196816D01*
X133847Y196805D01*
X133812Y196803D01*
X133730Y196768D01*
X133646Y196741D01*
X133618Y196720D01*
X133586Y196706D01*
X133524Y196657D01*
X132880Y196657D01*
X132848Y196652D01*
X132767Y196649D01*
X132134Y196553D01*
X132067Y196580D01*
X131988Y196621D01*
X131954Y196626D01*
X131921Y196639D01*
X131755Y196657D01*
X129551Y196658D01*
X129516Y196653D01*
X129482Y196655D01*
X129396Y196633D01*
X129308Y196619D01*
X129277Y196602D01*
X129244Y196594D01*
X129175Y196554D01*
X128539Y196650D01*
X128506Y196650D01*
X128425Y196659D01*
X127785Y196659D01*
X127723Y196695D01*
X127651Y196747D01*
X127618Y196757D01*
X127588Y196775D01*
X127426Y196818D01*
X125246Y197147D01*
X125211Y197147D01*
X125178Y197155D01*
X125089Y197145D01*
X125000Y197144D01*
X124968Y197133D01*
X124933Y197129D01*
X124859Y197100D01*
X124244Y197290D01*
X124212Y197295D01*
X124133Y197315D01*
X123500Y197411D01*
X123445Y197456D01*
X123381Y197518D01*
X123350Y197533D01*
X123323Y197555D01*
X123169Y197622D01*
X121063Y198273D01*
X121028Y198277D01*
X120996Y198290D01*
X120907Y198294D01*
X120819Y198306D01*
X120785Y198300D01*
X120750Y198301D01*
X120673Y198284D01*
X120093Y198563D01*
X120062Y198572D01*
X119987Y198605D01*
X119375Y198794D01*
X119327Y198847D01*
X119273Y198918D01*
X119245Y198937D01*
X119221Y198963D01*
X119079Y199052D01*
X117094Y200009D01*
X117061Y200019D01*
X117030Y200036D01*
X116943Y200053D01*
X116858Y200078D01*
X116823Y200077D01*
X116789Y200084D01*
X116710Y200078D01*
X116178Y200440D01*
X116148Y200454D01*
X116080Y200497D01*
X115503Y200775D01*
X115463Y200835D01*
X115421Y200913D01*
X115395Y200937D01*
X115376Y200966D01*
X115249Y201075D01*
X113428Y202317D01*
X113396Y202332D01*
X113369Y202353D01*
X113286Y202383D01*
X113205Y202421D01*
X113170Y202425D01*
X113138Y202437D01*
X113059Y202442D01*
X112587Y202880D01*
X112560Y202899D01*
X112498Y202951D01*
X111969Y203312D01*
X111939Y203377D01*
X111908Y203461D01*
X111887Y203488D01*
X111872Y203519D01*
X111762Y203646D01*
X110147Y205146D01*
X110118Y205165D01*
X110094Y205190D01*
X110016Y205233D01*
X109942Y205282D01*
X109909Y205291D01*
X109878Y205307D01*
X109801Y205325D01*
X109399Y205828D01*
X109375Y205851D01*
X109322Y205912D01*
X108853Y206347D01*
X108832Y206416D01*
X108815Y206503D01*
X108797Y206533D01*
X108787Y206567D01*
X108698Y206709D01*
X107324Y208432D01*
X107299Y208455D01*
X107279Y208484D01*
X107208Y208538D01*
X107142Y208597D01*
X107110Y208611D01*
X107082Y208632D01*
X107008Y208661D01*
X106687Y209218D01*
X106666Y209244D01*
X106623Y209312D01*
X106224Y209813D01*
X106214Y209884D01*
X106209Y209973D01*
X106197Y210005D01*
X106192Y210040D01*
X106124Y210193D01*
X105422Y211411D01*
X105347Y211503D01*
X105272Y211596D01*
X105269Y211598D01*
X105266Y211601D01*
X105166Y211664D01*
X105065Y211729D01*
X105061Y211730D01*
X105058Y211732D01*
X104943Y211760D01*
X104827Y211789D01*
X104823Y211788D01*
X104819Y211789D01*
X104700Y211779D01*
X104582Y211770D01*
X104578Y211768D01*
X104574Y211768D01*
X104464Y211720D01*
X104355Y211673D01*
X104352Y211670D01*
X104349Y211669D01*
X104338Y211660D01*
X104224Y211569D01*
X101817Y209161D01*
X97421Y209161D01*
X94312Y212270D01*
X94312Y216666D01*
X97421Y219775D01*
X100658Y219775D01*
X100748Y219789D01*
X100839Y219796D01*
X100869Y219809D01*
X100901Y219814D01*
X100981Y219857D01*
X101065Y219893D01*
X101098Y219919D01*
X101118Y219929D01*
X101140Y219953D01*
X101196Y219998D01*
X101732Y220533D01*
X101802Y220631D01*
X101872Y220726D01*
X101873Y220730D01*
X101875Y220733D01*
X101910Y220846D01*
X101947Y220960D01*
X101947Y220965D01*
X101948Y220968D01*
X101947Y220981D01*
X101953Y221128D01*
X101944Y221245D01*
X101936Y221277D01*
X101927Y221358D01*
X101785Y221982D01*
X101806Y222050D01*
X101841Y222132D01*
X101844Y222167D01*
X101854Y222200D01*
X101860Y222368D01*
X101696Y224566D01*
X101688Y224599D01*
X101688Y224634D01*
X101659Y224719D01*
X101638Y224805D01*
X101620Y224834D01*
X101609Y224867D01*
X101564Y224933D01*
X101612Y225574D01*
X101609Y225607D01*
X101612Y225688D01*
X101565Y226327D01*
X101596Y226391D01*
X101643Y226467D01*
X101651Y226501D01*
X101666Y226532D01*
X101697Y226697D01*
X101862Y228895D01*
X101859Y228929D01*
X101864Y228964D01*
X101849Y229051D01*
X101841Y229140D01*
X101827Y229172D01*
X101821Y229206D01*
X101786Y229277D01*
X101930Y229905D01*
X101932Y229938D01*
X101947Y230017D01*
X101995Y230656D01*
X102036Y230714D01*
X102093Y230783D01*
X102106Y230815D01*
X102125Y230843D01*
X102181Y231002D01*
X102672Y233151D01*
X102674Y233185D01*
X102684Y233218D01*
X102681Y233307D01*
X102687Y233396D01*
X102678Y233430D01*
X102677Y233464D01*
X102654Y233540D01*
X102889Y234139D01*
X102896Y234171D01*
X102922Y234248D01*
X103065Y234872D01*
X103114Y234924D01*
X103181Y234983D01*
X103198Y235013D01*
X103222Y235038D01*
X103300Y235187D01*
X104106Y237238D01*
X104114Y237272D01*
X104129Y237303D01*
X104139Y237392D01*
X104158Y237479D01*
X104154Y237513D01*
X104158Y237548D01*
X104147Y237626D01*
X104469Y238183D01*
X104480Y238214D01*
X104518Y238286D01*
X104752Y238882D01*
X104809Y238926D01*
X104883Y238974D01*
X104905Y239001D01*
X104932Y239023D01*
X105032Y239158D01*
X106134Y241066D01*
X106147Y241099D01*
X106166Y241128D01*
X106190Y241213D01*
X106221Y241296D01*
X106223Y241331D01*
X106232Y241365D01*
X106232Y241444D01*
X106633Y241947D01*
X106646Y241970D01*
X106663Y241988D01*
X106672Y242006D01*
X106697Y242041D01*
X107018Y242595D01*
X107080Y242631D01*
X107161Y242667D01*
X107187Y242691D01*
X107217Y242708D01*
X107335Y242827D01*
X108710Y244550D01*
X108727Y244580D01*
X108751Y244605D01*
X108787Y244686D01*
X108830Y244764D01*
X108837Y244798D01*
X108851Y244830D01*
X108863Y244908D01*
X109335Y245346D01*
X109355Y245372D01*
X109412Y245429D01*
X109812Y245930D01*
X109878Y245955D01*
X109964Y245979D01*
X109993Y245999D01*
X110025Y246011D01*
X110160Y246111D01*
X111776Y247610D01*
X111797Y247637D01*
X111825Y247659D01*
X111873Y247734D01*
X111927Y247804D01*
X111939Y247837D01*
X111957Y247866D01*
X111981Y247942D01*
X112513Y248304D01*
X112537Y248327D01*
X112602Y248375D01*
X113071Y248811D01*
X113141Y248826D01*
X113230Y248837D01*
X113261Y248852D01*
X113295Y248859D01*
X113443Y248938D01*
X113898Y249248D01*
X113981Y249327D01*
X114066Y249404D01*
X114070Y249412D01*
X114076Y249418D01*
X114130Y249519D01*
X114185Y249619D01*
X114187Y249627D01*
X114191Y249635D01*
X114210Y249748D01*
X114230Y249861D01*
X114229Y249869D01*
X114231Y249878D01*
X114212Y249991D01*
X114196Y250104D01*
X114192Y250114D01*
X114191Y250121D01*
X114180Y250141D01*
X114129Y250258D01*
X95318Y282839D01*
X97076Y283671D01*
X97098Y283688D01*
X97125Y283698D01*
X97177Y283747D01*
X97235Y283790D01*
X97249Y283815D01*
X97270Y283834D01*
X97299Y283900D01*
X97335Y283962D01*
X97338Y283990D01*
X97350Y284016D01*
X97351Y284088D01*
X97360Y284159D01*
X97352Y284186D01*
X97353Y284215D01*
X97317Y284310D01*
X97306Y284350D01*
X97299Y284359D01*
X97295Y284371D01*
X87795Y300871D01*
X87743Y300930D01*
X87697Y300992D01*
X87678Y301003D01*
X87663Y301020D01*
X87593Y301054D01*
X87526Y301094D01*
X87502Y301098D01*
X87484Y301106D01*
X87439Y301108D01*
X87362Y301121D01*
X68362Y301121D01*
X68334Y301116D01*
X68306Y301118D01*
X68238Y301096D01*
X68167Y301082D01*
X68144Y301066D01*
X68117Y301057D01*
X68062Y301010D01*
X68003Y300969D01*
X67988Y300945D01*
X67967Y300927D01*
X67935Y300862D01*
X67896Y300802D01*
X67891Y300774D01*
X67879Y300748D01*
X67870Y300647D01*
X67863Y300605D01*
X67865Y300595D01*
X67864Y300582D01*
X68020Y298621D01*
X-66496Y298621D01*
X-66340Y300582D01*
X-66344Y300611D01*
X-66339Y300639D01*
X-66356Y300708D01*
X-66364Y300780D01*
X-66379Y300804D01*
X-66385Y300832D01*
X-66428Y300890D01*
X-66464Y300952D01*
X-66486Y300969D01*
X-66503Y300992D01*
X-66565Y301029D01*
X-66622Y301072D01*
X-66650Y301079D01*
X-66674Y301094D01*
X-66774Y301110D01*
X-66815Y301121D01*
X-66825Y301119D01*
X-66838Y301121D01*
X-85838Y301121D01*
X-85914Y301106D01*
X-85992Y301097D01*
X-86011Y301086D01*
X-86033Y301082D01*
X-86097Y301038D01*
X-86165Y300999D01*
X-86181Y300980D01*
X-86197Y300969D01*
X-86221Y300931D01*
X-86271Y300871D01*
X-95771Y284371D01*
X-95780Y284344D01*
X-95796Y284320D01*
X-95811Y284250D01*
X-95834Y284182D01*
X-95831Y284154D01*
X-95837Y284126D01*
X-95824Y284056D01*
X-95818Y283984D01*
X-95805Y283959D01*
X-95799Y283931D01*
X-95759Y283871D01*
X-95726Y283808D01*
X-95704Y283790D01*
X-95688Y283766D01*
X-95605Y283708D01*
X-95573Y283681D01*
X-95562Y283678D01*
X-95552Y283671D01*
X-93794Y282839D01*
X-112605Y250258D01*
X-112645Y250151D01*
X-112688Y250045D01*
X-112689Y250036D01*
X-112692Y250028D01*
X-112696Y249914D01*
X-112703Y249799D01*
X-112700Y249791D01*
X-112701Y249782D01*
X-112668Y249672D01*
X-112638Y249562D01*
X-112633Y249555D01*
X-112631Y249546D01*
X-112565Y249452D01*
X-112501Y249357D01*
X-112493Y249351D01*
X-112489Y249345D01*
X-112471Y249331D01*
X-112374Y249248D01*
X-111919Y248938D01*
X-111887Y248923D01*
X-111860Y248902D01*
X-111776Y248872D01*
X-111696Y248834D01*
X-111661Y248830D01*
X-111629Y248819D01*
X-111550Y248813D01*
X-111078Y248375D01*
X-111050Y248357D01*
X-110989Y248304D01*
X-110459Y247944D01*
X-110429Y247879D01*
X-110398Y247795D01*
X-110377Y247768D01*
X-110362Y247737D01*
X-110252Y247610D01*
X-108636Y246111D01*
X-108607Y246092D01*
X-108583Y246067D01*
X-108505Y246024D01*
X-108431Y245975D01*
X-108398Y245966D01*
X-108367Y245950D01*
X-108290Y245932D01*
X-107888Y245429D01*
X-107864Y245407D01*
X-107811Y245346D01*
X-107341Y244911D01*
X-107321Y244842D01*
X-107303Y244755D01*
X-107286Y244725D01*
X-107276Y244691D01*
X-107186Y244550D01*
X-105811Y242827D01*
X-105786Y242803D01*
X-105766Y242775D01*
X-105695Y242721D01*
X-105629Y242662D01*
X-105597Y242648D01*
X-105569Y242627D01*
X-105495Y242598D01*
X-105173Y242041D01*
X-105152Y242015D01*
X-105109Y241947D01*
X-104710Y241446D01*
X-104700Y241376D01*
X-104695Y241287D01*
X-104683Y241254D01*
X-104678Y241220D01*
X-104610Y241066D01*
X-103508Y239158D01*
X-103486Y239131D01*
X-103470Y239100D01*
X-103408Y239037D01*
X-103352Y238968D01*
X-103322Y238949D01*
X-103298Y238924D01*
X-103229Y238885D01*
X-102994Y238286D01*
X-102977Y238257D01*
X-102945Y238183D01*
X-102624Y237629D01*
X-102625Y237557D01*
X-102634Y237469D01*
X-102626Y237435D01*
X-102626Y237400D01*
X-102582Y237238D01*
X-101776Y235187D01*
X-101759Y235157D01*
X-101748Y235124D01*
X-101696Y235052D01*
X-101651Y234975D01*
X-101624Y234953D01*
X-101604Y234925D01*
X-101542Y234875D01*
X-101398Y234248D01*
X-101386Y234217D01*
X-101365Y234139D01*
X-101131Y233543D01*
X-101142Y233472D01*
X-101164Y233386D01*
X-101161Y233351D01*
X-101167Y233317D01*
X-101148Y233151D01*
X-100657Y231002D01*
X-100643Y230970D01*
X-100638Y230935D01*
X-100597Y230856D01*
X-100564Y230774D01*
X-100541Y230748D01*
X-100525Y230717D01*
X-100471Y230659D01*
X-100423Y230017D01*
X-100415Y229985D01*
X-100406Y229905D01*
X-100263Y229280D01*
X-100285Y229212D01*
X-100319Y229130D01*
X-100322Y229095D01*
X-100332Y229062D01*
X-100338Y228895D01*
X-100173Y226697D01*
X-100165Y226663D01*
X-100165Y226628D01*
X-100136Y226544D01*
X-100115Y226458D01*
X-100096Y226428D01*
X-100085Y226396D01*
X-100040Y226330D01*
X-100088Y225688D01*
X-100085Y225655D01*
X-100086Y225633D01*
X-100087Y225630D01*
X-100086Y225628D01*
X-100088Y225574D01*
X-100040Y224936D01*
X-100072Y224871D01*
X-100118Y224796D01*
X-100126Y224762D01*
X-100141Y224731D01*
X-100172Y224566D01*
X-100336Y222368D01*
X-100333Y222333D01*
X-100338Y222299D01*
X-100322Y222211D01*
X-100315Y222123D01*
X-100301Y222091D01*
X-100295Y222057D01*
X-100260Y221985D01*
X-100403Y221358D01*
X-100405Y221325D01*
X-100420Y221245D01*
X-100468Y220607D01*
X-100508Y220548D01*
X-100566Y220480D01*
X-100578Y220447D01*
X-100598Y220419D01*
X-100653Y220260D01*
X-101143Y218111D01*
X-101145Y218077D01*
X-101155Y218044D01*
X-101153Y217955D01*
X-101158Y217866D01*
X-101149Y217832D01*
X-101148Y217798D01*
X-101124Y217722D01*
X-101359Y217123D01*
X-101366Y217090D01*
X-101393Y217014D01*
X-101535Y216390D01*
X-101584Y216338D01*
X-101651Y216279D01*
X-101668Y216249D01*
X-101692Y216223D01*
X-101770Y216075D01*
X-102575Y214023D01*
X-102582Y213989D01*
X-102597Y213958D01*
X-102608Y213869D01*
X-102627Y213782D01*
X-102623Y213748D01*
X-102627Y213714D01*
X-102615Y213635D01*
X-102936Y213077D01*
X-102948Y213047D01*
X-102986Y212975D01*
X-103220Y212379D01*
X-103276Y212335D01*
X-103351Y212286D01*
X-103372Y212259D01*
X-103400Y212238D01*
X-103499Y212103D01*
X-104600Y210193D01*
X-104613Y210161D01*
X-104632Y210132D01*
X-104656Y210046D01*
X-104687Y209963D01*
X-104689Y209929D01*
X-104698Y209895D01*
X-104698Y209816D01*
X-105099Y209312D01*
X-105115Y209284D01*
X-105163Y209218D01*
X-105483Y208664D01*
X-105545Y208628D01*
X-105626Y208592D01*
X-105652Y208568D01*
X-105682Y208551D01*
X-105800Y208432D01*
X-107174Y206709D01*
X-107191Y206678D01*
X-107214Y206653D01*
X-107251Y206571D01*
X-107294Y206494D01*
X-107301Y206460D01*
X-107315Y206428D01*
X-107326Y206350D01*
X-107798Y205912D01*
X-107818Y205886D01*
X-107875Y205828D01*
X-108275Y205327D01*
X-108342Y205302D01*
X-108427Y205278D01*
X-108456Y205258D01*
X-108488Y205246D01*
X-108623Y205146D01*
X-110238Y203646D01*
X-110260Y203619D01*
X-110287Y203597D01*
X-110334Y203522D01*
X-110389Y203452D01*
X-110401Y203419D01*
X-110419Y203390D01*
X-110442Y203314D01*
X-110974Y202951D01*
X-110998Y202929D01*
X-111063Y202880D01*
X-111532Y202445D01*
X-111602Y202429D01*
X-111691Y202418D01*
X-111722Y202403D01*
X-111756Y202396D01*
X-111904Y202317D01*
X-113725Y201075D01*
X-113750Y201051D01*
X-113780Y201033D01*
X-113838Y200967D01*
X-113903Y200905D01*
X-113919Y200875D01*
X-113942Y200848D01*
X-113976Y200777D01*
X-114556Y200497D01*
X-114583Y200479D01*
X-114654Y200440D01*
X-115183Y200080D01*
X-115255Y200075D01*
X-115344Y200077D01*
X-115377Y200067D01*
X-115412Y200064D01*
X-115570Y200009D01*
X-117555Y199052D01*
X-117584Y199032D01*
X-117616Y199019D01*
X-117684Y198962D01*
X-117757Y198911D01*
X-117777Y198883D01*
X-117804Y198860D01*
X-117848Y198795D01*
X-118463Y198605D01*
X-118493Y198590D01*
X-118569Y198563D01*
X-119146Y198285D01*
X-119218Y198291D01*
X-119305Y198306D01*
X-119339Y198301D01*
X-119374Y198304D01*
X-119539Y198273D01*
X-121450Y197682D01*
X-121523Y197646D01*
X-121599Y197618D01*
X-121632Y197592D01*
X-121671Y197573D01*
X-121728Y197515D01*
X-121791Y197465D01*
X-121814Y197429D01*
X-121844Y197399D01*
X-121880Y197326D01*
X-121924Y197258D01*
X-121935Y197216D01*
X-121954Y197178D01*
X-121964Y197098D01*
X-121984Y197019D01*
X-121981Y196977D01*
X-121987Y196934D01*
X-121971Y196855D01*
X-121965Y196774D01*
X-121949Y196735D01*
X-121940Y196693D01*
X-121901Y196622D01*
X-121869Y196548D01*
X-121834Y196504D01*
X-121820Y196479D01*
X-121798Y196460D01*
X-121764Y196417D01*
X-120423Y195076D01*
X-120423Y190680D01*
X-123532Y187571D01*
X-127928Y187571D01*
X-131037Y190680D01*
X-131037Y195076D01*
X-130763Y195349D01*
X-130754Y195362D01*
X-130742Y195371D01*
X-130683Y195461D01*
X-130620Y195549D01*
X-130615Y195564D01*
X-130607Y195576D01*
X-130579Y195680D01*
X-130547Y195784D01*
X-130548Y195799D01*
X-130544Y195814D01*
X-130551Y195922D01*
X-130554Y196030D01*
X-130559Y196044D01*
X-130560Y196059D01*
X-130601Y196159D01*
X-130638Y196261D01*
X-130647Y196273D01*
X-130653Y196287D01*
X-130724Y196368D01*
X-130792Y196453D01*
X-130804Y196461D01*
X-130814Y196473D01*
X-130908Y196528D01*
X-130999Y196586D01*
X-131013Y196590D01*
X-131026Y196597D01*
X-131188Y196640D01*
X-131243Y196649D01*
X-131276Y196648D01*
X-131356Y196657D01*
X-131997Y196657D01*
X-132059Y196693D01*
X-132131Y196745D01*
X-132164Y196755D01*
X-132194Y196773D01*
X-132356Y196816D01*
X-134536Y197144D01*
X-134570Y197143D01*
X-134604Y197151D01*
X-134692Y197142D01*
X-134781Y197141D01*
X-134814Y197129D01*
X-134849Y197126D01*
X-134923Y197096D01*
X-135538Y197286D01*
X-135570Y197290D01*
X-135649Y197311D01*
X-136282Y197406D01*
X-136338Y197452D01*
X-136401Y197514D01*
X-136432Y197529D01*
X-136459Y197551D01*
X-136613Y197617D01*
X-138720Y198266D01*
X-138754Y198271D01*
X-138786Y198284D01*
X-138875Y198288D01*
X-138963Y198300D01*
X-138997Y198293D01*
X-139032Y198295D01*
X-139109Y198277D01*
X-139689Y198556D01*
X-139721Y198566D01*
X-139795Y198598D01*
X-140407Y198786D01*
X-140456Y198839D01*
X-140509Y198910D01*
X-140538Y198930D01*
X-140561Y198955D01*
X-140704Y199044D01*
X-141216Y199291D01*
X-141325Y199323D01*
X-141435Y199358D01*
X-141444Y199358D01*
X-141452Y199360D01*
X-141567Y199356D01*
X-141681Y199354D01*
X-141689Y199351D01*
X-141698Y199351D01*
X-141805Y199310D01*
X-141913Y199272D01*
X-141920Y199267D01*
X-141928Y199264D01*
X-142017Y199191D01*
X-142106Y199121D01*
X-142113Y199112D01*
X-142118Y199108D01*
X-142131Y199088D01*
X-142206Y198986D01*
X-161017Y166403D01*
X-162654Y167533D01*
X-162681Y167544D01*
X-162703Y167563D01*
X-162772Y167583D01*
X-162837Y167611D01*
X-162866Y167611D01*
X-162894Y167619D01*
X-162965Y167611D01*
X-163036Y167612D01*
X-163063Y167600D01*
X-163092Y167597D01*
X-163154Y167562D01*
X-163219Y167534D01*
X-163240Y167514D01*
X-163265Y167499D01*
X-163328Y167422D01*
X-163358Y167392D01*
X-163362Y167382D01*
X-163371Y167371D01*
X-172871Y150871D01*
X-172895Y150798D01*
X-172926Y150728D01*
X-172926Y150704D01*
X-172934Y150682D01*
X-172928Y150606D01*
X-172929Y150529D01*
X-172919Y150505D01*
X-172918Y150484D01*
X-172897Y150445D01*
X-172878Y150393D01*
X-172877Y150387D01*
X-172875Y150385D01*
X-172871Y150373D01*
X-163371Y133873D01*
X-163352Y133851D01*
X-163339Y133825D01*
X-163286Y133777D01*
X-163239Y133724D01*
X-163213Y133711D01*
X-163192Y133692D01*
X-163124Y133669D01*
X-163060Y133638D01*
X-163031Y133637D01*
X-163004Y133627D01*
X-162932Y133632D01*
X-162861Y133629D01*
X-162834Y133639D01*
X-162805Y133641D01*
X-162715Y133683D01*
X-162675Y133698D01*
X-162667Y133705D01*
X-162654Y133711D01*
X-161017Y134841D01*
X-142206Y102258D01*
X-142133Y102169D01*
X-142063Y102080D01*
X-142056Y102075D01*
X-142050Y102068D01*
X-141953Y102007D01*
X-141858Y101944D01*
X-141849Y101942D01*
X-141842Y101937D01*
X-141730Y101910D01*
X-141620Y101881D01*
X-141611Y101882D01*
X-141603Y101880D01*
X-141489Y101890D01*
X-141375Y101897D01*
X-141365Y101901D01*
X-141358Y101902D01*
X-141336Y101911D01*
X-141216Y101953D01*
X-140704Y102200D01*
X-140675Y102220D01*
X-140643Y102232D01*
X-140575Y102290D01*
X-140502Y102341D01*
X-140482Y102369D01*
X-140455Y102391D01*
X-140410Y102457D01*
X-139795Y102646D01*
X-139766Y102661D01*
X-139689Y102688D01*
X-139112Y102965D01*
X-139041Y102959D01*
X-138953Y102944D01*
X-138919Y102949D01*
X-138885Y102946D01*
X-138720Y102978D01*
X-136613Y103627D01*
X-136582Y103642D01*
X-136548Y103650D01*
X-136473Y103696D01*
X-136393Y103736D01*
X-136368Y103761D01*
X-136339Y103779D01*
X-136285Y103837D01*
X-135649Y103933D01*
X-135617Y103943D01*
X-135538Y103958D01*
X-134926Y104147D01*
X-134856Y104130D01*
X-134772Y104102D01*
X-134737Y104102D01*
X-134703Y104094D01*
X-134536Y104100D01*
X-132356Y104428D01*
X-132323Y104439D01*
X-132288Y104441D01*
X-132206Y104476D01*
X-132122Y104503D01*
X-132094Y104524D01*
X-132062Y104538D01*
X-132000Y104587D01*
X-131356Y104587D01*
X-131324Y104592D01*
X-131243Y104595D01*
X-130610Y104691D01*
X-130543Y104664D01*
X-130464Y104623D01*
X-130430Y104618D01*
X-130397Y104605D01*
X-130231Y104587D01*
X-128027Y104586D01*
X-127992Y104591D01*
X-127958Y104589D01*
X-127872Y104611D01*
X-127784Y104625D01*
X-127753Y104642D01*
X-127720Y104650D01*
X-127651Y104690D01*
X-127015Y104594D01*
X-126982Y104594D01*
X-126901Y104585D01*
X-126261Y104585D01*
X-126199Y104549D01*
X-126127Y104497D01*
X-126094Y104487D01*
X-126064Y104469D01*
X-125902Y104426D01*
X-123722Y104097D01*
X-123687Y104097D01*
X-123654Y104089D01*
X-123565Y104099D01*
X-123476Y104100D01*
X-123444Y104111D01*
X-123409Y104115D01*
X-123335Y104144D01*
X-122720Y103954D01*
X-122688Y103949D01*
X-122609Y103929D01*
X-121976Y103833D01*
X-121921Y103788D01*
X-121857Y103726D01*
X-121826Y103711D01*
X-121799Y103689D01*
X-121645Y103622D01*
X-119539Y102971D01*
X-119504Y102967D01*
X-119472Y102954D01*
X-119383Y102950D01*
X-119295Y102938D01*
X-119261Y102944D01*
X-119226Y102943D01*
X-119149Y102960D01*
X-118569Y102681D01*
X-118538Y102672D01*
X-118463Y102639D01*
X-117851Y102450D01*
X-117803Y102397D01*
X-117749Y102326D01*
X-117721Y102307D01*
X-117697Y102281D01*
X-117555Y102192D01*
X-115570Y101235D01*
X-115537Y101225D01*
X-115506Y101208D01*
X-115419Y101191D01*
X-115334Y101166D01*
X-115299Y101167D01*
X-115265Y101160D01*
X-115186Y101166D01*
X-114654Y100804D01*
X-114624Y100790D01*
X-114556Y100747D01*
X-113979Y100469D01*
X-113939Y100409D01*
X-113897Y100331D01*
X-113871Y100307D01*
X-113852Y100278D01*
X-113725Y100169D01*
X-111904Y98927D01*
X-111872Y98912D01*
X-111845Y98891D01*
X-111762Y98861D01*
X-111681Y98823D01*
X-111646Y98819D01*
X-111614Y98807D01*
X-111535Y98802D01*
X-111063Y98364D01*
X-111036Y98345D01*
X-110974Y98293D01*
X-110445Y97932D01*
X-110415Y97867D01*
X-110384Y97783D01*
X-110363Y97756D01*
X-110348Y97725D01*
X-110238Y97598D01*
X-108623Y96098D01*
X-108594Y96079D01*
X-108570Y96054D01*
X-108492Y96011D01*
X-108418Y95962D01*
X-108385Y95953D01*
X-108354Y95937D01*
X-108277Y95919D01*
X-107875Y95416D01*
X-107851Y95393D01*
X-107798Y95332D01*
X-107329Y94897D01*
X-107308Y94828D01*
X-107291Y94741D01*
X-107273Y94711D01*
X-107263Y94677D01*
X-107174Y94535D01*
X-105800Y92812D01*
X-105775Y92789D01*
X-105755Y92760D01*
X-105684Y92706D01*
X-105618Y92647D01*
X-105586Y92633D01*
X-105558Y92612D01*
X-105484Y92583D01*
X-105163Y92026D01*
X-105142Y92000D01*
X-105099Y91932D01*
X-104700Y91431D01*
X-104690Y91360D01*
X-104685Y91271D01*
X-104673Y91239D01*
X-104668Y91204D01*
X-104600Y91051D01*
X-103499Y89141D01*
X-103477Y89115D01*
X-103462Y89083D01*
X-103399Y89020D01*
X-103343Y88951D01*
X-103314Y88933D01*
X-103290Y88908D01*
X-103221Y88868D01*
X-102986Y88269D01*
X-102969Y88241D01*
X-102936Y88167D01*
X-102616Y87612D01*
X-102617Y87540D01*
X-102626Y87452D01*
X-102618Y87418D01*
X-102619Y87383D01*
X-102575Y87221D01*
X-101770Y85169D01*
X-101753Y85139D01*
X-101742Y85106D01*
X-101690Y85034D01*
X-101645Y84958D01*
X-101618Y84935D01*
X-101598Y84907D01*
X-101536Y84858D01*
X-101393Y84230D01*
X-101381Y84199D01*
X-101359Y84121D01*
X-101126Y83525D01*
X-101128Y83520D01*
X-101131Y83491D01*
X-101137Y83454D01*
X-101159Y83368D01*
X-101156Y83334D01*
X-101162Y83299D01*
X-101143Y83133D01*
X-100914Y82127D01*
X-100892Y82073D01*
X-100879Y82016D01*
X-100846Y81960D01*
X-100821Y81899D01*
X-100783Y81855D01*
X-100753Y81805D01*
X-100703Y81762D01*
X-100660Y81713D01*
X-100611Y81683D01*
X-100566Y81645D01*
X-100505Y81621D01*
X-100449Y81587D01*
X-100392Y81575D01*
X-100338Y81553D01*
X-100239Y81542D01*
X-100208Y81536D01*
X-100194Y81537D01*
X-100171Y81535D01*
X-93925Y81535D01*
X-93835Y81549D01*
X-93744Y81557D01*
X-93715Y81569D01*
X-93683Y81574D01*
X-93602Y81617D01*
X-93518Y81653D01*
X-93486Y81679D01*
X-93465Y81690D01*
X-93443Y81713D01*
X-93387Y81758D01*
X-91098Y84047D01*
X-86702Y84047D01*
X-83593Y80938D01*
X-83593Y76542D01*
X-86702Y73433D01*
X-91098Y73433D01*
X-93387Y75722D01*
X-93461Y75775D01*
X-93531Y75835D01*
X-93561Y75847D01*
X-93587Y75866D01*
X-93674Y75893D01*
X-93759Y75927D01*
X-93800Y75931D01*
X-93822Y75938D01*
X-93854Y75937D01*
X-93925Y75945D01*
X-99297Y75945D01*
X-99345Y75937D01*
X-99393Y75939D01*
X-99466Y75918D01*
X-99540Y75906D01*
X-99583Y75883D01*
X-99629Y75869D01*
X-99691Y75826D01*
X-99757Y75790D01*
X-99791Y75755D01*
X-99830Y75728D01*
X-99875Y75667D01*
X-99927Y75612D01*
X-99947Y75568D01*
X-99976Y75529D01*
X-99999Y75457D01*
X-100030Y75389D01*
X-100036Y75341D01*
X-100050Y75295D01*
X-100055Y75167D01*
X-100057Y75145D01*
X-100056Y75138D01*
X-100056Y75127D01*
X-100041Y74917D01*
X-100072Y74853D01*
X-100119Y74777D01*
X-100127Y74743D01*
X-100142Y74712D01*
X-100173Y74547D01*
X-100338Y72349D01*
X-100335Y72315D01*
X-100340Y72280D01*
X-100325Y72193D01*
X-100317Y72104D01*
X-100303Y72072D01*
X-100297Y72038D01*
X-100262Y71967D01*
X-100406Y71339D01*
X-100408Y71306D01*
X-100423Y71227D01*
X-100471Y70588D01*
X-100512Y70530D01*
X-100569Y70461D01*
X-100582Y70429D01*
X-100601Y70401D01*
X-100657Y70242D01*
X-101148Y68093D01*
X-101150Y68059D01*
X-101160Y68026D01*
X-101157Y67937D01*
X-101163Y67848D01*
X-101154Y67814D01*
X-101153Y67780D01*
X-101130Y67704D01*
X-101365Y67105D01*
X-101372Y67073D01*
X-101398Y66996D01*
X-101541Y66372D01*
X-101590Y66320D01*
X-101657Y66261D01*
X-101674Y66231D01*
X-101698Y66206D01*
X-101776Y66057D01*
X-102582Y64006D01*
X-102590Y63972D01*
X-102605Y63941D01*
X-102615Y63852D01*
X-102634Y63765D01*
X-102630Y63731D01*
X-102634Y63696D01*
X-102623Y63618D01*
X-102945Y63061D01*
X-102956Y63030D01*
X-102994Y62958D01*
X-103228Y62362D01*
X-103285Y62318D01*
X-103359Y62270D01*
X-103381Y62243D01*
X-103408Y62221D01*
X-103508Y62086D01*
X-104610Y60178D01*
X-104623Y60145D01*
X-104642Y60116D01*
X-104666Y60031D01*
X-104697Y59948D01*
X-104699Y59913D01*
X-104708Y59879D01*
X-104708Y59800D01*
X-105109Y59297D01*
X-105125Y59268D01*
X-105173Y59203D01*
X-105494Y58649D01*
X-105556Y58613D01*
X-105637Y58577D01*
X-105663Y58553D01*
X-105693Y58536D01*
X-105811Y58417D01*
X-107186Y56694D01*
X-107203Y56664D01*
X-107227Y56639D01*
X-107263Y56558D01*
X-107306Y56480D01*
X-107313Y56446D01*
X-107327Y56414D01*
X-107339Y56336D01*
X-107811Y55898D01*
X-107831Y55872D01*
X-107888Y55815D01*
X-108288Y55314D01*
X-108354Y55289D01*
X-108440Y55265D01*
X-108469Y55245D01*
X-108501Y55233D01*
X-108636Y55133D01*
X-110252Y53634D01*
X-110274Y53607D01*
X-110301Y53585D01*
X-110349Y53510D01*
X-110403Y53440D01*
X-110415Y53407D01*
X-110433Y53378D01*
X-110457Y53302D01*
X-110989Y52940D01*
X-111013Y52917D01*
X-111078Y52869D01*
X-111547Y52433D01*
X-111617Y52418D01*
X-111705Y52407D01*
X-111737Y52392D01*
X-111771Y52385D01*
X-111919Y52306D01*
X-112374Y51996D01*
X-112457Y51917D01*
X-112542Y51840D01*
X-112546Y51832D01*
X-112552Y51826D01*
X-112606Y51725D01*
X-112661Y51625D01*
X-112663Y51616D01*
X-112667Y51609D01*
X-112685Y51496D01*
X-112706Y51383D01*
X-112705Y51375D01*
X-112707Y51366D01*
X-112688Y51253D01*
X-112672Y51140D01*
X-112668Y51130D01*
X-112667Y51123D01*
X-112656Y51103D01*
X-112641Y51068D01*
X-112640Y51063D01*
X-112635Y51056D01*
X-112605Y50986D01*
X-93794Y18405D01*
X-95552Y17573D01*
X-95574Y17556D01*
X-95601Y17546D01*
X-95653Y17497D01*
X-95711Y17454D01*
X-95725Y17429D01*
X-95746Y17410D01*
X-95775Y17344D01*
X-95811Y17282D01*
X-95814Y17254D01*
X-95826Y17228D01*
X-95827Y17156D01*
X-95836Y17085D01*
X-95828Y17058D01*
X-95829Y17029D01*
X-95793Y16934D01*
X-95782Y16894D01*
X-95775Y16885D01*
X-95771Y16873D01*
X-86271Y373D01*
X-86219Y315D01*
X-86173Y252D01*
X-86154Y241D01*
X-86139Y224D01*
X-86069Y190D01*
X-86002Y150D01*
X-85978Y146D01*
X-85960Y138D01*
X-85915Y136D01*
X-85838Y123D01*
X-66838Y123D01*
X-66810Y128D01*
G37*
%LPC*%
G36*
X-13628Y62003D02*
X-13628Y62003D01*
X-16737Y65112D01*
X-16737Y68349D01*
X-16751Y68439D01*
X-16759Y68530D01*
X-16771Y68560D01*
X-16776Y68592D01*
X-16819Y68672D01*
X-16855Y68756D01*
X-16881Y68788D01*
X-16892Y68809D01*
X-16915Y68831D01*
X-16960Y68887D01*
X-59945Y111872D01*
X-59945Y137465D01*
X-59956Y137536D01*
X-59958Y137608D01*
X-59976Y137657D01*
X-59984Y137708D01*
X-60018Y137771D01*
X-60043Y137839D01*
X-60075Y137879D01*
X-60100Y137925D01*
X-60152Y137975D01*
X-60196Y138031D01*
X-60240Y138059D01*
X-60278Y138095D01*
X-60343Y138125D01*
X-60403Y138164D01*
X-60454Y138176D01*
X-60501Y138198D01*
X-60572Y138206D01*
X-60642Y138224D01*
X-60694Y138220D01*
X-60745Y138225D01*
X-60816Y138210D01*
X-60887Y138205D01*
X-60935Y138184D01*
X-60986Y138173D01*
X-61047Y138136D01*
X-61113Y138108D01*
X-61169Y138063D01*
X-61197Y138047D01*
X-61212Y138029D01*
X-61244Y138003D01*
X-80802Y118445D01*
X-82662Y116585D01*
X-138318Y116585D01*
X-149553Y127820D01*
X-149627Y127873D01*
X-149696Y127933D01*
X-149726Y127945D01*
X-149752Y127964D01*
X-149839Y127991D01*
X-149924Y128025D01*
X-149965Y128029D01*
X-149987Y128036D01*
X-150020Y128035D01*
X-150091Y128043D01*
X-153328Y128043D01*
X-156437Y131152D01*
X-156437Y135548D01*
X-153328Y138657D01*
X-148932Y138657D01*
X-145823Y135548D01*
X-145823Y132311D01*
X-145809Y132221D01*
X-145801Y132130D01*
X-145789Y132100D01*
X-145784Y132068D01*
X-145741Y131988D01*
X-145705Y131904D01*
X-145679Y131872D01*
X-145668Y131851D01*
X-145645Y131829D01*
X-145600Y131773D01*
X-136225Y122398D01*
X-136151Y122345D01*
X-136082Y122285D01*
X-136052Y122273D01*
X-136026Y122254D01*
X-135939Y122227D01*
X-135854Y122193D01*
X-135813Y122189D01*
X-135791Y122182D01*
X-135758Y122183D01*
X-135687Y122175D01*
X-85293Y122175D01*
X-85203Y122189D01*
X-85112Y122197D01*
X-85082Y122209D01*
X-85050Y122214D01*
X-84970Y122257D01*
X-84886Y122293D01*
X-84854Y122319D01*
X-84833Y122330D01*
X-84811Y122353D01*
X-84755Y122398D01*
X-62680Y144473D01*
X-62632Y144538D01*
X-62623Y144548D01*
X-62620Y144554D01*
X-62567Y144616D01*
X-62555Y144646D01*
X-62536Y144672D01*
X-62509Y144759D01*
X-62475Y144844D01*
X-62471Y144885D01*
X-62464Y144907D01*
X-62465Y144940D01*
X-62457Y145011D01*
X-62457Y148248D01*
X-59348Y151357D01*
X-54952Y151357D01*
X-51843Y148248D01*
X-51843Y143852D01*
X-54132Y141563D01*
X-54185Y141489D01*
X-54245Y141419D01*
X-54257Y141389D01*
X-54276Y141363D01*
X-54303Y141276D01*
X-54337Y141191D01*
X-54341Y141150D01*
X-54348Y141128D01*
X-54347Y141096D01*
X-54355Y141025D01*
X-54355Y114503D01*
X-54354Y114493D01*
X-54354Y114487D01*
X-54348Y114458D01*
X-54341Y114413D01*
X-54333Y114322D01*
X-54321Y114292D01*
X-54316Y114260D01*
X-54273Y114180D01*
X-54237Y114096D01*
X-54211Y114064D01*
X-54200Y114043D01*
X-54177Y114021D01*
X-54132Y113965D01*
X-13007Y72840D01*
X-12933Y72787D01*
X-12864Y72727D01*
X-12834Y72715D01*
X-12808Y72696D01*
X-12721Y72669D01*
X-12636Y72635D01*
X-12595Y72631D01*
X-12573Y72624D01*
X-12540Y72625D01*
X-12469Y72617D01*
X-9232Y72617D01*
X-6123Y69508D01*
X-6123Y65112D01*
X-9232Y62003D01*
X-13628Y62003D01*
G37*
%LPD*%
G36*
X132703Y198189D02*
X132703Y198189D01*
X132746Y198188D01*
X136739Y198789D01*
X136769Y198800D01*
X136812Y198805D01*
X140671Y199994D01*
X140699Y200009D01*
X140740Y200021D01*
X144378Y201772D01*
X144400Y201789D01*
X144426Y201798D01*
X144479Y201848D01*
X144537Y201892D01*
X144550Y201916D01*
X144570Y201935D01*
X144600Y202001D01*
X144636Y202065D01*
X144639Y202092D01*
X144650Y202117D01*
X144651Y202190D01*
X144660Y202262D01*
X144652Y202288D01*
X144652Y202316D01*
X144616Y202414D01*
X144604Y202453D01*
X144598Y202461D01*
X144594Y202472D01*
X117594Y249272D01*
X117576Y249292D01*
X117565Y249317D01*
X117511Y249366D01*
X117463Y249421D01*
X117438Y249432D01*
X117418Y249451D01*
X117349Y249475D01*
X117283Y249506D01*
X117256Y249508D01*
X117231Y249517D01*
X117158Y249512D01*
X117085Y249515D01*
X117059Y249506D01*
X117032Y249504D01*
X116936Y249460D01*
X116898Y249446D01*
X116891Y249439D01*
X116881Y249435D01*
X113544Y247161D01*
X113522Y247138D01*
X113486Y247115D01*
X110525Y244369D01*
X110506Y244343D01*
X110474Y244315D01*
X107956Y241159D01*
X107941Y241130D01*
X107914Y241097D01*
X105894Y237601D01*
X105884Y237571D01*
X105861Y237534D01*
X104385Y233776D01*
X104380Y233744D01*
X104363Y233704D01*
X103463Y229768D01*
X103463Y229736D01*
X103452Y229694D01*
X103149Y225668D01*
X103152Y225645D01*
X103149Y225625D01*
X103151Y225615D01*
X103149Y225594D01*
X103450Y221567D01*
X103458Y221536D01*
X103461Y221493D01*
X104358Y217557D01*
X104371Y217528D01*
X104380Y217485D01*
X105854Y213726D01*
X105871Y213699D01*
X105886Y213659D01*
X107904Y210162D01*
X107925Y210138D01*
X107946Y210100D01*
X110462Y206942D01*
X110487Y206922D01*
X110513Y206888D01*
X113472Y204140D01*
X113499Y204124D01*
X113530Y204094D01*
X116866Y201818D01*
X116895Y201806D01*
X116930Y201781D01*
X120568Y200028D01*
X120598Y200020D01*
X120637Y200001D01*
X124495Y198809D01*
X124527Y198806D01*
X124568Y198793D01*
X128560Y198190D01*
X128592Y198191D01*
X128634Y198184D01*
X132672Y198183D01*
X132703Y198189D01*
G37*
G36*
X-127110Y198184D02*
X-127110Y198184D01*
X-127079Y198190D01*
X-127036Y198190D01*
X-123044Y198793D01*
X-123014Y198804D01*
X-122971Y198809D01*
X-119113Y200001D01*
X-119085Y200016D01*
X-119044Y200028D01*
X-115406Y201781D01*
X-115381Y201800D01*
X-115342Y201818D01*
X-112006Y204094D01*
X-111984Y204117D01*
X-111948Y204140D01*
X-108989Y206888D01*
X-108970Y206913D01*
X-108938Y206942D01*
X-106422Y210100D01*
X-106407Y210128D01*
X-106380Y210162D01*
X-104362Y213659D01*
X-104352Y213689D01*
X-104330Y213726D01*
X-102856Y217485D01*
X-102850Y217517D01*
X-102834Y217557D01*
X-101937Y221493D01*
X-101936Y221525D01*
X-101926Y221567D01*
X-101625Y225594D01*
X-101629Y225625D01*
X-101628Y225641D01*
X-101625Y225658D01*
X-101626Y225662D01*
X-101625Y225668D01*
X-101928Y229694D01*
X-101937Y229725D01*
X-101939Y229768D01*
X-102839Y233704D01*
X-102852Y233733D01*
X-102861Y233776D01*
X-104337Y237534D01*
X-104355Y237561D01*
X-104370Y237601D01*
X-106390Y241097D01*
X-106411Y241121D01*
X-106432Y241159D01*
X-108950Y244315D01*
X-108975Y244335D01*
X-109001Y244369D01*
X-111962Y247115D01*
X-111989Y247131D01*
X-112020Y247161D01*
X-115357Y249435D01*
X-115382Y249445D01*
X-115403Y249462D01*
X-115473Y249483D01*
X-115540Y249512D01*
X-115568Y249512D01*
X-115594Y249519D01*
X-115666Y249511D01*
X-115739Y249511D01*
X-115764Y249500D01*
X-115791Y249497D01*
X-115855Y249461D01*
X-115922Y249433D01*
X-115941Y249413D01*
X-115964Y249400D01*
X-116032Y249319D01*
X-116060Y249289D01*
X-116063Y249280D01*
X-116070Y249272D01*
X-143070Y202472D01*
X-143079Y202446D01*
X-143095Y202423D01*
X-143110Y202352D01*
X-143134Y202283D01*
X-143131Y202256D01*
X-143137Y202229D01*
X-143124Y202158D01*
X-143118Y202085D01*
X-143105Y202060D01*
X-143100Y202034D01*
X-143060Y201973D01*
X-143026Y201908D01*
X-143005Y201891D01*
X-142990Y201868D01*
X-142904Y201807D01*
X-142873Y201782D01*
X-142864Y201779D01*
X-142854Y201772D01*
X-139216Y200021D01*
X-139185Y200014D01*
X-139147Y199994D01*
X-135288Y198805D01*
X-135256Y198802D01*
X-135215Y198789D01*
X-131222Y198188D01*
X-131191Y198190D01*
X-131148Y198183D01*
X-127110Y198184D01*
G37*
G36*
X117190Y51733D02*
X117190Y51733D01*
X117263Y51733D01*
X117288Y51744D01*
X117315Y51747D01*
X117379Y51783D01*
X117446Y51811D01*
X117465Y51831D01*
X117488Y51844D01*
X117556Y51925D01*
X117584Y51955D01*
X117587Y51964D01*
X117594Y51973D01*
X144594Y98773D01*
X144603Y98798D01*
X144619Y98821D01*
X144634Y98892D01*
X144658Y98961D01*
X144655Y98988D01*
X144661Y99015D01*
X144648Y99086D01*
X144642Y99159D01*
X144629Y99184D01*
X144624Y99210D01*
X144584Y99271D01*
X144550Y99336D01*
X144529Y99353D01*
X144514Y99376D01*
X144428Y99437D01*
X144397Y99462D01*
X144388Y99465D01*
X144378Y99472D01*
X140740Y101223D01*
X140709Y101230D01*
X140671Y101250D01*
X136812Y102439D01*
X136780Y102442D01*
X136739Y102455D01*
X132746Y103056D01*
X132715Y103054D01*
X132672Y103061D01*
X128634Y103060D01*
X128603Y103054D01*
X128560Y103054D01*
X124568Y102451D01*
X124538Y102440D01*
X124495Y102435D01*
X120637Y101243D01*
X120609Y101228D01*
X120568Y101216D01*
X116930Y99463D01*
X116905Y99444D01*
X116866Y99426D01*
X113530Y97150D01*
X113508Y97127D01*
X113472Y97104D01*
X110513Y94356D01*
X110494Y94331D01*
X110462Y94302D01*
X107946Y91144D01*
X107931Y91116D01*
X107904Y91082D01*
X105886Y87585D01*
X105876Y87555D01*
X105854Y87518D01*
X104380Y83759D01*
X104374Y83727D01*
X104358Y83687D01*
X103461Y79751D01*
X103460Y79719D01*
X103450Y79677D01*
X103149Y75651D01*
X103153Y75619D01*
X103149Y75576D01*
X103452Y71550D01*
X103461Y71519D01*
X103463Y71476D01*
X104363Y67540D01*
X104376Y67511D01*
X104385Y67468D01*
X105861Y63710D01*
X105879Y63683D01*
X105894Y63643D01*
X107914Y60147D01*
X107935Y60123D01*
X107956Y60085D01*
X110474Y56929D01*
X110499Y56909D01*
X110525Y56875D01*
X113486Y54129D01*
X113513Y54113D01*
X113544Y54083D01*
X116881Y51809D01*
X116906Y51799D01*
X116927Y51782D01*
X116997Y51761D01*
X117064Y51732D01*
X117092Y51733D01*
X117118Y51725D01*
X117190Y51733D01*
G37*
G36*
X-115634Y51732D02*
X-115634Y51732D01*
X-115561Y51729D01*
X-115535Y51738D01*
X-115508Y51740D01*
X-115412Y51784D01*
X-115374Y51798D01*
X-115367Y51805D01*
X-115357Y51809D01*
X-112020Y54083D01*
X-111998Y54106D01*
X-111962Y54129D01*
X-109001Y56875D01*
X-108982Y56901D01*
X-108950Y56929D01*
X-106432Y60085D01*
X-106417Y60114D01*
X-106390Y60147D01*
X-104370Y63643D01*
X-104360Y63673D01*
X-104337Y63710D01*
X-102861Y67468D01*
X-102856Y67500D01*
X-102839Y67540D01*
X-101939Y71476D01*
X-101939Y71508D01*
X-101928Y71550D01*
X-101625Y75576D01*
X-101629Y75607D01*
X-101625Y75651D01*
X-101926Y79677D01*
X-101934Y79708D01*
X-101937Y79751D01*
X-102834Y83687D01*
X-102847Y83716D01*
X-102856Y83759D01*
X-104330Y87518D01*
X-104347Y87545D01*
X-104362Y87585D01*
X-106380Y91082D01*
X-106401Y91106D01*
X-106422Y91144D01*
X-108938Y94302D01*
X-108963Y94322D01*
X-108989Y94356D01*
X-111948Y97104D01*
X-111975Y97120D01*
X-112006Y97150D01*
X-115342Y99426D01*
X-115371Y99438D01*
X-115406Y99463D01*
X-119044Y101216D01*
X-119074Y101224D01*
X-119113Y101243D01*
X-122971Y102435D01*
X-123003Y102438D01*
X-123044Y102451D01*
X-127036Y103054D01*
X-127068Y103053D01*
X-127110Y103060D01*
X-131148Y103061D01*
X-131179Y103055D01*
X-131222Y103056D01*
X-135215Y102455D01*
X-135245Y102444D01*
X-135288Y102439D01*
X-139147Y101250D01*
X-139175Y101235D01*
X-139216Y101223D01*
X-142854Y99472D01*
X-142876Y99455D01*
X-142902Y99446D01*
X-142955Y99396D01*
X-143013Y99352D01*
X-143026Y99328D01*
X-143046Y99309D01*
X-143076Y99243D01*
X-143112Y99179D01*
X-143115Y99152D01*
X-143126Y99127D01*
X-143127Y99054D01*
X-143136Y98982D01*
X-143128Y98956D01*
X-143128Y98928D01*
X-143092Y98830D01*
X-143080Y98791D01*
X-143074Y98783D01*
X-143070Y98773D01*
X-116070Y51973D01*
X-116052Y51952D01*
X-116041Y51927D01*
X-115987Y51878D01*
X-115939Y51824D01*
X-115914Y51812D01*
X-115894Y51793D01*
X-115825Y51769D01*
X-115759Y51738D01*
X-115732Y51737D01*
X-115707Y51727D01*
X-115634Y51732D01*
G37*
G36*
X27789Y128D02*
X27789Y128D01*
X27816Y126D01*
X27885Y148D01*
X27957Y162D01*
X27979Y178D01*
X28005Y186D01*
X28061Y234D01*
X28121Y275D01*
X28135Y298D01*
X28156Y316D01*
X28189Y381D01*
X28228Y442D01*
X28232Y469D01*
X28244Y494D01*
X28254Y598D01*
X28261Y639D01*
X28259Y648D01*
X28260Y659D01*
X27958Y4683D01*
X27950Y4714D01*
X27947Y4757D01*
X27049Y8691D01*
X27036Y8720D01*
X27027Y8763D01*
X25553Y12519D01*
X25536Y12546D01*
X25521Y12587D01*
X23503Y16081D01*
X23482Y16105D01*
X23461Y16143D01*
X20945Y19298D01*
X20920Y19318D01*
X20894Y19353D01*
X17936Y22097D01*
X17909Y22114D01*
X17877Y22144D01*
X14543Y24417D01*
X14514Y24430D01*
X14479Y24455D01*
X10843Y26205D01*
X10812Y26213D01*
X10773Y26233D01*
X6917Y27422D01*
X6886Y27425D01*
X6844Y27439D01*
X2854Y28040D01*
X2822Y28039D01*
X2780Y28046D01*
X-1256Y28046D01*
X-1287Y28039D01*
X-1330Y28040D01*
X-5320Y27439D01*
X-5350Y27428D01*
X-5393Y27422D01*
X-9249Y26233D01*
X-9277Y26217D01*
X-9319Y26205D01*
X-12955Y24455D01*
X-12980Y24435D01*
X-13019Y24417D01*
X-16353Y22144D01*
X-16376Y22121D01*
X-16412Y22097D01*
X-19370Y19353D01*
X-19389Y19327D01*
X-19421Y19298D01*
X-21937Y16143D01*
X-21951Y16115D01*
X-21979Y16081D01*
X-23997Y12587D01*
X-24007Y12556D01*
X-24029Y12519D01*
X-25503Y8763D01*
X-25509Y8731D01*
X-25525Y8691D01*
X-26423Y4757D01*
X-26424Y4725D01*
X-26434Y4683D01*
X-26736Y659D01*
X-26732Y632D01*
X-26737Y605D01*
X-26720Y535D01*
X-26711Y462D01*
X-26697Y438D01*
X-26691Y412D01*
X-26648Y353D01*
X-26611Y290D01*
X-26589Y274D01*
X-26573Y252D01*
X-26510Y215D01*
X-26452Y171D01*
X-26425Y164D01*
X-26402Y150D01*
X-26298Y133D01*
X-26259Y123D01*
X-26249Y125D01*
X-26238Y123D01*
X27762Y123D01*
X27789Y128D01*
G37*
%LPC*%
G36*
X43202Y67055D02*
X43202Y67055D01*
X37845Y72412D01*
X37845Y79988D01*
X43202Y85345D01*
X50778Y85345D01*
X56135Y79988D01*
X56135Y72412D01*
X50778Y67055D01*
X43202Y67055D01*
G37*
%LPD*%
%LPC*%
G36*
X-94529Y177545D02*
X-94529Y177545D01*
X-97890Y178937D01*
X-100463Y181510D01*
X-101855Y184871D01*
X-101855Y188509D01*
X-100463Y191870D01*
X-97890Y194443D01*
X-94529Y195835D01*
X-90891Y195835D01*
X-87530Y194443D01*
X-84957Y191870D01*
X-83565Y188509D01*
X-83565Y184871D01*
X-84957Y181510D01*
X-87530Y178937D01*
X-90891Y177545D01*
X-94529Y177545D01*
G37*
%LPD*%
%LPC*%
G36*
X-94529Y152145D02*
X-94529Y152145D01*
X-97890Y153537D01*
X-100463Y156110D01*
X-101855Y159471D01*
X-101855Y163109D01*
X-100463Y166470D01*
X-97890Y169043D01*
X-94529Y170435D01*
X-90891Y170435D01*
X-87530Y169043D01*
X-84957Y166470D01*
X-83565Y163109D01*
X-83565Y159471D01*
X-84957Y156110D01*
X-87530Y153537D01*
X-90891Y152145D01*
X-94529Y152145D01*
G37*
%LPD*%
%LPC*%
G36*
X-94529Y126745D02*
X-94529Y126745D01*
X-97890Y128137D01*
X-100463Y130710D01*
X-101855Y134071D01*
X-101855Y137709D01*
X-100463Y141070D01*
X-97890Y143643D01*
X-94529Y145035D01*
X-90891Y145035D01*
X-87530Y143643D01*
X-84957Y141070D01*
X-83565Y137709D01*
X-83565Y134071D01*
X-84957Y130710D01*
X-87530Y128137D01*
X-90891Y126745D01*
X-94529Y126745D01*
G37*
%LPD*%
D10*
X83362Y293722D03*
X165962Y150622D03*
X83362Y7522D03*
X-81838Y7522D03*
X-164438Y150622D03*
X-81838Y293722D03*
X124662Y222122D03*
X124662Y79122D03*
X762Y7522D03*
X-123138Y79122D03*
X-123138Y222122D03*
D11*
X24130Y184760D03*
X24130Y165760D03*
D12*
X3810Y183760D03*
X3810Y166760D03*
D13*
X-22860Y260350D03*
D14*
X27940Y260350D03*
D15*
X45393Y134858D02*
X45393Y116632D01*
X40967Y116632D01*
X40967Y134858D01*
X45393Y134858D01*
X45393Y118033D02*
X40967Y118033D01*
X40967Y119434D02*
X45393Y119434D01*
X45393Y120835D02*
X40967Y120835D01*
X40967Y122236D02*
X45393Y122236D01*
X45393Y123637D02*
X40967Y123637D01*
X40967Y125038D02*
X45393Y125038D01*
X45393Y126439D02*
X40967Y126439D01*
X40967Y127840D02*
X45393Y127840D01*
X45393Y129241D02*
X40967Y129241D01*
X40967Y130642D02*
X45393Y130642D01*
X45393Y132043D02*
X40967Y132043D01*
X40967Y133444D02*
X45393Y133444D01*
X45393Y134845D02*
X40967Y134845D01*
X58093Y134858D02*
X58093Y116632D01*
X53667Y116632D01*
X53667Y134858D01*
X58093Y134858D01*
X58093Y118033D02*
X53667Y118033D01*
X53667Y119434D02*
X58093Y119434D01*
X58093Y120835D02*
X53667Y120835D01*
X53667Y122236D02*
X58093Y122236D01*
X58093Y123637D02*
X53667Y123637D01*
X53667Y125038D02*
X58093Y125038D01*
X58093Y126439D02*
X53667Y126439D01*
X53667Y127840D02*
X58093Y127840D01*
X58093Y129241D02*
X53667Y129241D01*
X53667Y130642D02*
X58093Y130642D01*
X58093Y132043D02*
X53667Y132043D01*
X53667Y133444D02*
X58093Y133444D01*
X58093Y134845D02*
X53667Y134845D01*
X70793Y134858D02*
X70793Y116632D01*
X66367Y116632D01*
X66367Y134858D01*
X70793Y134858D01*
X70793Y118033D02*
X66367Y118033D01*
X66367Y119434D02*
X70793Y119434D01*
X70793Y120835D02*
X66367Y120835D01*
X66367Y122236D02*
X70793Y122236D01*
X70793Y123637D02*
X66367Y123637D01*
X66367Y125038D02*
X70793Y125038D01*
X70793Y126439D02*
X66367Y126439D01*
X66367Y127840D02*
X70793Y127840D01*
X70793Y129241D02*
X66367Y129241D01*
X66367Y130642D02*
X70793Y130642D01*
X70793Y132043D02*
X66367Y132043D01*
X66367Y133444D02*
X70793Y133444D01*
X70793Y134845D02*
X66367Y134845D01*
X83493Y134858D02*
X83493Y116632D01*
X79067Y116632D01*
X79067Y134858D01*
X83493Y134858D01*
X83493Y118033D02*
X79067Y118033D01*
X79067Y119434D02*
X83493Y119434D01*
X83493Y120835D02*
X79067Y120835D01*
X79067Y122236D02*
X83493Y122236D01*
X83493Y123637D02*
X79067Y123637D01*
X79067Y125038D02*
X83493Y125038D01*
X83493Y126439D02*
X79067Y126439D01*
X79067Y127840D02*
X83493Y127840D01*
X83493Y129241D02*
X79067Y129241D01*
X79067Y130642D02*
X83493Y130642D01*
X83493Y132043D02*
X79067Y132043D01*
X79067Y133444D02*
X83493Y133444D01*
X83493Y134845D02*
X79067Y134845D01*
X83493Y166132D02*
X83493Y184358D01*
X83493Y166132D02*
X79067Y166132D01*
X79067Y184358D01*
X83493Y184358D01*
X83493Y167533D02*
X79067Y167533D01*
X79067Y168934D02*
X83493Y168934D01*
X83493Y170335D02*
X79067Y170335D01*
X79067Y171736D02*
X83493Y171736D01*
X83493Y173137D02*
X79067Y173137D01*
X79067Y174538D02*
X83493Y174538D01*
X83493Y175939D02*
X79067Y175939D01*
X79067Y177340D02*
X83493Y177340D01*
X83493Y178741D02*
X79067Y178741D01*
X79067Y180142D02*
X83493Y180142D01*
X83493Y181543D02*
X79067Y181543D01*
X79067Y182944D02*
X83493Y182944D01*
X83493Y184345D02*
X79067Y184345D01*
X70793Y184358D02*
X70793Y166132D01*
X66367Y166132D01*
X66367Y184358D01*
X70793Y184358D01*
X70793Y167533D02*
X66367Y167533D01*
X66367Y168934D02*
X70793Y168934D01*
X70793Y170335D02*
X66367Y170335D01*
X66367Y171736D02*
X70793Y171736D01*
X70793Y173137D02*
X66367Y173137D01*
X66367Y174538D02*
X70793Y174538D01*
X70793Y175939D02*
X66367Y175939D01*
X66367Y177340D02*
X70793Y177340D01*
X70793Y178741D02*
X66367Y178741D01*
X66367Y180142D02*
X70793Y180142D01*
X70793Y181543D02*
X66367Y181543D01*
X66367Y182944D02*
X70793Y182944D01*
X70793Y184345D02*
X66367Y184345D01*
X58093Y184358D02*
X58093Y166132D01*
X53667Y166132D01*
X53667Y184358D01*
X58093Y184358D01*
X58093Y167533D02*
X53667Y167533D01*
X53667Y168934D02*
X58093Y168934D01*
X58093Y170335D02*
X53667Y170335D01*
X53667Y171736D02*
X58093Y171736D01*
X58093Y173137D02*
X53667Y173137D01*
X53667Y174538D02*
X58093Y174538D01*
X58093Y175939D02*
X53667Y175939D01*
X53667Y177340D02*
X58093Y177340D01*
X58093Y178741D02*
X53667Y178741D01*
X53667Y180142D02*
X58093Y180142D01*
X58093Y181543D02*
X53667Y181543D01*
X53667Y182944D02*
X58093Y182944D01*
X58093Y184345D02*
X53667Y184345D01*
X45393Y184358D02*
X45393Y166132D01*
X40967Y166132D01*
X40967Y184358D01*
X45393Y184358D01*
X45393Y167533D02*
X40967Y167533D01*
X40967Y168934D02*
X45393Y168934D01*
X45393Y170335D02*
X40967Y170335D01*
X40967Y171736D02*
X45393Y171736D01*
X45393Y173137D02*
X40967Y173137D01*
X40967Y174538D02*
X45393Y174538D01*
X45393Y175939D02*
X40967Y175939D01*
X40967Y177340D02*
X45393Y177340D01*
X45393Y178741D02*
X40967Y178741D01*
X40967Y180142D02*
X45393Y180142D01*
X45393Y181543D02*
X40967Y181543D01*
X40967Y182944D02*
X45393Y182944D01*
X45393Y184345D02*
X40967Y184345D01*
D16*
X70240Y198120D03*
X87240Y198120D03*
D12*
X90415Y245745D03*
X73415Y245745D03*
D16*
X-16510Y183760D03*
X-16510Y166760D03*
D17*
X46990Y76200D03*
D18*
X-92710Y186690D03*
X-92710Y161290D03*
X-92710Y135890D03*
D19*
X3810Y166760D02*
X23130Y166760D01*
D20*
X24130Y165760D01*
D19*
X3810Y166760D02*
X-5470Y166760D01*
D20*
X-5715Y167005D01*
D21*
X-5715Y167005D03*
D19*
X81280Y167640D02*
X81280Y175245D01*
X71923Y158283D02*
X66040Y158283D01*
X31607Y158283D01*
X24130Y165760D01*
X71923Y158283D02*
X81280Y167640D01*
X-5470Y166760D02*
X-16510Y166760D01*
D21*
X-21590Y219710D03*
D19*
X-5762Y176366D02*
X-5470Y176074D01*
X-5470Y166760D01*
X-5762Y203882D02*
X-21590Y219710D01*
X-5762Y203882D02*
X-5762Y176366D01*
D21*
X-57150Y146050D03*
D22*
X-83820Y119380D01*
X-137160Y119380D02*
X-151130Y133350D01*
D21*
X-151130Y133350D03*
D22*
X-137160Y119380D02*
X-83820Y119380D01*
D21*
X-11430Y67310D03*
D22*
X-57150Y113030D01*
X-57150Y146050D01*
D21*
X66040Y141854D03*
D22*
X66040Y158283D01*
D21*
X43180Y191770D03*
D22*
X43180Y175245D01*
D21*
X82550Y45720D03*
D22*
X82550Y8334D01*
X83362Y7522D01*
D21*
X-39575Y138225D03*
D22*
X-10570Y109220D01*
X73660Y109220D02*
X81280Y116840D01*
X81280Y125745D01*
X26132Y109220D02*
X-10570Y109220D01*
X26132Y109220D02*
X28898Y111986D01*
X52609Y109220D02*
X73660Y109220D01*
X49843Y111986D02*
X28898Y111986D01*
X49843Y111986D02*
X52609Y109220D01*
X43180Y125745D02*
X39370Y129555D01*
X-21605Y129555D02*
X-41910Y149860D01*
X-42115Y149655D01*
D21*
X-42115Y149655D03*
D22*
X-21605Y129555D02*
X39370Y129555D01*
D23*
X25809Y22031D03*
D20*
X19018Y15240D01*
D22*
X5080Y15240D01*
D20*
X762Y10922D01*
X762Y7522D01*
D22*
X55880Y125745D02*
X68580Y125745D01*
X55880Y125745D02*
X55880Y134444D01*
X49395Y140929D01*
X-16510Y183760D02*
X-34680Y183760D01*
X-38100Y180340D01*
X-38100Y167640D02*
X-44450Y161290D01*
D21*
X-44450Y161290D03*
D22*
X-38100Y167640D02*
X-38100Y180340D01*
X-44450Y161290D02*
X-24089Y140929D01*
X49395Y140929D01*
D19*
X55880Y175245D02*
X55782Y175343D01*
X55782Y232124D01*
X27649Y260257D01*
X27742Y260350D02*
X27940Y260350D01*
X27742Y260350D02*
X27649Y260257D01*
X68970Y196850D02*
X68970Y175635D01*
X68580Y175245D01*
X68970Y196850D02*
X70240Y198120D01*
X68044Y246030D02*
X68044Y260886D01*
X68044Y246030D02*
X68044Y245454D01*
X68044Y200316D01*
X70240Y198120D01*
X-2540Y280670D02*
X-22860Y260350D01*
X-2540Y280670D02*
X48260Y280670D01*
X68044Y260886D01*
X73415Y245745D02*
X73124Y245454D01*
X68044Y245454D01*
X68329Y245745D02*
X68044Y246030D01*
X68329Y245745D02*
X73415Y245745D01*
X90415Y245745D02*
X90415Y244475D01*
X83430Y237490D01*
X83430Y201930D01*
X87240Y198120D01*
D21*
X90415Y245745D03*
X-125730Y192878D03*
D22*
X-125730Y213180D01*
X-123138Y215772D01*
X-123138Y222122D01*
D20*
X124662Y80392D02*
X124662Y79122D01*
D21*
X31622Y105410D03*
D22*
X50672Y105410D02*
X72008Y84074D01*
X50672Y105410D02*
X31622Y105410D01*
X119710Y84074D02*
X124662Y79122D01*
X119710Y84074D02*
X72008Y84074D01*
D21*
X25400Y93980D03*
D22*
X25400Y74930D01*
X39370Y60960D01*
X90232Y60960D01*
X97494Y68222D01*
D21*
X97494Y68222D03*
X99619Y214468D03*
D22*
X107273Y222122D01*
X124662Y222122D01*
D21*
X-88900Y78740D03*
D22*
X-122756Y78740D01*
X-123138Y79122D01*
M02*
