G04 EAGLE Gerber RS-274X export*
G75*
%MOMM*%
%FSLAX34Y34*%
%LPD*%
%INBottom Copper*%
%IPPOS*%
%AMOC8*
5,1,8,0,0,1.08239X$1,22.5*%
G01*
%ADD10C,1.000000*%
%ADD11R,2.500000X2.500000*%
%ADD12C,2.500000*%
%ADD13R,1.300000X1.500000*%
%ADD14R,1.000000X1.100000*%
%ADD15R,1.100000X1.000000*%
%ADD16R,1.399997X0.400000*%
%ADD17R,0.550000X0.254000*%
%ADD18R,0.254000X0.550000*%
%ADD19R,5.600000X5.600000*%
%ADD20P,1.649562X8X22.500000*%
%ADD21C,1.524000*%
%ADD22R,0.500000X0.800000*%
%ADD23C,0.756400*%
%ADD24C,0.254000*%
%ADD25C,0.304800*%
%ADD26C,0.656400*%
%ADD27C,0.355600*%
%ADD28C,0.177800*%

G36*
X-23923Y104435D02*
X-23923Y104435D01*
X-23832Y104443D01*
X-23802Y104455D01*
X-23770Y104460D01*
X-23689Y104503D01*
X-23605Y104539D01*
X-23573Y104565D01*
X-23553Y104576D01*
X-23530Y104599D01*
X-23474Y104644D01*
X-22651Y105467D01*
X-22598Y105541D01*
X-22538Y105611D01*
X-22526Y105641D01*
X-22507Y105667D01*
X-22480Y105754D01*
X-22446Y105839D01*
X-22442Y105880D01*
X-22435Y105902D01*
X-22436Y105934D01*
X-22428Y106006D01*
X-22428Y107214D01*
X-22431Y107234D01*
X-22429Y107253D01*
X-22451Y107355D01*
X-22467Y107457D01*
X-22477Y107474D01*
X-22481Y107494D01*
X-22534Y107583D01*
X-22583Y107674D01*
X-22597Y107688D01*
X-22607Y107705D01*
X-22686Y107772D01*
X-22761Y107844D01*
X-22779Y107852D01*
X-22794Y107865D01*
X-22890Y107904D01*
X-22984Y107947D01*
X-23004Y107949D01*
X-23022Y107957D01*
X-23189Y107975D01*
X-26869Y107975D01*
X-27762Y108868D01*
X-27762Y114987D01*
X-27765Y115007D01*
X-27763Y115026D01*
X-27785Y115127D01*
X-27801Y115230D01*
X-27811Y115247D01*
X-27815Y115267D01*
X-27868Y115356D01*
X-27917Y115447D01*
X-27931Y115461D01*
X-27941Y115478D01*
X-28020Y115545D01*
X-28095Y115617D01*
X-28113Y115625D01*
X-28128Y115638D01*
X-28224Y115677D01*
X-28318Y115720D01*
X-28338Y115722D01*
X-28356Y115730D01*
X-28523Y115748D01*
X-34642Y115748D01*
X-35535Y116641D01*
X-35535Y120445D01*
X-35474Y120505D01*
X-35462Y120521D01*
X-35447Y120534D01*
X-35391Y120621D01*
X-35331Y120705D01*
X-35325Y120724D01*
X-35314Y120741D01*
X-35289Y120841D01*
X-35258Y120940D01*
X-35259Y120960D01*
X-35254Y120979D01*
X-35262Y121082D01*
X-35265Y121186D01*
X-35271Y121205D01*
X-35273Y121224D01*
X-35313Y121320D01*
X-35349Y121417D01*
X-35361Y121433D01*
X-35369Y121451D01*
X-35474Y121582D01*
X-35535Y121642D01*
X-35535Y125446D01*
X-35474Y125507D01*
X-35462Y125523D01*
X-35446Y125535D01*
X-35390Y125622D01*
X-35330Y125706D01*
X-35324Y125725D01*
X-35313Y125742D01*
X-35288Y125843D01*
X-35258Y125941D01*
X-35258Y125961D01*
X-35253Y125981D01*
X-35261Y126084D01*
X-35264Y126187D01*
X-35271Y126206D01*
X-35272Y126226D01*
X-35313Y126321D01*
X-35348Y126418D01*
X-35361Y126434D01*
X-35369Y126452D01*
X-35474Y126583D01*
X-35535Y126644D01*
X-35535Y130448D01*
X-35474Y130508D01*
X-35462Y130524D01*
X-35447Y130537D01*
X-35391Y130624D01*
X-35331Y130708D01*
X-35325Y130727D01*
X-35314Y130744D01*
X-35289Y130844D01*
X-35258Y130943D01*
X-35259Y130963D01*
X-35254Y130982D01*
X-35262Y131085D01*
X-35265Y131189D01*
X-35271Y131208D01*
X-35273Y131227D01*
X-35313Y131323D01*
X-35349Y131420D01*
X-35361Y131436D01*
X-35369Y131454D01*
X-35474Y131585D01*
X-35535Y131645D01*
X-35535Y132923D01*
X-35546Y132993D01*
X-35548Y133065D01*
X-35566Y133114D01*
X-35574Y133165D01*
X-35608Y133229D01*
X-35633Y133296D01*
X-35665Y133337D01*
X-35690Y133383D01*
X-35742Y133432D01*
X-35786Y133488D01*
X-35830Y133516D01*
X-35868Y133552D01*
X-35933Y133582D01*
X-35993Y133621D01*
X-36044Y133634D01*
X-36091Y133656D01*
X-36162Y133664D01*
X-36232Y133681D01*
X-36284Y133677D01*
X-36335Y133683D01*
X-36406Y133668D01*
X-36477Y133662D01*
X-36525Y133642D01*
X-36576Y133631D01*
X-36637Y133594D01*
X-36703Y133566D01*
X-36759Y133521D01*
X-36787Y133504D01*
X-36802Y133487D01*
X-36834Y133461D01*
X-37377Y132918D01*
X-41773Y132918D01*
X-44882Y136027D01*
X-44882Y140423D01*
X-43526Y141779D01*
X-43484Y141837D01*
X-43435Y141889D01*
X-43413Y141936D01*
X-43383Y141979D01*
X-43361Y142047D01*
X-43331Y142112D01*
X-43325Y142164D01*
X-43310Y142214D01*
X-43312Y142285D01*
X-43304Y142357D01*
X-43315Y142407D01*
X-43317Y142459D01*
X-43341Y142527D01*
X-43356Y142597D01*
X-43383Y142642D01*
X-43401Y142691D01*
X-43446Y142747D01*
X-43483Y142808D01*
X-43522Y142842D01*
X-43555Y142883D01*
X-43615Y142921D01*
X-43669Y142968D01*
X-43718Y142987D01*
X-43762Y143016D01*
X-43831Y143033D01*
X-43898Y143060D01*
X-43969Y143068D01*
X-44000Y143076D01*
X-44023Y143074D01*
X-44064Y143078D01*
X-44313Y143078D01*
X-47422Y146187D01*
X-47422Y150583D01*
X-47131Y150874D01*
X-47089Y150932D01*
X-47040Y150984D01*
X-47018Y151031D01*
X-46988Y151073D01*
X-46966Y151142D01*
X-46936Y151207D01*
X-46931Y151259D01*
X-46915Y151309D01*
X-46917Y151380D01*
X-46909Y151451D01*
X-46920Y151502D01*
X-46922Y151554D01*
X-46946Y151622D01*
X-46961Y151692D01*
X-46988Y151737D01*
X-47006Y151785D01*
X-47051Y151841D01*
X-47088Y151903D01*
X-47127Y151937D01*
X-47160Y151977D01*
X-47220Y152016D01*
X-47275Y152063D01*
X-47323Y152082D01*
X-47367Y152110D01*
X-47436Y152128D01*
X-47503Y152155D01*
X-47574Y152163D01*
X-47605Y152171D01*
X-47628Y152169D01*
X-47669Y152173D01*
X-47918Y152173D01*
X-51027Y155282D01*
X-51027Y159678D01*
X-49699Y161006D01*
X-49657Y161064D01*
X-49608Y161116D01*
X-49586Y161163D01*
X-49556Y161205D01*
X-49534Y161274D01*
X-49504Y161339D01*
X-49499Y161391D01*
X-49483Y161441D01*
X-49485Y161512D01*
X-49477Y161583D01*
X-49488Y161634D01*
X-49490Y161686D01*
X-49514Y161754D01*
X-49529Y161824D01*
X-49556Y161869D01*
X-49574Y161917D01*
X-49619Y161973D01*
X-49656Y162035D01*
X-49695Y162069D01*
X-49728Y162109D01*
X-49788Y162148D01*
X-49843Y162195D01*
X-49891Y162214D01*
X-49935Y162242D01*
X-50004Y162260D01*
X-50071Y162287D01*
X-50142Y162295D01*
X-50173Y162303D01*
X-50196Y162301D01*
X-50237Y162305D01*
X-69647Y162305D01*
X-69737Y162291D01*
X-69828Y162283D01*
X-69858Y162271D01*
X-69890Y162266D01*
X-69970Y162223D01*
X-70054Y162187D01*
X-70086Y162161D01*
X-70107Y162150D01*
X-70129Y162127D01*
X-70185Y162082D01*
X-88809Y143458D01*
X-88821Y143442D01*
X-88836Y143430D01*
X-88893Y143342D01*
X-88953Y143259D01*
X-88959Y143240D01*
X-88969Y143223D01*
X-88995Y143122D01*
X-89025Y143024D01*
X-89025Y143004D01*
X-89029Y142984D01*
X-89021Y142881D01*
X-89019Y142778D01*
X-89012Y142759D01*
X-89010Y142739D01*
X-88970Y142644D01*
X-88934Y142547D01*
X-88922Y142531D01*
X-88914Y142513D01*
X-88809Y142382D01*
X-87497Y141070D01*
X-86105Y137709D01*
X-86105Y134071D01*
X-87497Y130710D01*
X-90070Y128137D01*
X-93431Y126745D01*
X-97069Y126745D01*
X-100430Y128137D01*
X-103003Y130710D01*
X-104395Y134071D01*
X-104395Y137709D01*
X-103003Y141070D01*
X-100430Y143643D01*
X-97069Y145035D01*
X-95453Y145035D01*
X-95363Y145049D01*
X-95272Y145057D01*
X-95242Y145069D01*
X-95210Y145074D01*
X-95130Y145117D01*
X-95046Y145153D01*
X-95014Y145179D01*
X-94993Y145190D01*
X-94971Y145213D01*
X-94915Y145258D01*
X-72278Y167895D01*
X-64936Y167895D01*
X-64916Y167898D01*
X-64897Y167896D01*
X-64795Y167918D01*
X-64693Y167934D01*
X-64676Y167944D01*
X-64656Y167948D01*
X-64567Y168001D01*
X-64476Y168050D01*
X-64462Y168064D01*
X-64445Y168074D01*
X-64378Y168153D01*
X-64306Y168228D01*
X-64298Y168246D01*
X-64285Y168261D01*
X-64246Y168357D01*
X-64203Y168451D01*
X-64201Y168471D01*
X-64193Y168489D01*
X-64175Y168656D01*
X-64175Y176357D01*
X-64189Y176447D01*
X-64197Y176538D01*
X-64209Y176568D01*
X-64214Y176600D01*
X-64257Y176680D01*
X-64293Y176764D01*
X-64319Y176796D01*
X-64330Y176817D01*
X-64353Y176839D01*
X-64398Y176895D01*
X-74595Y187092D01*
X-74669Y187145D01*
X-74738Y187205D01*
X-74768Y187217D01*
X-74794Y187236D01*
X-74881Y187263D01*
X-74966Y187297D01*
X-75007Y187301D01*
X-75029Y187308D01*
X-75062Y187307D01*
X-75133Y187315D01*
X-85344Y187315D01*
X-85364Y187312D01*
X-85383Y187314D01*
X-85485Y187292D01*
X-85587Y187276D01*
X-85604Y187266D01*
X-85624Y187262D01*
X-85713Y187209D01*
X-85804Y187160D01*
X-85818Y187146D01*
X-85835Y187136D01*
X-85902Y187057D01*
X-85974Y186982D01*
X-85982Y186964D01*
X-85995Y186949D01*
X-86034Y186853D01*
X-86077Y186759D01*
X-86079Y186739D01*
X-86087Y186721D01*
X-86105Y186554D01*
X-86105Y184871D01*
X-87497Y181510D01*
X-90070Y178937D01*
X-91985Y178144D01*
X-92085Y178082D01*
X-92185Y178023D01*
X-92189Y178018D01*
X-92194Y178015D01*
X-92269Y177924D01*
X-92345Y177836D01*
X-92347Y177830D01*
X-92351Y177825D01*
X-92393Y177717D01*
X-92437Y177608D01*
X-92438Y177600D01*
X-92439Y177595D01*
X-92440Y177577D01*
X-92455Y177441D01*
X-92455Y170539D01*
X-92436Y170424D01*
X-92419Y170308D01*
X-92417Y170303D01*
X-92416Y170296D01*
X-92361Y170194D01*
X-92308Y170089D01*
X-92303Y170085D01*
X-92300Y170079D01*
X-92216Y169999D01*
X-92132Y169917D01*
X-92126Y169913D01*
X-92122Y169910D01*
X-92105Y169902D01*
X-91985Y169836D01*
X-90070Y169043D01*
X-87497Y166470D01*
X-86105Y163109D01*
X-86105Y159471D01*
X-87497Y156110D01*
X-90070Y153537D01*
X-93431Y152145D01*
X-97069Y152145D01*
X-100430Y153537D01*
X-103003Y156110D01*
X-104395Y159471D01*
X-104395Y163109D01*
X-103003Y166470D01*
X-100430Y169043D01*
X-98515Y169836D01*
X-98415Y169898D01*
X-98315Y169957D01*
X-98311Y169962D01*
X-98306Y169965D01*
X-98231Y170056D01*
X-98155Y170144D01*
X-98153Y170150D01*
X-98149Y170155D01*
X-98107Y170263D01*
X-98063Y170372D01*
X-98062Y170380D01*
X-98061Y170385D01*
X-98060Y170403D01*
X-98045Y170539D01*
X-98045Y177441D01*
X-98064Y177555D01*
X-98081Y177672D01*
X-98083Y177677D01*
X-98084Y177684D01*
X-98139Y177786D01*
X-98192Y177891D01*
X-98197Y177895D01*
X-98200Y177901D01*
X-98284Y177981D01*
X-98368Y178063D01*
X-98374Y178067D01*
X-98378Y178070D01*
X-98395Y178078D01*
X-98515Y178144D01*
X-100430Y178937D01*
X-103003Y181510D01*
X-104395Y184871D01*
X-104395Y188509D01*
X-103003Y191870D01*
X-100430Y194443D01*
X-97069Y195835D01*
X-93431Y195835D01*
X-90070Y194443D01*
X-88755Y193128D01*
X-88681Y193075D01*
X-88612Y193015D01*
X-88582Y193003D01*
X-88555Y192984D01*
X-88468Y192957D01*
X-88384Y192923D01*
X-88343Y192919D01*
X-88320Y192912D01*
X-88288Y192913D01*
X-88217Y192905D01*
X-72502Y192905D01*
X-70642Y191045D01*
X-59945Y180348D01*
X-59871Y180295D01*
X-59802Y180235D01*
X-59772Y180223D01*
X-59746Y180204D01*
X-59659Y180177D01*
X-59574Y180143D01*
X-59533Y180139D01*
X-59511Y180132D01*
X-59478Y180133D01*
X-59407Y180125D01*
X-51018Y180125D01*
X-50125Y179232D01*
X-50125Y177156D01*
X-50122Y177136D01*
X-50124Y177117D01*
X-50102Y177015D01*
X-50086Y176913D01*
X-50076Y176896D01*
X-50072Y176876D01*
X-50019Y176787D01*
X-49970Y176696D01*
X-49956Y176682D01*
X-49946Y176665D01*
X-49867Y176598D01*
X-49792Y176526D01*
X-49774Y176518D01*
X-49759Y176505D01*
X-49663Y176466D01*
X-49569Y176423D01*
X-49549Y176421D01*
X-49531Y176413D01*
X-49364Y176395D01*
X-30015Y176395D01*
X-29954Y176370D01*
X-29913Y176366D01*
X-29891Y176359D01*
X-29858Y176360D01*
X-29787Y176352D01*
X-28523Y176352D01*
X-28503Y176355D01*
X-28484Y176353D01*
X-28382Y176375D01*
X-28280Y176391D01*
X-28263Y176401D01*
X-28243Y176405D01*
X-28154Y176458D01*
X-28063Y176507D01*
X-28049Y176521D01*
X-28032Y176531D01*
X-27965Y176610D01*
X-27893Y176685D01*
X-27885Y176703D01*
X-27872Y176718D01*
X-27833Y176814D01*
X-27790Y176908D01*
X-27788Y176928D01*
X-27780Y176946D01*
X-27762Y177113D01*
X-27762Y183232D01*
X-26869Y184125D01*
X-23065Y184125D01*
X-23005Y184064D01*
X-22989Y184052D01*
X-22976Y184037D01*
X-22889Y183981D01*
X-22805Y183921D01*
X-22786Y183915D01*
X-22769Y183904D01*
X-22669Y183879D01*
X-22570Y183848D01*
X-22550Y183849D01*
X-22531Y183844D01*
X-22428Y183852D01*
X-22324Y183855D01*
X-22305Y183861D01*
X-22286Y183863D01*
X-22190Y183903D01*
X-22093Y183939D01*
X-22077Y183951D01*
X-22059Y183959D01*
X-21928Y184064D01*
X-21868Y184125D01*
X-18064Y184125D01*
X-18003Y184064D01*
X-17987Y184052D01*
X-17975Y184036D01*
X-17888Y183980D01*
X-17804Y183920D01*
X-17785Y183914D01*
X-17768Y183903D01*
X-17667Y183878D01*
X-17569Y183848D01*
X-17549Y183848D01*
X-17529Y183843D01*
X-17426Y183851D01*
X-17323Y183854D01*
X-17304Y183861D01*
X-17284Y183862D01*
X-17189Y183903D01*
X-17092Y183938D01*
X-17076Y183951D01*
X-17058Y183959D01*
X-16927Y184064D01*
X-16866Y184125D01*
X-13062Y184125D01*
X-13002Y184064D01*
X-12986Y184052D01*
X-12973Y184037D01*
X-12886Y183981D01*
X-12802Y183921D01*
X-12783Y183915D01*
X-12766Y183904D01*
X-12666Y183879D01*
X-12567Y183848D01*
X-12547Y183849D01*
X-12528Y183844D01*
X-12425Y183852D01*
X-12321Y183855D01*
X-12302Y183861D01*
X-12283Y183863D01*
X-12187Y183903D01*
X-12090Y183939D01*
X-12074Y183951D01*
X-12056Y183959D01*
X-11925Y184064D01*
X-11865Y184125D01*
X-10269Y184125D01*
X-10198Y184136D01*
X-10126Y184138D01*
X-10077Y184156D01*
X-10026Y184164D01*
X-9963Y184198D01*
X-9895Y184223D01*
X-9855Y184255D01*
X-9809Y184280D01*
X-9759Y184332D01*
X-9703Y184376D01*
X-9675Y184420D01*
X-9639Y184458D01*
X-9609Y184523D01*
X-9570Y184583D01*
X-9558Y184634D01*
X-9536Y184681D01*
X-9528Y184752D01*
X-9510Y184822D01*
X-9514Y184874D01*
X-9509Y184925D01*
X-9524Y184996D01*
X-9529Y185067D01*
X-9550Y185115D01*
X-9561Y185166D01*
X-9598Y185227D01*
X-9626Y185293D01*
X-9671Y185349D01*
X-9687Y185377D01*
X-9705Y185392D01*
X-9731Y185424D01*
X-10835Y186528D01*
X-10835Y197792D01*
X-9942Y198685D01*
X2322Y198685D01*
X3215Y197792D01*
X3215Y194093D01*
X3229Y194003D01*
X3237Y193912D01*
X3249Y193882D01*
X3254Y193850D01*
X3297Y193770D01*
X3333Y193686D01*
X3359Y193653D01*
X3370Y193633D01*
X3393Y193611D01*
X3438Y193555D01*
X6015Y190978D01*
X7082Y189911D01*
X7098Y189899D01*
X7110Y189883D01*
X7198Y189827D01*
X7281Y189767D01*
X7300Y189761D01*
X7317Y189750D01*
X7418Y189725D01*
X7517Y189695D01*
X7536Y189695D01*
X7556Y189690D01*
X7659Y189698D01*
X7762Y189701D01*
X7781Y189708D01*
X7801Y189710D01*
X7896Y189750D01*
X7993Y189786D01*
X8009Y189798D01*
X8027Y189806D01*
X8158Y189911D01*
X10532Y192285D01*
X10585Y192359D01*
X10645Y192428D01*
X10657Y192458D01*
X10676Y192484D01*
X10703Y192571D01*
X10737Y192656D01*
X10741Y192697D01*
X10748Y192719D01*
X10747Y192752D01*
X10755Y192823D01*
X10755Y197792D01*
X11648Y198685D01*
X22518Y198685D01*
X22538Y198688D01*
X22557Y198686D01*
X22659Y198708D01*
X22761Y198724D01*
X22778Y198734D01*
X22798Y198738D01*
X22887Y198791D01*
X22978Y198840D01*
X22992Y198854D01*
X23009Y198864D01*
X23076Y198943D01*
X23148Y199018D01*
X23156Y199036D01*
X23169Y199051D01*
X23208Y199147D01*
X23251Y199241D01*
X23253Y199261D01*
X23261Y199279D01*
X23279Y199446D01*
X23279Y201874D01*
X23276Y201894D01*
X23278Y201913D01*
X23256Y202015D01*
X23240Y202117D01*
X23230Y202134D01*
X23226Y202154D01*
X23173Y202243D01*
X23124Y202334D01*
X23110Y202348D01*
X23100Y202365D01*
X23021Y202432D01*
X22946Y202504D01*
X22928Y202512D01*
X22913Y202525D01*
X22817Y202564D01*
X22723Y202607D01*
X22703Y202609D01*
X22685Y202617D01*
X22518Y202635D01*
X11648Y202635D01*
X10755Y203528D01*
X10755Y211917D01*
X10741Y212007D01*
X10733Y212098D01*
X10721Y212128D01*
X10716Y212160D01*
X10673Y212240D01*
X10637Y212324D01*
X10611Y212356D01*
X10600Y212377D01*
X10577Y212399D01*
X10532Y212455D01*
X-2595Y225582D01*
X-2669Y225635D01*
X-2738Y225695D01*
X-2768Y225707D01*
X-2794Y225726D01*
X-2881Y225753D01*
X-2966Y225787D01*
X-3007Y225791D01*
X-3029Y225798D01*
X-3062Y225797D01*
X-3133Y225805D01*
X-24412Y225805D01*
X-24432Y225802D01*
X-24451Y225804D01*
X-24553Y225782D01*
X-24655Y225766D01*
X-24672Y225756D01*
X-24692Y225752D01*
X-24781Y225699D01*
X-24872Y225650D01*
X-24886Y225636D01*
X-24903Y225626D01*
X-24970Y225547D01*
X-25042Y225472D01*
X-25050Y225454D01*
X-25063Y225439D01*
X-25102Y225343D01*
X-25145Y225249D01*
X-25147Y225229D01*
X-25155Y225211D01*
X-25162Y225143D01*
X-28282Y222023D01*
X-32678Y222023D01*
X-35787Y225132D01*
X-35787Y229528D01*
X-32678Y232637D01*
X-28282Y232637D01*
X-27263Y231618D01*
X-27189Y231565D01*
X-27119Y231505D01*
X-27089Y231493D01*
X-27063Y231474D01*
X-26976Y231447D01*
X-26891Y231413D01*
X-26850Y231409D01*
X-26828Y231402D01*
X-26796Y231403D01*
X-26725Y231395D01*
X-502Y231395D01*
X1358Y229535D01*
X14985Y215908D01*
X15059Y215855D01*
X15128Y215795D01*
X15158Y215783D01*
X15184Y215764D01*
X15271Y215737D01*
X15356Y215703D01*
X15397Y215699D01*
X15419Y215692D01*
X15452Y215693D01*
X15523Y215685D01*
X22518Y215685D01*
X22538Y215688D01*
X22557Y215686D01*
X22659Y215708D01*
X22761Y215724D01*
X22778Y215734D01*
X22798Y215738D01*
X22887Y215791D01*
X22978Y215840D01*
X22992Y215854D01*
X23009Y215864D01*
X23076Y215943D01*
X23148Y216018D01*
X23156Y216036D01*
X23169Y216051D01*
X23208Y216147D01*
X23251Y216241D01*
X23253Y216261D01*
X23261Y216279D01*
X23279Y216446D01*
X23279Y230432D01*
X45832Y252985D01*
X97845Y252985D01*
X97935Y252999D01*
X98026Y253007D01*
X98055Y253019D01*
X98087Y253024D01*
X98168Y253067D01*
X98252Y253103D01*
X98284Y253129D01*
X98305Y253140D01*
X98327Y253163D01*
X98383Y253208D01*
X100672Y255497D01*
X105068Y255497D01*
X108177Y252388D01*
X108177Y247992D01*
X105068Y244883D01*
X100672Y244883D01*
X98383Y247172D01*
X98309Y247225D01*
X98239Y247285D01*
X98209Y247297D01*
X98183Y247316D01*
X98096Y247343D01*
X98011Y247377D01*
X97970Y247381D01*
X97948Y247388D01*
X97916Y247387D01*
X97845Y247395D01*
X48463Y247395D01*
X48373Y247381D01*
X48282Y247373D01*
X48252Y247361D01*
X48220Y247356D01*
X48140Y247313D01*
X48056Y247277D01*
X48024Y247251D01*
X48003Y247240D01*
X47981Y247217D01*
X47925Y247172D01*
X40679Y239926D01*
X40637Y239868D01*
X40587Y239816D01*
X40565Y239769D01*
X40535Y239726D01*
X40514Y239658D01*
X40484Y239593D01*
X40478Y239541D01*
X40463Y239491D01*
X40465Y239420D01*
X40457Y239348D01*
X40468Y239298D01*
X40469Y239246D01*
X40494Y239178D01*
X40509Y239108D01*
X40536Y239063D01*
X40553Y239014D01*
X40598Y238958D01*
X40635Y238897D01*
X40675Y238863D01*
X40707Y238822D01*
X40767Y238784D01*
X40822Y238737D01*
X40870Y238718D01*
X40914Y238689D01*
X40984Y238672D01*
X41050Y238645D01*
X41121Y238637D01*
X41153Y238629D01*
X41176Y238631D01*
X41217Y238627D01*
X104133Y238627D01*
X104134Y238627D01*
X104135Y238627D01*
X104255Y238647D01*
X104376Y238666D01*
X104376Y238667D01*
X104377Y238667D01*
X104486Y238725D01*
X104593Y238781D01*
X104594Y238782D01*
X104631Y238821D01*
X104677Y238841D01*
X104706Y238860D01*
X104738Y238871D01*
X104809Y238926D01*
X104883Y238974D01*
X104905Y239001D01*
X104932Y239023D01*
X105032Y239158D01*
X106134Y241066D01*
X106147Y241099D01*
X106166Y241128D01*
X106190Y241213D01*
X106221Y241296D01*
X106223Y241331D01*
X106232Y241365D01*
X106232Y241444D01*
X106633Y241947D01*
X106646Y241970D01*
X106663Y241988D01*
X106672Y242006D01*
X106697Y242041D01*
X107018Y242595D01*
X107080Y242631D01*
X107161Y242667D01*
X107187Y242691D01*
X107217Y242708D01*
X107335Y242827D01*
X108710Y244550D01*
X108727Y244580D01*
X108751Y244605D01*
X108787Y244686D01*
X108830Y244764D01*
X108837Y244798D01*
X108851Y244830D01*
X108863Y244908D01*
X109335Y245346D01*
X109355Y245372D01*
X109412Y245429D01*
X109812Y245930D01*
X109878Y245955D01*
X109964Y245979D01*
X109993Y245999D01*
X110025Y246011D01*
X110160Y246111D01*
X111776Y247610D01*
X111797Y247637D01*
X111825Y247659D01*
X111873Y247734D01*
X111927Y247804D01*
X111939Y247837D01*
X111957Y247866D01*
X111981Y247942D01*
X112513Y248304D01*
X112537Y248327D01*
X112602Y248375D01*
X113071Y248811D01*
X113141Y248826D01*
X113230Y248837D01*
X113261Y248852D01*
X113295Y248859D01*
X113443Y248938D01*
X113898Y249248D01*
X113981Y249327D01*
X114066Y249404D01*
X114070Y249412D01*
X114076Y249418D01*
X114130Y249519D01*
X114185Y249619D01*
X114187Y249627D01*
X114191Y249635D01*
X114210Y249748D01*
X114230Y249861D01*
X114229Y249869D01*
X114231Y249878D01*
X114212Y249991D01*
X114196Y250104D01*
X114192Y250114D01*
X114191Y250121D01*
X114180Y250141D01*
X114129Y250258D01*
X95318Y282839D01*
X97076Y283671D01*
X97098Y283688D01*
X97125Y283698D01*
X97177Y283747D01*
X97235Y283790D01*
X97249Y283815D01*
X97270Y283834D01*
X97299Y283900D01*
X97335Y283962D01*
X97338Y283990D01*
X97350Y284016D01*
X97351Y284088D01*
X97360Y284159D01*
X97352Y284186D01*
X97353Y284215D01*
X97317Y284310D01*
X97306Y284350D01*
X97299Y284359D01*
X97295Y284371D01*
X87795Y300871D01*
X87743Y300930D01*
X87697Y300992D01*
X87678Y301003D01*
X87663Y301020D01*
X87593Y301054D01*
X87526Y301094D01*
X87502Y301098D01*
X87484Y301106D01*
X87439Y301108D01*
X87362Y301121D01*
X68362Y301121D01*
X68334Y301116D01*
X68306Y301118D01*
X68238Y301096D01*
X68167Y301082D01*
X68144Y301066D01*
X68117Y301057D01*
X68062Y301010D01*
X68003Y300969D01*
X67988Y300945D01*
X67967Y300927D01*
X67935Y300862D01*
X67896Y300802D01*
X67891Y300774D01*
X67879Y300748D01*
X67870Y300647D01*
X67863Y300605D01*
X67865Y300595D01*
X67864Y300582D01*
X68020Y298621D01*
X-66496Y298621D01*
X-66340Y300582D01*
X-66344Y300611D01*
X-66339Y300639D01*
X-66356Y300708D01*
X-66364Y300780D01*
X-66379Y300804D01*
X-66385Y300832D01*
X-66428Y300890D01*
X-66464Y300952D01*
X-66486Y300969D01*
X-66503Y300992D01*
X-66565Y301029D01*
X-66622Y301072D01*
X-66650Y301079D01*
X-66674Y301094D01*
X-66774Y301110D01*
X-66815Y301121D01*
X-66825Y301119D01*
X-66838Y301121D01*
X-85838Y301121D01*
X-85914Y301106D01*
X-85992Y301097D01*
X-86011Y301086D01*
X-86033Y301082D01*
X-86097Y301038D01*
X-86165Y300999D01*
X-86181Y300980D01*
X-86197Y300969D01*
X-86221Y300931D01*
X-86271Y300871D01*
X-95771Y284371D01*
X-95780Y284344D01*
X-95796Y284320D01*
X-95811Y284250D01*
X-95834Y284182D01*
X-95831Y284154D01*
X-95837Y284126D01*
X-95824Y284056D01*
X-95818Y283984D01*
X-95805Y283959D01*
X-95799Y283931D01*
X-95759Y283871D01*
X-95726Y283808D01*
X-95704Y283790D01*
X-95688Y283766D01*
X-95605Y283708D01*
X-95573Y283681D01*
X-95562Y283678D01*
X-95552Y283671D01*
X-93794Y282839D01*
X-112605Y250258D01*
X-112645Y250151D01*
X-112688Y250045D01*
X-112689Y250036D01*
X-112692Y250028D01*
X-112696Y249914D01*
X-112703Y249799D01*
X-112700Y249791D01*
X-112701Y249782D01*
X-112668Y249672D01*
X-112638Y249562D01*
X-112633Y249555D01*
X-112631Y249546D01*
X-112565Y249452D01*
X-112501Y249357D01*
X-112493Y249351D01*
X-112489Y249345D01*
X-112471Y249331D01*
X-112374Y249248D01*
X-111919Y248938D01*
X-111887Y248923D01*
X-111860Y248902D01*
X-111776Y248872D01*
X-111696Y248834D01*
X-111661Y248830D01*
X-111629Y248819D01*
X-111550Y248813D01*
X-111078Y248375D01*
X-111050Y248357D01*
X-110989Y248304D01*
X-110459Y247944D01*
X-110429Y247879D01*
X-110398Y247795D01*
X-110377Y247768D01*
X-110362Y247737D01*
X-110252Y247610D01*
X-108636Y246111D01*
X-108607Y246092D01*
X-108583Y246067D01*
X-108505Y246024D01*
X-108431Y245975D01*
X-108398Y245966D01*
X-108367Y245950D01*
X-108290Y245932D01*
X-107888Y245429D01*
X-107864Y245407D01*
X-107811Y245346D01*
X-107341Y244911D01*
X-107321Y244842D01*
X-107303Y244755D01*
X-107286Y244725D01*
X-107276Y244691D01*
X-107186Y244550D01*
X-105811Y242827D01*
X-105786Y242803D01*
X-105766Y242775D01*
X-105695Y242721D01*
X-105629Y242662D01*
X-105597Y242648D01*
X-105569Y242627D01*
X-105495Y242598D01*
X-105173Y242041D01*
X-105152Y242015D01*
X-105109Y241947D01*
X-104710Y241446D01*
X-104700Y241376D01*
X-104695Y241287D01*
X-104683Y241254D01*
X-104678Y241220D01*
X-104610Y241066D01*
X-103508Y239158D01*
X-103486Y239131D01*
X-103470Y239100D01*
X-103408Y239037D01*
X-103352Y238968D01*
X-103322Y238949D01*
X-103298Y238924D01*
X-103229Y238885D01*
X-102994Y238286D01*
X-102977Y238257D01*
X-102945Y238183D01*
X-102624Y237629D01*
X-102625Y237557D01*
X-102634Y237469D01*
X-102626Y237435D01*
X-102626Y237400D01*
X-102582Y237238D01*
X-101776Y235187D01*
X-101759Y235157D01*
X-101748Y235124D01*
X-101696Y235052D01*
X-101651Y234975D01*
X-101624Y234953D01*
X-101604Y234925D01*
X-101542Y234875D01*
X-101398Y234248D01*
X-101386Y234217D01*
X-101365Y234139D01*
X-101131Y233543D01*
X-101142Y233472D01*
X-101164Y233386D01*
X-101161Y233351D01*
X-101167Y233317D01*
X-101148Y233151D01*
X-100657Y231002D01*
X-100643Y230970D01*
X-100638Y230935D01*
X-100597Y230856D01*
X-100564Y230774D01*
X-100541Y230748D01*
X-100525Y230717D01*
X-100471Y230659D01*
X-100423Y230017D01*
X-100415Y229985D01*
X-100406Y229905D01*
X-100263Y229280D01*
X-100285Y229212D01*
X-100319Y229130D01*
X-100322Y229095D01*
X-100332Y229062D01*
X-100338Y228895D01*
X-100173Y226697D01*
X-100165Y226663D01*
X-100165Y226628D01*
X-100136Y226544D01*
X-100115Y226458D01*
X-100096Y226428D01*
X-100085Y226396D01*
X-100040Y226330D01*
X-100088Y225688D01*
X-100085Y225655D01*
X-100086Y225633D01*
X-100087Y225630D01*
X-100086Y225628D01*
X-100088Y225574D01*
X-100040Y224936D01*
X-100072Y224871D01*
X-100118Y224796D01*
X-100126Y224762D01*
X-100141Y224731D01*
X-100172Y224566D01*
X-100336Y222368D01*
X-100333Y222333D01*
X-100338Y222299D01*
X-100322Y222211D01*
X-100315Y222123D01*
X-100301Y222091D01*
X-100295Y222057D01*
X-100260Y221985D01*
X-100403Y221358D01*
X-100405Y221325D01*
X-100420Y221245D01*
X-100468Y220607D01*
X-100508Y220548D01*
X-100566Y220480D01*
X-100578Y220447D01*
X-100598Y220419D01*
X-100653Y220260D01*
X-101143Y218111D01*
X-101145Y218077D01*
X-101155Y218044D01*
X-101153Y217955D01*
X-101158Y217866D01*
X-101149Y217832D01*
X-101148Y217798D01*
X-101124Y217722D01*
X-101359Y217123D01*
X-101366Y217090D01*
X-101393Y217014D01*
X-101535Y216390D01*
X-101584Y216338D01*
X-101651Y216279D01*
X-101668Y216249D01*
X-101692Y216223D01*
X-101770Y216075D01*
X-102575Y214023D01*
X-102582Y213989D01*
X-102597Y213958D01*
X-102608Y213869D01*
X-102627Y213782D01*
X-102623Y213748D01*
X-102627Y213714D01*
X-102615Y213635D01*
X-102936Y213077D01*
X-102948Y213047D01*
X-102986Y212975D01*
X-103220Y212379D01*
X-103276Y212335D01*
X-103351Y212286D01*
X-103372Y212259D01*
X-103400Y212238D01*
X-103499Y212103D01*
X-104600Y210193D01*
X-104613Y210161D01*
X-104632Y210132D01*
X-104656Y210046D01*
X-104687Y209963D01*
X-104689Y209929D01*
X-104698Y209895D01*
X-104698Y209816D01*
X-105099Y209312D01*
X-105115Y209284D01*
X-105163Y209218D01*
X-105483Y208664D01*
X-105545Y208628D01*
X-105626Y208592D01*
X-105652Y208568D01*
X-105682Y208551D01*
X-105800Y208432D01*
X-107174Y206709D01*
X-107191Y206678D01*
X-107214Y206653D01*
X-107251Y206571D01*
X-107294Y206494D01*
X-107301Y206460D01*
X-107315Y206428D01*
X-107326Y206350D01*
X-107798Y205912D01*
X-107818Y205886D01*
X-107875Y205828D01*
X-108275Y205327D01*
X-108342Y205302D01*
X-108427Y205278D01*
X-108456Y205258D01*
X-108488Y205246D01*
X-108623Y205146D01*
X-110238Y203646D01*
X-110260Y203619D01*
X-110287Y203597D01*
X-110334Y203522D01*
X-110389Y203452D01*
X-110401Y203419D01*
X-110419Y203390D01*
X-110442Y203314D01*
X-110974Y202951D01*
X-110998Y202929D01*
X-111063Y202880D01*
X-111532Y202445D01*
X-111602Y202429D01*
X-111691Y202418D01*
X-111722Y202403D01*
X-111756Y202396D01*
X-111904Y202317D01*
X-113725Y201075D01*
X-113750Y201051D01*
X-113780Y201033D01*
X-113838Y200967D01*
X-113903Y200905D01*
X-113919Y200875D01*
X-113942Y200848D01*
X-113976Y200777D01*
X-114556Y200497D01*
X-114583Y200478D01*
X-114654Y200440D01*
X-115237Y200043D01*
X-115265Y200016D01*
X-115299Y199996D01*
X-115354Y199932D01*
X-115415Y199873D01*
X-115433Y199839D01*
X-115459Y199809D01*
X-115491Y199730D01*
X-115530Y199656D01*
X-115536Y199617D01*
X-115551Y199581D01*
X-115569Y199414D01*
X-115569Y120349D01*
X-115555Y120259D01*
X-115547Y120168D01*
X-115535Y120139D01*
X-115530Y120107D01*
X-115487Y120026D01*
X-115451Y119942D01*
X-115425Y119910D01*
X-115414Y119889D01*
X-115391Y119867D01*
X-115346Y119811D01*
X-100179Y104644D01*
X-100105Y104591D01*
X-100036Y104531D01*
X-100005Y104519D01*
X-99979Y104500D01*
X-99892Y104473D01*
X-99807Y104439D01*
X-99766Y104435D01*
X-99744Y104428D01*
X-99712Y104429D01*
X-99641Y104421D01*
X-24013Y104421D01*
X-23923Y104435D01*
G37*
G36*
X87438Y138D02*
X87438Y138D01*
X87516Y147D01*
X87535Y158D01*
X87557Y162D01*
X87621Y206D01*
X87689Y245D01*
X87705Y264D01*
X87721Y275D01*
X87745Y313D01*
X87795Y373D01*
X97295Y16873D01*
X97304Y16900D01*
X97320Y16924D01*
X97335Y16994D01*
X97358Y17062D01*
X97355Y17090D01*
X97361Y17118D01*
X97348Y17189D01*
X97342Y17260D01*
X97329Y17285D01*
X97323Y17313D01*
X97283Y17373D01*
X97250Y17436D01*
X97228Y17454D01*
X97212Y17478D01*
X97129Y17536D01*
X97097Y17563D01*
X97086Y17566D01*
X97076Y17573D01*
X95318Y18405D01*
X114129Y50986D01*
X114169Y51094D01*
X114177Y51112D01*
X114189Y51138D01*
X114189Y51143D01*
X114212Y51199D01*
X114213Y51208D01*
X114216Y51216D01*
X114220Y51330D01*
X114227Y51445D01*
X114224Y51453D01*
X114225Y51462D01*
X114192Y51572D01*
X114162Y51682D01*
X114157Y51689D01*
X114155Y51698D01*
X114089Y51792D01*
X114025Y51887D01*
X114017Y51893D01*
X114013Y51899D01*
X113995Y51913D01*
X113898Y51996D01*
X113443Y52306D01*
X113411Y52321D01*
X113384Y52342D01*
X113301Y52372D01*
X113220Y52410D01*
X113185Y52414D01*
X113153Y52425D01*
X113074Y52431D01*
X112602Y52869D01*
X112574Y52887D01*
X112513Y52940D01*
X111983Y53300D01*
X111953Y53365D01*
X111922Y53449D01*
X111901Y53476D01*
X111886Y53507D01*
X111776Y53634D01*
X110160Y55133D01*
X110131Y55152D01*
X110107Y55177D01*
X110029Y55219D01*
X109955Y55269D01*
X109921Y55278D01*
X109891Y55294D01*
X109814Y55312D01*
X109412Y55815D01*
X109388Y55837D01*
X109335Y55898D01*
X108865Y56334D01*
X108845Y56402D01*
X108827Y56489D01*
X108810Y56519D01*
X108800Y56553D01*
X108710Y56694D01*
X107335Y58417D01*
X107310Y58441D01*
X107290Y58469D01*
X107219Y58523D01*
X107153Y58582D01*
X107121Y58596D01*
X107093Y58617D01*
X107019Y58646D01*
X106697Y59203D01*
X106676Y59229D01*
X106633Y59297D01*
X106234Y59798D01*
X106224Y59868D01*
X106219Y59957D01*
X106207Y59990D01*
X106202Y60024D01*
X106134Y60178D01*
X105032Y62086D01*
X105010Y62113D01*
X104994Y62144D01*
X104932Y62207D01*
X104876Y62276D01*
X104846Y62295D01*
X104822Y62320D01*
X104753Y62359D01*
X104518Y62958D01*
X104501Y62987D01*
X104469Y63061D01*
X104148Y63615D01*
X104149Y63687D01*
X104158Y63775D01*
X104150Y63809D01*
X104150Y63844D01*
X104106Y64006D01*
X103594Y65310D01*
X103567Y65356D01*
X103549Y65406D01*
X103504Y65461D01*
X103468Y65522D01*
X103428Y65556D01*
X103395Y65598D01*
X103335Y65636D01*
X103282Y65682D01*
X103232Y65702D01*
X103188Y65731D01*
X103119Y65748D01*
X103054Y65775D01*
X103001Y65778D01*
X102950Y65791D01*
X102879Y65785D01*
X102808Y65789D01*
X102757Y65776D01*
X102704Y65772D01*
X102639Y65744D01*
X102571Y65725D01*
X102527Y65696D01*
X102478Y65675D01*
X102390Y65605D01*
X102366Y65589D01*
X102360Y65580D01*
X102347Y65570D01*
X99692Y62915D01*
X95295Y62915D01*
X92187Y66024D01*
X92187Y70420D01*
X95295Y73528D01*
X98533Y73528D01*
X98623Y73543D01*
X98714Y73550D01*
X98743Y73563D01*
X98775Y73568D01*
X98856Y73611D01*
X98940Y73647D01*
X98972Y73672D01*
X98993Y73683D01*
X99015Y73707D01*
X99071Y73751D01*
X101322Y76002D01*
X101376Y76078D01*
X101514Y76238D01*
X101532Y76268D01*
X101557Y76293D01*
X101596Y76373D01*
X101642Y76448D01*
X101650Y76482D01*
X101665Y76513D01*
X101696Y76678D01*
X101860Y78876D01*
X101857Y78911D01*
X101862Y78945D01*
X101846Y79033D01*
X101839Y79121D01*
X101825Y79153D01*
X101819Y79187D01*
X101784Y79259D01*
X101927Y79886D01*
X101929Y79919D01*
X101944Y79999D01*
X101992Y80637D01*
X102032Y80696D01*
X102090Y80764D01*
X102102Y80797D01*
X102122Y80825D01*
X102177Y80984D01*
X102667Y83133D01*
X102669Y83167D01*
X102679Y83200D01*
X102677Y83289D01*
X102682Y83378D01*
X102673Y83412D01*
X102672Y83446D01*
X102648Y83522D01*
X102883Y84121D01*
X102890Y84154D01*
X102917Y84230D01*
X103059Y84854D01*
X103108Y84906D01*
X103175Y84965D01*
X103192Y84995D01*
X103216Y85021D01*
X103294Y85169D01*
X104099Y87221D01*
X104106Y87255D01*
X104121Y87286D01*
X104132Y87375D01*
X104151Y87462D01*
X104147Y87496D01*
X104151Y87531D01*
X104139Y87609D01*
X104460Y88167D01*
X104472Y88197D01*
X104510Y88269D01*
X104744Y88865D01*
X104800Y88909D01*
X104875Y88958D01*
X104896Y88985D01*
X104924Y89006D01*
X105023Y89141D01*
X106124Y91051D01*
X106137Y91083D01*
X106156Y91112D01*
X106180Y91198D01*
X106211Y91281D01*
X106213Y91315D01*
X106222Y91349D01*
X106222Y91428D01*
X106623Y91932D01*
X106639Y91960D01*
X106687Y92026D01*
X107007Y92580D01*
X107069Y92616D01*
X107150Y92652D01*
X107176Y92676D01*
X107206Y92693D01*
X107324Y92812D01*
X108698Y94535D01*
X108715Y94566D01*
X108738Y94591D01*
X108775Y94673D01*
X108818Y94750D01*
X108825Y94784D01*
X108839Y94816D01*
X108850Y94894D01*
X109322Y95332D01*
X109342Y95358D01*
X109399Y95416D01*
X109799Y95917D01*
X109866Y95942D01*
X109951Y95966D01*
X109980Y95986D01*
X110012Y95998D01*
X110147Y96098D01*
X111762Y97598D01*
X111783Y97625D01*
X111810Y97647D01*
X111858Y97722D01*
X111913Y97792D01*
X111924Y97825D01*
X111943Y97854D01*
X111966Y97930D01*
X112498Y98293D01*
X112522Y98315D01*
X112587Y98364D01*
X113056Y98799D01*
X113126Y98815D01*
X113215Y98826D01*
X113246Y98841D01*
X113280Y98848D01*
X113428Y98927D01*
X115249Y100169D01*
X115274Y100193D01*
X115304Y100211D01*
X115362Y100277D01*
X115427Y100339D01*
X115443Y100369D01*
X115466Y100396D01*
X115500Y100467D01*
X116080Y100747D01*
X116107Y100765D01*
X116178Y100804D01*
X116707Y101164D01*
X116779Y101169D01*
X116868Y101167D01*
X116901Y101177D01*
X116936Y101180D01*
X117094Y101235D01*
X119079Y102192D01*
X119108Y102212D01*
X119140Y102225D01*
X119208Y102282D01*
X119281Y102333D01*
X119301Y102361D01*
X119328Y102384D01*
X119372Y102449D01*
X119987Y102639D01*
X120017Y102654D01*
X120093Y102681D01*
X120670Y102959D01*
X120742Y102953D01*
X120829Y102938D01*
X120863Y102943D01*
X120898Y102940D01*
X121063Y102971D01*
X123169Y103622D01*
X123200Y103637D01*
X123234Y103645D01*
X123310Y103692D01*
X123389Y103731D01*
X123413Y103756D01*
X123443Y103774D01*
X123497Y103832D01*
X124133Y103929D01*
X124165Y103939D01*
X124244Y103954D01*
X124856Y104143D01*
X124926Y104126D01*
X125010Y104098D01*
X125045Y104098D01*
X125079Y104090D01*
X125246Y104097D01*
X127426Y104426D01*
X127459Y104437D01*
X127493Y104439D01*
X127575Y104474D01*
X127660Y104501D01*
X127688Y104522D01*
X127720Y104536D01*
X127781Y104585D01*
X128425Y104585D01*
X128458Y104591D01*
X128539Y104594D01*
X129172Y104690D01*
X129238Y104663D01*
X129317Y104622D01*
X129352Y104617D01*
X129384Y104604D01*
X129551Y104586D01*
X131755Y104587D01*
X131789Y104592D01*
X131824Y104590D01*
X131910Y104612D01*
X131997Y104626D01*
X132028Y104643D01*
X132062Y104651D01*
X132130Y104691D01*
X132767Y104595D01*
X132800Y104596D01*
X132880Y104587D01*
X133521Y104587D01*
X133583Y104551D01*
X133655Y104499D01*
X133688Y104489D01*
X133718Y104471D01*
X133880Y104428D01*
X136060Y104100D01*
X136094Y104101D01*
X136128Y104093D01*
X136217Y104102D01*
X136305Y104103D01*
X136338Y104115D01*
X136373Y104118D01*
X136447Y104148D01*
X137062Y103958D01*
X137094Y103954D01*
X137172Y103933D01*
X137806Y103838D01*
X137862Y103792D01*
X137925Y103730D01*
X137956Y103715D01*
X137983Y103693D01*
X138137Y103627D01*
X140244Y102978D01*
X140278Y102973D01*
X140310Y102960D01*
X140399Y102956D01*
X140487Y102944D01*
X140521Y102951D01*
X140556Y102949D01*
X140633Y102967D01*
X141213Y102688D01*
X141245Y102678D01*
X141319Y102646D01*
X141931Y102458D01*
X141980Y102405D01*
X142033Y102334D01*
X142062Y102314D01*
X142085Y102289D01*
X142228Y102200D01*
X142740Y101953D01*
X142849Y101921D01*
X142959Y101886D01*
X142968Y101886D01*
X142976Y101884D01*
X143091Y101888D01*
X143205Y101890D01*
X143213Y101893D01*
X143222Y101893D01*
X143329Y101934D01*
X143437Y101972D01*
X143444Y101977D01*
X143452Y101980D01*
X143541Y102053D01*
X143630Y102123D01*
X143637Y102132D01*
X143642Y102136D01*
X143655Y102156D01*
X143730Y102258D01*
X162541Y134841D01*
X164178Y133711D01*
X164205Y133700D01*
X164227Y133681D01*
X164296Y133661D01*
X164361Y133633D01*
X164390Y133633D01*
X164418Y133625D01*
X164489Y133633D01*
X164560Y133633D01*
X164587Y133644D01*
X164616Y133647D01*
X164678Y133682D01*
X164743Y133710D01*
X164764Y133730D01*
X164789Y133745D01*
X164852Y133822D01*
X164882Y133852D01*
X164886Y133862D01*
X164895Y133873D01*
X174395Y150373D01*
X174405Y150405D01*
X174414Y150418D01*
X174418Y150442D01*
X174419Y150446D01*
X174450Y150516D01*
X174450Y150540D01*
X174458Y150562D01*
X174452Y150638D01*
X174453Y150715D01*
X174443Y150739D01*
X174442Y150760D01*
X174421Y150799D01*
X174395Y150871D01*
X164895Y167371D01*
X164876Y167393D01*
X164863Y167419D01*
X164810Y167467D01*
X164763Y167520D01*
X164737Y167533D01*
X164716Y167552D01*
X164648Y167575D01*
X164584Y167606D01*
X164555Y167608D01*
X164528Y167617D01*
X164456Y167612D01*
X164385Y167615D01*
X164358Y167605D01*
X164329Y167603D01*
X164239Y167561D01*
X164199Y167546D01*
X164191Y167539D01*
X164178Y167533D01*
X162541Y166403D01*
X143730Y198986D01*
X143657Y199075D01*
X143587Y199164D01*
X143580Y199169D01*
X143574Y199176D01*
X143476Y199237D01*
X143382Y199300D01*
X143373Y199302D01*
X143366Y199307D01*
X143254Y199334D01*
X143144Y199363D01*
X143135Y199362D01*
X143127Y199364D01*
X143013Y199354D01*
X142899Y199347D01*
X142889Y199343D01*
X142882Y199343D01*
X142860Y199333D01*
X142740Y199291D01*
X142228Y199044D01*
X142199Y199024D01*
X142167Y199012D01*
X142099Y198954D01*
X142026Y198903D01*
X142006Y198875D01*
X141979Y198853D01*
X141934Y198787D01*
X141319Y198598D01*
X141290Y198583D01*
X141213Y198556D01*
X140636Y198279D01*
X140565Y198285D01*
X140477Y198300D01*
X140443Y198295D01*
X140409Y198298D01*
X140244Y198266D01*
X138137Y197617D01*
X138106Y197602D01*
X138072Y197594D01*
X137997Y197548D01*
X137917Y197508D01*
X137892Y197483D01*
X137863Y197465D01*
X137809Y197407D01*
X137173Y197311D01*
X137141Y197301D01*
X137062Y197286D01*
X136450Y197097D01*
X136380Y197114D01*
X136296Y197142D01*
X136261Y197142D01*
X136227Y197150D01*
X136060Y197144D01*
X133880Y196816D01*
X133847Y196805D01*
X133812Y196803D01*
X133730Y196768D01*
X133646Y196741D01*
X133618Y196720D01*
X133586Y196706D01*
X133524Y196657D01*
X132880Y196657D01*
X132848Y196652D01*
X132767Y196649D01*
X132134Y196553D01*
X132067Y196580D01*
X131988Y196621D01*
X131954Y196626D01*
X131921Y196639D01*
X131755Y196657D01*
X129551Y196658D01*
X129516Y196653D01*
X129482Y196655D01*
X129396Y196633D01*
X129308Y196619D01*
X129277Y196602D01*
X129244Y196594D01*
X129175Y196554D01*
X128539Y196650D01*
X128506Y196650D01*
X128425Y196659D01*
X127785Y196659D01*
X127723Y196695D01*
X127651Y196747D01*
X127618Y196757D01*
X127588Y196775D01*
X127426Y196818D01*
X125246Y197147D01*
X125211Y197147D01*
X125178Y197155D01*
X125089Y197145D01*
X125000Y197144D01*
X124968Y197133D01*
X124933Y197129D01*
X124859Y197100D01*
X124244Y197290D01*
X124212Y197295D01*
X124133Y197315D01*
X123500Y197411D01*
X123445Y197456D01*
X123381Y197518D01*
X123350Y197533D01*
X123323Y197555D01*
X123169Y197622D01*
X121063Y198273D01*
X121028Y198277D01*
X120996Y198290D01*
X120907Y198294D01*
X120819Y198306D01*
X120785Y198300D01*
X120750Y198301D01*
X120673Y198284D01*
X120093Y198563D01*
X120062Y198572D01*
X119987Y198605D01*
X119375Y198794D01*
X119327Y198847D01*
X119273Y198918D01*
X119245Y198937D01*
X119221Y198963D01*
X119079Y199052D01*
X117094Y200009D01*
X117061Y200019D01*
X117030Y200036D01*
X116943Y200053D01*
X116858Y200078D01*
X116823Y200077D01*
X116789Y200084D01*
X116710Y200078D01*
X116178Y200440D01*
X116148Y200454D01*
X116080Y200497D01*
X115503Y200775D01*
X115463Y200835D01*
X115421Y200913D01*
X115395Y200937D01*
X115376Y200966D01*
X115249Y201075D01*
X113428Y202317D01*
X113396Y202332D01*
X113369Y202353D01*
X113286Y202383D01*
X113205Y202421D01*
X113170Y202425D01*
X113138Y202437D01*
X113059Y202442D01*
X112587Y202880D01*
X112560Y202899D01*
X112498Y202951D01*
X111969Y203312D01*
X111939Y203377D01*
X111908Y203461D01*
X111887Y203488D01*
X111872Y203519D01*
X111762Y203646D01*
X110147Y205146D01*
X110118Y205165D01*
X110094Y205190D01*
X110016Y205233D01*
X109942Y205282D01*
X109909Y205291D01*
X109878Y205307D01*
X109801Y205325D01*
X109399Y205828D01*
X109375Y205851D01*
X109322Y205912D01*
X108853Y206347D01*
X108832Y206416D01*
X108815Y206503D01*
X108797Y206533D01*
X108787Y206567D01*
X108698Y206709D01*
X107324Y208432D01*
X107299Y208455D01*
X107279Y208484D01*
X107208Y208538D01*
X107142Y208597D01*
X107110Y208611D01*
X107082Y208632D01*
X107008Y208661D01*
X106687Y209218D01*
X106666Y209244D01*
X106623Y209312D01*
X106224Y209813D01*
X106214Y209884D01*
X106209Y209973D01*
X106197Y210005D01*
X106192Y210040D01*
X106124Y210193D01*
X105023Y212103D01*
X105001Y212129D01*
X104986Y212161D01*
X104923Y212224D01*
X104867Y212293D01*
X104838Y212311D01*
X104814Y212336D01*
X104745Y212376D01*
X104510Y212975D01*
X104493Y213003D01*
X104492Y213006D01*
X104491Y213008D01*
X104490Y213009D01*
X104460Y213077D01*
X104140Y213632D01*
X104141Y213704D01*
X104150Y213792D01*
X104142Y213826D01*
X104143Y213861D01*
X104099Y214023D01*
X103294Y216075D01*
X103277Y216105D01*
X103266Y216138D01*
X103214Y216210D01*
X103169Y216286D01*
X103142Y216309D01*
X103122Y216337D01*
X103060Y216386D01*
X102917Y217014D01*
X102905Y217045D01*
X102883Y217123D01*
X102650Y217719D01*
X102661Y217790D01*
X102683Y217876D01*
X102680Y217910D01*
X102686Y217945D01*
X102667Y218111D01*
X102177Y220260D01*
X102164Y220292D01*
X102159Y220327D01*
X102118Y220406D01*
X102084Y220488D01*
X102062Y220515D01*
X102046Y220545D01*
X101992Y220603D01*
X101944Y221245D01*
X101936Y221277D01*
X101927Y221358D01*
X101785Y221982D01*
X101806Y222050D01*
X101841Y222132D01*
X101844Y222167D01*
X101854Y222200D01*
X101860Y222368D01*
X101696Y224566D01*
X101688Y224599D01*
X101688Y224634D01*
X101659Y224719D01*
X101638Y224805D01*
X101620Y224834D01*
X101609Y224867D01*
X101564Y224933D01*
X101612Y225574D01*
X101609Y225607D01*
X101612Y225688D01*
X101565Y226327D01*
X101596Y226391D01*
X101643Y226467D01*
X101651Y226501D01*
X101666Y226532D01*
X101697Y226697D01*
X101862Y228895D01*
X101859Y228929D01*
X101864Y228964D01*
X101849Y229051D01*
X101841Y229140D01*
X101827Y229172D01*
X101821Y229206D01*
X101786Y229277D01*
X101930Y229905D01*
X101932Y229938D01*
X101947Y230017D01*
X101995Y230656D01*
X102036Y230714D01*
X102093Y230783D01*
X102106Y230815D01*
X102125Y230843D01*
X102181Y231002D01*
X102433Y232106D01*
X102440Y232211D01*
X102451Y232315D01*
X102447Y232333D01*
X102448Y232352D01*
X102421Y232453D01*
X102399Y232556D01*
X102389Y232572D01*
X102385Y232589D01*
X102327Y232677D01*
X102273Y232767D01*
X102259Y232779D01*
X102248Y232794D01*
X102166Y232858D01*
X102086Y232927D01*
X102069Y232934D01*
X102054Y232945D01*
X101955Y232979D01*
X101858Y233019D01*
X101835Y233021D01*
X101822Y233026D01*
X101790Y233026D01*
X101691Y233037D01*
X42995Y233037D01*
X42905Y233022D01*
X42814Y233015D01*
X42784Y233003D01*
X42752Y232997D01*
X42672Y232955D01*
X42588Y232919D01*
X42555Y232893D01*
X42535Y232882D01*
X42513Y232859D01*
X42457Y232814D01*
X39035Y229392D01*
X38993Y229334D01*
X38943Y229282D01*
X38921Y229235D01*
X38891Y229193D01*
X38870Y229124D01*
X38840Y229059D01*
X38834Y229007D01*
X38819Y228957D01*
X38821Y228886D01*
X38813Y228815D01*
X38824Y228764D01*
X38825Y228712D01*
X38850Y228644D01*
X38865Y228574D01*
X38892Y228529D01*
X38910Y228481D01*
X38954Y228425D01*
X38991Y228363D01*
X39031Y228329D01*
X39063Y228289D01*
X39124Y228250D01*
X39178Y228203D01*
X39226Y228184D01*
X39270Y228156D01*
X39340Y228138D01*
X39406Y228111D01*
X39478Y228103D01*
X39509Y228095D01*
X39532Y228097D01*
X39573Y228093D01*
X65389Y228093D01*
X72874Y220608D01*
X72948Y220555D01*
X73017Y220495D01*
X73047Y220483D01*
X73074Y220464D01*
X73161Y220437D01*
X73245Y220403D01*
X73286Y220399D01*
X73309Y220392D01*
X73341Y220393D01*
X73412Y220385D01*
X76362Y220385D01*
X77255Y219492D01*
X77255Y207228D01*
X76362Y206335D01*
X65098Y206335D01*
X64205Y207228D01*
X64205Y219492D01*
X64248Y219534D01*
X64259Y219550D01*
X64275Y219563D01*
X64331Y219650D01*
X64391Y219734D01*
X64397Y219753D01*
X64408Y219770D01*
X64433Y219870D01*
X64464Y219969D01*
X64463Y219989D01*
X64468Y220008D01*
X64460Y220111D01*
X64457Y220215D01*
X64450Y220233D01*
X64449Y220253D01*
X64408Y220348D01*
X64373Y220446D01*
X64360Y220461D01*
X64353Y220480D01*
X64248Y220611D01*
X63086Y221772D01*
X63012Y221825D01*
X62943Y221885D01*
X62913Y221897D01*
X62886Y221916D01*
X62799Y221943D01*
X62715Y221977D01*
X62674Y221981D01*
X62651Y221988D01*
X62619Y221987D01*
X62548Y221995D01*
X42898Y221995D01*
X42878Y221992D01*
X42859Y221994D01*
X42757Y221972D01*
X42655Y221956D01*
X42638Y221946D01*
X42618Y221942D01*
X42529Y221889D01*
X42438Y221840D01*
X42424Y221826D01*
X42407Y221816D01*
X42340Y221737D01*
X42268Y221662D01*
X42260Y221644D01*
X42247Y221629D01*
X42208Y221533D01*
X42165Y221439D01*
X42163Y221419D01*
X42155Y221401D01*
X42137Y221234D01*
X42137Y218782D01*
X39028Y215673D01*
X34632Y215673D01*
X34232Y216073D01*
X34174Y216115D01*
X34122Y216164D01*
X34075Y216186D01*
X34033Y216216D01*
X33964Y216238D01*
X33899Y216268D01*
X33847Y216273D01*
X33797Y216289D01*
X33726Y216287D01*
X33655Y216295D01*
X33604Y216284D01*
X33552Y216282D01*
X33484Y216258D01*
X33414Y216243D01*
X33369Y216216D01*
X33321Y216198D01*
X33265Y216153D01*
X33203Y216116D01*
X33169Y216077D01*
X33129Y216044D01*
X33090Y215984D01*
X33043Y215929D01*
X33024Y215881D01*
X32996Y215837D01*
X32978Y215768D01*
X32951Y215701D01*
X32943Y215630D01*
X32935Y215599D01*
X32937Y215576D01*
X32933Y215535D01*
X32933Y183110D01*
X32921Y183094D01*
X32894Y183007D01*
X32860Y182922D01*
X32856Y182881D01*
X32849Y182859D01*
X32850Y182827D01*
X32842Y182755D01*
X32842Y177113D01*
X32845Y177093D01*
X32843Y177074D01*
X32865Y176972D01*
X32881Y176870D01*
X32891Y176853D01*
X32895Y176833D01*
X32948Y176744D01*
X32997Y176653D01*
X33011Y176639D01*
X33021Y176622D01*
X33100Y176555D01*
X33175Y176483D01*
X33193Y176475D01*
X33208Y176462D01*
X33304Y176423D01*
X33398Y176380D01*
X33418Y176378D01*
X33436Y176370D01*
X33603Y176352D01*
X39722Y176352D01*
X40615Y175459D01*
X40615Y171655D01*
X40554Y171595D01*
X40542Y171579D01*
X40527Y171566D01*
X40471Y171479D01*
X40411Y171395D01*
X40405Y171376D01*
X40394Y171359D01*
X40369Y171259D01*
X40338Y171160D01*
X40339Y171140D01*
X40334Y171121D01*
X40342Y171018D01*
X40345Y170914D01*
X40351Y170895D01*
X40353Y170876D01*
X40393Y170780D01*
X40429Y170683D01*
X40441Y170667D01*
X40449Y170649D01*
X40554Y170518D01*
X40615Y170458D01*
X40615Y166654D01*
X40554Y166593D01*
X40542Y166577D01*
X40526Y166565D01*
X40470Y166478D01*
X40410Y166394D01*
X40404Y166375D01*
X40393Y166358D01*
X40368Y166257D01*
X40338Y166159D01*
X40338Y166139D01*
X40333Y166119D01*
X40341Y166016D01*
X40344Y165913D01*
X40351Y165894D01*
X40352Y165874D01*
X40393Y165779D01*
X40428Y165682D01*
X40441Y165666D01*
X40449Y165648D01*
X40554Y165517D01*
X40615Y165456D01*
X40615Y161652D01*
X40554Y161592D01*
X40542Y161576D01*
X40527Y161563D01*
X40471Y161476D01*
X40411Y161392D01*
X40405Y161373D01*
X40394Y161356D01*
X40369Y161256D01*
X40338Y161157D01*
X40339Y161137D01*
X40334Y161118D01*
X40342Y161015D01*
X40345Y160911D01*
X40351Y160892D01*
X40353Y160873D01*
X40393Y160777D01*
X40429Y160680D01*
X40441Y160664D01*
X40449Y160646D01*
X40554Y160515D01*
X40615Y160455D01*
X40615Y157108D01*
X40618Y157088D01*
X40616Y157069D01*
X40638Y156967D01*
X40654Y156865D01*
X40664Y156848D01*
X40668Y156828D01*
X40721Y156739D01*
X40770Y156648D01*
X40784Y156634D01*
X40794Y156617D01*
X40873Y156550D01*
X40948Y156478D01*
X40966Y156470D01*
X40981Y156457D01*
X41077Y156418D01*
X41171Y156375D01*
X41191Y156373D01*
X41209Y156365D01*
X41376Y156347D01*
X42249Y156347D01*
X42339Y156361D01*
X42430Y156369D01*
X42460Y156381D01*
X42492Y156386D01*
X42572Y156429D01*
X42656Y156465D01*
X42688Y156491D01*
X42709Y156502D01*
X42731Y156525D01*
X42787Y156570D01*
X44482Y158265D01*
X44535Y158339D01*
X44595Y158408D01*
X44607Y158438D01*
X44626Y158464D01*
X44653Y158551D01*
X44687Y158636D01*
X44691Y158677D01*
X44698Y158699D01*
X44697Y158732D01*
X44705Y158803D01*
X44705Y184662D01*
X45598Y185555D01*
X45944Y185555D01*
X45964Y185558D01*
X45983Y185556D01*
X46085Y185578D01*
X46187Y185594D01*
X46204Y185604D01*
X46224Y185608D01*
X46313Y185661D01*
X46404Y185710D01*
X46418Y185724D01*
X46435Y185734D01*
X46502Y185813D01*
X46574Y185888D01*
X46582Y185906D01*
X46595Y185921D01*
X46634Y186017D01*
X46677Y186111D01*
X46679Y186131D01*
X46687Y186149D01*
X46705Y186316D01*
X46705Y202482D01*
X47598Y203375D01*
X49920Y203375D01*
X49940Y203378D01*
X49959Y203376D01*
X50061Y203398D01*
X50163Y203414D01*
X50180Y203424D01*
X50200Y203428D01*
X50289Y203481D01*
X50380Y203530D01*
X50394Y203544D01*
X50411Y203554D01*
X50478Y203633D01*
X50550Y203708D01*
X50558Y203726D01*
X50571Y203741D01*
X50610Y203837D01*
X50653Y203931D01*
X50655Y203951D01*
X50663Y203969D01*
X50681Y204136D01*
X50681Y205574D01*
X50678Y205594D01*
X50680Y205613D01*
X50658Y205715D01*
X50642Y205817D01*
X50632Y205834D01*
X50628Y205854D01*
X50575Y205943D01*
X50526Y206034D01*
X50512Y206048D01*
X50502Y206065D01*
X50423Y206132D01*
X50348Y206204D01*
X50330Y206212D01*
X50315Y206225D01*
X50219Y206264D01*
X50125Y206307D01*
X50105Y206309D01*
X50087Y206317D01*
X49920Y206335D01*
X48098Y206335D01*
X47205Y207228D01*
X47205Y219492D01*
X48098Y220385D01*
X59362Y220385D01*
X60255Y219492D01*
X60255Y207228D01*
X59362Y206335D01*
X57540Y206335D01*
X57520Y206332D01*
X57501Y206334D01*
X57399Y206312D01*
X57297Y206296D01*
X57280Y206286D01*
X57260Y206282D01*
X57171Y206229D01*
X57080Y206180D01*
X57066Y206166D01*
X57049Y206156D01*
X56982Y206077D01*
X56910Y206002D01*
X56902Y205984D01*
X56889Y205969D01*
X56850Y205873D01*
X56807Y205779D01*
X56805Y205759D01*
X56797Y205741D01*
X56779Y205574D01*
X56779Y204136D01*
X56782Y204116D01*
X56780Y204097D01*
X56802Y203995D01*
X56818Y203893D01*
X56828Y203876D01*
X56832Y203856D01*
X56885Y203767D01*
X56934Y203676D01*
X56948Y203662D01*
X56958Y203645D01*
X57037Y203578D01*
X57112Y203506D01*
X57130Y203498D01*
X57145Y203485D01*
X57241Y203446D01*
X57335Y203403D01*
X57355Y203401D01*
X57373Y203393D01*
X57540Y203375D01*
X59862Y203375D01*
X60755Y202482D01*
X60755Y154428D01*
X60565Y154238D01*
X60523Y154180D01*
X60473Y154128D01*
X60451Y154081D01*
X60421Y154038D01*
X60400Y153970D01*
X60370Y153905D01*
X60364Y153853D01*
X60349Y153803D01*
X60350Y153732D01*
X60343Y153660D01*
X60354Y153610D01*
X60355Y153558D01*
X60380Y153490D01*
X60395Y153420D01*
X60422Y153375D01*
X60439Y153327D01*
X60484Y153271D01*
X60521Y153209D01*
X60561Y153175D01*
X60593Y153134D01*
X60653Y153096D01*
X60708Y153049D01*
X60756Y153030D01*
X60800Y153001D01*
X60869Y152984D01*
X60936Y152957D01*
X61007Y152949D01*
X61039Y152941D01*
X61062Y152943D01*
X61103Y152939D01*
X63357Y152939D01*
X63428Y152950D01*
X63500Y152952D01*
X63549Y152970D01*
X63600Y152978D01*
X63663Y153012D01*
X63731Y153037D01*
X63771Y153069D01*
X63817Y153093D01*
X63867Y153145D01*
X63923Y153190D01*
X63951Y153234D01*
X63987Y153272D01*
X64017Y153337D01*
X64056Y153397D01*
X64068Y153448D01*
X64090Y153495D01*
X64098Y153566D01*
X64116Y153636D01*
X64112Y153688D01*
X64117Y153739D01*
X64102Y153809D01*
X64097Y153881D01*
X64076Y153929D01*
X64065Y153980D01*
X64028Y154041D01*
X64000Y154107D01*
X63956Y154163D01*
X63939Y154191D01*
X63921Y154206D01*
X63895Y154238D01*
X63705Y154428D01*
X63705Y202482D01*
X64598Y203375D01*
X76862Y203375D01*
X77755Y202482D01*
X77755Y186316D01*
X77758Y186296D01*
X77756Y186277D01*
X77778Y186175D01*
X77794Y186073D01*
X77804Y186056D01*
X77808Y186036D01*
X77861Y185947D01*
X77910Y185856D01*
X77924Y185842D01*
X77934Y185825D01*
X78013Y185758D01*
X78088Y185686D01*
X78106Y185678D01*
X78121Y185665D01*
X78217Y185626D01*
X78311Y185583D01*
X78331Y185581D01*
X78349Y185573D01*
X78516Y185555D01*
X78862Y185555D01*
X79755Y184662D01*
X79755Y166116D01*
X79758Y166096D01*
X79756Y166077D01*
X79778Y165975D01*
X79794Y165873D01*
X79804Y165856D01*
X79808Y165836D01*
X79861Y165747D01*
X79910Y165656D01*
X79924Y165642D01*
X79934Y165625D01*
X80013Y165558D01*
X80088Y165486D01*
X80106Y165478D01*
X80121Y165465D01*
X80217Y165426D01*
X80311Y165383D01*
X80331Y165381D01*
X80349Y165373D01*
X80516Y165355D01*
X95084Y165355D01*
X95104Y165358D01*
X95123Y165356D01*
X95225Y165378D01*
X95327Y165394D01*
X95344Y165404D01*
X95364Y165408D01*
X95453Y165461D01*
X95544Y165510D01*
X95558Y165524D01*
X95575Y165534D01*
X95642Y165613D01*
X95714Y165688D01*
X95722Y165706D01*
X95735Y165721D01*
X95774Y165817D01*
X95817Y165911D01*
X95819Y165931D01*
X95827Y165949D01*
X95845Y166116D01*
X95845Y169072D01*
X96738Y169965D01*
X109002Y169965D01*
X109895Y169072D01*
X109895Y157808D01*
X109002Y156915D01*
X96738Y156915D01*
X95845Y157808D01*
X95845Y159004D01*
X95842Y159024D01*
X95844Y159043D01*
X95822Y159145D01*
X95806Y159247D01*
X95796Y159264D01*
X95792Y159284D01*
X95739Y159373D01*
X95690Y159464D01*
X95676Y159478D01*
X95666Y159495D01*
X95587Y159562D01*
X95512Y159634D01*
X95494Y159642D01*
X95479Y159655D01*
X95383Y159694D01*
X95289Y159737D01*
X95269Y159739D01*
X95251Y159747D01*
X95084Y159765D01*
X80516Y159765D01*
X80496Y159762D01*
X80477Y159764D01*
X80375Y159742D01*
X80273Y159726D01*
X80256Y159716D01*
X80236Y159712D01*
X80147Y159659D01*
X80056Y159610D01*
X80042Y159596D01*
X80025Y159586D01*
X79958Y159507D01*
X79886Y159432D01*
X79878Y159414D01*
X79865Y159399D01*
X79826Y159303D01*
X79783Y159209D01*
X79781Y159189D01*
X79773Y159171D01*
X79755Y159004D01*
X79755Y154428D01*
X78862Y153535D01*
X74593Y153535D01*
X74503Y153521D01*
X74412Y153513D01*
X74382Y153501D01*
X74350Y153496D01*
X74270Y153453D01*
X74186Y153417D01*
X74153Y153391D01*
X74133Y153380D01*
X74111Y153357D01*
X74055Y153312D01*
X70917Y150174D01*
X70875Y150116D01*
X70825Y150064D01*
X70803Y150017D01*
X70773Y149975D01*
X70752Y149906D01*
X70722Y149841D01*
X70716Y149789D01*
X70701Y149739D01*
X70703Y149668D01*
X70695Y149596D01*
X70706Y149546D01*
X70707Y149494D01*
X70732Y149426D01*
X70747Y149356D01*
X70774Y149311D01*
X70791Y149263D01*
X70836Y149206D01*
X70873Y149145D01*
X70913Y149111D01*
X70945Y149070D01*
X71005Y149032D01*
X71060Y148985D01*
X71108Y148966D01*
X71152Y148937D01*
X71222Y148920D01*
X71288Y148893D01*
X71359Y148885D01*
X71391Y148877D01*
X71414Y148879D01*
X71455Y148875D01*
X72402Y148875D01*
X73295Y147982D01*
X73295Y142718D01*
X72402Y141825D01*
X57138Y141825D01*
X56631Y142332D01*
X56557Y142385D01*
X56488Y142445D01*
X56458Y142457D01*
X56432Y142476D01*
X56345Y142503D01*
X56260Y142537D01*
X56219Y142541D01*
X56197Y142548D01*
X56164Y142547D01*
X56093Y142555D01*
X54113Y142555D01*
X54023Y142540D01*
X53932Y142533D01*
X53902Y142521D01*
X53870Y142515D01*
X53789Y142473D01*
X53706Y142437D01*
X53673Y142411D01*
X53653Y142400D01*
X53631Y142377D01*
X53575Y142332D01*
X46919Y135677D01*
X46861Y135655D01*
X46820Y135623D01*
X46774Y135598D01*
X46725Y135546D01*
X46669Y135502D01*
X46641Y135458D01*
X46605Y135420D01*
X46575Y135355D01*
X46536Y135295D01*
X46523Y135244D01*
X46501Y135197D01*
X46493Y135126D01*
X46476Y135056D01*
X46480Y135004D01*
X46474Y134953D01*
X46489Y134882D01*
X46495Y134811D01*
X46515Y134763D01*
X46526Y134712D01*
X46563Y134651D01*
X46591Y134585D01*
X46636Y134529D01*
X46652Y134501D01*
X46670Y134486D01*
X46696Y134454D01*
X56168Y124981D01*
X56185Y124970D01*
X56197Y124954D01*
X56284Y124898D01*
X56368Y124838D01*
X56387Y124832D01*
X56404Y124821D01*
X56504Y124796D01*
X56603Y124765D01*
X56623Y124766D01*
X56643Y124761D01*
X56746Y124769D01*
X56849Y124772D01*
X56868Y124779D01*
X56888Y124780D01*
X56983Y124821D01*
X57080Y124856D01*
X57096Y124869D01*
X57110Y124875D01*
X72402Y124875D01*
X73295Y123982D01*
X73295Y118718D01*
X72402Y117825D01*
X58556Y117825D01*
X58536Y117822D01*
X58517Y117824D01*
X58415Y117802D01*
X58313Y117786D01*
X58296Y117776D01*
X58276Y117772D01*
X58187Y117719D01*
X58096Y117670D01*
X58082Y117656D01*
X58065Y117646D01*
X57998Y117567D01*
X57926Y117492D01*
X57918Y117474D01*
X57905Y117459D01*
X57866Y117363D01*
X57823Y117269D01*
X57821Y117249D01*
X57813Y117231D01*
X57795Y117064D01*
X57795Y108886D01*
X57798Y108866D01*
X57796Y108847D01*
X57818Y108745D01*
X57834Y108643D01*
X57844Y108626D01*
X57848Y108606D01*
X57901Y108517D01*
X57950Y108426D01*
X57964Y108412D01*
X57974Y108395D01*
X58053Y108328D01*
X58128Y108256D01*
X58146Y108248D01*
X58161Y108235D01*
X58257Y108196D01*
X58351Y108153D01*
X58371Y108151D01*
X58389Y108143D01*
X58556Y108125D01*
X61132Y108125D01*
X62025Y107232D01*
X62025Y95968D01*
X61132Y95075D01*
X59436Y95075D01*
X59416Y95072D01*
X59397Y95074D01*
X59295Y95052D01*
X59193Y95036D01*
X59176Y95026D01*
X59156Y95022D01*
X59067Y94969D01*
X58976Y94920D01*
X58962Y94906D01*
X58945Y94896D01*
X58878Y94817D01*
X58806Y94742D01*
X58798Y94724D01*
X58785Y94709D01*
X58746Y94613D01*
X58703Y94519D01*
X58701Y94499D01*
X58693Y94481D01*
X58675Y94314D01*
X58675Y81392D01*
X57241Y79958D01*
X57229Y79942D01*
X57214Y79930D01*
X57158Y79843D01*
X57097Y79759D01*
X57091Y79740D01*
X57081Y79723D01*
X57055Y79623D01*
X57025Y79524D01*
X57025Y79504D01*
X57020Y79484D01*
X57029Y79381D01*
X57031Y79278D01*
X57038Y79259D01*
X57040Y79239D01*
X57080Y79144D01*
X57116Y79047D01*
X57128Y79031D01*
X57136Y79013D01*
X57241Y78882D01*
X57405Y78718D01*
X57405Y71142D01*
X52048Y65785D01*
X44472Y65785D01*
X39115Y71142D01*
X39115Y78718D01*
X44472Y84075D01*
X52324Y84075D01*
X52344Y84078D01*
X52363Y84076D01*
X52465Y84098D01*
X52567Y84114D01*
X52584Y84124D01*
X52604Y84128D01*
X52693Y84181D01*
X52784Y84230D01*
X52798Y84244D01*
X52815Y84254D01*
X52882Y84333D01*
X52954Y84408D01*
X52962Y84426D01*
X52975Y84441D01*
X53014Y84537D01*
X53057Y84631D01*
X53059Y84651D01*
X53067Y84669D01*
X53085Y84836D01*
X53085Y94314D01*
X53082Y94334D01*
X53084Y94353D01*
X53062Y94455D01*
X53046Y94557D01*
X53036Y94574D01*
X53032Y94594D01*
X52979Y94683D01*
X52930Y94774D01*
X52916Y94788D01*
X52906Y94805D01*
X52827Y94872D01*
X52752Y94944D01*
X52734Y94952D01*
X52719Y94965D01*
X52623Y95004D01*
X52529Y95047D01*
X52509Y95049D01*
X52491Y95057D01*
X52324Y95075D01*
X49276Y95075D01*
X49256Y95072D01*
X49237Y95074D01*
X49135Y95052D01*
X49033Y95036D01*
X49016Y95026D01*
X48996Y95022D01*
X48907Y94969D01*
X48816Y94920D01*
X48802Y94906D01*
X48785Y94896D01*
X48718Y94817D01*
X48646Y94742D01*
X48638Y94724D01*
X48625Y94709D01*
X48586Y94613D01*
X48543Y94519D01*
X48541Y94499D01*
X48533Y94481D01*
X48515Y94314D01*
X48515Y91552D01*
X36447Y79485D01*
X36394Y79411D01*
X36334Y79341D01*
X36322Y79311D01*
X36303Y79285D01*
X36277Y79198D01*
X36243Y79113D01*
X36238Y79072D01*
X36231Y79050D01*
X36232Y79018D01*
X36224Y78946D01*
X36224Y28493D01*
X30839Y23108D01*
X30786Y23034D01*
X30726Y22965D01*
X30714Y22935D01*
X30695Y22909D01*
X30669Y22822D01*
X30635Y22737D01*
X30630Y22696D01*
X30623Y22674D01*
X30624Y22641D01*
X30616Y22570D01*
X30616Y20040D01*
X27800Y17224D01*
X25945Y17224D01*
X25846Y17208D01*
X25746Y17198D01*
X25725Y17188D01*
X25702Y17185D01*
X25614Y17138D01*
X25523Y17096D01*
X25506Y17080D01*
X25485Y17070D01*
X25416Y16997D01*
X25343Y16928D01*
X25332Y16908D01*
X25316Y16891D01*
X25273Y16800D01*
X25226Y16712D01*
X25219Y16684D01*
X25212Y16668D01*
X25208Y16635D01*
X25189Y16548D01*
X25185Y16516D01*
X25187Y16481D01*
X25180Y16447D01*
X25193Y16359D01*
X25197Y16270D01*
X25210Y16238D01*
X25215Y16204D01*
X25282Y16050D01*
X26383Y14143D01*
X26405Y14116D01*
X26420Y14085D01*
X26483Y14021D01*
X26539Y13953D01*
X26568Y13934D01*
X26593Y13910D01*
X26662Y13870D01*
X26897Y13271D01*
X26913Y13243D01*
X26946Y13168D01*
X27266Y12614D01*
X27266Y12542D01*
X27257Y12454D01*
X27264Y12420D01*
X27264Y12385D01*
X27308Y12223D01*
X28112Y10173D01*
X28130Y10144D01*
X28140Y10111D01*
X28192Y10039D01*
X28238Y9962D01*
X28264Y9939D01*
X28285Y9911D01*
X28347Y9862D01*
X28490Y9234D01*
X28502Y9204D01*
X28524Y9126D01*
X28757Y8530D01*
X28746Y8459D01*
X28724Y8373D01*
X28727Y8338D01*
X28721Y8304D01*
X28740Y8137D01*
X29230Y5990D01*
X29243Y5958D01*
X29249Y5924D01*
X29290Y5845D01*
X29323Y5763D01*
X29346Y5736D01*
X29362Y5706D01*
X29416Y5648D01*
X29464Y5006D01*
X29472Y4974D01*
X29481Y4893D01*
X29623Y4269D01*
X29602Y4200D01*
X29567Y4119D01*
X29565Y4084D01*
X29554Y4051D01*
X29548Y3883D01*
X29590Y3327D01*
X29617Y3216D01*
X29641Y3104D01*
X29645Y3097D01*
X29647Y3088D01*
X29709Y2991D01*
X29767Y2893D01*
X29774Y2887D01*
X29778Y2880D01*
X29867Y2807D01*
X29954Y2733D01*
X29962Y2730D01*
X29969Y2724D01*
X30075Y2684D01*
X30182Y2641D01*
X30193Y2640D01*
X30199Y2638D01*
X30222Y2637D01*
X30349Y2623D01*
X68020Y2623D01*
X67864Y662D01*
X67868Y633D01*
X67863Y605D01*
X67880Y536D01*
X67888Y464D01*
X67903Y440D01*
X67909Y412D01*
X67952Y354D01*
X67988Y292D01*
X68010Y275D01*
X68027Y252D01*
X68089Y215D01*
X68146Y172D01*
X68174Y165D01*
X68198Y150D01*
X68298Y134D01*
X68339Y123D01*
X68349Y125D01*
X68362Y123D01*
X87362Y123D01*
X87438Y138D01*
G37*
G36*
X-66810Y128D02*
X-66810Y128D01*
X-66782Y126D01*
X-66714Y148D01*
X-66643Y162D01*
X-66620Y178D01*
X-66593Y187D01*
X-66538Y234D01*
X-66479Y275D01*
X-66464Y299D01*
X-66443Y317D01*
X-66411Y382D01*
X-66372Y442D01*
X-66367Y470D01*
X-66355Y496D01*
X-66346Y597D01*
X-66339Y639D01*
X-66341Y649D01*
X-66340Y662D01*
X-66496Y2623D01*
X-28825Y2623D01*
X-28712Y2641D01*
X-28599Y2657D01*
X-28591Y2661D01*
X-28582Y2662D01*
X-28481Y2716D01*
X-28379Y2767D01*
X-28372Y2773D01*
X-28365Y2778D01*
X-28286Y2860D01*
X-28205Y2942D01*
X-28201Y2950D01*
X-28195Y2956D01*
X-28147Y3059D01*
X-28097Y3162D01*
X-28095Y3173D01*
X-28092Y3179D01*
X-28089Y3202D01*
X-28066Y3327D01*
X-28024Y3883D01*
X-28027Y3918D01*
X-28022Y3952D01*
X-28038Y4040D01*
X-28046Y4128D01*
X-28059Y4160D01*
X-28066Y4194D01*
X-28100Y4266D01*
X-27957Y4893D01*
X-27955Y4926D01*
X-27940Y5006D01*
X-27892Y5644D01*
X-27851Y5703D01*
X-27794Y5771D01*
X-27781Y5804D01*
X-27762Y5832D01*
X-27706Y5990D01*
X-27216Y8137D01*
X-27214Y8172D01*
X-27204Y8205D01*
X-27207Y8294D01*
X-27201Y8383D01*
X-27210Y8416D01*
X-27211Y8451D01*
X-27235Y8527D01*
X-27000Y9126D01*
X-26993Y9158D01*
X-26966Y9234D01*
X-26824Y9859D01*
X-26774Y9911D01*
X-26708Y9970D01*
X-26690Y10000D01*
X-26666Y10025D01*
X-26588Y10173D01*
X-25784Y12223D01*
X-25777Y12257D01*
X-25762Y12288D01*
X-25751Y12377D01*
X-25732Y12464D01*
X-25736Y12498D01*
X-25732Y12532D01*
X-25744Y12611D01*
X-25422Y13168D01*
X-25410Y13199D01*
X-25373Y13271D01*
X-25139Y13867D01*
X-25082Y13911D01*
X-25008Y13959D01*
X-24986Y13987D01*
X-24959Y14008D01*
X-24859Y14143D01*
X-23758Y16050D01*
X-23746Y16082D01*
X-23727Y16111D01*
X-23703Y16197D01*
X-23671Y16280D01*
X-23670Y16315D01*
X-23661Y16348D01*
X-23661Y16428D01*
X-23260Y16931D01*
X-23244Y16960D01*
X-23196Y17025D01*
X-22875Y17579D01*
X-22813Y17615D01*
X-22732Y17651D01*
X-22706Y17675D01*
X-22676Y17692D01*
X-22558Y17811D01*
X-21185Y19532D01*
X-21168Y19563D01*
X-21145Y19588D01*
X-21108Y19669D01*
X-21065Y19747D01*
X-21058Y19781D01*
X-21044Y19813D01*
X-21032Y19891D01*
X-20561Y20329D01*
X-20540Y20355D01*
X-20483Y20412D01*
X-20084Y20913D01*
X-20051Y20926D01*
X-20009Y20932D01*
X-19975Y20950D01*
X-19931Y20963D01*
X-19903Y20982D01*
X-19870Y20995D01*
X-19817Y21034D01*
X-19792Y21048D01*
X-19774Y21066D01*
X-19736Y21094D01*
X-18121Y22592D01*
X-18100Y22619D01*
X-18073Y22641D01*
X-18025Y22716D01*
X-17971Y22786D01*
X-17959Y22819D01*
X-17940Y22848D01*
X-17917Y22924D01*
X-17385Y23287D01*
X-17361Y23309D01*
X-17336Y23328D01*
X-17330Y23331D01*
X-17326Y23336D01*
X-17296Y23358D01*
X-16827Y23793D01*
X-16757Y23809D01*
X-16669Y23820D01*
X-16637Y23835D01*
X-16604Y23842D01*
X-16455Y23921D01*
X-14636Y25161D01*
X-14611Y25185D01*
X-14581Y25203D01*
X-14522Y25269D01*
X-14458Y25331D01*
X-14442Y25361D01*
X-14419Y25387D01*
X-14385Y25459D01*
X-13805Y25738D01*
X-13778Y25757D01*
X-13706Y25795D01*
X-13177Y26156D01*
X-13105Y26161D01*
X-13016Y26158D01*
X-12983Y26169D01*
X-12949Y26171D01*
X-12791Y26227D01*
X-10807Y27182D01*
X-10778Y27202D01*
X-10746Y27215D01*
X-10678Y27272D01*
X-10605Y27323D01*
X-10585Y27351D01*
X-10558Y27373D01*
X-10514Y27439D01*
X-9899Y27629D01*
X-9869Y27644D01*
X-9793Y27670D01*
X-9216Y27948D01*
X-9144Y27942D01*
X-9057Y27927D01*
X-9022Y27932D01*
X-8988Y27929D01*
X-8823Y27961D01*
X-6719Y28610D01*
X-6688Y28625D01*
X-6654Y28633D01*
X-6578Y28679D01*
X-6499Y28719D01*
X-6474Y28744D01*
X-6445Y28762D01*
X-6391Y28820D01*
X-5754Y28916D01*
X-5723Y28926D01*
X-5643Y28941D01*
X-5031Y29130D01*
X-4962Y29114D01*
X-4877Y29085D01*
X-4843Y29085D01*
X-4809Y29077D01*
X-4641Y29084D01*
X-2464Y29412D01*
X-2431Y29423D01*
X-2396Y29425D01*
X-2315Y29460D01*
X-2230Y29487D01*
X-2202Y29508D01*
X-2170Y29522D01*
X-2108Y29571D01*
X-1465Y29571D01*
X-1432Y29577D01*
X-1351Y29580D01*
X-718Y29675D01*
X-651Y29648D01*
X-572Y29608D01*
X-538Y29603D01*
X-506Y29590D01*
X-339Y29571D01*
X1863Y29571D01*
X1897Y29577D01*
X1932Y29574D01*
X2018Y29597D01*
X2106Y29611D01*
X2136Y29627D01*
X2170Y29636D01*
X2239Y29676D01*
X2875Y29580D01*
X2908Y29580D01*
X2989Y29571D01*
X3629Y29571D01*
X3691Y29535D01*
X3763Y29483D01*
X3796Y29473D01*
X3826Y29455D01*
X3988Y29412D01*
X6165Y29084D01*
X6200Y29084D01*
X6234Y29077D01*
X6322Y29086D01*
X6411Y29087D01*
X6444Y29098D01*
X6479Y29102D01*
X6552Y29131D01*
X7167Y28941D01*
X7200Y28937D01*
X7278Y28916D01*
X7912Y28821D01*
X7967Y28775D01*
X8031Y28713D01*
X8062Y28698D01*
X8089Y28676D01*
X8243Y28610D01*
X10347Y27961D01*
X10381Y27956D01*
X10414Y27943D01*
X10503Y27939D01*
X10591Y27927D01*
X10625Y27933D01*
X10659Y27932D01*
X10737Y27950D01*
X11317Y27670D01*
X11348Y27661D01*
X11423Y27629D01*
X12034Y27440D01*
X12083Y27387D01*
X12136Y27316D01*
X12165Y27297D01*
X12188Y27271D01*
X12331Y27182D01*
X14315Y26227D01*
X14348Y26217D01*
X14378Y26200D01*
X14465Y26182D01*
X14550Y26157D01*
X14585Y26158D01*
X14619Y26152D01*
X14718Y26159D01*
X14747Y26141D01*
X14798Y26128D01*
X14844Y26106D01*
X14916Y26098D01*
X14986Y26081D01*
X15037Y26085D01*
X15089Y26079D01*
X15159Y26094D01*
X15231Y26100D01*
X15279Y26120D01*
X15329Y26131D01*
X15391Y26168D01*
X15458Y26196D01*
X15513Y26240D01*
X15540Y26257D01*
X15556Y26275D01*
X15589Y26301D01*
X26348Y37060D01*
X26401Y37134D01*
X26460Y37203D01*
X26472Y37234D01*
X26491Y37260D01*
X26518Y37347D01*
X26552Y37432D01*
X26557Y37472D01*
X26564Y37495D01*
X26563Y37527D01*
X26571Y37598D01*
X26571Y85800D01*
X28144Y87374D01*
X28186Y87432D01*
X28235Y87484D01*
X28257Y87531D01*
X28288Y87573D01*
X28309Y87642D01*
X28339Y87707D01*
X28345Y87759D01*
X28360Y87809D01*
X28358Y87880D01*
X28366Y87951D01*
X28355Y88002D01*
X28354Y88054D01*
X28329Y88122D01*
X28314Y88192D01*
X28287Y88237D01*
X28269Y88285D01*
X28224Y88341D01*
X28188Y88403D01*
X28148Y88437D01*
X28115Y88477D01*
X28055Y88516D01*
X28001Y88563D01*
X27952Y88582D01*
X27908Y88610D01*
X27839Y88628D01*
X27772Y88655D01*
X27701Y88663D01*
X27670Y88671D01*
X27647Y88669D01*
X27606Y88673D01*
X23202Y88673D01*
X20093Y91782D01*
X20093Y96178D01*
X22028Y98113D01*
X22081Y98187D01*
X22141Y98257D01*
X22153Y98287D01*
X22172Y98313D01*
X22199Y98400D01*
X22233Y98485D01*
X22237Y98526D01*
X22244Y98548D01*
X22243Y98580D01*
X22251Y98651D01*
X22251Y107214D01*
X22248Y107234D01*
X22250Y107253D01*
X22228Y107355D01*
X22212Y107457D01*
X22202Y107474D01*
X22198Y107494D01*
X22145Y107583D01*
X22096Y107674D01*
X22082Y107688D01*
X22072Y107705D01*
X21993Y107772D01*
X21918Y107844D01*
X21900Y107852D01*
X21885Y107865D01*
X21789Y107904D01*
X21695Y107947D01*
X21675Y107949D01*
X21657Y107957D01*
X21490Y107975D01*
X18142Y107975D01*
X18082Y108036D01*
X18066Y108048D01*
X18053Y108063D01*
X17966Y108119D01*
X17882Y108179D01*
X17863Y108185D01*
X17846Y108196D01*
X17746Y108221D01*
X17647Y108252D01*
X17627Y108251D01*
X17608Y108256D01*
X17505Y108248D01*
X17401Y108245D01*
X17382Y108239D01*
X17363Y108237D01*
X17267Y108197D01*
X17170Y108161D01*
X17154Y108149D01*
X17136Y108141D01*
X17005Y108036D01*
X16945Y107975D01*
X14007Y107975D01*
X13937Y107964D01*
X13865Y107962D01*
X13816Y107944D01*
X13765Y107936D01*
X13701Y107902D01*
X13634Y107877D01*
X13593Y107845D01*
X13547Y107820D01*
X13498Y107768D01*
X13442Y107724D01*
X13414Y107680D01*
X13378Y107642D01*
X13348Y107577D01*
X13309Y107517D01*
X13296Y107466D01*
X13274Y107419D01*
X13266Y107348D01*
X13249Y107278D01*
X13253Y107226D01*
X13247Y107175D01*
X13262Y107104D01*
X13268Y107033D01*
X13288Y106985D01*
X13299Y106934D01*
X13336Y106873D01*
X13364Y106807D01*
X13409Y106751D01*
X13426Y106723D01*
X13443Y106708D01*
X13469Y106676D01*
X15349Y104796D01*
X15349Y100400D01*
X12240Y97291D01*
X7844Y97291D01*
X4735Y100400D01*
X4735Y104796D01*
X6615Y106676D01*
X6657Y106734D01*
X6706Y106786D01*
X6728Y106833D01*
X6758Y106875D01*
X6780Y106944D01*
X6810Y107009D01*
X6815Y107061D01*
X6831Y107111D01*
X6829Y107182D01*
X6837Y107253D01*
X6826Y107304D01*
X6824Y107356D01*
X6800Y107424D01*
X6785Y107494D01*
X6758Y107539D01*
X6740Y107587D01*
X6695Y107643D01*
X6658Y107705D01*
X6619Y107739D01*
X6586Y107779D01*
X6526Y107818D01*
X6471Y107865D01*
X6423Y107884D01*
X6379Y107912D01*
X6310Y107930D01*
X6243Y107957D01*
X6172Y107965D01*
X6141Y107973D01*
X6118Y107971D01*
X6077Y107975D01*
X3595Y107975D01*
X3575Y107972D01*
X3556Y107974D01*
X3454Y107952D01*
X3352Y107936D01*
X3335Y107926D01*
X3315Y107922D01*
X3226Y107869D01*
X3135Y107820D01*
X3121Y107806D01*
X3104Y107796D01*
X3037Y107717D01*
X2965Y107642D01*
X2957Y107624D01*
X2944Y107609D01*
X2905Y107513D01*
X2862Y107419D01*
X2860Y107399D01*
X2852Y107381D01*
X2834Y107214D01*
X2834Y97941D01*
X-19162Y75945D01*
X-83875Y75945D01*
X-83965Y75931D01*
X-84056Y75923D01*
X-84085Y75911D01*
X-84117Y75906D01*
X-84198Y75863D01*
X-84282Y75827D01*
X-84314Y75801D01*
X-84335Y75790D01*
X-84357Y75767D01*
X-84413Y75722D01*
X-86702Y73433D01*
X-91098Y73433D01*
X-94207Y76542D01*
X-94207Y76943D01*
X-94218Y77014D01*
X-94220Y77085D01*
X-94238Y77134D01*
X-94246Y77186D01*
X-94280Y77249D01*
X-94305Y77316D01*
X-94337Y77357D01*
X-94362Y77403D01*
X-94414Y77452D01*
X-94458Y77508D01*
X-94502Y77537D01*
X-94540Y77572D01*
X-94605Y77603D01*
X-94665Y77641D01*
X-94716Y77654D01*
X-94763Y77676D01*
X-94834Y77684D01*
X-94904Y77702D01*
X-94956Y77697D01*
X-95007Y77703D01*
X-95078Y77688D01*
X-95149Y77682D01*
X-95197Y77662D01*
X-95248Y77651D01*
X-95309Y77614D01*
X-95375Y77586D01*
X-95431Y77541D01*
X-95459Y77525D01*
X-95474Y77507D01*
X-95506Y77481D01*
X-96660Y76327D01*
X-99326Y76327D01*
X-99373Y76319D01*
X-99422Y76321D01*
X-99494Y76300D01*
X-99568Y76288D01*
X-99611Y76265D01*
X-99657Y76251D01*
X-99719Y76208D01*
X-99786Y76172D01*
X-99819Y76137D01*
X-99859Y76110D01*
X-99903Y76049D01*
X-99955Y75994D01*
X-99976Y75950D01*
X-100004Y75911D01*
X-100027Y75839D01*
X-100059Y75771D01*
X-100064Y75723D01*
X-100079Y75677D01*
X-100083Y75549D01*
X-100086Y75527D01*
X-100084Y75520D01*
X-100085Y75509D01*
X-100041Y74917D01*
X-100072Y74853D01*
X-100119Y74777D01*
X-100127Y74743D01*
X-100142Y74712D01*
X-100173Y74547D01*
X-100338Y72349D01*
X-100335Y72315D01*
X-100340Y72280D01*
X-100325Y72193D01*
X-100317Y72104D01*
X-100303Y72072D01*
X-100297Y72038D01*
X-100262Y71967D01*
X-100406Y71339D01*
X-100408Y71306D01*
X-100423Y71227D01*
X-100471Y70588D01*
X-100512Y70530D01*
X-100569Y70461D01*
X-100582Y70429D01*
X-100601Y70401D01*
X-100657Y70242D01*
X-101148Y68093D01*
X-101150Y68059D01*
X-101160Y68026D01*
X-101157Y67937D01*
X-101163Y67848D01*
X-101154Y67814D01*
X-101153Y67780D01*
X-101130Y67704D01*
X-101365Y67105D01*
X-101372Y67073D01*
X-101398Y66996D01*
X-101541Y66372D01*
X-101590Y66320D01*
X-101657Y66261D01*
X-101674Y66231D01*
X-101698Y66206D01*
X-101776Y66057D01*
X-102582Y64006D01*
X-102590Y63972D01*
X-102605Y63941D01*
X-102615Y63852D01*
X-102634Y63765D01*
X-102630Y63731D01*
X-102634Y63696D01*
X-102623Y63618D01*
X-102945Y63061D01*
X-102956Y63030D01*
X-102994Y62958D01*
X-103228Y62362D01*
X-103285Y62318D01*
X-103359Y62270D01*
X-103381Y62243D01*
X-103408Y62221D01*
X-103508Y62086D01*
X-104610Y60178D01*
X-104623Y60145D01*
X-104642Y60116D01*
X-104666Y60031D01*
X-104697Y59948D01*
X-104699Y59913D01*
X-104708Y59879D01*
X-104708Y59800D01*
X-105109Y59297D01*
X-105125Y59268D01*
X-105173Y59203D01*
X-105494Y58649D01*
X-105556Y58613D01*
X-105637Y58577D01*
X-105663Y58553D01*
X-105693Y58536D01*
X-105811Y58417D01*
X-107186Y56694D01*
X-107203Y56664D01*
X-107227Y56639D01*
X-107263Y56558D01*
X-107306Y56480D01*
X-107313Y56446D01*
X-107327Y56414D01*
X-107339Y56336D01*
X-107811Y55898D01*
X-107831Y55872D01*
X-107888Y55815D01*
X-108288Y55314D01*
X-108354Y55289D01*
X-108440Y55265D01*
X-108469Y55245D01*
X-108501Y55233D01*
X-108636Y55133D01*
X-110252Y53634D01*
X-110274Y53607D01*
X-110301Y53585D01*
X-110349Y53510D01*
X-110403Y53440D01*
X-110415Y53407D01*
X-110433Y53378D01*
X-110457Y53302D01*
X-110989Y52940D01*
X-111013Y52917D01*
X-111078Y52869D01*
X-111547Y52433D01*
X-111617Y52418D01*
X-111705Y52407D01*
X-111737Y52392D01*
X-111771Y52385D01*
X-111919Y52306D01*
X-112374Y51996D01*
X-112457Y51917D01*
X-112542Y51840D01*
X-112546Y51832D01*
X-112552Y51826D01*
X-112606Y51725D01*
X-112661Y51625D01*
X-112663Y51616D01*
X-112667Y51609D01*
X-112685Y51496D01*
X-112706Y51383D01*
X-112705Y51375D01*
X-112707Y51366D01*
X-112688Y51253D01*
X-112672Y51140D01*
X-112668Y51130D01*
X-112667Y51123D01*
X-112656Y51103D01*
X-112641Y51068D01*
X-112640Y51063D01*
X-112635Y51056D01*
X-112605Y50986D01*
X-93794Y18405D01*
X-95552Y17573D01*
X-95574Y17556D01*
X-95601Y17546D01*
X-95653Y17497D01*
X-95711Y17454D01*
X-95725Y17429D01*
X-95746Y17410D01*
X-95775Y17344D01*
X-95811Y17282D01*
X-95814Y17254D01*
X-95826Y17228D01*
X-95827Y17156D01*
X-95836Y17085D01*
X-95828Y17058D01*
X-95829Y17029D01*
X-95793Y16934D01*
X-95782Y16894D01*
X-95775Y16885D01*
X-95771Y16873D01*
X-86271Y373D01*
X-86219Y315D01*
X-86173Y252D01*
X-86154Y241D01*
X-86139Y224D01*
X-86069Y190D01*
X-86002Y150D01*
X-85978Y146D01*
X-85960Y138D01*
X-85915Y136D01*
X-85838Y123D01*
X-66838Y123D01*
X-66810Y128D01*
G37*
G36*
X22584Y116251D02*
X22584Y116251D01*
X22687Y116254D01*
X22706Y116261D01*
X22726Y116262D01*
X22821Y116303D01*
X22918Y116338D01*
X22934Y116351D01*
X22952Y116359D01*
X23083Y116464D01*
X23144Y116525D01*
X26948Y116525D01*
X27008Y116464D01*
X27024Y116452D01*
X27037Y116437D01*
X27124Y116381D01*
X27208Y116321D01*
X27227Y116315D01*
X27244Y116304D01*
X27344Y116279D01*
X27443Y116248D01*
X27463Y116249D01*
X27482Y116244D01*
X27585Y116252D01*
X27689Y116255D01*
X27708Y116261D01*
X27727Y116263D01*
X27823Y116303D01*
X27920Y116339D01*
X27936Y116351D01*
X27954Y116359D01*
X28085Y116464D01*
X28145Y116525D01*
X31304Y116525D01*
X31324Y116528D01*
X31343Y116526D01*
X31445Y116548D01*
X31547Y116564D01*
X31564Y116574D01*
X31584Y116578D01*
X31673Y116631D01*
X31764Y116680D01*
X31778Y116694D01*
X31795Y116704D01*
X31862Y116783D01*
X31934Y116858D01*
X31942Y116876D01*
X31955Y116891D01*
X31994Y116987D01*
X32037Y117081D01*
X32039Y117101D01*
X32047Y117119D01*
X32065Y117286D01*
X32065Y120445D01*
X32126Y120505D01*
X32138Y120521D01*
X32153Y120534D01*
X32209Y120621D01*
X32269Y120705D01*
X32275Y120724D01*
X32286Y120741D01*
X32311Y120841D01*
X32342Y120940D01*
X32341Y120960D01*
X32346Y120979D01*
X32338Y121082D01*
X32335Y121186D01*
X32329Y121205D01*
X32327Y121225D01*
X32287Y121320D01*
X32251Y121417D01*
X32239Y121433D01*
X32231Y121451D01*
X32126Y121582D01*
X32065Y121642D01*
X32065Y125446D01*
X32126Y125507D01*
X32138Y125523D01*
X32154Y125535D01*
X32210Y125623D01*
X32270Y125706D01*
X32276Y125725D01*
X32287Y125742D01*
X32312Y125843D01*
X32342Y125942D01*
X32342Y125962D01*
X32347Y125981D01*
X32339Y126084D01*
X32336Y126187D01*
X32329Y126206D01*
X32328Y126226D01*
X32287Y126321D01*
X32252Y126418D01*
X32239Y126434D01*
X32231Y126452D01*
X32126Y126583D01*
X32065Y126644D01*
X32065Y130448D01*
X32126Y130508D01*
X32138Y130524D01*
X32153Y130537D01*
X32209Y130624D01*
X32269Y130708D01*
X32275Y130727D01*
X32286Y130744D01*
X32311Y130844D01*
X32342Y130943D01*
X32341Y130963D01*
X32346Y130982D01*
X32338Y131085D01*
X32335Y131189D01*
X32329Y131208D01*
X32327Y131228D01*
X32287Y131323D01*
X32251Y131420D01*
X32239Y131436D01*
X32231Y131454D01*
X32126Y131585D01*
X32065Y131645D01*
X32065Y135449D01*
X32126Y135509D01*
X32138Y135525D01*
X32153Y135538D01*
X32209Y135625D01*
X32269Y135709D01*
X32275Y135728D01*
X32286Y135745D01*
X32311Y135845D01*
X32342Y135944D01*
X32341Y135964D01*
X32346Y135983D01*
X32338Y136086D01*
X32335Y136190D01*
X32329Y136209D01*
X32327Y136229D01*
X32287Y136324D01*
X32251Y136421D01*
X32239Y136437D01*
X32231Y136455D01*
X32126Y136586D01*
X32065Y136646D01*
X32065Y140450D01*
X32126Y140510D01*
X32138Y140526D01*
X32153Y140539D01*
X32209Y140626D01*
X32269Y140710D01*
X32275Y140729D01*
X32286Y140746D01*
X32311Y140846D01*
X32342Y140945D01*
X32341Y140965D01*
X32346Y140984D01*
X32338Y141087D01*
X32335Y141191D01*
X32329Y141210D01*
X32327Y141230D01*
X32287Y141325D01*
X32251Y141422D01*
X32239Y141438D01*
X32231Y141456D01*
X32126Y141587D01*
X32065Y141647D01*
X32065Y145451D01*
X32126Y145512D01*
X32138Y145528D01*
X32154Y145540D01*
X32210Y145628D01*
X32270Y145711D01*
X32276Y145730D01*
X32287Y145747D01*
X32312Y145848D01*
X32342Y145947D01*
X32342Y145967D01*
X32347Y145986D01*
X32339Y146089D01*
X32336Y146192D01*
X32329Y146211D01*
X32328Y146231D01*
X32287Y146326D01*
X32252Y146423D01*
X32239Y146439D01*
X32231Y146457D01*
X32126Y146588D01*
X32065Y146649D01*
X32065Y150453D01*
X32126Y150513D01*
X32138Y150529D01*
X32153Y150542D01*
X32209Y150629D01*
X32269Y150713D01*
X32275Y150732D01*
X32286Y150749D01*
X32311Y150849D01*
X32342Y150948D01*
X32341Y150968D01*
X32346Y150987D01*
X32338Y151090D01*
X32335Y151194D01*
X32329Y151213D01*
X32327Y151233D01*
X32287Y151328D01*
X32282Y151341D01*
X32281Y151346D01*
X32278Y151350D01*
X32251Y151425D01*
X32239Y151441D01*
X32231Y151459D01*
X32162Y151545D01*
X32154Y151557D01*
X32146Y151564D01*
X32126Y151590D01*
X32065Y151650D01*
X32065Y155454D01*
X32126Y155514D01*
X32138Y155530D01*
X32153Y155543D01*
X32209Y155630D01*
X32269Y155714D01*
X32275Y155733D01*
X32286Y155750D01*
X32311Y155850D01*
X32342Y155949D01*
X32341Y155969D01*
X32346Y155988D01*
X32338Y156091D01*
X32335Y156195D01*
X32329Y156214D01*
X32327Y156234D01*
X32287Y156329D01*
X32251Y156426D01*
X32239Y156442D01*
X32231Y156460D01*
X32126Y156591D01*
X32065Y156651D01*
X32065Y160455D01*
X32126Y160515D01*
X32138Y160531D01*
X32153Y160544D01*
X32209Y160631D01*
X32269Y160715D01*
X32275Y160734D01*
X32286Y160751D01*
X32311Y160851D01*
X32342Y160950D01*
X32341Y160970D01*
X32346Y160989D01*
X32338Y161092D01*
X32335Y161196D01*
X32329Y161215D01*
X32327Y161235D01*
X32287Y161330D01*
X32251Y161427D01*
X32239Y161443D01*
X32231Y161461D01*
X32126Y161592D01*
X32065Y161652D01*
X32065Y165456D01*
X32126Y165517D01*
X32138Y165533D01*
X32154Y165545D01*
X32210Y165633D01*
X32270Y165716D01*
X32276Y165735D01*
X32287Y165752D01*
X32312Y165853D01*
X32342Y165952D01*
X32342Y165972D01*
X32347Y165991D01*
X32339Y166094D01*
X32336Y166197D01*
X32329Y166216D01*
X32328Y166236D01*
X32287Y166331D01*
X32252Y166428D01*
X32239Y166444D01*
X32231Y166462D01*
X32126Y166593D01*
X32065Y166654D01*
X32065Y170458D01*
X32126Y170518D01*
X32138Y170534D01*
X32153Y170547D01*
X32209Y170634D01*
X32269Y170718D01*
X32275Y170737D01*
X32286Y170754D01*
X32311Y170854D01*
X32342Y170953D01*
X32341Y170973D01*
X32346Y170992D01*
X32338Y171095D01*
X32335Y171199D01*
X32329Y171218D01*
X32327Y171238D01*
X32287Y171332D01*
X32251Y171430D01*
X32239Y171446D01*
X32231Y171464D01*
X32126Y171595D01*
X32065Y171655D01*
X32065Y174814D01*
X32062Y174834D01*
X32064Y174853D01*
X32042Y174955D01*
X32026Y175057D01*
X32016Y175074D01*
X32012Y175094D01*
X31959Y175183D01*
X31910Y175274D01*
X31896Y175288D01*
X31886Y175305D01*
X31807Y175372D01*
X31732Y175444D01*
X31714Y175452D01*
X31699Y175465D01*
X31603Y175504D01*
X31509Y175547D01*
X31489Y175549D01*
X31471Y175557D01*
X31304Y175575D01*
X28145Y175575D01*
X28085Y175636D01*
X28069Y175648D01*
X28056Y175663D01*
X27969Y175719D01*
X27885Y175779D01*
X27866Y175785D01*
X27849Y175796D01*
X27749Y175821D01*
X27650Y175852D01*
X27630Y175851D01*
X27611Y175856D01*
X27508Y175848D01*
X27404Y175845D01*
X27385Y175839D01*
X27365Y175837D01*
X27270Y175797D01*
X27173Y175761D01*
X27157Y175749D01*
X27139Y175741D01*
X27008Y175636D01*
X26948Y175575D01*
X23144Y175575D01*
X23083Y175636D01*
X23067Y175648D01*
X23055Y175664D01*
X22967Y175720D01*
X22884Y175780D01*
X22865Y175786D01*
X22848Y175797D01*
X22747Y175822D01*
X22648Y175852D01*
X22628Y175852D01*
X22609Y175857D01*
X22506Y175849D01*
X22403Y175846D01*
X22384Y175839D01*
X22364Y175838D01*
X22269Y175797D01*
X22172Y175762D01*
X22156Y175749D01*
X22138Y175741D01*
X22007Y175636D01*
X21946Y175575D01*
X18142Y175575D01*
X18082Y175636D01*
X18066Y175648D01*
X18053Y175663D01*
X17966Y175719D01*
X17882Y175779D01*
X17863Y175785D01*
X17846Y175796D01*
X17746Y175821D01*
X17647Y175852D01*
X17627Y175851D01*
X17608Y175856D01*
X17505Y175848D01*
X17401Y175845D01*
X17382Y175839D01*
X17362Y175837D01*
X17267Y175797D01*
X17170Y175761D01*
X17154Y175749D01*
X17136Y175741D01*
X17005Y175636D01*
X16945Y175575D01*
X13141Y175575D01*
X13081Y175636D01*
X13065Y175648D01*
X13052Y175663D01*
X12965Y175719D01*
X12881Y175779D01*
X12862Y175785D01*
X12845Y175796D01*
X12745Y175821D01*
X12646Y175852D01*
X12626Y175851D01*
X12607Y175856D01*
X12504Y175848D01*
X12400Y175845D01*
X12381Y175839D01*
X12361Y175837D01*
X12266Y175797D01*
X12169Y175761D01*
X12153Y175749D01*
X12135Y175741D01*
X12004Y175636D01*
X11944Y175575D01*
X8140Y175575D01*
X8080Y175636D01*
X8064Y175648D01*
X8051Y175663D01*
X7964Y175719D01*
X7880Y175779D01*
X7861Y175785D01*
X7844Y175796D01*
X7744Y175821D01*
X7645Y175852D01*
X7625Y175851D01*
X7606Y175856D01*
X7503Y175848D01*
X7399Y175845D01*
X7380Y175839D01*
X7360Y175837D01*
X7265Y175797D01*
X7168Y175761D01*
X7152Y175749D01*
X7134Y175741D01*
X7003Y175636D01*
X6943Y175575D01*
X3139Y175575D01*
X3078Y175636D01*
X3062Y175648D01*
X3050Y175664D01*
X2962Y175720D01*
X2879Y175780D01*
X2860Y175786D01*
X2843Y175797D01*
X2742Y175822D01*
X2643Y175852D01*
X2623Y175852D01*
X2604Y175857D01*
X2501Y175849D01*
X2398Y175846D01*
X2379Y175839D01*
X2359Y175838D01*
X2264Y175797D01*
X2167Y175762D01*
X2151Y175749D01*
X2133Y175741D01*
X2002Y175636D01*
X1941Y175575D01*
X-1863Y175575D01*
X-1923Y175636D01*
X-1939Y175648D01*
X-1952Y175663D01*
X-2039Y175719D01*
X-2123Y175779D01*
X-2142Y175785D01*
X-2159Y175796D01*
X-2259Y175821D01*
X-2358Y175852D01*
X-2378Y175851D01*
X-2397Y175856D01*
X-2500Y175848D01*
X-2604Y175845D01*
X-2623Y175839D01*
X-2643Y175837D01*
X-2738Y175797D01*
X-2835Y175761D01*
X-2851Y175749D01*
X-2869Y175741D01*
X-3000Y175636D01*
X-3060Y175575D01*
X-6864Y175575D01*
X-6924Y175636D01*
X-6940Y175648D01*
X-6953Y175663D01*
X-7040Y175719D01*
X-7124Y175779D01*
X-7143Y175785D01*
X-7160Y175796D01*
X-7260Y175821D01*
X-7359Y175852D01*
X-7379Y175851D01*
X-7398Y175856D01*
X-7501Y175848D01*
X-7605Y175845D01*
X-7624Y175839D01*
X-7644Y175837D01*
X-7739Y175797D01*
X-7836Y175761D01*
X-7852Y175749D01*
X-7870Y175741D01*
X-8001Y175636D01*
X-8061Y175575D01*
X-11865Y175575D01*
X-11925Y175636D01*
X-11941Y175648D01*
X-11954Y175663D01*
X-12041Y175719D01*
X-12125Y175779D01*
X-12144Y175785D01*
X-12161Y175796D01*
X-12261Y175821D01*
X-12360Y175852D01*
X-12380Y175851D01*
X-12399Y175856D01*
X-12502Y175848D01*
X-12606Y175845D01*
X-12625Y175839D01*
X-12645Y175837D01*
X-12740Y175797D01*
X-12837Y175761D01*
X-12853Y175749D01*
X-12871Y175741D01*
X-13002Y175636D01*
X-13062Y175575D01*
X-16866Y175575D01*
X-16927Y175636D01*
X-16943Y175648D01*
X-16955Y175664D01*
X-17043Y175720D01*
X-17126Y175780D01*
X-17145Y175786D01*
X-17162Y175797D01*
X-17263Y175822D01*
X-17362Y175852D01*
X-17382Y175852D01*
X-17401Y175857D01*
X-17504Y175849D01*
X-17607Y175846D01*
X-17626Y175839D01*
X-17646Y175838D01*
X-17741Y175797D01*
X-17838Y175762D01*
X-17854Y175749D01*
X-17872Y175741D01*
X-18003Y175636D01*
X-18064Y175575D01*
X-21868Y175575D01*
X-21928Y175636D01*
X-21944Y175648D01*
X-21957Y175663D01*
X-22044Y175719D01*
X-22128Y175779D01*
X-22147Y175785D01*
X-22164Y175796D01*
X-22264Y175821D01*
X-22363Y175852D01*
X-22383Y175851D01*
X-22402Y175856D01*
X-22505Y175848D01*
X-22609Y175845D01*
X-22628Y175839D01*
X-22648Y175837D01*
X-22743Y175797D01*
X-22840Y175761D01*
X-22856Y175749D01*
X-22874Y175741D01*
X-23005Y175636D01*
X-23065Y175575D01*
X-26224Y175575D01*
X-26244Y175572D01*
X-26263Y175574D01*
X-26365Y175552D01*
X-26467Y175536D01*
X-26484Y175526D01*
X-26504Y175522D01*
X-26593Y175469D01*
X-26684Y175420D01*
X-26698Y175406D01*
X-26715Y175396D01*
X-26782Y175317D01*
X-26854Y175242D01*
X-26862Y175224D01*
X-26875Y175209D01*
X-26914Y175113D01*
X-26957Y175019D01*
X-26959Y174999D01*
X-26967Y174981D01*
X-26985Y174814D01*
X-26985Y171655D01*
X-27046Y171595D01*
X-27058Y171579D01*
X-27073Y171566D01*
X-27129Y171479D01*
X-27189Y171395D01*
X-27195Y171376D01*
X-27206Y171359D01*
X-27231Y171259D01*
X-27262Y171160D01*
X-27261Y171140D01*
X-27266Y171121D01*
X-27258Y171018D01*
X-27255Y170914D01*
X-27249Y170895D01*
X-27247Y170875D01*
X-27207Y170780D01*
X-27171Y170683D01*
X-27159Y170667D01*
X-27151Y170649D01*
X-27046Y170518D01*
X-26985Y170458D01*
X-26985Y166654D01*
X-27046Y166593D01*
X-27058Y166577D01*
X-27074Y166565D01*
X-27130Y166477D01*
X-27190Y166394D01*
X-27196Y166375D01*
X-27207Y166358D01*
X-27232Y166257D01*
X-27262Y166158D01*
X-27262Y166138D01*
X-27267Y166119D01*
X-27259Y166016D01*
X-27256Y165913D01*
X-27249Y165894D01*
X-27248Y165874D01*
X-27207Y165779D01*
X-27172Y165682D01*
X-27159Y165666D01*
X-27151Y165648D01*
X-27046Y165517D01*
X-26985Y165456D01*
X-26985Y161652D01*
X-27046Y161592D01*
X-27058Y161576D01*
X-27073Y161563D01*
X-27129Y161476D01*
X-27189Y161392D01*
X-27195Y161373D01*
X-27206Y161356D01*
X-27231Y161256D01*
X-27262Y161157D01*
X-27261Y161137D01*
X-27266Y161118D01*
X-27258Y161015D01*
X-27255Y160911D01*
X-27249Y160892D01*
X-27247Y160872D01*
X-27207Y160777D01*
X-27171Y160680D01*
X-27159Y160664D01*
X-27151Y160646D01*
X-27046Y160515D01*
X-26985Y160455D01*
X-26985Y156651D01*
X-27046Y156591D01*
X-27058Y156575D01*
X-27073Y156562D01*
X-27129Y156475D01*
X-27189Y156391D01*
X-27195Y156372D01*
X-27206Y156355D01*
X-27231Y156255D01*
X-27262Y156156D01*
X-27261Y156136D01*
X-27266Y156117D01*
X-27258Y156014D01*
X-27255Y155910D01*
X-27249Y155891D01*
X-27247Y155871D01*
X-27207Y155776D01*
X-27171Y155679D01*
X-27159Y155663D01*
X-27151Y155645D01*
X-27046Y155514D01*
X-26985Y155454D01*
X-26985Y151650D01*
X-27046Y151590D01*
X-27058Y151574D01*
X-27073Y151561D01*
X-27103Y151515D01*
X-27122Y151495D01*
X-27136Y151464D01*
X-27189Y151390D01*
X-27195Y151371D01*
X-27206Y151354D01*
X-27231Y151254D01*
X-27262Y151155D01*
X-27261Y151135D01*
X-27266Y151116D01*
X-27258Y151013D01*
X-27255Y150909D01*
X-27249Y150890D01*
X-27247Y150870D01*
X-27207Y150775D01*
X-27171Y150678D01*
X-27159Y150662D01*
X-27151Y150644D01*
X-27046Y150513D01*
X-26985Y150453D01*
X-26985Y146649D01*
X-27046Y146588D01*
X-27058Y146572D01*
X-27074Y146560D01*
X-27130Y146472D01*
X-27190Y146389D01*
X-27196Y146370D01*
X-27207Y146353D01*
X-27232Y146252D01*
X-27262Y146153D01*
X-27262Y146133D01*
X-27267Y146114D01*
X-27259Y146011D01*
X-27256Y145908D01*
X-27249Y145889D01*
X-27248Y145869D01*
X-27207Y145774D01*
X-27172Y145677D01*
X-27159Y145661D01*
X-27151Y145643D01*
X-27046Y145512D01*
X-26985Y145451D01*
X-26985Y141647D01*
X-27046Y141587D01*
X-27058Y141571D01*
X-27073Y141558D01*
X-27129Y141471D01*
X-27189Y141387D01*
X-27195Y141368D01*
X-27206Y141351D01*
X-27231Y141251D01*
X-27262Y141152D01*
X-27261Y141132D01*
X-27266Y141113D01*
X-27258Y141010D01*
X-27255Y140906D01*
X-27249Y140887D01*
X-27247Y140867D01*
X-27207Y140772D01*
X-27171Y140675D01*
X-27159Y140659D01*
X-27151Y140641D01*
X-27046Y140510D01*
X-26985Y140450D01*
X-26985Y136646D01*
X-27046Y136586D01*
X-27058Y136570D01*
X-27073Y136557D01*
X-27129Y136470D01*
X-27189Y136386D01*
X-27195Y136367D01*
X-27206Y136350D01*
X-27231Y136250D01*
X-27262Y136151D01*
X-27261Y136131D01*
X-27266Y136112D01*
X-27258Y136009D01*
X-27255Y135905D01*
X-27249Y135886D01*
X-27247Y135866D01*
X-27207Y135771D01*
X-27171Y135674D01*
X-27159Y135658D01*
X-27151Y135640D01*
X-27046Y135509D01*
X-26985Y135449D01*
X-26985Y131645D01*
X-27046Y131585D01*
X-27058Y131569D01*
X-27073Y131556D01*
X-27129Y131469D01*
X-27189Y131385D01*
X-27195Y131366D01*
X-27206Y131349D01*
X-27231Y131249D01*
X-27262Y131150D01*
X-27261Y131130D01*
X-27266Y131111D01*
X-27258Y131008D01*
X-27255Y130904D01*
X-27249Y130885D01*
X-27247Y130865D01*
X-27207Y130770D01*
X-27171Y130673D01*
X-27159Y130657D01*
X-27151Y130639D01*
X-27046Y130508D01*
X-26985Y130448D01*
X-26985Y126644D01*
X-27046Y126583D01*
X-27058Y126567D01*
X-27074Y126555D01*
X-27130Y126467D01*
X-27190Y126384D01*
X-27196Y126365D01*
X-27207Y126348D01*
X-27232Y126247D01*
X-27262Y126148D01*
X-27262Y126128D01*
X-27267Y126109D01*
X-27259Y126006D01*
X-27256Y125903D01*
X-27249Y125884D01*
X-27248Y125864D01*
X-27207Y125769D01*
X-27172Y125672D01*
X-27159Y125656D01*
X-27151Y125638D01*
X-27046Y125507D01*
X-26985Y125446D01*
X-26985Y121642D01*
X-27046Y121582D01*
X-27058Y121566D01*
X-27073Y121553D01*
X-27129Y121466D01*
X-27189Y121382D01*
X-27195Y121363D01*
X-27206Y121346D01*
X-27231Y121246D01*
X-27262Y121147D01*
X-27261Y121127D01*
X-27266Y121108D01*
X-27258Y121005D01*
X-27255Y120901D01*
X-27249Y120882D01*
X-27247Y120862D01*
X-27207Y120767D01*
X-27171Y120670D01*
X-27159Y120654D01*
X-27151Y120636D01*
X-27046Y120505D01*
X-26985Y120445D01*
X-26985Y117286D01*
X-26982Y117266D01*
X-26984Y117247D01*
X-26962Y117145D01*
X-26946Y117043D01*
X-26936Y117026D01*
X-26932Y117006D01*
X-26879Y116917D01*
X-26830Y116826D01*
X-26816Y116812D01*
X-26806Y116795D01*
X-26727Y116728D01*
X-26652Y116656D01*
X-26634Y116648D01*
X-26619Y116635D01*
X-26523Y116596D01*
X-26429Y116553D01*
X-26409Y116551D01*
X-26391Y116543D01*
X-26224Y116525D01*
X-23065Y116525D01*
X-23005Y116464D01*
X-22989Y116452D01*
X-22976Y116437D01*
X-22889Y116381D01*
X-22805Y116321D01*
X-22786Y116315D01*
X-22769Y116304D01*
X-22669Y116279D01*
X-22570Y116248D01*
X-22550Y116249D01*
X-22531Y116244D01*
X-22428Y116252D01*
X-22324Y116255D01*
X-22305Y116261D01*
X-22285Y116263D01*
X-22190Y116303D01*
X-22093Y116339D01*
X-22077Y116351D01*
X-22059Y116359D01*
X-21928Y116464D01*
X-21868Y116525D01*
X-18064Y116525D01*
X-18003Y116464D01*
X-17987Y116452D01*
X-17975Y116436D01*
X-17887Y116380D01*
X-17804Y116320D01*
X-17785Y116314D01*
X-17768Y116303D01*
X-17667Y116278D01*
X-17568Y116248D01*
X-17548Y116248D01*
X-17529Y116243D01*
X-17426Y116251D01*
X-17323Y116254D01*
X-17304Y116261D01*
X-17284Y116262D01*
X-17189Y116303D01*
X-17092Y116338D01*
X-17076Y116351D01*
X-17058Y116359D01*
X-16927Y116464D01*
X-16866Y116525D01*
X-13062Y116525D01*
X-13002Y116464D01*
X-12986Y116452D01*
X-12973Y116437D01*
X-12886Y116381D01*
X-12802Y116321D01*
X-12783Y116315D01*
X-12766Y116304D01*
X-12666Y116279D01*
X-12567Y116248D01*
X-12547Y116249D01*
X-12528Y116244D01*
X-12425Y116252D01*
X-12321Y116255D01*
X-12302Y116261D01*
X-12282Y116263D01*
X-12187Y116303D01*
X-12090Y116339D01*
X-12074Y116351D01*
X-12056Y116359D01*
X-11925Y116464D01*
X-11865Y116525D01*
X-8061Y116525D01*
X-8001Y116464D01*
X-7985Y116452D01*
X-7972Y116437D01*
X-7885Y116381D01*
X-7801Y116321D01*
X-7782Y116315D01*
X-7765Y116304D01*
X-7665Y116279D01*
X-7566Y116248D01*
X-7546Y116249D01*
X-7527Y116244D01*
X-7424Y116252D01*
X-7320Y116255D01*
X-7301Y116261D01*
X-7281Y116263D01*
X-7186Y116303D01*
X-7089Y116339D01*
X-7073Y116351D01*
X-7055Y116359D01*
X-6924Y116464D01*
X-6864Y116525D01*
X-3060Y116525D01*
X-3000Y116464D01*
X-2984Y116452D01*
X-2971Y116437D01*
X-2884Y116381D01*
X-2800Y116321D01*
X-2781Y116315D01*
X-2764Y116304D01*
X-2664Y116279D01*
X-2565Y116248D01*
X-2545Y116249D01*
X-2526Y116244D01*
X-2423Y116252D01*
X-2319Y116255D01*
X-2300Y116261D01*
X-2280Y116263D01*
X-2185Y116303D01*
X-2088Y116339D01*
X-2072Y116351D01*
X-2054Y116359D01*
X-1923Y116464D01*
X-1863Y116525D01*
X1941Y116525D01*
X2002Y116464D01*
X2018Y116452D01*
X2030Y116436D01*
X2118Y116380D01*
X2201Y116320D01*
X2220Y116314D01*
X2237Y116303D01*
X2338Y116278D01*
X2437Y116248D01*
X2457Y116248D01*
X2476Y116243D01*
X2579Y116251D01*
X2682Y116254D01*
X2701Y116261D01*
X2721Y116262D01*
X2816Y116303D01*
X2913Y116338D01*
X2929Y116351D01*
X2947Y116359D01*
X3078Y116464D01*
X3139Y116525D01*
X6943Y116525D01*
X7003Y116464D01*
X7019Y116452D01*
X7032Y116437D01*
X7119Y116381D01*
X7203Y116321D01*
X7222Y116315D01*
X7239Y116304D01*
X7339Y116279D01*
X7438Y116248D01*
X7458Y116249D01*
X7477Y116244D01*
X7580Y116252D01*
X7684Y116255D01*
X7703Y116261D01*
X7723Y116263D01*
X7818Y116303D01*
X7915Y116339D01*
X7931Y116351D01*
X7949Y116359D01*
X8080Y116464D01*
X8140Y116525D01*
X11944Y116525D01*
X12004Y116464D01*
X12020Y116452D01*
X12033Y116437D01*
X12120Y116381D01*
X12204Y116321D01*
X12223Y116315D01*
X12240Y116304D01*
X12340Y116279D01*
X12439Y116248D01*
X12459Y116249D01*
X12478Y116244D01*
X12581Y116252D01*
X12685Y116255D01*
X12704Y116261D01*
X12724Y116263D01*
X12819Y116303D01*
X12916Y116339D01*
X12932Y116351D01*
X12950Y116359D01*
X13081Y116464D01*
X13141Y116525D01*
X16945Y116525D01*
X17005Y116464D01*
X17021Y116452D01*
X17034Y116437D01*
X17121Y116381D01*
X17205Y116321D01*
X17224Y116315D01*
X17241Y116304D01*
X17341Y116279D01*
X17440Y116248D01*
X17460Y116249D01*
X17479Y116244D01*
X17582Y116252D01*
X17686Y116255D01*
X17705Y116261D01*
X17725Y116263D01*
X17820Y116303D01*
X17917Y116339D01*
X17933Y116351D01*
X17951Y116359D01*
X18082Y116464D01*
X18142Y116525D01*
X21946Y116525D01*
X22007Y116464D01*
X22023Y116452D01*
X22035Y116436D01*
X22123Y116380D01*
X22206Y116320D01*
X22225Y116314D01*
X22242Y116303D01*
X22343Y116278D01*
X22442Y116248D01*
X22462Y116248D01*
X22481Y116243D01*
X22584Y116251D01*
G37*
G36*
X-116375Y101729D02*
X-116375Y101729D01*
X-116256Y101732D01*
X-116252Y101734D01*
X-116248Y101734D01*
X-116137Y101776D01*
X-116025Y101817D01*
X-116022Y101819D01*
X-116018Y101821D01*
X-115926Y101896D01*
X-115833Y101970D01*
X-115831Y101974D01*
X-115827Y101977D01*
X-115765Y102076D01*
X-115700Y102177D01*
X-115699Y102182D01*
X-115697Y102185D01*
X-115669Y102301D01*
X-115640Y102416D01*
X-115641Y102420D01*
X-115640Y102425D01*
X-115650Y102544D01*
X-115659Y102661D01*
X-115661Y102665D01*
X-115662Y102670D01*
X-115710Y102779D01*
X-115756Y102887D01*
X-115759Y102891D01*
X-115761Y102895D01*
X-115771Y102906D01*
X-115861Y103018D01*
X-128525Y115682D01*
X-128525Y187852D01*
X-128539Y187942D01*
X-128547Y188033D01*
X-128559Y188063D01*
X-128564Y188095D01*
X-128607Y188176D01*
X-128643Y188260D01*
X-128669Y188292D01*
X-128680Y188312D01*
X-128703Y188335D01*
X-128748Y188391D01*
X-131037Y190680D01*
X-131037Y195076D01*
X-130763Y195349D01*
X-130754Y195362D01*
X-130742Y195371D01*
X-130683Y195461D01*
X-130620Y195549D01*
X-130615Y195563D01*
X-130607Y195576D01*
X-130579Y195681D01*
X-130547Y195784D01*
X-130548Y195799D01*
X-130544Y195814D01*
X-130551Y195922D01*
X-130554Y196030D01*
X-130559Y196044D01*
X-130560Y196059D01*
X-130601Y196159D01*
X-130638Y196261D01*
X-130647Y196273D01*
X-130653Y196287D01*
X-130724Y196368D01*
X-130792Y196453D01*
X-130804Y196461D01*
X-130814Y196473D01*
X-130907Y196527D01*
X-130999Y196586D01*
X-131013Y196590D01*
X-131026Y196597D01*
X-131188Y196640D01*
X-131243Y196649D01*
X-131276Y196648D01*
X-131356Y196657D01*
X-131997Y196657D01*
X-132059Y196693D01*
X-132131Y196745D01*
X-132164Y196755D01*
X-132194Y196773D01*
X-132356Y196816D01*
X-134536Y197144D01*
X-134570Y197143D01*
X-134604Y197151D01*
X-134692Y197142D01*
X-134781Y197141D01*
X-134814Y197129D01*
X-134849Y197126D01*
X-134923Y197096D01*
X-135538Y197286D01*
X-135570Y197290D01*
X-135649Y197311D01*
X-136282Y197406D01*
X-136338Y197452D01*
X-136401Y197514D01*
X-136432Y197529D01*
X-136459Y197551D01*
X-136613Y197617D01*
X-138720Y198266D01*
X-138754Y198271D01*
X-138786Y198284D01*
X-138875Y198288D01*
X-138963Y198300D01*
X-138997Y198293D01*
X-139032Y198295D01*
X-139109Y198277D01*
X-139689Y198556D01*
X-139721Y198566D01*
X-139795Y198598D01*
X-140407Y198786D01*
X-140456Y198839D01*
X-140509Y198910D01*
X-140538Y198930D01*
X-140561Y198955D01*
X-140704Y199044D01*
X-141216Y199291D01*
X-141325Y199323D01*
X-141435Y199358D01*
X-141444Y199358D01*
X-141452Y199360D01*
X-141567Y199356D01*
X-141681Y199354D01*
X-141689Y199351D01*
X-141698Y199351D01*
X-141805Y199310D01*
X-141913Y199272D01*
X-141920Y199267D01*
X-141928Y199264D01*
X-142017Y199191D01*
X-142106Y199121D01*
X-142113Y199112D01*
X-142118Y199108D01*
X-142131Y199088D01*
X-142206Y198986D01*
X-161017Y166403D01*
X-162654Y167533D01*
X-162681Y167544D01*
X-162703Y167563D01*
X-162772Y167583D01*
X-162837Y167611D01*
X-162866Y167611D01*
X-162894Y167619D01*
X-162965Y167611D01*
X-163036Y167612D01*
X-163063Y167600D01*
X-163092Y167597D01*
X-163154Y167562D01*
X-163219Y167534D01*
X-163240Y167514D01*
X-163265Y167499D01*
X-163328Y167422D01*
X-163358Y167392D01*
X-163362Y167382D01*
X-163371Y167371D01*
X-172871Y150871D01*
X-172895Y150798D01*
X-172926Y150728D01*
X-172926Y150704D01*
X-172934Y150682D01*
X-172928Y150606D01*
X-172929Y150529D01*
X-172919Y150505D01*
X-172918Y150484D01*
X-172897Y150445D01*
X-172878Y150393D01*
X-172877Y150387D01*
X-172875Y150385D01*
X-172871Y150373D01*
X-163371Y133873D01*
X-163352Y133851D01*
X-163339Y133825D01*
X-163286Y133777D01*
X-163239Y133724D01*
X-163213Y133711D01*
X-163192Y133692D01*
X-163124Y133669D01*
X-163060Y133638D01*
X-163031Y133637D01*
X-163004Y133627D01*
X-162932Y133632D01*
X-162861Y133629D01*
X-162834Y133639D01*
X-162805Y133641D01*
X-162715Y133683D01*
X-162675Y133698D01*
X-162667Y133705D01*
X-162654Y133711D01*
X-161017Y134841D01*
X-142206Y102258D01*
X-142133Y102169D01*
X-142063Y102080D01*
X-142056Y102075D01*
X-142050Y102068D01*
X-141953Y102007D01*
X-141858Y101944D01*
X-141849Y101942D01*
X-141842Y101937D01*
X-141730Y101910D01*
X-141620Y101881D01*
X-141611Y101882D01*
X-141603Y101880D01*
X-141489Y101890D01*
X-141375Y101897D01*
X-141365Y101901D01*
X-141358Y101902D01*
X-141336Y101911D01*
X-141216Y101953D01*
X-140704Y102200D01*
X-140675Y102220D01*
X-140643Y102232D01*
X-140575Y102290D01*
X-140502Y102341D01*
X-140482Y102369D01*
X-140455Y102391D01*
X-140410Y102457D01*
X-139795Y102646D01*
X-139766Y102661D01*
X-139689Y102688D01*
X-139112Y102965D01*
X-139041Y102959D01*
X-138953Y102944D01*
X-138919Y102949D01*
X-138885Y102946D01*
X-138720Y102978D01*
X-136613Y103627D01*
X-136582Y103642D01*
X-136548Y103650D01*
X-136473Y103696D01*
X-136393Y103736D01*
X-136368Y103761D01*
X-136339Y103779D01*
X-136285Y103837D01*
X-135649Y103933D01*
X-135617Y103943D01*
X-135538Y103958D01*
X-134926Y104147D01*
X-134856Y104130D01*
X-134772Y104102D01*
X-134737Y104102D01*
X-134703Y104094D01*
X-134536Y104100D01*
X-132356Y104428D01*
X-132323Y104439D01*
X-132288Y104441D01*
X-132206Y104476D01*
X-132122Y104503D01*
X-132094Y104524D01*
X-132062Y104538D01*
X-132000Y104587D01*
X-131356Y104587D01*
X-131324Y104592D01*
X-131243Y104595D01*
X-130610Y104691D01*
X-130543Y104664D01*
X-130464Y104623D01*
X-130430Y104618D01*
X-130397Y104605D01*
X-130231Y104587D01*
X-128027Y104586D01*
X-127992Y104591D01*
X-127958Y104589D01*
X-127872Y104611D01*
X-127784Y104625D01*
X-127753Y104642D01*
X-127720Y104650D01*
X-127651Y104690D01*
X-127015Y104594D01*
X-126982Y104594D01*
X-126901Y104585D01*
X-126261Y104585D01*
X-126199Y104549D01*
X-126127Y104497D01*
X-126094Y104487D01*
X-126064Y104469D01*
X-125902Y104426D01*
X-123722Y104097D01*
X-123687Y104097D01*
X-123654Y104089D01*
X-123565Y104099D01*
X-123476Y104100D01*
X-123444Y104111D01*
X-123409Y104115D01*
X-123335Y104144D01*
X-122720Y103954D01*
X-122688Y103949D01*
X-122609Y103929D01*
X-121976Y103833D01*
X-121921Y103788D01*
X-121857Y103726D01*
X-121826Y103711D01*
X-121799Y103689D01*
X-121645Y103622D01*
X-119539Y102971D01*
X-119504Y102967D01*
X-119472Y102954D01*
X-119383Y102950D01*
X-119295Y102938D01*
X-119261Y102944D01*
X-119226Y102943D01*
X-119149Y102960D01*
X-118569Y102681D01*
X-118538Y102672D01*
X-118463Y102639D01*
X-117851Y102450D01*
X-117803Y102397D01*
X-117749Y102326D01*
X-117721Y102307D01*
X-117697Y102281D01*
X-117555Y102192D01*
X-116729Y101794D01*
X-116616Y101761D01*
X-116502Y101726D01*
X-116498Y101726D01*
X-116493Y101725D01*
X-116375Y101729D01*
G37*
G36*
X132703Y198189D02*
X132703Y198189D01*
X132746Y198188D01*
X136739Y198789D01*
X136769Y198800D01*
X136812Y198805D01*
X140671Y199994D01*
X140699Y200009D01*
X140740Y200021D01*
X144378Y201772D01*
X144400Y201789D01*
X144426Y201798D01*
X144479Y201848D01*
X144537Y201892D01*
X144550Y201916D01*
X144570Y201935D01*
X144600Y202001D01*
X144636Y202065D01*
X144639Y202092D01*
X144650Y202117D01*
X144651Y202190D01*
X144660Y202262D01*
X144652Y202288D01*
X144652Y202316D01*
X144616Y202414D01*
X144604Y202453D01*
X144598Y202461D01*
X144594Y202472D01*
X117594Y249272D01*
X117576Y249292D01*
X117565Y249317D01*
X117511Y249366D01*
X117463Y249421D01*
X117438Y249432D01*
X117418Y249451D01*
X117349Y249475D01*
X117283Y249506D01*
X117256Y249508D01*
X117231Y249517D01*
X117158Y249512D01*
X117085Y249515D01*
X117059Y249506D01*
X117032Y249504D01*
X116936Y249460D01*
X116898Y249446D01*
X116891Y249439D01*
X116881Y249435D01*
X113544Y247161D01*
X113522Y247138D01*
X113486Y247115D01*
X110525Y244369D01*
X110506Y244343D01*
X110474Y244315D01*
X107956Y241159D01*
X107941Y241130D01*
X107914Y241097D01*
X105894Y237601D01*
X105884Y237571D01*
X105861Y237534D01*
X104385Y233776D01*
X104380Y233744D01*
X104363Y233704D01*
X103463Y229768D01*
X103463Y229736D01*
X103452Y229694D01*
X103149Y225668D01*
X103152Y225645D01*
X103149Y225625D01*
X103151Y225615D01*
X103149Y225594D01*
X103450Y221567D01*
X103458Y221536D01*
X103461Y221493D01*
X104358Y217557D01*
X104371Y217528D01*
X104380Y217485D01*
X105854Y213726D01*
X105871Y213699D01*
X105886Y213659D01*
X107904Y210162D01*
X107925Y210138D01*
X107946Y210100D01*
X110462Y206942D01*
X110487Y206922D01*
X110513Y206888D01*
X113472Y204140D01*
X113499Y204124D01*
X113530Y204094D01*
X116866Y201818D01*
X116895Y201806D01*
X116930Y201781D01*
X120568Y200028D01*
X120598Y200020D01*
X120637Y200001D01*
X124495Y198809D01*
X124527Y198806D01*
X124568Y198793D01*
X128560Y198190D01*
X128592Y198191D01*
X128634Y198184D01*
X132672Y198183D01*
X132703Y198189D01*
G37*
G36*
X-127110Y198184D02*
X-127110Y198184D01*
X-127079Y198190D01*
X-127036Y198190D01*
X-123044Y198793D01*
X-123014Y198804D01*
X-122971Y198809D01*
X-119113Y200001D01*
X-119085Y200016D01*
X-119044Y200028D01*
X-115406Y201781D01*
X-115381Y201800D01*
X-115342Y201818D01*
X-112006Y204094D01*
X-111984Y204117D01*
X-111948Y204140D01*
X-108989Y206888D01*
X-108970Y206913D01*
X-108938Y206942D01*
X-106422Y210100D01*
X-106407Y210128D01*
X-106380Y210162D01*
X-104362Y213659D01*
X-104352Y213689D01*
X-104330Y213726D01*
X-102856Y217485D01*
X-102850Y217517D01*
X-102834Y217557D01*
X-101937Y221493D01*
X-101936Y221525D01*
X-101926Y221567D01*
X-101625Y225594D01*
X-101629Y225625D01*
X-101628Y225641D01*
X-101625Y225658D01*
X-101626Y225662D01*
X-101625Y225668D01*
X-101928Y229694D01*
X-101937Y229725D01*
X-101939Y229768D01*
X-102839Y233704D01*
X-102852Y233733D01*
X-102861Y233776D01*
X-104337Y237534D01*
X-104355Y237561D01*
X-104370Y237601D01*
X-106390Y241097D01*
X-106411Y241121D01*
X-106432Y241159D01*
X-108950Y244315D01*
X-108975Y244335D01*
X-109001Y244369D01*
X-111962Y247115D01*
X-111989Y247131D01*
X-112020Y247161D01*
X-115357Y249435D01*
X-115382Y249445D01*
X-115403Y249462D01*
X-115473Y249483D01*
X-115540Y249512D01*
X-115568Y249512D01*
X-115594Y249519D01*
X-115666Y249511D01*
X-115739Y249511D01*
X-115764Y249500D01*
X-115791Y249497D01*
X-115855Y249461D01*
X-115922Y249433D01*
X-115941Y249413D01*
X-115964Y249400D01*
X-116032Y249319D01*
X-116060Y249289D01*
X-116063Y249280D01*
X-116070Y249272D01*
X-143070Y202472D01*
X-143079Y202446D01*
X-143095Y202423D01*
X-143110Y202352D01*
X-143134Y202283D01*
X-143131Y202256D01*
X-143137Y202229D01*
X-143124Y202158D01*
X-143118Y202085D01*
X-143105Y202060D01*
X-143100Y202034D01*
X-143060Y201973D01*
X-143026Y201908D01*
X-143005Y201891D01*
X-142990Y201868D01*
X-142904Y201807D01*
X-142873Y201782D01*
X-142864Y201779D01*
X-142854Y201772D01*
X-139216Y200021D01*
X-139185Y200014D01*
X-139147Y199994D01*
X-135288Y198805D01*
X-135256Y198802D01*
X-135215Y198789D01*
X-131222Y198188D01*
X-131191Y198190D01*
X-131148Y198183D01*
X-127110Y198184D01*
G37*
G36*
X117190Y51733D02*
X117190Y51733D01*
X117263Y51733D01*
X117288Y51744D01*
X117315Y51747D01*
X117379Y51783D01*
X117446Y51811D01*
X117465Y51831D01*
X117488Y51844D01*
X117556Y51925D01*
X117584Y51955D01*
X117587Y51964D01*
X117594Y51973D01*
X144594Y98773D01*
X144603Y98798D01*
X144619Y98821D01*
X144634Y98892D01*
X144658Y98961D01*
X144655Y98988D01*
X144661Y99015D01*
X144648Y99086D01*
X144642Y99159D01*
X144629Y99184D01*
X144624Y99210D01*
X144584Y99271D01*
X144550Y99336D01*
X144529Y99353D01*
X144514Y99376D01*
X144428Y99437D01*
X144397Y99462D01*
X144388Y99465D01*
X144378Y99472D01*
X140740Y101223D01*
X140709Y101230D01*
X140671Y101250D01*
X136812Y102439D01*
X136780Y102442D01*
X136739Y102455D01*
X132746Y103056D01*
X132715Y103054D01*
X132672Y103061D01*
X128634Y103060D01*
X128603Y103054D01*
X128560Y103054D01*
X124568Y102451D01*
X124538Y102440D01*
X124495Y102435D01*
X120637Y101243D01*
X120609Y101228D01*
X120568Y101216D01*
X116930Y99463D01*
X116905Y99444D01*
X116866Y99426D01*
X113530Y97150D01*
X113508Y97127D01*
X113472Y97104D01*
X110513Y94356D01*
X110494Y94331D01*
X110462Y94302D01*
X107946Y91144D01*
X107931Y91116D01*
X107904Y91082D01*
X105886Y87585D01*
X105876Y87555D01*
X105854Y87518D01*
X104380Y83759D01*
X104374Y83727D01*
X104358Y83687D01*
X103461Y79751D01*
X103460Y79719D01*
X103450Y79677D01*
X103149Y75651D01*
X103153Y75619D01*
X103149Y75576D01*
X103452Y71550D01*
X103461Y71519D01*
X103463Y71476D01*
X104363Y67540D01*
X104376Y67511D01*
X104385Y67468D01*
X105861Y63710D01*
X105879Y63683D01*
X105894Y63643D01*
X107914Y60147D01*
X107935Y60123D01*
X107956Y60085D01*
X110474Y56929D01*
X110499Y56909D01*
X110525Y56875D01*
X113486Y54129D01*
X113513Y54113D01*
X113544Y54083D01*
X116881Y51809D01*
X116906Y51799D01*
X116927Y51782D01*
X116997Y51761D01*
X117064Y51732D01*
X117092Y51733D01*
X117118Y51725D01*
X117190Y51733D01*
G37*
G36*
X-115634Y51732D02*
X-115634Y51732D01*
X-115561Y51729D01*
X-115535Y51738D01*
X-115508Y51740D01*
X-115412Y51784D01*
X-115374Y51798D01*
X-115367Y51805D01*
X-115357Y51809D01*
X-112020Y54083D01*
X-111998Y54106D01*
X-111962Y54129D01*
X-109001Y56875D01*
X-108982Y56901D01*
X-108950Y56929D01*
X-106432Y60085D01*
X-106417Y60114D01*
X-106390Y60147D01*
X-104370Y63643D01*
X-104360Y63673D01*
X-104337Y63710D01*
X-102861Y67468D01*
X-102856Y67500D01*
X-102839Y67540D01*
X-101939Y71476D01*
X-101939Y71508D01*
X-101928Y71550D01*
X-101625Y75576D01*
X-101629Y75607D01*
X-101625Y75651D01*
X-101926Y79677D01*
X-101934Y79708D01*
X-101937Y79751D01*
X-102834Y83687D01*
X-102847Y83716D01*
X-102856Y83759D01*
X-104330Y87518D01*
X-104347Y87545D01*
X-104362Y87585D01*
X-106380Y91082D01*
X-106401Y91106D01*
X-106422Y91144D01*
X-108938Y94302D01*
X-108963Y94322D01*
X-108989Y94356D01*
X-111948Y97104D01*
X-111975Y97120D01*
X-112006Y97150D01*
X-115342Y99426D01*
X-115371Y99438D01*
X-115406Y99463D01*
X-119044Y101216D01*
X-119074Y101224D01*
X-119113Y101243D01*
X-122971Y102435D01*
X-123003Y102438D01*
X-123044Y102451D01*
X-127036Y103054D01*
X-127068Y103053D01*
X-127110Y103060D01*
X-131148Y103061D01*
X-131179Y103055D01*
X-131222Y103056D01*
X-135215Y102455D01*
X-135245Y102444D01*
X-135288Y102439D01*
X-139147Y101250D01*
X-139175Y101235D01*
X-139216Y101223D01*
X-142854Y99472D01*
X-142876Y99455D01*
X-142902Y99446D01*
X-142955Y99396D01*
X-143013Y99352D01*
X-143026Y99328D01*
X-143046Y99309D01*
X-143076Y99243D01*
X-143112Y99179D01*
X-143115Y99152D01*
X-143126Y99127D01*
X-143127Y99054D01*
X-143136Y98982D01*
X-143128Y98956D01*
X-143128Y98928D01*
X-143092Y98830D01*
X-143080Y98791D01*
X-143074Y98783D01*
X-143070Y98773D01*
X-116070Y51973D01*
X-116052Y51952D01*
X-116041Y51927D01*
X-115987Y51878D01*
X-115939Y51824D01*
X-115914Y51812D01*
X-115894Y51793D01*
X-115825Y51769D01*
X-115759Y51738D01*
X-115732Y51737D01*
X-115707Y51727D01*
X-115634Y51732D01*
G37*
G36*
X27789Y128D02*
X27789Y128D01*
X27816Y126D01*
X27885Y148D01*
X27957Y162D01*
X27979Y178D01*
X28005Y186D01*
X28061Y234D01*
X28121Y275D01*
X28135Y298D01*
X28156Y316D01*
X28189Y381D01*
X28228Y442D01*
X28232Y469D01*
X28244Y494D01*
X28254Y598D01*
X28261Y639D01*
X28259Y648D01*
X28260Y659D01*
X27958Y4683D01*
X27950Y4714D01*
X27947Y4757D01*
X27049Y8691D01*
X27036Y8720D01*
X27027Y8763D01*
X25553Y12519D01*
X25536Y12546D01*
X25521Y12587D01*
X23503Y16081D01*
X23482Y16105D01*
X23461Y16143D01*
X20945Y19298D01*
X20920Y19318D01*
X20894Y19353D01*
X17936Y22097D01*
X17909Y22114D01*
X17877Y22144D01*
X14543Y24417D01*
X14514Y24430D01*
X14479Y24455D01*
X10843Y26205D01*
X10812Y26213D01*
X10773Y26233D01*
X6917Y27422D01*
X6886Y27425D01*
X6844Y27439D01*
X2854Y28040D01*
X2822Y28039D01*
X2780Y28046D01*
X-1256Y28046D01*
X-1287Y28039D01*
X-1330Y28040D01*
X-5320Y27439D01*
X-5350Y27428D01*
X-5393Y27422D01*
X-9249Y26233D01*
X-9277Y26217D01*
X-9319Y26205D01*
X-12955Y24455D01*
X-12980Y24435D01*
X-13019Y24417D01*
X-16353Y22144D01*
X-16376Y22121D01*
X-16412Y22097D01*
X-19370Y19353D01*
X-19389Y19327D01*
X-19421Y19298D01*
X-21937Y16143D01*
X-21951Y16115D01*
X-21979Y16081D01*
X-23997Y12587D01*
X-24007Y12556D01*
X-24029Y12519D01*
X-25503Y8763D01*
X-25509Y8731D01*
X-25525Y8691D01*
X-26423Y4757D01*
X-26424Y4725D01*
X-26434Y4683D01*
X-26736Y659D01*
X-26732Y632D01*
X-26737Y605D01*
X-26720Y535D01*
X-26711Y462D01*
X-26697Y438D01*
X-26691Y412D01*
X-26648Y353D01*
X-26611Y290D01*
X-26589Y274D01*
X-26573Y252D01*
X-26510Y215D01*
X-26452Y171D01*
X-26425Y164D01*
X-26402Y150D01*
X-26298Y133D01*
X-26259Y123D01*
X-26249Y125D01*
X-26238Y123D01*
X27762Y123D01*
X27789Y128D01*
G37*
%LPC*%
G36*
X25150Y246325D02*
X25150Y246325D01*
X19996Y248460D01*
X16050Y252406D01*
X13915Y257560D01*
X13915Y263140D01*
X16050Y268294D01*
X19996Y272240D01*
X24421Y274073D01*
X24521Y274134D01*
X24621Y274194D01*
X24625Y274199D01*
X24630Y274202D01*
X24705Y274292D01*
X24781Y274381D01*
X24783Y274387D01*
X24787Y274392D01*
X24829Y274500D01*
X24873Y274609D01*
X24874Y274617D01*
X24875Y274621D01*
X24876Y274640D01*
X24891Y274776D01*
X24891Y275964D01*
X24888Y275984D01*
X24890Y276003D01*
X24868Y276105D01*
X24852Y276207D01*
X24842Y276224D01*
X24838Y276244D01*
X24785Y276333D01*
X24736Y276424D01*
X24722Y276438D01*
X24712Y276455D01*
X24633Y276522D01*
X24558Y276594D01*
X24540Y276602D01*
X24525Y276615D01*
X24429Y276654D01*
X24335Y276697D01*
X24315Y276699D01*
X24297Y276707D01*
X24130Y276725D01*
X22128Y276725D01*
X21235Y277618D01*
X21235Y293882D01*
X22128Y294775D01*
X36392Y294775D01*
X37285Y293882D01*
X37285Y277618D01*
X36392Y276725D01*
X31750Y276725D01*
X31730Y276722D01*
X31711Y276724D01*
X31609Y276702D01*
X31507Y276686D01*
X31490Y276676D01*
X31470Y276672D01*
X31381Y276619D01*
X31290Y276570D01*
X31276Y276556D01*
X31259Y276546D01*
X31192Y276467D01*
X31120Y276392D01*
X31112Y276374D01*
X31099Y276359D01*
X31060Y276263D01*
X31017Y276169D01*
X31015Y276149D01*
X31007Y276131D01*
X30989Y275964D01*
X30989Y274776D01*
X31008Y274661D01*
X31025Y274545D01*
X31027Y274540D01*
X31028Y274533D01*
X31083Y274431D01*
X31136Y274326D01*
X31141Y274321D01*
X31144Y274316D01*
X31228Y274236D01*
X31312Y274154D01*
X31318Y274150D01*
X31322Y274147D01*
X31339Y274139D01*
X31459Y274073D01*
X35884Y272240D01*
X39830Y268294D01*
X41965Y263140D01*
X41965Y257560D01*
X39830Y252406D01*
X35884Y248460D01*
X30730Y246325D01*
X25150Y246325D01*
G37*
%LPD*%
%LPC*%
G36*
X-35992Y246325D02*
X-35992Y246325D01*
X-36885Y247218D01*
X-36885Y273482D01*
X-35992Y274375D01*
X-9728Y274375D01*
X-8835Y273482D01*
X-8835Y247218D01*
X-9728Y246325D01*
X-35992Y246325D01*
G37*
%LPD*%
%LPC*%
G36*
X45558Y258405D02*
X45558Y258405D01*
X44665Y259298D01*
X44665Y271562D01*
X45558Y272455D01*
X47380Y272455D01*
X47400Y272458D01*
X47419Y272456D01*
X47521Y272478D01*
X47623Y272494D01*
X47640Y272504D01*
X47660Y272508D01*
X47749Y272561D01*
X47840Y272610D01*
X47854Y272624D01*
X47871Y272634D01*
X47938Y272713D01*
X48010Y272788D01*
X48018Y272806D01*
X48031Y272821D01*
X48070Y272917D01*
X48113Y273011D01*
X48115Y273031D01*
X48123Y273049D01*
X48141Y273216D01*
X48141Y275964D01*
X48138Y275984D01*
X48140Y276003D01*
X48118Y276105D01*
X48102Y276207D01*
X48092Y276224D01*
X48088Y276244D01*
X48035Y276333D01*
X47986Y276424D01*
X47972Y276438D01*
X47962Y276455D01*
X47883Y276522D01*
X47808Y276594D01*
X47790Y276602D01*
X47775Y276615D01*
X47679Y276654D01*
X47585Y276697D01*
X47565Y276699D01*
X47547Y276707D01*
X47380Y276725D01*
X41128Y276725D01*
X40235Y277618D01*
X40235Y293882D01*
X41128Y294775D01*
X55392Y294775D01*
X56285Y293882D01*
X56285Y277618D01*
X55392Y276725D01*
X55000Y276725D01*
X54980Y276722D01*
X54961Y276724D01*
X54859Y276702D01*
X54757Y276686D01*
X54740Y276676D01*
X54720Y276672D01*
X54631Y276619D01*
X54540Y276570D01*
X54526Y276556D01*
X54509Y276546D01*
X54442Y276467D01*
X54370Y276392D01*
X54362Y276374D01*
X54349Y276359D01*
X54310Y276263D01*
X54267Y276169D01*
X54265Y276149D01*
X54257Y276131D01*
X54239Y275964D01*
X54239Y273216D01*
X54242Y273196D01*
X54240Y273177D01*
X54262Y273075D01*
X54278Y272973D01*
X54288Y272956D01*
X54292Y272936D01*
X54345Y272847D01*
X54394Y272756D01*
X54408Y272742D01*
X54418Y272725D01*
X54497Y272658D01*
X54572Y272586D01*
X54590Y272578D01*
X54605Y272565D01*
X54701Y272526D01*
X54795Y272483D01*
X54815Y272481D01*
X54833Y272473D01*
X55000Y272455D01*
X56822Y272455D01*
X57715Y271562D01*
X57715Y259298D01*
X56822Y258405D01*
X45558Y258405D01*
G37*
%LPD*%
%LPC*%
G36*
X-19978Y194083D02*
X-19978Y194083D01*
X-23087Y197192D01*
X-23087Y201588D01*
X-19978Y204697D01*
X-16741Y204697D01*
X-16651Y204711D01*
X-16560Y204719D01*
X-16530Y204731D01*
X-16498Y204736D01*
X-16418Y204779D01*
X-16334Y204815D01*
X-16302Y204841D01*
X-16281Y204852D01*
X-16259Y204875D01*
X-16203Y204920D01*
X-11058Y210065D01*
X-11005Y210139D01*
X-10945Y210208D01*
X-10933Y210238D01*
X-10914Y210264D01*
X-10887Y210351D01*
X-10853Y210436D01*
X-10849Y210477D01*
X-10842Y210499D01*
X-10843Y210532D01*
X-10835Y210603D01*
X-10835Y214792D01*
X-9942Y215685D01*
X2322Y215685D01*
X3215Y214792D01*
X3215Y203528D01*
X2322Y202635D01*
X-10188Y202635D01*
X-10198Y202638D01*
X-10228Y202635D01*
X-10257Y202635D01*
X-10283Y202631D01*
X-10301Y202630D01*
X-10404Y202627D01*
X-10423Y202620D01*
X-10443Y202619D01*
X-10495Y202596D01*
X-10500Y202596D01*
X-10510Y202590D01*
X-10538Y202578D01*
X-10635Y202542D01*
X-10651Y202530D01*
X-10669Y202522D01*
X-10800Y202417D01*
X-12250Y200967D01*
X-12303Y200893D01*
X-12363Y200824D01*
X-12375Y200794D01*
X-12394Y200768D01*
X-12421Y200680D01*
X-12455Y200596D01*
X-12459Y200555D01*
X-12466Y200533D01*
X-12465Y200500D01*
X-12473Y200429D01*
X-12473Y197192D01*
X-15582Y194083D01*
X-19978Y194083D01*
G37*
%LPD*%
%LPC*%
G36*
X62558Y258405D02*
X62558Y258405D01*
X61665Y259298D01*
X61665Y271562D01*
X62558Y272455D01*
X73822Y272455D01*
X74715Y271562D01*
X74715Y259298D01*
X73822Y258405D01*
X62558Y258405D01*
G37*
%LPD*%
%LPC*%
G36*
X89578Y105395D02*
X89578Y105395D01*
X88685Y106288D01*
X88685Y115552D01*
X89578Y116445D01*
X95842Y116445D01*
X96137Y116149D01*
X96154Y116137D01*
X96166Y116122D01*
X96253Y116066D01*
X96337Y116005D01*
X96356Y115999D01*
X96373Y115989D01*
X96473Y115963D01*
X96572Y115933D01*
X96592Y115933D01*
X96611Y115929D01*
X96714Y115937D01*
X96818Y115939D01*
X96837Y115946D01*
X96857Y115948D01*
X96952Y115988D01*
X97049Y116024D01*
X97065Y116036D01*
X97083Y116044D01*
X97214Y116149D01*
X98132Y117067D01*
X102528Y117067D01*
X105637Y113958D01*
X105637Y109562D01*
X102528Y106453D01*
X98132Y106453D01*
X98034Y106551D01*
X97976Y106593D01*
X97924Y106642D01*
X97877Y106664D01*
X97835Y106694D01*
X97766Y106716D01*
X97701Y106746D01*
X97649Y106751D01*
X97599Y106767D01*
X97528Y106765D01*
X97457Y106773D01*
X97406Y106762D01*
X97354Y106760D01*
X97286Y106736D01*
X97216Y106721D01*
X97171Y106694D01*
X97123Y106676D01*
X97067Y106631D01*
X97005Y106594D01*
X96971Y106555D01*
X96931Y106522D01*
X96892Y106462D01*
X96845Y106407D01*
X96839Y106393D01*
X95842Y105395D01*
X89578Y105395D01*
G37*
%LPD*%
D10*
X83362Y293722D03*
X165962Y150622D03*
X83362Y7522D03*
X-81838Y7522D03*
X-164438Y150622D03*
X-81838Y293722D03*
X124662Y222122D03*
X124662Y79122D03*
X762Y7522D03*
X-123138Y79122D03*
X-123138Y222122D03*
D11*
X-22860Y260350D03*
D12*
X27940Y260350D03*
D13*
X29260Y285750D03*
X48260Y285750D03*
D14*
X51190Y265430D03*
X68190Y265430D03*
X53730Y213360D03*
X70730Y213360D03*
D15*
X102870Y146440D03*
X102870Y163440D03*
D16*
X64770Y121350D03*
X64770Y133350D03*
X64770Y145350D03*
D17*
X36340Y173557D03*
X36340Y168556D03*
X36340Y163554D03*
X36340Y158553D03*
X36340Y153552D03*
X36340Y148551D03*
X36340Y143549D03*
X36340Y138548D03*
X36340Y133547D03*
X36340Y128546D03*
X36340Y123544D03*
X36340Y118543D03*
D18*
X30047Y112250D03*
X25046Y112250D03*
X20044Y112250D03*
X15043Y112250D03*
X10042Y112250D03*
X5041Y112250D03*
X39Y112250D03*
X-4962Y112250D03*
X-9963Y112250D03*
X-14964Y112250D03*
X-19966Y112250D03*
X-24967Y112250D03*
D17*
X-31260Y118543D03*
X-31260Y123544D03*
X-31260Y128546D03*
X-31260Y133547D03*
X-31260Y138548D03*
X-31260Y143549D03*
X-31260Y148551D03*
X-31260Y153552D03*
X-31260Y158553D03*
X-31260Y163554D03*
X-31260Y168556D03*
X-31260Y173557D03*
D18*
X-24967Y179850D03*
X-19966Y179850D03*
X-14964Y179850D03*
X-9963Y179850D03*
X-4962Y179850D03*
X39Y179850D03*
X5041Y179850D03*
X10042Y179850D03*
X15043Y179850D03*
X20044Y179850D03*
X25046Y179850D03*
X30047Y179850D03*
D19*
X2540Y146050D03*
D20*
X48260Y74930D03*
D15*
X-57150Y156600D03*
X-57150Y173600D03*
X55000Y101600D03*
X72000Y101600D03*
X53730Y187960D03*
X70730Y187960D03*
X53730Y196850D03*
X70730Y196850D03*
D13*
X52730Y162560D03*
X71730Y162560D03*
X52730Y176530D03*
X71730Y176530D03*
D21*
X-95250Y186690D03*
X-95250Y161290D03*
X-95250Y135890D03*
D22*
X92710Y132920D03*
X92710Y110920D03*
D15*
X17780Y209160D03*
X17780Y192160D03*
X-3810Y209160D03*
X-3810Y192160D03*
D23*
X-5715Y167005D03*
X-17780Y220980D03*
D24*
X102870Y146440D02*
X102870Y143080D01*
X92710Y132920D01*
X-57150Y156600D02*
X-66040Y147710D01*
X-66040Y119380D01*
D23*
X-66040Y119380D03*
X-151130Y133350D03*
D24*
X-164438Y146658D01*
X-164438Y150622D01*
D23*
X82550Y144394D03*
X-65865Y66342D03*
X36830Y220980D03*
D25*
X70730Y218440D02*
X70730Y213360D01*
X70730Y218440D02*
X64126Y225044D01*
X40894Y225044D01*
X36830Y220980D01*
D24*
X92710Y110920D02*
X99490Y110920D01*
X100330Y111760D01*
D23*
X100330Y111760D03*
D24*
X-31260Y138548D02*
X-39252Y138548D01*
X-39575Y138225D01*
D23*
X-39575Y138225D03*
X-42115Y148385D03*
D24*
X-36948Y153552D01*
X-31260Y153552D01*
D26*
X25809Y22031D03*
D24*
X37277Y122607D02*
X36340Y123544D01*
X37277Y122607D02*
X40247Y122607D01*
X45720Y117134D01*
X45720Y92710D01*
X33429Y80419D02*
X33429Y29651D01*
X25809Y22031D01*
X33429Y80419D02*
X45720Y92710D01*
D27*
X6145Y12905D02*
X762Y7522D01*
D24*
X29365Y36125D02*
X29365Y84643D01*
X41420Y113463D02*
X36340Y118543D01*
X41420Y113463D02*
X41420Y96697D01*
X29365Y84643D01*
X29365Y36125D02*
X6145Y12905D01*
D23*
X-45720Y157480D03*
D24*
X-39646Y163554D01*
X-31260Y163554D01*
D25*
X27940Y260350D02*
X27940Y284430D01*
X29260Y285750D01*
D23*
X68190Y265430D03*
D25*
X51190Y282820D02*
X48260Y285750D01*
X51190Y282820D02*
X51190Y265430D01*
D24*
X-125730Y193040D02*
X-125730Y116840D01*
X-125730Y193040D02*
X-125730Y193040D01*
X-125730Y192878D01*
D23*
X-125730Y192878D03*
D24*
X-21082Y95758D02*
X-14964Y101876D01*
X-21082Y95758D02*
X-104648Y95758D01*
X-125730Y116840D01*
X-14964Y112250D02*
X-14964Y101876D01*
X-19633Y104533D02*
X-22540Y101626D01*
X-19633Y111917D02*
X-19966Y112250D01*
X-19633Y111917D02*
X-19633Y104533D01*
X-119154Y211438D02*
X-123138Y215422D01*
X-101114Y101626D02*
X-22540Y101626D01*
X-101114Y101626D02*
X-118364Y118876D01*
X-118364Y217348D02*
X-123138Y222122D01*
X-118364Y217348D02*
X-118364Y118876D01*
X-123138Y215422D02*
X-123138Y222122D01*
X30047Y112250D02*
X30480Y111817D01*
X30480Y100458D01*
X31622Y101600D01*
D23*
X31622Y101600D03*
D24*
X25046Y94334D02*
X25046Y112250D01*
X25046Y94334D02*
X25400Y93980D01*
D23*
X25400Y93980D03*
X97494Y68222D03*
D24*
X108394Y79122D01*
X124662Y79122D01*
X36340Y148551D02*
X36340Y153552D01*
X36340Y158553D01*
X36340Y153552D02*
X43722Y153552D01*
X53730Y187960D02*
X53730Y196850D01*
X53730Y187960D02*
X53730Y177530D01*
X52730Y176530D01*
X52730Y162560D01*
X43722Y153552D01*
D25*
X53730Y196850D02*
X53730Y213360D01*
D24*
X71730Y162560D02*
X71730Y154940D01*
X66934Y150144D01*
X51687Y150144D02*
X45092Y143549D01*
X51687Y150144D02*
X66934Y150144D01*
X45092Y143549D02*
X36340Y143549D01*
X101990Y162560D02*
X102870Y163440D01*
X101990Y162560D02*
X71730Y162560D01*
X71730Y176530D01*
X70730Y177530D01*
X70730Y187960D01*
X70730Y196850D01*
X43650Y133547D02*
X36340Y133547D01*
X55847Y121350D02*
X64770Y121350D01*
X55847Y121350D02*
X43650Y133547D01*
X52640Y145350D02*
X64770Y145350D01*
X45838Y138548D02*
X36340Y138548D01*
X45838Y138548D02*
X52640Y145350D01*
X-31303Y173600D02*
X-57150Y173600D01*
X-31303Y173600D02*
X-31260Y173557D01*
X-57150Y173600D02*
X-73660Y190110D01*
X-95250Y186690D02*
X-95250Y161290D01*
X-95250Y186690D02*
X-91830Y190110D01*
X-73660Y190110D01*
X-31592Y168888D02*
X-31260Y168556D01*
X-31592Y168888D02*
X-46597Y168888D01*
X-50385Y165100D01*
X-71120Y165100D01*
X-95250Y140970D02*
X-95250Y135890D01*
X-95250Y140970D02*
X-71120Y165100D01*
X55000Y116450D02*
X55000Y101600D01*
X42904Y128546D02*
X36340Y128546D01*
X42904Y128546D02*
X55000Y116450D01*
X55000Y101600D02*
X55880Y100720D01*
X55880Y82550D02*
X48260Y74930D01*
X55880Y82550D02*
X55880Y100720D01*
X25046Y179850D02*
X25046Y184975D01*
X26074Y186003D01*
X26074Y229274D01*
X46990Y250190D02*
X102870Y250190D01*
D23*
X102870Y250190D03*
D24*
X46990Y250190D02*
X26074Y229274D01*
X30047Y184228D02*
X30047Y179850D01*
X30047Y184228D02*
X30138Y184319D01*
X30138Y224448D02*
X41522Y235832D01*
X30138Y224448D02*
X30138Y184319D01*
X110952Y235832D02*
X124662Y222122D01*
X110952Y235832D02*
X41522Y235832D01*
X10042Y112250D02*
X10042Y102598D01*
D23*
X10042Y102598D03*
D24*
X-4629Y111917D02*
X-4962Y112250D01*
X-4629Y111917D02*
X-4629Y103263D01*
X-111604Y79122D02*
X-123138Y79122D01*
X-97818Y79122D01*
X-91624Y85316D01*
X-22576Y85316D01*
X-4629Y103263D01*
X39Y99099D02*
X39Y112250D01*
X-20320Y78740D02*
X-88900Y78740D01*
D23*
X-88900Y78740D03*
D24*
X-20320Y78740D02*
X39Y99099D01*
X14360Y192160D02*
X17780Y192160D01*
X10042Y187842D02*
X10042Y179850D01*
X10042Y187842D02*
X14360Y192160D01*
X880Y192160D02*
X-3810Y192160D01*
X880Y192160D02*
X5080Y187960D01*
X5080Y179889D01*
D28*
X5041Y179850D01*
D24*
X-3810Y209160D02*
X-8010Y209160D01*
X-17780Y199390D01*
D23*
X-17780Y199390D03*
D24*
X-1660Y228600D02*
X17780Y209160D01*
X-1660Y228600D02*
X-29210Y228600D01*
X-30480Y227330D01*
D23*
X-30480Y227330D03*
M02*
