G04 EAGLE Gerber RS-274X export*
G75*
%MOMM*%
%FSLAX34Y34*%
%LPD*%
%INTop Copper*%
%IPPOS*%
%AMOC8*
5,1,8,0,0,1.08239X$1,22.5*%
G01*
%ADD10C,1.000000*%
%ADD11R,1.500000X1.300000*%
%ADD12R,1.000000X1.100000*%
%ADD13R,2.500000X2.500000*%
%ADD14C,2.500000*%
%ADD15C,0.147500*%
%ADD16R,1.100000X1.000000*%
%ADD17R,0.800000X0.800000*%
%ADD18P,1.649562X8X22.500000*%
%ADD19C,1.524000*%
%ADD20R,1.200000X1.200000*%
%ADD21C,0.609600*%
%ADD22C,0.355600*%
%ADD23C,0.756400*%
%ADD24C,0.254000*%
%ADD25C,0.656400*%

G36*
X-66810Y128D02*
X-66810Y128D01*
X-66782Y126D01*
X-66714Y148D01*
X-66643Y162D01*
X-66620Y178D01*
X-66593Y187D01*
X-66538Y234D01*
X-66479Y275D01*
X-66464Y299D01*
X-66443Y317D01*
X-66411Y382D01*
X-66372Y442D01*
X-66367Y470D01*
X-66355Y496D01*
X-66346Y597D01*
X-66339Y639D01*
X-66341Y649D01*
X-66340Y662D01*
X-66496Y2623D01*
X-28825Y2623D01*
X-28712Y2641D01*
X-28599Y2657D01*
X-28591Y2661D01*
X-28582Y2662D01*
X-28481Y2716D01*
X-28379Y2767D01*
X-28372Y2773D01*
X-28365Y2778D01*
X-28286Y2860D01*
X-28205Y2942D01*
X-28201Y2950D01*
X-28195Y2956D01*
X-28147Y3059D01*
X-28097Y3162D01*
X-28095Y3173D01*
X-28092Y3179D01*
X-28089Y3202D01*
X-28066Y3327D01*
X-28024Y3883D01*
X-28027Y3918D01*
X-28022Y3952D01*
X-28038Y4040D01*
X-28046Y4128D01*
X-28059Y4160D01*
X-28066Y4194D01*
X-28100Y4266D01*
X-27957Y4893D01*
X-27955Y4926D01*
X-27940Y5006D01*
X-27892Y5644D01*
X-27851Y5703D01*
X-27794Y5771D01*
X-27781Y5804D01*
X-27762Y5832D01*
X-27706Y5990D01*
X-27216Y8137D01*
X-27214Y8172D01*
X-27204Y8205D01*
X-27207Y8294D01*
X-27201Y8383D01*
X-27210Y8416D01*
X-27211Y8451D01*
X-27235Y8527D01*
X-27000Y9126D01*
X-26993Y9158D01*
X-26966Y9234D01*
X-26824Y9859D01*
X-26774Y9911D01*
X-26708Y9970D01*
X-26690Y10000D01*
X-26666Y10025D01*
X-26588Y10173D01*
X-25784Y12223D01*
X-25777Y12257D01*
X-25762Y12288D01*
X-25751Y12377D01*
X-25732Y12464D01*
X-25736Y12498D01*
X-25732Y12532D01*
X-25744Y12611D01*
X-25422Y13168D01*
X-25410Y13199D01*
X-25373Y13271D01*
X-25139Y13867D01*
X-25082Y13911D01*
X-25008Y13959D01*
X-24986Y13987D01*
X-24959Y14008D01*
X-24859Y14143D01*
X-23758Y16050D01*
X-23746Y16082D01*
X-23727Y16111D01*
X-23703Y16197D01*
X-23671Y16280D01*
X-23670Y16315D01*
X-23661Y16348D01*
X-23661Y16428D01*
X-23260Y16931D01*
X-23244Y16960D01*
X-23196Y17025D01*
X-22875Y17579D01*
X-22813Y17615D01*
X-22732Y17651D01*
X-22706Y17675D01*
X-22676Y17692D01*
X-22558Y17811D01*
X-21185Y19532D01*
X-21168Y19563D01*
X-21145Y19588D01*
X-21108Y19669D01*
X-21065Y19747D01*
X-21058Y19781D01*
X-21044Y19813D01*
X-21032Y19891D01*
X-20561Y20329D01*
X-20540Y20355D01*
X-20483Y20412D01*
X-20084Y20913D01*
X-20051Y20926D01*
X-20009Y20932D01*
X-19975Y20950D01*
X-19931Y20963D01*
X-19903Y20982D01*
X-19870Y20995D01*
X-19817Y21034D01*
X-19792Y21048D01*
X-19774Y21066D01*
X-19736Y21094D01*
X-18121Y22592D01*
X-18100Y22619D01*
X-18073Y22641D01*
X-18025Y22716D01*
X-17971Y22786D01*
X-17959Y22819D01*
X-17940Y22848D01*
X-17917Y22924D01*
X-17385Y23287D01*
X-17361Y23309D01*
X-17336Y23328D01*
X-17330Y23331D01*
X-17326Y23336D01*
X-17296Y23358D01*
X-16827Y23793D01*
X-16757Y23809D01*
X-16669Y23820D01*
X-16637Y23835D01*
X-16604Y23842D01*
X-16455Y23921D01*
X-14636Y25161D01*
X-14611Y25185D01*
X-14581Y25203D01*
X-14522Y25269D01*
X-14458Y25331D01*
X-14442Y25361D01*
X-14419Y25387D01*
X-14385Y25459D01*
X-13805Y25738D01*
X-13778Y25757D01*
X-13706Y25795D01*
X-13177Y26156D01*
X-13105Y26161D01*
X-13016Y26158D01*
X-12983Y26169D01*
X-12949Y26171D01*
X-12791Y26227D01*
X-10807Y27182D01*
X-10778Y27202D01*
X-10746Y27215D01*
X-10678Y27272D01*
X-10605Y27323D01*
X-10585Y27351D01*
X-10558Y27373D01*
X-10514Y27439D01*
X-9899Y27629D01*
X-9869Y27644D01*
X-9793Y27670D01*
X-9216Y27948D01*
X-9144Y27942D01*
X-9057Y27927D01*
X-9022Y27932D01*
X-8988Y27929D01*
X-8823Y27961D01*
X-6719Y28610D01*
X-6688Y28625D01*
X-6654Y28633D01*
X-6578Y28679D01*
X-6499Y28719D01*
X-6474Y28744D01*
X-6445Y28762D01*
X-6391Y28820D01*
X-5754Y28916D01*
X-5723Y28926D01*
X-5643Y28941D01*
X-5031Y29130D01*
X-4962Y29114D01*
X-4877Y29085D01*
X-4843Y29085D01*
X-4809Y29077D01*
X-4641Y29084D01*
X-2464Y29412D01*
X-2431Y29423D01*
X-2396Y29425D01*
X-2315Y29460D01*
X-2230Y29487D01*
X-2202Y29508D01*
X-2170Y29522D01*
X-2108Y29571D01*
X-1465Y29571D01*
X-1432Y29577D01*
X-1351Y29580D01*
X-718Y29675D01*
X-651Y29648D01*
X-572Y29608D01*
X-538Y29603D01*
X-506Y29590D01*
X-339Y29571D01*
X1863Y29571D01*
X1897Y29577D01*
X1932Y29574D01*
X2018Y29597D01*
X2106Y29611D01*
X2136Y29627D01*
X2170Y29636D01*
X2239Y29676D01*
X2875Y29580D01*
X2908Y29580D01*
X2989Y29571D01*
X3629Y29571D01*
X3691Y29535D01*
X3763Y29483D01*
X3796Y29473D01*
X3826Y29455D01*
X3988Y29412D01*
X6165Y29084D01*
X6200Y29084D01*
X6234Y29077D01*
X6322Y29086D01*
X6411Y29087D01*
X6444Y29098D01*
X6479Y29102D01*
X6552Y29131D01*
X7167Y28941D01*
X7200Y28937D01*
X7278Y28916D01*
X7912Y28821D01*
X7967Y28775D01*
X8031Y28713D01*
X8062Y28698D01*
X8089Y28676D01*
X8243Y28610D01*
X10347Y27961D01*
X10381Y27956D01*
X10414Y27943D01*
X10503Y27939D01*
X10591Y27927D01*
X10625Y27933D01*
X10659Y27932D01*
X10737Y27950D01*
X11317Y27670D01*
X11348Y27661D01*
X11423Y27629D01*
X12034Y27440D01*
X12083Y27387D01*
X12136Y27316D01*
X12165Y27297D01*
X12188Y27271D01*
X12331Y27182D01*
X14315Y26227D01*
X14348Y26217D01*
X14378Y26200D01*
X14465Y26182D01*
X14550Y26157D01*
X14585Y26158D01*
X14619Y26152D01*
X14698Y26158D01*
X15230Y25795D01*
X15260Y25781D01*
X15329Y25738D01*
X15906Y25460D01*
X15945Y25401D01*
X15988Y25323D01*
X16013Y25299D01*
X16033Y25270D01*
X16160Y25161D01*
X17979Y23921D01*
X18011Y23906D01*
X18038Y23885D01*
X18122Y23854D01*
X18202Y23817D01*
X18237Y23813D01*
X18269Y23801D01*
X18349Y23795D01*
X18820Y23358D01*
X18848Y23339D01*
X18909Y23287D01*
X19438Y22926D01*
X19449Y22904D01*
X19450Y22897D01*
X19459Y22881D01*
X19469Y22861D01*
X19499Y22778D01*
X19521Y22750D01*
X19536Y22719D01*
X19645Y22592D01*
X19724Y22520D01*
X19772Y22488D01*
X19813Y22448D01*
X19873Y22420D01*
X19928Y22384D01*
X19984Y22369D01*
X20036Y22345D01*
X20102Y22337D01*
X20166Y22320D01*
X20224Y22324D01*
X20281Y22317D01*
X20345Y22331D01*
X20412Y22336D01*
X20465Y22357D01*
X20521Y22370D01*
X20578Y22404D01*
X20639Y22429D01*
X20683Y22466D01*
X20732Y22496D01*
X20775Y22546D01*
X20825Y22589D01*
X20855Y22639D01*
X20892Y22683D01*
X20917Y22744D01*
X20951Y22801D01*
X20963Y22857D01*
X20984Y22911D01*
X20995Y23011D01*
X21002Y23042D01*
X21000Y23056D01*
X21003Y23078D01*
X21003Y24022D01*
X23818Y26838D01*
X27800Y26838D01*
X30616Y24022D01*
X30616Y20040D01*
X27800Y17224D01*
X25989Y17224D01*
X25899Y17210D01*
X25808Y17203D01*
X25778Y17190D01*
X25746Y17185D01*
X25666Y17142D01*
X25582Y17106D01*
X25549Y17081D01*
X25529Y17070D01*
X25506Y17046D01*
X25451Y17002D01*
X25409Y16960D01*
X25383Y16924D01*
X25351Y16895D01*
X25312Y16825D01*
X25265Y16760D01*
X25252Y16718D01*
X25231Y16680D01*
X25216Y16601D01*
X25193Y16525D01*
X25194Y16481D01*
X25186Y16438D01*
X25197Y16359D01*
X25199Y16279D01*
X25214Y16238D01*
X25220Y16194D01*
X25279Y16062D01*
X25283Y16048D01*
X25286Y16045D01*
X25288Y16041D01*
X26383Y14143D01*
X26405Y14116D01*
X26420Y14085D01*
X26483Y14021D01*
X26539Y13953D01*
X26568Y13934D01*
X26593Y13910D01*
X26662Y13870D01*
X26897Y13271D01*
X26913Y13243D01*
X26946Y13168D01*
X27266Y12614D01*
X27266Y12542D01*
X27257Y12454D01*
X27264Y12420D01*
X27264Y12385D01*
X27308Y12223D01*
X28112Y10173D01*
X28130Y10144D01*
X28140Y10111D01*
X28192Y10039D01*
X28238Y9962D01*
X28264Y9939D01*
X28285Y9911D01*
X28347Y9862D01*
X28490Y9234D01*
X28502Y9204D01*
X28524Y9126D01*
X28757Y8530D01*
X28746Y8459D01*
X28724Y8373D01*
X28727Y8338D01*
X28721Y8304D01*
X28740Y8137D01*
X29230Y5990D01*
X29243Y5958D01*
X29249Y5924D01*
X29290Y5845D01*
X29323Y5763D01*
X29346Y5736D01*
X29362Y5706D01*
X29416Y5648D01*
X29464Y5006D01*
X29472Y4974D01*
X29481Y4893D01*
X29623Y4269D01*
X29602Y4200D01*
X29567Y4119D01*
X29565Y4084D01*
X29554Y4051D01*
X29548Y3883D01*
X29590Y3327D01*
X29617Y3216D01*
X29641Y3104D01*
X29645Y3097D01*
X29647Y3088D01*
X29709Y2991D01*
X29767Y2893D01*
X29774Y2887D01*
X29778Y2880D01*
X29867Y2807D01*
X29954Y2733D01*
X29962Y2730D01*
X29969Y2724D01*
X30075Y2684D01*
X30182Y2641D01*
X30193Y2640D01*
X30199Y2638D01*
X30222Y2637D01*
X30349Y2623D01*
X68020Y2623D01*
X67864Y662D01*
X67868Y633D01*
X67863Y605D01*
X67880Y536D01*
X67888Y464D01*
X67903Y440D01*
X67909Y412D01*
X67952Y354D01*
X67988Y292D01*
X68010Y275D01*
X68027Y252D01*
X68089Y215D01*
X68146Y172D01*
X68174Y165D01*
X68198Y150D01*
X68298Y134D01*
X68339Y123D01*
X68349Y125D01*
X68362Y123D01*
X87362Y123D01*
X87438Y138D01*
X87516Y147D01*
X87535Y158D01*
X87557Y162D01*
X87621Y206D01*
X87689Y245D01*
X87705Y264D01*
X87721Y275D01*
X87745Y313D01*
X87795Y373D01*
X97295Y16873D01*
X97304Y16900D01*
X97320Y16924D01*
X97335Y16994D01*
X97358Y17062D01*
X97355Y17090D01*
X97361Y17118D01*
X97348Y17189D01*
X97342Y17260D01*
X97329Y17285D01*
X97323Y17313D01*
X97283Y17373D01*
X97250Y17436D01*
X97228Y17454D01*
X97212Y17478D01*
X97129Y17536D01*
X97097Y17563D01*
X97086Y17566D01*
X97076Y17573D01*
X95318Y18405D01*
X114129Y50986D01*
X114169Y51094D01*
X114177Y51112D01*
X114189Y51138D01*
X114189Y51143D01*
X114212Y51199D01*
X114213Y51208D01*
X114216Y51216D01*
X114220Y51330D01*
X114227Y51445D01*
X114224Y51453D01*
X114225Y51462D01*
X114192Y51572D01*
X114162Y51682D01*
X114157Y51689D01*
X114155Y51698D01*
X114089Y51792D01*
X114025Y51887D01*
X114017Y51893D01*
X114013Y51899D01*
X113995Y51913D01*
X113898Y51996D01*
X113443Y52306D01*
X113411Y52321D01*
X113384Y52342D01*
X113301Y52372D01*
X113220Y52410D01*
X113185Y52414D01*
X113153Y52425D01*
X113074Y52431D01*
X112602Y52869D01*
X112574Y52887D01*
X112513Y52940D01*
X111983Y53300D01*
X111953Y53365D01*
X111922Y53449D01*
X111901Y53476D01*
X111886Y53507D01*
X111776Y53634D01*
X110160Y55133D01*
X110131Y55152D01*
X110107Y55177D01*
X110029Y55219D01*
X109955Y55269D01*
X109921Y55278D01*
X109891Y55294D01*
X109814Y55312D01*
X109412Y55815D01*
X109388Y55837D01*
X109335Y55898D01*
X108865Y56334D01*
X108845Y56402D01*
X108827Y56489D01*
X108810Y56519D01*
X108800Y56553D01*
X108710Y56694D01*
X107335Y58417D01*
X107310Y58441D01*
X107290Y58469D01*
X107219Y58523D01*
X107153Y58582D01*
X107121Y58596D01*
X107093Y58617D01*
X107019Y58646D01*
X106697Y59203D01*
X106676Y59229D01*
X106633Y59297D01*
X106234Y59798D01*
X106224Y59868D01*
X106219Y59957D01*
X106207Y59990D01*
X106202Y60024D01*
X106134Y60178D01*
X105032Y62086D01*
X105010Y62113D01*
X104994Y62144D01*
X104932Y62207D01*
X104876Y62276D01*
X104846Y62295D01*
X104822Y62320D01*
X104753Y62359D01*
X104518Y62958D01*
X104501Y62987D01*
X104469Y63061D01*
X104148Y63615D01*
X104149Y63687D01*
X104158Y63775D01*
X104150Y63809D01*
X104150Y63844D01*
X104106Y64006D01*
X103594Y65310D01*
X103567Y65356D01*
X103549Y65406D01*
X103504Y65461D01*
X103468Y65522D01*
X103428Y65556D01*
X103395Y65598D01*
X103335Y65636D01*
X103282Y65682D01*
X103232Y65702D01*
X103188Y65731D01*
X103119Y65748D01*
X103054Y65775D01*
X103001Y65778D01*
X102950Y65791D01*
X102879Y65785D01*
X102808Y65789D01*
X102757Y65776D01*
X102704Y65772D01*
X102639Y65744D01*
X102571Y65725D01*
X102527Y65696D01*
X102478Y65675D01*
X102390Y65605D01*
X102366Y65589D01*
X102360Y65580D01*
X102347Y65570D01*
X99692Y62915D01*
X95295Y62915D01*
X93918Y64292D01*
X93844Y64345D01*
X93775Y64405D01*
X93745Y64417D01*
X93718Y64436D01*
X93631Y64463D01*
X93547Y64497D01*
X93506Y64501D01*
X93483Y64508D01*
X93451Y64507D01*
X93380Y64515D01*
X75042Y64515D01*
X48595Y90962D01*
X48521Y91015D01*
X48452Y91075D01*
X48422Y91087D01*
X48396Y91106D01*
X48309Y91133D01*
X48224Y91167D01*
X48183Y91171D01*
X48161Y91178D01*
X48128Y91177D01*
X48057Y91185D01*
X30425Y91185D01*
X30335Y91171D01*
X30244Y91163D01*
X30215Y91151D01*
X30183Y91146D01*
X30102Y91103D01*
X30018Y91067D01*
X29986Y91041D01*
X29965Y91030D01*
X29943Y91007D01*
X29887Y90962D01*
X27598Y88673D01*
X23202Y88673D01*
X19953Y91922D01*
X19879Y91975D01*
X19809Y92035D01*
X19779Y92047D01*
X19753Y92066D01*
X19666Y92093D01*
X19581Y92127D01*
X19540Y92131D01*
X19518Y92138D01*
X19486Y92137D01*
X19415Y92145D01*
X7838Y92145D01*
X6945Y93038D01*
X6945Y97875D01*
X6931Y97965D01*
X6923Y98056D01*
X6911Y98085D01*
X6906Y98117D01*
X6863Y98198D01*
X6827Y98282D01*
X6801Y98314D01*
X6790Y98335D01*
X6767Y98357D01*
X6722Y98413D01*
X4735Y100400D01*
X4735Y104796D01*
X5065Y105126D01*
X5107Y105184D01*
X5156Y105236D01*
X5178Y105283D01*
X5208Y105325D01*
X5230Y105394D01*
X5260Y105459D01*
X5265Y105511D01*
X5281Y105561D01*
X5279Y105632D01*
X5287Y105703D01*
X5276Y105754D01*
X5274Y105806D01*
X5250Y105874D01*
X5235Y105944D01*
X5208Y105989D01*
X5190Y106037D01*
X5145Y106093D01*
X5108Y106155D01*
X5069Y106189D01*
X5036Y106229D01*
X4976Y106268D01*
X4921Y106315D01*
X4873Y106334D01*
X4829Y106362D01*
X4760Y106380D01*
X4693Y106407D01*
X4622Y106415D01*
X4591Y106423D01*
X4568Y106421D01*
X4527Y106425D01*
X-11728Y106425D01*
X-37998Y132695D01*
X-38072Y132748D01*
X-38141Y132808D01*
X-38171Y132820D01*
X-38197Y132839D01*
X-38284Y132866D01*
X-38369Y132900D01*
X-38410Y132904D01*
X-38432Y132911D01*
X-38465Y132910D01*
X-38536Y132918D01*
X-41773Y132918D01*
X-44882Y136027D01*
X-44882Y140423D01*
X-43526Y141779D01*
X-43484Y141837D01*
X-43435Y141889D01*
X-43413Y141936D01*
X-43383Y141979D01*
X-43361Y142047D01*
X-43331Y142112D01*
X-43325Y142164D01*
X-43310Y142214D01*
X-43312Y142285D01*
X-43304Y142357D01*
X-43315Y142407D01*
X-43317Y142459D01*
X-43341Y142527D01*
X-43356Y142597D01*
X-43383Y142642D01*
X-43401Y142691D01*
X-43446Y142747D01*
X-43483Y142808D01*
X-43522Y142842D01*
X-43555Y142883D01*
X-43615Y142921D01*
X-43669Y142968D01*
X-43718Y142987D01*
X-43762Y143016D01*
X-43831Y143033D01*
X-43898Y143060D01*
X-43969Y143068D01*
X-44000Y143076D01*
X-44023Y143074D01*
X-44064Y143078D01*
X-44313Y143078D01*
X-47422Y146187D01*
X-47422Y150583D01*
X-47131Y150874D01*
X-47089Y150932D01*
X-47040Y150984D01*
X-47018Y151031D01*
X-46988Y151073D01*
X-46966Y151142D01*
X-46936Y151207D01*
X-46931Y151259D01*
X-46915Y151309D01*
X-46917Y151380D01*
X-46909Y151451D01*
X-46920Y151502D01*
X-46922Y151554D01*
X-46946Y151622D01*
X-46961Y151692D01*
X-46988Y151737D01*
X-47006Y151785D01*
X-47051Y151841D01*
X-47088Y151903D01*
X-47127Y151937D01*
X-47160Y151977D01*
X-47220Y152016D01*
X-47275Y152063D01*
X-47323Y152082D01*
X-47367Y152110D01*
X-47436Y152128D01*
X-47503Y152155D01*
X-47574Y152163D01*
X-47605Y152171D01*
X-47628Y152169D01*
X-47669Y152173D01*
X-47918Y152173D01*
X-51027Y155282D01*
X-51027Y159678D01*
X-49689Y161016D01*
X-49647Y161074D01*
X-49598Y161126D01*
X-49576Y161173D01*
X-49546Y161215D01*
X-49524Y161284D01*
X-49494Y161349D01*
X-49489Y161401D01*
X-49473Y161451D01*
X-49475Y161522D01*
X-49467Y161593D01*
X-49478Y161644D01*
X-49480Y161696D01*
X-49504Y161764D01*
X-49519Y161834D01*
X-49546Y161879D01*
X-49564Y161927D01*
X-49609Y161983D01*
X-49646Y162045D01*
X-49685Y162079D01*
X-49718Y162119D01*
X-49778Y162158D01*
X-49833Y162205D01*
X-49881Y162224D01*
X-49925Y162252D01*
X-49994Y162270D01*
X-50061Y162297D01*
X-50132Y162305D01*
X-50163Y162313D01*
X-50186Y162311D01*
X-50227Y162315D01*
X-58702Y162315D01*
X-59809Y163422D01*
X-59825Y163434D01*
X-59837Y163450D01*
X-59925Y163506D01*
X-60008Y163566D01*
X-60027Y163572D01*
X-60044Y163583D01*
X-60145Y163608D01*
X-60243Y163638D01*
X-60263Y163638D01*
X-60283Y163643D01*
X-60386Y163635D01*
X-60489Y163632D01*
X-60508Y163625D01*
X-60528Y163624D01*
X-60623Y163583D01*
X-60720Y163547D01*
X-60736Y163535D01*
X-60754Y163527D01*
X-60885Y163422D01*
X-63022Y161285D01*
X-63075Y161211D01*
X-63135Y161142D01*
X-63147Y161112D01*
X-63166Y161086D01*
X-63193Y160999D01*
X-63227Y160914D01*
X-63231Y160873D01*
X-63238Y160851D01*
X-63237Y160818D01*
X-63245Y160747D01*
X-63245Y124405D01*
X-63243Y124393D01*
X-63244Y124383D01*
X-63234Y124335D01*
X-63231Y124315D01*
X-63223Y124224D01*
X-63211Y124195D01*
X-63206Y124163D01*
X-63163Y124082D01*
X-63127Y123998D01*
X-63101Y123966D01*
X-63090Y123945D01*
X-63067Y123923D01*
X-63022Y123867D01*
X-60733Y121578D01*
X-60733Y120881D01*
X-60719Y120791D01*
X-60711Y120700D01*
X-60699Y120670D01*
X-60694Y120638D01*
X-60651Y120558D01*
X-60615Y120474D01*
X-60589Y120442D01*
X-60578Y120421D01*
X-60555Y120399D01*
X-60510Y120343D01*
X-39585Y99418D01*
X-39511Y99365D01*
X-39442Y99305D01*
X-39412Y99293D01*
X-39386Y99274D01*
X-39299Y99247D01*
X-39214Y99213D01*
X-39173Y99209D01*
X-39151Y99202D01*
X-39118Y99203D01*
X-39047Y99195D01*
X-8826Y99195D01*
X-8806Y99198D01*
X-8787Y99196D01*
X-8685Y99218D01*
X-8583Y99234D01*
X-8566Y99244D01*
X-8546Y99248D01*
X-8457Y99301D01*
X-8366Y99350D01*
X-8352Y99364D01*
X-8335Y99374D01*
X-8268Y99453D01*
X-8196Y99528D01*
X-8188Y99546D01*
X-8175Y99561D01*
X-8136Y99657D01*
X-8093Y99751D01*
X-8091Y99771D01*
X-8083Y99789D01*
X-8065Y99956D01*
X-8065Y101032D01*
X-7172Y101925D01*
X2092Y101925D01*
X2985Y101032D01*
X2985Y91768D01*
X2092Y90875D01*
X-7172Y90875D01*
X-8065Y91768D01*
X-8065Y92844D01*
X-8068Y92864D01*
X-8066Y92883D01*
X-8088Y92985D01*
X-8104Y93087D01*
X-8114Y93104D01*
X-8118Y93124D01*
X-8171Y93213D01*
X-8220Y93304D01*
X-8234Y93318D01*
X-8244Y93335D01*
X-8323Y93402D01*
X-8398Y93474D01*
X-8416Y93482D01*
X-8431Y93495D01*
X-8527Y93534D01*
X-8621Y93577D01*
X-8641Y93579D01*
X-8659Y93587D01*
X-8826Y93605D01*
X-41678Y93605D01*
X-61946Y113873D01*
X-62004Y113915D01*
X-62056Y113965D01*
X-62103Y113987D01*
X-62145Y114017D01*
X-62214Y114038D01*
X-62279Y114068D01*
X-62331Y114074D01*
X-62381Y114089D01*
X-62452Y114087D01*
X-62523Y114095D01*
X-62574Y114084D01*
X-62626Y114083D01*
X-62694Y114058D01*
X-62764Y114043D01*
X-62809Y114016D01*
X-62857Y113998D01*
X-62913Y113954D01*
X-62975Y113917D01*
X-63009Y113877D01*
X-63049Y113845D01*
X-63088Y113784D01*
X-63135Y113730D01*
X-63154Y113682D01*
X-63182Y113638D01*
X-63200Y113568D01*
X-63227Y113502D01*
X-63235Y113430D01*
X-63243Y113399D01*
X-63241Y113376D01*
X-63245Y113335D01*
X-63245Y71543D01*
X-63231Y71453D01*
X-63223Y71362D01*
X-63211Y71332D01*
X-63206Y71300D01*
X-63163Y71219D01*
X-63127Y71135D01*
X-63101Y71103D01*
X-63090Y71083D01*
X-63067Y71060D01*
X-63022Y71004D01*
X-60558Y68540D01*
X-60558Y64144D01*
X-63667Y61035D01*
X-68063Y61035D01*
X-71172Y64144D01*
X-71172Y68540D01*
X-69058Y70654D01*
X-69005Y70728D01*
X-68945Y70798D01*
X-68933Y70828D01*
X-68914Y70854D01*
X-68887Y70941D01*
X-68853Y71026D01*
X-68849Y71067D01*
X-68842Y71089D01*
X-68843Y71121D01*
X-68835Y71193D01*
X-68835Y114355D01*
X-68849Y114445D01*
X-68857Y114536D01*
X-68869Y114565D01*
X-68874Y114597D01*
X-68917Y114678D01*
X-68953Y114762D01*
X-68979Y114794D01*
X-68990Y114815D01*
X-69013Y114837D01*
X-69058Y114893D01*
X-70527Y116362D01*
X-70601Y116415D01*
X-70671Y116475D01*
X-70701Y116487D01*
X-70727Y116506D01*
X-70814Y116533D01*
X-70899Y116567D01*
X-70940Y116571D01*
X-70962Y116578D01*
X-70994Y116577D01*
X-71065Y116585D01*
X-138318Y116585D01*
X-149553Y127820D01*
X-149627Y127873D01*
X-149696Y127933D01*
X-149726Y127945D01*
X-149752Y127964D01*
X-149839Y127991D01*
X-149924Y128025D01*
X-149965Y128029D01*
X-149987Y128036D01*
X-150020Y128035D01*
X-150091Y128043D01*
X-153328Y128043D01*
X-156437Y131152D01*
X-156437Y135548D01*
X-153328Y138657D01*
X-148932Y138657D01*
X-145823Y135548D01*
X-145823Y132311D01*
X-145809Y132221D01*
X-145801Y132130D01*
X-145789Y132100D01*
X-145784Y132068D01*
X-145741Y131988D01*
X-145705Y131904D01*
X-145679Y131872D01*
X-145668Y131851D01*
X-145645Y131829D01*
X-145600Y131773D01*
X-136225Y122398D01*
X-136151Y122345D01*
X-136082Y122285D01*
X-136052Y122273D01*
X-136026Y122254D01*
X-135939Y122227D01*
X-135854Y122193D01*
X-135813Y122189D01*
X-135791Y122182D01*
X-135758Y122183D01*
X-135687Y122175D01*
X-71065Y122175D01*
X-70975Y122189D01*
X-70884Y122197D01*
X-70855Y122209D01*
X-70823Y122214D01*
X-70742Y122257D01*
X-70658Y122293D01*
X-70626Y122319D01*
X-70605Y122330D01*
X-70583Y122353D01*
X-70527Y122398D01*
X-69058Y123867D01*
X-69005Y123941D01*
X-68945Y124011D01*
X-68933Y124041D01*
X-68914Y124067D01*
X-68887Y124154D01*
X-68853Y124239D01*
X-68849Y124280D01*
X-68842Y124302D01*
X-68843Y124334D01*
X-68835Y124405D01*
X-68835Y163378D01*
X-59818Y172395D01*
X-59765Y172469D01*
X-59705Y172538D01*
X-59693Y172568D01*
X-59674Y172594D01*
X-59647Y172681D01*
X-59613Y172766D01*
X-59609Y172807D01*
X-59602Y172829D01*
X-59603Y172862D01*
X-59595Y172933D01*
X-59595Y176472D01*
X-58702Y177365D01*
X-45290Y177365D01*
X-45288Y177364D01*
X-45189Y177334D01*
X-45169Y177334D01*
X-45149Y177329D01*
X-45047Y177337D01*
X-44943Y177340D01*
X-44924Y177347D01*
X-44904Y177348D01*
X-44866Y177365D01*
X-31468Y177365D01*
X-30575Y176472D01*
X-30575Y175485D01*
X-30564Y175414D01*
X-30562Y175342D01*
X-30544Y175293D01*
X-30536Y175242D01*
X-30502Y175179D01*
X-30477Y175111D01*
X-30445Y175071D01*
X-30420Y175025D01*
X-30368Y174975D01*
X-30324Y174919D01*
X-30280Y174891D01*
X-30242Y174855D01*
X-30177Y174825D01*
X-30117Y174786D01*
X-30066Y174774D01*
X-30019Y174752D01*
X-29948Y174744D01*
X-29878Y174726D01*
X-29826Y174730D01*
X-29775Y174725D01*
X-29704Y174740D01*
X-29633Y174745D01*
X-29585Y174766D01*
X-29534Y174777D01*
X-29473Y174814D01*
X-29407Y174842D01*
X-29351Y174887D01*
X-29323Y174903D01*
X-29308Y174921D01*
X-29276Y174947D01*
X-27701Y176522D01*
X-23758Y180465D01*
X-23705Y180539D01*
X-23645Y180608D01*
X-23633Y180638D01*
X-23614Y180664D01*
X-23587Y180751D01*
X-23553Y180836D01*
X-23549Y180877D01*
X-23542Y180899D01*
X-23543Y180932D01*
X-23535Y181003D01*
X-23535Y189392D01*
X-22642Y190285D01*
X-11096Y190285D01*
X-11076Y190288D01*
X-11057Y190286D01*
X-10955Y190308D01*
X-10853Y190324D01*
X-10836Y190334D01*
X-10816Y190338D01*
X-10727Y190391D01*
X-10636Y190440D01*
X-10622Y190454D01*
X-10605Y190464D01*
X-10538Y190543D01*
X-10466Y190618D01*
X-10458Y190636D01*
X-10445Y190651D01*
X-10406Y190747D01*
X-10363Y190841D01*
X-10361Y190861D01*
X-10353Y190879D01*
X-10335Y191046D01*
X-10335Y206753D01*
X-10349Y206843D01*
X-10357Y206934D01*
X-10369Y206963D01*
X-10374Y206995D01*
X-10417Y207076D01*
X-10453Y207160D01*
X-10479Y207192D01*
X-10490Y207213D01*
X-10513Y207235D01*
X-10558Y207291D01*
X-18717Y215450D01*
X-18791Y215503D01*
X-18861Y215563D01*
X-18891Y215575D01*
X-18917Y215594D01*
X-19004Y215621D01*
X-19089Y215655D01*
X-19130Y215659D01*
X-19152Y215666D01*
X-19184Y215665D01*
X-19255Y215673D01*
X-19978Y215673D01*
X-23087Y218782D01*
X-23087Y223178D01*
X-19978Y226287D01*
X-15582Y226287D01*
X-12473Y223178D01*
X-12473Y222455D01*
X-12459Y222365D01*
X-12451Y222274D01*
X-12439Y222245D01*
X-12434Y222213D01*
X-12391Y222132D01*
X-12355Y222048D01*
X-12329Y222016D01*
X-12318Y221995D01*
X-12295Y221973D01*
X-12250Y221917D01*
X-1189Y210856D01*
X-1189Y178576D01*
X-1175Y178486D01*
X-1167Y178395D01*
X-1155Y178365D01*
X-1150Y178333D01*
X-1107Y178252D01*
X-1071Y178168D01*
X-1045Y178136D01*
X-1034Y178115D01*
X-1011Y178093D01*
X-966Y178037D01*
X-897Y177968D01*
X-897Y174546D01*
X-894Y174526D01*
X-896Y174507D01*
X-874Y174405D01*
X-858Y174303D01*
X-848Y174286D01*
X-844Y174266D01*
X-791Y174177D01*
X-742Y174086D01*
X-728Y174072D01*
X-718Y174055D01*
X-639Y173988D01*
X-564Y173916D01*
X-546Y173908D01*
X-531Y173895D01*
X-435Y173856D01*
X-341Y173813D01*
X-321Y173811D01*
X-303Y173803D01*
X-136Y173785D01*
X9442Y173785D01*
X10335Y172892D01*
X10335Y172094D01*
X10338Y172074D01*
X10336Y172055D01*
X10358Y171953D01*
X10374Y171851D01*
X10384Y171834D01*
X10388Y171814D01*
X10441Y171725D01*
X10490Y171634D01*
X10504Y171620D01*
X10514Y171603D01*
X10593Y171536D01*
X10668Y171464D01*
X10686Y171456D01*
X10701Y171443D01*
X10797Y171404D01*
X10891Y171361D01*
X10911Y171359D01*
X10929Y171351D01*
X11096Y171333D01*
X14344Y171333D01*
X14364Y171336D01*
X14383Y171334D01*
X14485Y171356D01*
X14587Y171372D01*
X14604Y171382D01*
X14624Y171386D01*
X14713Y171439D01*
X14804Y171488D01*
X14818Y171502D01*
X14835Y171512D01*
X14902Y171591D01*
X14974Y171666D01*
X14982Y171684D01*
X14995Y171699D01*
X15034Y171795D01*
X15077Y171889D01*
X15079Y171909D01*
X15087Y171927D01*
X15105Y172094D01*
X15105Y172892D01*
X15998Y173785D01*
X32262Y173785D01*
X33155Y172892D01*
X33155Y163617D01*
X33158Y163597D01*
X33156Y163578D01*
X33178Y163476D01*
X33194Y163374D01*
X33204Y163357D01*
X33208Y163337D01*
X33261Y163248D01*
X33310Y163157D01*
X33324Y163143D01*
X33334Y163126D01*
X33413Y163059D01*
X33488Y162987D01*
X33506Y162979D01*
X33521Y162966D01*
X33617Y162927D01*
X33711Y162884D01*
X33731Y162882D01*
X33749Y162874D01*
X33916Y162856D01*
X51907Y162856D01*
X51978Y162867D01*
X52050Y162869D01*
X52099Y162887D01*
X52150Y162895D01*
X52213Y162929D01*
X52281Y162954D01*
X52321Y162986D01*
X52367Y163011D01*
X52417Y163063D01*
X52473Y163107D01*
X52501Y163151D01*
X52537Y163189D01*
X52567Y163254D01*
X52606Y163314D01*
X52618Y163365D01*
X52640Y163412D01*
X52648Y163483D01*
X52666Y163553D01*
X52662Y163605D01*
X52667Y163656D01*
X52652Y163727D01*
X52647Y163798D01*
X52626Y163846D01*
X52615Y163897D01*
X52578Y163958D01*
X52550Y164024D01*
X52505Y164080D01*
X52489Y164108D01*
X52471Y164123D01*
X52445Y164155D01*
X51405Y165195D01*
X51405Y172938D01*
X51391Y173028D01*
X51383Y173119D01*
X51371Y173148D01*
X51366Y173180D01*
X51323Y173261D01*
X51287Y173345D01*
X51261Y173377D01*
X51250Y173398D01*
X51227Y173420D01*
X51209Y173442D01*
X51209Y223564D01*
X51195Y223654D01*
X51187Y223745D01*
X51175Y223775D01*
X51170Y223807D01*
X51127Y223888D01*
X51091Y223972D01*
X51065Y224004D01*
X51054Y224024D01*
X51031Y224047D01*
X50986Y224102D01*
X28986Y246102D01*
X28913Y246155D01*
X28843Y246215D01*
X28813Y246227D01*
X28787Y246246D01*
X28700Y246273D01*
X28615Y246307D01*
X28574Y246311D01*
X28552Y246318D01*
X28519Y246317D01*
X28448Y246325D01*
X25150Y246325D01*
X19996Y248460D01*
X16050Y252406D01*
X13915Y257560D01*
X13915Y263140D01*
X16050Y268294D01*
X19996Y272240D01*
X25150Y274375D01*
X30730Y274375D01*
X35884Y272240D01*
X39830Y268294D01*
X41965Y263140D01*
X41965Y257560D01*
X39830Y252406D01*
X38261Y250838D01*
X38250Y250821D01*
X38234Y250809D01*
X38178Y250722D01*
X38118Y250638D01*
X38112Y250619D01*
X38101Y250602D01*
X38076Y250502D01*
X38046Y250403D01*
X38046Y250383D01*
X38041Y250363D01*
X38049Y250260D01*
X38052Y250157D01*
X38059Y250138D01*
X38060Y250118D01*
X38101Y250023D01*
X38136Y249926D01*
X38149Y249910D01*
X38157Y249892D01*
X38261Y249761D01*
X60355Y227668D01*
X60355Y177552D01*
X60369Y177462D01*
X60377Y177371D01*
X60389Y177342D01*
X60394Y177310D01*
X60437Y177229D01*
X60453Y177192D01*
X60453Y173302D01*
X60434Y173276D01*
X60407Y173189D01*
X60373Y173104D01*
X60369Y173063D01*
X60362Y173041D01*
X60363Y173009D01*
X60355Y172938D01*
X60355Y165195D01*
X59315Y164155D01*
X59273Y164097D01*
X59223Y164045D01*
X59201Y163998D01*
X59171Y163956D01*
X59150Y163887D01*
X59120Y163822D01*
X59114Y163770D01*
X59099Y163720D01*
X59101Y163649D01*
X59093Y163578D01*
X59104Y163527D01*
X59105Y163475D01*
X59130Y163407D01*
X59145Y163337D01*
X59172Y163292D01*
X59189Y163244D01*
X59234Y163188D01*
X59271Y163126D01*
X59311Y163092D01*
X59343Y163052D01*
X59403Y163013D01*
X59458Y162966D01*
X59506Y162947D01*
X59550Y162919D01*
X59620Y162901D01*
X59686Y162874D01*
X59757Y162866D01*
X59789Y162858D01*
X59812Y162860D01*
X59853Y162856D01*
X64607Y162856D01*
X64678Y162867D01*
X64750Y162869D01*
X64799Y162887D01*
X64850Y162895D01*
X64913Y162929D01*
X64981Y162954D01*
X65021Y162986D01*
X65067Y163011D01*
X65117Y163063D01*
X65173Y163107D01*
X65201Y163151D01*
X65237Y163189D01*
X65267Y163254D01*
X65306Y163314D01*
X65318Y163365D01*
X65340Y163412D01*
X65348Y163483D01*
X65366Y163553D01*
X65362Y163605D01*
X65367Y163656D01*
X65352Y163727D01*
X65347Y163798D01*
X65326Y163846D01*
X65315Y163897D01*
X65278Y163958D01*
X65250Y164024D01*
X65205Y164080D01*
X65189Y164108D01*
X65171Y164123D01*
X65145Y164155D01*
X64105Y165195D01*
X64105Y172938D01*
X64091Y173028D01*
X64083Y173119D01*
X64071Y173148D01*
X64066Y173180D01*
X64023Y173261D01*
X64007Y173298D01*
X64007Y177188D01*
X64026Y177214D01*
X64053Y177301D01*
X64087Y177386D01*
X64091Y177427D01*
X64098Y177449D01*
X64097Y177481D01*
X64105Y177552D01*
X64105Y185295D01*
X64174Y185364D01*
X64227Y185438D01*
X64287Y185507D01*
X64299Y185537D01*
X64318Y185563D01*
X64345Y185650D01*
X64379Y185735D01*
X64383Y185776D01*
X64390Y185798D01*
X64389Y185831D01*
X64397Y185902D01*
X64397Y190991D01*
X64383Y191081D01*
X64375Y191172D01*
X64363Y191202D01*
X64358Y191234D01*
X64315Y191315D01*
X64279Y191398D01*
X64253Y191431D01*
X64242Y191451D01*
X64219Y191473D01*
X64174Y191529D01*
X63215Y192488D01*
X63215Y203752D01*
X64108Y204645D01*
X64906Y204645D01*
X64926Y204648D01*
X64945Y204646D01*
X65047Y204668D01*
X65149Y204684D01*
X65166Y204694D01*
X65186Y204698D01*
X65275Y204751D01*
X65366Y204800D01*
X65380Y204814D01*
X65397Y204824D01*
X65464Y204903D01*
X65536Y204978D01*
X65544Y204996D01*
X65557Y205011D01*
X65596Y205107D01*
X65639Y205201D01*
X65641Y205221D01*
X65649Y205239D01*
X65667Y205406D01*
X65667Y230339D01*
X65664Y230359D01*
X65666Y230378D01*
X65644Y230480D01*
X65628Y230582D01*
X65618Y230599D01*
X65614Y230619D01*
X65561Y230708D01*
X65512Y230799D01*
X65498Y230813D01*
X65488Y230830D01*
X65409Y230897D01*
X65334Y230969D01*
X65316Y230977D01*
X65301Y230990D01*
X65205Y231029D01*
X65111Y231072D01*
X65091Y231074D01*
X65073Y231082D01*
X64906Y231100D01*
X63973Y231100D01*
X63080Y231993D01*
X63080Y244257D01*
X63973Y245150D01*
X64059Y245150D01*
X64130Y245161D01*
X64202Y245163D01*
X64251Y245181D01*
X64302Y245189D01*
X64365Y245223D01*
X64433Y245248D01*
X64473Y245280D01*
X64519Y245305D01*
X64569Y245357D01*
X64625Y245401D01*
X64653Y245445D01*
X64689Y245483D01*
X64719Y245548D01*
X64758Y245608D01*
X64770Y245659D01*
X64792Y245706D01*
X64800Y245777D01*
X64818Y245847D01*
X64814Y245899D01*
X64819Y245950D01*
X64804Y246021D01*
X64799Y246092D01*
X64778Y246140D01*
X64767Y246191D01*
X64730Y246252D01*
X64702Y246318D01*
X64657Y246374D01*
X64641Y246402D01*
X64623Y246417D01*
X64597Y246449D01*
X35172Y275874D01*
X35098Y275927D01*
X35029Y275987D01*
X34999Y275999D01*
X34973Y276018D01*
X34886Y276045D01*
X34801Y276079D01*
X34760Y276083D01*
X34738Y276090D01*
X34705Y276089D01*
X34634Y276097D01*
X-331Y276097D01*
X-421Y276083D01*
X-512Y276075D01*
X-541Y276063D01*
X-573Y276058D01*
X-654Y276015D01*
X-738Y275979D01*
X-770Y275953D01*
X-791Y275942D01*
X-813Y275919D01*
X-869Y275874D01*
X-8612Y268131D01*
X-8665Y268057D01*
X-8725Y267987D01*
X-8737Y267957D01*
X-8756Y267931D01*
X-8783Y267844D01*
X-8817Y267759D01*
X-8821Y267718D01*
X-8828Y267696D01*
X-8827Y267664D01*
X-8835Y267593D01*
X-8835Y247218D01*
X-9728Y246325D01*
X-35992Y246325D01*
X-36885Y247218D01*
X-36885Y273482D01*
X-35992Y274375D01*
X-15617Y274375D01*
X-15527Y274389D01*
X-15436Y274397D01*
X-15407Y274409D01*
X-15375Y274414D01*
X-15294Y274457D01*
X-15210Y274493D01*
X-15178Y274519D01*
X-15157Y274530D01*
X-15144Y274543D01*
X-15143Y274544D01*
X-15132Y274555D01*
X-15079Y274598D01*
X-4434Y285243D01*
X38738Y285243D01*
X61584Y262397D01*
X61642Y262355D01*
X61694Y262305D01*
X61741Y262283D01*
X61783Y262253D01*
X61852Y262232D01*
X61917Y262202D01*
X61969Y262196D01*
X62019Y262181D01*
X62090Y262183D01*
X62161Y262175D01*
X62212Y262186D01*
X62264Y262187D01*
X62332Y262212D01*
X62402Y262227D01*
X62447Y262254D01*
X62495Y262271D01*
X62551Y262316D01*
X62613Y262353D01*
X62647Y262393D01*
X62687Y262425D01*
X62726Y262485D01*
X62773Y262540D01*
X62792Y262588D01*
X62820Y262632D01*
X62838Y262702D01*
X62865Y262768D01*
X62873Y262839D01*
X62881Y262871D01*
X62879Y262894D01*
X62883Y262935D01*
X62883Y267628D01*
X65992Y270737D01*
X70388Y270737D01*
X73497Y267628D01*
X73497Y266905D01*
X73511Y266815D01*
X73519Y266724D01*
X73531Y266695D01*
X73536Y266663D01*
X73579Y266582D01*
X73615Y266498D01*
X73641Y266466D01*
X73652Y266445D01*
X73675Y266423D01*
X73720Y266367D01*
X91178Y248909D01*
X91178Y245911D01*
X91181Y245891D01*
X91179Y245872D01*
X91201Y245770D01*
X91217Y245668D01*
X91227Y245651D01*
X91231Y245631D01*
X91284Y245542D01*
X91333Y245451D01*
X91347Y245437D01*
X91357Y245420D01*
X91436Y245353D01*
X91511Y245281D01*
X91529Y245273D01*
X91544Y245260D01*
X91640Y245221D01*
X91734Y245178D01*
X91754Y245176D01*
X91772Y245168D01*
X91939Y245150D01*
X92237Y245150D01*
X93130Y244257D01*
X93130Y231993D01*
X92036Y230899D01*
X91983Y230825D01*
X91923Y230756D01*
X91911Y230726D01*
X91892Y230700D01*
X91865Y230613D01*
X91831Y230528D01*
X91827Y230487D01*
X91820Y230465D01*
X91821Y230432D01*
X91813Y230361D01*
X91813Y205406D01*
X91816Y205386D01*
X91814Y205367D01*
X91836Y205265D01*
X91852Y205163D01*
X91862Y205146D01*
X91866Y205126D01*
X91919Y205037D01*
X91968Y204946D01*
X91982Y204932D01*
X91992Y204915D01*
X92071Y204848D01*
X92146Y204776D01*
X92164Y204768D01*
X92179Y204755D01*
X92275Y204716D01*
X92369Y204673D01*
X92389Y204671D01*
X92407Y204663D01*
X92574Y204645D01*
X93372Y204645D01*
X94265Y203752D01*
X94265Y192488D01*
X93372Y191595D01*
X81108Y191595D01*
X80215Y192488D01*
X80215Y203752D01*
X81108Y204645D01*
X81906Y204645D01*
X81926Y204648D01*
X81945Y204646D01*
X82047Y204668D01*
X82149Y204684D01*
X82166Y204694D01*
X82186Y204698D01*
X82275Y204751D01*
X82366Y204800D01*
X82380Y204814D01*
X82397Y204824D01*
X82464Y204903D01*
X82536Y204978D01*
X82544Y204996D01*
X82557Y205011D01*
X82596Y205107D01*
X82639Y205201D01*
X82641Y205221D01*
X82649Y205239D01*
X82667Y205406D01*
X82667Y230339D01*
X82664Y230359D01*
X82666Y230378D01*
X82644Y230480D01*
X82628Y230582D01*
X82618Y230599D01*
X82614Y230619D01*
X82561Y230708D01*
X82512Y230799D01*
X82498Y230813D01*
X82488Y230830D01*
X82409Y230897D01*
X82334Y230969D01*
X82316Y230977D01*
X82301Y230990D01*
X82205Y231029D01*
X82111Y231072D01*
X82091Y231074D01*
X82073Y231082D01*
X81906Y231100D01*
X80973Y231100D01*
X80080Y231993D01*
X80080Y244257D01*
X80950Y245126D01*
X80962Y245143D01*
X80977Y245155D01*
X81033Y245242D01*
X81094Y245326D01*
X81100Y245345D01*
X81110Y245362D01*
X81136Y245462D01*
X81166Y245561D01*
X81166Y245581D01*
X81170Y245601D01*
X81162Y245703D01*
X81160Y245807D01*
X81153Y245826D01*
X81151Y245846D01*
X81111Y245941D01*
X81075Y246038D01*
X81063Y246054D01*
X81055Y246072D01*
X80950Y246203D01*
X67253Y259900D01*
X67179Y259953D01*
X67109Y260013D01*
X67079Y260025D01*
X67053Y260044D01*
X66966Y260071D01*
X66881Y260105D01*
X66840Y260109D01*
X66818Y260116D01*
X66786Y260115D01*
X66715Y260123D01*
X65695Y260123D01*
X65624Y260112D01*
X65552Y260110D01*
X65503Y260092D01*
X65452Y260084D01*
X65389Y260050D01*
X65321Y260025D01*
X65281Y259993D01*
X65235Y259968D01*
X65185Y259916D01*
X65129Y259872D01*
X65101Y259828D01*
X65065Y259790D01*
X65035Y259725D01*
X64996Y259665D01*
X64984Y259614D01*
X64962Y259567D01*
X64954Y259496D01*
X64936Y259426D01*
X64940Y259374D01*
X64935Y259323D01*
X64950Y259252D01*
X64955Y259181D01*
X64976Y259133D01*
X64987Y259082D01*
X65024Y259021D01*
X65052Y258955D01*
X65097Y258899D01*
X65113Y258871D01*
X65131Y258856D01*
X65157Y258824D01*
X74178Y249803D01*
X74178Y245911D01*
X74181Y245891D01*
X74179Y245872D01*
X74201Y245770D01*
X74217Y245668D01*
X74227Y245651D01*
X74231Y245631D01*
X74284Y245542D01*
X74333Y245451D01*
X74347Y245437D01*
X74357Y245420D01*
X74436Y245353D01*
X74511Y245281D01*
X74529Y245273D01*
X74544Y245260D01*
X74640Y245221D01*
X74734Y245178D01*
X74754Y245176D01*
X74772Y245168D01*
X74939Y245150D01*
X75237Y245150D01*
X76130Y244257D01*
X76130Y231993D01*
X75036Y230899D01*
X74983Y230825D01*
X74923Y230756D01*
X74911Y230726D01*
X74892Y230700D01*
X74865Y230613D01*
X74831Y230528D01*
X74827Y230487D01*
X74820Y230465D01*
X74821Y230432D01*
X74813Y230361D01*
X74813Y205406D01*
X74816Y205386D01*
X74814Y205367D01*
X74836Y205265D01*
X74852Y205163D01*
X74862Y205146D01*
X74866Y205126D01*
X74919Y205037D01*
X74968Y204946D01*
X74982Y204932D01*
X74992Y204915D01*
X75071Y204848D01*
X75146Y204776D01*
X75164Y204768D01*
X75179Y204755D01*
X75275Y204716D01*
X75369Y204673D01*
X75389Y204671D01*
X75407Y204663D01*
X75574Y204645D01*
X76372Y204645D01*
X77265Y203752D01*
X77265Y192488D01*
X76372Y191595D01*
X74304Y191595D01*
X74284Y191592D01*
X74265Y191594D01*
X74163Y191572D01*
X74061Y191556D01*
X74044Y191546D01*
X74024Y191542D01*
X73935Y191489D01*
X73844Y191440D01*
X73830Y191426D01*
X73813Y191416D01*
X73746Y191337D01*
X73674Y191262D01*
X73666Y191244D01*
X73653Y191229D01*
X73614Y191133D01*
X73571Y191039D01*
X73569Y191019D01*
X73561Y191001D01*
X73543Y190834D01*
X73543Y173741D01*
X73278Y173476D01*
X73225Y173402D01*
X73165Y173332D01*
X73153Y173302D01*
X73134Y173276D01*
X73107Y173189D01*
X73073Y173104D01*
X73069Y173063D01*
X73062Y173041D01*
X73063Y173009D01*
X73055Y172938D01*
X73055Y167719D01*
X73066Y167649D01*
X73068Y167577D01*
X73086Y167528D01*
X73094Y167477D01*
X73128Y167413D01*
X73153Y167346D01*
X73185Y167305D01*
X73210Y167259D01*
X73262Y167210D01*
X73306Y167154D01*
X73350Y167126D01*
X73388Y167090D01*
X73453Y167060D01*
X73513Y167021D01*
X73564Y167008D01*
X73611Y166986D01*
X73682Y166978D01*
X73752Y166961D01*
X73804Y166965D01*
X73855Y166959D01*
X73926Y166974D01*
X73997Y166980D01*
X74045Y167000D01*
X74096Y167011D01*
X74157Y167048D01*
X74223Y167076D01*
X74279Y167121D01*
X74307Y167138D01*
X74322Y167155D01*
X74354Y167181D01*
X76484Y169311D01*
X76537Y169385D01*
X76597Y169455D01*
X76609Y169485D01*
X76628Y169511D01*
X76655Y169598D01*
X76689Y169683D01*
X76693Y169724D01*
X76700Y169746D01*
X76699Y169778D01*
X76707Y169849D01*
X76707Y177188D01*
X76726Y177214D01*
X76753Y177301D01*
X76787Y177386D01*
X76791Y177427D01*
X76798Y177449D01*
X76797Y177481D01*
X76805Y177552D01*
X76805Y185295D01*
X78130Y186620D01*
X84430Y186620D01*
X85755Y185295D01*
X85755Y177552D01*
X85770Y177462D01*
X85777Y177371D01*
X85789Y177342D01*
X85794Y177310D01*
X85837Y177229D01*
X85853Y177192D01*
X85853Y165697D01*
X85834Y165671D01*
X85807Y165584D01*
X85773Y165499D01*
X85769Y165458D01*
X85762Y165436D01*
X85763Y165404D01*
X85755Y165333D01*
X85755Y165195D01*
X84468Y163909D01*
X84456Y163892D01*
X84441Y163880D01*
X84385Y163793D01*
X84324Y163709D01*
X84318Y163690D01*
X84308Y163673D01*
X84282Y163573D01*
X84252Y163474D01*
X84252Y163454D01*
X84248Y163434D01*
X84256Y163332D01*
X84258Y163228D01*
X84265Y163209D01*
X84267Y163189D01*
X84307Y163094D01*
X84343Y162997D01*
X84355Y162981D01*
X84363Y162963D01*
X84468Y162832D01*
X87123Y160177D01*
X87123Y156389D01*
X85568Y154834D01*
X85515Y154760D01*
X85455Y154690D01*
X85443Y154660D01*
X85424Y154634D01*
X85397Y154547D01*
X85363Y154462D01*
X85359Y154421D01*
X85352Y154399D01*
X85353Y154367D01*
X85345Y154296D01*
X85345Y149419D01*
X85359Y149329D01*
X85367Y149238D01*
X85379Y149209D01*
X85384Y149177D01*
X85427Y149096D01*
X85463Y149012D01*
X85489Y148980D01*
X85500Y148959D01*
X85523Y148937D01*
X85568Y148881D01*
X87857Y146592D01*
X87857Y142196D01*
X84748Y139087D01*
X80352Y139087D01*
X77243Y142196D01*
X77243Y146592D01*
X79532Y148881D01*
X79585Y148955D01*
X79645Y149025D01*
X79657Y149055D01*
X79676Y149081D01*
X79703Y149168D01*
X79737Y149253D01*
X79741Y149294D01*
X79748Y149316D01*
X79747Y149348D01*
X79755Y149419D01*
X79755Y152949D01*
X79752Y152969D01*
X79754Y152988D01*
X79732Y153090D01*
X79716Y153192D01*
X79706Y153209D01*
X79702Y153229D01*
X79649Y153318D01*
X79600Y153409D01*
X79586Y153423D01*
X79576Y153440D01*
X79497Y153507D01*
X79422Y153579D01*
X79404Y153587D01*
X79389Y153600D01*
X79293Y153639D01*
X79199Y153682D01*
X79179Y153684D01*
X79161Y153692D01*
X78994Y153710D01*
X29713Y153710D01*
X25911Y157512D01*
X25837Y157565D01*
X25767Y157625D01*
X25737Y157637D01*
X25711Y157656D01*
X25624Y157683D01*
X25539Y157717D01*
X25498Y157721D01*
X25476Y157728D01*
X25444Y157727D01*
X25373Y157735D01*
X15998Y157735D01*
X15105Y158628D01*
X15105Y161426D01*
X15102Y161446D01*
X15104Y161465D01*
X15082Y161567D01*
X15066Y161669D01*
X15056Y161686D01*
X15052Y161706D01*
X14999Y161795D01*
X14950Y161886D01*
X14936Y161900D01*
X14926Y161917D01*
X14847Y161984D01*
X14772Y162056D01*
X14754Y162064D01*
X14739Y162077D01*
X14643Y162116D01*
X14549Y162159D01*
X14529Y162161D01*
X14511Y162169D01*
X14344Y162187D01*
X11096Y162187D01*
X11076Y162184D01*
X11057Y162186D01*
X10955Y162164D01*
X10853Y162148D01*
X10836Y162138D01*
X10816Y162134D01*
X10727Y162081D01*
X10636Y162032D01*
X10622Y162018D01*
X10605Y162008D01*
X10538Y161929D01*
X10466Y161854D01*
X10458Y161836D01*
X10445Y161821D01*
X10406Y161725D01*
X10363Y161631D01*
X10361Y161611D01*
X10353Y161593D01*
X10335Y161426D01*
X10335Y160628D01*
X9442Y159735D01*
X-1822Y159735D01*
X-2715Y160628D01*
X-2715Y160937D01*
X-2718Y160957D01*
X-2716Y160976D01*
X-2738Y161078D01*
X-2754Y161180D01*
X-2764Y161197D01*
X-2768Y161217D01*
X-2821Y161306D01*
X-2870Y161397D01*
X-2884Y161411D01*
X-2894Y161428D01*
X-2973Y161495D01*
X-3048Y161567D01*
X-3066Y161575D01*
X-3081Y161588D01*
X-3177Y161627D01*
X-3271Y161670D01*
X-3291Y161672D01*
X-3309Y161680D01*
X-3476Y161698D01*
X-7913Y161698D01*
X-8179Y161964D01*
X-8253Y162018D01*
X-8281Y162041D01*
X-8296Y162056D01*
X-8300Y162057D01*
X-8323Y162077D01*
X-8353Y162089D01*
X-8379Y162108D01*
X-8466Y162135D01*
X-8468Y162136D01*
X-8519Y162159D01*
X-8530Y162160D01*
X-8551Y162169D01*
X-8592Y162173D01*
X-8614Y162180D01*
X-8646Y162179D01*
X-8717Y162187D01*
X-8724Y162187D01*
X-8744Y162184D01*
X-8763Y162186D01*
X-8815Y162175D01*
X-8860Y162174D01*
X-8903Y162158D01*
X-8967Y162148D01*
X-8984Y162138D01*
X-9004Y162134D01*
X-9059Y162101D01*
X-9091Y162089D01*
X-9119Y162067D01*
X-9184Y162032D01*
X-9198Y162018D01*
X-9215Y162008D01*
X-9263Y161952D01*
X-9283Y161936D01*
X-9297Y161913D01*
X-9354Y161854D01*
X-9362Y161836D01*
X-9375Y161821D01*
X-9405Y161745D01*
X-9416Y161729D01*
X-9421Y161709D01*
X-9457Y161631D01*
X-9459Y161611D01*
X-9467Y161593D01*
X-9485Y161426D01*
X-9485Y161128D01*
X-10378Y160235D01*
X-22642Y160235D01*
X-23535Y161128D01*
X-23535Y162664D01*
X-23546Y162735D01*
X-23548Y162806D01*
X-23566Y162855D01*
X-23574Y162907D01*
X-23608Y162970D01*
X-23633Y163037D01*
X-23665Y163078D01*
X-23690Y163124D01*
X-23742Y163173D01*
X-23786Y163229D01*
X-23830Y163257D01*
X-23868Y163293D01*
X-23933Y163323D01*
X-23993Y163362D01*
X-24044Y163375D01*
X-24091Y163397D01*
X-24162Y163405D01*
X-24232Y163422D01*
X-24284Y163418D01*
X-24335Y163424D01*
X-24406Y163409D01*
X-24477Y163403D01*
X-24525Y163383D01*
X-24576Y163372D01*
X-24637Y163335D01*
X-24703Y163307D01*
X-24759Y163262D01*
X-24787Y163246D01*
X-24802Y163228D01*
X-24834Y163202D01*
X-29909Y158128D01*
X-29920Y158111D01*
X-29936Y158099D01*
X-29992Y158012D01*
X-30052Y157928D01*
X-30058Y157909D01*
X-30069Y157892D01*
X-30094Y157792D01*
X-30125Y157693D01*
X-30124Y157673D01*
X-30129Y157654D01*
X-30121Y157551D01*
X-30118Y157447D01*
X-30111Y157428D01*
X-30110Y157408D01*
X-30069Y157313D01*
X-30034Y157216D01*
X-30021Y157200D01*
X-30014Y157182D01*
X-29909Y157051D01*
X-16804Y143947D01*
X-16730Y143894D01*
X-16661Y143834D01*
X-16631Y143822D01*
X-16605Y143803D01*
X-16518Y143776D01*
X-16433Y143742D01*
X-16392Y143738D01*
X-16370Y143731D01*
X-16337Y143732D01*
X-16266Y143724D01*
X50553Y143724D01*
X56934Y137343D01*
X57008Y137290D01*
X57077Y137230D01*
X57108Y137218D01*
X57134Y137199D01*
X57221Y137172D01*
X57306Y137138D01*
X57346Y137134D01*
X57369Y137127D01*
X57401Y137128D01*
X57472Y137120D01*
X59030Y137120D01*
X60355Y135795D01*
X60355Y129301D01*
X60358Y129281D01*
X60356Y129262D01*
X60378Y129160D01*
X60394Y129058D01*
X60404Y129041D01*
X60408Y129021D01*
X60461Y128932D01*
X60510Y128841D01*
X60524Y128827D01*
X60534Y128810D01*
X60613Y128743D01*
X60688Y128671D01*
X60706Y128663D01*
X60721Y128650D01*
X60817Y128611D01*
X60911Y128568D01*
X60931Y128566D01*
X60949Y128558D01*
X61116Y128540D01*
X63344Y128540D01*
X63364Y128543D01*
X63383Y128541D01*
X63485Y128563D01*
X63587Y128579D01*
X63604Y128589D01*
X63624Y128593D01*
X63713Y128646D01*
X63804Y128695D01*
X63818Y128709D01*
X63835Y128719D01*
X63902Y128798D01*
X63974Y128873D01*
X63982Y128891D01*
X63995Y128906D01*
X64034Y129002D01*
X64077Y129096D01*
X64079Y129116D01*
X64087Y129134D01*
X64105Y129301D01*
X64105Y135795D01*
X65430Y137120D01*
X71730Y137120D01*
X73055Y135795D01*
X73055Y115695D01*
X71730Y114370D01*
X65430Y114370D01*
X64105Y115695D01*
X64105Y122189D01*
X64102Y122209D01*
X64104Y122228D01*
X64082Y122330D01*
X64066Y122432D01*
X64056Y122449D01*
X64052Y122469D01*
X63999Y122558D01*
X63950Y122649D01*
X63936Y122663D01*
X63926Y122680D01*
X63847Y122747D01*
X63772Y122819D01*
X63754Y122827D01*
X63739Y122840D01*
X63643Y122879D01*
X63549Y122922D01*
X63529Y122924D01*
X63511Y122932D01*
X63344Y122950D01*
X61116Y122950D01*
X61096Y122947D01*
X61077Y122949D01*
X60975Y122927D01*
X60873Y122911D01*
X60856Y122901D01*
X60836Y122897D01*
X60747Y122844D01*
X60656Y122795D01*
X60642Y122781D01*
X60625Y122771D01*
X60558Y122692D01*
X60486Y122617D01*
X60478Y122599D01*
X60465Y122584D01*
X60426Y122488D01*
X60383Y122394D01*
X60381Y122374D01*
X60373Y122356D01*
X60355Y122189D01*
X60355Y115695D01*
X59030Y114370D01*
X52730Y114370D01*
X51405Y115695D01*
X51405Y134651D01*
X51391Y134741D01*
X51383Y134832D01*
X51371Y134862D01*
X51366Y134894D01*
X51323Y134975D01*
X51287Y135059D01*
X51261Y135091D01*
X51250Y135111D01*
X51227Y135134D01*
X51182Y135190D01*
X48461Y137911D01*
X48387Y137964D01*
X48317Y138024D01*
X48287Y138036D01*
X48261Y138055D01*
X48174Y138082D01*
X48089Y138116D01*
X48048Y138120D01*
X48026Y138127D01*
X47994Y138126D01*
X47922Y138134D01*
X47153Y138134D01*
X47082Y138123D01*
X47010Y138121D01*
X46961Y138103D01*
X46910Y138095D01*
X46847Y138061D01*
X46779Y138036D01*
X46739Y138004D01*
X46693Y137979D01*
X46643Y137927D01*
X46587Y137883D01*
X46559Y137839D01*
X46523Y137801D01*
X46493Y137736D01*
X46454Y137676D01*
X46442Y137625D01*
X46420Y137578D01*
X46412Y137507D01*
X46394Y137437D01*
X46398Y137385D01*
X46393Y137334D01*
X46408Y137263D01*
X46413Y137192D01*
X46434Y137144D01*
X46445Y137093D01*
X46482Y137032D01*
X46510Y136966D01*
X46555Y136910D01*
X46571Y136882D01*
X46579Y136876D01*
X46580Y136873D01*
X46592Y136863D01*
X46615Y136835D01*
X47655Y135795D01*
X47655Y115695D01*
X46330Y114370D01*
X40030Y114370D01*
X38705Y115695D01*
X38705Y125952D01*
X38702Y125969D01*
X38704Y125985D01*
X38690Y126051D01*
X38683Y126133D01*
X38671Y126163D01*
X38666Y126195D01*
X38654Y126217D01*
X38652Y126225D01*
X38630Y126261D01*
X38623Y126276D01*
X38587Y126359D01*
X38561Y126392D01*
X38550Y126412D01*
X38527Y126434D01*
X38526Y126436D01*
X38525Y126437D01*
X38482Y126490D01*
X38435Y126537D01*
X38361Y126590D01*
X38292Y126650D01*
X38262Y126662D01*
X38236Y126681D01*
X38149Y126708D01*
X38064Y126742D01*
X38023Y126746D01*
X38001Y126753D01*
X37968Y126752D01*
X37897Y126760D01*
X-22320Y126760D01*
X-22391Y126749D01*
X-22462Y126747D01*
X-22511Y126729D01*
X-22563Y126721D01*
X-22626Y126687D01*
X-22693Y126662D01*
X-22734Y126630D01*
X-22780Y126605D01*
X-22829Y126553D01*
X-22885Y126509D01*
X-22914Y126465D01*
X-22949Y126427D01*
X-22980Y126362D01*
X-23018Y126302D01*
X-23031Y126251D01*
X-23053Y126204D01*
X-23061Y126133D01*
X-23079Y126063D01*
X-23074Y126011D01*
X-23080Y125960D01*
X-23065Y125889D01*
X-23059Y125818D01*
X-23039Y125770D01*
X-23028Y125719D01*
X-22991Y125658D01*
X-22963Y125592D01*
X-22918Y125536D01*
X-22902Y125508D01*
X-22884Y125493D01*
X-22858Y125461D01*
X-9635Y112238D01*
X-9561Y112185D01*
X-9492Y112125D01*
X-9462Y112113D01*
X-9435Y112094D01*
X-9349Y112067D01*
X-9264Y112033D01*
X-9223Y112029D01*
X-9200Y112022D01*
X-9168Y112023D01*
X-9097Y112015D01*
X72187Y112015D01*
X72277Y112029D01*
X72368Y112037D01*
X72398Y112049D01*
X72430Y112054D01*
X72511Y112097D01*
X72594Y112133D01*
X72627Y112159D01*
X72647Y112170D01*
X72669Y112193D01*
X72725Y112238D01*
X76582Y116095D01*
X76635Y116169D01*
X76695Y116238D01*
X76707Y116268D01*
X76726Y116294D01*
X76753Y116381D01*
X76787Y116466D01*
X76791Y116507D01*
X76798Y116529D01*
X76797Y116562D01*
X76805Y116633D01*
X76805Y135795D01*
X78130Y137120D01*
X84430Y137120D01*
X85755Y135795D01*
X85755Y115695D01*
X84430Y114370D01*
X83078Y114370D01*
X82988Y114356D01*
X82897Y114348D01*
X82867Y114336D01*
X82835Y114331D01*
X82755Y114288D01*
X82671Y114252D01*
X82638Y114226D01*
X82618Y114215D01*
X82596Y114192D01*
X82540Y114147D01*
X82215Y113822D01*
X76678Y108285D01*
X74818Y106425D01*
X36139Y106425D01*
X36069Y106414D01*
X35997Y106412D01*
X35948Y106394D01*
X35897Y106386D01*
X35833Y106352D01*
X35766Y106327D01*
X35725Y106295D01*
X35679Y106270D01*
X35630Y106218D01*
X35574Y106174D01*
X35546Y106130D01*
X35510Y106092D01*
X35480Y106027D01*
X35441Y105967D01*
X35428Y105916D01*
X35406Y105869D01*
X35398Y105798D01*
X35381Y105728D01*
X35385Y105676D01*
X35379Y105625D01*
X35394Y105554D01*
X35400Y105483D01*
X35420Y105435D01*
X35431Y105384D01*
X35468Y105323D01*
X35496Y105257D01*
X35541Y105201D01*
X35558Y105173D01*
X35575Y105158D01*
X35601Y105126D01*
X36109Y104618D01*
X36183Y104564D01*
X36253Y104505D01*
X36283Y104493D01*
X36309Y104474D01*
X36396Y104447D01*
X36481Y104413D01*
X36522Y104409D01*
X36544Y104402D01*
X36576Y104403D01*
X36647Y104395D01*
X54370Y104395D01*
X71673Y87092D01*
X71747Y87039D01*
X71816Y86979D01*
X71846Y86967D01*
X71872Y86948D01*
X71959Y86921D01*
X72044Y86887D01*
X72085Y86883D01*
X72107Y86876D01*
X72140Y86877D01*
X72211Y86869D01*
X103355Y86869D01*
X103472Y86888D01*
X103590Y86906D01*
X103594Y86908D01*
X103598Y86908D01*
X103701Y86963D01*
X103809Y87019D01*
X103812Y87022D01*
X103815Y87024D01*
X103896Y87109D01*
X103980Y87195D01*
X103982Y87199D01*
X103985Y87202D01*
X104035Y87309D01*
X104086Y87417D01*
X104087Y87421D01*
X104088Y87425D01*
X104101Y87542D01*
X104101Y87544D01*
X104460Y88167D01*
X104472Y88197D01*
X104510Y88269D01*
X104744Y88865D01*
X104800Y88909D01*
X104875Y88958D01*
X104896Y88985D01*
X104924Y89006D01*
X105023Y89141D01*
X106124Y91051D01*
X106137Y91083D01*
X106156Y91112D01*
X106180Y91198D01*
X106211Y91281D01*
X106213Y91315D01*
X106222Y91349D01*
X106222Y91428D01*
X106623Y91932D01*
X106639Y91960D01*
X106687Y92026D01*
X107007Y92580D01*
X107069Y92616D01*
X107150Y92652D01*
X107176Y92676D01*
X107206Y92693D01*
X107324Y92812D01*
X108698Y94535D01*
X108715Y94566D01*
X108738Y94591D01*
X108775Y94673D01*
X108818Y94750D01*
X108825Y94784D01*
X108839Y94816D01*
X108850Y94894D01*
X109322Y95332D01*
X109342Y95358D01*
X109399Y95416D01*
X109799Y95917D01*
X109866Y95942D01*
X109951Y95966D01*
X109980Y95986D01*
X110012Y95998D01*
X110147Y96098D01*
X111762Y97598D01*
X111783Y97625D01*
X111810Y97647D01*
X111858Y97722D01*
X111913Y97792D01*
X111924Y97825D01*
X111943Y97854D01*
X111966Y97930D01*
X112498Y98293D01*
X112522Y98315D01*
X112587Y98364D01*
X113056Y98799D01*
X113126Y98815D01*
X113215Y98826D01*
X113246Y98841D01*
X113280Y98848D01*
X113428Y98927D01*
X115249Y100169D01*
X115274Y100193D01*
X115304Y100211D01*
X115362Y100277D01*
X115427Y100339D01*
X115443Y100369D01*
X115466Y100396D01*
X115500Y100467D01*
X116080Y100747D01*
X116107Y100765D01*
X116178Y100804D01*
X116707Y101164D01*
X116779Y101169D01*
X116868Y101167D01*
X116901Y101177D01*
X116936Y101180D01*
X117094Y101235D01*
X119079Y102192D01*
X119108Y102212D01*
X119140Y102225D01*
X119208Y102282D01*
X119281Y102333D01*
X119301Y102361D01*
X119328Y102384D01*
X119372Y102449D01*
X119987Y102639D01*
X120017Y102654D01*
X120093Y102681D01*
X120670Y102959D01*
X120742Y102953D01*
X120829Y102938D01*
X120863Y102943D01*
X120898Y102940D01*
X121063Y102971D01*
X123169Y103622D01*
X123200Y103637D01*
X123234Y103645D01*
X123310Y103692D01*
X123389Y103731D01*
X123413Y103756D01*
X123443Y103774D01*
X123497Y103832D01*
X124133Y103929D01*
X124165Y103939D01*
X124244Y103954D01*
X124856Y104143D01*
X124926Y104126D01*
X125010Y104098D01*
X125045Y104098D01*
X125079Y104090D01*
X125246Y104097D01*
X127426Y104426D01*
X127459Y104437D01*
X127493Y104439D01*
X127575Y104474D01*
X127660Y104501D01*
X127688Y104522D01*
X127720Y104536D01*
X127781Y104585D01*
X128425Y104585D01*
X128458Y104591D01*
X128539Y104594D01*
X129172Y104690D01*
X129238Y104663D01*
X129317Y104622D01*
X129352Y104617D01*
X129384Y104604D01*
X129551Y104586D01*
X131755Y104587D01*
X131789Y104592D01*
X131824Y104590D01*
X131910Y104612D01*
X131997Y104626D01*
X132028Y104643D01*
X132062Y104651D01*
X132130Y104691D01*
X132767Y104595D01*
X132800Y104596D01*
X132880Y104587D01*
X133521Y104587D01*
X133583Y104551D01*
X133655Y104499D01*
X133688Y104489D01*
X133718Y104471D01*
X133880Y104428D01*
X136060Y104100D01*
X136094Y104101D01*
X136128Y104093D01*
X136217Y104102D01*
X136305Y104103D01*
X136338Y104115D01*
X136373Y104118D01*
X136447Y104148D01*
X137062Y103958D01*
X137094Y103954D01*
X137172Y103933D01*
X137806Y103838D01*
X137862Y103792D01*
X137925Y103730D01*
X137956Y103715D01*
X137983Y103693D01*
X138137Y103627D01*
X140244Y102978D01*
X140278Y102973D01*
X140310Y102960D01*
X140399Y102956D01*
X140487Y102944D01*
X140521Y102951D01*
X140556Y102949D01*
X140633Y102967D01*
X141213Y102688D01*
X141245Y102678D01*
X141319Y102646D01*
X141931Y102458D01*
X141980Y102405D01*
X142033Y102334D01*
X142062Y102314D01*
X142085Y102289D01*
X142228Y102200D01*
X142740Y101953D01*
X142849Y101921D01*
X142959Y101886D01*
X142968Y101886D01*
X142976Y101884D01*
X143091Y101888D01*
X143205Y101890D01*
X143213Y101893D01*
X143222Y101893D01*
X143329Y101934D01*
X143437Y101972D01*
X143444Y101977D01*
X143452Y101980D01*
X143541Y102053D01*
X143630Y102123D01*
X143637Y102132D01*
X143642Y102136D01*
X143655Y102156D01*
X143730Y102258D01*
X162541Y134841D01*
X164178Y133711D01*
X164205Y133700D01*
X164227Y133681D01*
X164296Y133661D01*
X164361Y133633D01*
X164390Y133633D01*
X164418Y133625D01*
X164489Y133633D01*
X164560Y133633D01*
X164587Y133644D01*
X164616Y133647D01*
X164678Y133682D01*
X164743Y133710D01*
X164764Y133730D01*
X164789Y133745D01*
X164852Y133822D01*
X164882Y133852D01*
X164886Y133862D01*
X164895Y133873D01*
X174395Y150373D01*
X174405Y150405D01*
X174414Y150418D01*
X174418Y150442D01*
X174419Y150446D01*
X174450Y150516D01*
X174450Y150540D01*
X174458Y150562D01*
X174452Y150638D01*
X174453Y150715D01*
X174443Y150739D01*
X174442Y150760D01*
X174421Y150799D01*
X174395Y150871D01*
X164895Y167371D01*
X164876Y167393D01*
X164863Y167419D01*
X164810Y167467D01*
X164763Y167520D01*
X164737Y167533D01*
X164716Y167552D01*
X164648Y167575D01*
X164584Y167606D01*
X164555Y167608D01*
X164528Y167617D01*
X164456Y167612D01*
X164385Y167615D01*
X164358Y167605D01*
X164329Y167603D01*
X164239Y167561D01*
X164199Y167546D01*
X164191Y167539D01*
X164178Y167533D01*
X162541Y166403D01*
X143730Y198986D01*
X143657Y199075D01*
X143587Y199164D01*
X143580Y199169D01*
X143574Y199176D01*
X143476Y199237D01*
X143382Y199300D01*
X143373Y199302D01*
X143366Y199307D01*
X143254Y199334D01*
X143144Y199363D01*
X143135Y199362D01*
X143127Y199364D01*
X143013Y199354D01*
X142899Y199347D01*
X142889Y199343D01*
X142882Y199343D01*
X142860Y199333D01*
X142740Y199291D01*
X142228Y199044D01*
X142199Y199024D01*
X142167Y199012D01*
X142099Y198954D01*
X142026Y198903D01*
X142006Y198875D01*
X141979Y198853D01*
X141934Y198787D01*
X141319Y198598D01*
X141290Y198583D01*
X141213Y198556D01*
X140636Y198279D01*
X140565Y198285D01*
X140477Y198300D01*
X140443Y198295D01*
X140409Y198298D01*
X140244Y198266D01*
X138137Y197617D01*
X138106Y197602D01*
X138072Y197594D01*
X137997Y197548D01*
X137917Y197508D01*
X137892Y197483D01*
X137863Y197465D01*
X137809Y197407D01*
X137173Y197311D01*
X137141Y197301D01*
X137062Y197286D01*
X136450Y197097D01*
X136380Y197114D01*
X136296Y197142D01*
X136261Y197142D01*
X136227Y197150D01*
X136060Y197144D01*
X133880Y196816D01*
X133847Y196805D01*
X133812Y196803D01*
X133730Y196768D01*
X133646Y196741D01*
X133618Y196720D01*
X133586Y196706D01*
X133524Y196657D01*
X132880Y196657D01*
X132848Y196652D01*
X132767Y196649D01*
X132134Y196553D01*
X132067Y196580D01*
X131988Y196621D01*
X131954Y196626D01*
X131921Y196639D01*
X131755Y196657D01*
X129551Y196658D01*
X129516Y196653D01*
X129482Y196655D01*
X129396Y196633D01*
X129308Y196619D01*
X129277Y196602D01*
X129244Y196594D01*
X129175Y196554D01*
X128539Y196650D01*
X128506Y196650D01*
X128425Y196659D01*
X127785Y196659D01*
X127723Y196695D01*
X127651Y196747D01*
X127618Y196757D01*
X127588Y196775D01*
X127426Y196818D01*
X125246Y197147D01*
X125211Y197147D01*
X125178Y197155D01*
X125089Y197145D01*
X125000Y197144D01*
X124968Y197133D01*
X124933Y197129D01*
X124859Y197100D01*
X124244Y197290D01*
X124212Y197295D01*
X124133Y197315D01*
X123500Y197411D01*
X123445Y197456D01*
X123381Y197518D01*
X123350Y197533D01*
X123323Y197555D01*
X123169Y197622D01*
X121063Y198273D01*
X121028Y198277D01*
X120996Y198290D01*
X120907Y198294D01*
X120819Y198306D01*
X120785Y198300D01*
X120750Y198301D01*
X120673Y198284D01*
X120093Y198563D01*
X120062Y198572D01*
X119987Y198605D01*
X119375Y198794D01*
X119327Y198847D01*
X119273Y198918D01*
X119245Y198937D01*
X119221Y198963D01*
X119079Y199052D01*
X117094Y200009D01*
X117061Y200019D01*
X117030Y200036D01*
X116943Y200053D01*
X116858Y200078D01*
X116823Y200077D01*
X116789Y200084D01*
X116710Y200078D01*
X116178Y200440D01*
X116148Y200454D01*
X116080Y200497D01*
X115503Y200775D01*
X115463Y200835D01*
X115421Y200913D01*
X115395Y200937D01*
X115376Y200966D01*
X115249Y201075D01*
X113428Y202317D01*
X113396Y202332D01*
X113369Y202353D01*
X113286Y202383D01*
X113205Y202421D01*
X113170Y202425D01*
X113138Y202437D01*
X113059Y202442D01*
X112587Y202880D01*
X112560Y202899D01*
X112498Y202951D01*
X111969Y203312D01*
X111939Y203377D01*
X111908Y203461D01*
X111887Y203488D01*
X111872Y203519D01*
X111762Y203646D01*
X110147Y205146D01*
X110118Y205165D01*
X110094Y205190D01*
X110016Y205233D01*
X109942Y205282D01*
X109909Y205291D01*
X109878Y205307D01*
X109801Y205325D01*
X109399Y205828D01*
X109375Y205851D01*
X109322Y205912D01*
X108853Y206347D01*
X108832Y206416D01*
X108815Y206503D01*
X108797Y206533D01*
X108787Y206567D01*
X108698Y206709D01*
X107324Y208432D01*
X107299Y208455D01*
X107279Y208484D01*
X107208Y208538D01*
X107142Y208597D01*
X107110Y208611D01*
X107082Y208632D01*
X107008Y208661D01*
X106687Y209218D01*
X106666Y209244D01*
X106623Y209312D01*
X106224Y209813D01*
X106214Y209884D01*
X106209Y209973D01*
X106197Y210005D01*
X106192Y210040D01*
X106124Y210193D01*
X105023Y212103D01*
X105001Y212129D01*
X104986Y212161D01*
X104923Y212224D01*
X104867Y212293D01*
X104838Y212311D01*
X104814Y212336D01*
X104745Y212376D01*
X104510Y212975D01*
X104493Y213003D01*
X104492Y213006D01*
X104491Y213008D01*
X104490Y213009D01*
X104460Y213077D01*
X104140Y213632D01*
X104141Y213704D01*
X104150Y213792D01*
X104142Y213826D01*
X104143Y213861D01*
X104099Y214023D01*
X103294Y216075D01*
X103277Y216105D01*
X103266Y216138D01*
X103214Y216210D01*
X103169Y216286D01*
X103142Y216309D01*
X103122Y216337D01*
X103060Y216386D01*
X102917Y217014D01*
X102905Y217045D01*
X102883Y217123D01*
X102650Y217719D01*
X102661Y217790D01*
X102683Y217876D01*
X102680Y217910D01*
X102686Y217945D01*
X102667Y218111D01*
X102177Y220260D01*
X102164Y220292D01*
X102159Y220327D01*
X102118Y220406D01*
X102084Y220488D01*
X102062Y220515D01*
X102046Y220545D01*
X101992Y220603D01*
X101944Y221245D01*
X101936Y221277D01*
X101927Y221358D01*
X101785Y221982D01*
X101806Y222050D01*
X101841Y222132D01*
X101844Y222167D01*
X101854Y222200D01*
X101860Y222368D01*
X101696Y224566D01*
X101688Y224599D01*
X101688Y224634D01*
X101659Y224719D01*
X101638Y224805D01*
X101620Y224834D01*
X101609Y224867D01*
X101564Y224933D01*
X101612Y225574D01*
X101609Y225607D01*
X101612Y225688D01*
X101565Y226327D01*
X101596Y226391D01*
X101643Y226467D01*
X101651Y226501D01*
X101666Y226532D01*
X101697Y226697D01*
X101862Y228895D01*
X101859Y228929D01*
X101864Y228964D01*
X101849Y229051D01*
X101841Y229140D01*
X101827Y229172D01*
X101821Y229206D01*
X101786Y229277D01*
X101930Y229905D01*
X101932Y229938D01*
X101947Y230017D01*
X101995Y230656D01*
X102036Y230714D01*
X102093Y230783D01*
X102106Y230815D01*
X102125Y230843D01*
X102181Y231002D01*
X102672Y233151D01*
X102674Y233185D01*
X102684Y233218D01*
X102681Y233307D01*
X102687Y233396D01*
X102678Y233430D01*
X102677Y233464D01*
X102654Y233540D01*
X102889Y234139D01*
X102896Y234171D01*
X102922Y234248D01*
X103065Y234872D01*
X103114Y234924D01*
X103181Y234983D01*
X103198Y235013D01*
X103222Y235038D01*
X103300Y235187D01*
X104106Y237238D01*
X104114Y237272D01*
X104129Y237303D01*
X104139Y237392D01*
X104158Y237479D01*
X104154Y237513D01*
X104158Y237548D01*
X104147Y237626D01*
X104469Y238183D01*
X104480Y238214D01*
X104518Y238286D01*
X104752Y238882D01*
X104809Y238926D01*
X104883Y238974D01*
X104905Y239001D01*
X104932Y239023D01*
X105032Y239158D01*
X106134Y241066D01*
X106147Y241099D01*
X106166Y241128D01*
X106190Y241213D01*
X106221Y241296D01*
X106223Y241331D01*
X106232Y241365D01*
X106232Y241444D01*
X106633Y241947D01*
X106646Y241970D01*
X106663Y241988D01*
X106672Y242006D01*
X106697Y242041D01*
X107151Y242826D01*
X107166Y242867D01*
X107190Y242904D01*
X107207Y242969D01*
X107208Y242973D01*
X107209Y242978D01*
X107209Y242981D01*
X107238Y243056D01*
X107239Y243100D01*
X107250Y243142D01*
X107244Y243222D01*
X107247Y243301D01*
X107234Y243344D01*
X107231Y243387D01*
X107200Y243461D01*
X107177Y243537D01*
X107152Y243573D01*
X107135Y243614D01*
X107044Y243727D01*
X107036Y243739D01*
X107033Y243741D01*
X107030Y243745D01*
X106018Y244757D01*
X106002Y244768D01*
X105989Y244784D01*
X105902Y244840D01*
X105818Y244900D01*
X105799Y244906D01*
X105782Y244917D01*
X105682Y244942D01*
X105583Y244972D01*
X105563Y244972D01*
X105544Y244977D01*
X105441Y244969D01*
X105337Y244966D01*
X105318Y244959D01*
X105299Y244958D01*
X105204Y244917D01*
X105111Y244883D01*
X100672Y244883D01*
X97563Y247992D01*
X97563Y252388D01*
X100672Y255497D01*
X105068Y255497D01*
X108177Y252388D01*
X108177Y250818D01*
X108191Y250728D01*
X108199Y250637D01*
X108211Y250607D01*
X108216Y250575D01*
X108259Y250494D01*
X108295Y250411D01*
X108321Y250378D01*
X108332Y250358D01*
X108355Y250336D01*
X108384Y250300D01*
X108384Y250299D01*
X108400Y250280D01*
X110795Y247884D01*
X110854Y247842D01*
X110906Y247792D01*
X110953Y247771D01*
X110995Y247740D01*
X111064Y247719D01*
X111129Y247689D01*
X111181Y247683D01*
X111230Y247668D01*
X111302Y247670D01*
X111374Y247662D01*
X111424Y247673D01*
X111476Y247674D01*
X111544Y247699D01*
X111614Y247714D01*
X111677Y247748D01*
X111707Y247759D01*
X111726Y247774D01*
X111762Y247793D01*
X112513Y248304D01*
X112537Y248327D01*
X112602Y248375D01*
X113071Y248811D01*
X113141Y248826D01*
X113230Y248837D01*
X113261Y248852D01*
X113295Y248859D01*
X113443Y248938D01*
X113898Y249248D01*
X113981Y249327D01*
X114066Y249404D01*
X114070Y249412D01*
X114076Y249418D01*
X114130Y249519D01*
X114185Y249619D01*
X114187Y249627D01*
X114191Y249635D01*
X114210Y249748D01*
X114230Y249861D01*
X114229Y249869D01*
X114231Y249878D01*
X114212Y249991D01*
X114196Y250104D01*
X114192Y250114D01*
X114191Y250121D01*
X114180Y250141D01*
X114129Y250258D01*
X95318Y282839D01*
X97076Y283671D01*
X97098Y283688D01*
X97125Y283698D01*
X97177Y283747D01*
X97235Y283790D01*
X97249Y283815D01*
X97270Y283834D01*
X97299Y283900D01*
X97335Y283962D01*
X97338Y283990D01*
X97350Y284016D01*
X97351Y284088D01*
X97360Y284159D01*
X97352Y284186D01*
X97353Y284215D01*
X97317Y284310D01*
X97306Y284350D01*
X97299Y284359D01*
X97295Y284371D01*
X87795Y300871D01*
X87743Y300930D01*
X87697Y300992D01*
X87678Y301003D01*
X87663Y301020D01*
X87593Y301054D01*
X87526Y301094D01*
X87502Y301098D01*
X87484Y301106D01*
X87439Y301108D01*
X87362Y301121D01*
X68362Y301121D01*
X68334Y301116D01*
X68306Y301118D01*
X68238Y301096D01*
X68167Y301082D01*
X68144Y301066D01*
X68117Y301057D01*
X68062Y301010D01*
X68003Y300969D01*
X67988Y300945D01*
X67967Y300927D01*
X67935Y300862D01*
X67896Y300802D01*
X67891Y300774D01*
X67879Y300748D01*
X67870Y300647D01*
X67863Y300605D01*
X67865Y300595D01*
X67864Y300582D01*
X68020Y298621D01*
X-66496Y298621D01*
X-66340Y300582D01*
X-66344Y300611D01*
X-66339Y300639D01*
X-66356Y300708D01*
X-66364Y300780D01*
X-66379Y300804D01*
X-66385Y300832D01*
X-66428Y300890D01*
X-66464Y300952D01*
X-66486Y300969D01*
X-66503Y300992D01*
X-66565Y301029D01*
X-66622Y301072D01*
X-66650Y301079D01*
X-66674Y301094D01*
X-66774Y301110D01*
X-66815Y301121D01*
X-66825Y301119D01*
X-66838Y301121D01*
X-85838Y301121D01*
X-85914Y301106D01*
X-85992Y301097D01*
X-86011Y301086D01*
X-86033Y301082D01*
X-86097Y301038D01*
X-86165Y300999D01*
X-86181Y300980D01*
X-86197Y300969D01*
X-86221Y300931D01*
X-86271Y300871D01*
X-95771Y284371D01*
X-95780Y284344D01*
X-95796Y284320D01*
X-95811Y284250D01*
X-95834Y284182D01*
X-95831Y284154D01*
X-95837Y284126D01*
X-95824Y284056D01*
X-95818Y283984D01*
X-95805Y283959D01*
X-95799Y283931D01*
X-95759Y283871D01*
X-95726Y283808D01*
X-95704Y283790D01*
X-95688Y283766D01*
X-95605Y283708D01*
X-95573Y283681D01*
X-95562Y283678D01*
X-95552Y283671D01*
X-93794Y282839D01*
X-112605Y250258D01*
X-112645Y250151D01*
X-112688Y250045D01*
X-112689Y250036D01*
X-112692Y250028D01*
X-112696Y249914D01*
X-112703Y249799D01*
X-112700Y249791D01*
X-112701Y249782D01*
X-112668Y249672D01*
X-112638Y249562D01*
X-112633Y249555D01*
X-112631Y249546D01*
X-112565Y249452D01*
X-112501Y249357D01*
X-112493Y249351D01*
X-112489Y249345D01*
X-112471Y249331D01*
X-112374Y249248D01*
X-111919Y248938D01*
X-111887Y248923D01*
X-111860Y248902D01*
X-111776Y248872D01*
X-111696Y248834D01*
X-111661Y248830D01*
X-111629Y248819D01*
X-111550Y248813D01*
X-111078Y248375D01*
X-111050Y248357D01*
X-110989Y248304D01*
X-110459Y247944D01*
X-110429Y247879D01*
X-110398Y247795D01*
X-110377Y247768D01*
X-110362Y247737D01*
X-110252Y247610D01*
X-108636Y246111D01*
X-108607Y246092D01*
X-108583Y246067D01*
X-108505Y246024D01*
X-108431Y245975D01*
X-108398Y245966D01*
X-108367Y245950D01*
X-108290Y245932D01*
X-107888Y245429D01*
X-107864Y245407D01*
X-107811Y245346D01*
X-107341Y244911D01*
X-107321Y244842D01*
X-107303Y244755D01*
X-107286Y244725D01*
X-107276Y244691D01*
X-107186Y244550D01*
X-105811Y242827D01*
X-105786Y242803D01*
X-105766Y242775D01*
X-105695Y242721D01*
X-105629Y242662D01*
X-105597Y242648D01*
X-105569Y242627D01*
X-105495Y242598D01*
X-105173Y242041D01*
X-105152Y242015D01*
X-105109Y241947D01*
X-104710Y241446D01*
X-104700Y241376D01*
X-104695Y241287D01*
X-104683Y241254D01*
X-104678Y241220D01*
X-104610Y241066D01*
X-103508Y239158D01*
X-103486Y239131D01*
X-103470Y239100D01*
X-103408Y239037D01*
X-103352Y238968D01*
X-103322Y238949D01*
X-103298Y238924D01*
X-103229Y238885D01*
X-102994Y238286D01*
X-102977Y238257D01*
X-102945Y238183D01*
X-102624Y237629D01*
X-102625Y237557D01*
X-102634Y237469D01*
X-102626Y237435D01*
X-102626Y237400D01*
X-102582Y237238D01*
X-101776Y235187D01*
X-101759Y235157D01*
X-101748Y235124D01*
X-101696Y235052D01*
X-101651Y234975D01*
X-101624Y234953D01*
X-101604Y234925D01*
X-101542Y234875D01*
X-101398Y234248D01*
X-101386Y234217D01*
X-101365Y234139D01*
X-101131Y233543D01*
X-101142Y233472D01*
X-101164Y233386D01*
X-101161Y233351D01*
X-101167Y233317D01*
X-101148Y233151D01*
X-100657Y231002D01*
X-100643Y230970D01*
X-100638Y230935D01*
X-100597Y230856D01*
X-100564Y230774D01*
X-100541Y230748D01*
X-100525Y230717D01*
X-100471Y230659D01*
X-100423Y230017D01*
X-100415Y229985D01*
X-100406Y229905D01*
X-100263Y229280D01*
X-100285Y229212D01*
X-100319Y229130D01*
X-100322Y229095D01*
X-100332Y229062D01*
X-100338Y228895D01*
X-100173Y226697D01*
X-100165Y226663D01*
X-100165Y226628D01*
X-100136Y226544D01*
X-100115Y226458D01*
X-100096Y226428D01*
X-100085Y226396D01*
X-100040Y226330D01*
X-100088Y225688D01*
X-100085Y225655D01*
X-100086Y225633D01*
X-100087Y225630D01*
X-100086Y225628D01*
X-100088Y225574D01*
X-100040Y224936D01*
X-100072Y224871D01*
X-100118Y224796D01*
X-100126Y224762D01*
X-100141Y224731D01*
X-100172Y224566D01*
X-100336Y222368D01*
X-100333Y222333D01*
X-100338Y222299D01*
X-100322Y222211D01*
X-100315Y222123D01*
X-100301Y222091D01*
X-100295Y222057D01*
X-100260Y221985D01*
X-100403Y221358D01*
X-100405Y221325D01*
X-100420Y221245D01*
X-100468Y220607D01*
X-100508Y220548D01*
X-100566Y220480D01*
X-100578Y220447D01*
X-100598Y220419D01*
X-100653Y220260D01*
X-101143Y218111D01*
X-101145Y218077D01*
X-101155Y218044D01*
X-101153Y217955D01*
X-101158Y217866D01*
X-101149Y217832D01*
X-101148Y217798D01*
X-101124Y217722D01*
X-101359Y217123D01*
X-101366Y217090D01*
X-101393Y217014D01*
X-101535Y216390D01*
X-101584Y216338D01*
X-101651Y216279D01*
X-101668Y216249D01*
X-101692Y216223D01*
X-101770Y216075D01*
X-102575Y214023D01*
X-102582Y213989D01*
X-102597Y213958D01*
X-102608Y213869D01*
X-102627Y213782D01*
X-102623Y213748D01*
X-102627Y213714D01*
X-102615Y213635D01*
X-102936Y213077D01*
X-102948Y213047D01*
X-102986Y212975D01*
X-103220Y212379D01*
X-103276Y212335D01*
X-103351Y212286D01*
X-103372Y212259D01*
X-103400Y212238D01*
X-103499Y212103D01*
X-104600Y210193D01*
X-104613Y210161D01*
X-104632Y210132D01*
X-104656Y210046D01*
X-104687Y209963D01*
X-104689Y209929D01*
X-104698Y209895D01*
X-104698Y209816D01*
X-105099Y209312D01*
X-105115Y209284D01*
X-105163Y209218D01*
X-105483Y208664D01*
X-105545Y208628D01*
X-105626Y208592D01*
X-105652Y208568D01*
X-105682Y208551D01*
X-105800Y208432D01*
X-107174Y206709D01*
X-107191Y206678D01*
X-107214Y206653D01*
X-107251Y206571D01*
X-107294Y206494D01*
X-107301Y206460D01*
X-107315Y206428D01*
X-107326Y206350D01*
X-107798Y205912D01*
X-107818Y205886D01*
X-107875Y205828D01*
X-108275Y205327D01*
X-108342Y205302D01*
X-108427Y205278D01*
X-108456Y205258D01*
X-108488Y205246D01*
X-108623Y205146D01*
X-110238Y203646D01*
X-110260Y203619D01*
X-110287Y203597D01*
X-110334Y203522D01*
X-110389Y203452D01*
X-110401Y203419D01*
X-110419Y203390D01*
X-110442Y203314D01*
X-110974Y202951D01*
X-110998Y202929D01*
X-111063Y202880D01*
X-111532Y202445D01*
X-111602Y202429D01*
X-111691Y202418D01*
X-111722Y202403D01*
X-111756Y202396D01*
X-111904Y202317D01*
X-113725Y201075D01*
X-113750Y201051D01*
X-113780Y201033D01*
X-113838Y200967D01*
X-113903Y200905D01*
X-113919Y200875D01*
X-113942Y200848D01*
X-113976Y200777D01*
X-114556Y200497D01*
X-114583Y200479D01*
X-114654Y200440D01*
X-115183Y200080D01*
X-115255Y200075D01*
X-115344Y200077D01*
X-115377Y200067D01*
X-115412Y200064D01*
X-115570Y200009D01*
X-117555Y199052D01*
X-117584Y199032D01*
X-117616Y199019D01*
X-117684Y198962D01*
X-117757Y198911D01*
X-117777Y198883D01*
X-117804Y198860D01*
X-117848Y198795D01*
X-118463Y198605D01*
X-118493Y198590D01*
X-118569Y198563D01*
X-119146Y198285D01*
X-119218Y198291D01*
X-119305Y198306D01*
X-119339Y198301D01*
X-119374Y198304D01*
X-119539Y198273D01*
X-121450Y197682D01*
X-121523Y197646D01*
X-121599Y197618D01*
X-121632Y197592D01*
X-121671Y197573D01*
X-121728Y197515D01*
X-121791Y197465D01*
X-121814Y197429D01*
X-121844Y197399D01*
X-121880Y197326D01*
X-121924Y197258D01*
X-121935Y197216D01*
X-121954Y197178D01*
X-121964Y197098D01*
X-121984Y197019D01*
X-121981Y196977D01*
X-121987Y196934D01*
X-121971Y196855D01*
X-121965Y196774D01*
X-121949Y196735D01*
X-121940Y196693D01*
X-121901Y196622D01*
X-121869Y196548D01*
X-121834Y196504D01*
X-121820Y196479D01*
X-121798Y196460D01*
X-121764Y196417D01*
X-120423Y195076D01*
X-120423Y190680D01*
X-123532Y187571D01*
X-127928Y187571D01*
X-131037Y190680D01*
X-131037Y195076D01*
X-130763Y195349D01*
X-130754Y195362D01*
X-130742Y195371D01*
X-130683Y195461D01*
X-130620Y195549D01*
X-130615Y195563D01*
X-130607Y195576D01*
X-130579Y195681D01*
X-130547Y195784D01*
X-130548Y195799D01*
X-130544Y195814D01*
X-130551Y195922D01*
X-130554Y196030D01*
X-130559Y196044D01*
X-130560Y196059D01*
X-130601Y196159D01*
X-130638Y196261D01*
X-130647Y196273D01*
X-130653Y196287D01*
X-130724Y196368D01*
X-130792Y196453D01*
X-130804Y196461D01*
X-130814Y196473D01*
X-130907Y196527D01*
X-130999Y196586D01*
X-131013Y196590D01*
X-131026Y196597D01*
X-131188Y196640D01*
X-131243Y196649D01*
X-131276Y196648D01*
X-131356Y196657D01*
X-131997Y196657D01*
X-132059Y196693D01*
X-132131Y196745D01*
X-132164Y196755D01*
X-132194Y196773D01*
X-132356Y196816D01*
X-134536Y197144D01*
X-134570Y197143D01*
X-134604Y197151D01*
X-134692Y197142D01*
X-134781Y197141D01*
X-134814Y197129D01*
X-134849Y197126D01*
X-134923Y197096D01*
X-135538Y197286D01*
X-135570Y197290D01*
X-135649Y197311D01*
X-136282Y197406D01*
X-136338Y197452D01*
X-136401Y197514D01*
X-136432Y197529D01*
X-136459Y197551D01*
X-136613Y197617D01*
X-138720Y198266D01*
X-138754Y198271D01*
X-138786Y198284D01*
X-138875Y198288D01*
X-138963Y198300D01*
X-138997Y198293D01*
X-139032Y198295D01*
X-139109Y198277D01*
X-139689Y198556D01*
X-139721Y198566D01*
X-139795Y198598D01*
X-140407Y198786D01*
X-140456Y198839D01*
X-140509Y198910D01*
X-140538Y198930D01*
X-140561Y198955D01*
X-140704Y199044D01*
X-141216Y199291D01*
X-141325Y199323D01*
X-141435Y199358D01*
X-141444Y199358D01*
X-141452Y199360D01*
X-141567Y199356D01*
X-141681Y199354D01*
X-141689Y199351D01*
X-141698Y199351D01*
X-141805Y199310D01*
X-141913Y199272D01*
X-141920Y199267D01*
X-141928Y199264D01*
X-142017Y199191D01*
X-142106Y199121D01*
X-142113Y199112D01*
X-142118Y199108D01*
X-142131Y199088D01*
X-142206Y198986D01*
X-161017Y166403D01*
X-162654Y167533D01*
X-162681Y167544D01*
X-162703Y167563D01*
X-162772Y167583D01*
X-162837Y167611D01*
X-162866Y167611D01*
X-162894Y167619D01*
X-162965Y167611D01*
X-163036Y167612D01*
X-163063Y167600D01*
X-163092Y167597D01*
X-163154Y167562D01*
X-163219Y167534D01*
X-163240Y167514D01*
X-163265Y167499D01*
X-163328Y167422D01*
X-163358Y167392D01*
X-163362Y167382D01*
X-163371Y167371D01*
X-172871Y150871D01*
X-172895Y150798D01*
X-172926Y150728D01*
X-172926Y150704D01*
X-172934Y150682D01*
X-172928Y150606D01*
X-172929Y150529D01*
X-172919Y150505D01*
X-172918Y150484D01*
X-172897Y150445D01*
X-172878Y150393D01*
X-172877Y150387D01*
X-172875Y150385D01*
X-172871Y150373D01*
X-163371Y133873D01*
X-163352Y133851D01*
X-163339Y133825D01*
X-163286Y133777D01*
X-163239Y133724D01*
X-163213Y133711D01*
X-163192Y133692D01*
X-163124Y133669D01*
X-163060Y133638D01*
X-163031Y133637D01*
X-163004Y133627D01*
X-162932Y133632D01*
X-162861Y133629D01*
X-162834Y133639D01*
X-162805Y133641D01*
X-162715Y133683D01*
X-162675Y133698D01*
X-162667Y133705D01*
X-162654Y133711D01*
X-161017Y134841D01*
X-142206Y102258D01*
X-142133Y102169D01*
X-142063Y102080D01*
X-142056Y102075D01*
X-142050Y102068D01*
X-141953Y102007D01*
X-141858Y101944D01*
X-141849Y101942D01*
X-141842Y101937D01*
X-141730Y101910D01*
X-141620Y101881D01*
X-141611Y101882D01*
X-141603Y101880D01*
X-141489Y101890D01*
X-141375Y101897D01*
X-141365Y101901D01*
X-141358Y101902D01*
X-141336Y101911D01*
X-141216Y101953D01*
X-140704Y102200D01*
X-140675Y102220D01*
X-140643Y102232D01*
X-140575Y102290D01*
X-140502Y102341D01*
X-140482Y102369D01*
X-140455Y102391D01*
X-140410Y102457D01*
X-139795Y102646D01*
X-139766Y102661D01*
X-139689Y102688D01*
X-139112Y102965D01*
X-139041Y102959D01*
X-138953Y102944D01*
X-138919Y102949D01*
X-138885Y102946D01*
X-138720Y102978D01*
X-136613Y103627D01*
X-136582Y103642D01*
X-136548Y103650D01*
X-136473Y103696D01*
X-136393Y103736D01*
X-136368Y103761D01*
X-136339Y103779D01*
X-136285Y103837D01*
X-135649Y103933D01*
X-135617Y103943D01*
X-135538Y103958D01*
X-134926Y104147D01*
X-134856Y104130D01*
X-134772Y104102D01*
X-134737Y104102D01*
X-134703Y104094D01*
X-134536Y104100D01*
X-132356Y104428D01*
X-132323Y104439D01*
X-132288Y104441D01*
X-132206Y104476D01*
X-132122Y104503D01*
X-132094Y104524D01*
X-132062Y104538D01*
X-132000Y104587D01*
X-131356Y104587D01*
X-131324Y104592D01*
X-131243Y104595D01*
X-130610Y104691D01*
X-130543Y104664D01*
X-130464Y104623D01*
X-130430Y104618D01*
X-130397Y104605D01*
X-130231Y104587D01*
X-128027Y104586D01*
X-127992Y104591D01*
X-127958Y104589D01*
X-127872Y104611D01*
X-127784Y104625D01*
X-127753Y104642D01*
X-127720Y104650D01*
X-127651Y104690D01*
X-127015Y104594D01*
X-126982Y104594D01*
X-126901Y104585D01*
X-126261Y104585D01*
X-126199Y104549D01*
X-126127Y104497D01*
X-126094Y104487D01*
X-126064Y104469D01*
X-125902Y104426D01*
X-123722Y104097D01*
X-123687Y104097D01*
X-123654Y104089D01*
X-123565Y104099D01*
X-123476Y104100D01*
X-123444Y104111D01*
X-123409Y104115D01*
X-123335Y104144D01*
X-122720Y103954D01*
X-122688Y103949D01*
X-122609Y103929D01*
X-121976Y103833D01*
X-121921Y103788D01*
X-121857Y103726D01*
X-121826Y103711D01*
X-121799Y103689D01*
X-121645Y103622D01*
X-119539Y102971D01*
X-119504Y102967D01*
X-119472Y102954D01*
X-119383Y102950D01*
X-119295Y102938D01*
X-119261Y102944D01*
X-119226Y102943D01*
X-119149Y102960D01*
X-118569Y102681D01*
X-118538Y102672D01*
X-118463Y102639D01*
X-117851Y102450D01*
X-117803Y102397D01*
X-117749Y102326D01*
X-117721Y102307D01*
X-117697Y102281D01*
X-117555Y102192D01*
X-115570Y101235D01*
X-115537Y101225D01*
X-115506Y101208D01*
X-115419Y101191D01*
X-115334Y101166D01*
X-115299Y101167D01*
X-115265Y101160D01*
X-115186Y101166D01*
X-114654Y100804D01*
X-114624Y100790D01*
X-114556Y100747D01*
X-113979Y100469D01*
X-113939Y100409D01*
X-113897Y100331D01*
X-113871Y100307D01*
X-113852Y100278D01*
X-113725Y100169D01*
X-111904Y98927D01*
X-111872Y98912D01*
X-111845Y98891D01*
X-111762Y98861D01*
X-111681Y98823D01*
X-111646Y98819D01*
X-111614Y98807D01*
X-111535Y98802D01*
X-111063Y98364D01*
X-111036Y98345D01*
X-110974Y98293D01*
X-110445Y97932D01*
X-110415Y97867D01*
X-110384Y97783D01*
X-110363Y97756D01*
X-110348Y97725D01*
X-110238Y97598D01*
X-108623Y96098D01*
X-108594Y96079D01*
X-108570Y96054D01*
X-108492Y96011D01*
X-108418Y95962D01*
X-108385Y95953D01*
X-108354Y95937D01*
X-108277Y95919D01*
X-107875Y95416D01*
X-107851Y95393D01*
X-107798Y95332D01*
X-107329Y94897D01*
X-107308Y94828D01*
X-107291Y94741D01*
X-107273Y94711D01*
X-107263Y94677D01*
X-107174Y94535D01*
X-105800Y92812D01*
X-105775Y92789D01*
X-105755Y92760D01*
X-105684Y92706D01*
X-105618Y92647D01*
X-105586Y92633D01*
X-105558Y92612D01*
X-105484Y92583D01*
X-105163Y92026D01*
X-105142Y92000D01*
X-105099Y91932D01*
X-104700Y91431D01*
X-104690Y91360D01*
X-104685Y91271D01*
X-104673Y91239D01*
X-104668Y91204D01*
X-104600Y91051D01*
X-103499Y89141D01*
X-103477Y89115D01*
X-103462Y89083D01*
X-103399Y89020D01*
X-103343Y88951D01*
X-103314Y88933D01*
X-103290Y88908D01*
X-103221Y88868D01*
X-102986Y88269D01*
X-102969Y88241D01*
X-102936Y88167D01*
X-102616Y87612D01*
X-102617Y87540D01*
X-102626Y87452D01*
X-102618Y87418D01*
X-102619Y87383D01*
X-102575Y87221D01*
X-101770Y85169D01*
X-101753Y85139D01*
X-101742Y85106D01*
X-101690Y85034D01*
X-101645Y84958D01*
X-101618Y84935D01*
X-101598Y84907D01*
X-101536Y84858D01*
X-101393Y84230D01*
X-101381Y84199D01*
X-101359Y84121D01*
X-101126Y83525D01*
X-101128Y83520D01*
X-101131Y83491D01*
X-101137Y83454D01*
X-101159Y83368D01*
X-101156Y83334D01*
X-101162Y83299D01*
X-101143Y83133D01*
X-100914Y82127D01*
X-100892Y82073D01*
X-100879Y82016D01*
X-100846Y81960D01*
X-100821Y81899D01*
X-100783Y81855D01*
X-100753Y81805D01*
X-100703Y81762D01*
X-100660Y81713D01*
X-100611Y81683D01*
X-100566Y81645D01*
X-100505Y81621D01*
X-100449Y81587D01*
X-100392Y81575D01*
X-100338Y81553D01*
X-100239Y81542D01*
X-100208Y81536D01*
X-100194Y81537D01*
X-100171Y81535D01*
X-93925Y81535D01*
X-93835Y81549D01*
X-93744Y81557D01*
X-93715Y81569D01*
X-93683Y81574D01*
X-93602Y81617D01*
X-93518Y81653D01*
X-93486Y81679D01*
X-93465Y81690D01*
X-93443Y81713D01*
X-93387Y81758D01*
X-91098Y84047D01*
X-86702Y84047D01*
X-83593Y80938D01*
X-83593Y76542D01*
X-86702Y73433D01*
X-91098Y73433D01*
X-93387Y75722D01*
X-93461Y75775D01*
X-93531Y75835D01*
X-93561Y75847D01*
X-93587Y75866D01*
X-93674Y75893D01*
X-93759Y75927D01*
X-93800Y75931D01*
X-93822Y75938D01*
X-93854Y75937D01*
X-93925Y75945D01*
X-99297Y75945D01*
X-99345Y75937D01*
X-99393Y75939D01*
X-99466Y75918D01*
X-99540Y75906D01*
X-99583Y75883D01*
X-99629Y75869D01*
X-99691Y75826D01*
X-99757Y75790D01*
X-99791Y75755D01*
X-99830Y75728D01*
X-99875Y75667D01*
X-99927Y75612D01*
X-99947Y75568D01*
X-99976Y75529D01*
X-99999Y75457D01*
X-100030Y75389D01*
X-100036Y75341D01*
X-100050Y75295D01*
X-100055Y75167D01*
X-100057Y75145D01*
X-100056Y75138D01*
X-100056Y75127D01*
X-100041Y74917D01*
X-100072Y74853D01*
X-100119Y74777D01*
X-100127Y74743D01*
X-100142Y74712D01*
X-100173Y74547D01*
X-100338Y72349D01*
X-100335Y72315D01*
X-100340Y72280D01*
X-100325Y72193D01*
X-100317Y72104D01*
X-100303Y72072D01*
X-100297Y72038D01*
X-100262Y71967D01*
X-100406Y71339D01*
X-100408Y71306D01*
X-100423Y71227D01*
X-100471Y70588D01*
X-100512Y70530D01*
X-100569Y70461D01*
X-100582Y70429D01*
X-100601Y70401D01*
X-100657Y70242D01*
X-101148Y68093D01*
X-101150Y68059D01*
X-101160Y68026D01*
X-101157Y67937D01*
X-101163Y67848D01*
X-101154Y67814D01*
X-101153Y67780D01*
X-101130Y67704D01*
X-101365Y67105D01*
X-101372Y67073D01*
X-101398Y66996D01*
X-101541Y66372D01*
X-101590Y66320D01*
X-101657Y66261D01*
X-101674Y66231D01*
X-101698Y66206D01*
X-101776Y66057D01*
X-102582Y64006D01*
X-102590Y63972D01*
X-102605Y63941D01*
X-102615Y63852D01*
X-102634Y63765D01*
X-102630Y63731D01*
X-102634Y63696D01*
X-102623Y63618D01*
X-102945Y63061D01*
X-102956Y63030D01*
X-102994Y62958D01*
X-103228Y62362D01*
X-103285Y62318D01*
X-103359Y62270D01*
X-103381Y62243D01*
X-103408Y62221D01*
X-103508Y62086D01*
X-104610Y60178D01*
X-104623Y60145D01*
X-104642Y60116D01*
X-104666Y60031D01*
X-104697Y59948D01*
X-104699Y59913D01*
X-104708Y59879D01*
X-104708Y59800D01*
X-105109Y59297D01*
X-105125Y59268D01*
X-105173Y59203D01*
X-105494Y58649D01*
X-105556Y58613D01*
X-105637Y58577D01*
X-105663Y58553D01*
X-105693Y58536D01*
X-105811Y58417D01*
X-107186Y56694D01*
X-107203Y56664D01*
X-107227Y56639D01*
X-107263Y56558D01*
X-107306Y56480D01*
X-107313Y56446D01*
X-107327Y56414D01*
X-107339Y56336D01*
X-107811Y55898D01*
X-107831Y55872D01*
X-107888Y55815D01*
X-108288Y55314D01*
X-108354Y55289D01*
X-108440Y55265D01*
X-108469Y55245D01*
X-108501Y55233D01*
X-108636Y55133D01*
X-110252Y53634D01*
X-110274Y53607D01*
X-110301Y53585D01*
X-110349Y53510D01*
X-110403Y53440D01*
X-110415Y53407D01*
X-110433Y53378D01*
X-110457Y53302D01*
X-110989Y52940D01*
X-111013Y52917D01*
X-111078Y52869D01*
X-111547Y52433D01*
X-111617Y52418D01*
X-111705Y52407D01*
X-111737Y52392D01*
X-111771Y52385D01*
X-111919Y52306D01*
X-112374Y51996D01*
X-112457Y51917D01*
X-112542Y51840D01*
X-112546Y51832D01*
X-112552Y51826D01*
X-112606Y51725D01*
X-112661Y51625D01*
X-112663Y51616D01*
X-112667Y51609D01*
X-112685Y51496D01*
X-112706Y51383D01*
X-112705Y51375D01*
X-112707Y51366D01*
X-112688Y51253D01*
X-112672Y51140D01*
X-112668Y51130D01*
X-112667Y51123D01*
X-112656Y51103D01*
X-112641Y51068D01*
X-112640Y51063D01*
X-112635Y51056D01*
X-112605Y50986D01*
X-93794Y18405D01*
X-95552Y17573D01*
X-95574Y17556D01*
X-95601Y17546D01*
X-95653Y17497D01*
X-95711Y17454D01*
X-95725Y17429D01*
X-95746Y17410D01*
X-95775Y17344D01*
X-95811Y17282D01*
X-95814Y17254D01*
X-95826Y17228D01*
X-95827Y17156D01*
X-95836Y17085D01*
X-95828Y17058D01*
X-95829Y17029D01*
X-95793Y16934D01*
X-95782Y16894D01*
X-95775Y16885D01*
X-95771Y16873D01*
X-86271Y373D01*
X-86219Y315D01*
X-86173Y252D01*
X-86154Y241D01*
X-86139Y224D01*
X-86069Y190D01*
X-86002Y150D01*
X-85978Y146D01*
X-85960Y138D01*
X-85915Y136D01*
X-85838Y123D01*
X-66838Y123D01*
X-66810Y128D01*
G37*
G36*
X132703Y198189D02*
X132703Y198189D01*
X132746Y198188D01*
X136739Y198789D01*
X136769Y198800D01*
X136812Y198805D01*
X140671Y199994D01*
X140699Y200009D01*
X140740Y200021D01*
X144378Y201772D01*
X144400Y201789D01*
X144426Y201798D01*
X144479Y201848D01*
X144537Y201892D01*
X144550Y201916D01*
X144570Y201935D01*
X144600Y202001D01*
X144636Y202065D01*
X144639Y202092D01*
X144650Y202117D01*
X144651Y202190D01*
X144660Y202262D01*
X144652Y202288D01*
X144652Y202316D01*
X144616Y202414D01*
X144604Y202453D01*
X144598Y202461D01*
X144594Y202472D01*
X117594Y249272D01*
X117576Y249292D01*
X117565Y249317D01*
X117511Y249366D01*
X117463Y249421D01*
X117438Y249432D01*
X117418Y249451D01*
X117349Y249475D01*
X117283Y249506D01*
X117256Y249508D01*
X117231Y249517D01*
X117158Y249512D01*
X117085Y249515D01*
X117059Y249506D01*
X117032Y249504D01*
X116936Y249460D01*
X116898Y249446D01*
X116891Y249439D01*
X116881Y249435D01*
X113544Y247161D01*
X113522Y247138D01*
X113486Y247115D01*
X110525Y244369D01*
X110506Y244343D01*
X110474Y244315D01*
X107956Y241159D01*
X107941Y241130D01*
X107914Y241097D01*
X105894Y237601D01*
X105884Y237571D01*
X105861Y237534D01*
X104385Y233776D01*
X104380Y233744D01*
X104363Y233704D01*
X103463Y229768D01*
X103463Y229736D01*
X103452Y229694D01*
X103149Y225668D01*
X103152Y225645D01*
X103149Y225625D01*
X103151Y225615D01*
X103149Y225594D01*
X103450Y221567D01*
X103458Y221536D01*
X103461Y221493D01*
X104358Y217557D01*
X104371Y217528D01*
X104380Y217485D01*
X105854Y213726D01*
X105871Y213699D01*
X105886Y213659D01*
X107904Y210162D01*
X107925Y210138D01*
X107946Y210100D01*
X110462Y206942D01*
X110487Y206922D01*
X110513Y206888D01*
X113472Y204140D01*
X113499Y204124D01*
X113530Y204094D01*
X116866Y201818D01*
X116895Y201806D01*
X116930Y201781D01*
X120568Y200028D01*
X120598Y200020D01*
X120637Y200001D01*
X124495Y198809D01*
X124527Y198806D01*
X124568Y198793D01*
X128560Y198190D01*
X128592Y198191D01*
X128634Y198184D01*
X132672Y198183D01*
X132703Y198189D01*
G37*
G36*
X-127110Y198184D02*
X-127110Y198184D01*
X-127079Y198190D01*
X-127036Y198190D01*
X-123044Y198793D01*
X-123014Y198804D01*
X-122971Y198809D01*
X-119113Y200001D01*
X-119085Y200016D01*
X-119044Y200028D01*
X-115406Y201781D01*
X-115381Y201800D01*
X-115342Y201818D01*
X-112006Y204094D01*
X-111984Y204117D01*
X-111948Y204140D01*
X-108989Y206888D01*
X-108970Y206913D01*
X-108938Y206942D01*
X-106422Y210100D01*
X-106407Y210128D01*
X-106380Y210162D01*
X-104362Y213659D01*
X-104352Y213689D01*
X-104330Y213726D01*
X-102856Y217485D01*
X-102850Y217517D01*
X-102834Y217557D01*
X-101937Y221493D01*
X-101936Y221525D01*
X-101926Y221567D01*
X-101625Y225594D01*
X-101629Y225625D01*
X-101628Y225641D01*
X-101625Y225658D01*
X-101626Y225662D01*
X-101625Y225668D01*
X-101928Y229694D01*
X-101937Y229725D01*
X-101939Y229768D01*
X-102839Y233704D01*
X-102852Y233733D01*
X-102861Y233776D01*
X-104337Y237534D01*
X-104355Y237561D01*
X-104370Y237601D01*
X-106390Y241097D01*
X-106411Y241121D01*
X-106432Y241159D01*
X-108950Y244315D01*
X-108975Y244335D01*
X-109001Y244369D01*
X-111962Y247115D01*
X-111989Y247131D01*
X-112020Y247161D01*
X-115357Y249435D01*
X-115382Y249445D01*
X-115403Y249462D01*
X-115473Y249483D01*
X-115540Y249512D01*
X-115568Y249512D01*
X-115594Y249519D01*
X-115666Y249511D01*
X-115739Y249511D01*
X-115764Y249500D01*
X-115791Y249497D01*
X-115855Y249461D01*
X-115922Y249433D01*
X-115941Y249413D01*
X-115964Y249400D01*
X-116032Y249319D01*
X-116060Y249289D01*
X-116063Y249280D01*
X-116070Y249272D01*
X-143070Y202472D01*
X-143079Y202446D01*
X-143095Y202423D01*
X-143110Y202352D01*
X-143134Y202283D01*
X-143131Y202256D01*
X-143137Y202229D01*
X-143124Y202158D01*
X-143118Y202085D01*
X-143105Y202060D01*
X-143100Y202034D01*
X-143060Y201973D01*
X-143026Y201908D01*
X-143005Y201891D01*
X-142990Y201868D01*
X-142904Y201807D01*
X-142873Y201782D01*
X-142864Y201779D01*
X-142854Y201772D01*
X-139216Y200021D01*
X-139185Y200014D01*
X-139147Y199994D01*
X-135288Y198805D01*
X-135256Y198802D01*
X-135215Y198789D01*
X-131222Y198188D01*
X-131191Y198190D01*
X-131148Y198183D01*
X-127110Y198184D01*
G37*
G36*
X117190Y51733D02*
X117190Y51733D01*
X117263Y51733D01*
X117288Y51744D01*
X117315Y51747D01*
X117379Y51783D01*
X117446Y51811D01*
X117465Y51831D01*
X117488Y51844D01*
X117556Y51925D01*
X117584Y51955D01*
X117587Y51964D01*
X117594Y51973D01*
X144594Y98773D01*
X144603Y98798D01*
X144619Y98821D01*
X144634Y98892D01*
X144658Y98961D01*
X144655Y98988D01*
X144661Y99015D01*
X144648Y99086D01*
X144642Y99159D01*
X144629Y99184D01*
X144624Y99210D01*
X144584Y99271D01*
X144550Y99336D01*
X144529Y99353D01*
X144514Y99376D01*
X144428Y99437D01*
X144397Y99462D01*
X144388Y99465D01*
X144378Y99472D01*
X140740Y101223D01*
X140709Y101230D01*
X140671Y101250D01*
X136812Y102439D01*
X136780Y102442D01*
X136739Y102455D01*
X132746Y103056D01*
X132715Y103054D01*
X132672Y103061D01*
X128634Y103060D01*
X128603Y103054D01*
X128560Y103054D01*
X124568Y102451D01*
X124538Y102440D01*
X124495Y102435D01*
X120637Y101243D01*
X120609Y101228D01*
X120568Y101216D01*
X116930Y99463D01*
X116905Y99444D01*
X116866Y99426D01*
X113530Y97150D01*
X113508Y97127D01*
X113472Y97104D01*
X110513Y94356D01*
X110494Y94331D01*
X110462Y94302D01*
X107946Y91144D01*
X107931Y91116D01*
X107904Y91082D01*
X105886Y87585D01*
X105876Y87555D01*
X105854Y87518D01*
X104380Y83759D01*
X104374Y83727D01*
X104358Y83687D01*
X103461Y79751D01*
X103460Y79719D01*
X103450Y79677D01*
X103149Y75651D01*
X103153Y75619D01*
X103149Y75576D01*
X103452Y71550D01*
X103461Y71519D01*
X103463Y71476D01*
X104363Y67540D01*
X104376Y67511D01*
X104385Y67468D01*
X105861Y63710D01*
X105879Y63683D01*
X105894Y63643D01*
X107914Y60147D01*
X107935Y60123D01*
X107956Y60085D01*
X110474Y56929D01*
X110499Y56909D01*
X110525Y56875D01*
X113486Y54129D01*
X113513Y54113D01*
X113544Y54083D01*
X116881Y51809D01*
X116906Y51799D01*
X116927Y51782D01*
X116997Y51761D01*
X117064Y51732D01*
X117092Y51733D01*
X117118Y51725D01*
X117190Y51733D01*
G37*
G36*
X-115634Y51732D02*
X-115634Y51732D01*
X-115561Y51729D01*
X-115535Y51738D01*
X-115508Y51740D01*
X-115412Y51784D01*
X-115374Y51798D01*
X-115367Y51805D01*
X-115357Y51809D01*
X-112020Y54083D01*
X-111998Y54106D01*
X-111962Y54129D01*
X-109001Y56875D01*
X-108982Y56901D01*
X-108950Y56929D01*
X-106432Y60085D01*
X-106417Y60114D01*
X-106390Y60147D01*
X-104370Y63643D01*
X-104360Y63673D01*
X-104337Y63710D01*
X-102861Y67468D01*
X-102856Y67500D01*
X-102839Y67540D01*
X-101939Y71476D01*
X-101939Y71508D01*
X-101928Y71550D01*
X-101625Y75576D01*
X-101629Y75607D01*
X-101625Y75651D01*
X-101926Y79677D01*
X-101934Y79708D01*
X-101937Y79751D01*
X-102834Y83687D01*
X-102847Y83716D01*
X-102856Y83759D01*
X-104330Y87518D01*
X-104347Y87545D01*
X-104362Y87585D01*
X-106380Y91082D01*
X-106401Y91106D01*
X-106422Y91144D01*
X-108938Y94302D01*
X-108963Y94322D01*
X-108989Y94356D01*
X-111948Y97104D01*
X-111975Y97120D01*
X-112006Y97150D01*
X-115342Y99426D01*
X-115371Y99438D01*
X-115406Y99463D01*
X-119044Y101216D01*
X-119074Y101224D01*
X-119113Y101243D01*
X-122971Y102435D01*
X-123003Y102438D01*
X-123044Y102451D01*
X-127036Y103054D01*
X-127068Y103053D01*
X-127110Y103060D01*
X-131148Y103061D01*
X-131179Y103055D01*
X-131222Y103056D01*
X-135215Y102455D01*
X-135245Y102444D01*
X-135288Y102439D01*
X-139147Y101250D01*
X-139175Y101235D01*
X-139216Y101223D01*
X-142854Y99472D01*
X-142876Y99455D01*
X-142902Y99446D01*
X-142955Y99396D01*
X-143013Y99352D01*
X-143026Y99328D01*
X-143046Y99309D01*
X-143076Y99243D01*
X-143112Y99179D01*
X-143115Y99152D01*
X-143126Y99127D01*
X-143127Y99054D01*
X-143136Y98982D01*
X-143128Y98956D01*
X-143128Y98928D01*
X-143092Y98830D01*
X-143080Y98791D01*
X-143074Y98783D01*
X-143070Y98773D01*
X-116070Y51973D01*
X-116052Y51952D01*
X-116041Y51927D01*
X-115987Y51878D01*
X-115939Y51824D01*
X-115914Y51812D01*
X-115894Y51793D01*
X-115825Y51769D01*
X-115759Y51738D01*
X-115732Y51737D01*
X-115707Y51727D01*
X-115634Y51732D01*
G37*
G36*
X27789Y128D02*
X27789Y128D01*
X27816Y126D01*
X27885Y148D01*
X27957Y162D01*
X27979Y178D01*
X28005Y186D01*
X28061Y234D01*
X28121Y275D01*
X28135Y298D01*
X28156Y316D01*
X28189Y381D01*
X28228Y442D01*
X28232Y469D01*
X28244Y494D01*
X28254Y598D01*
X28261Y639D01*
X28259Y648D01*
X28260Y659D01*
X27958Y4683D01*
X27950Y4714D01*
X27947Y4757D01*
X27049Y8691D01*
X27036Y8720D01*
X27027Y8763D01*
X25553Y12519D01*
X25536Y12546D01*
X25521Y12587D01*
X23503Y16081D01*
X23482Y16105D01*
X23461Y16143D01*
X20945Y19298D01*
X20920Y19318D01*
X20894Y19353D01*
X17936Y22097D01*
X17909Y22114D01*
X17877Y22144D01*
X14543Y24417D01*
X14514Y24430D01*
X14479Y24455D01*
X10843Y26205D01*
X10812Y26213D01*
X10773Y26233D01*
X6917Y27422D01*
X6886Y27425D01*
X6844Y27439D01*
X2854Y28040D01*
X2822Y28039D01*
X2780Y28046D01*
X-1256Y28046D01*
X-1287Y28039D01*
X-1330Y28040D01*
X-5320Y27439D01*
X-5350Y27428D01*
X-5393Y27422D01*
X-9249Y26233D01*
X-9277Y26217D01*
X-9319Y26205D01*
X-12955Y24455D01*
X-12980Y24435D01*
X-13019Y24417D01*
X-16353Y22144D01*
X-16376Y22121D01*
X-16412Y22097D01*
X-19370Y19353D01*
X-19389Y19327D01*
X-19421Y19298D01*
X-21937Y16143D01*
X-21951Y16115D01*
X-21979Y16081D01*
X-23997Y12587D01*
X-24007Y12556D01*
X-24029Y12519D01*
X-25503Y8763D01*
X-25509Y8731D01*
X-25525Y8691D01*
X-26423Y4757D01*
X-26424Y4725D01*
X-26434Y4683D01*
X-26736Y659D01*
X-26732Y632D01*
X-26737Y605D01*
X-26720Y535D01*
X-26711Y462D01*
X-26697Y438D01*
X-26691Y412D01*
X-26648Y353D01*
X-26611Y290D01*
X-26589Y274D01*
X-26573Y252D01*
X-26510Y215D01*
X-26452Y171D01*
X-26425Y164D01*
X-26402Y150D01*
X-26298Y133D01*
X-26259Y123D01*
X-26249Y125D01*
X-26238Y123D01*
X27762Y123D01*
X27789Y128D01*
G37*
%LPC*%
G36*
X-58702Y183315D02*
X-58702Y183315D01*
X-59595Y184208D01*
X-59595Y197472D01*
X-58702Y198365D01*
X-55626Y198365D01*
X-55606Y198368D01*
X-55587Y198366D01*
X-55485Y198388D01*
X-55383Y198404D01*
X-55366Y198414D01*
X-55346Y198418D01*
X-55257Y198471D01*
X-55166Y198520D01*
X-55152Y198534D01*
X-55135Y198544D01*
X-55068Y198623D01*
X-54996Y198698D01*
X-54988Y198716D01*
X-54975Y198731D01*
X-54936Y198827D01*
X-54893Y198921D01*
X-54891Y198941D01*
X-54883Y198959D01*
X-54865Y199126D01*
X-54865Y228488D01*
X-53228Y230125D01*
X-35505Y230125D01*
X-35415Y230139D01*
X-35324Y230147D01*
X-35295Y230159D01*
X-35263Y230164D01*
X-35182Y230207D01*
X-35098Y230243D01*
X-35066Y230269D01*
X-35045Y230280D01*
X-35023Y230303D01*
X-34967Y230348D01*
X-32678Y232637D01*
X-28282Y232637D01*
X-25173Y229528D01*
X-25173Y225132D01*
X-28282Y222023D01*
X-32678Y222023D01*
X-34967Y224312D01*
X-35041Y224365D01*
X-35111Y224425D01*
X-35141Y224437D01*
X-35167Y224456D01*
X-35254Y224483D01*
X-35339Y224517D01*
X-35380Y224521D01*
X-35402Y224528D01*
X-35434Y224527D01*
X-35505Y224535D01*
X-48514Y224535D01*
X-48534Y224532D01*
X-48553Y224534D01*
X-48655Y224512D01*
X-48757Y224496D01*
X-48774Y224486D01*
X-48794Y224482D01*
X-48883Y224429D01*
X-48974Y224380D01*
X-48988Y224366D01*
X-49005Y224356D01*
X-49072Y224277D01*
X-49144Y224202D01*
X-49152Y224184D01*
X-49165Y224169D01*
X-49204Y224073D01*
X-49247Y223979D01*
X-49249Y223959D01*
X-49257Y223941D01*
X-49275Y223774D01*
X-49275Y199126D01*
X-49272Y199106D01*
X-49274Y199087D01*
X-49252Y198985D01*
X-49236Y198883D01*
X-49226Y198866D01*
X-49222Y198846D01*
X-49169Y198757D01*
X-49120Y198666D01*
X-49106Y198652D01*
X-49096Y198635D01*
X-49017Y198568D01*
X-48942Y198496D01*
X-48924Y198488D01*
X-48909Y198475D01*
X-48813Y198436D01*
X-48719Y198393D01*
X-48699Y198391D01*
X-48681Y198383D01*
X-48514Y198365D01*
X-45290Y198365D01*
X-45288Y198364D01*
X-45189Y198334D01*
X-45169Y198334D01*
X-45149Y198329D01*
X-45047Y198337D01*
X-44943Y198340D01*
X-44924Y198347D01*
X-44904Y198348D01*
X-44866Y198365D01*
X-34843Y198365D01*
X-34753Y198379D01*
X-34662Y198387D01*
X-34632Y198399D01*
X-34600Y198404D01*
X-34520Y198447D01*
X-34436Y198483D01*
X-34404Y198509D01*
X-34383Y198520D01*
X-34361Y198543D01*
X-34305Y198588D01*
X-30368Y202525D01*
X-22465Y202525D01*
X-22375Y202539D01*
X-22284Y202547D01*
X-22255Y202559D01*
X-22223Y202564D01*
X-22142Y202607D01*
X-22058Y202643D01*
X-22026Y202669D01*
X-22005Y202680D01*
X-21983Y202703D01*
X-21927Y202748D01*
X-19978Y204697D01*
X-15582Y204697D01*
X-12473Y201588D01*
X-12473Y197192D01*
X-15582Y194083D01*
X-19978Y194083D01*
X-22607Y196712D01*
X-22681Y196765D01*
X-22751Y196825D01*
X-22781Y196837D01*
X-22807Y196856D01*
X-22894Y196883D01*
X-22979Y196917D01*
X-23020Y196921D01*
X-23042Y196928D01*
X-23074Y196927D01*
X-23145Y196935D01*
X-27737Y196935D01*
X-27827Y196921D01*
X-27918Y196913D01*
X-27948Y196901D01*
X-27980Y196896D01*
X-28060Y196853D01*
X-28144Y196817D01*
X-28176Y196791D01*
X-28197Y196780D01*
X-28219Y196757D01*
X-28275Y196712D01*
X-30352Y194635D01*
X-30405Y194561D01*
X-30465Y194492D01*
X-30477Y194462D01*
X-30496Y194436D01*
X-30523Y194349D01*
X-30557Y194264D01*
X-30561Y194223D01*
X-30568Y194201D01*
X-30567Y194168D01*
X-30575Y194097D01*
X-30575Y184208D01*
X-31468Y183315D01*
X-44880Y183315D01*
X-44883Y183316D01*
X-44982Y183346D01*
X-45002Y183346D01*
X-45021Y183351D01*
X-45124Y183343D01*
X-45227Y183340D01*
X-45246Y183333D01*
X-45266Y183331D01*
X-45304Y183315D01*
X-58702Y183315D01*
G37*
%LPD*%
%LPC*%
G36*
X7838Y75145D02*
X7838Y75145D01*
X6945Y76038D01*
X6945Y77844D01*
X6942Y77864D01*
X6944Y77883D01*
X6922Y77985D01*
X6906Y78087D01*
X6896Y78104D01*
X6892Y78124D01*
X6839Y78213D01*
X6790Y78304D01*
X6776Y78318D01*
X6766Y78335D01*
X6687Y78402D01*
X6612Y78474D01*
X6594Y78482D01*
X6579Y78495D01*
X6483Y78534D01*
X6389Y78577D01*
X6369Y78579D01*
X6351Y78587D01*
X6184Y78605D01*
X3746Y78605D01*
X3726Y78602D01*
X3707Y78604D01*
X3605Y78582D01*
X3503Y78566D01*
X3486Y78556D01*
X3466Y78552D01*
X3377Y78499D01*
X3286Y78450D01*
X3272Y78436D01*
X3255Y78426D01*
X3188Y78347D01*
X3116Y78272D01*
X3108Y78254D01*
X3095Y78239D01*
X3056Y78143D01*
X3013Y78049D01*
X3011Y78029D01*
X3003Y78011D01*
X2985Y77844D01*
X2985Y76768D01*
X2092Y75875D01*
X-7172Y75875D01*
X-8065Y76768D01*
X-8065Y86032D01*
X-7172Y86925D01*
X2092Y86925D01*
X2985Y86032D01*
X2985Y84956D01*
X2988Y84936D01*
X2986Y84917D01*
X3008Y84815D01*
X3024Y84713D01*
X3034Y84696D01*
X3038Y84676D01*
X3091Y84587D01*
X3140Y84496D01*
X3154Y84482D01*
X3164Y84465D01*
X3243Y84398D01*
X3318Y84326D01*
X3336Y84318D01*
X3351Y84305D01*
X3447Y84266D01*
X3541Y84223D01*
X3561Y84221D01*
X3579Y84213D01*
X3746Y84195D01*
X6184Y84195D01*
X6204Y84198D01*
X6223Y84196D01*
X6325Y84218D01*
X6427Y84234D01*
X6444Y84244D01*
X6464Y84248D01*
X6553Y84301D01*
X6644Y84350D01*
X6658Y84364D01*
X6675Y84374D01*
X6742Y84453D01*
X6814Y84528D01*
X6822Y84546D01*
X6835Y84561D01*
X6874Y84657D01*
X6917Y84751D01*
X6919Y84771D01*
X6927Y84789D01*
X6945Y84956D01*
X6945Y87302D01*
X7838Y88195D01*
X20102Y88195D01*
X20995Y87302D01*
X20995Y76038D01*
X20102Y75145D01*
X7838Y75145D01*
G37*
%LPD*%
%LPC*%
G36*
X44472Y65785D02*
X44472Y65785D01*
X39115Y71142D01*
X39115Y78718D01*
X44472Y84075D01*
X52048Y84075D01*
X57405Y78718D01*
X57405Y71142D01*
X52048Y65785D01*
X44472Y65785D01*
G37*
%LPD*%
%LPC*%
G36*
X-97069Y177545D02*
X-97069Y177545D01*
X-100430Y178937D01*
X-103003Y181510D01*
X-104395Y184871D01*
X-104395Y188509D01*
X-103003Y191870D01*
X-100430Y194443D01*
X-97069Y195835D01*
X-93431Y195835D01*
X-90070Y194443D01*
X-87497Y191870D01*
X-86105Y188509D01*
X-86105Y184871D01*
X-87497Y181510D01*
X-90070Y178937D01*
X-93431Y177545D01*
X-97069Y177545D01*
G37*
%LPD*%
%LPC*%
G36*
X-97069Y152145D02*
X-97069Y152145D01*
X-100430Y153537D01*
X-103003Y156110D01*
X-104395Y159471D01*
X-104395Y163109D01*
X-103003Y166470D01*
X-100430Y169043D01*
X-97069Y170435D01*
X-93431Y170435D01*
X-90070Y169043D01*
X-87497Y166470D01*
X-86105Y163109D01*
X-86105Y159471D01*
X-87497Y156110D01*
X-90070Y153537D01*
X-93431Y152145D01*
X-97069Y152145D01*
G37*
%LPD*%
%LPC*%
G36*
X-97069Y126745D02*
X-97069Y126745D01*
X-100430Y128137D01*
X-103003Y130710D01*
X-104395Y134071D01*
X-104395Y137709D01*
X-103003Y141070D01*
X-100430Y143643D01*
X-97069Y145035D01*
X-93431Y145035D01*
X-90070Y143643D01*
X-87497Y141070D01*
X-86105Y137709D01*
X-86105Y134071D01*
X-87497Y130710D01*
X-90070Y128137D01*
X-93431Y126745D01*
X-97069Y126745D01*
G37*
%LPD*%
D10*
X83362Y293722D03*
X165962Y150622D03*
X83362Y7522D03*
X-81838Y7522D03*
X-164438Y150622D03*
X-81838Y293722D03*
X124662Y222122D03*
X124662Y79122D03*
X762Y7522D03*
X-123138Y79122D03*
X-123138Y222122D03*
D11*
X24130Y184760D03*
X24130Y165760D03*
D12*
X3810Y183760D03*
X3810Y166760D03*
D13*
X-22860Y260350D03*
D14*
X27940Y260350D03*
D15*
X45393Y134858D02*
X45393Y116632D01*
X40967Y116632D01*
X40967Y134858D01*
X45393Y134858D01*
X45393Y118033D02*
X40967Y118033D01*
X40967Y119434D02*
X45393Y119434D01*
X45393Y120835D02*
X40967Y120835D01*
X40967Y122236D02*
X45393Y122236D01*
X45393Y123637D02*
X40967Y123637D01*
X40967Y125038D02*
X45393Y125038D01*
X45393Y126439D02*
X40967Y126439D01*
X40967Y127840D02*
X45393Y127840D01*
X45393Y129241D02*
X40967Y129241D01*
X40967Y130642D02*
X45393Y130642D01*
X45393Y132043D02*
X40967Y132043D01*
X40967Y133444D02*
X45393Y133444D01*
X45393Y134845D02*
X40967Y134845D01*
X58093Y134858D02*
X58093Y116632D01*
X53667Y116632D01*
X53667Y134858D01*
X58093Y134858D01*
X58093Y118033D02*
X53667Y118033D01*
X53667Y119434D02*
X58093Y119434D01*
X58093Y120835D02*
X53667Y120835D01*
X53667Y122236D02*
X58093Y122236D01*
X58093Y123637D02*
X53667Y123637D01*
X53667Y125038D02*
X58093Y125038D01*
X58093Y126439D02*
X53667Y126439D01*
X53667Y127840D02*
X58093Y127840D01*
X58093Y129241D02*
X53667Y129241D01*
X53667Y130642D02*
X58093Y130642D01*
X58093Y132043D02*
X53667Y132043D01*
X53667Y133444D02*
X58093Y133444D01*
X58093Y134845D02*
X53667Y134845D01*
X70793Y134858D02*
X70793Y116632D01*
X66367Y116632D01*
X66367Y134858D01*
X70793Y134858D01*
X70793Y118033D02*
X66367Y118033D01*
X66367Y119434D02*
X70793Y119434D01*
X70793Y120835D02*
X66367Y120835D01*
X66367Y122236D02*
X70793Y122236D01*
X70793Y123637D02*
X66367Y123637D01*
X66367Y125038D02*
X70793Y125038D01*
X70793Y126439D02*
X66367Y126439D01*
X66367Y127840D02*
X70793Y127840D01*
X70793Y129241D02*
X66367Y129241D01*
X66367Y130642D02*
X70793Y130642D01*
X70793Y132043D02*
X66367Y132043D01*
X66367Y133444D02*
X70793Y133444D01*
X70793Y134845D02*
X66367Y134845D01*
X83493Y134858D02*
X83493Y116632D01*
X79067Y116632D01*
X79067Y134858D01*
X83493Y134858D01*
X83493Y118033D02*
X79067Y118033D01*
X79067Y119434D02*
X83493Y119434D01*
X83493Y120835D02*
X79067Y120835D01*
X79067Y122236D02*
X83493Y122236D01*
X83493Y123637D02*
X79067Y123637D01*
X79067Y125038D02*
X83493Y125038D01*
X83493Y126439D02*
X79067Y126439D01*
X79067Y127840D02*
X83493Y127840D01*
X83493Y129241D02*
X79067Y129241D01*
X79067Y130642D02*
X83493Y130642D01*
X83493Y132043D02*
X79067Y132043D01*
X79067Y133444D02*
X83493Y133444D01*
X83493Y134845D02*
X79067Y134845D01*
X83493Y166132D02*
X83493Y184358D01*
X83493Y166132D02*
X79067Y166132D01*
X79067Y184358D01*
X83493Y184358D01*
X83493Y167533D02*
X79067Y167533D01*
X79067Y168934D02*
X83493Y168934D01*
X83493Y170335D02*
X79067Y170335D01*
X79067Y171736D02*
X83493Y171736D01*
X83493Y173137D02*
X79067Y173137D01*
X79067Y174538D02*
X83493Y174538D01*
X83493Y175939D02*
X79067Y175939D01*
X79067Y177340D02*
X83493Y177340D01*
X83493Y178741D02*
X79067Y178741D01*
X79067Y180142D02*
X83493Y180142D01*
X83493Y181543D02*
X79067Y181543D01*
X79067Y182944D02*
X83493Y182944D01*
X83493Y184345D02*
X79067Y184345D01*
X70793Y184358D02*
X70793Y166132D01*
X66367Y166132D01*
X66367Y184358D01*
X70793Y184358D01*
X70793Y167533D02*
X66367Y167533D01*
X66367Y168934D02*
X70793Y168934D01*
X70793Y170335D02*
X66367Y170335D01*
X66367Y171736D02*
X70793Y171736D01*
X70793Y173137D02*
X66367Y173137D01*
X66367Y174538D02*
X70793Y174538D01*
X70793Y175939D02*
X66367Y175939D01*
X66367Y177340D02*
X70793Y177340D01*
X70793Y178741D02*
X66367Y178741D01*
X66367Y180142D02*
X70793Y180142D01*
X70793Y181543D02*
X66367Y181543D01*
X66367Y182944D02*
X70793Y182944D01*
X70793Y184345D02*
X66367Y184345D01*
X58093Y184358D02*
X58093Y166132D01*
X53667Y166132D01*
X53667Y184358D01*
X58093Y184358D01*
X58093Y167533D02*
X53667Y167533D01*
X53667Y168934D02*
X58093Y168934D01*
X58093Y170335D02*
X53667Y170335D01*
X53667Y171736D02*
X58093Y171736D01*
X58093Y173137D02*
X53667Y173137D01*
X53667Y174538D02*
X58093Y174538D01*
X58093Y175939D02*
X53667Y175939D01*
X53667Y177340D02*
X58093Y177340D01*
X58093Y178741D02*
X53667Y178741D01*
X53667Y180142D02*
X58093Y180142D01*
X58093Y181543D02*
X53667Y181543D01*
X53667Y182944D02*
X58093Y182944D01*
X58093Y184345D02*
X53667Y184345D01*
X45393Y184358D02*
X45393Y166132D01*
X40967Y166132D01*
X40967Y184358D01*
X45393Y184358D01*
X45393Y167533D02*
X40967Y167533D01*
X40967Y168934D02*
X45393Y168934D01*
X45393Y170335D02*
X40967Y170335D01*
X40967Y171736D02*
X45393Y171736D01*
X45393Y173137D02*
X40967Y173137D01*
X40967Y174538D02*
X45393Y174538D01*
X45393Y175939D02*
X40967Y175939D01*
X40967Y177340D02*
X45393Y177340D01*
X45393Y178741D02*
X40967Y178741D01*
X40967Y180142D02*
X45393Y180142D01*
X45393Y181543D02*
X40967Y181543D01*
X40967Y182944D02*
X45393Y182944D01*
X45393Y184345D02*
X40967Y184345D01*
D16*
X70240Y198120D03*
X87240Y198120D03*
D12*
X86605Y238125D03*
X69605Y238125D03*
D16*
X-16510Y183760D03*
X-16510Y166760D03*
D17*
X-2540Y81400D03*
X-2540Y96400D03*
D18*
X48260Y74930D03*
D16*
X13970Y98670D03*
X13970Y81670D03*
D19*
X-95250Y186690D03*
X-95250Y161290D03*
X-95250Y135890D03*
D20*
X-52070Y169840D03*
X-52070Y190840D03*
X-38100Y169840D03*
X-38100Y190840D03*
D21*
X3810Y166760D02*
X23130Y166760D01*
D22*
X24130Y165760D01*
D21*
X3810Y166760D02*
X-5470Y166760D01*
D22*
X-5715Y167005D01*
D23*
X-5715Y167005D03*
D21*
X81280Y167640D02*
X81280Y175245D01*
X82550Y158283D02*
X71923Y158283D01*
X31607Y158283D01*
X24130Y165760D01*
X71923Y158283D02*
X81280Y167640D01*
X-5470Y166760D02*
X-16510Y166760D01*
D23*
X-17780Y220980D03*
D21*
X-5762Y176366D02*
X-5470Y176074D01*
X-5470Y166760D01*
X-5762Y208962D02*
X-17780Y220980D01*
X-5762Y208962D02*
X-5762Y176366D01*
D23*
X-66040Y119380D03*
D24*
X-137160Y119380D02*
X-151130Y133350D01*
D23*
X-151130Y133350D03*
D24*
X-137160Y119380D02*
X-66040Y119380D01*
X-63500Y119380D01*
D23*
X82550Y144394D03*
D24*
X82550Y158283D01*
X-2540Y96400D02*
X-40520Y96400D01*
X-63500Y119380D01*
D23*
X-65865Y66342D03*
D24*
X-66040Y66517D02*
X-66040Y119380D01*
X-66040Y66517D02*
X-65865Y66342D01*
X-52070Y169840D02*
X-38100Y169840D01*
X-52070Y169840D02*
X-58420Y169840D01*
X-66040Y162220D01*
X-66040Y119380D01*
D23*
X36830Y220980D03*
D24*
X36830Y185405D01*
X43180Y179055D01*
X78740Y12144D02*
X83362Y7522D01*
D23*
X100330Y111760D03*
X-39575Y138225D03*
D24*
X73660Y109220D02*
X81280Y116840D01*
X81280Y125745D01*
X73660Y109220D02*
X-10570Y109220D01*
X-39575Y138225D01*
X39370Y129555D02*
X43180Y125745D01*
X-21605Y129555D02*
X-41275Y149225D01*
X-42115Y148385D01*
D23*
X-42115Y148385D03*
D24*
X-21605Y129555D02*
X39370Y129555D01*
D25*
X25809Y22031D03*
D22*
X19018Y15240D01*
D24*
X5080Y15240D01*
D22*
X762Y10922D01*
X762Y7522D01*
D24*
X55880Y125745D02*
X68580Y125745D01*
X55880Y125745D02*
X55880Y134444D01*
X49395Y140929D01*
D23*
X-45720Y157480D03*
D24*
X-34290Y157480D02*
X-17739Y140929D01*
X-34290Y157480D02*
X-45720Y157480D01*
X-17739Y140929D02*
X49395Y140929D01*
X-16510Y183760D02*
X-26766Y173504D01*
X-26766Y165223D01*
X-34290Y157699D02*
X-34290Y157480D01*
X-34290Y157699D02*
X-26766Y165223D01*
D21*
X55782Y175343D02*
X55880Y175245D01*
X55782Y175343D02*
X55782Y225774D01*
X24474Y257082D01*
X27742Y260350D02*
X27940Y260350D01*
X27742Y260350D02*
X24474Y257082D01*
X68970Y196850D02*
X68970Y175635D01*
X68580Y175245D01*
X68970Y196850D02*
X70240Y198120D01*
X-2540Y280670D02*
X-22860Y260350D01*
X-2540Y280670D02*
X36844Y280670D01*
X70240Y237490D02*
X70240Y204470D01*
X70240Y237490D02*
X69605Y238125D01*
X69605Y247909D01*
X36844Y280670D01*
D24*
X70240Y204470D02*
X70240Y198120D01*
D21*
X87240Y198120D02*
X87240Y237490D01*
X86605Y238125D01*
X86605Y247015D01*
X68190Y265430D01*
D23*
X68190Y265430D03*
X-125730Y192878D03*
D24*
X-125730Y213180D01*
X-123138Y215772D01*
X-123138Y222122D01*
D22*
X124662Y80392D02*
X124662Y79122D01*
D23*
X31622Y101600D03*
D24*
X53212Y101600D02*
X70738Y84074D01*
X53212Y101600D02*
X31622Y101600D01*
X119710Y84074D02*
X124662Y79122D01*
X119710Y84074D02*
X70738Y84074D01*
D23*
X25400Y93980D03*
D24*
X49530Y93980D02*
X76200Y67310D01*
X49530Y93980D02*
X25400Y93980D01*
X76200Y67310D02*
X96582Y67310D01*
X97494Y68222D01*
D23*
X97494Y68222D03*
D24*
X124662Y222122D02*
X124662Y230065D01*
D23*
X102870Y250190D03*
D24*
X104537Y250190D01*
X124662Y230065D01*
X10042Y102598D02*
X13970Y98670D01*
D23*
X10042Y102598D03*
X-88900Y78740D03*
D24*
X-122756Y78740D01*
X-123138Y79122D01*
X13700Y81400D02*
X13970Y81670D01*
X13700Y81400D02*
X-2540Y81400D01*
D23*
X-17780Y199390D03*
D24*
X-18120Y199730D01*
X-29210Y199730D01*
X-38100Y190840D01*
D23*
X-30480Y227330D03*
D24*
X-52070Y227330D01*
X-52070Y190840D01*
M02*
