G04 EAGLE Gerber RS-274X export*
G75*
%MOMM*%
%FSLAX34Y34*%
%LPD*%
%INBottom Copper*%
%IPPOS*%
%AMOC8*
5,1,8,0,0,1.08239X$1,22.5*%
G01*
%ADD10C,1.000000*%
%ADD11R,2.500000X2.500000*%
%ADD12C,2.500000*%
%ADD13R,1.500000X1.300000*%
%ADD14R,1.000000X1.100000*%
%ADD15R,1.100000X1.000000*%
%ADD16R,0.800000X0.800000*%
%ADD17R,1.399997X0.400000*%
%ADD18R,0.550000X0.254000*%
%ADD19R,0.254000X0.550000*%
%ADD20R,5.600000X5.600000*%
%ADD21P,1.649562X8X202.500000*%
%ADD22C,1.524000*%
%ADD23R,0.500000X0.800000*%
%ADD24R,1.200000X1.200000*%
%ADD25C,0.756400*%
%ADD26C,0.254000*%
%ADD27C,0.656400*%
%ADD28C,0.355600*%
%ADD29C,0.304800*%
%ADD30C,0.177800*%

G36*
X-23923Y104435D02*
X-23923Y104435D01*
X-23832Y104443D01*
X-23802Y104455D01*
X-23770Y104460D01*
X-23689Y104503D01*
X-23605Y104539D01*
X-23573Y104565D01*
X-23553Y104576D01*
X-23530Y104599D01*
X-23474Y104644D01*
X-22651Y105467D01*
X-22598Y105541D01*
X-22538Y105611D01*
X-22526Y105641D01*
X-22507Y105667D01*
X-22480Y105754D01*
X-22446Y105839D01*
X-22442Y105880D01*
X-22435Y105902D01*
X-22436Y105934D01*
X-22428Y106006D01*
X-22428Y107214D01*
X-22431Y107234D01*
X-22429Y107253D01*
X-22451Y107355D01*
X-22467Y107457D01*
X-22477Y107474D01*
X-22481Y107494D01*
X-22534Y107583D01*
X-22583Y107674D01*
X-22597Y107688D01*
X-22607Y107705D01*
X-22686Y107772D01*
X-22761Y107844D01*
X-22779Y107852D01*
X-22794Y107865D01*
X-22890Y107904D01*
X-22984Y107947D01*
X-23004Y107949D01*
X-23022Y107957D01*
X-23189Y107975D01*
X-26869Y107975D01*
X-27762Y108868D01*
X-27762Y114987D01*
X-27765Y115007D01*
X-27763Y115026D01*
X-27785Y115128D01*
X-27801Y115230D01*
X-27811Y115247D01*
X-27815Y115267D01*
X-27868Y115356D01*
X-27917Y115447D01*
X-27931Y115461D01*
X-27941Y115478D01*
X-28020Y115545D01*
X-28095Y115617D01*
X-28113Y115625D01*
X-28128Y115638D01*
X-28224Y115677D01*
X-28318Y115720D01*
X-28338Y115722D01*
X-28356Y115730D01*
X-28523Y115748D01*
X-34642Y115748D01*
X-35535Y116641D01*
X-35535Y120445D01*
X-35474Y120505D01*
X-35462Y120521D01*
X-35447Y120534D01*
X-35391Y120621D01*
X-35331Y120705D01*
X-35325Y120724D01*
X-35314Y120741D01*
X-35289Y120841D01*
X-35258Y120940D01*
X-35259Y120960D01*
X-35254Y120979D01*
X-35262Y121082D01*
X-35265Y121186D01*
X-35271Y121205D01*
X-35273Y121224D01*
X-35313Y121320D01*
X-35349Y121417D01*
X-35361Y121433D01*
X-35369Y121451D01*
X-35474Y121582D01*
X-35535Y121642D01*
X-35535Y125446D01*
X-35474Y125507D01*
X-35462Y125523D01*
X-35446Y125535D01*
X-35390Y125622D01*
X-35330Y125706D01*
X-35324Y125725D01*
X-35313Y125742D01*
X-35288Y125843D01*
X-35258Y125941D01*
X-35258Y125961D01*
X-35253Y125981D01*
X-35261Y126084D01*
X-35264Y126187D01*
X-35271Y126206D01*
X-35272Y126226D01*
X-35313Y126321D01*
X-35348Y126418D01*
X-35361Y126434D01*
X-35369Y126452D01*
X-35474Y126583D01*
X-35535Y126644D01*
X-35535Y130448D01*
X-35474Y130508D01*
X-35462Y130524D01*
X-35447Y130537D01*
X-35391Y130624D01*
X-35331Y130708D01*
X-35325Y130727D01*
X-35314Y130744D01*
X-35289Y130844D01*
X-35258Y130943D01*
X-35259Y130963D01*
X-35254Y130982D01*
X-35262Y131085D01*
X-35265Y131189D01*
X-35271Y131208D01*
X-35273Y131227D01*
X-35313Y131323D01*
X-35349Y131420D01*
X-35361Y131436D01*
X-35369Y131454D01*
X-35474Y131585D01*
X-35535Y131645D01*
X-35535Y132923D01*
X-35546Y132993D01*
X-35548Y133065D01*
X-35566Y133114D01*
X-35574Y133165D01*
X-35608Y133229D01*
X-35633Y133296D01*
X-35665Y133337D01*
X-35690Y133383D01*
X-35742Y133432D01*
X-35786Y133488D01*
X-35830Y133516D01*
X-35868Y133552D01*
X-35933Y133582D01*
X-35993Y133621D01*
X-36044Y133634D01*
X-36091Y133656D01*
X-36162Y133664D01*
X-36232Y133681D01*
X-36284Y133677D01*
X-36335Y133683D01*
X-36406Y133668D01*
X-36477Y133662D01*
X-36525Y133642D01*
X-36576Y133631D01*
X-36637Y133594D01*
X-36703Y133566D01*
X-36759Y133521D01*
X-36787Y133504D01*
X-36802Y133487D01*
X-36834Y133461D01*
X-37377Y132918D01*
X-41773Y132918D01*
X-44882Y136027D01*
X-44882Y140423D01*
X-42256Y143049D01*
X-42214Y143107D01*
X-42165Y143159D01*
X-42143Y143206D01*
X-42113Y143249D01*
X-42091Y143317D01*
X-42061Y143382D01*
X-42055Y143434D01*
X-42040Y143484D01*
X-42042Y143555D01*
X-42034Y143627D01*
X-42045Y143677D01*
X-42047Y143729D01*
X-42071Y143797D01*
X-42086Y143867D01*
X-42113Y143912D01*
X-42131Y143961D01*
X-42176Y144017D01*
X-42213Y144078D01*
X-42252Y144112D01*
X-42285Y144153D01*
X-42345Y144191D01*
X-42399Y144238D01*
X-42448Y144257D01*
X-42492Y144286D01*
X-42561Y144303D01*
X-42628Y144330D01*
X-42699Y144338D01*
X-42730Y144346D01*
X-42753Y144344D01*
X-42794Y144348D01*
X-44313Y144348D01*
X-47422Y147457D01*
X-47422Y151853D01*
X-44591Y154684D01*
X-44549Y154742D01*
X-44500Y154794D01*
X-44478Y154841D01*
X-44448Y154883D01*
X-44426Y154952D01*
X-44396Y155017D01*
X-44391Y155069D01*
X-44375Y155119D01*
X-44377Y155190D01*
X-44369Y155261D01*
X-44380Y155312D01*
X-44382Y155364D01*
X-44406Y155432D01*
X-44421Y155502D01*
X-44448Y155547D01*
X-44466Y155595D01*
X-44511Y155651D01*
X-44548Y155713D01*
X-44587Y155747D01*
X-44620Y155787D01*
X-44680Y155826D01*
X-44735Y155873D01*
X-44783Y155892D01*
X-44827Y155920D01*
X-44896Y155938D01*
X-44963Y155965D01*
X-45034Y155973D01*
X-45065Y155981D01*
X-45088Y155979D01*
X-45129Y155983D01*
X-46648Y155983D01*
X-49757Y159092D01*
X-49757Y161544D01*
X-49760Y161564D01*
X-49758Y161583D01*
X-49780Y161685D01*
X-49796Y161787D01*
X-49806Y161804D01*
X-49810Y161824D01*
X-49863Y161913D01*
X-49912Y162004D01*
X-49926Y162018D01*
X-49936Y162035D01*
X-50015Y162102D01*
X-50090Y162174D01*
X-50108Y162182D01*
X-50123Y162195D01*
X-50219Y162234D01*
X-50313Y162277D01*
X-50333Y162279D01*
X-50351Y162287D01*
X-50518Y162305D01*
X-69647Y162305D01*
X-69737Y162291D01*
X-69828Y162283D01*
X-69858Y162271D01*
X-69890Y162266D01*
X-69970Y162223D01*
X-70054Y162187D01*
X-70086Y162161D01*
X-70107Y162150D01*
X-70129Y162127D01*
X-70185Y162082D01*
X-87539Y144728D01*
X-87551Y144712D01*
X-87566Y144700D01*
X-87597Y144652D01*
X-87605Y144643D01*
X-87612Y144629D01*
X-87623Y144612D01*
X-87683Y144529D01*
X-87689Y144510D01*
X-87699Y144493D01*
X-87725Y144392D01*
X-87755Y144294D01*
X-87755Y144274D01*
X-87759Y144254D01*
X-87751Y144151D01*
X-87749Y144048D01*
X-87742Y144029D01*
X-87740Y144009D01*
X-87700Y143914D01*
X-87664Y143817D01*
X-87652Y143801D01*
X-87644Y143783D01*
X-87539Y143652D01*
X-84957Y141070D01*
X-83565Y137709D01*
X-83565Y134071D01*
X-84957Y130710D01*
X-87530Y128137D01*
X-90891Y126745D01*
X-94529Y126745D01*
X-97890Y128137D01*
X-100463Y130710D01*
X-101855Y134071D01*
X-101855Y137709D01*
X-100463Y141070D01*
X-97890Y143643D01*
X-95708Y144546D01*
X-95652Y144581D01*
X-95592Y144607D01*
X-95527Y144658D01*
X-95499Y144676D01*
X-95486Y144691D01*
X-95461Y144711D01*
X-88708Y151464D01*
X-88651Y151543D01*
X-88589Y151618D01*
X-88580Y151643D01*
X-88565Y151664D01*
X-88536Y151757D01*
X-88501Y151848D01*
X-88500Y151874D01*
X-88492Y151899D01*
X-88495Y151996D01*
X-88491Y152094D01*
X-88498Y152119D01*
X-88499Y152145D01*
X-88532Y152236D01*
X-88559Y152330D01*
X-88574Y152351D01*
X-88583Y152376D01*
X-88644Y152452D01*
X-88699Y152532D01*
X-88720Y152548D01*
X-88737Y152568D01*
X-88819Y152621D01*
X-88897Y152679D01*
X-88922Y152687D01*
X-88944Y152701D01*
X-89038Y152725D01*
X-89131Y152755D01*
X-89157Y152755D01*
X-89182Y152761D01*
X-89279Y152754D01*
X-89377Y152753D01*
X-89408Y152743D01*
X-89427Y152742D01*
X-89458Y152729D01*
X-89538Y152706D01*
X-90891Y152145D01*
X-94529Y152145D01*
X-97890Y153537D01*
X-100463Y156110D01*
X-101855Y159471D01*
X-101855Y163109D01*
X-100463Y166470D01*
X-97890Y169043D01*
X-95975Y169836D01*
X-95875Y169898D01*
X-95775Y169957D01*
X-95771Y169962D01*
X-95766Y169965D01*
X-95691Y170056D01*
X-95615Y170144D01*
X-95613Y170150D01*
X-95609Y170155D01*
X-95567Y170263D01*
X-95523Y170372D01*
X-95522Y170380D01*
X-95521Y170385D01*
X-95520Y170403D01*
X-95505Y170539D01*
X-95505Y177441D01*
X-95524Y177555D01*
X-95541Y177672D01*
X-95543Y177677D01*
X-95544Y177684D01*
X-95599Y177786D01*
X-95652Y177891D01*
X-95657Y177895D01*
X-95660Y177901D01*
X-95744Y177981D01*
X-95828Y178063D01*
X-95834Y178067D01*
X-95838Y178070D01*
X-95855Y178078D01*
X-95975Y178144D01*
X-97890Y178937D01*
X-100463Y181510D01*
X-101855Y184871D01*
X-101855Y188509D01*
X-100463Y191870D01*
X-97890Y194443D01*
X-94529Y195835D01*
X-90891Y195835D01*
X-87530Y194443D01*
X-86215Y193128D01*
X-86141Y193075D01*
X-86072Y193015D01*
X-86042Y193003D01*
X-86015Y192984D01*
X-85928Y192957D01*
X-85844Y192923D01*
X-85803Y192919D01*
X-85780Y192912D01*
X-85748Y192913D01*
X-85677Y192905D01*
X-72502Y192905D01*
X-59945Y180348D01*
X-59871Y180295D01*
X-59802Y180235D01*
X-59772Y180223D01*
X-59746Y180204D01*
X-59659Y180177D01*
X-59574Y180143D01*
X-59533Y180139D01*
X-59511Y180132D01*
X-59478Y180133D01*
X-59407Y180125D01*
X-51018Y180125D01*
X-50125Y179232D01*
X-50125Y177156D01*
X-50122Y177136D01*
X-50124Y177117D01*
X-50102Y177015D01*
X-50086Y176913D01*
X-50076Y176896D01*
X-50072Y176876D01*
X-50019Y176787D01*
X-49970Y176696D01*
X-49956Y176682D01*
X-49946Y176665D01*
X-49867Y176598D01*
X-49792Y176526D01*
X-49774Y176518D01*
X-49759Y176505D01*
X-49663Y176466D01*
X-49569Y176423D01*
X-49549Y176421D01*
X-49531Y176413D01*
X-49364Y176395D01*
X-30015Y176395D01*
X-29954Y176370D01*
X-29913Y176366D01*
X-29891Y176359D01*
X-29859Y176360D01*
X-29787Y176352D01*
X-28523Y176352D01*
X-28503Y176355D01*
X-28484Y176353D01*
X-28382Y176375D01*
X-28280Y176391D01*
X-28263Y176401D01*
X-28243Y176405D01*
X-28154Y176458D01*
X-28063Y176507D01*
X-28049Y176521D01*
X-28032Y176531D01*
X-27965Y176610D01*
X-27893Y176685D01*
X-27885Y176703D01*
X-27872Y176718D01*
X-27833Y176814D01*
X-27790Y176908D01*
X-27788Y176928D01*
X-27780Y176946D01*
X-27762Y177113D01*
X-27762Y183232D01*
X-26869Y184125D01*
X-23065Y184125D01*
X-23005Y184064D01*
X-22989Y184052D01*
X-22976Y184037D01*
X-22889Y183981D01*
X-22805Y183921D01*
X-22786Y183915D01*
X-22769Y183904D01*
X-22669Y183879D01*
X-22570Y183848D01*
X-22550Y183849D01*
X-22531Y183844D01*
X-22428Y183852D01*
X-22324Y183855D01*
X-22305Y183861D01*
X-22286Y183863D01*
X-22190Y183903D01*
X-22093Y183939D01*
X-22077Y183951D01*
X-22059Y183959D01*
X-21928Y184064D01*
X-21868Y184125D01*
X-18064Y184125D01*
X-18003Y184064D01*
X-17987Y184052D01*
X-17975Y184036D01*
X-17888Y183980D01*
X-17804Y183920D01*
X-17785Y183914D01*
X-17768Y183903D01*
X-17667Y183878D01*
X-17569Y183848D01*
X-17549Y183848D01*
X-17529Y183843D01*
X-17426Y183851D01*
X-17323Y183854D01*
X-17304Y183861D01*
X-17284Y183862D01*
X-17189Y183903D01*
X-17092Y183938D01*
X-17076Y183951D01*
X-17058Y183959D01*
X-16927Y184064D01*
X-16866Y184125D01*
X-13062Y184125D01*
X-13002Y184064D01*
X-12986Y184052D01*
X-12973Y184037D01*
X-12886Y183981D01*
X-12802Y183921D01*
X-12783Y183915D01*
X-12766Y183904D01*
X-12666Y183879D01*
X-12567Y183848D01*
X-12547Y183849D01*
X-12528Y183844D01*
X-12425Y183852D01*
X-12321Y183855D01*
X-12302Y183861D01*
X-12283Y183863D01*
X-12187Y183903D01*
X-12090Y183939D01*
X-12074Y183951D01*
X-12056Y183959D01*
X-11925Y184064D01*
X-11865Y184125D01*
X-10269Y184125D01*
X-10198Y184136D01*
X-10126Y184138D01*
X-10077Y184156D01*
X-10026Y184164D01*
X-9963Y184198D01*
X-9895Y184223D01*
X-9855Y184255D01*
X-9809Y184280D01*
X-9759Y184332D01*
X-9703Y184376D01*
X-9675Y184420D01*
X-9639Y184458D01*
X-9609Y184523D01*
X-9570Y184583D01*
X-9558Y184634D01*
X-9536Y184681D01*
X-9528Y184752D01*
X-9510Y184822D01*
X-9514Y184874D01*
X-9509Y184925D01*
X-9524Y184996D01*
X-9529Y185067D01*
X-9550Y185115D01*
X-9561Y185166D01*
X-9598Y185227D01*
X-9626Y185293D01*
X-9671Y185349D01*
X-9687Y185377D01*
X-9705Y185392D01*
X-9731Y185424D01*
X-10835Y186528D01*
X-10835Y197792D01*
X-9942Y198685D01*
X2322Y198685D01*
X3215Y197792D01*
X3215Y194093D01*
X3229Y194003D01*
X3237Y193912D01*
X3249Y193882D01*
X3254Y193850D01*
X3297Y193770D01*
X3333Y193686D01*
X3359Y193654D01*
X3370Y193633D01*
X3393Y193611D01*
X3438Y193555D01*
X7082Y189911D01*
X7098Y189899D01*
X7110Y189883D01*
X7198Y189827D01*
X7281Y189767D01*
X7300Y189761D01*
X7317Y189750D01*
X7418Y189725D01*
X7517Y189695D01*
X7536Y189695D01*
X7556Y189690D01*
X7659Y189698D01*
X7762Y189701D01*
X7781Y189708D01*
X7801Y189710D01*
X7896Y189750D01*
X7993Y189786D01*
X8009Y189798D01*
X8027Y189806D01*
X8158Y189911D01*
X10532Y192285D01*
X10585Y192359D01*
X10645Y192428D01*
X10657Y192458D01*
X10676Y192484D01*
X10703Y192572D01*
X10737Y192656D01*
X10741Y192697D01*
X10748Y192719D01*
X10747Y192752D01*
X10755Y192823D01*
X10755Y197792D01*
X11648Y198685D01*
X22518Y198685D01*
X22538Y198688D01*
X22557Y198686D01*
X22659Y198708D01*
X22761Y198724D01*
X22778Y198734D01*
X22798Y198738D01*
X22887Y198791D01*
X22978Y198840D01*
X22992Y198854D01*
X23009Y198864D01*
X23076Y198943D01*
X23148Y199018D01*
X23156Y199036D01*
X23169Y199051D01*
X23208Y199147D01*
X23251Y199241D01*
X23253Y199261D01*
X23261Y199279D01*
X23279Y199446D01*
X23279Y201874D01*
X23276Y201894D01*
X23278Y201913D01*
X23256Y202015D01*
X23240Y202117D01*
X23230Y202134D01*
X23226Y202154D01*
X23173Y202243D01*
X23124Y202334D01*
X23110Y202348D01*
X23100Y202365D01*
X23021Y202432D01*
X22946Y202504D01*
X22928Y202512D01*
X22913Y202525D01*
X22817Y202564D01*
X22723Y202607D01*
X22703Y202609D01*
X22685Y202617D01*
X22518Y202635D01*
X11648Y202635D01*
X10755Y203528D01*
X10755Y214792D01*
X11648Y215685D01*
X14224Y215685D01*
X14244Y215688D01*
X14263Y215686D01*
X14365Y215708D01*
X14467Y215724D01*
X14484Y215734D01*
X14504Y215738D01*
X14593Y215791D01*
X14684Y215840D01*
X14698Y215854D01*
X14715Y215864D01*
X14782Y215943D01*
X14854Y216018D01*
X14862Y216036D01*
X14875Y216051D01*
X14914Y216147D01*
X14957Y216241D01*
X14959Y216261D01*
X14967Y216279D01*
X14985Y216446D01*
X14985Y216504D01*
X14982Y216524D01*
X14984Y216543D01*
X14962Y216645D01*
X14946Y216747D01*
X14936Y216764D01*
X14932Y216784D01*
X14879Y216873D01*
X14830Y216964D01*
X14816Y216978D01*
X14806Y216995D01*
X14727Y217062D01*
X14652Y217134D01*
X14634Y217142D01*
X14619Y217155D01*
X14523Y217194D01*
X14429Y217237D01*
X14409Y217239D01*
X14391Y217247D01*
X14224Y217265D01*
X12078Y217265D01*
X11185Y218158D01*
X11185Y231422D01*
X12078Y232315D01*
X25342Y232315D01*
X26235Y231422D01*
X26235Y218158D01*
X25342Y217265D01*
X21336Y217265D01*
X21316Y217262D01*
X21297Y217264D01*
X21195Y217242D01*
X21093Y217226D01*
X21076Y217216D01*
X21056Y217212D01*
X20967Y217159D01*
X20876Y217110D01*
X20862Y217096D01*
X20845Y217086D01*
X20778Y217007D01*
X20706Y216932D01*
X20698Y216914D01*
X20685Y216899D01*
X20646Y216803D01*
X20603Y216709D01*
X20601Y216689D01*
X20593Y216671D01*
X20575Y216504D01*
X20575Y216446D01*
X20578Y216426D01*
X20576Y216407D01*
X20598Y216305D01*
X20614Y216203D01*
X20624Y216186D01*
X20628Y216166D01*
X20681Y216077D01*
X20730Y215986D01*
X20744Y215972D01*
X20754Y215955D01*
X20833Y215888D01*
X20908Y215816D01*
X20926Y215808D01*
X20941Y215795D01*
X21037Y215756D01*
X21131Y215713D01*
X21151Y215711D01*
X21169Y215703D01*
X21336Y215685D01*
X23912Y215685D01*
X24805Y214792D01*
X24805Y210935D01*
X24816Y210864D01*
X24818Y210792D01*
X24836Y210743D01*
X24844Y210692D01*
X24878Y210629D01*
X24903Y210561D01*
X24935Y210521D01*
X24960Y210475D01*
X25012Y210425D01*
X25056Y210369D01*
X25100Y210341D01*
X25138Y210305D01*
X25203Y210275D01*
X25263Y210236D01*
X25314Y210224D01*
X25361Y210202D01*
X25432Y210194D01*
X25502Y210176D01*
X25554Y210180D01*
X25605Y210175D01*
X25676Y210190D01*
X25747Y210195D01*
X25795Y210216D01*
X25846Y210227D01*
X25907Y210264D01*
X25973Y210292D01*
X26029Y210337D01*
X26057Y210353D01*
X26072Y210371D01*
X26104Y210397D01*
X33132Y217425D01*
X94756Y217425D01*
X94846Y217439D01*
X94937Y217447D01*
X94966Y217459D01*
X94998Y217464D01*
X95079Y217507D01*
X95163Y217543D01*
X95195Y217569D01*
X95216Y217580D01*
X95238Y217603D01*
X95294Y217648D01*
X97421Y219775D01*
X101233Y219775D01*
X101281Y219782D01*
X101329Y219781D01*
X101402Y219802D01*
X101476Y219814D01*
X101519Y219837D01*
X101565Y219851D01*
X101627Y219894D01*
X101694Y219929D01*
X101727Y219964D01*
X101766Y219992D01*
X101811Y220053D01*
X101863Y220108D01*
X101883Y220152D01*
X101912Y220191D01*
X101935Y220262D01*
X101967Y220331D01*
X101972Y220379D01*
X101987Y220425D01*
X101991Y220553D01*
X101994Y220575D01*
X101992Y220582D01*
X101993Y220593D01*
X101944Y221245D01*
X101936Y221277D01*
X101927Y221358D01*
X101785Y221982D01*
X101806Y222050D01*
X101841Y222132D01*
X101844Y222167D01*
X101854Y222200D01*
X101860Y222368D01*
X101696Y224566D01*
X101688Y224599D01*
X101688Y224634D01*
X101659Y224719D01*
X101638Y224805D01*
X101620Y224834D01*
X101609Y224867D01*
X101564Y224933D01*
X101612Y225574D01*
X101609Y225607D01*
X101612Y225688D01*
X101565Y226327D01*
X101596Y226391D01*
X101643Y226467D01*
X101651Y226501D01*
X101666Y226532D01*
X101697Y226697D01*
X101862Y228895D01*
X101859Y228929D01*
X101864Y228964D01*
X101849Y229051D01*
X101841Y229140D01*
X101827Y229172D01*
X101821Y229206D01*
X101786Y229277D01*
X101930Y229905D01*
X101932Y229938D01*
X101947Y230017D01*
X101995Y230656D01*
X102036Y230714D01*
X102093Y230783D01*
X102106Y230815D01*
X102125Y230843D01*
X102181Y231002D01*
X102672Y233151D01*
X102674Y233185D01*
X102684Y233218D01*
X102681Y233307D01*
X102687Y233396D01*
X102678Y233430D01*
X102677Y233464D01*
X102654Y233540D01*
X102889Y234139D01*
X102896Y234171D01*
X102922Y234248D01*
X103065Y234872D01*
X103114Y234924D01*
X103181Y234983D01*
X103198Y235013D01*
X103222Y235038D01*
X103300Y235187D01*
X104106Y237238D01*
X104114Y237272D01*
X104129Y237303D01*
X104139Y237392D01*
X104158Y237479D01*
X104154Y237513D01*
X104158Y237548D01*
X104147Y237626D01*
X104469Y238183D01*
X104480Y238214D01*
X104518Y238286D01*
X104752Y238882D01*
X104809Y238926D01*
X104883Y238974D01*
X104905Y239001D01*
X104932Y239023D01*
X105032Y239158D01*
X106134Y241066D01*
X106147Y241099D01*
X106166Y241128D01*
X106190Y241213D01*
X106221Y241296D01*
X106223Y241331D01*
X106232Y241365D01*
X106232Y241444D01*
X106633Y241947D01*
X106646Y241970D01*
X106663Y241988D01*
X106672Y242006D01*
X106697Y242041D01*
X107018Y242595D01*
X107080Y242631D01*
X107161Y242667D01*
X107187Y242691D01*
X107217Y242708D01*
X107335Y242827D01*
X108710Y244550D01*
X108727Y244580D01*
X108751Y244605D01*
X108787Y244686D01*
X108830Y244764D01*
X108837Y244798D01*
X108851Y244830D01*
X108863Y244908D01*
X109335Y245346D01*
X109355Y245372D01*
X109412Y245429D01*
X109812Y245930D01*
X109878Y245955D01*
X109964Y245979D01*
X109993Y245999D01*
X110025Y246011D01*
X110160Y246111D01*
X111776Y247610D01*
X111797Y247637D01*
X111825Y247659D01*
X111873Y247734D01*
X111927Y247804D01*
X111939Y247837D01*
X111957Y247866D01*
X111981Y247942D01*
X112513Y248304D01*
X112537Y248327D01*
X112602Y248375D01*
X113071Y248811D01*
X113141Y248826D01*
X113230Y248837D01*
X113261Y248852D01*
X113295Y248859D01*
X113443Y248938D01*
X113898Y249248D01*
X113981Y249327D01*
X114066Y249404D01*
X114070Y249412D01*
X114076Y249418D01*
X114130Y249519D01*
X114185Y249619D01*
X114187Y249627D01*
X114191Y249635D01*
X114210Y249748D01*
X114230Y249861D01*
X114229Y249869D01*
X114231Y249878D01*
X114212Y249991D01*
X114196Y250104D01*
X114192Y250114D01*
X114191Y250121D01*
X114180Y250141D01*
X114129Y250258D01*
X95318Y282839D01*
X97076Y283671D01*
X97098Y283688D01*
X97125Y283698D01*
X97177Y283747D01*
X97235Y283790D01*
X97249Y283815D01*
X97270Y283834D01*
X97299Y283900D01*
X97335Y283962D01*
X97338Y283990D01*
X97350Y284016D01*
X97351Y284088D01*
X97360Y284159D01*
X97352Y284186D01*
X97353Y284215D01*
X97317Y284310D01*
X97306Y284350D01*
X97299Y284359D01*
X97295Y284371D01*
X87795Y300871D01*
X87743Y300930D01*
X87697Y300992D01*
X87678Y301003D01*
X87663Y301020D01*
X87593Y301054D01*
X87526Y301094D01*
X87502Y301098D01*
X87484Y301106D01*
X87439Y301108D01*
X87362Y301121D01*
X68362Y301121D01*
X68334Y301116D01*
X68306Y301118D01*
X68238Y301096D01*
X68167Y301082D01*
X68144Y301066D01*
X68117Y301057D01*
X68062Y301010D01*
X68003Y300969D01*
X67988Y300945D01*
X67967Y300927D01*
X67935Y300862D01*
X67896Y300802D01*
X67891Y300774D01*
X67879Y300748D01*
X67870Y300647D01*
X67863Y300605D01*
X67865Y300595D01*
X67864Y300582D01*
X68020Y298621D01*
X-66496Y298621D01*
X-66340Y300582D01*
X-66344Y300611D01*
X-66339Y300639D01*
X-66356Y300708D01*
X-66364Y300780D01*
X-66379Y300804D01*
X-66385Y300832D01*
X-66428Y300890D01*
X-66464Y300952D01*
X-66486Y300969D01*
X-66503Y300992D01*
X-66565Y301029D01*
X-66622Y301072D01*
X-66650Y301079D01*
X-66674Y301094D01*
X-66774Y301110D01*
X-66815Y301121D01*
X-66825Y301119D01*
X-66838Y301121D01*
X-85838Y301121D01*
X-85914Y301106D01*
X-85992Y301097D01*
X-86011Y301086D01*
X-86033Y301082D01*
X-86097Y301038D01*
X-86165Y300999D01*
X-86181Y300980D01*
X-86197Y300969D01*
X-86221Y300931D01*
X-86271Y300871D01*
X-95771Y284371D01*
X-95780Y284344D01*
X-95796Y284320D01*
X-95811Y284250D01*
X-95834Y284182D01*
X-95831Y284154D01*
X-95837Y284126D01*
X-95824Y284056D01*
X-95818Y283984D01*
X-95805Y283959D01*
X-95799Y283931D01*
X-95759Y283871D01*
X-95726Y283808D01*
X-95704Y283790D01*
X-95688Y283766D01*
X-95605Y283708D01*
X-95573Y283681D01*
X-95562Y283678D01*
X-95552Y283671D01*
X-93794Y282839D01*
X-112605Y250258D01*
X-112645Y250151D01*
X-112688Y250045D01*
X-112689Y250036D01*
X-112692Y250028D01*
X-112696Y249914D01*
X-112703Y249799D01*
X-112700Y249791D01*
X-112701Y249782D01*
X-112668Y249672D01*
X-112638Y249562D01*
X-112633Y249555D01*
X-112631Y249546D01*
X-112565Y249452D01*
X-112501Y249357D01*
X-112493Y249351D01*
X-112489Y249345D01*
X-112471Y249331D01*
X-112374Y249248D01*
X-111919Y248938D01*
X-111887Y248923D01*
X-111860Y248902D01*
X-111776Y248872D01*
X-111696Y248834D01*
X-111661Y248830D01*
X-111629Y248819D01*
X-111550Y248813D01*
X-111078Y248375D01*
X-111050Y248357D01*
X-110989Y248304D01*
X-110459Y247944D01*
X-110429Y247879D01*
X-110398Y247795D01*
X-110377Y247768D01*
X-110362Y247737D01*
X-110252Y247610D01*
X-108636Y246111D01*
X-108607Y246092D01*
X-108583Y246067D01*
X-108505Y246024D01*
X-108431Y245975D01*
X-108398Y245966D01*
X-108367Y245950D01*
X-108290Y245932D01*
X-107888Y245429D01*
X-107864Y245407D01*
X-107811Y245346D01*
X-107341Y244911D01*
X-107321Y244842D01*
X-107303Y244755D01*
X-107286Y244725D01*
X-107276Y244691D01*
X-107186Y244550D01*
X-105811Y242827D01*
X-105786Y242803D01*
X-105766Y242775D01*
X-105695Y242721D01*
X-105629Y242662D01*
X-105597Y242648D01*
X-105569Y242627D01*
X-105495Y242598D01*
X-105173Y242041D01*
X-105152Y242015D01*
X-105109Y241947D01*
X-104710Y241446D01*
X-104700Y241376D01*
X-104695Y241287D01*
X-104683Y241254D01*
X-104678Y241220D01*
X-104610Y241066D01*
X-103508Y239158D01*
X-103486Y239131D01*
X-103470Y239100D01*
X-103408Y239037D01*
X-103352Y238968D01*
X-103322Y238949D01*
X-103298Y238924D01*
X-103229Y238885D01*
X-102994Y238286D01*
X-102977Y238257D01*
X-102945Y238183D01*
X-102624Y237629D01*
X-102625Y237557D01*
X-102634Y237469D01*
X-102626Y237435D01*
X-102626Y237400D01*
X-102582Y237238D01*
X-101776Y235187D01*
X-101759Y235157D01*
X-101748Y235124D01*
X-101696Y235052D01*
X-101651Y234975D01*
X-101624Y234953D01*
X-101604Y234925D01*
X-101542Y234875D01*
X-101398Y234248D01*
X-101386Y234217D01*
X-101365Y234139D01*
X-101131Y233543D01*
X-101142Y233472D01*
X-101164Y233386D01*
X-101161Y233351D01*
X-101167Y233317D01*
X-101148Y233151D01*
X-100657Y231002D01*
X-100643Y230970D01*
X-100638Y230935D01*
X-100597Y230856D01*
X-100564Y230774D01*
X-100541Y230748D01*
X-100525Y230717D01*
X-100471Y230659D01*
X-100423Y230017D01*
X-100415Y229985D01*
X-100406Y229905D01*
X-100263Y229280D01*
X-100285Y229212D01*
X-100319Y229130D01*
X-100322Y229095D01*
X-100332Y229062D01*
X-100338Y228895D01*
X-100173Y226697D01*
X-100165Y226663D01*
X-100165Y226628D01*
X-100136Y226544D01*
X-100115Y226458D01*
X-100096Y226428D01*
X-100085Y226396D01*
X-100040Y226330D01*
X-100088Y225688D01*
X-100085Y225655D01*
X-100086Y225633D01*
X-100087Y225630D01*
X-100086Y225628D01*
X-100088Y225574D01*
X-100040Y224936D01*
X-100072Y224871D01*
X-100118Y224796D01*
X-100126Y224762D01*
X-100141Y224731D01*
X-100172Y224566D01*
X-100336Y222368D01*
X-100333Y222333D01*
X-100338Y222299D01*
X-100322Y222211D01*
X-100315Y222123D01*
X-100301Y222091D01*
X-100295Y222057D01*
X-100260Y221985D01*
X-100403Y221358D01*
X-100405Y221325D01*
X-100420Y221245D01*
X-100468Y220607D01*
X-100508Y220548D01*
X-100566Y220480D01*
X-100578Y220447D01*
X-100598Y220419D01*
X-100653Y220260D01*
X-101143Y218111D01*
X-101145Y218077D01*
X-101155Y218044D01*
X-101153Y217955D01*
X-101158Y217866D01*
X-101149Y217832D01*
X-101148Y217798D01*
X-101124Y217722D01*
X-101359Y217123D01*
X-101366Y217090D01*
X-101393Y217014D01*
X-101535Y216390D01*
X-101584Y216338D01*
X-101651Y216279D01*
X-101668Y216249D01*
X-101692Y216223D01*
X-101770Y216075D01*
X-102575Y214023D01*
X-102582Y213989D01*
X-102597Y213958D01*
X-102608Y213869D01*
X-102627Y213782D01*
X-102623Y213748D01*
X-102627Y213714D01*
X-102615Y213635D01*
X-102936Y213077D01*
X-102948Y213047D01*
X-102986Y212975D01*
X-103220Y212379D01*
X-103276Y212335D01*
X-103351Y212286D01*
X-103372Y212259D01*
X-103400Y212238D01*
X-103499Y212103D01*
X-104600Y210193D01*
X-104613Y210161D01*
X-104632Y210132D01*
X-104656Y210046D01*
X-104687Y209963D01*
X-104689Y209929D01*
X-104698Y209895D01*
X-104698Y209816D01*
X-105099Y209312D01*
X-105115Y209284D01*
X-105163Y209218D01*
X-105483Y208664D01*
X-105545Y208628D01*
X-105626Y208592D01*
X-105652Y208568D01*
X-105682Y208551D01*
X-105800Y208432D01*
X-107174Y206709D01*
X-107191Y206678D01*
X-107214Y206653D01*
X-107251Y206571D01*
X-107294Y206494D01*
X-107301Y206460D01*
X-107315Y206428D01*
X-107326Y206350D01*
X-107798Y205912D01*
X-107818Y205886D01*
X-107875Y205828D01*
X-108275Y205327D01*
X-108342Y205302D01*
X-108427Y205278D01*
X-108456Y205258D01*
X-108488Y205246D01*
X-108623Y205146D01*
X-110238Y203646D01*
X-110260Y203619D01*
X-110287Y203597D01*
X-110334Y203522D01*
X-110389Y203452D01*
X-110401Y203419D01*
X-110419Y203390D01*
X-110442Y203314D01*
X-110974Y202951D01*
X-110998Y202929D01*
X-111063Y202880D01*
X-111532Y202445D01*
X-111602Y202429D01*
X-111691Y202418D01*
X-111722Y202403D01*
X-111756Y202396D01*
X-111904Y202317D01*
X-113725Y201075D01*
X-113750Y201051D01*
X-113780Y201033D01*
X-113838Y200967D01*
X-113903Y200905D01*
X-113919Y200875D01*
X-113942Y200848D01*
X-113976Y200777D01*
X-114556Y200497D01*
X-114583Y200479D01*
X-114654Y200440D01*
X-115237Y200043D01*
X-115265Y200016D01*
X-115299Y199996D01*
X-115354Y199932D01*
X-115415Y199873D01*
X-115433Y199839D01*
X-115459Y199809D01*
X-115491Y199730D01*
X-115530Y199656D01*
X-115536Y199617D01*
X-115551Y199581D01*
X-115569Y199414D01*
X-115569Y120349D01*
X-115555Y120259D01*
X-115547Y120168D01*
X-115535Y120139D01*
X-115530Y120107D01*
X-115487Y120026D01*
X-115451Y119942D01*
X-115425Y119910D01*
X-115414Y119889D01*
X-115391Y119867D01*
X-115346Y119811D01*
X-100179Y104644D01*
X-100105Y104591D01*
X-100036Y104531D01*
X-100005Y104519D01*
X-99979Y104500D01*
X-99892Y104473D01*
X-99807Y104439D01*
X-99766Y104435D01*
X-99744Y104428D01*
X-99712Y104429D01*
X-99641Y104421D01*
X-24013Y104421D01*
X-23923Y104435D01*
G37*
G36*
X87438Y138D02*
X87438Y138D01*
X87516Y147D01*
X87535Y158D01*
X87557Y162D01*
X87621Y206D01*
X87689Y245D01*
X87705Y264D01*
X87721Y275D01*
X87745Y313D01*
X87795Y373D01*
X97295Y16873D01*
X97304Y16900D01*
X97320Y16924D01*
X97335Y16994D01*
X97358Y17062D01*
X97355Y17090D01*
X97361Y17118D01*
X97348Y17189D01*
X97342Y17260D01*
X97329Y17285D01*
X97323Y17313D01*
X97283Y17373D01*
X97250Y17436D01*
X97228Y17454D01*
X97212Y17478D01*
X97129Y17536D01*
X97097Y17563D01*
X97086Y17566D01*
X97076Y17573D01*
X95318Y18405D01*
X114129Y50986D01*
X114169Y51094D01*
X114177Y51112D01*
X114189Y51138D01*
X114189Y51143D01*
X114212Y51199D01*
X114213Y51208D01*
X114216Y51216D01*
X114220Y51330D01*
X114227Y51445D01*
X114224Y51453D01*
X114225Y51462D01*
X114192Y51572D01*
X114162Y51682D01*
X114157Y51689D01*
X114155Y51698D01*
X114089Y51792D01*
X114025Y51887D01*
X114017Y51893D01*
X114013Y51899D01*
X113995Y51913D01*
X113898Y51996D01*
X113443Y52306D01*
X113411Y52321D01*
X113384Y52342D01*
X113301Y52372D01*
X113220Y52410D01*
X113185Y52414D01*
X113153Y52425D01*
X113074Y52431D01*
X112602Y52869D01*
X112574Y52887D01*
X112513Y52940D01*
X111983Y53300D01*
X111953Y53365D01*
X111922Y53449D01*
X111901Y53476D01*
X111886Y53507D01*
X111776Y53634D01*
X110160Y55133D01*
X110131Y55152D01*
X110107Y55177D01*
X110029Y55219D01*
X109955Y55269D01*
X109921Y55278D01*
X109891Y55294D01*
X109814Y55312D01*
X109412Y55815D01*
X109388Y55837D01*
X109335Y55898D01*
X108865Y56334D01*
X108845Y56402D01*
X108827Y56489D01*
X108810Y56519D01*
X108800Y56553D01*
X108710Y56694D01*
X107335Y58417D01*
X107310Y58441D01*
X107290Y58469D01*
X107219Y58523D01*
X107153Y58582D01*
X107121Y58596D01*
X107093Y58617D01*
X107019Y58646D01*
X106697Y59203D01*
X106676Y59229D01*
X106633Y59297D01*
X106234Y59798D01*
X106224Y59868D01*
X106219Y59957D01*
X106207Y59990D01*
X106202Y60024D01*
X106134Y60178D01*
X105032Y62086D01*
X105010Y62113D01*
X104994Y62144D01*
X104932Y62207D01*
X104876Y62276D01*
X104846Y62295D01*
X104822Y62320D01*
X104753Y62359D01*
X104518Y62958D01*
X104501Y62987D01*
X104469Y63061D01*
X104148Y63615D01*
X104149Y63687D01*
X104158Y63775D01*
X104150Y63809D01*
X104150Y63844D01*
X104106Y64006D01*
X103594Y65310D01*
X103567Y65356D01*
X103549Y65406D01*
X103504Y65461D01*
X103468Y65522D01*
X103428Y65556D01*
X103395Y65598D01*
X103335Y65636D01*
X103282Y65682D01*
X103232Y65702D01*
X103188Y65731D01*
X103119Y65748D01*
X103054Y65775D01*
X103001Y65778D01*
X102950Y65791D01*
X102879Y65785D01*
X102808Y65789D01*
X102757Y65776D01*
X102704Y65772D01*
X102639Y65744D01*
X102571Y65725D01*
X102527Y65696D01*
X102478Y65675D01*
X102390Y65605D01*
X102366Y65589D01*
X102360Y65580D01*
X102347Y65570D01*
X99692Y62915D01*
X95295Y62915D01*
X92187Y66024D01*
X92187Y70420D01*
X95295Y73528D01*
X98533Y73528D01*
X98623Y73543D01*
X98714Y73550D01*
X98743Y73563D01*
X98775Y73568D01*
X98856Y73611D01*
X98940Y73647D01*
X98972Y73672D01*
X98993Y73683D01*
X99015Y73707D01*
X99071Y73751D01*
X101322Y76002D01*
X101376Y76078D01*
X101514Y76238D01*
X101532Y76268D01*
X101557Y76293D01*
X101596Y76373D01*
X101642Y76448D01*
X101650Y76482D01*
X101665Y76513D01*
X101696Y76678D01*
X101860Y78876D01*
X101857Y78911D01*
X101862Y78945D01*
X101846Y79033D01*
X101839Y79121D01*
X101825Y79153D01*
X101819Y79187D01*
X101784Y79259D01*
X101927Y79886D01*
X101929Y79919D01*
X101944Y79999D01*
X101992Y80637D01*
X102032Y80696D01*
X102090Y80764D01*
X102102Y80797D01*
X102122Y80825D01*
X102177Y80984D01*
X102667Y83133D01*
X102669Y83167D01*
X102679Y83200D01*
X102677Y83289D01*
X102682Y83378D01*
X102673Y83412D01*
X102672Y83446D01*
X102648Y83522D01*
X102883Y84121D01*
X102890Y84154D01*
X102917Y84230D01*
X103059Y84854D01*
X103108Y84906D01*
X103175Y84965D01*
X103192Y84995D01*
X103216Y85021D01*
X103294Y85169D01*
X104099Y87221D01*
X104106Y87255D01*
X104121Y87286D01*
X104132Y87375D01*
X104151Y87462D01*
X104147Y87496D01*
X104151Y87531D01*
X104139Y87609D01*
X104460Y88167D01*
X104472Y88197D01*
X104510Y88269D01*
X104744Y88865D01*
X104800Y88909D01*
X104875Y88958D01*
X104896Y88985D01*
X104924Y89006D01*
X105023Y89141D01*
X106124Y91051D01*
X106137Y91083D01*
X106156Y91112D01*
X106180Y91198D01*
X106211Y91281D01*
X106213Y91315D01*
X106222Y91349D01*
X106222Y91428D01*
X106623Y91932D01*
X106639Y91960D01*
X106687Y92026D01*
X107007Y92580D01*
X107069Y92616D01*
X107150Y92652D01*
X107176Y92676D01*
X107206Y92693D01*
X107324Y92812D01*
X108698Y94535D01*
X108715Y94566D01*
X108738Y94591D01*
X108775Y94673D01*
X108818Y94750D01*
X108825Y94784D01*
X108839Y94816D01*
X108850Y94894D01*
X109322Y95332D01*
X109342Y95358D01*
X109399Y95416D01*
X109799Y95917D01*
X109866Y95942D01*
X109951Y95966D01*
X109980Y95986D01*
X110012Y95998D01*
X110147Y96098D01*
X111762Y97598D01*
X111783Y97625D01*
X111810Y97647D01*
X111858Y97722D01*
X111913Y97792D01*
X111924Y97825D01*
X111943Y97854D01*
X111966Y97930D01*
X112498Y98293D01*
X112522Y98315D01*
X112587Y98364D01*
X113056Y98799D01*
X113126Y98815D01*
X113215Y98826D01*
X113246Y98841D01*
X113280Y98848D01*
X113428Y98927D01*
X115249Y100169D01*
X115274Y100193D01*
X115304Y100211D01*
X115362Y100277D01*
X115427Y100339D01*
X115443Y100369D01*
X115466Y100396D01*
X115500Y100467D01*
X116080Y100747D01*
X116107Y100765D01*
X116178Y100804D01*
X116707Y101164D01*
X116779Y101169D01*
X116868Y101167D01*
X116901Y101177D01*
X116936Y101180D01*
X117094Y101235D01*
X119079Y102192D01*
X119108Y102212D01*
X119140Y102225D01*
X119208Y102282D01*
X119281Y102333D01*
X119301Y102361D01*
X119328Y102384D01*
X119372Y102449D01*
X119987Y102639D01*
X120017Y102654D01*
X120093Y102681D01*
X120670Y102959D01*
X120742Y102953D01*
X120829Y102938D01*
X120863Y102943D01*
X120898Y102940D01*
X121063Y102971D01*
X123169Y103622D01*
X123200Y103637D01*
X123234Y103645D01*
X123310Y103692D01*
X123389Y103731D01*
X123413Y103756D01*
X123443Y103774D01*
X123497Y103832D01*
X124133Y103929D01*
X124165Y103939D01*
X124244Y103954D01*
X124856Y104143D01*
X124926Y104126D01*
X125010Y104098D01*
X125045Y104098D01*
X125079Y104090D01*
X125246Y104097D01*
X127426Y104426D01*
X127459Y104437D01*
X127493Y104439D01*
X127575Y104474D01*
X127660Y104501D01*
X127688Y104522D01*
X127720Y104536D01*
X127781Y104585D01*
X128425Y104585D01*
X128458Y104591D01*
X128539Y104594D01*
X129172Y104690D01*
X129238Y104663D01*
X129317Y104622D01*
X129352Y104617D01*
X129384Y104604D01*
X129551Y104586D01*
X131755Y104587D01*
X131789Y104592D01*
X131824Y104590D01*
X131910Y104612D01*
X131997Y104626D01*
X132028Y104643D01*
X132062Y104651D01*
X132130Y104691D01*
X132767Y104595D01*
X132800Y104596D01*
X132880Y104587D01*
X133521Y104587D01*
X133583Y104551D01*
X133655Y104499D01*
X133688Y104489D01*
X133718Y104471D01*
X133880Y104428D01*
X136060Y104100D01*
X136094Y104101D01*
X136128Y104093D01*
X136217Y104102D01*
X136305Y104103D01*
X136338Y104115D01*
X136373Y104118D01*
X136447Y104148D01*
X137062Y103958D01*
X137094Y103954D01*
X137172Y103933D01*
X137806Y103838D01*
X137862Y103792D01*
X137925Y103730D01*
X137956Y103715D01*
X137983Y103693D01*
X138137Y103627D01*
X140244Y102978D01*
X140278Y102973D01*
X140310Y102960D01*
X140399Y102956D01*
X140487Y102944D01*
X140521Y102951D01*
X140556Y102949D01*
X140633Y102967D01*
X141213Y102688D01*
X141245Y102678D01*
X141319Y102646D01*
X141931Y102458D01*
X141980Y102405D01*
X142033Y102334D01*
X142062Y102314D01*
X142085Y102289D01*
X142228Y102200D01*
X142740Y101953D01*
X142849Y101921D01*
X142959Y101886D01*
X142968Y101886D01*
X142976Y101884D01*
X143091Y101888D01*
X143205Y101890D01*
X143213Y101893D01*
X143222Y101893D01*
X143329Y101934D01*
X143437Y101972D01*
X143444Y101977D01*
X143452Y101980D01*
X143541Y102053D01*
X143630Y102123D01*
X143637Y102132D01*
X143642Y102136D01*
X143655Y102156D01*
X143730Y102258D01*
X162541Y134841D01*
X164178Y133711D01*
X164205Y133700D01*
X164227Y133681D01*
X164296Y133661D01*
X164361Y133633D01*
X164390Y133633D01*
X164418Y133625D01*
X164489Y133633D01*
X164560Y133633D01*
X164587Y133644D01*
X164616Y133647D01*
X164678Y133682D01*
X164743Y133710D01*
X164764Y133730D01*
X164789Y133745D01*
X164852Y133822D01*
X164882Y133852D01*
X164886Y133862D01*
X164895Y133873D01*
X174395Y150373D01*
X174405Y150405D01*
X174414Y150418D01*
X174418Y150442D01*
X174419Y150446D01*
X174450Y150516D01*
X174450Y150540D01*
X174458Y150562D01*
X174452Y150638D01*
X174453Y150715D01*
X174443Y150739D01*
X174442Y150760D01*
X174421Y150799D01*
X174395Y150871D01*
X164895Y167371D01*
X164876Y167393D01*
X164863Y167419D01*
X164810Y167467D01*
X164763Y167520D01*
X164737Y167533D01*
X164716Y167552D01*
X164648Y167575D01*
X164584Y167606D01*
X164555Y167608D01*
X164528Y167617D01*
X164456Y167612D01*
X164385Y167615D01*
X164358Y167605D01*
X164329Y167603D01*
X164239Y167561D01*
X164199Y167546D01*
X164191Y167539D01*
X164178Y167533D01*
X162541Y166403D01*
X143730Y198986D01*
X143657Y199075D01*
X143587Y199164D01*
X143580Y199169D01*
X143574Y199176D01*
X143476Y199237D01*
X143382Y199300D01*
X143373Y199302D01*
X143366Y199307D01*
X143254Y199334D01*
X143144Y199363D01*
X143135Y199362D01*
X143127Y199364D01*
X143013Y199354D01*
X142899Y199347D01*
X142889Y199343D01*
X142882Y199343D01*
X142860Y199333D01*
X142740Y199291D01*
X142228Y199044D01*
X142199Y199024D01*
X142167Y199012D01*
X142099Y198954D01*
X142026Y198903D01*
X142006Y198875D01*
X141979Y198853D01*
X141934Y198787D01*
X141319Y198598D01*
X141290Y198583D01*
X141213Y198556D01*
X140636Y198279D01*
X140565Y198285D01*
X140477Y198300D01*
X140443Y198295D01*
X140409Y198298D01*
X140244Y198266D01*
X138137Y197617D01*
X138106Y197602D01*
X138072Y197594D01*
X137997Y197548D01*
X137917Y197508D01*
X137892Y197483D01*
X137863Y197465D01*
X137809Y197407D01*
X137173Y197311D01*
X137141Y197301D01*
X137062Y197286D01*
X136450Y197097D01*
X136380Y197114D01*
X136296Y197142D01*
X136261Y197142D01*
X136227Y197150D01*
X136060Y197144D01*
X133880Y196816D01*
X133847Y196805D01*
X133812Y196803D01*
X133730Y196768D01*
X133646Y196741D01*
X133618Y196720D01*
X133586Y196706D01*
X133524Y196657D01*
X132880Y196657D01*
X132848Y196652D01*
X132767Y196649D01*
X132134Y196553D01*
X132067Y196580D01*
X131988Y196621D01*
X131954Y196626D01*
X131921Y196639D01*
X131755Y196657D01*
X129551Y196658D01*
X129516Y196653D01*
X129482Y196655D01*
X129396Y196633D01*
X129308Y196619D01*
X129277Y196602D01*
X129244Y196594D01*
X129175Y196554D01*
X128539Y196650D01*
X128506Y196650D01*
X128425Y196659D01*
X127785Y196659D01*
X127723Y196695D01*
X127651Y196747D01*
X127618Y196757D01*
X127588Y196775D01*
X127426Y196818D01*
X125246Y197147D01*
X125211Y197147D01*
X125178Y197155D01*
X125089Y197145D01*
X125000Y197144D01*
X124968Y197133D01*
X124933Y197129D01*
X124859Y197100D01*
X124244Y197290D01*
X124212Y197295D01*
X124133Y197315D01*
X123500Y197411D01*
X123445Y197456D01*
X123381Y197518D01*
X123350Y197533D01*
X123323Y197555D01*
X123169Y197622D01*
X121063Y198273D01*
X121028Y198277D01*
X120996Y198290D01*
X120907Y198294D01*
X120819Y198306D01*
X120785Y198300D01*
X120750Y198301D01*
X120673Y198284D01*
X120093Y198563D01*
X120062Y198572D01*
X119987Y198605D01*
X119375Y198794D01*
X119327Y198847D01*
X119273Y198918D01*
X119245Y198937D01*
X119221Y198963D01*
X119079Y199052D01*
X117094Y200009D01*
X117061Y200019D01*
X117030Y200036D01*
X116943Y200053D01*
X116858Y200078D01*
X116823Y200077D01*
X116789Y200084D01*
X116710Y200078D01*
X116178Y200440D01*
X116148Y200454D01*
X116080Y200497D01*
X115503Y200775D01*
X115463Y200835D01*
X115421Y200913D01*
X115395Y200937D01*
X115376Y200966D01*
X115249Y201075D01*
X113428Y202317D01*
X113396Y202332D01*
X113369Y202353D01*
X113286Y202383D01*
X113205Y202421D01*
X113170Y202425D01*
X113138Y202437D01*
X113059Y202442D01*
X112587Y202880D01*
X112560Y202899D01*
X112498Y202951D01*
X111969Y203312D01*
X111939Y203377D01*
X111908Y203461D01*
X111887Y203488D01*
X111872Y203519D01*
X111762Y203646D01*
X110418Y204894D01*
X110354Y204937D01*
X110295Y204987D01*
X110252Y205004D01*
X110213Y205030D01*
X110139Y205050D01*
X110067Y205079D01*
X110005Y205086D01*
X109976Y205093D01*
X109949Y205092D01*
X109900Y205097D01*
X36645Y205097D01*
X36555Y205082D01*
X36464Y205075D01*
X36434Y205063D01*
X36402Y205057D01*
X36321Y205015D01*
X36238Y204979D01*
X36205Y204953D01*
X36185Y204942D01*
X36163Y204919D01*
X36107Y204874D01*
X33156Y201923D01*
X33103Y201849D01*
X33043Y201780D01*
X33031Y201750D01*
X33012Y201724D01*
X32985Y201637D01*
X32951Y201552D01*
X32947Y201511D01*
X32940Y201489D01*
X32941Y201456D01*
X32933Y201385D01*
X32933Y183110D01*
X32921Y183094D01*
X32894Y183007D01*
X32860Y182922D01*
X32856Y182881D01*
X32849Y182859D01*
X32850Y182827D01*
X32842Y182755D01*
X32842Y177113D01*
X32845Y177093D01*
X32843Y177074D01*
X32865Y176972D01*
X32881Y176870D01*
X32891Y176853D01*
X32895Y176833D01*
X32948Y176744D01*
X32997Y176653D01*
X33011Y176639D01*
X33021Y176622D01*
X33100Y176555D01*
X33175Y176483D01*
X33193Y176475D01*
X33208Y176462D01*
X33304Y176423D01*
X33398Y176380D01*
X33418Y176378D01*
X33436Y176370D01*
X33603Y176352D01*
X39722Y176352D01*
X40615Y175459D01*
X40615Y171655D01*
X40554Y171595D01*
X40542Y171579D01*
X40527Y171566D01*
X40471Y171479D01*
X40411Y171395D01*
X40405Y171376D01*
X40394Y171359D01*
X40369Y171259D01*
X40338Y171160D01*
X40339Y171140D01*
X40334Y171121D01*
X40342Y171018D01*
X40345Y170914D01*
X40351Y170895D01*
X40353Y170876D01*
X40393Y170780D01*
X40429Y170683D01*
X40441Y170667D01*
X40449Y170649D01*
X40554Y170518D01*
X40615Y170458D01*
X40615Y166654D01*
X40554Y166593D01*
X40542Y166577D01*
X40526Y166565D01*
X40470Y166478D01*
X40410Y166394D01*
X40404Y166375D01*
X40393Y166358D01*
X40368Y166257D01*
X40338Y166159D01*
X40338Y166139D01*
X40333Y166119D01*
X40341Y166016D01*
X40344Y165913D01*
X40351Y165894D01*
X40352Y165874D01*
X40393Y165779D01*
X40428Y165682D01*
X40441Y165666D01*
X40449Y165648D01*
X40554Y165517D01*
X40615Y165456D01*
X40615Y161652D01*
X40554Y161592D01*
X40542Y161576D01*
X40527Y161563D01*
X40471Y161476D01*
X40411Y161392D01*
X40405Y161373D01*
X40394Y161356D01*
X40369Y161256D01*
X40338Y161157D01*
X40339Y161137D01*
X40334Y161118D01*
X40342Y161015D01*
X40345Y160911D01*
X40351Y160892D01*
X40353Y160873D01*
X40393Y160777D01*
X40429Y160680D01*
X40441Y160664D01*
X40449Y160646D01*
X40554Y160515D01*
X40615Y160455D01*
X40615Y159435D01*
X40618Y159417D01*
X40616Y159401D01*
X40627Y159351D01*
X40628Y159292D01*
X40646Y159243D01*
X40654Y159192D01*
X40666Y159171D01*
X40668Y159160D01*
X40690Y159124D01*
X40713Y159061D01*
X40745Y159021D01*
X40770Y158975D01*
X40791Y158954D01*
X40794Y158949D01*
X40816Y158931D01*
X40822Y158925D01*
X40866Y158869D01*
X40910Y158841D01*
X40948Y158805D01*
X40980Y158791D01*
X40981Y158789D01*
X40991Y158786D01*
X41013Y158775D01*
X41073Y158736D01*
X41124Y158724D01*
X41171Y158702D01*
X41209Y158698D01*
X41209Y158697D01*
X41243Y158694D01*
X41312Y158676D01*
X41363Y158680D01*
X41376Y158679D01*
X41377Y158679D01*
X41415Y158675D01*
X41486Y158690D01*
X41557Y158695D01*
X41604Y158715D01*
X41624Y158719D01*
X41628Y158721D01*
X41656Y158727D01*
X41717Y158764D01*
X41783Y158792D01*
X41825Y158825D01*
X41841Y158834D01*
X41850Y158843D01*
X41867Y158853D01*
X41882Y158871D01*
X41914Y158897D01*
X47712Y164695D01*
X83708Y164695D01*
X84605Y163798D01*
X84679Y163745D01*
X84748Y163685D01*
X84778Y163673D01*
X84804Y163654D01*
X84891Y163627D01*
X84976Y163593D01*
X85017Y163589D01*
X85039Y163582D01*
X85072Y163583D01*
X85143Y163575D01*
X97032Y163575D01*
X97925Y162682D01*
X97925Y159106D01*
X97928Y159086D01*
X97926Y159067D01*
X97948Y158965D01*
X97964Y158863D01*
X97974Y158846D01*
X97978Y158826D01*
X98031Y158737D01*
X98080Y158646D01*
X98094Y158632D01*
X98104Y158615D01*
X98183Y158548D01*
X98258Y158476D01*
X98276Y158468D01*
X98291Y158455D01*
X98387Y158416D01*
X98481Y158373D01*
X98501Y158371D01*
X98519Y158363D01*
X98686Y158345D01*
X100704Y158345D01*
X100724Y158348D01*
X100743Y158346D01*
X100845Y158368D01*
X100947Y158384D01*
X100964Y158394D01*
X100984Y158398D01*
X101073Y158451D01*
X101164Y158500D01*
X101178Y158514D01*
X101195Y158524D01*
X101262Y158603D01*
X101334Y158678D01*
X101342Y158696D01*
X101355Y158711D01*
X101394Y158807D01*
X101437Y158901D01*
X101439Y158921D01*
X101447Y158939D01*
X101465Y159106D01*
X101465Y162682D01*
X102358Y163575D01*
X106934Y163575D01*
X106954Y163578D01*
X106973Y163576D01*
X107075Y163598D01*
X107177Y163614D01*
X107194Y163624D01*
X107214Y163628D01*
X107303Y163681D01*
X107394Y163730D01*
X107408Y163744D01*
X107425Y163754D01*
X107492Y163833D01*
X107564Y163908D01*
X107572Y163926D01*
X107585Y163941D01*
X107624Y164037D01*
X107667Y164131D01*
X107669Y164151D01*
X107677Y164169D01*
X107695Y164336D01*
X107695Y170014D01*
X107692Y170034D01*
X107694Y170053D01*
X107672Y170155D01*
X107656Y170257D01*
X107646Y170274D01*
X107642Y170294D01*
X107589Y170383D01*
X107540Y170474D01*
X107526Y170488D01*
X107516Y170505D01*
X107437Y170572D01*
X107362Y170644D01*
X107344Y170652D01*
X107329Y170665D01*
X107233Y170704D01*
X107139Y170747D01*
X107119Y170749D01*
X107101Y170757D01*
X106934Y170775D01*
X104468Y170775D01*
X103575Y171668D01*
X103575Y183932D01*
X104468Y184825D01*
X115732Y184825D01*
X116526Y184031D01*
X116584Y183989D01*
X116636Y183939D01*
X116683Y183917D01*
X116725Y183887D01*
X116794Y183866D01*
X116859Y183836D01*
X116911Y183830D01*
X116961Y183815D01*
X117032Y183817D01*
X117103Y183809D01*
X117154Y183820D01*
X117206Y183821D01*
X117274Y183846D01*
X117344Y183861D01*
X117389Y183888D01*
X117437Y183905D01*
X117493Y183950D01*
X117555Y183987D01*
X117589Y184027D01*
X117629Y184059D01*
X117668Y184119D01*
X117715Y184174D01*
X117734Y184222D01*
X117762Y184266D01*
X117780Y184336D01*
X117807Y184402D01*
X117815Y184473D01*
X117823Y184505D01*
X117821Y184528D01*
X117825Y184569D01*
X117825Y184702D01*
X118718Y185595D01*
X130982Y185595D01*
X131875Y184702D01*
X131875Y173438D01*
X130982Y172545D01*
X118718Y172545D01*
X117924Y173339D01*
X117866Y173381D01*
X117814Y173431D01*
X117767Y173453D01*
X117725Y173483D01*
X117656Y173504D01*
X117591Y173534D01*
X117539Y173540D01*
X117489Y173555D01*
X117418Y173553D01*
X117347Y173561D01*
X117296Y173550D01*
X117244Y173549D01*
X117176Y173524D01*
X117106Y173509D01*
X117061Y173482D01*
X117013Y173465D01*
X116957Y173420D01*
X116895Y173383D01*
X116861Y173343D01*
X116821Y173311D01*
X116782Y173251D01*
X116735Y173196D01*
X116716Y173148D01*
X116688Y173104D01*
X116670Y173034D01*
X116643Y172968D01*
X116635Y172897D01*
X116627Y172865D01*
X116629Y172842D01*
X116625Y172801D01*
X116625Y171668D01*
X115732Y170775D01*
X114046Y170775D01*
X114026Y170772D01*
X114007Y170774D01*
X113905Y170752D01*
X113803Y170736D01*
X113786Y170726D01*
X113766Y170722D01*
X113677Y170669D01*
X113586Y170620D01*
X113572Y170606D01*
X113555Y170596D01*
X113488Y170517D01*
X113416Y170442D01*
X113408Y170424D01*
X113395Y170409D01*
X113356Y170313D01*
X113313Y170219D01*
X113311Y170199D01*
X113303Y170181D01*
X113285Y170014D01*
X113285Y164336D01*
X113288Y164316D01*
X113286Y164297D01*
X113308Y164195D01*
X113324Y164093D01*
X113334Y164076D01*
X113338Y164056D01*
X113391Y163967D01*
X113440Y163876D01*
X113454Y163862D01*
X113464Y163845D01*
X113543Y163778D01*
X113618Y163706D01*
X113636Y163698D01*
X113651Y163685D01*
X113747Y163646D01*
X113841Y163603D01*
X113861Y163601D01*
X113879Y163593D01*
X114046Y163575D01*
X118622Y163575D01*
X119515Y162682D01*
X119515Y158106D01*
X119518Y158086D01*
X119516Y158067D01*
X119538Y157965D01*
X119554Y157863D01*
X119564Y157846D01*
X119568Y157826D01*
X119621Y157737D01*
X119670Y157646D01*
X119684Y157632D01*
X119694Y157615D01*
X119773Y157548D01*
X119848Y157476D01*
X119866Y157468D01*
X119881Y157455D01*
X119977Y157416D01*
X120071Y157373D01*
X120091Y157371D01*
X120109Y157363D01*
X120276Y157345D01*
X124794Y157345D01*
X124814Y157348D01*
X124833Y157346D01*
X124935Y157368D01*
X125037Y157384D01*
X125054Y157394D01*
X125074Y157398D01*
X125163Y157451D01*
X125254Y157500D01*
X125268Y157514D01*
X125285Y157524D01*
X125352Y157603D01*
X125424Y157678D01*
X125432Y157696D01*
X125445Y157711D01*
X125484Y157807D01*
X125527Y157901D01*
X125529Y157921D01*
X125537Y157939D01*
X125555Y158106D01*
X125555Y160682D01*
X126448Y161575D01*
X137712Y161575D01*
X137756Y161531D01*
X137814Y161489D01*
X137866Y161439D01*
X137913Y161417D01*
X137955Y161387D01*
X138024Y161366D01*
X138089Y161336D01*
X138141Y161330D01*
X138191Y161315D01*
X138262Y161317D01*
X138333Y161309D01*
X138384Y161320D01*
X138436Y161321D01*
X138504Y161346D01*
X138574Y161361D01*
X138619Y161388D01*
X138667Y161405D01*
X138723Y161450D01*
X138785Y161487D01*
X138819Y161527D01*
X138859Y161559D01*
X138898Y161619D01*
X138945Y161674D01*
X138964Y161722D01*
X138992Y161766D01*
X139010Y161835D01*
X139037Y161902D01*
X139045Y161973D01*
X139053Y162005D01*
X139051Y162028D01*
X139055Y162069D01*
X139055Y171784D01*
X139052Y171804D01*
X139054Y171823D01*
X139032Y171925D01*
X139016Y172027D01*
X139006Y172044D01*
X139002Y172064D01*
X138949Y172153D01*
X138900Y172244D01*
X138886Y172258D01*
X138876Y172275D01*
X138797Y172342D01*
X138722Y172414D01*
X138704Y172422D01*
X138689Y172435D01*
X138593Y172474D01*
X138499Y172517D01*
X138479Y172519D01*
X138461Y172527D01*
X138294Y172545D01*
X135718Y172545D01*
X134825Y173438D01*
X134825Y184702D01*
X135718Y185595D01*
X147982Y185595D01*
X148875Y184702D01*
X148875Y173438D01*
X147982Y172545D01*
X145406Y172545D01*
X145386Y172542D01*
X145367Y172544D01*
X145265Y172522D01*
X145163Y172506D01*
X145146Y172496D01*
X145126Y172492D01*
X145037Y172439D01*
X144946Y172390D01*
X144932Y172376D01*
X144915Y172366D01*
X144848Y172287D01*
X144776Y172212D01*
X144768Y172194D01*
X144755Y172179D01*
X144716Y172083D01*
X144673Y171989D01*
X144671Y171969D01*
X144663Y171951D01*
X144645Y171784D01*
X144645Y146162D01*
X138828Y140345D01*
X138775Y140271D01*
X138715Y140202D01*
X138703Y140172D01*
X138684Y140146D01*
X138657Y140059D01*
X138623Y139974D01*
X138619Y139933D01*
X138612Y139911D01*
X138613Y139878D01*
X138605Y139807D01*
X138605Y131418D01*
X137712Y130525D01*
X126448Y130525D01*
X125555Y131418D01*
X125555Y133994D01*
X125552Y134014D01*
X125554Y134033D01*
X125532Y134135D01*
X125516Y134237D01*
X125506Y134254D01*
X125502Y134274D01*
X125449Y134363D01*
X125400Y134454D01*
X125386Y134468D01*
X125376Y134485D01*
X125297Y134552D01*
X125222Y134624D01*
X125204Y134632D01*
X125189Y134645D01*
X125093Y134684D01*
X124999Y134727D01*
X124979Y134729D01*
X124961Y134737D01*
X124794Y134755D01*
X120276Y134755D01*
X120256Y134752D01*
X120237Y134754D01*
X120135Y134732D01*
X120033Y134716D01*
X120016Y134706D01*
X119996Y134702D01*
X119907Y134649D01*
X119816Y134600D01*
X119802Y134586D01*
X119785Y134576D01*
X119718Y134497D01*
X119646Y134422D01*
X119638Y134404D01*
X119625Y134389D01*
X119586Y134293D01*
X119543Y134199D01*
X119541Y134179D01*
X119533Y134161D01*
X119515Y133994D01*
X119515Y129418D01*
X118622Y128525D01*
X102358Y128525D01*
X101465Y129418D01*
X101465Y132994D01*
X101462Y133014D01*
X101464Y133033D01*
X101442Y133135D01*
X101426Y133237D01*
X101416Y133254D01*
X101412Y133274D01*
X101359Y133363D01*
X101310Y133454D01*
X101296Y133468D01*
X101286Y133485D01*
X101207Y133552D01*
X101132Y133624D01*
X101114Y133632D01*
X101099Y133645D01*
X101003Y133684D01*
X100909Y133727D01*
X100889Y133729D01*
X100871Y133737D01*
X100704Y133755D01*
X98686Y133755D01*
X98666Y133752D01*
X98647Y133754D01*
X98545Y133732D01*
X98443Y133716D01*
X98426Y133706D01*
X98406Y133702D01*
X98317Y133649D01*
X98226Y133600D01*
X98212Y133586D01*
X98195Y133576D01*
X98128Y133497D01*
X98056Y133422D01*
X98048Y133404D01*
X98035Y133389D01*
X97996Y133293D01*
X97953Y133199D01*
X97951Y133179D01*
X97943Y133161D01*
X97925Y132994D01*
X97925Y129418D01*
X97032Y128525D01*
X93726Y128525D01*
X93706Y128522D01*
X93687Y128524D01*
X93585Y128502D01*
X93483Y128486D01*
X93466Y128476D01*
X93446Y128472D01*
X93357Y128419D01*
X93266Y128370D01*
X93252Y128356D01*
X93235Y128346D01*
X93168Y128267D01*
X93096Y128192D01*
X93088Y128174D01*
X93075Y128159D01*
X93036Y128063D01*
X92993Y127969D01*
X92991Y127949D01*
X92983Y127931D01*
X92965Y127764D01*
X92965Y122466D01*
X92968Y122446D01*
X92966Y122427D01*
X92988Y122325D01*
X93004Y122223D01*
X93014Y122206D01*
X93018Y122186D01*
X93071Y122097D01*
X93120Y122006D01*
X93134Y121992D01*
X93144Y121975D01*
X93223Y121908D01*
X93298Y121836D01*
X93316Y121828D01*
X93331Y121815D01*
X93427Y121776D01*
X93521Y121733D01*
X93541Y121731D01*
X93559Y121723D01*
X93726Y121705D01*
X96302Y121705D01*
X97195Y120812D01*
X97195Y109548D01*
X96302Y108655D01*
X84038Y108655D01*
X83145Y109548D01*
X83145Y120812D01*
X84038Y121705D01*
X86614Y121705D01*
X86634Y121708D01*
X86653Y121706D01*
X86755Y121728D01*
X86857Y121744D01*
X86874Y121754D01*
X86894Y121758D01*
X86983Y121811D01*
X87074Y121860D01*
X87088Y121874D01*
X87105Y121884D01*
X87172Y121963D01*
X87244Y122038D01*
X87252Y122056D01*
X87265Y122071D01*
X87304Y122167D01*
X87347Y122261D01*
X87349Y122281D01*
X87357Y122299D01*
X87375Y122466D01*
X87375Y127764D01*
X87372Y127784D01*
X87374Y127803D01*
X87352Y127905D01*
X87336Y128007D01*
X87326Y128024D01*
X87322Y128044D01*
X87269Y128133D01*
X87220Y128224D01*
X87206Y128238D01*
X87196Y128255D01*
X87117Y128322D01*
X87042Y128394D01*
X87024Y128402D01*
X87009Y128415D01*
X86913Y128454D01*
X86819Y128497D01*
X86799Y128499D01*
X86781Y128507D01*
X86614Y128525D01*
X80768Y128525D01*
X79875Y129418D01*
X79875Y133027D01*
X79861Y133117D01*
X79853Y133208D01*
X79841Y133238D01*
X79836Y133270D01*
X79793Y133350D01*
X79757Y133434D01*
X79731Y133466D01*
X79720Y133487D01*
X79697Y133509D01*
X79652Y133565D01*
X73405Y139812D01*
X73405Y144874D01*
X73402Y144894D01*
X73404Y144913D01*
X73382Y145015D01*
X73366Y145117D01*
X73356Y145134D01*
X73352Y145154D01*
X73299Y145243D01*
X73250Y145334D01*
X73236Y145348D01*
X73226Y145365D01*
X73147Y145432D01*
X73072Y145503D01*
X73054Y145512D01*
X73039Y145525D01*
X72943Y145564D01*
X72849Y145607D01*
X72829Y145609D01*
X72811Y145617D01*
X72644Y145635D01*
X57193Y145635D01*
X57103Y145620D01*
X57012Y145613D01*
X56982Y145601D01*
X56950Y145595D01*
X56869Y145553D01*
X56786Y145517D01*
X56753Y145491D01*
X56733Y145480D01*
X56711Y145457D01*
X56655Y145412D01*
X46919Y135677D01*
X46861Y135655D01*
X46820Y135623D01*
X46774Y135598D01*
X46725Y135546D01*
X46669Y135502D01*
X46641Y135458D01*
X46605Y135420D01*
X46575Y135355D01*
X46536Y135295D01*
X46523Y135244D01*
X46501Y135197D01*
X46493Y135126D01*
X46476Y135056D01*
X46480Y135004D01*
X46474Y134953D01*
X46489Y134882D01*
X46495Y134811D01*
X46515Y134763D01*
X46526Y134712D01*
X46563Y134651D01*
X46591Y134585D01*
X46636Y134529D01*
X46652Y134501D01*
X46670Y134486D01*
X46696Y134454D01*
X52972Y128178D01*
X53046Y128125D01*
X53115Y128065D01*
X53146Y128053D01*
X53172Y128034D01*
X53259Y128007D01*
X53344Y127973D01*
X53385Y127969D01*
X53407Y127962D01*
X53439Y127963D01*
X53510Y127955D01*
X56093Y127955D01*
X56183Y127970D01*
X56274Y127977D01*
X56304Y127989D01*
X56336Y127995D01*
X56417Y128037D01*
X56500Y128073D01*
X56533Y128099D01*
X56553Y128110D01*
X56575Y128133D01*
X56631Y128178D01*
X57138Y128685D01*
X72402Y128685D01*
X73295Y127792D01*
X73295Y122528D01*
X72402Y121635D01*
X57138Y121635D01*
X56631Y122142D01*
X56557Y122195D01*
X56488Y122255D01*
X56458Y122267D01*
X56432Y122286D01*
X56345Y122313D01*
X56260Y122347D01*
X56219Y122351D01*
X56197Y122358D01*
X56164Y122357D01*
X56093Y122365D01*
X54875Y122365D01*
X54804Y122354D01*
X54732Y122352D01*
X54683Y122334D01*
X54632Y122326D01*
X54569Y122292D01*
X54501Y122267D01*
X54461Y122235D01*
X54415Y122210D01*
X54365Y122159D01*
X54309Y122114D01*
X54281Y122070D01*
X54245Y122032D01*
X54215Y121967D01*
X54176Y121907D01*
X54164Y121856D01*
X54142Y121809D01*
X54134Y121738D01*
X54116Y121668D01*
X54120Y121616D01*
X54115Y121565D01*
X54130Y121494D01*
X54135Y121423D01*
X54156Y121375D01*
X54167Y121324D01*
X54204Y121263D01*
X54232Y121197D01*
X54277Y121141D01*
X54293Y121113D01*
X54311Y121098D01*
X54337Y121066D01*
X57795Y117608D01*
X57795Y108886D01*
X57798Y108866D01*
X57796Y108847D01*
X57818Y108745D01*
X57834Y108643D01*
X57844Y108626D01*
X57848Y108606D01*
X57901Y108517D01*
X57950Y108426D01*
X57964Y108412D01*
X57974Y108395D01*
X58053Y108328D01*
X58128Y108256D01*
X58146Y108248D01*
X58161Y108235D01*
X58257Y108196D01*
X58351Y108153D01*
X58371Y108151D01*
X58389Y108143D01*
X58556Y108125D01*
X61132Y108125D01*
X62025Y107232D01*
X62025Y95968D01*
X61132Y95075D01*
X59436Y95075D01*
X59416Y95072D01*
X59397Y95074D01*
X59295Y95052D01*
X59193Y95036D01*
X59176Y95026D01*
X59156Y95022D01*
X59067Y94969D01*
X58976Y94920D01*
X58962Y94906D01*
X58945Y94896D01*
X58878Y94817D01*
X58806Y94742D01*
X58798Y94724D01*
X58785Y94709D01*
X58746Y94613D01*
X58703Y94519D01*
X58701Y94499D01*
X58693Y94481D01*
X58675Y94314D01*
X58675Y83932D01*
X55971Y81228D01*
X55959Y81212D01*
X55944Y81200D01*
X55888Y81113D01*
X55827Y81029D01*
X55821Y81010D01*
X55811Y80993D01*
X55785Y80893D01*
X55755Y80794D01*
X55755Y80774D01*
X55750Y80754D01*
X55759Y80651D01*
X55761Y80548D01*
X55768Y80529D01*
X55770Y80509D01*
X55810Y80414D01*
X55846Y80317D01*
X55858Y80301D01*
X55866Y80283D01*
X55971Y80152D01*
X56135Y79988D01*
X56135Y72412D01*
X50778Y67055D01*
X43202Y67055D01*
X37845Y72412D01*
X37845Y79045D01*
X37834Y79116D01*
X37832Y79188D01*
X37814Y79237D01*
X37806Y79288D01*
X37772Y79351D01*
X37747Y79419D01*
X37715Y79459D01*
X37690Y79505D01*
X37638Y79555D01*
X37594Y79611D01*
X37550Y79639D01*
X37512Y79675D01*
X37447Y79705D01*
X37387Y79744D01*
X37336Y79756D01*
X37289Y79778D01*
X37218Y79786D01*
X37148Y79804D01*
X37096Y79800D01*
X37045Y79805D01*
X36975Y79790D01*
X36903Y79785D01*
X36855Y79764D01*
X36804Y79753D01*
X36743Y79716D01*
X36677Y79688D01*
X36621Y79643D01*
X36593Y79627D01*
X36578Y79609D01*
X36546Y79583D01*
X36447Y79485D01*
X36394Y79411D01*
X36334Y79341D01*
X36322Y79311D01*
X36303Y79285D01*
X36277Y79198D01*
X36243Y79113D01*
X36238Y79072D01*
X36231Y79050D01*
X36232Y79018D01*
X36224Y78946D01*
X36224Y28493D01*
X30839Y23108D01*
X30786Y23034D01*
X30726Y22965D01*
X30714Y22935D01*
X30695Y22909D01*
X30669Y22822D01*
X30635Y22737D01*
X30630Y22696D01*
X30623Y22674D01*
X30624Y22641D01*
X30616Y22570D01*
X30616Y20040D01*
X27800Y17224D01*
X25945Y17224D01*
X25846Y17208D01*
X25746Y17198D01*
X25725Y17188D01*
X25702Y17185D01*
X25614Y17138D01*
X25523Y17096D01*
X25506Y17080D01*
X25485Y17070D01*
X25416Y16997D01*
X25343Y16928D01*
X25332Y16908D01*
X25316Y16891D01*
X25273Y16800D01*
X25226Y16712D01*
X25219Y16684D01*
X25212Y16668D01*
X25208Y16635D01*
X25189Y16548D01*
X25185Y16516D01*
X25187Y16481D01*
X25180Y16447D01*
X25193Y16359D01*
X25197Y16270D01*
X25210Y16238D01*
X25215Y16204D01*
X25282Y16050D01*
X26383Y14143D01*
X26405Y14116D01*
X26420Y14085D01*
X26483Y14021D01*
X26539Y13953D01*
X26568Y13934D01*
X26593Y13910D01*
X26662Y13870D01*
X26897Y13271D01*
X26913Y13243D01*
X26946Y13168D01*
X27266Y12614D01*
X27266Y12542D01*
X27257Y12454D01*
X27264Y12420D01*
X27264Y12385D01*
X27308Y12223D01*
X28112Y10173D01*
X28130Y10144D01*
X28140Y10111D01*
X28192Y10039D01*
X28238Y9962D01*
X28264Y9939D01*
X28285Y9911D01*
X28347Y9862D01*
X28490Y9234D01*
X28502Y9204D01*
X28524Y9126D01*
X28757Y8530D01*
X28746Y8459D01*
X28724Y8373D01*
X28727Y8338D01*
X28721Y8304D01*
X28740Y8137D01*
X29230Y5990D01*
X29243Y5958D01*
X29249Y5924D01*
X29290Y5845D01*
X29323Y5763D01*
X29346Y5736D01*
X29362Y5706D01*
X29416Y5648D01*
X29464Y5006D01*
X29472Y4974D01*
X29481Y4893D01*
X29623Y4269D01*
X29602Y4200D01*
X29567Y4119D01*
X29565Y4084D01*
X29554Y4051D01*
X29548Y3883D01*
X29590Y3327D01*
X29617Y3216D01*
X29641Y3104D01*
X29645Y3097D01*
X29647Y3088D01*
X29709Y2991D01*
X29767Y2893D01*
X29774Y2887D01*
X29778Y2880D01*
X29867Y2807D01*
X29954Y2733D01*
X29962Y2730D01*
X29969Y2724D01*
X30075Y2684D01*
X30182Y2641D01*
X30193Y2640D01*
X30199Y2638D01*
X30222Y2637D01*
X30349Y2623D01*
X68020Y2623D01*
X67864Y662D01*
X67868Y633D01*
X67863Y605D01*
X67880Y536D01*
X67888Y464D01*
X67903Y440D01*
X67909Y412D01*
X67952Y354D01*
X67988Y292D01*
X68010Y275D01*
X68027Y252D01*
X68089Y215D01*
X68146Y172D01*
X68174Y165D01*
X68198Y150D01*
X68298Y134D01*
X68339Y123D01*
X68349Y125D01*
X68362Y123D01*
X87362Y123D01*
X87438Y138D01*
G37*
G36*
X-66810Y128D02*
X-66810Y128D01*
X-66782Y126D01*
X-66714Y148D01*
X-66643Y162D01*
X-66620Y178D01*
X-66593Y187D01*
X-66538Y234D01*
X-66479Y275D01*
X-66464Y299D01*
X-66443Y317D01*
X-66411Y382D01*
X-66372Y442D01*
X-66367Y470D01*
X-66355Y496D01*
X-66346Y597D01*
X-66339Y639D01*
X-66341Y649D01*
X-66340Y662D01*
X-66496Y2623D01*
X-28825Y2623D01*
X-28712Y2641D01*
X-28599Y2657D01*
X-28591Y2661D01*
X-28582Y2662D01*
X-28481Y2716D01*
X-28379Y2767D01*
X-28372Y2773D01*
X-28365Y2778D01*
X-28286Y2860D01*
X-28205Y2942D01*
X-28201Y2950D01*
X-28195Y2956D01*
X-28147Y3059D01*
X-28097Y3162D01*
X-28095Y3173D01*
X-28092Y3179D01*
X-28089Y3202D01*
X-28066Y3327D01*
X-28024Y3883D01*
X-28027Y3918D01*
X-28022Y3952D01*
X-28038Y4040D01*
X-28046Y4128D01*
X-28059Y4160D01*
X-28066Y4194D01*
X-28100Y4266D01*
X-27957Y4893D01*
X-27955Y4926D01*
X-27940Y5006D01*
X-27892Y5644D01*
X-27851Y5703D01*
X-27794Y5771D01*
X-27781Y5804D01*
X-27762Y5832D01*
X-27706Y5990D01*
X-27216Y8137D01*
X-27214Y8172D01*
X-27204Y8205D01*
X-27207Y8294D01*
X-27201Y8383D01*
X-27210Y8416D01*
X-27211Y8451D01*
X-27235Y8527D01*
X-27000Y9126D01*
X-26993Y9158D01*
X-26966Y9234D01*
X-26824Y9859D01*
X-26774Y9911D01*
X-26708Y9970D01*
X-26690Y10000D01*
X-26666Y10025D01*
X-26588Y10173D01*
X-25784Y12223D01*
X-25777Y12257D01*
X-25762Y12288D01*
X-25751Y12377D01*
X-25732Y12464D01*
X-25736Y12498D01*
X-25732Y12532D01*
X-25744Y12611D01*
X-25422Y13168D01*
X-25410Y13199D01*
X-25373Y13271D01*
X-25139Y13867D01*
X-25082Y13911D01*
X-25008Y13959D01*
X-24986Y13987D01*
X-24959Y14008D01*
X-24859Y14143D01*
X-23758Y16050D01*
X-23746Y16082D01*
X-23727Y16111D01*
X-23703Y16197D01*
X-23671Y16280D01*
X-23670Y16315D01*
X-23661Y16348D01*
X-23661Y16428D01*
X-23260Y16931D01*
X-23244Y16960D01*
X-23196Y17025D01*
X-22875Y17579D01*
X-22813Y17615D01*
X-22732Y17651D01*
X-22706Y17675D01*
X-22676Y17692D01*
X-22558Y17811D01*
X-21185Y19532D01*
X-21168Y19563D01*
X-21145Y19588D01*
X-21108Y19669D01*
X-21065Y19747D01*
X-21058Y19781D01*
X-21044Y19813D01*
X-21032Y19891D01*
X-20561Y20329D01*
X-20540Y20355D01*
X-20483Y20412D01*
X-20084Y20913D01*
X-20051Y20926D01*
X-20009Y20932D01*
X-19975Y20950D01*
X-19931Y20963D01*
X-19903Y20982D01*
X-19870Y20995D01*
X-19817Y21034D01*
X-19792Y21048D01*
X-19774Y21066D01*
X-19736Y21094D01*
X-18121Y22592D01*
X-18100Y22619D01*
X-18073Y22641D01*
X-18025Y22716D01*
X-17971Y22786D01*
X-17959Y22819D01*
X-17940Y22848D01*
X-17917Y22924D01*
X-17385Y23287D01*
X-17361Y23309D01*
X-17336Y23328D01*
X-17330Y23331D01*
X-17326Y23336D01*
X-17296Y23358D01*
X-16827Y23793D01*
X-16757Y23809D01*
X-16669Y23820D01*
X-16637Y23835D01*
X-16604Y23842D01*
X-16455Y23921D01*
X-14636Y25161D01*
X-14611Y25185D01*
X-14581Y25203D01*
X-14522Y25269D01*
X-14458Y25331D01*
X-14442Y25361D01*
X-14419Y25387D01*
X-14385Y25459D01*
X-13805Y25738D01*
X-13778Y25757D01*
X-13706Y25795D01*
X-13177Y26156D01*
X-13105Y26161D01*
X-13016Y26158D01*
X-12983Y26169D01*
X-12949Y26171D01*
X-12791Y26227D01*
X-10807Y27182D01*
X-10778Y27202D01*
X-10746Y27215D01*
X-10678Y27272D01*
X-10605Y27323D01*
X-10585Y27351D01*
X-10558Y27373D01*
X-10514Y27439D01*
X-9899Y27629D01*
X-9869Y27644D01*
X-9793Y27670D01*
X-9216Y27948D01*
X-9144Y27942D01*
X-9057Y27927D01*
X-9022Y27932D01*
X-8988Y27929D01*
X-8823Y27961D01*
X-6719Y28610D01*
X-6688Y28625D01*
X-6654Y28633D01*
X-6578Y28679D01*
X-6499Y28719D01*
X-6474Y28744D01*
X-6445Y28762D01*
X-6391Y28820D01*
X-5754Y28916D01*
X-5723Y28926D01*
X-5643Y28941D01*
X-5031Y29130D01*
X-4962Y29114D01*
X-4877Y29085D01*
X-4843Y29085D01*
X-4809Y29077D01*
X-4641Y29084D01*
X-2464Y29412D01*
X-2431Y29423D01*
X-2396Y29425D01*
X-2315Y29460D01*
X-2230Y29487D01*
X-2202Y29508D01*
X-2170Y29522D01*
X-2108Y29571D01*
X-1465Y29571D01*
X-1432Y29577D01*
X-1351Y29580D01*
X-718Y29675D01*
X-651Y29648D01*
X-572Y29608D01*
X-538Y29603D01*
X-506Y29590D01*
X-339Y29571D01*
X1863Y29571D01*
X1897Y29577D01*
X1932Y29574D01*
X2018Y29597D01*
X2106Y29611D01*
X2136Y29627D01*
X2170Y29636D01*
X2239Y29676D01*
X2875Y29580D01*
X2908Y29580D01*
X2989Y29571D01*
X3629Y29571D01*
X3691Y29535D01*
X3763Y29483D01*
X3796Y29473D01*
X3826Y29455D01*
X3988Y29412D01*
X6165Y29084D01*
X6200Y29084D01*
X6234Y29077D01*
X6322Y29086D01*
X6411Y29087D01*
X6444Y29098D01*
X6479Y29102D01*
X6552Y29131D01*
X7167Y28941D01*
X7200Y28937D01*
X7278Y28916D01*
X7912Y28821D01*
X7967Y28775D01*
X8031Y28713D01*
X8062Y28698D01*
X8089Y28676D01*
X8243Y28610D01*
X10347Y27961D01*
X10381Y27956D01*
X10414Y27943D01*
X10503Y27939D01*
X10591Y27927D01*
X10625Y27933D01*
X10659Y27932D01*
X10737Y27950D01*
X11317Y27670D01*
X11348Y27661D01*
X11423Y27629D01*
X12034Y27440D01*
X12083Y27387D01*
X12136Y27316D01*
X12165Y27297D01*
X12188Y27271D01*
X12331Y27182D01*
X14315Y26227D01*
X14348Y26217D01*
X14378Y26200D01*
X14465Y26182D01*
X14550Y26157D01*
X14585Y26158D01*
X14619Y26152D01*
X14718Y26159D01*
X14747Y26141D01*
X14798Y26128D01*
X14844Y26106D01*
X14916Y26098D01*
X14986Y26081D01*
X15037Y26085D01*
X15089Y26079D01*
X15159Y26094D01*
X15231Y26100D01*
X15279Y26120D01*
X15329Y26131D01*
X15391Y26168D01*
X15458Y26196D01*
X15513Y26240D01*
X15540Y26257D01*
X15556Y26275D01*
X15589Y26301D01*
X26348Y37060D01*
X26401Y37134D01*
X26460Y37203D01*
X26472Y37234D01*
X26491Y37260D01*
X26518Y37347D01*
X26552Y37432D01*
X26557Y37472D01*
X26564Y37495D01*
X26563Y37527D01*
X26571Y37598D01*
X26571Y85800D01*
X28144Y87374D01*
X28186Y87432D01*
X28235Y87484D01*
X28257Y87531D01*
X28288Y87573D01*
X28309Y87642D01*
X28339Y87707D01*
X28345Y87759D01*
X28360Y87809D01*
X28358Y87880D01*
X28366Y87951D01*
X28355Y88002D01*
X28354Y88054D01*
X28329Y88122D01*
X28314Y88192D01*
X28287Y88237D01*
X28269Y88285D01*
X28224Y88341D01*
X28188Y88403D01*
X28148Y88437D01*
X28115Y88477D01*
X28055Y88516D01*
X28001Y88563D01*
X27952Y88582D01*
X27908Y88610D01*
X27839Y88628D01*
X27772Y88655D01*
X27701Y88663D01*
X27670Y88671D01*
X27647Y88669D01*
X27606Y88673D01*
X23202Y88673D01*
X20093Y91782D01*
X20093Y92654D01*
X20090Y92674D01*
X20092Y92693D01*
X20070Y92795D01*
X20054Y92897D01*
X20044Y92914D01*
X20040Y92934D01*
X19987Y93023D01*
X19938Y93114D01*
X19924Y93128D01*
X19914Y93145D01*
X19835Y93212D01*
X19760Y93284D01*
X19742Y93292D01*
X19727Y93305D01*
X19631Y93344D01*
X19537Y93387D01*
X19517Y93389D01*
X19499Y93397D01*
X19332Y93415D01*
X7838Y93415D01*
X6945Y94308D01*
X6945Y105572D01*
X7024Y105651D01*
X7072Y105717D01*
X7079Y105725D01*
X7082Y105729D01*
X7137Y105794D01*
X7149Y105824D01*
X7168Y105850D01*
X7195Y105937D01*
X7229Y106022D01*
X7233Y106063D01*
X7240Y106085D01*
X7239Y106118D01*
X7247Y106189D01*
X7247Y107214D01*
X7244Y107234D01*
X7246Y107253D01*
X7224Y107355D01*
X7208Y107457D01*
X7198Y107474D01*
X7194Y107494D01*
X7141Y107583D01*
X7092Y107674D01*
X7078Y107688D01*
X7068Y107705D01*
X6989Y107772D01*
X6914Y107844D01*
X6896Y107852D01*
X6881Y107865D01*
X6785Y107904D01*
X6691Y107947D01*
X6671Y107949D01*
X6653Y107957D01*
X6486Y107975D01*
X3595Y107975D01*
X3575Y107972D01*
X3556Y107974D01*
X3454Y107952D01*
X3352Y107936D01*
X3335Y107926D01*
X3315Y107922D01*
X3226Y107869D01*
X3135Y107820D01*
X3121Y107806D01*
X3104Y107796D01*
X3037Y107717D01*
X2965Y107642D01*
X2957Y107624D01*
X2944Y107609D01*
X2905Y107513D01*
X2862Y107419D01*
X2860Y107399D01*
X2852Y107381D01*
X2834Y107214D01*
X2834Y97941D01*
X-5853Y89254D01*
X-5895Y89196D01*
X-5945Y89144D01*
X-5967Y89097D01*
X-5997Y89055D01*
X-6018Y88986D01*
X-6048Y88921D01*
X-6054Y88869D01*
X-6069Y88819D01*
X-6067Y88748D01*
X-6075Y88677D01*
X-6064Y88626D01*
X-6063Y88574D01*
X-6038Y88506D01*
X-6023Y88436D01*
X-5996Y88392D01*
X-5978Y88343D01*
X-5934Y88287D01*
X-5897Y88225D01*
X-5857Y88191D01*
X-5825Y88151D01*
X-5764Y88112D01*
X-5710Y88065D01*
X-5662Y88046D01*
X-5618Y88018D01*
X-5548Y88000D01*
X-5482Y87973D01*
X-5410Y87965D01*
X-5379Y87957D01*
X-5356Y87959D01*
X-5315Y87955D01*
X2092Y87955D01*
X2985Y87062D01*
X2985Y86496D01*
X2988Y86476D01*
X2986Y86457D01*
X3008Y86355D01*
X3024Y86253D01*
X3034Y86236D01*
X3038Y86216D01*
X3091Y86127D01*
X3140Y86036D01*
X3154Y86022D01*
X3164Y86005D01*
X3243Y85938D01*
X3318Y85866D01*
X3336Y85858D01*
X3351Y85845D01*
X3447Y85806D01*
X3541Y85763D01*
X3561Y85761D01*
X3579Y85753D01*
X3746Y85735D01*
X6184Y85735D01*
X6204Y85738D01*
X6223Y85736D01*
X6325Y85758D01*
X6427Y85774D01*
X6444Y85784D01*
X6464Y85788D01*
X6553Y85841D01*
X6644Y85890D01*
X6658Y85904D01*
X6675Y85914D01*
X6742Y85993D01*
X6814Y86068D01*
X6822Y86086D01*
X6835Y86101D01*
X6874Y86197D01*
X6917Y86291D01*
X6919Y86311D01*
X6927Y86329D01*
X6945Y86496D01*
X6945Y88572D01*
X7838Y89465D01*
X20102Y89465D01*
X20995Y88572D01*
X20995Y77308D01*
X20102Y76415D01*
X7838Y76415D01*
X6945Y77308D01*
X6945Y79384D01*
X6942Y79404D01*
X6944Y79423D01*
X6922Y79525D01*
X6906Y79627D01*
X6896Y79644D01*
X6892Y79664D01*
X6839Y79753D01*
X6790Y79844D01*
X6776Y79858D01*
X6766Y79875D01*
X6687Y79942D01*
X6612Y80014D01*
X6594Y80022D01*
X6579Y80035D01*
X6483Y80074D01*
X6389Y80117D01*
X6369Y80119D01*
X6351Y80127D01*
X6184Y80145D01*
X3746Y80145D01*
X3726Y80142D01*
X3707Y80144D01*
X3605Y80122D01*
X3503Y80106D01*
X3486Y80096D01*
X3466Y80092D01*
X3377Y80039D01*
X3286Y79990D01*
X3272Y79976D01*
X3255Y79966D01*
X3188Y79887D01*
X3116Y79812D01*
X3108Y79794D01*
X3095Y79779D01*
X3056Y79683D01*
X3013Y79589D01*
X3011Y79569D01*
X3003Y79551D01*
X2985Y79384D01*
X2985Y77798D01*
X2092Y76905D01*
X-7172Y76905D01*
X-8065Y77798D01*
X-8065Y85205D01*
X-8076Y85276D01*
X-8078Y85348D01*
X-8096Y85397D01*
X-8104Y85448D01*
X-8138Y85511D01*
X-8163Y85579D01*
X-8195Y85619D01*
X-8220Y85665D01*
X-8272Y85715D01*
X-8316Y85771D01*
X-8360Y85799D01*
X-8398Y85835D01*
X-8463Y85865D01*
X-8523Y85904D01*
X-8574Y85916D01*
X-8621Y85938D01*
X-8692Y85946D01*
X-8762Y85964D01*
X-8814Y85960D01*
X-8865Y85965D01*
X-8936Y85950D01*
X-9007Y85945D01*
X-9055Y85924D01*
X-9106Y85913D01*
X-9167Y85876D01*
X-9233Y85848D01*
X-9289Y85803D01*
X-9317Y85787D01*
X-9332Y85769D01*
X-9364Y85743D01*
X-19162Y75945D01*
X-83875Y75945D01*
X-83965Y75931D01*
X-84056Y75923D01*
X-84085Y75911D01*
X-84117Y75906D01*
X-84198Y75863D01*
X-84282Y75827D01*
X-84314Y75801D01*
X-84335Y75790D01*
X-84357Y75767D01*
X-84413Y75722D01*
X-86702Y73433D01*
X-91098Y73433D01*
X-94207Y76542D01*
X-94207Y76943D01*
X-94218Y77014D01*
X-94220Y77085D01*
X-94238Y77134D01*
X-94246Y77186D01*
X-94280Y77249D01*
X-94305Y77316D01*
X-94337Y77357D01*
X-94362Y77403D01*
X-94414Y77452D01*
X-94458Y77508D01*
X-94502Y77537D01*
X-94540Y77572D01*
X-94605Y77603D01*
X-94665Y77641D01*
X-94716Y77654D01*
X-94763Y77676D01*
X-94834Y77684D01*
X-94904Y77702D01*
X-94956Y77697D01*
X-95007Y77703D01*
X-95078Y77688D01*
X-95149Y77682D01*
X-95197Y77662D01*
X-95248Y77651D01*
X-95309Y77614D01*
X-95375Y77586D01*
X-95431Y77541D01*
X-95459Y77525D01*
X-95474Y77507D01*
X-95506Y77481D01*
X-96660Y76327D01*
X-99326Y76327D01*
X-99373Y76319D01*
X-99422Y76321D01*
X-99494Y76300D01*
X-99568Y76288D01*
X-99611Y76265D01*
X-99657Y76251D01*
X-99719Y76208D01*
X-99786Y76172D01*
X-99819Y76137D01*
X-99859Y76110D01*
X-99903Y76049D01*
X-99955Y75994D01*
X-99976Y75950D01*
X-100004Y75911D01*
X-100027Y75839D01*
X-100059Y75771D01*
X-100064Y75723D01*
X-100079Y75677D01*
X-100083Y75549D01*
X-100086Y75527D01*
X-100084Y75520D01*
X-100085Y75509D01*
X-100041Y74917D01*
X-100072Y74853D01*
X-100119Y74777D01*
X-100127Y74743D01*
X-100142Y74712D01*
X-100173Y74547D01*
X-100338Y72349D01*
X-100335Y72315D01*
X-100340Y72280D01*
X-100325Y72193D01*
X-100317Y72104D01*
X-100303Y72072D01*
X-100297Y72038D01*
X-100262Y71967D01*
X-100406Y71339D01*
X-100408Y71306D01*
X-100423Y71227D01*
X-100471Y70588D01*
X-100512Y70530D01*
X-100569Y70461D01*
X-100582Y70429D01*
X-100601Y70401D01*
X-100657Y70242D01*
X-101148Y68093D01*
X-101150Y68059D01*
X-101160Y68026D01*
X-101157Y67937D01*
X-101163Y67848D01*
X-101154Y67814D01*
X-101153Y67780D01*
X-101130Y67704D01*
X-101365Y67105D01*
X-101372Y67073D01*
X-101398Y66996D01*
X-101541Y66372D01*
X-101590Y66320D01*
X-101657Y66261D01*
X-101674Y66231D01*
X-101698Y66206D01*
X-101776Y66057D01*
X-102582Y64006D01*
X-102590Y63972D01*
X-102605Y63941D01*
X-102615Y63852D01*
X-102634Y63765D01*
X-102630Y63731D01*
X-102634Y63696D01*
X-102623Y63618D01*
X-102945Y63061D01*
X-102956Y63030D01*
X-102994Y62958D01*
X-103228Y62362D01*
X-103285Y62318D01*
X-103359Y62270D01*
X-103381Y62243D01*
X-103408Y62221D01*
X-103508Y62086D01*
X-104610Y60178D01*
X-104623Y60145D01*
X-104642Y60116D01*
X-104666Y60031D01*
X-104697Y59948D01*
X-104699Y59913D01*
X-104708Y59879D01*
X-104708Y59800D01*
X-105109Y59297D01*
X-105125Y59268D01*
X-105173Y59203D01*
X-105494Y58649D01*
X-105556Y58613D01*
X-105637Y58577D01*
X-105663Y58553D01*
X-105693Y58536D01*
X-105811Y58417D01*
X-107186Y56694D01*
X-107203Y56664D01*
X-107227Y56639D01*
X-107263Y56558D01*
X-107306Y56480D01*
X-107313Y56446D01*
X-107327Y56414D01*
X-107339Y56336D01*
X-107811Y55898D01*
X-107831Y55872D01*
X-107888Y55815D01*
X-108288Y55314D01*
X-108354Y55289D01*
X-108440Y55265D01*
X-108469Y55245D01*
X-108501Y55233D01*
X-108636Y55133D01*
X-110252Y53634D01*
X-110274Y53607D01*
X-110301Y53585D01*
X-110349Y53510D01*
X-110403Y53440D01*
X-110415Y53407D01*
X-110433Y53378D01*
X-110457Y53302D01*
X-110989Y52940D01*
X-111013Y52917D01*
X-111078Y52869D01*
X-111547Y52433D01*
X-111617Y52418D01*
X-111705Y52407D01*
X-111737Y52392D01*
X-111771Y52385D01*
X-111919Y52306D01*
X-112374Y51996D01*
X-112457Y51917D01*
X-112542Y51840D01*
X-112546Y51832D01*
X-112552Y51826D01*
X-112606Y51725D01*
X-112661Y51625D01*
X-112663Y51616D01*
X-112667Y51609D01*
X-112685Y51496D01*
X-112706Y51383D01*
X-112705Y51375D01*
X-112707Y51366D01*
X-112688Y51253D01*
X-112672Y51140D01*
X-112668Y51130D01*
X-112667Y51123D01*
X-112656Y51103D01*
X-112641Y51068D01*
X-112640Y51063D01*
X-112635Y51056D01*
X-112605Y50986D01*
X-93794Y18405D01*
X-95552Y17573D01*
X-95574Y17556D01*
X-95601Y17546D01*
X-95653Y17497D01*
X-95711Y17454D01*
X-95725Y17429D01*
X-95746Y17410D01*
X-95775Y17344D01*
X-95811Y17282D01*
X-95814Y17254D01*
X-95826Y17228D01*
X-95827Y17156D01*
X-95836Y17085D01*
X-95828Y17058D01*
X-95829Y17029D01*
X-95793Y16934D01*
X-95782Y16894D01*
X-95775Y16885D01*
X-95771Y16873D01*
X-86271Y373D01*
X-86219Y315D01*
X-86173Y252D01*
X-86154Y241D01*
X-86139Y224D01*
X-86069Y190D01*
X-86002Y150D01*
X-85978Y146D01*
X-85960Y138D01*
X-85915Y136D01*
X-85838Y123D01*
X-66838Y123D01*
X-66810Y128D01*
G37*
G36*
X22584Y116251D02*
X22584Y116251D01*
X22687Y116254D01*
X22706Y116261D01*
X22726Y116262D01*
X22821Y116303D01*
X22918Y116338D01*
X22934Y116351D01*
X22952Y116359D01*
X23083Y116464D01*
X23144Y116525D01*
X26948Y116525D01*
X27008Y116464D01*
X27024Y116452D01*
X27037Y116437D01*
X27124Y116381D01*
X27208Y116321D01*
X27227Y116315D01*
X27244Y116304D01*
X27344Y116279D01*
X27443Y116248D01*
X27463Y116249D01*
X27482Y116244D01*
X27585Y116252D01*
X27689Y116255D01*
X27708Y116261D01*
X27728Y116263D01*
X27823Y116303D01*
X27920Y116339D01*
X27936Y116351D01*
X27954Y116359D01*
X28085Y116464D01*
X28145Y116525D01*
X31304Y116525D01*
X31324Y116528D01*
X31343Y116526D01*
X31445Y116548D01*
X31547Y116564D01*
X31564Y116574D01*
X31584Y116578D01*
X31673Y116631D01*
X31764Y116680D01*
X31778Y116694D01*
X31795Y116704D01*
X31862Y116783D01*
X31934Y116858D01*
X31942Y116876D01*
X31955Y116891D01*
X31994Y116987D01*
X32037Y117081D01*
X32039Y117101D01*
X32047Y117119D01*
X32065Y117286D01*
X32065Y120445D01*
X32126Y120505D01*
X32138Y120521D01*
X32153Y120534D01*
X32209Y120621D01*
X32269Y120705D01*
X32275Y120724D01*
X32286Y120741D01*
X32311Y120841D01*
X32342Y120940D01*
X32341Y120960D01*
X32346Y120979D01*
X32338Y121082D01*
X32335Y121186D01*
X32329Y121205D01*
X32327Y121225D01*
X32287Y121320D01*
X32251Y121417D01*
X32239Y121433D01*
X32231Y121451D01*
X32126Y121582D01*
X32065Y121642D01*
X32065Y125446D01*
X32126Y125507D01*
X32138Y125523D01*
X32154Y125535D01*
X32210Y125623D01*
X32270Y125706D01*
X32276Y125725D01*
X32287Y125742D01*
X32312Y125843D01*
X32342Y125942D01*
X32342Y125962D01*
X32347Y125981D01*
X32339Y126084D01*
X32336Y126187D01*
X32329Y126206D01*
X32328Y126226D01*
X32287Y126321D01*
X32252Y126418D01*
X32239Y126434D01*
X32231Y126452D01*
X32126Y126583D01*
X32065Y126644D01*
X32065Y130448D01*
X32126Y130508D01*
X32138Y130524D01*
X32153Y130537D01*
X32209Y130624D01*
X32269Y130708D01*
X32275Y130727D01*
X32286Y130744D01*
X32311Y130844D01*
X32342Y130943D01*
X32341Y130963D01*
X32346Y130982D01*
X32338Y131085D01*
X32335Y131189D01*
X32329Y131208D01*
X32327Y131228D01*
X32287Y131323D01*
X32251Y131420D01*
X32239Y131436D01*
X32231Y131454D01*
X32126Y131585D01*
X32065Y131645D01*
X32065Y135449D01*
X32126Y135509D01*
X32138Y135525D01*
X32153Y135538D01*
X32209Y135625D01*
X32269Y135709D01*
X32275Y135728D01*
X32286Y135745D01*
X32311Y135845D01*
X32342Y135944D01*
X32341Y135964D01*
X32346Y135983D01*
X32338Y136086D01*
X32335Y136190D01*
X32329Y136209D01*
X32327Y136229D01*
X32287Y136324D01*
X32251Y136421D01*
X32239Y136437D01*
X32231Y136455D01*
X32126Y136586D01*
X32065Y136646D01*
X32065Y140450D01*
X32126Y140510D01*
X32138Y140526D01*
X32153Y140539D01*
X32209Y140626D01*
X32269Y140710D01*
X32275Y140729D01*
X32286Y140746D01*
X32311Y140846D01*
X32342Y140945D01*
X32341Y140965D01*
X32346Y140984D01*
X32338Y141087D01*
X32335Y141191D01*
X32329Y141210D01*
X32327Y141230D01*
X32287Y141325D01*
X32251Y141422D01*
X32239Y141438D01*
X32231Y141456D01*
X32126Y141587D01*
X32065Y141647D01*
X32065Y145451D01*
X32126Y145512D01*
X32138Y145528D01*
X32154Y145540D01*
X32210Y145628D01*
X32270Y145711D01*
X32276Y145730D01*
X32287Y145747D01*
X32312Y145848D01*
X32342Y145947D01*
X32342Y145967D01*
X32347Y145986D01*
X32339Y146089D01*
X32336Y146192D01*
X32329Y146211D01*
X32328Y146231D01*
X32287Y146326D01*
X32252Y146423D01*
X32239Y146439D01*
X32231Y146457D01*
X32126Y146588D01*
X32065Y146649D01*
X32065Y150453D01*
X32126Y150513D01*
X32138Y150529D01*
X32153Y150542D01*
X32209Y150629D01*
X32269Y150713D01*
X32275Y150732D01*
X32286Y150749D01*
X32311Y150849D01*
X32342Y150948D01*
X32341Y150968D01*
X32346Y150987D01*
X32338Y151090D01*
X32335Y151194D01*
X32329Y151213D01*
X32327Y151233D01*
X32287Y151328D01*
X32282Y151341D01*
X32281Y151346D01*
X32278Y151350D01*
X32251Y151425D01*
X32239Y151441D01*
X32231Y151459D01*
X32162Y151545D01*
X32154Y151557D01*
X32146Y151564D01*
X32126Y151590D01*
X32065Y151650D01*
X32065Y155454D01*
X32126Y155514D01*
X32138Y155530D01*
X32153Y155543D01*
X32209Y155630D01*
X32269Y155714D01*
X32275Y155733D01*
X32286Y155750D01*
X32311Y155850D01*
X32342Y155949D01*
X32341Y155969D01*
X32346Y155988D01*
X32338Y156091D01*
X32335Y156195D01*
X32329Y156214D01*
X32327Y156234D01*
X32287Y156329D01*
X32251Y156426D01*
X32239Y156442D01*
X32231Y156460D01*
X32126Y156591D01*
X32065Y156651D01*
X32065Y160455D01*
X32126Y160515D01*
X32138Y160531D01*
X32153Y160544D01*
X32209Y160631D01*
X32269Y160715D01*
X32275Y160734D01*
X32286Y160751D01*
X32311Y160851D01*
X32342Y160950D01*
X32341Y160970D01*
X32346Y160989D01*
X32338Y161092D01*
X32335Y161196D01*
X32329Y161215D01*
X32327Y161235D01*
X32287Y161330D01*
X32251Y161427D01*
X32239Y161443D01*
X32231Y161461D01*
X32126Y161592D01*
X32065Y161652D01*
X32065Y165456D01*
X32126Y165517D01*
X32138Y165533D01*
X32154Y165545D01*
X32210Y165633D01*
X32270Y165716D01*
X32276Y165735D01*
X32287Y165752D01*
X32312Y165853D01*
X32342Y165952D01*
X32342Y165972D01*
X32347Y165991D01*
X32339Y166094D01*
X32336Y166197D01*
X32329Y166216D01*
X32328Y166236D01*
X32287Y166331D01*
X32252Y166428D01*
X32239Y166444D01*
X32231Y166462D01*
X32126Y166593D01*
X32065Y166654D01*
X32065Y170458D01*
X32126Y170518D01*
X32138Y170534D01*
X32153Y170547D01*
X32209Y170634D01*
X32269Y170718D01*
X32275Y170737D01*
X32286Y170754D01*
X32311Y170854D01*
X32342Y170953D01*
X32341Y170973D01*
X32346Y170992D01*
X32338Y171095D01*
X32335Y171199D01*
X32329Y171218D01*
X32327Y171238D01*
X32287Y171333D01*
X32251Y171430D01*
X32239Y171446D01*
X32231Y171464D01*
X32126Y171595D01*
X32065Y171655D01*
X32065Y174814D01*
X32062Y174834D01*
X32064Y174853D01*
X32042Y174955D01*
X32026Y175057D01*
X32016Y175074D01*
X32012Y175094D01*
X31959Y175183D01*
X31910Y175274D01*
X31896Y175288D01*
X31886Y175305D01*
X31807Y175372D01*
X31732Y175444D01*
X31714Y175452D01*
X31699Y175465D01*
X31603Y175504D01*
X31509Y175547D01*
X31489Y175549D01*
X31471Y175557D01*
X31304Y175575D01*
X28145Y175575D01*
X28085Y175636D01*
X28069Y175648D01*
X28056Y175663D01*
X27969Y175719D01*
X27885Y175779D01*
X27866Y175785D01*
X27849Y175796D01*
X27749Y175821D01*
X27650Y175852D01*
X27630Y175851D01*
X27611Y175856D01*
X27508Y175848D01*
X27404Y175845D01*
X27385Y175839D01*
X27365Y175837D01*
X27270Y175797D01*
X27173Y175761D01*
X27157Y175749D01*
X27139Y175741D01*
X27008Y175636D01*
X26948Y175575D01*
X23144Y175575D01*
X23083Y175636D01*
X23067Y175648D01*
X23055Y175664D01*
X22967Y175720D01*
X22884Y175780D01*
X22865Y175786D01*
X22848Y175797D01*
X22747Y175822D01*
X22648Y175852D01*
X22628Y175852D01*
X22609Y175857D01*
X22506Y175849D01*
X22403Y175846D01*
X22384Y175839D01*
X22364Y175838D01*
X22269Y175797D01*
X22172Y175762D01*
X22156Y175749D01*
X22138Y175741D01*
X22007Y175636D01*
X21946Y175575D01*
X18142Y175575D01*
X18082Y175636D01*
X18066Y175648D01*
X18053Y175663D01*
X17966Y175719D01*
X17882Y175779D01*
X17863Y175785D01*
X17846Y175796D01*
X17746Y175821D01*
X17647Y175852D01*
X17627Y175851D01*
X17608Y175856D01*
X17505Y175848D01*
X17401Y175845D01*
X17382Y175839D01*
X17362Y175837D01*
X17267Y175797D01*
X17170Y175761D01*
X17154Y175749D01*
X17136Y175741D01*
X17005Y175636D01*
X16945Y175575D01*
X13141Y175575D01*
X13081Y175636D01*
X13065Y175648D01*
X13052Y175663D01*
X12965Y175719D01*
X12881Y175779D01*
X12862Y175785D01*
X12845Y175796D01*
X12745Y175821D01*
X12646Y175852D01*
X12626Y175851D01*
X12607Y175856D01*
X12504Y175848D01*
X12400Y175845D01*
X12381Y175839D01*
X12361Y175837D01*
X12266Y175797D01*
X12169Y175761D01*
X12153Y175749D01*
X12135Y175741D01*
X12004Y175636D01*
X11944Y175575D01*
X8140Y175575D01*
X8080Y175636D01*
X8064Y175648D01*
X8051Y175663D01*
X7964Y175719D01*
X7880Y175779D01*
X7861Y175785D01*
X7844Y175796D01*
X7744Y175821D01*
X7645Y175852D01*
X7625Y175851D01*
X7606Y175856D01*
X7503Y175848D01*
X7399Y175845D01*
X7380Y175839D01*
X7360Y175837D01*
X7265Y175797D01*
X7168Y175761D01*
X7152Y175749D01*
X7134Y175741D01*
X7003Y175636D01*
X6943Y175575D01*
X3139Y175575D01*
X3078Y175636D01*
X3062Y175648D01*
X3050Y175664D01*
X2962Y175720D01*
X2879Y175780D01*
X2860Y175786D01*
X2843Y175797D01*
X2742Y175822D01*
X2643Y175852D01*
X2623Y175852D01*
X2604Y175857D01*
X2501Y175849D01*
X2398Y175846D01*
X2379Y175839D01*
X2359Y175838D01*
X2264Y175797D01*
X2167Y175762D01*
X2151Y175749D01*
X2133Y175741D01*
X2002Y175636D01*
X1941Y175575D01*
X-1863Y175575D01*
X-1923Y175636D01*
X-1939Y175648D01*
X-1952Y175663D01*
X-2039Y175719D01*
X-2123Y175779D01*
X-2142Y175785D01*
X-2159Y175796D01*
X-2259Y175821D01*
X-2358Y175852D01*
X-2378Y175851D01*
X-2397Y175856D01*
X-2500Y175848D01*
X-2604Y175845D01*
X-2623Y175839D01*
X-2643Y175837D01*
X-2738Y175797D01*
X-2835Y175761D01*
X-2851Y175749D01*
X-2869Y175741D01*
X-3000Y175636D01*
X-3060Y175575D01*
X-6864Y175575D01*
X-6924Y175636D01*
X-6940Y175648D01*
X-6953Y175663D01*
X-7040Y175719D01*
X-7124Y175779D01*
X-7143Y175785D01*
X-7160Y175796D01*
X-7260Y175821D01*
X-7359Y175852D01*
X-7379Y175851D01*
X-7398Y175856D01*
X-7501Y175848D01*
X-7605Y175845D01*
X-7624Y175839D01*
X-7644Y175837D01*
X-7739Y175797D01*
X-7836Y175761D01*
X-7852Y175749D01*
X-7870Y175741D01*
X-8001Y175636D01*
X-8061Y175575D01*
X-11865Y175575D01*
X-11925Y175636D01*
X-11941Y175648D01*
X-11954Y175663D01*
X-12041Y175719D01*
X-12125Y175779D01*
X-12144Y175785D01*
X-12161Y175796D01*
X-12261Y175821D01*
X-12360Y175852D01*
X-12380Y175851D01*
X-12399Y175856D01*
X-12502Y175848D01*
X-12606Y175845D01*
X-12625Y175839D01*
X-12645Y175837D01*
X-12740Y175797D01*
X-12837Y175761D01*
X-12853Y175749D01*
X-12871Y175741D01*
X-13002Y175636D01*
X-13062Y175575D01*
X-16866Y175575D01*
X-16927Y175636D01*
X-16943Y175648D01*
X-16955Y175664D01*
X-17043Y175720D01*
X-17126Y175780D01*
X-17145Y175786D01*
X-17162Y175797D01*
X-17263Y175822D01*
X-17362Y175852D01*
X-17382Y175852D01*
X-17401Y175857D01*
X-17504Y175849D01*
X-17607Y175846D01*
X-17626Y175839D01*
X-17646Y175838D01*
X-17741Y175797D01*
X-17838Y175762D01*
X-17854Y175749D01*
X-17872Y175741D01*
X-18003Y175636D01*
X-18064Y175575D01*
X-21868Y175575D01*
X-21928Y175636D01*
X-21944Y175648D01*
X-21957Y175663D01*
X-22044Y175719D01*
X-22128Y175779D01*
X-22147Y175785D01*
X-22164Y175796D01*
X-22264Y175821D01*
X-22363Y175852D01*
X-22383Y175851D01*
X-22402Y175856D01*
X-22505Y175848D01*
X-22609Y175845D01*
X-22628Y175839D01*
X-22648Y175837D01*
X-22743Y175797D01*
X-22840Y175761D01*
X-22856Y175749D01*
X-22874Y175741D01*
X-23005Y175636D01*
X-23065Y175575D01*
X-26224Y175575D01*
X-26244Y175572D01*
X-26263Y175574D01*
X-26365Y175552D01*
X-26467Y175536D01*
X-26484Y175526D01*
X-26504Y175522D01*
X-26593Y175469D01*
X-26684Y175420D01*
X-26698Y175406D01*
X-26715Y175396D01*
X-26782Y175317D01*
X-26854Y175242D01*
X-26862Y175224D01*
X-26875Y175209D01*
X-26914Y175113D01*
X-26957Y175019D01*
X-26959Y174999D01*
X-26967Y174981D01*
X-26985Y174814D01*
X-26985Y171655D01*
X-27046Y171595D01*
X-27058Y171579D01*
X-27073Y171566D01*
X-27129Y171479D01*
X-27189Y171395D01*
X-27195Y171376D01*
X-27206Y171359D01*
X-27231Y171259D01*
X-27262Y171160D01*
X-27261Y171140D01*
X-27266Y171121D01*
X-27258Y171018D01*
X-27255Y170914D01*
X-27249Y170895D01*
X-27247Y170875D01*
X-27207Y170780D01*
X-27171Y170683D01*
X-27159Y170667D01*
X-27151Y170649D01*
X-27046Y170518D01*
X-26985Y170458D01*
X-26985Y166654D01*
X-27046Y166593D01*
X-27058Y166577D01*
X-27074Y166565D01*
X-27130Y166477D01*
X-27190Y166394D01*
X-27196Y166375D01*
X-27207Y166358D01*
X-27232Y166257D01*
X-27262Y166158D01*
X-27262Y166138D01*
X-27267Y166119D01*
X-27259Y166016D01*
X-27256Y165913D01*
X-27249Y165894D01*
X-27248Y165874D01*
X-27207Y165779D01*
X-27172Y165682D01*
X-27159Y165666D01*
X-27151Y165648D01*
X-27046Y165517D01*
X-26985Y165456D01*
X-26985Y161652D01*
X-27046Y161592D01*
X-27058Y161576D01*
X-27073Y161563D01*
X-27129Y161476D01*
X-27189Y161392D01*
X-27195Y161373D01*
X-27206Y161356D01*
X-27231Y161256D01*
X-27262Y161157D01*
X-27261Y161137D01*
X-27266Y161118D01*
X-27258Y161015D01*
X-27255Y160911D01*
X-27249Y160892D01*
X-27247Y160872D01*
X-27207Y160777D01*
X-27171Y160680D01*
X-27159Y160664D01*
X-27151Y160646D01*
X-27046Y160515D01*
X-26985Y160455D01*
X-26985Y156651D01*
X-27046Y156591D01*
X-27058Y156575D01*
X-27073Y156562D01*
X-27129Y156475D01*
X-27189Y156391D01*
X-27195Y156372D01*
X-27206Y156355D01*
X-27231Y156255D01*
X-27262Y156156D01*
X-27261Y156136D01*
X-27266Y156117D01*
X-27258Y156014D01*
X-27255Y155910D01*
X-27249Y155891D01*
X-27247Y155871D01*
X-27207Y155776D01*
X-27171Y155679D01*
X-27159Y155663D01*
X-27151Y155645D01*
X-27046Y155514D01*
X-26985Y155454D01*
X-26985Y151650D01*
X-27046Y151590D01*
X-27058Y151574D01*
X-27073Y151561D01*
X-27103Y151515D01*
X-27122Y151495D01*
X-27136Y151464D01*
X-27189Y151390D01*
X-27195Y151371D01*
X-27206Y151354D01*
X-27231Y151254D01*
X-27262Y151155D01*
X-27261Y151135D01*
X-27266Y151116D01*
X-27258Y151013D01*
X-27255Y150909D01*
X-27249Y150890D01*
X-27247Y150870D01*
X-27207Y150775D01*
X-27171Y150678D01*
X-27159Y150662D01*
X-27151Y150644D01*
X-27046Y150513D01*
X-26985Y150453D01*
X-26985Y146649D01*
X-27046Y146588D01*
X-27058Y146572D01*
X-27074Y146560D01*
X-27130Y146472D01*
X-27190Y146389D01*
X-27196Y146370D01*
X-27207Y146353D01*
X-27232Y146252D01*
X-27262Y146153D01*
X-27262Y146133D01*
X-27267Y146114D01*
X-27259Y146011D01*
X-27256Y145908D01*
X-27249Y145889D01*
X-27248Y145869D01*
X-27207Y145774D01*
X-27172Y145677D01*
X-27159Y145661D01*
X-27151Y145643D01*
X-27046Y145512D01*
X-26985Y145451D01*
X-26985Y141647D01*
X-27046Y141587D01*
X-27058Y141571D01*
X-27073Y141558D01*
X-27129Y141471D01*
X-27189Y141387D01*
X-27195Y141368D01*
X-27206Y141351D01*
X-27231Y141251D01*
X-27262Y141152D01*
X-27261Y141132D01*
X-27266Y141113D01*
X-27258Y141010D01*
X-27255Y140906D01*
X-27249Y140887D01*
X-27247Y140867D01*
X-27207Y140772D01*
X-27171Y140675D01*
X-27159Y140659D01*
X-27151Y140641D01*
X-27046Y140510D01*
X-26985Y140450D01*
X-26985Y136646D01*
X-27046Y136586D01*
X-27058Y136570D01*
X-27073Y136557D01*
X-27129Y136470D01*
X-27189Y136386D01*
X-27195Y136367D01*
X-27206Y136350D01*
X-27231Y136250D01*
X-27262Y136151D01*
X-27261Y136131D01*
X-27266Y136112D01*
X-27258Y136009D01*
X-27255Y135905D01*
X-27249Y135886D01*
X-27247Y135866D01*
X-27207Y135771D01*
X-27171Y135674D01*
X-27159Y135658D01*
X-27151Y135640D01*
X-27046Y135509D01*
X-26985Y135449D01*
X-26985Y131645D01*
X-27046Y131585D01*
X-27058Y131569D01*
X-27073Y131556D01*
X-27129Y131469D01*
X-27189Y131385D01*
X-27195Y131366D01*
X-27206Y131349D01*
X-27231Y131249D01*
X-27262Y131150D01*
X-27261Y131130D01*
X-27266Y131111D01*
X-27258Y131008D01*
X-27255Y130904D01*
X-27249Y130885D01*
X-27247Y130865D01*
X-27207Y130770D01*
X-27171Y130673D01*
X-27159Y130657D01*
X-27151Y130639D01*
X-27046Y130508D01*
X-26985Y130448D01*
X-26985Y126644D01*
X-27046Y126583D01*
X-27058Y126567D01*
X-27074Y126555D01*
X-27130Y126467D01*
X-27190Y126384D01*
X-27196Y126365D01*
X-27207Y126348D01*
X-27232Y126247D01*
X-27262Y126148D01*
X-27262Y126128D01*
X-27267Y126109D01*
X-27259Y126006D01*
X-27256Y125903D01*
X-27249Y125884D01*
X-27248Y125864D01*
X-27207Y125769D01*
X-27172Y125672D01*
X-27159Y125656D01*
X-27151Y125638D01*
X-27046Y125507D01*
X-26985Y125446D01*
X-26985Y121642D01*
X-27046Y121582D01*
X-27058Y121566D01*
X-27073Y121553D01*
X-27129Y121466D01*
X-27189Y121382D01*
X-27195Y121363D01*
X-27206Y121346D01*
X-27231Y121246D01*
X-27262Y121147D01*
X-27261Y121127D01*
X-27266Y121108D01*
X-27258Y121005D01*
X-27255Y120901D01*
X-27249Y120882D01*
X-27247Y120862D01*
X-27207Y120767D01*
X-27171Y120670D01*
X-27159Y120654D01*
X-27151Y120636D01*
X-27046Y120505D01*
X-26985Y120445D01*
X-26985Y117286D01*
X-26982Y117266D01*
X-26984Y117247D01*
X-26962Y117145D01*
X-26946Y117043D01*
X-26936Y117026D01*
X-26932Y117006D01*
X-26879Y116917D01*
X-26830Y116826D01*
X-26816Y116812D01*
X-26806Y116795D01*
X-26727Y116728D01*
X-26652Y116656D01*
X-26634Y116648D01*
X-26619Y116635D01*
X-26523Y116596D01*
X-26429Y116553D01*
X-26409Y116551D01*
X-26391Y116543D01*
X-26224Y116525D01*
X-23065Y116525D01*
X-23005Y116464D01*
X-22989Y116452D01*
X-22976Y116437D01*
X-22889Y116381D01*
X-22805Y116321D01*
X-22786Y116315D01*
X-22769Y116304D01*
X-22669Y116279D01*
X-22570Y116248D01*
X-22550Y116249D01*
X-22531Y116244D01*
X-22428Y116252D01*
X-22324Y116255D01*
X-22305Y116261D01*
X-22285Y116263D01*
X-22190Y116303D01*
X-22093Y116339D01*
X-22077Y116351D01*
X-22059Y116359D01*
X-21928Y116464D01*
X-21868Y116525D01*
X-18064Y116525D01*
X-18003Y116464D01*
X-17987Y116452D01*
X-17975Y116436D01*
X-17887Y116380D01*
X-17804Y116320D01*
X-17785Y116314D01*
X-17768Y116303D01*
X-17667Y116278D01*
X-17568Y116248D01*
X-17548Y116248D01*
X-17529Y116243D01*
X-17426Y116251D01*
X-17323Y116254D01*
X-17304Y116261D01*
X-17284Y116262D01*
X-17189Y116303D01*
X-17092Y116338D01*
X-17076Y116351D01*
X-17058Y116359D01*
X-16927Y116464D01*
X-16866Y116525D01*
X-13062Y116525D01*
X-13002Y116464D01*
X-12986Y116452D01*
X-12973Y116437D01*
X-12886Y116381D01*
X-12802Y116321D01*
X-12783Y116315D01*
X-12766Y116304D01*
X-12666Y116279D01*
X-12567Y116248D01*
X-12547Y116249D01*
X-12528Y116244D01*
X-12425Y116252D01*
X-12321Y116255D01*
X-12302Y116261D01*
X-12282Y116263D01*
X-12187Y116303D01*
X-12090Y116339D01*
X-12074Y116351D01*
X-12056Y116359D01*
X-11925Y116464D01*
X-11865Y116525D01*
X-8061Y116525D01*
X-8001Y116464D01*
X-7985Y116452D01*
X-7972Y116437D01*
X-7885Y116381D01*
X-7801Y116321D01*
X-7782Y116315D01*
X-7765Y116304D01*
X-7665Y116279D01*
X-7566Y116248D01*
X-7546Y116249D01*
X-7527Y116244D01*
X-7424Y116252D01*
X-7320Y116255D01*
X-7301Y116261D01*
X-7281Y116263D01*
X-7186Y116303D01*
X-7089Y116339D01*
X-7073Y116351D01*
X-7055Y116359D01*
X-6924Y116464D01*
X-6864Y116525D01*
X-3060Y116525D01*
X-3000Y116464D01*
X-2984Y116452D01*
X-2971Y116437D01*
X-2884Y116381D01*
X-2800Y116321D01*
X-2781Y116315D01*
X-2764Y116304D01*
X-2664Y116279D01*
X-2565Y116248D01*
X-2545Y116249D01*
X-2526Y116244D01*
X-2423Y116252D01*
X-2319Y116255D01*
X-2300Y116261D01*
X-2280Y116263D01*
X-2185Y116303D01*
X-2088Y116339D01*
X-2072Y116351D01*
X-2054Y116359D01*
X-1923Y116464D01*
X-1863Y116525D01*
X1941Y116525D01*
X2002Y116464D01*
X2018Y116452D01*
X2030Y116436D01*
X2118Y116380D01*
X2201Y116320D01*
X2220Y116314D01*
X2237Y116303D01*
X2338Y116278D01*
X2437Y116248D01*
X2457Y116248D01*
X2476Y116243D01*
X2579Y116251D01*
X2682Y116254D01*
X2701Y116261D01*
X2721Y116262D01*
X2816Y116303D01*
X2913Y116338D01*
X2929Y116351D01*
X2947Y116359D01*
X3078Y116464D01*
X3139Y116525D01*
X6943Y116525D01*
X7003Y116464D01*
X7019Y116452D01*
X7032Y116437D01*
X7119Y116381D01*
X7203Y116321D01*
X7222Y116315D01*
X7239Y116304D01*
X7339Y116279D01*
X7438Y116248D01*
X7458Y116249D01*
X7477Y116244D01*
X7580Y116252D01*
X7684Y116255D01*
X7703Y116261D01*
X7723Y116263D01*
X7818Y116303D01*
X7915Y116339D01*
X7931Y116351D01*
X7949Y116359D01*
X8080Y116464D01*
X8140Y116525D01*
X11944Y116525D01*
X12004Y116464D01*
X12020Y116452D01*
X12033Y116437D01*
X12120Y116381D01*
X12204Y116321D01*
X12223Y116315D01*
X12240Y116304D01*
X12340Y116279D01*
X12439Y116248D01*
X12459Y116249D01*
X12478Y116244D01*
X12581Y116252D01*
X12685Y116255D01*
X12704Y116261D01*
X12724Y116263D01*
X12819Y116303D01*
X12916Y116339D01*
X12932Y116351D01*
X12950Y116359D01*
X13081Y116464D01*
X13141Y116525D01*
X16945Y116525D01*
X17005Y116464D01*
X17021Y116452D01*
X17034Y116437D01*
X17121Y116381D01*
X17205Y116321D01*
X17224Y116315D01*
X17241Y116304D01*
X17341Y116279D01*
X17440Y116248D01*
X17460Y116249D01*
X17479Y116244D01*
X17582Y116252D01*
X17686Y116255D01*
X17705Y116261D01*
X17725Y116263D01*
X17820Y116303D01*
X17917Y116339D01*
X17933Y116351D01*
X17951Y116359D01*
X18082Y116464D01*
X18142Y116525D01*
X21946Y116525D01*
X22007Y116464D01*
X22023Y116452D01*
X22035Y116436D01*
X22123Y116380D01*
X22206Y116320D01*
X22225Y116314D01*
X22242Y116303D01*
X22343Y116278D01*
X22442Y116248D01*
X22462Y116248D01*
X22481Y116243D01*
X22584Y116251D01*
G37*
G36*
X-116375Y101729D02*
X-116375Y101729D01*
X-116256Y101732D01*
X-116252Y101734D01*
X-116248Y101734D01*
X-116137Y101776D01*
X-116025Y101817D01*
X-116022Y101819D01*
X-116018Y101821D01*
X-115926Y101896D01*
X-115833Y101970D01*
X-115831Y101974D01*
X-115827Y101977D01*
X-115765Y102076D01*
X-115700Y102177D01*
X-115699Y102182D01*
X-115697Y102185D01*
X-115669Y102301D01*
X-115640Y102416D01*
X-115641Y102420D01*
X-115640Y102425D01*
X-115650Y102544D01*
X-115659Y102661D01*
X-115661Y102665D01*
X-115662Y102670D01*
X-115710Y102779D01*
X-115756Y102887D01*
X-115759Y102891D01*
X-115761Y102895D01*
X-115771Y102906D01*
X-115861Y103018D01*
X-128525Y115682D01*
X-128525Y187852D01*
X-128539Y187942D01*
X-128547Y188033D01*
X-128559Y188063D01*
X-128564Y188095D01*
X-128607Y188176D01*
X-128643Y188260D01*
X-128669Y188292D01*
X-128680Y188312D01*
X-128703Y188335D01*
X-128748Y188391D01*
X-131037Y190680D01*
X-131037Y195076D01*
X-130763Y195349D01*
X-130754Y195362D01*
X-130742Y195371D01*
X-130683Y195461D01*
X-130620Y195549D01*
X-130615Y195563D01*
X-130607Y195576D01*
X-130579Y195681D01*
X-130547Y195784D01*
X-130548Y195799D01*
X-130544Y195814D01*
X-130551Y195922D01*
X-130554Y196030D01*
X-130559Y196044D01*
X-130560Y196059D01*
X-130601Y196159D01*
X-130638Y196261D01*
X-130647Y196273D01*
X-130653Y196287D01*
X-130724Y196368D01*
X-130792Y196453D01*
X-130804Y196461D01*
X-130814Y196473D01*
X-130907Y196527D01*
X-130999Y196586D01*
X-131013Y196590D01*
X-131026Y196597D01*
X-131188Y196640D01*
X-131243Y196649D01*
X-131276Y196648D01*
X-131356Y196657D01*
X-131997Y196657D01*
X-132059Y196693D01*
X-132131Y196745D01*
X-132164Y196755D01*
X-132194Y196773D01*
X-132356Y196816D01*
X-134536Y197144D01*
X-134570Y197143D01*
X-134604Y197151D01*
X-134692Y197142D01*
X-134781Y197141D01*
X-134814Y197129D01*
X-134849Y197126D01*
X-134923Y197096D01*
X-135538Y197286D01*
X-135570Y197290D01*
X-135649Y197311D01*
X-136282Y197406D01*
X-136338Y197452D01*
X-136401Y197514D01*
X-136432Y197529D01*
X-136459Y197551D01*
X-136613Y197617D01*
X-138720Y198266D01*
X-138754Y198271D01*
X-138786Y198284D01*
X-138875Y198288D01*
X-138963Y198300D01*
X-138997Y198293D01*
X-139032Y198295D01*
X-139109Y198277D01*
X-139689Y198556D01*
X-139721Y198566D01*
X-139795Y198598D01*
X-140407Y198786D01*
X-140456Y198839D01*
X-140509Y198910D01*
X-140538Y198930D01*
X-140561Y198955D01*
X-140704Y199044D01*
X-141216Y199291D01*
X-141325Y199323D01*
X-141435Y199358D01*
X-141444Y199358D01*
X-141452Y199360D01*
X-141567Y199356D01*
X-141681Y199354D01*
X-141689Y199351D01*
X-141698Y199351D01*
X-141805Y199310D01*
X-141913Y199272D01*
X-141920Y199267D01*
X-141928Y199264D01*
X-142017Y199191D01*
X-142106Y199121D01*
X-142113Y199112D01*
X-142118Y199108D01*
X-142131Y199088D01*
X-142206Y198986D01*
X-161017Y166403D01*
X-162654Y167533D01*
X-162681Y167544D01*
X-162703Y167563D01*
X-162772Y167583D01*
X-162837Y167611D01*
X-162866Y167611D01*
X-162894Y167619D01*
X-162965Y167611D01*
X-163036Y167612D01*
X-163063Y167600D01*
X-163092Y167597D01*
X-163154Y167562D01*
X-163219Y167534D01*
X-163240Y167514D01*
X-163265Y167499D01*
X-163328Y167422D01*
X-163358Y167392D01*
X-163362Y167382D01*
X-163371Y167371D01*
X-172871Y150871D01*
X-172895Y150798D01*
X-172926Y150728D01*
X-172926Y150704D01*
X-172934Y150682D01*
X-172928Y150606D01*
X-172929Y150529D01*
X-172919Y150505D01*
X-172918Y150484D01*
X-172897Y150445D01*
X-172878Y150393D01*
X-172877Y150387D01*
X-172875Y150385D01*
X-172871Y150373D01*
X-163371Y133873D01*
X-163352Y133851D01*
X-163339Y133825D01*
X-163286Y133777D01*
X-163239Y133724D01*
X-163213Y133711D01*
X-163192Y133692D01*
X-163124Y133669D01*
X-163060Y133638D01*
X-163031Y133637D01*
X-163004Y133627D01*
X-162932Y133632D01*
X-162861Y133629D01*
X-162834Y133639D01*
X-162805Y133641D01*
X-162715Y133683D01*
X-162675Y133698D01*
X-162667Y133705D01*
X-162654Y133711D01*
X-161017Y134841D01*
X-142206Y102258D01*
X-142133Y102169D01*
X-142063Y102080D01*
X-142056Y102075D01*
X-142050Y102068D01*
X-141953Y102007D01*
X-141858Y101944D01*
X-141849Y101942D01*
X-141842Y101937D01*
X-141730Y101910D01*
X-141620Y101881D01*
X-141611Y101882D01*
X-141603Y101880D01*
X-141489Y101890D01*
X-141375Y101897D01*
X-141365Y101901D01*
X-141358Y101902D01*
X-141336Y101911D01*
X-141216Y101953D01*
X-140704Y102200D01*
X-140675Y102220D01*
X-140643Y102232D01*
X-140575Y102290D01*
X-140502Y102341D01*
X-140482Y102369D01*
X-140455Y102391D01*
X-140410Y102457D01*
X-139795Y102646D01*
X-139766Y102661D01*
X-139689Y102688D01*
X-139112Y102965D01*
X-139041Y102959D01*
X-138953Y102944D01*
X-138919Y102949D01*
X-138885Y102946D01*
X-138720Y102978D01*
X-136613Y103627D01*
X-136582Y103642D01*
X-136548Y103650D01*
X-136473Y103696D01*
X-136393Y103736D01*
X-136368Y103761D01*
X-136339Y103779D01*
X-136285Y103837D01*
X-135649Y103933D01*
X-135617Y103943D01*
X-135538Y103958D01*
X-134926Y104147D01*
X-134856Y104130D01*
X-134772Y104102D01*
X-134737Y104102D01*
X-134703Y104094D01*
X-134536Y104100D01*
X-132356Y104428D01*
X-132323Y104439D01*
X-132288Y104441D01*
X-132206Y104476D01*
X-132122Y104503D01*
X-132094Y104524D01*
X-132062Y104538D01*
X-132000Y104587D01*
X-131356Y104587D01*
X-131324Y104592D01*
X-131243Y104595D01*
X-130610Y104691D01*
X-130543Y104664D01*
X-130464Y104623D01*
X-130430Y104618D01*
X-130397Y104605D01*
X-130231Y104587D01*
X-128027Y104586D01*
X-127992Y104591D01*
X-127958Y104589D01*
X-127872Y104611D01*
X-127784Y104625D01*
X-127753Y104642D01*
X-127720Y104650D01*
X-127651Y104690D01*
X-127015Y104594D01*
X-126982Y104594D01*
X-126901Y104585D01*
X-126261Y104585D01*
X-126199Y104549D01*
X-126127Y104497D01*
X-126094Y104487D01*
X-126064Y104469D01*
X-125902Y104426D01*
X-123722Y104097D01*
X-123687Y104097D01*
X-123654Y104089D01*
X-123565Y104099D01*
X-123476Y104100D01*
X-123444Y104111D01*
X-123409Y104115D01*
X-123335Y104144D01*
X-122720Y103954D01*
X-122688Y103949D01*
X-122609Y103929D01*
X-121976Y103833D01*
X-121921Y103788D01*
X-121857Y103726D01*
X-121826Y103711D01*
X-121799Y103689D01*
X-121645Y103622D01*
X-119539Y102971D01*
X-119504Y102967D01*
X-119472Y102954D01*
X-119383Y102950D01*
X-119295Y102938D01*
X-119261Y102944D01*
X-119226Y102943D01*
X-119149Y102960D01*
X-118569Y102681D01*
X-118538Y102672D01*
X-118463Y102639D01*
X-117851Y102450D01*
X-117803Y102397D01*
X-117749Y102326D01*
X-117721Y102307D01*
X-117697Y102281D01*
X-117555Y102192D01*
X-116729Y101794D01*
X-116616Y101761D01*
X-116502Y101726D01*
X-116498Y101726D01*
X-116493Y101725D01*
X-116375Y101729D01*
G37*
G36*
X132703Y198189D02*
X132703Y198189D01*
X132746Y198188D01*
X136739Y198789D01*
X136769Y198800D01*
X136812Y198805D01*
X140671Y199994D01*
X140699Y200009D01*
X140740Y200021D01*
X144378Y201772D01*
X144400Y201789D01*
X144426Y201798D01*
X144479Y201848D01*
X144537Y201892D01*
X144550Y201916D01*
X144570Y201935D01*
X144600Y202001D01*
X144636Y202065D01*
X144639Y202092D01*
X144650Y202117D01*
X144651Y202190D01*
X144660Y202262D01*
X144652Y202288D01*
X144652Y202316D01*
X144616Y202414D01*
X144604Y202453D01*
X144598Y202461D01*
X144594Y202472D01*
X117594Y249272D01*
X117576Y249292D01*
X117565Y249317D01*
X117511Y249366D01*
X117463Y249421D01*
X117438Y249432D01*
X117418Y249451D01*
X117349Y249475D01*
X117283Y249506D01*
X117256Y249508D01*
X117231Y249517D01*
X117158Y249512D01*
X117085Y249515D01*
X117059Y249506D01*
X117032Y249504D01*
X116936Y249460D01*
X116898Y249446D01*
X116891Y249439D01*
X116881Y249435D01*
X113544Y247161D01*
X113522Y247138D01*
X113486Y247115D01*
X110525Y244369D01*
X110506Y244343D01*
X110474Y244315D01*
X107956Y241159D01*
X107941Y241130D01*
X107914Y241097D01*
X105894Y237601D01*
X105884Y237571D01*
X105861Y237534D01*
X104385Y233776D01*
X104380Y233744D01*
X104363Y233704D01*
X103463Y229768D01*
X103463Y229736D01*
X103452Y229694D01*
X103149Y225668D01*
X103152Y225645D01*
X103149Y225625D01*
X103151Y225615D01*
X103149Y225594D01*
X103450Y221567D01*
X103458Y221536D01*
X103461Y221493D01*
X104358Y217557D01*
X104371Y217528D01*
X104380Y217485D01*
X105854Y213726D01*
X105871Y213699D01*
X105886Y213659D01*
X107904Y210162D01*
X107925Y210138D01*
X107946Y210100D01*
X110462Y206942D01*
X110487Y206922D01*
X110513Y206888D01*
X113472Y204140D01*
X113499Y204124D01*
X113530Y204094D01*
X116866Y201818D01*
X116895Y201806D01*
X116930Y201781D01*
X120568Y200028D01*
X120598Y200020D01*
X120637Y200001D01*
X124495Y198809D01*
X124527Y198806D01*
X124568Y198793D01*
X128560Y198190D01*
X128592Y198191D01*
X128634Y198184D01*
X132672Y198183D01*
X132703Y198189D01*
G37*
G36*
X-127110Y198184D02*
X-127110Y198184D01*
X-127079Y198190D01*
X-127036Y198190D01*
X-123044Y198793D01*
X-123014Y198804D01*
X-122971Y198809D01*
X-119113Y200001D01*
X-119085Y200016D01*
X-119044Y200028D01*
X-115406Y201781D01*
X-115381Y201800D01*
X-115342Y201818D01*
X-112006Y204094D01*
X-111984Y204117D01*
X-111948Y204140D01*
X-108989Y206888D01*
X-108970Y206913D01*
X-108938Y206942D01*
X-106422Y210100D01*
X-106407Y210128D01*
X-106380Y210162D01*
X-104362Y213659D01*
X-104352Y213689D01*
X-104330Y213726D01*
X-102856Y217485D01*
X-102850Y217517D01*
X-102834Y217557D01*
X-101937Y221493D01*
X-101936Y221525D01*
X-101926Y221567D01*
X-101625Y225594D01*
X-101629Y225625D01*
X-101628Y225641D01*
X-101625Y225658D01*
X-101626Y225662D01*
X-101625Y225668D01*
X-101928Y229694D01*
X-101937Y229725D01*
X-101939Y229768D01*
X-102839Y233704D01*
X-102852Y233733D01*
X-102861Y233776D01*
X-104337Y237534D01*
X-104355Y237561D01*
X-104370Y237601D01*
X-106390Y241097D01*
X-106411Y241121D01*
X-106432Y241159D01*
X-108950Y244315D01*
X-108975Y244335D01*
X-109001Y244369D01*
X-111962Y247115D01*
X-111989Y247131D01*
X-112020Y247161D01*
X-115357Y249435D01*
X-115382Y249445D01*
X-115403Y249462D01*
X-115473Y249483D01*
X-115540Y249512D01*
X-115568Y249512D01*
X-115594Y249519D01*
X-115666Y249511D01*
X-115739Y249511D01*
X-115764Y249500D01*
X-115791Y249497D01*
X-115855Y249461D01*
X-115922Y249433D01*
X-115941Y249413D01*
X-115964Y249400D01*
X-116032Y249319D01*
X-116060Y249289D01*
X-116063Y249280D01*
X-116070Y249272D01*
X-143070Y202472D01*
X-143079Y202446D01*
X-143095Y202423D01*
X-143110Y202352D01*
X-143134Y202283D01*
X-143131Y202256D01*
X-143137Y202229D01*
X-143124Y202158D01*
X-143118Y202085D01*
X-143105Y202060D01*
X-143100Y202034D01*
X-143060Y201973D01*
X-143026Y201908D01*
X-143005Y201891D01*
X-142990Y201868D01*
X-142904Y201807D01*
X-142873Y201782D01*
X-142864Y201779D01*
X-142854Y201772D01*
X-139216Y200021D01*
X-139185Y200014D01*
X-139147Y199994D01*
X-135288Y198805D01*
X-135256Y198802D01*
X-135215Y198789D01*
X-131222Y198188D01*
X-131191Y198190D01*
X-131148Y198183D01*
X-127110Y198184D01*
G37*
G36*
X117190Y51733D02*
X117190Y51733D01*
X117263Y51733D01*
X117288Y51744D01*
X117315Y51747D01*
X117379Y51783D01*
X117446Y51811D01*
X117465Y51831D01*
X117488Y51844D01*
X117556Y51925D01*
X117584Y51955D01*
X117587Y51964D01*
X117594Y51973D01*
X144594Y98773D01*
X144603Y98798D01*
X144619Y98821D01*
X144634Y98892D01*
X144658Y98961D01*
X144655Y98988D01*
X144661Y99015D01*
X144648Y99086D01*
X144642Y99159D01*
X144629Y99184D01*
X144624Y99210D01*
X144584Y99271D01*
X144550Y99336D01*
X144529Y99353D01*
X144514Y99376D01*
X144428Y99437D01*
X144397Y99462D01*
X144388Y99465D01*
X144378Y99472D01*
X140740Y101223D01*
X140709Y101230D01*
X140671Y101250D01*
X136812Y102439D01*
X136780Y102442D01*
X136739Y102455D01*
X132746Y103056D01*
X132715Y103054D01*
X132672Y103061D01*
X128634Y103060D01*
X128603Y103054D01*
X128560Y103054D01*
X124568Y102451D01*
X124538Y102440D01*
X124495Y102435D01*
X120637Y101243D01*
X120609Y101228D01*
X120568Y101216D01*
X116930Y99463D01*
X116905Y99444D01*
X116866Y99426D01*
X113530Y97150D01*
X113508Y97127D01*
X113472Y97104D01*
X110513Y94356D01*
X110494Y94331D01*
X110462Y94302D01*
X107946Y91144D01*
X107931Y91116D01*
X107904Y91082D01*
X105886Y87585D01*
X105876Y87555D01*
X105854Y87518D01*
X104380Y83759D01*
X104374Y83727D01*
X104358Y83687D01*
X103461Y79751D01*
X103460Y79719D01*
X103450Y79677D01*
X103149Y75651D01*
X103153Y75619D01*
X103149Y75576D01*
X103452Y71550D01*
X103461Y71519D01*
X103463Y71476D01*
X104363Y67540D01*
X104376Y67511D01*
X104385Y67468D01*
X105861Y63710D01*
X105879Y63683D01*
X105894Y63643D01*
X107914Y60147D01*
X107935Y60123D01*
X107956Y60085D01*
X110474Y56929D01*
X110499Y56909D01*
X110525Y56875D01*
X113486Y54129D01*
X113513Y54113D01*
X113544Y54083D01*
X116881Y51809D01*
X116906Y51799D01*
X116927Y51782D01*
X116997Y51761D01*
X117064Y51732D01*
X117092Y51733D01*
X117118Y51725D01*
X117190Y51733D01*
G37*
G36*
X-115634Y51732D02*
X-115634Y51732D01*
X-115561Y51729D01*
X-115535Y51738D01*
X-115508Y51740D01*
X-115412Y51784D01*
X-115374Y51798D01*
X-115367Y51805D01*
X-115357Y51809D01*
X-112020Y54083D01*
X-111998Y54106D01*
X-111962Y54129D01*
X-109001Y56875D01*
X-108982Y56901D01*
X-108950Y56929D01*
X-106432Y60085D01*
X-106417Y60114D01*
X-106390Y60147D01*
X-104370Y63643D01*
X-104360Y63673D01*
X-104337Y63710D01*
X-102861Y67468D01*
X-102856Y67500D01*
X-102839Y67540D01*
X-101939Y71476D01*
X-101939Y71508D01*
X-101928Y71550D01*
X-101625Y75576D01*
X-101629Y75607D01*
X-101625Y75651D01*
X-101926Y79677D01*
X-101934Y79708D01*
X-101937Y79751D01*
X-102834Y83687D01*
X-102847Y83716D01*
X-102856Y83759D01*
X-104330Y87518D01*
X-104347Y87545D01*
X-104362Y87585D01*
X-106380Y91082D01*
X-106401Y91106D01*
X-106422Y91144D01*
X-108938Y94302D01*
X-108963Y94322D01*
X-108989Y94356D01*
X-111948Y97104D01*
X-111975Y97120D01*
X-112006Y97150D01*
X-115342Y99426D01*
X-115371Y99438D01*
X-115406Y99463D01*
X-119044Y101216D01*
X-119074Y101224D01*
X-119113Y101243D01*
X-122971Y102435D01*
X-123003Y102438D01*
X-123044Y102451D01*
X-127036Y103054D01*
X-127068Y103053D01*
X-127110Y103060D01*
X-131148Y103061D01*
X-131179Y103055D01*
X-131222Y103056D01*
X-135215Y102455D01*
X-135245Y102444D01*
X-135288Y102439D01*
X-139147Y101250D01*
X-139175Y101235D01*
X-139216Y101223D01*
X-142854Y99472D01*
X-142876Y99455D01*
X-142902Y99446D01*
X-142955Y99396D01*
X-143013Y99352D01*
X-143026Y99328D01*
X-143046Y99309D01*
X-143076Y99243D01*
X-143112Y99179D01*
X-143115Y99152D01*
X-143126Y99127D01*
X-143127Y99054D01*
X-143136Y98982D01*
X-143128Y98956D01*
X-143128Y98928D01*
X-143092Y98830D01*
X-143080Y98791D01*
X-143074Y98783D01*
X-143070Y98773D01*
X-116070Y51973D01*
X-116052Y51952D01*
X-116041Y51927D01*
X-115987Y51878D01*
X-115939Y51824D01*
X-115914Y51812D01*
X-115894Y51793D01*
X-115825Y51769D01*
X-115759Y51738D01*
X-115732Y51737D01*
X-115707Y51727D01*
X-115634Y51732D01*
G37*
G36*
X27789Y128D02*
X27789Y128D01*
X27816Y126D01*
X27885Y148D01*
X27957Y162D01*
X27979Y178D01*
X28005Y186D01*
X28061Y234D01*
X28121Y275D01*
X28135Y298D01*
X28156Y316D01*
X28189Y381D01*
X28228Y442D01*
X28232Y469D01*
X28244Y494D01*
X28254Y598D01*
X28261Y639D01*
X28259Y648D01*
X28260Y659D01*
X27958Y4683D01*
X27950Y4714D01*
X27947Y4757D01*
X27049Y8691D01*
X27036Y8720D01*
X27027Y8763D01*
X25553Y12519D01*
X25536Y12546D01*
X25521Y12587D01*
X23503Y16081D01*
X23482Y16105D01*
X23461Y16143D01*
X20945Y19298D01*
X20920Y19318D01*
X20894Y19353D01*
X17936Y22097D01*
X17909Y22114D01*
X17877Y22144D01*
X14543Y24417D01*
X14514Y24430D01*
X14479Y24455D01*
X10843Y26205D01*
X10812Y26213D01*
X10773Y26233D01*
X6917Y27422D01*
X6886Y27425D01*
X6844Y27439D01*
X2854Y28040D01*
X2822Y28039D01*
X2780Y28046D01*
X-1256Y28046D01*
X-1287Y28039D01*
X-1330Y28040D01*
X-5320Y27439D01*
X-5350Y27428D01*
X-5393Y27422D01*
X-9249Y26233D01*
X-9277Y26217D01*
X-9319Y26205D01*
X-12955Y24455D01*
X-12980Y24435D01*
X-13019Y24417D01*
X-16353Y22144D01*
X-16376Y22121D01*
X-16412Y22097D01*
X-19370Y19353D01*
X-19389Y19327D01*
X-19421Y19298D01*
X-21937Y16143D01*
X-21951Y16115D01*
X-21979Y16081D01*
X-23997Y12587D01*
X-24007Y12556D01*
X-24029Y12519D01*
X-25503Y8763D01*
X-25509Y8731D01*
X-25525Y8691D01*
X-26423Y4757D01*
X-26424Y4725D01*
X-26434Y4683D01*
X-26736Y659D01*
X-26732Y632D01*
X-26737Y605D01*
X-26720Y535D01*
X-26711Y462D01*
X-26697Y438D01*
X-26691Y412D01*
X-26648Y353D01*
X-26611Y290D01*
X-26589Y274D01*
X-26573Y252D01*
X-26510Y215D01*
X-26452Y171D01*
X-26425Y164D01*
X-26402Y150D01*
X-26298Y133D01*
X-26259Y123D01*
X-26249Y125D01*
X-26238Y123D01*
X27762Y123D01*
X27789Y128D01*
G37*
%LPC*%
G36*
X25150Y246325D02*
X25150Y246325D01*
X19996Y248460D01*
X16050Y252406D01*
X13915Y257560D01*
X13915Y263140D01*
X16050Y268294D01*
X19996Y272240D01*
X25150Y274375D01*
X30730Y274375D01*
X35884Y272240D01*
X39218Y268906D01*
X39292Y268853D01*
X39362Y268793D01*
X39392Y268781D01*
X39418Y268762D01*
X39505Y268735D01*
X39590Y268701D01*
X39631Y268697D01*
X39653Y268690D01*
X39685Y268691D01*
X39757Y268683D01*
X44824Y268683D01*
X44844Y268686D01*
X44863Y268684D01*
X44965Y268706D01*
X45067Y268722D01*
X45084Y268732D01*
X45104Y268736D01*
X45193Y268789D01*
X45284Y268838D01*
X45298Y268852D01*
X45315Y268862D01*
X45382Y268941D01*
X45454Y269016D01*
X45462Y269034D01*
X45475Y269049D01*
X45514Y269145D01*
X45557Y269239D01*
X45559Y269259D01*
X45567Y269277D01*
X45585Y269444D01*
X45585Y272512D01*
X46478Y273405D01*
X62742Y273405D01*
X63635Y272512D01*
X63635Y258248D01*
X62742Y257355D01*
X46478Y257355D01*
X45585Y258248D01*
X45585Y261316D01*
X45582Y261336D01*
X45584Y261355D01*
X45562Y261457D01*
X45546Y261559D01*
X45536Y261576D01*
X45532Y261596D01*
X45479Y261685D01*
X45430Y261776D01*
X45416Y261790D01*
X45406Y261807D01*
X45327Y261874D01*
X45252Y261946D01*
X45234Y261954D01*
X45219Y261967D01*
X45123Y262006D01*
X45029Y262049D01*
X45009Y262051D01*
X44991Y262059D01*
X44824Y262077D01*
X42726Y262077D01*
X42706Y262074D01*
X42687Y262076D01*
X42585Y262054D01*
X42483Y262038D01*
X42466Y262028D01*
X42446Y262024D01*
X42357Y261971D01*
X42266Y261922D01*
X42252Y261908D01*
X42235Y261898D01*
X42168Y261819D01*
X42096Y261744D01*
X42088Y261726D01*
X42075Y261711D01*
X42036Y261615D01*
X41993Y261521D01*
X41991Y261501D01*
X41983Y261483D01*
X41965Y261316D01*
X41965Y257560D01*
X39830Y252406D01*
X35884Y248460D01*
X30730Y246325D01*
X25150Y246325D01*
G37*
%LPD*%
%LPC*%
G36*
X-35992Y246325D02*
X-35992Y246325D01*
X-36885Y247218D01*
X-36885Y273482D01*
X-35992Y274375D01*
X-9728Y274375D01*
X-8835Y273482D01*
X-8835Y247218D01*
X-9728Y246325D01*
X-35992Y246325D01*
G37*
%LPD*%
%LPC*%
G36*
X87468Y170775D02*
X87468Y170775D01*
X86575Y171668D01*
X86575Y180057D01*
X86561Y180147D01*
X86553Y180238D01*
X86541Y180268D01*
X86536Y180300D01*
X86493Y180380D01*
X86457Y180464D01*
X86431Y180496D01*
X86420Y180517D01*
X86397Y180539D01*
X86352Y180595D01*
X78195Y188752D01*
X78121Y188805D01*
X78052Y188865D01*
X78022Y188877D01*
X77996Y188896D01*
X77909Y188923D01*
X77824Y188957D01*
X77783Y188961D01*
X77761Y188968D01*
X77728Y188967D01*
X77657Y188975D01*
X48205Y188975D01*
X48115Y188961D01*
X48024Y188953D01*
X47995Y188941D01*
X47963Y188936D01*
X47882Y188893D01*
X47798Y188857D01*
X47766Y188831D01*
X47745Y188820D01*
X47723Y188797D01*
X47667Y188752D01*
X45378Y186463D01*
X40982Y186463D01*
X37873Y189572D01*
X37873Y193968D01*
X40982Y197077D01*
X45378Y197077D01*
X47667Y194788D01*
X47741Y194735D01*
X47811Y194675D01*
X47841Y194663D01*
X47867Y194644D01*
X47954Y194617D01*
X48039Y194583D01*
X48080Y194579D01*
X48102Y194572D01*
X48134Y194573D01*
X48205Y194565D01*
X80288Y194565D01*
X89805Y185048D01*
X89879Y184995D01*
X89948Y184935D01*
X89978Y184923D01*
X90004Y184904D01*
X90091Y184877D01*
X90176Y184843D01*
X90217Y184839D01*
X90239Y184832D01*
X90272Y184833D01*
X90343Y184825D01*
X98732Y184825D01*
X99625Y183932D01*
X99625Y171668D01*
X98732Y170775D01*
X87468Y170775D01*
G37*
%LPD*%
%LPC*%
G36*
X70958Y235545D02*
X70958Y235545D01*
X70065Y236438D01*
X70065Y239014D01*
X70062Y239034D01*
X70064Y239053D01*
X70042Y239155D01*
X70026Y239257D01*
X70016Y239274D01*
X70012Y239294D01*
X69959Y239383D01*
X69910Y239474D01*
X69896Y239488D01*
X69886Y239505D01*
X69807Y239572D01*
X69732Y239644D01*
X69714Y239652D01*
X69699Y239665D01*
X69603Y239704D01*
X69509Y239747D01*
X69489Y239749D01*
X69471Y239757D01*
X69304Y239775D01*
X64396Y239775D01*
X64376Y239772D01*
X64357Y239774D01*
X64255Y239752D01*
X64153Y239736D01*
X64136Y239726D01*
X64116Y239722D01*
X64027Y239669D01*
X63936Y239620D01*
X63922Y239606D01*
X63905Y239596D01*
X63838Y239517D01*
X63766Y239442D01*
X63758Y239424D01*
X63745Y239409D01*
X63711Y239325D01*
X62742Y238355D01*
X46478Y238355D01*
X45585Y239248D01*
X45585Y253512D01*
X46478Y254405D01*
X62742Y254405D01*
X63635Y253512D01*
X63635Y246126D01*
X63638Y246106D01*
X63636Y246087D01*
X63658Y245985D01*
X63674Y245883D01*
X63684Y245866D01*
X63688Y245846D01*
X63741Y245757D01*
X63790Y245666D01*
X63804Y245652D01*
X63814Y245635D01*
X63893Y245568D01*
X63968Y245496D01*
X63986Y245488D01*
X64001Y245475D01*
X64097Y245436D01*
X64191Y245393D01*
X64211Y245391D01*
X64229Y245383D01*
X64396Y245365D01*
X69304Y245365D01*
X69324Y245368D01*
X69343Y245366D01*
X69445Y245388D01*
X69547Y245404D01*
X69564Y245414D01*
X69584Y245418D01*
X69673Y245471D01*
X69764Y245520D01*
X69778Y245534D01*
X69795Y245544D01*
X69862Y245623D01*
X69934Y245698D01*
X69942Y245716D01*
X69955Y245731D01*
X69994Y245827D01*
X70037Y245921D01*
X70039Y245941D01*
X70047Y245959D01*
X70065Y246126D01*
X70065Y248702D01*
X70958Y249595D01*
X82222Y249595D01*
X83115Y248702D01*
X83115Y236438D01*
X82222Y235545D01*
X70958Y235545D01*
G37*
%LPD*%
%LPC*%
G36*
X-9942Y202635D02*
X-9942Y202635D01*
X-10835Y203528D01*
X-10835Y214792D01*
X-9942Y215685D01*
X-8296Y215685D01*
X-8276Y215688D01*
X-8257Y215686D01*
X-8155Y215708D01*
X-8053Y215724D01*
X-8036Y215734D01*
X-8016Y215738D01*
X-7927Y215791D01*
X-7836Y215840D01*
X-7822Y215854D01*
X-7805Y215864D01*
X-7738Y215943D01*
X-7666Y216018D01*
X-7658Y216036D01*
X-7645Y216051D01*
X-7606Y216147D01*
X-7563Y216241D01*
X-7561Y216261D01*
X-7553Y216279D01*
X-7535Y216446D01*
X-7535Y216504D01*
X-7538Y216524D01*
X-7536Y216543D01*
X-7558Y216645D01*
X-7574Y216747D01*
X-7584Y216764D01*
X-7588Y216784D01*
X-7641Y216873D01*
X-7690Y216964D01*
X-7704Y216978D01*
X-7714Y216995D01*
X-7793Y217062D01*
X-7868Y217134D01*
X-7886Y217142D01*
X-7901Y217155D01*
X-7997Y217194D01*
X-8091Y217237D01*
X-8111Y217239D01*
X-8129Y217247D01*
X-8296Y217265D01*
X-11372Y217265D01*
X-12265Y218158D01*
X-12265Y231422D01*
X-11372Y232315D01*
X1892Y232315D01*
X2785Y231422D01*
X2785Y218158D01*
X1892Y217265D01*
X-1184Y217265D01*
X-1204Y217262D01*
X-1223Y217264D01*
X-1325Y217242D01*
X-1427Y217226D01*
X-1444Y217216D01*
X-1464Y217212D01*
X-1553Y217159D01*
X-1644Y217110D01*
X-1658Y217096D01*
X-1675Y217086D01*
X-1742Y217007D01*
X-1814Y216932D01*
X-1822Y216914D01*
X-1835Y216899D01*
X-1874Y216803D01*
X-1917Y216709D01*
X-1919Y216689D01*
X-1927Y216671D01*
X-1945Y216504D01*
X-1945Y216446D01*
X-1942Y216426D01*
X-1944Y216407D01*
X-1922Y216305D01*
X-1906Y216203D01*
X-1896Y216186D01*
X-1892Y216166D01*
X-1839Y216077D01*
X-1790Y215986D01*
X-1776Y215972D01*
X-1766Y215955D01*
X-1687Y215888D01*
X-1612Y215816D01*
X-1594Y215808D01*
X-1579Y215795D01*
X-1483Y215756D01*
X-1389Y215713D01*
X-1369Y215711D01*
X-1351Y215703D01*
X-1184Y215685D01*
X2322Y215685D01*
X3215Y214792D01*
X3215Y203528D01*
X2322Y202635D01*
X-9942Y202635D01*
G37*
%LPD*%
%LPC*%
G36*
X87958Y235545D02*
X87958Y235545D01*
X87065Y236438D01*
X87065Y241275D01*
X87051Y241365D01*
X87043Y241456D01*
X87031Y241485D01*
X87026Y241517D01*
X86983Y241598D01*
X86947Y241682D01*
X86921Y241714D01*
X86910Y241735D01*
X86887Y241757D01*
X86842Y241813D01*
X85108Y243547D01*
X85108Y247943D01*
X88217Y251052D01*
X92613Y251052D01*
X93847Y249818D01*
X93921Y249765D01*
X93991Y249705D01*
X94021Y249693D01*
X94047Y249674D01*
X94134Y249647D01*
X94219Y249613D01*
X94260Y249609D01*
X94282Y249602D01*
X94314Y249603D01*
X94385Y249595D01*
X99222Y249595D01*
X100115Y248702D01*
X100115Y236438D01*
X99222Y235545D01*
X87958Y235545D01*
G37*
%LPD*%
%LPC*%
G36*
X80352Y40413D02*
X80352Y40413D01*
X77243Y43522D01*
X77243Y47918D01*
X79226Y49901D01*
X79238Y49917D01*
X79253Y49930D01*
X79309Y50017D01*
X79370Y50101D01*
X79376Y50120D01*
X79386Y50137D01*
X79412Y50237D01*
X79442Y50336D01*
X79442Y50356D01*
X79446Y50375D01*
X79438Y50478D01*
X79436Y50582D01*
X79429Y50601D01*
X79427Y50620D01*
X79387Y50715D01*
X79351Y50813D01*
X79339Y50828D01*
X79331Y50847D01*
X79226Y50978D01*
X78525Y51678D01*
X78525Y60942D01*
X79418Y61835D01*
X85682Y61835D01*
X86575Y60942D01*
X86575Y51678D01*
X85874Y50978D01*
X85862Y50961D01*
X85847Y50949D01*
X85791Y50862D01*
X85730Y50778D01*
X85724Y50759D01*
X85714Y50742D01*
X85688Y50642D01*
X85658Y50543D01*
X85658Y50523D01*
X85654Y50504D01*
X85662Y50401D01*
X85664Y50297D01*
X85671Y50278D01*
X85673Y50258D01*
X85713Y50163D01*
X85749Y50066D01*
X85761Y50050D01*
X85769Y50032D01*
X85874Y49901D01*
X87857Y47918D01*
X87857Y43522D01*
X84748Y40413D01*
X80352Y40413D01*
G37*
%LPD*%
D10*
X83362Y293722D03*
X165962Y150622D03*
X83362Y7522D03*
X-81838Y7522D03*
X-164438Y150622D03*
X-81838Y293722D03*
X124662Y222122D03*
X124662Y79122D03*
X762Y7522D03*
X-123138Y79122D03*
X-123138Y222122D03*
D11*
X-22860Y260350D03*
D12*
X27940Y260350D03*
D13*
X54610Y265380D03*
X54610Y246380D03*
D14*
X76590Y242570D03*
X93590Y242570D03*
X110100Y177800D03*
X93100Y177800D03*
D15*
X90170Y98180D03*
X90170Y115180D03*
D16*
X-2540Y82430D03*
X-2540Y67430D03*
D17*
X64770Y125160D03*
X64770Y137160D03*
X64770Y149160D03*
D18*
X36340Y173557D03*
X36340Y168556D03*
X36340Y163554D03*
X36340Y158553D03*
X36340Y153552D03*
X36340Y148551D03*
X36340Y143549D03*
X36340Y138548D03*
X36340Y133547D03*
X36340Y128546D03*
X36340Y123544D03*
X36340Y118543D03*
D19*
X30047Y112250D03*
X25046Y112250D03*
X20044Y112250D03*
X15043Y112250D03*
X10042Y112250D03*
X5041Y112250D03*
X39Y112250D03*
X-4962Y112250D03*
X-9963Y112250D03*
X-14964Y112250D03*
X-19966Y112250D03*
X-24967Y112250D03*
D18*
X-31260Y118543D03*
X-31260Y123544D03*
X-31260Y128546D03*
X-31260Y133547D03*
X-31260Y138548D03*
X-31260Y143549D03*
X-31260Y148551D03*
X-31260Y153552D03*
X-31260Y158553D03*
X-31260Y163554D03*
X-31260Y168556D03*
X-31260Y173557D03*
D19*
X-24967Y179850D03*
X-19966Y179850D03*
X-14964Y179850D03*
X-9963Y179850D03*
X-4962Y179850D03*
X39Y179850D03*
X5041Y179850D03*
X10042Y179850D03*
X15043Y179850D03*
X20044Y179850D03*
X25046Y179850D03*
X30047Y179850D03*
D20*
X2540Y146050D03*
D21*
X46990Y76200D03*
D15*
X-57150Y156600D03*
X-57150Y173600D03*
X13970Y99940D03*
X13970Y82940D03*
X55000Y101600D03*
X72000Y101600D03*
D14*
X132080Y154550D03*
X132080Y137550D03*
D15*
X124850Y179070D03*
X141850Y179070D03*
D13*
X88900Y155550D03*
X88900Y136550D03*
X110490Y155550D03*
X110490Y136550D03*
D22*
X-92710Y186690D03*
X-92710Y161290D03*
X-92710Y135890D03*
D23*
X82550Y78310D03*
X82550Y56310D03*
D15*
X17780Y209160D03*
X17780Y192160D03*
X-3810Y209160D03*
X-3810Y192160D03*
D24*
X39710Y224790D03*
X18710Y224790D03*
X-25740Y224790D03*
X-4740Y224790D03*
D25*
X-5715Y167005D03*
X-21590Y219710D03*
D26*
X90170Y85930D02*
X82550Y78310D01*
X90170Y85930D02*
X90170Y98180D01*
X-57150Y146050D02*
X-57150Y156600D01*
D25*
X-57150Y146050D03*
X-151130Y133350D03*
D26*
X-164438Y146658D01*
X-164438Y150622D01*
X-2660Y67310D02*
X-2540Y67430D01*
D25*
X-11430Y67310D03*
D26*
X-2660Y67310D01*
X64770Y137160D02*
X64770Y140584D01*
X66040Y141854D01*
D25*
X66040Y141854D03*
D26*
X93100Y177800D02*
X79130Y191770D01*
X43180Y191770D01*
D25*
X43180Y191770D03*
D26*
X82550Y56310D02*
X82550Y45720D01*
D25*
X82550Y45720D03*
D26*
X-31260Y138548D02*
X-39252Y138548D01*
X-39575Y138225D01*
D25*
X-39575Y138225D03*
X-42115Y149655D03*
D26*
X-38218Y153552D01*
X-31260Y153552D01*
D27*
X25809Y22031D03*
D26*
X37277Y122607D02*
X36340Y123544D01*
X37277Y122607D02*
X40247Y122607D01*
X45720Y117134D01*
X45720Y92710D01*
X33429Y80419D02*
X33429Y29651D01*
X25809Y22031D01*
X33429Y80419D02*
X45720Y92710D01*
D28*
X6145Y12905D02*
X762Y7522D01*
D26*
X29365Y36125D02*
X29365Y84643D01*
X41420Y113463D02*
X36340Y118543D01*
X41420Y113463D02*
X41420Y96697D01*
X29365Y84643D01*
X29365Y36125D02*
X6145Y12905D01*
D25*
X-44450Y161290D03*
D26*
X-42186Y163554D01*
X-31260Y163554D01*
D28*
X32970Y265380D02*
X54610Y265380D01*
X32970Y265380D02*
X27940Y260350D01*
D29*
X90415Y245745D02*
X93590Y242570D01*
D25*
X90415Y245745D03*
D26*
X76590Y242570D02*
X58420Y242570D01*
X54610Y246380D01*
X-125730Y193040D02*
X-125730Y116840D01*
X-125730Y193040D02*
X-125730Y193040D01*
X-125730Y192878D01*
D25*
X-125730Y192878D03*
D26*
X-21082Y95758D02*
X-14964Y101876D01*
X-21082Y95758D02*
X-104648Y95758D01*
X-125730Y116840D01*
X-14964Y112250D02*
X-14964Y101876D01*
X-19633Y104533D02*
X-22540Y101626D01*
X-19633Y111917D02*
X-19966Y112250D01*
X-19633Y111917D02*
X-19633Y104533D01*
X-119154Y211438D02*
X-123138Y215422D01*
X-101114Y101626D02*
X-22540Y101626D01*
X-101114Y101626D02*
X-118364Y118876D01*
X-118364Y217348D02*
X-123138Y222122D01*
X-118364Y217348D02*
X-118364Y118876D01*
X-123138Y215422D02*
X-123138Y222122D01*
X30047Y112250D02*
X30480Y111817D01*
X30480Y105410D01*
X31622Y105410D01*
D25*
X31622Y105410D03*
D26*
X25046Y112250D02*
X25046Y94334D01*
X25400Y93980D01*
D25*
X25400Y93980D03*
X97494Y68222D03*
D26*
X108394Y79122D01*
X124662Y79122D01*
X88900Y155550D02*
X82550Y161900D01*
X48870Y161900D01*
X40522Y153552D02*
X36340Y153552D01*
X40522Y153552D02*
X48870Y161900D01*
X88900Y155550D02*
X110490Y155550D01*
X110490Y177410D01*
X110100Y177800D01*
X111490Y154550D02*
X132080Y154550D01*
X111490Y154550D02*
X110490Y155550D01*
X112150Y179070D02*
X124850Y179070D01*
X112150Y179070D02*
X110490Y177410D01*
X36340Y153552D02*
X36340Y148551D01*
X36340Y153552D02*
X36340Y158553D01*
X80620Y136550D02*
X88900Y136550D01*
X76200Y140970D02*
X76200Y152400D01*
X71120Y157480D01*
X40679Y143549D02*
X36340Y143549D01*
X76200Y140970D02*
X80620Y136550D01*
X71120Y157480D02*
X54610Y157480D01*
X40679Y143549D01*
X88900Y136550D02*
X110490Y136550D01*
X90170Y135280D02*
X88900Y136550D01*
X90170Y135280D02*
X90170Y115180D01*
X111490Y137550D02*
X132080Y137550D01*
X111490Y137550D02*
X110490Y136550D01*
X141850Y147320D02*
X141850Y179070D01*
X141850Y147320D02*
X132080Y137550D01*
X43650Y133547D02*
X36340Y133547D01*
X52037Y125160D02*
X64770Y125160D01*
X52037Y125160D02*
X43650Y133547D01*
X56450Y149160D02*
X64770Y149160D01*
X45838Y138548D02*
X36340Y138548D01*
X45838Y138548D02*
X56450Y149160D01*
X-31303Y173600D02*
X-57150Y173600D01*
X-31303Y173600D02*
X-31260Y173557D01*
X-57150Y173600D02*
X-73660Y190110D01*
X-89290Y190110D01*
X-92710Y186690D01*
X-92710Y161290D01*
X-92710Y143510D02*
X-92710Y135890D01*
X-92710Y143510D02*
X-71120Y165100D01*
X-31592Y168888D02*
X-31260Y168556D01*
X-31592Y168888D02*
X-46597Y168888D01*
X-50385Y165100D01*
X-71120Y165100D01*
X55000Y116450D02*
X55000Y101600D01*
X42904Y128546D02*
X36340Y128546D01*
X42904Y128546D02*
X55000Y116450D01*
X55880Y100720D02*
X55880Y85090D01*
X46990Y76200D01*
X55880Y100720D02*
X55000Y101600D01*
X25046Y179850D02*
X25046Y184975D01*
X26074Y186003D01*
X26074Y206414D01*
X34290Y214630D02*
X100330Y214630D01*
X100168Y214468D01*
X99619Y214468D01*
D25*
X99619Y214468D03*
D26*
X34290Y214630D02*
X26074Y206414D01*
X30047Y184228D02*
X30047Y179850D01*
X30047Y184228D02*
X30138Y184319D01*
X30138Y202858D02*
X35172Y207892D01*
X30138Y202858D02*
X30138Y184319D01*
X110432Y207892D02*
X124662Y222122D01*
X110432Y207892D02*
X35172Y207892D01*
X10042Y103868D02*
X13970Y99940D01*
X10042Y103868D02*
X10042Y112250D01*
X-4629Y111917D02*
X-4962Y112250D01*
X-4629Y111917D02*
X-4629Y103263D01*
X-111604Y79122D02*
X-123138Y79122D01*
X-97818Y79122D01*
X-91624Y85316D01*
X-22576Y85316D01*
X-4629Y103263D01*
X39Y99099D02*
X39Y112250D01*
X-20320Y78740D02*
X-88900Y78740D01*
D25*
X-88900Y78740D03*
D26*
X-20320Y78740D02*
X39Y99099D01*
X-1780Y82940D02*
X13970Y82940D01*
X-1780Y82940D02*
X-2540Y82430D01*
X14360Y192160D02*
X17780Y192160D01*
X10042Y187842D02*
X10042Y179850D01*
X10042Y187842D02*
X14360Y192160D01*
X880Y192160D02*
X-3810Y192160D01*
X880Y192160D02*
X5080Y187960D01*
X5080Y179889D01*
D30*
X5041Y179850D01*
D26*
X-3810Y209160D02*
X-4740Y210090D01*
X-4740Y224790D01*
X17780Y223860D02*
X17780Y209160D01*
X17780Y223860D02*
X18710Y224790D01*
M02*
