G04 EAGLE Gerber RS-274X export*
G75*
%MOMM*%
%FSLAX34Y34*%
%LPD*%
%INSilkscreen Top*%
%IPPOS*%
%AMOC8*
5,1,8,0,0,1.08239X$1,22.5*%
G01*
%ADD10C,0.152400*%
%ADD11C,0.101600*%
%ADD12C,0.050800*%
%ADD13C,0.076200*%
%ADD14C,0.254000*%
%ADD15R,12.300000X1.000000*%
%ADD16C,0.200000*%
%ADD17C,0.127000*%
%ADD18R,0.259075X0.015238*%
%ADD19R,1.310638X0.015238*%
%ADD20R,0.015238X0.015238*%
%ADD21R,0.304800X0.015238*%
%ADD22R,1.356356X0.015238*%
%ADD23R,0.335275X0.015238*%
%ADD24R,1.402075X0.015238*%
%ADD25R,0.365756X0.015238*%
%ADD26R,1.417319X0.015238*%
%ADD27R,0.381000X0.015238*%
%ADD28R,1.447800X0.015238*%
%ADD29R,0.396238X0.015238*%
%ADD30R,1.463037X0.015238*%
%ADD31R,0.411475X0.015238*%
%ADD32R,1.478275X0.015238*%
%ADD33R,0.426719X0.015238*%
%ADD34R,1.493519X0.015238*%
%ADD35R,0.441956X0.015238*%
%ADD36R,1.508756X0.015238*%
%ADD37R,0.457200X0.015238*%
%ADD38R,1.524000X0.015238*%
%ADD39R,0.472438X0.015238*%
%ADD40R,1.539238X0.015238*%
%ADD41R,0.487675X0.015238*%
%ADD42R,1.554475X0.015238*%
%ADD43R,0.502919X0.015238*%
%ADD44R,1.569719X0.015238*%
%ADD45R,0.518156X0.015238*%
%ADD46R,1.584956X0.015238*%
%ADD47R,0.533400X0.015238*%
%ADD48R,1.600200X0.015238*%
%ADD49R,0.548638X0.015238*%
%ADD50R,1.615438X0.015238*%
%ADD51R,0.563875X0.015238*%
%ADD52R,1.630675X0.015238*%
%ADD53R,0.579119X0.015238*%
%ADD54R,1.645919X0.015238*%
%ADD55R,0.594356X0.015238*%
%ADD56R,1.661156X0.015238*%
%ADD57R,0.609600X0.015238*%
%ADD58R,1.676400X0.015238*%
%ADD59R,0.624838X0.015238*%
%ADD60R,1.691638X0.015238*%
%ADD61R,0.640075X0.015238*%
%ADD62R,1.706875X0.015238*%
%ADD63R,0.655319X0.015238*%
%ADD64R,1.722119X0.015238*%
%ADD65R,0.670556X0.015238*%
%ADD66R,1.737356X0.015238*%
%ADD67R,0.685800X0.015238*%
%ADD68R,1.752600X0.015238*%
%ADD69R,0.701037X0.015238*%
%ADD70R,0.716275X0.015238*%
%ADD71R,0.731519X0.015238*%
%ADD72R,1.767838X0.015238*%
%ADD73R,1.783075X0.015238*%
%ADD74R,0.746756X0.015238*%
%ADD75R,1.798319X0.015238*%
%ADD76R,0.030481X0.015238*%
%ADD77R,0.762000X0.015238*%
%ADD78R,0.807719X0.015238*%
%ADD79R,0.868681X0.015238*%
%ADD80R,0.777238X0.015238*%
%ADD81R,0.853438X0.015238*%
%ADD82R,0.838200X0.015238*%
%ADD83R,0.792475X0.015238*%
%ADD84R,0.822963X0.015238*%
%ADD85R,0.822956X0.015238*%
%ADD86R,0.868675X0.015238*%
%ADD87R,0.883919X0.015238*%
%ADD88R,0.899156X0.015238*%
%ADD89R,0.914400X0.015238*%
%ADD90R,0.929638X0.015238*%
%ADD91R,0.944875X0.015238*%
%ADD92R,0.960119X0.015238*%
%ADD93R,0.975356X0.015238*%
%ADD94R,0.990600X0.015238*%
%ADD95R,1.005837X0.015238*%
%ADD96R,1.021075X0.015238*%
%ADD97R,1.036319X0.015238*%
%ADD98R,1.051556X0.015238*%
%ADD99R,1.066800X0.015238*%
%ADD100R,1.082037X0.015238*%
%ADD101R,1.097275X0.015238*%
%ADD102R,1.112519X0.015238*%
%ADD103R,1.127756X0.015238*%
%ADD104R,1.143000X0.015238*%
%ADD105R,1.158238X0.015238*%
%ADD106R,1.173475X0.015238*%
%ADD107R,1.188719X0.015238*%
%ADD108R,1.203956X0.015238*%
%ADD109R,1.219200X0.015238*%
%ADD110R,1.234438X0.015238*%
%ADD111R,1.249675X0.015238*%
%ADD112R,1.264919X0.015238*%
%ADD113R,1.280156X0.015238*%
%ADD114R,1.295400X0.015238*%
%ADD115R,1.325875X0.015238*%
%ADD116R,0.670563X0.015238*%
%ADD117R,1.341119X0.015238*%
%ADD118R,1.371600X0.015238*%
%ADD119R,1.386838X0.015238*%
%ADD120R,0.045719X0.015238*%
%ADD121R,0.060956X0.015238*%
%ADD122R,1.432556X0.015238*%
%ADD123R,0.106681X0.015238*%
%ADD124R,0.121919X0.015238*%
%ADD125R,0.152400X0.015238*%
%ADD126R,0.182875X0.015238*%
%ADD127R,0.030475X0.015238*%
%ADD128R,0.213363X0.015238*%
%ADD129R,0.076200X0.015238*%
%ADD130R,0.320038X0.015238*%
%ADD131R,0.243838X0.015238*%
%ADD132R,0.106675X0.015238*%
%ADD133R,0.274319X0.015238*%
%ADD134R,0.259081X0.015238*%
%ADD135R,0.198119X0.015238*%
%ADD136R,0.228600X0.015238*%


D10*
X-105466Y242450D02*
X-100527Y242450D01*
X-100387Y242448D01*
X-100248Y242442D01*
X-100108Y242432D01*
X-99969Y242418D01*
X-99830Y242401D01*
X-99692Y242379D01*
X-99555Y242353D01*
X-99418Y242324D01*
X-99282Y242291D01*
X-99148Y242254D01*
X-99014Y242213D01*
X-98882Y242168D01*
X-98750Y242119D01*
X-98621Y242067D01*
X-98493Y242012D01*
X-98366Y241952D01*
X-98241Y241889D01*
X-98118Y241823D01*
X-97997Y241753D01*
X-97878Y241680D01*
X-97761Y241603D01*
X-97647Y241523D01*
X-97534Y241440D01*
X-97424Y241354D01*
X-97317Y241264D01*
X-97212Y241172D01*
X-97110Y241077D01*
X-97010Y240979D01*
X-96913Y240878D01*
X-96819Y240774D01*
X-96729Y240668D01*
X-96641Y240559D01*
X-96556Y240448D01*
X-96475Y240334D01*
X-96396Y240219D01*
X-96321Y240101D01*
X-96250Y239981D01*
X-96182Y239858D01*
X-96117Y239735D01*
X-96056Y239609D01*
X-95998Y239481D01*
X-95944Y239353D01*
X-95894Y239222D01*
X-95847Y239090D01*
X-95804Y238957D01*
X-95765Y238823D01*
X-95730Y238688D01*
X-95699Y238552D01*
X-95671Y238414D01*
X-95648Y238277D01*
X-95628Y238138D01*
X-95612Y237999D01*
X-95600Y237860D01*
X-95592Y237721D01*
X-95588Y237581D01*
X-95588Y237441D01*
X-95592Y237301D01*
X-95600Y237162D01*
X-95612Y237023D01*
X-95628Y236884D01*
X-95648Y236745D01*
X-95671Y236608D01*
X-95699Y236470D01*
X-95730Y236334D01*
X-95765Y236199D01*
X-95804Y236065D01*
X-95847Y235932D01*
X-95894Y235800D01*
X-95944Y235669D01*
X-95998Y235541D01*
X-96056Y235413D01*
X-96117Y235287D01*
X-96182Y235164D01*
X-96250Y235042D01*
X-96321Y234921D01*
X-96396Y234803D01*
X-96475Y234688D01*
X-96556Y234574D01*
X-96641Y234463D01*
X-96729Y234354D01*
X-96819Y234248D01*
X-96913Y234144D01*
X-97010Y234043D01*
X-97110Y233945D01*
X-97212Y233850D01*
X-97317Y233758D01*
X-97424Y233668D01*
X-97534Y233582D01*
X-97647Y233499D01*
X-97761Y233419D01*
X-97878Y233342D01*
X-97997Y233269D01*
X-98118Y233199D01*
X-98241Y233133D01*
X-98366Y233070D01*
X-98493Y233010D01*
X-98621Y232955D01*
X-98750Y232903D01*
X-98882Y232854D01*
X-99014Y232809D01*
X-99148Y232768D01*
X-99282Y232731D01*
X-99418Y232698D01*
X-99555Y232669D01*
X-99692Y232643D01*
X-99830Y232621D01*
X-99969Y232604D01*
X-100108Y232590D01*
X-100248Y232580D01*
X-100387Y232574D01*
X-100527Y232572D01*
X-100527Y232573D02*
X-105466Y232573D01*
X-105466Y250353D01*
X-100527Y250353D01*
X-100527Y250352D02*
X-100403Y250350D01*
X-100279Y250344D01*
X-100155Y250334D01*
X-100032Y250321D01*
X-99909Y250303D01*
X-99787Y250282D01*
X-99665Y250257D01*
X-99544Y250228D01*
X-99425Y250195D01*
X-99306Y250159D01*
X-99189Y250118D01*
X-99073Y250075D01*
X-98958Y250027D01*
X-98845Y249976D01*
X-98733Y249921D01*
X-98624Y249863D01*
X-98516Y249802D01*
X-98410Y249737D01*
X-98306Y249669D01*
X-98205Y249597D01*
X-98105Y249523D01*
X-98009Y249445D01*
X-97914Y249365D01*
X-97822Y249281D01*
X-97733Y249195D01*
X-97647Y249106D01*
X-97563Y249014D01*
X-97483Y248919D01*
X-97405Y248823D01*
X-97331Y248723D01*
X-97259Y248622D01*
X-97191Y248518D01*
X-97126Y248412D01*
X-97065Y248304D01*
X-97007Y248195D01*
X-96952Y248083D01*
X-96901Y247970D01*
X-96853Y247855D01*
X-96810Y247739D01*
X-96769Y247622D01*
X-96733Y247503D01*
X-96700Y247384D01*
X-96671Y247263D01*
X-96646Y247141D01*
X-96625Y247019D01*
X-96607Y246896D01*
X-96594Y246773D01*
X-96584Y246649D01*
X-96578Y246525D01*
X-96576Y246401D01*
X-96578Y246277D01*
X-96584Y246153D01*
X-96594Y246029D01*
X-96607Y245906D01*
X-96625Y245783D01*
X-96646Y245661D01*
X-96671Y245539D01*
X-96700Y245418D01*
X-96733Y245299D01*
X-96769Y245180D01*
X-96810Y245063D01*
X-96853Y244947D01*
X-96901Y244832D01*
X-96952Y244719D01*
X-97007Y244607D01*
X-97065Y244498D01*
X-97126Y244390D01*
X-97191Y244284D01*
X-97259Y244180D01*
X-97331Y244079D01*
X-97405Y243979D01*
X-97483Y243883D01*
X-97563Y243788D01*
X-97647Y243696D01*
X-97733Y243607D01*
X-97822Y243521D01*
X-97914Y243437D01*
X-98009Y243357D01*
X-98105Y243279D01*
X-98205Y243205D01*
X-98306Y243133D01*
X-98410Y243065D01*
X-98516Y243000D01*
X-98624Y242939D01*
X-98733Y242881D01*
X-98845Y242826D01*
X-98958Y242775D01*
X-99073Y242727D01*
X-99189Y242684D01*
X-99306Y242643D01*
X-99425Y242607D01*
X-99544Y242574D01*
X-99665Y242545D01*
X-99787Y242520D01*
X-99909Y242499D01*
X-100032Y242481D01*
X-100155Y242468D01*
X-100279Y242458D01*
X-100403Y242452D01*
X-100527Y242450D01*
D11*
X66878Y273602D02*
X69536Y271740D01*
X69630Y271677D01*
X69726Y271617D01*
X69824Y271560D01*
X69924Y271507D01*
X70026Y271457D01*
X70130Y271411D01*
X70235Y271369D01*
X70341Y271330D01*
X70449Y271295D01*
X70558Y271264D01*
X70668Y271236D01*
X70779Y271213D01*
X70890Y271193D01*
X71002Y271177D01*
X71115Y271165D01*
X71228Y271157D01*
X71341Y271153D01*
X71455Y271153D01*
X71568Y271157D01*
X71681Y271165D01*
X71794Y271177D01*
X71906Y271193D01*
X72017Y271213D01*
X72128Y271236D01*
X72238Y271264D01*
X72347Y271295D01*
X72455Y271330D01*
X72561Y271369D01*
X72666Y271411D01*
X72770Y271457D01*
X72872Y271507D01*
X72972Y271560D01*
X73070Y271617D01*
X73166Y271677D01*
X73260Y271740D01*
X73351Y271807D01*
X73441Y271876D01*
X73528Y271949D01*
X73612Y272025D01*
X73693Y272104D01*
X73772Y272185D01*
X73848Y272269D01*
X73921Y272356D01*
X73990Y272446D01*
X74057Y272537D01*
X74120Y272631D01*
X74180Y272727D01*
X74237Y272825D01*
X74290Y272925D01*
X74340Y273027D01*
X74386Y273131D01*
X74428Y273236D01*
X74467Y273342D01*
X74502Y273450D01*
X74533Y273559D01*
X74561Y273669D01*
X74584Y273780D01*
X74604Y273891D01*
X74620Y274003D01*
X74632Y274116D01*
X74640Y274229D01*
X74644Y274342D01*
X74644Y274456D01*
X74640Y274569D01*
X74632Y274682D01*
X74620Y274795D01*
X74604Y274907D01*
X74584Y275018D01*
X74561Y275129D01*
X74533Y275239D01*
X74502Y275348D01*
X74467Y275456D01*
X74428Y275562D01*
X74386Y275667D01*
X74340Y275771D01*
X74290Y275873D01*
X74237Y275973D01*
X74180Y276071D01*
X74120Y276167D01*
X74057Y276261D01*
X73990Y276352D01*
X73921Y276442D01*
X73848Y276529D01*
X73772Y276613D01*
X73693Y276694D01*
X73612Y276773D01*
X73528Y276849D01*
X73441Y276922D01*
X73352Y276991D01*
X73260Y277058D01*
X76770Y280939D02*
X73579Y283173D01*
X76769Y280939D02*
X76850Y280879D01*
X76929Y280817D01*
X77006Y280751D01*
X77080Y280683D01*
X77151Y280612D01*
X77219Y280538D01*
X77285Y280461D01*
X77347Y280382D01*
X77407Y280301D01*
X77463Y280217D01*
X77516Y280132D01*
X77565Y280044D01*
X77611Y279955D01*
X77654Y279863D01*
X77693Y279770D01*
X77728Y279676D01*
X77760Y279581D01*
X77788Y279484D01*
X77812Y279386D01*
X77832Y279288D01*
X77849Y279188D01*
X77861Y279088D01*
X77870Y278988D01*
X77875Y278888D01*
X77876Y278787D01*
X77873Y278686D01*
X77866Y278586D01*
X77855Y278486D01*
X77841Y278386D01*
X77822Y278287D01*
X77800Y278189D01*
X77774Y278092D01*
X77744Y277995D01*
X77711Y277901D01*
X77674Y277807D01*
X77633Y277715D01*
X77588Y277624D01*
X77541Y277536D01*
X77489Y277449D01*
X77435Y277365D01*
X77377Y277282D01*
X77316Y277202D01*
X77252Y277124D01*
X77185Y277049D01*
X77116Y276976D01*
X77043Y276907D01*
X76968Y276840D01*
X76890Y276776D01*
X76810Y276715D01*
X76727Y276657D01*
X76643Y276603D01*
X76556Y276551D01*
X76468Y276504D01*
X76377Y276459D01*
X76285Y276418D01*
X76191Y276381D01*
X76097Y276348D01*
X76000Y276318D01*
X75903Y276292D01*
X75805Y276270D01*
X75706Y276251D01*
X75606Y276237D01*
X75506Y276226D01*
X75406Y276219D01*
X75305Y276216D01*
X75204Y276217D01*
X75104Y276222D01*
X75004Y276231D01*
X74904Y276243D01*
X74804Y276260D01*
X74706Y276280D01*
X74608Y276304D01*
X74511Y276332D01*
X74416Y276364D01*
X74322Y276399D01*
X74229Y276438D01*
X74137Y276481D01*
X74048Y276527D01*
X73960Y276576D01*
X73875Y276629D01*
X73791Y276685D01*
X71664Y278175D01*
X82410Y276989D02*
X78899Y265184D01*
X88791Y272522D01*
X85603Y260490D02*
X88262Y258628D01*
X88356Y258565D01*
X88452Y258505D01*
X88550Y258448D01*
X88650Y258395D01*
X88752Y258345D01*
X88856Y258299D01*
X88961Y258257D01*
X89067Y258218D01*
X89175Y258183D01*
X89284Y258152D01*
X89394Y258124D01*
X89505Y258101D01*
X89616Y258081D01*
X89728Y258065D01*
X89841Y258053D01*
X89954Y258045D01*
X90067Y258041D01*
X90181Y258041D01*
X90294Y258045D01*
X90407Y258053D01*
X90520Y258065D01*
X90632Y258081D01*
X90743Y258101D01*
X90854Y258124D01*
X90964Y258152D01*
X91073Y258183D01*
X91181Y258218D01*
X91287Y258257D01*
X91392Y258299D01*
X91496Y258345D01*
X91598Y258395D01*
X91698Y258448D01*
X91796Y258505D01*
X91892Y258565D01*
X91986Y258628D01*
X92077Y258695D01*
X92167Y258764D01*
X92254Y258837D01*
X92338Y258913D01*
X92419Y258992D01*
X92498Y259073D01*
X92574Y259157D01*
X92647Y259244D01*
X92716Y259334D01*
X92783Y259425D01*
X92846Y259519D01*
X92906Y259615D01*
X92963Y259713D01*
X93016Y259813D01*
X93066Y259915D01*
X93112Y260019D01*
X93154Y260124D01*
X93193Y260230D01*
X93228Y260338D01*
X93259Y260447D01*
X93287Y260557D01*
X93310Y260668D01*
X93330Y260779D01*
X93346Y260891D01*
X93358Y261004D01*
X93366Y261117D01*
X93370Y261230D01*
X93370Y261344D01*
X93366Y261457D01*
X93358Y261570D01*
X93346Y261683D01*
X93330Y261795D01*
X93310Y261906D01*
X93287Y262017D01*
X93259Y262127D01*
X93228Y262236D01*
X93193Y262344D01*
X93154Y262450D01*
X93112Y262555D01*
X93066Y262659D01*
X93016Y262761D01*
X92963Y262861D01*
X92906Y262959D01*
X92846Y263055D01*
X92783Y263149D01*
X92716Y263240D01*
X92647Y263330D01*
X92574Y263417D01*
X92498Y263501D01*
X92419Y263582D01*
X92338Y263661D01*
X92254Y263737D01*
X92167Y263810D01*
X92078Y263879D01*
X91986Y263946D01*
X95495Y267827D02*
X92305Y270061D01*
X95495Y267827D02*
X95576Y267767D01*
X95655Y267705D01*
X95732Y267639D01*
X95806Y267571D01*
X95877Y267500D01*
X95945Y267426D01*
X96011Y267349D01*
X96073Y267270D01*
X96133Y267189D01*
X96189Y267105D01*
X96242Y267020D01*
X96291Y266932D01*
X96337Y266843D01*
X96380Y266751D01*
X96419Y266658D01*
X96454Y266564D01*
X96486Y266469D01*
X96514Y266372D01*
X96538Y266274D01*
X96558Y266176D01*
X96575Y266076D01*
X96587Y265976D01*
X96596Y265876D01*
X96601Y265776D01*
X96602Y265675D01*
X96599Y265574D01*
X96592Y265474D01*
X96581Y265374D01*
X96567Y265274D01*
X96548Y265175D01*
X96526Y265077D01*
X96500Y264980D01*
X96470Y264883D01*
X96437Y264789D01*
X96400Y264695D01*
X96359Y264603D01*
X96314Y264512D01*
X96267Y264424D01*
X96215Y264337D01*
X96161Y264253D01*
X96103Y264170D01*
X96042Y264090D01*
X95978Y264012D01*
X95911Y263937D01*
X95842Y263864D01*
X95769Y263795D01*
X95694Y263728D01*
X95616Y263664D01*
X95536Y263603D01*
X95453Y263545D01*
X95369Y263491D01*
X95282Y263439D01*
X95194Y263392D01*
X95103Y263347D01*
X95011Y263306D01*
X94917Y263269D01*
X94823Y263236D01*
X94726Y263206D01*
X94629Y263180D01*
X94531Y263158D01*
X94432Y263139D01*
X94332Y263125D01*
X94232Y263114D01*
X94132Y263107D01*
X94031Y263104D01*
X93930Y263105D01*
X93830Y263110D01*
X93730Y263119D01*
X93630Y263131D01*
X93530Y263148D01*
X93432Y263168D01*
X93334Y263192D01*
X93237Y263220D01*
X93142Y263252D01*
X93048Y263287D01*
X92955Y263326D01*
X92863Y263369D01*
X92774Y263415D01*
X92686Y263464D01*
X92601Y263517D01*
X92517Y263573D01*
X90390Y265063D01*
X151802Y139190D02*
X151802Y135944D01*
X151802Y139190D02*
X151800Y139303D01*
X151794Y139416D01*
X151784Y139529D01*
X151770Y139642D01*
X151753Y139754D01*
X151731Y139865D01*
X151706Y139975D01*
X151676Y140085D01*
X151643Y140193D01*
X151606Y140300D01*
X151566Y140406D01*
X151521Y140510D01*
X151473Y140613D01*
X151422Y140714D01*
X151367Y140813D01*
X151309Y140910D01*
X151247Y141005D01*
X151182Y141098D01*
X151114Y141188D01*
X151043Y141276D01*
X150968Y141362D01*
X150891Y141445D01*
X150811Y141525D01*
X150728Y141602D01*
X150642Y141677D01*
X150554Y141748D01*
X150464Y141816D01*
X150371Y141881D01*
X150276Y141943D01*
X150179Y142001D01*
X150080Y142056D01*
X149979Y142107D01*
X149876Y142155D01*
X149772Y142200D01*
X149666Y142240D01*
X149559Y142277D01*
X149451Y142310D01*
X149341Y142340D01*
X149231Y142365D01*
X149120Y142387D01*
X149008Y142404D01*
X148895Y142418D01*
X148782Y142428D01*
X148669Y142434D01*
X148556Y142436D01*
X148443Y142434D01*
X148330Y142428D01*
X148217Y142418D01*
X148104Y142404D01*
X147992Y142387D01*
X147881Y142365D01*
X147771Y142340D01*
X147661Y142310D01*
X147553Y142277D01*
X147446Y142240D01*
X147340Y142200D01*
X147236Y142155D01*
X147133Y142107D01*
X147032Y142056D01*
X146933Y142001D01*
X146836Y141943D01*
X146741Y141881D01*
X146648Y141816D01*
X146558Y141748D01*
X146470Y141677D01*
X146384Y141602D01*
X146301Y141525D01*
X146221Y141445D01*
X146144Y141362D01*
X146069Y141276D01*
X145998Y141188D01*
X145930Y141098D01*
X145865Y141005D01*
X145803Y140910D01*
X145745Y140813D01*
X145690Y140714D01*
X145639Y140613D01*
X145591Y140510D01*
X145546Y140406D01*
X145506Y140300D01*
X145469Y140193D01*
X145436Y140085D01*
X145406Y139975D01*
X145381Y139865D01*
X145359Y139754D01*
X145342Y139642D01*
X145328Y139529D01*
X145318Y139416D01*
X145312Y139303D01*
X145310Y139190D01*
X140118Y139839D02*
X140118Y135944D01*
X140118Y139839D02*
X140120Y139940D01*
X140126Y140040D01*
X140136Y140140D01*
X140149Y140240D01*
X140167Y140339D01*
X140188Y140438D01*
X140213Y140535D01*
X140242Y140632D01*
X140275Y140727D01*
X140311Y140821D01*
X140351Y140913D01*
X140394Y141004D01*
X140441Y141093D01*
X140491Y141180D01*
X140545Y141266D01*
X140602Y141349D01*
X140662Y141429D01*
X140725Y141508D01*
X140792Y141584D01*
X140861Y141657D01*
X140933Y141727D01*
X141007Y141795D01*
X141084Y141860D01*
X141164Y141921D01*
X141246Y141980D01*
X141330Y142035D01*
X141416Y142087D01*
X141504Y142136D01*
X141594Y142181D01*
X141686Y142223D01*
X141779Y142261D01*
X141874Y142295D01*
X141969Y142326D01*
X142066Y142353D01*
X142164Y142376D01*
X142263Y142396D01*
X142363Y142411D01*
X142463Y142423D01*
X142563Y142431D01*
X142664Y142435D01*
X142764Y142435D01*
X142865Y142431D01*
X142965Y142423D01*
X143065Y142411D01*
X143165Y142396D01*
X143264Y142376D01*
X143362Y142353D01*
X143459Y142326D01*
X143554Y142295D01*
X143649Y142261D01*
X143742Y142223D01*
X143834Y142181D01*
X143924Y142136D01*
X144012Y142087D01*
X144098Y142035D01*
X144182Y141980D01*
X144264Y141921D01*
X144344Y141860D01*
X144421Y141795D01*
X144495Y141727D01*
X144567Y141657D01*
X144636Y141584D01*
X144703Y141508D01*
X144766Y141429D01*
X144826Y141349D01*
X144883Y141266D01*
X144937Y141180D01*
X144987Y141093D01*
X145034Y141004D01*
X145077Y140913D01*
X145117Y140821D01*
X145153Y140727D01*
X145186Y140632D01*
X145215Y140535D01*
X145240Y140438D01*
X145261Y140339D01*
X145279Y140240D01*
X145292Y140140D01*
X145302Y140040D01*
X145308Y139940D01*
X145310Y139839D01*
X145311Y139839D02*
X145311Y137243D01*
X140118Y146725D02*
X151802Y150620D01*
X140118Y154515D01*
X151802Y158804D02*
X151802Y162050D01*
X151800Y162163D01*
X151794Y162276D01*
X151784Y162389D01*
X151770Y162502D01*
X151753Y162614D01*
X151731Y162725D01*
X151706Y162835D01*
X151676Y162945D01*
X151643Y163053D01*
X151606Y163160D01*
X151566Y163266D01*
X151521Y163370D01*
X151473Y163473D01*
X151422Y163574D01*
X151367Y163673D01*
X151309Y163770D01*
X151247Y163865D01*
X151182Y163958D01*
X151114Y164048D01*
X151043Y164136D01*
X150968Y164222D01*
X150891Y164305D01*
X150811Y164385D01*
X150728Y164462D01*
X150642Y164537D01*
X150554Y164608D01*
X150464Y164676D01*
X150371Y164741D01*
X150276Y164803D01*
X150179Y164861D01*
X150080Y164916D01*
X149979Y164967D01*
X149876Y165015D01*
X149772Y165060D01*
X149666Y165100D01*
X149559Y165137D01*
X149451Y165170D01*
X149341Y165200D01*
X149231Y165225D01*
X149120Y165247D01*
X149008Y165264D01*
X148895Y165278D01*
X148782Y165288D01*
X148669Y165294D01*
X148556Y165296D01*
X148443Y165294D01*
X148330Y165288D01*
X148217Y165278D01*
X148104Y165264D01*
X147992Y165247D01*
X147881Y165225D01*
X147771Y165200D01*
X147661Y165170D01*
X147553Y165137D01*
X147446Y165100D01*
X147340Y165060D01*
X147236Y165015D01*
X147133Y164967D01*
X147032Y164916D01*
X146933Y164861D01*
X146836Y164803D01*
X146741Y164741D01*
X146648Y164676D01*
X146558Y164608D01*
X146470Y164537D01*
X146384Y164462D01*
X146301Y164385D01*
X146221Y164305D01*
X146144Y164222D01*
X146069Y164136D01*
X145998Y164048D01*
X145930Y163958D01*
X145865Y163865D01*
X145803Y163770D01*
X145745Y163673D01*
X145690Y163574D01*
X145639Y163473D01*
X145591Y163370D01*
X145546Y163266D01*
X145506Y163160D01*
X145469Y163053D01*
X145436Y162945D01*
X145406Y162835D01*
X145381Y162725D01*
X145359Y162614D01*
X145342Y162502D01*
X145328Y162389D01*
X145318Y162276D01*
X145312Y162163D01*
X145310Y162050D01*
X140118Y162699D02*
X140118Y158804D01*
X140118Y162699D02*
X140120Y162800D01*
X140126Y162900D01*
X140136Y163000D01*
X140149Y163100D01*
X140167Y163199D01*
X140188Y163298D01*
X140213Y163395D01*
X140242Y163492D01*
X140275Y163587D01*
X140311Y163681D01*
X140351Y163773D01*
X140394Y163864D01*
X140441Y163953D01*
X140491Y164040D01*
X140545Y164126D01*
X140602Y164209D01*
X140662Y164289D01*
X140725Y164368D01*
X140792Y164444D01*
X140861Y164517D01*
X140933Y164587D01*
X141007Y164655D01*
X141084Y164720D01*
X141164Y164781D01*
X141246Y164840D01*
X141330Y164895D01*
X141416Y164947D01*
X141504Y164996D01*
X141594Y165041D01*
X141686Y165083D01*
X141779Y165121D01*
X141874Y165155D01*
X141969Y165186D01*
X142066Y165213D01*
X142164Y165236D01*
X142263Y165256D01*
X142363Y165271D01*
X142463Y165283D01*
X142563Y165291D01*
X142664Y165295D01*
X142764Y165295D01*
X142865Y165291D01*
X142965Y165283D01*
X143065Y165271D01*
X143165Y165256D01*
X143264Y165236D01*
X143362Y165213D01*
X143459Y165186D01*
X143554Y165155D01*
X143649Y165121D01*
X143742Y165083D01*
X143834Y165041D01*
X143924Y164996D01*
X144012Y164947D01*
X144098Y164895D01*
X144182Y164840D01*
X144264Y164781D01*
X144344Y164720D01*
X144421Y164655D01*
X144495Y164587D01*
X144567Y164517D01*
X144636Y164444D01*
X144703Y164368D01*
X144766Y164289D01*
X144826Y164209D01*
X144883Y164126D01*
X144937Y164040D01*
X144987Y163953D01*
X145034Y163864D01*
X145077Y163773D01*
X145117Y163681D01*
X145153Y163587D01*
X145186Y163492D01*
X145215Y163395D01*
X145240Y163298D01*
X145261Y163199D01*
X145279Y163100D01*
X145292Y163000D01*
X145302Y162900D01*
X145308Y162800D01*
X145310Y162699D01*
X145311Y162699D02*
X145311Y160103D01*
X67348Y13579D02*
X64689Y11717D01*
X67348Y13578D02*
X67439Y13645D01*
X67529Y13714D01*
X67616Y13787D01*
X67700Y13863D01*
X67781Y13942D01*
X67860Y14023D01*
X67936Y14107D01*
X68009Y14194D01*
X68078Y14284D01*
X68145Y14375D01*
X68208Y14469D01*
X68268Y14565D01*
X68325Y14663D01*
X68378Y14763D01*
X68428Y14865D01*
X68474Y14969D01*
X68516Y15074D01*
X68555Y15180D01*
X68590Y15288D01*
X68621Y15397D01*
X68649Y15507D01*
X68672Y15618D01*
X68692Y15729D01*
X68708Y15841D01*
X68720Y15954D01*
X68728Y16067D01*
X68732Y16180D01*
X68732Y16294D01*
X68728Y16407D01*
X68720Y16520D01*
X68708Y16633D01*
X68692Y16745D01*
X68672Y16856D01*
X68649Y16967D01*
X68621Y17077D01*
X68590Y17186D01*
X68555Y17294D01*
X68516Y17400D01*
X68474Y17505D01*
X68428Y17609D01*
X68378Y17711D01*
X68325Y17811D01*
X68268Y17909D01*
X68208Y18005D01*
X68145Y18099D01*
X68078Y18190D01*
X68009Y18280D01*
X67936Y18367D01*
X67860Y18451D01*
X67781Y18532D01*
X67700Y18611D01*
X67616Y18687D01*
X67529Y18760D01*
X67440Y18829D01*
X67348Y18896D01*
X67254Y18959D01*
X67158Y19019D01*
X67060Y19076D01*
X66960Y19129D01*
X66858Y19179D01*
X66754Y19225D01*
X66649Y19267D01*
X66543Y19306D01*
X66435Y19341D01*
X66326Y19372D01*
X66216Y19400D01*
X66105Y19423D01*
X65994Y19443D01*
X65882Y19459D01*
X65769Y19471D01*
X65656Y19479D01*
X65543Y19483D01*
X65429Y19483D01*
X65316Y19479D01*
X65203Y19471D01*
X65090Y19459D01*
X64978Y19443D01*
X64867Y19423D01*
X64756Y19400D01*
X64646Y19372D01*
X64537Y19341D01*
X64429Y19306D01*
X64323Y19267D01*
X64218Y19225D01*
X64114Y19179D01*
X64012Y19129D01*
X63912Y19076D01*
X63814Y19019D01*
X63718Y18959D01*
X63624Y18896D01*
X61178Y23522D02*
X57988Y21288D01*
X61178Y23522D02*
X61262Y23578D01*
X61347Y23631D01*
X61435Y23680D01*
X61524Y23726D01*
X61616Y23769D01*
X61709Y23808D01*
X61803Y23843D01*
X61898Y23875D01*
X61995Y23903D01*
X62093Y23927D01*
X62191Y23947D01*
X62291Y23964D01*
X62391Y23976D01*
X62491Y23985D01*
X62592Y23990D01*
X62692Y23991D01*
X62793Y23988D01*
X62893Y23981D01*
X62993Y23970D01*
X63093Y23956D01*
X63192Y23937D01*
X63290Y23915D01*
X63387Y23889D01*
X63484Y23859D01*
X63579Y23826D01*
X63672Y23789D01*
X63764Y23748D01*
X63855Y23703D01*
X63943Y23656D01*
X64030Y23604D01*
X64114Y23550D01*
X64197Y23492D01*
X64277Y23431D01*
X64355Y23367D01*
X64430Y23300D01*
X64503Y23231D01*
X64572Y23158D01*
X64639Y23083D01*
X64703Y23005D01*
X64764Y22925D01*
X64822Y22842D01*
X64876Y22758D01*
X64928Y22671D01*
X64975Y22583D01*
X65020Y22492D01*
X65061Y22400D01*
X65098Y22306D01*
X65131Y22212D01*
X65161Y22115D01*
X65187Y22018D01*
X65209Y21920D01*
X65228Y21821D01*
X65242Y21721D01*
X65253Y21621D01*
X65260Y21521D01*
X65263Y21420D01*
X65262Y21320D01*
X65257Y21219D01*
X65248Y21119D01*
X65236Y21019D01*
X65219Y20919D01*
X65199Y20821D01*
X65175Y20723D01*
X65147Y20626D01*
X65115Y20531D01*
X65080Y20437D01*
X65041Y20344D01*
X64998Y20252D01*
X64952Y20163D01*
X64903Y20075D01*
X64850Y19990D01*
X64794Y19906D01*
X64734Y19825D01*
X64672Y19746D01*
X64606Y19669D01*
X64538Y19595D01*
X64467Y19524D01*
X64393Y19456D01*
X64316Y19390D01*
X64237Y19328D01*
X64156Y19268D01*
X62030Y17779D01*
X66819Y27472D02*
X76711Y20134D01*
X73199Y31939D01*
X83415Y24829D02*
X86074Y26690D01*
X86165Y26757D01*
X86255Y26826D01*
X86342Y26899D01*
X86426Y26975D01*
X86507Y27054D01*
X86586Y27135D01*
X86662Y27219D01*
X86735Y27306D01*
X86804Y27396D01*
X86871Y27487D01*
X86934Y27581D01*
X86994Y27677D01*
X87051Y27775D01*
X87104Y27875D01*
X87154Y27977D01*
X87200Y28081D01*
X87242Y28186D01*
X87281Y28292D01*
X87316Y28400D01*
X87347Y28509D01*
X87375Y28619D01*
X87398Y28730D01*
X87418Y28841D01*
X87434Y28953D01*
X87446Y29066D01*
X87454Y29179D01*
X87458Y29292D01*
X87458Y29406D01*
X87454Y29519D01*
X87446Y29632D01*
X87434Y29745D01*
X87418Y29857D01*
X87398Y29968D01*
X87375Y30079D01*
X87347Y30189D01*
X87316Y30298D01*
X87281Y30406D01*
X87242Y30512D01*
X87200Y30617D01*
X87154Y30721D01*
X87104Y30823D01*
X87051Y30923D01*
X86994Y31021D01*
X86934Y31117D01*
X86871Y31211D01*
X86804Y31302D01*
X86735Y31392D01*
X86662Y31479D01*
X86586Y31563D01*
X86507Y31644D01*
X86426Y31723D01*
X86342Y31799D01*
X86255Y31872D01*
X86166Y31941D01*
X86074Y32008D01*
X85980Y32071D01*
X85884Y32131D01*
X85786Y32188D01*
X85686Y32241D01*
X85584Y32291D01*
X85480Y32337D01*
X85375Y32379D01*
X85269Y32418D01*
X85161Y32453D01*
X85052Y32484D01*
X84942Y32512D01*
X84831Y32535D01*
X84720Y32555D01*
X84608Y32571D01*
X84495Y32583D01*
X84382Y32591D01*
X84269Y32595D01*
X84155Y32595D01*
X84042Y32591D01*
X83929Y32583D01*
X83816Y32571D01*
X83704Y32555D01*
X83593Y32535D01*
X83482Y32512D01*
X83372Y32484D01*
X83263Y32453D01*
X83155Y32418D01*
X83049Y32379D01*
X82944Y32337D01*
X82840Y32291D01*
X82738Y32241D01*
X82638Y32188D01*
X82540Y32131D01*
X82444Y32071D01*
X82350Y32008D01*
X79904Y36634D02*
X76713Y34400D01*
X79904Y36634D02*
X79988Y36690D01*
X80073Y36743D01*
X80161Y36792D01*
X80250Y36838D01*
X80342Y36881D01*
X80435Y36920D01*
X80529Y36955D01*
X80624Y36987D01*
X80721Y37015D01*
X80819Y37039D01*
X80917Y37059D01*
X81017Y37076D01*
X81117Y37088D01*
X81217Y37097D01*
X81318Y37102D01*
X81418Y37103D01*
X81519Y37100D01*
X81619Y37093D01*
X81719Y37082D01*
X81819Y37068D01*
X81918Y37049D01*
X82016Y37027D01*
X82113Y37001D01*
X82210Y36971D01*
X82305Y36938D01*
X82398Y36901D01*
X82490Y36860D01*
X82581Y36815D01*
X82669Y36768D01*
X82756Y36716D01*
X82840Y36662D01*
X82923Y36604D01*
X83003Y36543D01*
X83081Y36479D01*
X83156Y36412D01*
X83229Y36343D01*
X83298Y36270D01*
X83365Y36195D01*
X83429Y36117D01*
X83490Y36037D01*
X83548Y35954D01*
X83602Y35870D01*
X83654Y35783D01*
X83701Y35695D01*
X83746Y35604D01*
X83787Y35512D01*
X83824Y35418D01*
X83857Y35324D01*
X83887Y35227D01*
X83913Y35130D01*
X83935Y35032D01*
X83954Y34933D01*
X83968Y34833D01*
X83979Y34733D01*
X83986Y34633D01*
X83989Y34532D01*
X83988Y34432D01*
X83983Y34331D01*
X83974Y34231D01*
X83962Y34131D01*
X83945Y34031D01*
X83925Y33933D01*
X83901Y33835D01*
X83873Y33738D01*
X83841Y33643D01*
X83806Y33549D01*
X83767Y33456D01*
X83724Y33364D01*
X83678Y33275D01*
X83629Y33187D01*
X83576Y33102D01*
X83520Y33018D01*
X83460Y32937D01*
X83398Y32858D01*
X83332Y32781D01*
X83264Y32707D01*
X83193Y32636D01*
X83119Y32568D01*
X83042Y32502D01*
X82963Y32440D01*
X82882Y32380D01*
X80755Y30891D01*
X-84554Y26690D02*
X-87212Y28552D01*
X-84554Y26690D02*
X-84460Y26627D01*
X-84364Y26567D01*
X-84266Y26510D01*
X-84166Y26457D01*
X-84064Y26407D01*
X-83960Y26361D01*
X-83855Y26319D01*
X-83749Y26280D01*
X-83641Y26245D01*
X-83532Y26214D01*
X-83422Y26186D01*
X-83311Y26163D01*
X-83200Y26143D01*
X-83088Y26127D01*
X-82975Y26115D01*
X-82862Y26107D01*
X-82749Y26103D01*
X-82635Y26103D01*
X-82522Y26107D01*
X-82409Y26115D01*
X-82296Y26127D01*
X-82184Y26143D01*
X-82073Y26163D01*
X-81962Y26186D01*
X-81852Y26214D01*
X-81743Y26245D01*
X-81635Y26280D01*
X-81529Y26319D01*
X-81424Y26361D01*
X-81320Y26407D01*
X-81218Y26457D01*
X-81118Y26510D01*
X-81020Y26567D01*
X-80924Y26627D01*
X-80830Y26690D01*
X-80739Y26757D01*
X-80649Y26826D01*
X-80562Y26899D01*
X-80478Y26975D01*
X-80397Y27054D01*
X-80318Y27135D01*
X-80242Y27219D01*
X-80169Y27306D01*
X-80100Y27396D01*
X-80033Y27487D01*
X-79970Y27581D01*
X-79910Y27677D01*
X-79853Y27775D01*
X-79800Y27875D01*
X-79750Y27977D01*
X-79704Y28081D01*
X-79662Y28186D01*
X-79623Y28292D01*
X-79588Y28400D01*
X-79557Y28509D01*
X-79529Y28619D01*
X-79506Y28730D01*
X-79486Y28841D01*
X-79470Y28953D01*
X-79458Y29066D01*
X-79450Y29179D01*
X-79446Y29292D01*
X-79446Y29406D01*
X-79450Y29519D01*
X-79458Y29632D01*
X-79470Y29745D01*
X-79486Y29857D01*
X-79506Y29968D01*
X-79529Y30079D01*
X-79557Y30189D01*
X-79588Y30298D01*
X-79623Y30406D01*
X-79662Y30512D01*
X-79704Y30617D01*
X-79750Y30721D01*
X-79800Y30823D01*
X-79853Y30923D01*
X-79910Y31021D01*
X-79970Y31117D01*
X-80033Y31211D01*
X-80100Y31302D01*
X-80169Y31392D01*
X-80242Y31479D01*
X-80318Y31563D01*
X-80397Y31644D01*
X-80478Y31723D01*
X-80562Y31799D01*
X-80649Y31872D01*
X-80738Y31941D01*
X-80830Y32008D01*
X-77320Y35889D02*
X-80511Y38123D01*
X-77321Y35889D02*
X-77240Y35829D01*
X-77161Y35767D01*
X-77084Y35701D01*
X-77010Y35633D01*
X-76939Y35562D01*
X-76871Y35488D01*
X-76805Y35411D01*
X-76743Y35332D01*
X-76683Y35251D01*
X-76627Y35167D01*
X-76574Y35082D01*
X-76525Y34994D01*
X-76479Y34905D01*
X-76436Y34813D01*
X-76397Y34720D01*
X-76362Y34626D01*
X-76330Y34531D01*
X-76302Y34434D01*
X-76278Y34336D01*
X-76258Y34238D01*
X-76241Y34138D01*
X-76229Y34038D01*
X-76220Y33938D01*
X-76215Y33837D01*
X-76214Y33737D01*
X-76217Y33636D01*
X-76224Y33536D01*
X-76235Y33436D01*
X-76249Y33336D01*
X-76268Y33237D01*
X-76290Y33139D01*
X-76316Y33042D01*
X-76346Y32945D01*
X-76379Y32851D01*
X-76416Y32757D01*
X-76457Y32665D01*
X-76502Y32574D01*
X-76549Y32486D01*
X-76601Y32399D01*
X-76655Y32315D01*
X-76713Y32232D01*
X-76774Y32152D01*
X-76838Y32074D01*
X-76905Y31999D01*
X-76974Y31926D01*
X-77047Y31857D01*
X-77122Y31790D01*
X-77200Y31726D01*
X-77280Y31665D01*
X-77363Y31607D01*
X-77447Y31553D01*
X-77534Y31501D01*
X-77622Y31454D01*
X-77713Y31409D01*
X-77805Y31368D01*
X-77898Y31331D01*
X-77993Y31298D01*
X-78090Y31268D01*
X-78187Y31242D01*
X-78285Y31220D01*
X-78384Y31201D01*
X-78484Y31187D01*
X-78584Y31176D01*
X-78684Y31169D01*
X-78785Y31166D01*
X-78885Y31167D01*
X-78986Y31172D01*
X-79086Y31181D01*
X-79186Y31193D01*
X-79286Y31210D01*
X-79384Y31230D01*
X-79482Y31254D01*
X-79579Y31282D01*
X-79674Y31314D01*
X-79768Y31349D01*
X-79861Y31388D01*
X-79953Y31431D01*
X-80042Y31477D01*
X-80130Y31526D01*
X-80215Y31579D01*
X-80299Y31635D01*
X-82426Y33125D01*
X-71679Y31939D02*
X-75191Y20134D01*
X-65299Y27472D01*
X-68486Y15440D02*
X-65828Y13578D01*
X-65734Y13515D01*
X-65638Y13455D01*
X-65540Y13398D01*
X-65440Y13345D01*
X-65338Y13295D01*
X-65234Y13249D01*
X-65129Y13207D01*
X-65023Y13168D01*
X-64915Y13133D01*
X-64806Y13102D01*
X-64696Y13074D01*
X-64585Y13051D01*
X-64474Y13031D01*
X-64362Y13015D01*
X-64249Y13003D01*
X-64136Y12995D01*
X-64023Y12991D01*
X-63909Y12991D01*
X-63796Y12995D01*
X-63683Y13003D01*
X-63570Y13015D01*
X-63458Y13031D01*
X-63347Y13051D01*
X-63236Y13074D01*
X-63126Y13102D01*
X-63017Y13133D01*
X-62909Y13168D01*
X-62803Y13207D01*
X-62698Y13249D01*
X-62594Y13295D01*
X-62492Y13345D01*
X-62392Y13398D01*
X-62294Y13455D01*
X-62198Y13515D01*
X-62104Y13578D01*
X-62013Y13645D01*
X-61923Y13714D01*
X-61836Y13787D01*
X-61752Y13863D01*
X-61671Y13942D01*
X-61592Y14023D01*
X-61516Y14107D01*
X-61443Y14194D01*
X-61374Y14284D01*
X-61307Y14375D01*
X-61244Y14469D01*
X-61184Y14565D01*
X-61127Y14663D01*
X-61074Y14763D01*
X-61024Y14865D01*
X-60978Y14969D01*
X-60936Y15074D01*
X-60897Y15180D01*
X-60862Y15288D01*
X-60831Y15397D01*
X-60803Y15507D01*
X-60780Y15618D01*
X-60760Y15729D01*
X-60744Y15841D01*
X-60732Y15954D01*
X-60724Y16067D01*
X-60720Y16180D01*
X-60720Y16294D01*
X-60724Y16407D01*
X-60732Y16520D01*
X-60744Y16633D01*
X-60760Y16745D01*
X-60780Y16856D01*
X-60803Y16967D01*
X-60831Y17077D01*
X-60862Y17186D01*
X-60897Y17294D01*
X-60936Y17400D01*
X-60978Y17505D01*
X-61024Y17609D01*
X-61074Y17711D01*
X-61127Y17811D01*
X-61184Y17909D01*
X-61244Y18005D01*
X-61307Y18099D01*
X-61374Y18190D01*
X-61443Y18280D01*
X-61516Y18367D01*
X-61592Y18451D01*
X-61671Y18532D01*
X-61752Y18611D01*
X-61836Y18687D01*
X-61923Y18760D01*
X-62012Y18829D01*
X-62104Y18896D01*
X-58594Y22777D02*
X-61785Y25011D01*
X-58595Y22777D02*
X-58514Y22717D01*
X-58435Y22655D01*
X-58358Y22589D01*
X-58284Y22521D01*
X-58213Y22450D01*
X-58145Y22376D01*
X-58079Y22299D01*
X-58017Y22220D01*
X-57957Y22139D01*
X-57901Y22055D01*
X-57848Y21970D01*
X-57799Y21882D01*
X-57753Y21793D01*
X-57710Y21701D01*
X-57671Y21608D01*
X-57636Y21514D01*
X-57604Y21419D01*
X-57576Y21322D01*
X-57552Y21224D01*
X-57532Y21126D01*
X-57515Y21026D01*
X-57503Y20926D01*
X-57494Y20826D01*
X-57489Y20725D01*
X-57488Y20625D01*
X-57491Y20524D01*
X-57498Y20424D01*
X-57509Y20324D01*
X-57523Y20224D01*
X-57542Y20125D01*
X-57564Y20027D01*
X-57590Y19930D01*
X-57620Y19833D01*
X-57653Y19739D01*
X-57690Y19645D01*
X-57731Y19553D01*
X-57776Y19462D01*
X-57823Y19374D01*
X-57875Y19287D01*
X-57929Y19203D01*
X-57987Y19120D01*
X-58048Y19040D01*
X-58112Y18962D01*
X-58179Y18887D01*
X-58248Y18814D01*
X-58321Y18745D01*
X-58396Y18678D01*
X-58474Y18614D01*
X-58554Y18553D01*
X-58637Y18495D01*
X-58721Y18441D01*
X-58808Y18389D01*
X-58896Y18342D01*
X-58987Y18297D01*
X-59079Y18256D01*
X-59172Y18219D01*
X-59267Y18186D01*
X-59364Y18156D01*
X-59461Y18130D01*
X-59559Y18108D01*
X-59658Y18089D01*
X-59758Y18075D01*
X-59858Y18064D01*
X-59958Y18057D01*
X-60059Y18054D01*
X-60159Y18055D01*
X-60260Y18060D01*
X-60360Y18069D01*
X-60460Y18081D01*
X-60560Y18098D01*
X-60658Y18118D01*
X-60756Y18142D01*
X-60853Y18170D01*
X-60948Y18202D01*
X-61042Y18237D01*
X-61135Y18276D01*
X-61227Y18319D01*
X-61316Y18365D01*
X-61404Y18414D01*
X-61489Y18467D01*
X-61573Y18523D01*
X-63700Y20013D01*
X-138598Y135944D02*
X-138598Y139190D01*
X-138600Y139303D01*
X-138606Y139416D01*
X-138616Y139529D01*
X-138630Y139642D01*
X-138647Y139754D01*
X-138669Y139865D01*
X-138694Y139975D01*
X-138724Y140085D01*
X-138757Y140193D01*
X-138794Y140300D01*
X-138834Y140406D01*
X-138879Y140510D01*
X-138927Y140613D01*
X-138978Y140714D01*
X-139033Y140813D01*
X-139091Y140910D01*
X-139153Y141005D01*
X-139218Y141098D01*
X-139286Y141188D01*
X-139357Y141276D01*
X-139432Y141362D01*
X-139509Y141445D01*
X-139589Y141525D01*
X-139672Y141602D01*
X-139758Y141677D01*
X-139846Y141748D01*
X-139936Y141816D01*
X-140029Y141881D01*
X-140124Y141943D01*
X-140221Y142001D01*
X-140320Y142056D01*
X-140421Y142107D01*
X-140524Y142155D01*
X-140628Y142200D01*
X-140734Y142240D01*
X-140841Y142277D01*
X-140949Y142310D01*
X-141059Y142340D01*
X-141169Y142365D01*
X-141280Y142387D01*
X-141392Y142404D01*
X-141505Y142418D01*
X-141618Y142428D01*
X-141731Y142434D01*
X-141844Y142436D01*
X-141957Y142434D01*
X-142070Y142428D01*
X-142183Y142418D01*
X-142296Y142404D01*
X-142408Y142387D01*
X-142519Y142365D01*
X-142629Y142340D01*
X-142739Y142310D01*
X-142847Y142277D01*
X-142954Y142240D01*
X-143060Y142200D01*
X-143164Y142155D01*
X-143267Y142107D01*
X-143368Y142056D01*
X-143467Y142001D01*
X-143564Y141943D01*
X-143659Y141881D01*
X-143752Y141816D01*
X-143842Y141748D01*
X-143930Y141677D01*
X-144016Y141602D01*
X-144099Y141525D01*
X-144179Y141445D01*
X-144256Y141362D01*
X-144331Y141276D01*
X-144402Y141188D01*
X-144470Y141098D01*
X-144535Y141005D01*
X-144597Y140910D01*
X-144655Y140813D01*
X-144710Y140714D01*
X-144761Y140613D01*
X-144809Y140510D01*
X-144854Y140406D01*
X-144894Y140300D01*
X-144931Y140193D01*
X-144964Y140085D01*
X-144994Y139975D01*
X-145019Y139865D01*
X-145041Y139754D01*
X-145058Y139642D01*
X-145072Y139529D01*
X-145082Y139416D01*
X-145088Y139303D01*
X-145090Y139190D01*
X-150282Y139839D02*
X-150282Y135944D01*
X-150282Y139839D02*
X-150280Y139940D01*
X-150274Y140040D01*
X-150264Y140140D01*
X-150251Y140240D01*
X-150233Y140339D01*
X-150212Y140438D01*
X-150187Y140535D01*
X-150158Y140632D01*
X-150125Y140727D01*
X-150089Y140821D01*
X-150049Y140913D01*
X-150006Y141004D01*
X-149959Y141093D01*
X-149909Y141180D01*
X-149855Y141266D01*
X-149798Y141349D01*
X-149738Y141429D01*
X-149675Y141508D01*
X-149608Y141584D01*
X-149539Y141657D01*
X-149467Y141727D01*
X-149393Y141795D01*
X-149316Y141860D01*
X-149236Y141921D01*
X-149154Y141980D01*
X-149070Y142035D01*
X-148984Y142087D01*
X-148896Y142136D01*
X-148806Y142181D01*
X-148714Y142223D01*
X-148621Y142261D01*
X-148526Y142295D01*
X-148431Y142326D01*
X-148334Y142353D01*
X-148236Y142376D01*
X-148137Y142396D01*
X-148037Y142411D01*
X-147937Y142423D01*
X-147837Y142431D01*
X-147736Y142435D01*
X-147636Y142435D01*
X-147535Y142431D01*
X-147435Y142423D01*
X-147335Y142411D01*
X-147235Y142396D01*
X-147136Y142376D01*
X-147038Y142353D01*
X-146941Y142326D01*
X-146846Y142295D01*
X-146751Y142261D01*
X-146658Y142223D01*
X-146566Y142181D01*
X-146476Y142136D01*
X-146388Y142087D01*
X-146302Y142035D01*
X-146218Y141980D01*
X-146136Y141921D01*
X-146056Y141860D01*
X-145979Y141795D01*
X-145905Y141727D01*
X-145833Y141657D01*
X-145764Y141584D01*
X-145697Y141508D01*
X-145634Y141429D01*
X-145574Y141349D01*
X-145517Y141266D01*
X-145463Y141180D01*
X-145413Y141093D01*
X-145366Y141004D01*
X-145323Y140913D01*
X-145283Y140821D01*
X-145247Y140727D01*
X-145214Y140632D01*
X-145185Y140535D01*
X-145160Y140438D01*
X-145139Y140339D01*
X-145121Y140240D01*
X-145108Y140140D01*
X-145098Y140040D01*
X-145092Y139940D01*
X-145090Y139839D01*
X-145089Y139839D02*
X-145089Y137243D01*
X-150282Y146725D02*
X-138598Y150620D01*
X-150282Y154515D01*
X-138598Y158804D02*
X-138598Y162050D01*
X-138600Y162163D01*
X-138606Y162276D01*
X-138616Y162389D01*
X-138630Y162502D01*
X-138647Y162614D01*
X-138669Y162725D01*
X-138694Y162835D01*
X-138724Y162945D01*
X-138757Y163053D01*
X-138794Y163160D01*
X-138834Y163266D01*
X-138879Y163370D01*
X-138927Y163473D01*
X-138978Y163574D01*
X-139033Y163673D01*
X-139091Y163770D01*
X-139153Y163865D01*
X-139218Y163958D01*
X-139286Y164048D01*
X-139357Y164136D01*
X-139432Y164222D01*
X-139509Y164305D01*
X-139589Y164385D01*
X-139672Y164462D01*
X-139758Y164537D01*
X-139846Y164608D01*
X-139936Y164676D01*
X-140029Y164741D01*
X-140124Y164803D01*
X-140221Y164861D01*
X-140320Y164916D01*
X-140421Y164967D01*
X-140524Y165015D01*
X-140628Y165060D01*
X-140734Y165100D01*
X-140841Y165137D01*
X-140949Y165170D01*
X-141059Y165200D01*
X-141169Y165225D01*
X-141280Y165247D01*
X-141392Y165264D01*
X-141505Y165278D01*
X-141618Y165288D01*
X-141731Y165294D01*
X-141844Y165296D01*
X-141957Y165294D01*
X-142070Y165288D01*
X-142183Y165278D01*
X-142296Y165264D01*
X-142408Y165247D01*
X-142519Y165225D01*
X-142629Y165200D01*
X-142739Y165170D01*
X-142847Y165137D01*
X-142954Y165100D01*
X-143060Y165060D01*
X-143164Y165015D01*
X-143267Y164967D01*
X-143368Y164916D01*
X-143467Y164861D01*
X-143564Y164803D01*
X-143659Y164741D01*
X-143752Y164676D01*
X-143842Y164608D01*
X-143930Y164537D01*
X-144016Y164462D01*
X-144099Y164385D01*
X-144179Y164305D01*
X-144256Y164222D01*
X-144331Y164136D01*
X-144402Y164048D01*
X-144470Y163958D01*
X-144535Y163865D01*
X-144597Y163770D01*
X-144655Y163673D01*
X-144710Y163574D01*
X-144761Y163473D01*
X-144809Y163370D01*
X-144854Y163266D01*
X-144894Y163160D01*
X-144931Y163053D01*
X-144964Y162945D01*
X-144994Y162835D01*
X-145019Y162725D01*
X-145041Y162614D01*
X-145058Y162502D01*
X-145072Y162389D01*
X-145082Y162276D01*
X-145088Y162163D01*
X-145090Y162050D01*
X-150282Y162699D02*
X-150282Y158804D01*
X-150282Y162699D02*
X-150280Y162800D01*
X-150274Y162900D01*
X-150264Y163000D01*
X-150251Y163100D01*
X-150233Y163199D01*
X-150212Y163298D01*
X-150187Y163395D01*
X-150158Y163492D01*
X-150125Y163587D01*
X-150089Y163681D01*
X-150049Y163773D01*
X-150006Y163864D01*
X-149959Y163953D01*
X-149909Y164040D01*
X-149855Y164126D01*
X-149798Y164209D01*
X-149738Y164289D01*
X-149675Y164368D01*
X-149608Y164444D01*
X-149539Y164517D01*
X-149467Y164587D01*
X-149393Y164655D01*
X-149316Y164720D01*
X-149236Y164781D01*
X-149154Y164840D01*
X-149070Y164895D01*
X-148984Y164947D01*
X-148896Y164996D01*
X-148806Y165041D01*
X-148714Y165083D01*
X-148621Y165121D01*
X-148526Y165155D01*
X-148431Y165186D01*
X-148334Y165213D01*
X-148236Y165236D01*
X-148137Y165256D01*
X-148037Y165271D01*
X-147937Y165283D01*
X-147837Y165291D01*
X-147736Y165295D01*
X-147636Y165295D01*
X-147535Y165291D01*
X-147435Y165283D01*
X-147335Y165271D01*
X-147235Y165256D01*
X-147136Y165236D01*
X-147038Y165213D01*
X-146941Y165186D01*
X-146846Y165155D01*
X-146751Y165121D01*
X-146658Y165083D01*
X-146566Y165041D01*
X-146476Y164996D01*
X-146388Y164947D01*
X-146302Y164895D01*
X-146218Y164840D01*
X-146136Y164781D01*
X-146056Y164720D01*
X-145979Y164655D01*
X-145905Y164587D01*
X-145833Y164517D01*
X-145764Y164444D01*
X-145697Y164368D01*
X-145634Y164289D01*
X-145574Y164209D01*
X-145517Y164126D01*
X-145463Y164040D01*
X-145413Y163953D01*
X-145366Y163864D01*
X-145323Y163773D01*
X-145283Y163681D01*
X-145247Y163587D01*
X-145214Y163492D01*
X-145185Y163395D01*
X-145160Y163298D01*
X-145139Y163199D01*
X-145121Y163100D01*
X-145108Y163000D01*
X-145098Y162900D01*
X-145092Y162800D01*
X-145090Y162699D01*
X-145089Y162699D02*
X-145089Y160103D01*
X-88131Y258037D02*
X-85472Y259899D01*
X-85472Y259898D02*
X-85381Y259965D01*
X-85291Y260034D01*
X-85204Y260107D01*
X-85120Y260183D01*
X-85039Y260262D01*
X-84960Y260343D01*
X-84884Y260427D01*
X-84811Y260514D01*
X-84742Y260603D01*
X-84675Y260695D01*
X-84612Y260789D01*
X-84552Y260885D01*
X-84495Y260983D01*
X-84442Y261083D01*
X-84392Y261185D01*
X-84346Y261289D01*
X-84304Y261394D01*
X-84265Y261500D01*
X-84230Y261608D01*
X-84199Y261717D01*
X-84171Y261827D01*
X-84148Y261938D01*
X-84128Y262049D01*
X-84112Y262161D01*
X-84100Y262274D01*
X-84092Y262387D01*
X-84088Y262500D01*
X-84088Y262614D01*
X-84092Y262727D01*
X-84100Y262840D01*
X-84112Y262953D01*
X-84128Y263065D01*
X-84148Y263176D01*
X-84171Y263287D01*
X-84199Y263397D01*
X-84230Y263506D01*
X-84265Y263614D01*
X-84304Y263720D01*
X-84346Y263825D01*
X-84392Y263929D01*
X-84442Y264031D01*
X-84495Y264131D01*
X-84552Y264229D01*
X-84612Y264325D01*
X-84675Y264419D01*
X-84742Y264510D01*
X-84811Y264600D01*
X-84884Y264687D01*
X-84960Y264771D01*
X-85039Y264852D01*
X-85120Y264931D01*
X-85204Y265007D01*
X-85291Y265080D01*
X-85381Y265149D01*
X-85472Y265216D01*
X-85566Y265279D01*
X-85662Y265339D01*
X-85760Y265396D01*
X-85860Y265449D01*
X-85962Y265499D01*
X-86066Y265545D01*
X-86171Y265587D01*
X-86277Y265626D01*
X-86385Y265661D01*
X-86494Y265692D01*
X-86604Y265720D01*
X-86715Y265743D01*
X-86826Y265763D01*
X-86938Y265779D01*
X-87051Y265791D01*
X-87164Y265799D01*
X-87277Y265803D01*
X-87391Y265803D01*
X-87504Y265799D01*
X-87617Y265791D01*
X-87730Y265779D01*
X-87842Y265763D01*
X-87953Y265743D01*
X-88064Y265720D01*
X-88174Y265692D01*
X-88283Y265661D01*
X-88391Y265626D01*
X-88497Y265587D01*
X-88602Y265545D01*
X-88706Y265499D01*
X-88808Y265449D01*
X-88908Y265396D01*
X-89006Y265339D01*
X-89102Y265279D01*
X-89196Y265216D01*
X-91642Y269842D02*
X-94832Y267608D01*
X-91642Y269842D02*
X-91558Y269898D01*
X-91473Y269951D01*
X-91385Y270000D01*
X-91296Y270046D01*
X-91204Y270089D01*
X-91111Y270128D01*
X-91017Y270163D01*
X-90922Y270195D01*
X-90825Y270223D01*
X-90727Y270247D01*
X-90629Y270267D01*
X-90529Y270284D01*
X-90429Y270296D01*
X-90329Y270305D01*
X-90229Y270310D01*
X-90128Y270311D01*
X-90027Y270308D01*
X-89927Y270301D01*
X-89827Y270290D01*
X-89727Y270276D01*
X-89628Y270257D01*
X-89530Y270235D01*
X-89433Y270209D01*
X-89336Y270179D01*
X-89242Y270146D01*
X-89148Y270109D01*
X-89056Y270068D01*
X-88965Y270023D01*
X-88877Y269976D01*
X-88790Y269924D01*
X-88706Y269870D01*
X-88623Y269812D01*
X-88543Y269751D01*
X-88465Y269687D01*
X-88390Y269620D01*
X-88317Y269551D01*
X-88248Y269478D01*
X-88181Y269403D01*
X-88117Y269325D01*
X-88056Y269245D01*
X-87998Y269162D01*
X-87944Y269078D01*
X-87892Y268991D01*
X-87845Y268903D01*
X-87800Y268812D01*
X-87759Y268720D01*
X-87722Y268626D01*
X-87689Y268532D01*
X-87659Y268435D01*
X-87633Y268338D01*
X-87611Y268240D01*
X-87592Y268141D01*
X-87578Y268041D01*
X-87567Y267941D01*
X-87560Y267841D01*
X-87557Y267740D01*
X-87558Y267639D01*
X-87563Y267539D01*
X-87572Y267439D01*
X-87584Y267339D01*
X-87601Y267239D01*
X-87621Y267141D01*
X-87645Y267043D01*
X-87673Y266946D01*
X-87705Y266851D01*
X-87740Y266757D01*
X-87779Y266664D01*
X-87822Y266572D01*
X-87868Y266483D01*
X-87917Y266395D01*
X-87970Y266310D01*
X-88026Y266226D01*
X-88086Y266145D01*
X-88148Y266066D01*
X-88214Y265989D01*
X-88282Y265915D01*
X-88353Y265844D01*
X-88427Y265776D01*
X-88504Y265710D01*
X-88583Y265648D01*
X-88664Y265588D01*
X-88663Y265588D02*
X-90790Y264099D01*
X-86001Y273792D02*
X-76109Y266454D01*
X-79620Y278259D01*
X-69405Y271149D02*
X-66746Y273010D01*
X-66655Y273077D01*
X-66565Y273146D01*
X-66478Y273219D01*
X-66394Y273295D01*
X-66313Y273374D01*
X-66234Y273455D01*
X-66158Y273539D01*
X-66085Y273626D01*
X-66016Y273715D01*
X-65949Y273807D01*
X-65886Y273901D01*
X-65826Y273997D01*
X-65769Y274095D01*
X-65716Y274195D01*
X-65666Y274297D01*
X-65620Y274401D01*
X-65578Y274506D01*
X-65539Y274612D01*
X-65504Y274720D01*
X-65473Y274829D01*
X-65445Y274939D01*
X-65422Y275050D01*
X-65402Y275161D01*
X-65386Y275273D01*
X-65374Y275386D01*
X-65366Y275499D01*
X-65362Y275612D01*
X-65362Y275726D01*
X-65366Y275839D01*
X-65374Y275952D01*
X-65386Y276065D01*
X-65402Y276177D01*
X-65422Y276288D01*
X-65445Y276399D01*
X-65473Y276509D01*
X-65504Y276618D01*
X-65539Y276726D01*
X-65578Y276832D01*
X-65620Y276937D01*
X-65666Y277041D01*
X-65716Y277143D01*
X-65769Y277243D01*
X-65826Y277341D01*
X-65886Y277437D01*
X-65949Y277531D01*
X-66016Y277622D01*
X-66085Y277712D01*
X-66158Y277799D01*
X-66234Y277883D01*
X-66313Y277964D01*
X-66394Y278043D01*
X-66478Y278119D01*
X-66565Y278192D01*
X-66655Y278261D01*
X-66746Y278328D01*
X-66840Y278391D01*
X-66936Y278451D01*
X-67034Y278508D01*
X-67134Y278561D01*
X-67236Y278611D01*
X-67340Y278657D01*
X-67445Y278699D01*
X-67551Y278738D01*
X-67659Y278773D01*
X-67768Y278804D01*
X-67878Y278832D01*
X-67989Y278855D01*
X-68100Y278875D01*
X-68212Y278891D01*
X-68325Y278903D01*
X-68438Y278911D01*
X-68551Y278915D01*
X-68665Y278915D01*
X-68778Y278911D01*
X-68891Y278903D01*
X-69004Y278891D01*
X-69116Y278875D01*
X-69227Y278855D01*
X-69338Y278832D01*
X-69448Y278804D01*
X-69557Y278773D01*
X-69665Y278738D01*
X-69771Y278699D01*
X-69876Y278657D01*
X-69980Y278611D01*
X-70082Y278561D01*
X-70182Y278508D01*
X-70280Y278451D01*
X-70376Y278391D01*
X-70470Y278328D01*
X-72916Y282954D02*
X-76106Y280720D01*
X-72916Y282954D02*
X-72832Y283010D01*
X-72747Y283063D01*
X-72659Y283112D01*
X-72570Y283158D01*
X-72478Y283201D01*
X-72385Y283240D01*
X-72291Y283275D01*
X-72196Y283307D01*
X-72099Y283335D01*
X-72001Y283359D01*
X-71903Y283379D01*
X-71803Y283396D01*
X-71703Y283408D01*
X-71603Y283417D01*
X-71503Y283422D01*
X-71402Y283423D01*
X-71301Y283420D01*
X-71201Y283413D01*
X-71101Y283402D01*
X-71001Y283388D01*
X-70902Y283369D01*
X-70804Y283347D01*
X-70707Y283321D01*
X-70610Y283291D01*
X-70516Y283258D01*
X-70422Y283221D01*
X-70330Y283180D01*
X-70239Y283135D01*
X-70151Y283088D01*
X-70064Y283036D01*
X-69980Y282982D01*
X-69897Y282924D01*
X-69817Y282863D01*
X-69739Y282799D01*
X-69664Y282732D01*
X-69591Y282663D01*
X-69522Y282590D01*
X-69455Y282515D01*
X-69391Y282437D01*
X-69330Y282357D01*
X-69272Y282274D01*
X-69218Y282190D01*
X-69166Y282103D01*
X-69119Y282015D01*
X-69074Y281924D01*
X-69033Y281832D01*
X-68996Y281738D01*
X-68963Y281644D01*
X-68933Y281547D01*
X-68907Y281450D01*
X-68885Y281352D01*
X-68866Y281253D01*
X-68852Y281153D01*
X-68841Y281053D01*
X-68834Y280953D01*
X-68831Y280852D01*
X-68832Y280751D01*
X-68837Y280651D01*
X-68846Y280551D01*
X-68858Y280451D01*
X-68875Y280351D01*
X-68895Y280253D01*
X-68919Y280155D01*
X-68947Y280058D01*
X-68979Y279963D01*
X-69014Y279869D01*
X-69053Y279776D01*
X-69096Y279684D01*
X-69142Y279595D01*
X-69191Y279507D01*
X-69244Y279422D01*
X-69300Y279338D01*
X-69360Y279257D01*
X-69422Y279178D01*
X-69488Y279101D01*
X-69556Y279027D01*
X-69627Y278956D01*
X-69701Y278888D01*
X-69778Y278822D01*
X-69857Y278760D01*
X-69938Y278700D01*
X-72064Y277211D01*
D10*
X84954Y225200D02*
X84954Y207420D01*
X84954Y225200D02*
X89893Y225200D01*
X90033Y225198D01*
X90172Y225192D01*
X90312Y225182D01*
X90451Y225168D01*
X90590Y225151D01*
X90728Y225129D01*
X90865Y225103D01*
X91002Y225074D01*
X91138Y225041D01*
X91272Y225004D01*
X91406Y224963D01*
X91538Y224918D01*
X91670Y224869D01*
X91799Y224817D01*
X91927Y224762D01*
X92054Y224702D01*
X92179Y224639D01*
X92302Y224573D01*
X92423Y224503D01*
X92542Y224430D01*
X92659Y224353D01*
X92773Y224273D01*
X92886Y224190D01*
X92996Y224104D01*
X93103Y224014D01*
X93208Y223922D01*
X93310Y223827D01*
X93410Y223729D01*
X93507Y223628D01*
X93601Y223524D01*
X93691Y223418D01*
X93779Y223309D01*
X93864Y223198D01*
X93945Y223084D01*
X94024Y222969D01*
X94099Y222851D01*
X94170Y222731D01*
X94238Y222608D01*
X94303Y222485D01*
X94364Y222359D01*
X94422Y222231D01*
X94476Y222103D01*
X94526Y221972D01*
X94573Y221840D01*
X94616Y221707D01*
X94655Y221573D01*
X94690Y221438D01*
X94721Y221302D01*
X94749Y221164D01*
X94772Y221027D01*
X94792Y220888D01*
X94808Y220749D01*
X94820Y220610D01*
X94828Y220471D01*
X94832Y220331D01*
X94832Y220191D01*
X94828Y220051D01*
X94820Y219912D01*
X94808Y219773D01*
X94792Y219634D01*
X94772Y219495D01*
X94749Y219358D01*
X94721Y219220D01*
X94690Y219084D01*
X94655Y218949D01*
X94616Y218815D01*
X94573Y218682D01*
X94526Y218550D01*
X94476Y218419D01*
X94422Y218291D01*
X94364Y218163D01*
X94303Y218037D01*
X94238Y217914D01*
X94170Y217792D01*
X94099Y217671D01*
X94024Y217553D01*
X93945Y217438D01*
X93864Y217324D01*
X93779Y217213D01*
X93691Y217104D01*
X93601Y216998D01*
X93507Y216894D01*
X93410Y216793D01*
X93310Y216695D01*
X93208Y216600D01*
X93103Y216508D01*
X92996Y216418D01*
X92886Y216332D01*
X92773Y216249D01*
X92659Y216169D01*
X92542Y216092D01*
X92423Y216019D01*
X92302Y215949D01*
X92179Y215883D01*
X92054Y215820D01*
X91927Y215760D01*
X91799Y215705D01*
X91670Y215653D01*
X91538Y215604D01*
X91406Y215559D01*
X91272Y215518D01*
X91138Y215481D01*
X91002Y215448D01*
X90865Y215419D01*
X90728Y215393D01*
X90590Y215371D01*
X90451Y215354D01*
X90312Y215340D01*
X90172Y215330D01*
X90033Y215324D01*
X89893Y215322D01*
X84954Y215322D01*
X100949Y221249D02*
X105888Y225200D01*
X105888Y207420D01*
X110826Y207420D02*
X100949Y207420D01*
X70972Y102710D02*
X70972Y84930D01*
X70972Y102710D02*
X75911Y102710D01*
X76051Y102708D01*
X76190Y102702D01*
X76330Y102692D01*
X76469Y102678D01*
X76608Y102661D01*
X76746Y102639D01*
X76883Y102613D01*
X77020Y102584D01*
X77156Y102551D01*
X77290Y102514D01*
X77424Y102473D01*
X77556Y102428D01*
X77688Y102379D01*
X77817Y102327D01*
X77945Y102272D01*
X78072Y102212D01*
X78197Y102149D01*
X78320Y102083D01*
X78441Y102013D01*
X78560Y101940D01*
X78677Y101863D01*
X78791Y101783D01*
X78904Y101700D01*
X79014Y101614D01*
X79121Y101524D01*
X79226Y101432D01*
X79328Y101337D01*
X79428Y101239D01*
X79525Y101138D01*
X79619Y101034D01*
X79709Y100928D01*
X79797Y100819D01*
X79882Y100708D01*
X79963Y100594D01*
X80042Y100479D01*
X80117Y100361D01*
X80188Y100241D01*
X80256Y100118D01*
X80321Y99995D01*
X80382Y99869D01*
X80440Y99741D01*
X80494Y99613D01*
X80544Y99482D01*
X80591Y99350D01*
X80634Y99217D01*
X80673Y99083D01*
X80708Y98948D01*
X80739Y98812D01*
X80767Y98674D01*
X80790Y98537D01*
X80810Y98398D01*
X80826Y98259D01*
X80838Y98120D01*
X80846Y97981D01*
X80850Y97841D01*
X80850Y97701D01*
X80846Y97561D01*
X80838Y97422D01*
X80826Y97283D01*
X80810Y97144D01*
X80790Y97005D01*
X80767Y96868D01*
X80739Y96730D01*
X80708Y96594D01*
X80673Y96459D01*
X80634Y96325D01*
X80591Y96192D01*
X80544Y96060D01*
X80494Y95929D01*
X80440Y95801D01*
X80382Y95673D01*
X80321Y95547D01*
X80256Y95424D01*
X80188Y95302D01*
X80117Y95181D01*
X80042Y95063D01*
X79963Y94948D01*
X79882Y94834D01*
X79797Y94723D01*
X79709Y94614D01*
X79619Y94508D01*
X79525Y94404D01*
X79428Y94303D01*
X79328Y94205D01*
X79226Y94110D01*
X79121Y94018D01*
X79014Y93928D01*
X78904Y93842D01*
X78791Y93759D01*
X78677Y93679D01*
X78560Y93602D01*
X78441Y93529D01*
X78320Y93459D01*
X78197Y93393D01*
X78072Y93330D01*
X77945Y93270D01*
X77817Y93215D01*
X77688Y93163D01*
X77556Y93114D01*
X77424Y93069D01*
X77290Y93028D01*
X77156Y92991D01*
X77020Y92958D01*
X76883Y92929D01*
X76746Y92903D01*
X76608Y92881D01*
X76469Y92864D01*
X76330Y92850D01*
X76190Y92840D01*
X76051Y92834D01*
X75911Y92832D01*
X70972Y92832D01*
X92400Y102710D02*
X92532Y102708D01*
X92663Y102702D01*
X92795Y102692D01*
X92926Y102679D01*
X93056Y102661D01*
X93186Y102640D01*
X93316Y102615D01*
X93444Y102586D01*
X93572Y102553D01*
X93698Y102516D01*
X93824Y102476D01*
X93948Y102432D01*
X94071Y102384D01*
X94192Y102333D01*
X94312Y102278D01*
X94430Y102220D01*
X94546Y102158D01*
X94660Y102092D01*
X94773Y102024D01*
X94883Y101952D01*
X94991Y101877D01*
X95097Y101798D01*
X95201Y101717D01*
X95302Y101632D01*
X95400Y101545D01*
X95496Y101454D01*
X95589Y101361D01*
X95680Y101265D01*
X95767Y101167D01*
X95852Y101066D01*
X95933Y100962D01*
X96012Y100856D01*
X96087Y100748D01*
X96159Y100638D01*
X96227Y100525D01*
X96293Y100411D01*
X96355Y100295D01*
X96413Y100177D01*
X96468Y100057D01*
X96519Y99936D01*
X96567Y99813D01*
X96611Y99689D01*
X96651Y99563D01*
X96688Y99437D01*
X96721Y99309D01*
X96750Y99181D01*
X96775Y99051D01*
X96796Y98921D01*
X96814Y98791D01*
X96827Y98660D01*
X96837Y98528D01*
X96843Y98397D01*
X96845Y98265D01*
X92400Y102710D02*
X92250Y102708D01*
X92101Y102702D01*
X91952Y102692D01*
X91803Y102679D01*
X91654Y102661D01*
X91506Y102640D01*
X91358Y102614D01*
X91212Y102585D01*
X91066Y102552D01*
X90921Y102515D01*
X90777Y102474D01*
X90634Y102430D01*
X90492Y102382D01*
X90352Y102330D01*
X90213Y102275D01*
X90075Y102216D01*
X89940Y102153D01*
X89805Y102087D01*
X89673Y102017D01*
X89543Y101944D01*
X89414Y101867D01*
X89287Y101787D01*
X89163Y101704D01*
X89041Y101618D01*
X88921Y101528D01*
X88804Y101435D01*
X88689Y101340D01*
X88576Y101241D01*
X88466Y101139D01*
X88359Y101035D01*
X88255Y100928D01*
X88153Y100818D01*
X88055Y100705D01*
X87959Y100590D01*
X87867Y100472D01*
X87777Y100352D01*
X87691Y100230D01*
X87608Y100106D01*
X87528Y99979D01*
X87452Y99851D01*
X87379Y99720D01*
X87309Y99587D01*
X87243Y99453D01*
X87181Y99317D01*
X87122Y99180D01*
X87066Y99041D01*
X87015Y98900D01*
X86967Y98759D01*
X95363Y94808D02*
X95459Y94901D01*
X95551Y94997D01*
X95641Y95096D01*
X95728Y95197D01*
X95813Y95300D01*
X95894Y95405D01*
X95972Y95513D01*
X96047Y95623D01*
X96120Y95735D01*
X96189Y95849D01*
X96255Y95965D01*
X96317Y96083D01*
X96376Y96202D01*
X96432Y96323D01*
X96485Y96446D01*
X96534Y96570D01*
X96579Y96695D01*
X96622Y96822D01*
X96660Y96949D01*
X96695Y97078D01*
X96726Y97207D01*
X96754Y97338D01*
X96778Y97469D01*
X96799Y97601D01*
X96815Y97733D01*
X96828Y97866D01*
X96838Y97999D01*
X96843Y98132D01*
X96845Y98265D01*
X95363Y94808D02*
X86967Y84930D01*
X96845Y84930D01*
X109215Y91844D02*
X109215Y97771D01*
X109215Y91844D02*
X112672Y87399D01*
X109215Y91844D02*
X105758Y87399D01*
X109215Y91844D02*
X114648Y93820D01*
X109215Y91844D02*
X103782Y93820D01*
X-12176Y37910D02*
X-12176Y20130D01*
X-12176Y37910D02*
X-7238Y37910D01*
X-7098Y37908D01*
X-6959Y37902D01*
X-6819Y37892D01*
X-6680Y37878D01*
X-6541Y37861D01*
X-6403Y37839D01*
X-6266Y37813D01*
X-6129Y37784D01*
X-5993Y37751D01*
X-5859Y37714D01*
X-5725Y37673D01*
X-5593Y37628D01*
X-5461Y37579D01*
X-5332Y37527D01*
X-5204Y37472D01*
X-5077Y37412D01*
X-4952Y37349D01*
X-4829Y37283D01*
X-4708Y37213D01*
X-4589Y37140D01*
X-4472Y37063D01*
X-4358Y36983D01*
X-4245Y36900D01*
X-4135Y36814D01*
X-4028Y36724D01*
X-3923Y36632D01*
X-3821Y36537D01*
X-3721Y36439D01*
X-3624Y36338D01*
X-3530Y36234D01*
X-3440Y36128D01*
X-3352Y36019D01*
X-3267Y35908D01*
X-3186Y35794D01*
X-3107Y35679D01*
X-3032Y35561D01*
X-2961Y35441D01*
X-2893Y35318D01*
X-2828Y35195D01*
X-2767Y35069D01*
X-2709Y34941D01*
X-2655Y34813D01*
X-2605Y34682D01*
X-2558Y34550D01*
X-2515Y34417D01*
X-2476Y34283D01*
X-2441Y34148D01*
X-2410Y34012D01*
X-2382Y33874D01*
X-2359Y33737D01*
X-2339Y33598D01*
X-2323Y33459D01*
X-2311Y33320D01*
X-2303Y33181D01*
X-2299Y33041D01*
X-2299Y32901D01*
X-2303Y32761D01*
X-2311Y32622D01*
X-2323Y32483D01*
X-2339Y32344D01*
X-2359Y32205D01*
X-2382Y32068D01*
X-2410Y31930D01*
X-2441Y31794D01*
X-2476Y31659D01*
X-2515Y31525D01*
X-2558Y31392D01*
X-2605Y31260D01*
X-2655Y31129D01*
X-2709Y31001D01*
X-2767Y30873D01*
X-2828Y30747D01*
X-2893Y30624D01*
X-2961Y30502D01*
X-3032Y30381D01*
X-3107Y30263D01*
X-3186Y30148D01*
X-3267Y30034D01*
X-3352Y29923D01*
X-3440Y29814D01*
X-3530Y29708D01*
X-3624Y29604D01*
X-3721Y29503D01*
X-3821Y29405D01*
X-3923Y29310D01*
X-4028Y29218D01*
X-4135Y29128D01*
X-4245Y29042D01*
X-4358Y28959D01*
X-4472Y28879D01*
X-4589Y28802D01*
X-4708Y28729D01*
X-4829Y28659D01*
X-4952Y28593D01*
X-5077Y28530D01*
X-5204Y28470D01*
X-5332Y28415D01*
X-5461Y28363D01*
X-5593Y28314D01*
X-5725Y28269D01*
X-5859Y28228D01*
X-5993Y28191D01*
X-6129Y28158D01*
X-6266Y28129D01*
X-6403Y28103D01*
X-6541Y28081D01*
X-6680Y28064D01*
X-6819Y28050D01*
X-6959Y28040D01*
X-7098Y28034D01*
X-7238Y28032D01*
X-12176Y28032D01*
X3819Y20130D02*
X8758Y20130D01*
X8898Y20132D01*
X9037Y20138D01*
X9177Y20148D01*
X9316Y20162D01*
X9455Y20179D01*
X9593Y20201D01*
X9730Y20227D01*
X9867Y20256D01*
X10003Y20289D01*
X10137Y20326D01*
X10271Y20367D01*
X10403Y20412D01*
X10535Y20461D01*
X10664Y20513D01*
X10792Y20568D01*
X10919Y20628D01*
X11044Y20691D01*
X11167Y20757D01*
X11288Y20827D01*
X11407Y20900D01*
X11524Y20977D01*
X11638Y21057D01*
X11751Y21140D01*
X11861Y21226D01*
X11968Y21316D01*
X12073Y21408D01*
X12175Y21503D01*
X12275Y21601D01*
X12372Y21702D01*
X12466Y21806D01*
X12556Y21912D01*
X12644Y22021D01*
X12729Y22132D01*
X12810Y22246D01*
X12889Y22361D01*
X12964Y22479D01*
X13035Y22600D01*
X13103Y22722D01*
X13168Y22845D01*
X13229Y22971D01*
X13287Y23099D01*
X13341Y23227D01*
X13391Y23358D01*
X13438Y23490D01*
X13481Y23623D01*
X13520Y23757D01*
X13555Y23892D01*
X13586Y24028D01*
X13614Y24166D01*
X13637Y24303D01*
X13657Y24442D01*
X13673Y24581D01*
X13685Y24720D01*
X13693Y24859D01*
X13697Y24999D01*
X13697Y25139D01*
X13693Y25279D01*
X13685Y25418D01*
X13673Y25557D01*
X13657Y25696D01*
X13637Y25835D01*
X13614Y25972D01*
X13586Y26110D01*
X13555Y26246D01*
X13520Y26381D01*
X13481Y26515D01*
X13438Y26648D01*
X13391Y26780D01*
X13341Y26911D01*
X13287Y27039D01*
X13229Y27167D01*
X13168Y27293D01*
X13103Y27416D01*
X13035Y27539D01*
X12964Y27659D01*
X12889Y27777D01*
X12810Y27892D01*
X12729Y28006D01*
X12644Y28117D01*
X12556Y28226D01*
X12466Y28332D01*
X12372Y28436D01*
X12275Y28537D01*
X12175Y28635D01*
X12073Y28730D01*
X11968Y28822D01*
X11861Y28912D01*
X11751Y28998D01*
X11638Y29081D01*
X11524Y29161D01*
X11407Y29238D01*
X11288Y29311D01*
X11167Y29381D01*
X11044Y29447D01*
X10919Y29510D01*
X10792Y29570D01*
X10664Y29625D01*
X10535Y29677D01*
X10403Y29726D01*
X10271Y29771D01*
X10137Y29812D01*
X10003Y29849D01*
X9867Y29882D01*
X9730Y29911D01*
X9593Y29937D01*
X9455Y29959D01*
X9316Y29976D01*
X9177Y29990D01*
X9037Y30000D01*
X8898Y30006D01*
X8758Y30008D01*
X9745Y37910D02*
X3819Y37910D01*
X9745Y37910D02*
X9869Y37908D01*
X9993Y37902D01*
X10117Y37892D01*
X10240Y37879D01*
X10363Y37861D01*
X10485Y37840D01*
X10607Y37815D01*
X10728Y37786D01*
X10847Y37753D01*
X10966Y37717D01*
X11083Y37676D01*
X11199Y37633D01*
X11314Y37585D01*
X11427Y37534D01*
X11539Y37479D01*
X11648Y37421D01*
X11756Y37360D01*
X11862Y37295D01*
X11966Y37227D01*
X12067Y37155D01*
X12167Y37081D01*
X12263Y37003D01*
X12358Y36923D01*
X12450Y36839D01*
X12539Y36753D01*
X12625Y36664D01*
X12709Y36572D01*
X12789Y36477D01*
X12867Y36381D01*
X12941Y36281D01*
X13013Y36180D01*
X13081Y36076D01*
X13146Y35970D01*
X13207Y35862D01*
X13265Y35753D01*
X13320Y35641D01*
X13371Y35528D01*
X13419Y35413D01*
X13462Y35297D01*
X13503Y35180D01*
X13539Y35061D01*
X13572Y34942D01*
X13601Y34821D01*
X13626Y34699D01*
X13647Y34577D01*
X13665Y34454D01*
X13678Y34331D01*
X13688Y34207D01*
X13694Y34083D01*
X13696Y33959D01*
X13694Y33835D01*
X13688Y33711D01*
X13678Y33587D01*
X13665Y33464D01*
X13647Y33341D01*
X13626Y33219D01*
X13601Y33097D01*
X13572Y32976D01*
X13539Y32857D01*
X13503Y32738D01*
X13462Y32621D01*
X13419Y32505D01*
X13371Y32390D01*
X13320Y32277D01*
X13265Y32165D01*
X13207Y32056D01*
X13146Y31948D01*
X13081Y31842D01*
X13013Y31738D01*
X12941Y31637D01*
X12867Y31537D01*
X12789Y31441D01*
X12709Y31346D01*
X12625Y31254D01*
X12539Y31165D01*
X12450Y31079D01*
X12358Y30995D01*
X12263Y30915D01*
X12167Y30837D01*
X12067Y30763D01*
X11966Y30691D01*
X11862Y30623D01*
X11756Y30558D01*
X11648Y30497D01*
X11539Y30439D01*
X11427Y30384D01*
X11314Y30333D01*
X11199Y30285D01*
X11083Y30242D01*
X10966Y30201D01*
X10847Y30165D01*
X10728Y30132D01*
X10607Y30103D01*
X10485Y30078D01*
X10363Y30057D01*
X10240Y30039D01*
X10117Y30026D01*
X9993Y30016D01*
X9869Y30010D01*
X9745Y30008D01*
X5794Y30008D01*
X-110576Y84930D02*
X-110576Y102710D01*
X-105638Y102710D01*
X-105498Y102708D01*
X-105359Y102702D01*
X-105219Y102692D01*
X-105080Y102678D01*
X-104941Y102661D01*
X-104803Y102639D01*
X-104666Y102613D01*
X-104529Y102584D01*
X-104393Y102551D01*
X-104259Y102514D01*
X-104125Y102473D01*
X-103993Y102428D01*
X-103861Y102379D01*
X-103732Y102327D01*
X-103604Y102272D01*
X-103477Y102212D01*
X-103352Y102149D01*
X-103229Y102083D01*
X-103108Y102013D01*
X-102989Y101940D01*
X-102872Y101863D01*
X-102758Y101783D01*
X-102645Y101700D01*
X-102535Y101614D01*
X-102428Y101524D01*
X-102323Y101432D01*
X-102221Y101337D01*
X-102121Y101239D01*
X-102024Y101138D01*
X-101930Y101034D01*
X-101840Y100928D01*
X-101752Y100819D01*
X-101667Y100708D01*
X-101586Y100594D01*
X-101507Y100479D01*
X-101432Y100361D01*
X-101361Y100241D01*
X-101293Y100118D01*
X-101228Y99995D01*
X-101167Y99869D01*
X-101109Y99741D01*
X-101055Y99613D01*
X-101005Y99482D01*
X-100958Y99350D01*
X-100915Y99217D01*
X-100876Y99083D01*
X-100841Y98948D01*
X-100810Y98812D01*
X-100782Y98674D01*
X-100759Y98537D01*
X-100739Y98398D01*
X-100723Y98259D01*
X-100711Y98120D01*
X-100703Y97981D01*
X-100699Y97841D01*
X-100699Y97701D01*
X-100703Y97561D01*
X-100711Y97422D01*
X-100723Y97283D01*
X-100739Y97144D01*
X-100759Y97005D01*
X-100782Y96868D01*
X-100810Y96730D01*
X-100841Y96594D01*
X-100876Y96459D01*
X-100915Y96325D01*
X-100958Y96192D01*
X-101005Y96060D01*
X-101055Y95929D01*
X-101109Y95801D01*
X-101167Y95673D01*
X-101228Y95547D01*
X-101293Y95424D01*
X-101361Y95302D01*
X-101432Y95181D01*
X-101507Y95063D01*
X-101586Y94948D01*
X-101667Y94834D01*
X-101752Y94723D01*
X-101840Y94614D01*
X-101930Y94508D01*
X-102024Y94404D01*
X-102121Y94303D01*
X-102221Y94205D01*
X-102323Y94110D01*
X-102428Y94018D01*
X-102535Y93928D01*
X-102645Y93842D01*
X-102758Y93759D01*
X-102872Y93679D01*
X-102989Y93602D01*
X-103108Y93529D01*
X-103229Y93459D01*
X-103352Y93393D01*
X-103477Y93330D01*
X-103604Y93270D01*
X-103732Y93215D01*
X-103861Y93163D01*
X-103993Y93114D01*
X-104125Y93069D01*
X-104259Y93028D01*
X-104393Y92991D01*
X-104529Y92958D01*
X-104666Y92929D01*
X-104803Y92903D01*
X-104941Y92881D01*
X-105080Y92864D01*
X-105219Y92850D01*
X-105359Y92840D01*
X-105498Y92834D01*
X-105638Y92832D01*
X-110576Y92832D01*
X-94581Y88881D02*
X-90630Y102710D01*
X-94581Y88881D02*
X-84704Y88881D01*
X-87667Y92832D02*
X-87667Y84930D01*
X-108036Y199800D02*
X-108036Y217580D01*
X-103098Y217580D01*
X-102958Y217578D01*
X-102819Y217572D01*
X-102679Y217562D01*
X-102540Y217548D01*
X-102401Y217531D01*
X-102263Y217509D01*
X-102126Y217483D01*
X-101989Y217454D01*
X-101853Y217421D01*
X-101719Y217384D01*
X-101585Y217343D01*
X-101453Y217298D01*
X-101321Y217249D01*
X-101192Y217197D01*
X-101064Y217142D01*
X-100937Y217082D01*
X-100812Y217019D01*
X-100689Y216953D01*
X-100568Y216883D01*
X-100449Y216810D01*
X-100332Y216733D01*
X-100218Y216653D01*
X-100105Y216570D01*
X-99995Y216484D01*
X-99888Y216394D01*
X-99783Y216302D01*
X-99681Y216207D01*
X-99581Y216109D01*
X-99484Y216008D01*
X-99390Y215904D01*
X-99300Y215798D01*
X-99212Y215689D01*
X-99127Y215578D01*
X-99046Y215464D01*
X-98967Y215349D01*
X-98892Y215231D01*
X-98821Y215111D01*
X-98753Y214988D01*
X-98688Y214865D01*
X-98627Y214739D01*
X-98569Y214611D01*
X-98515Y214483D01*
X-98465Y214352D01*
X-98418Y214220D01*
X-98375Y214087D01*
X-98336Y213953D01*
X-98301Y213818D01*
X-98270Y213682D01*
X-98242Y213544D01*
X-98219Y213407D01*
X-98199Y213268D01*
X-98183Y213129D01*
X-98171Y212990D01*
X-98163Y212851D01*
X-98159Y212711D01*
X-98159Y212571D01*
X-98163Y212431D01*
X-98171Y212292D01*
X-98183Y212153D01*
X-98199Y212014D01*
X-98219Y211875D01*
X-98242Y211738D01*
X-98270Y211600D01*
X-98301Y211464D01*
X-98336Y211329D01*
X-98375Y211195D01*
X-98418Y211062D01*
X-98465Y210930D01*
X-98515Y210799D01*
X-98569Y210671D01*
X-98627Y210543D01*
X-98688Y210417D01*
X-98753Y210294D01*
X-98821Y210172D01*
X-98892Y210051D01*
X-98967Y209933D01*
X-99046Y209818D01*
X-99127Y209704D01*
X-99212Y209593D01*
X-99300Y209484D01*
X-99390Y209378D01*
X-99484Y209274D01*
X-99581Y209173D01*
X-99681Y209075D01*
X-99783Y208980D01*
X-99888Y208888D01*
X-99995Y208798D01*
X-100105Y208712D01*
X-100218Y208629D01*
X-100332Y208549D01*
X-100449Y208472D01*
X-100568Y208399D01*
X-100689Y208329D01*
X-100812Y208263D01*
X-100937Y208200D01*
X-101064Y208140D01*
X-101192Y208085D01*
X-101321Y208033D01*
X-101453Y207984D01*
X-101585Y207939D01*
X-101719Y207898D01*
X-101853Y207861D01*
X-101989Y207828D01*
X-102126Y207799D01*
X-102263Y207773D01*
X-102401Y207751D01*
X-102540Y207734D01*
X-102679Y207720D01*
X-102819Y207710D01*
X-102958Y207704D01*
X-103098Y207702D01*
X-108036Y207702D01*
X-92041Y199800D02*
X-86115Y199800D01*
X-85991Y199802D01*
X-85867Y199808D01*
X-85743Y199818D01*
X-85620Y199831D01*
X-85497Y199849D01*
X-85375Y199870D01*
X-85253Y199895D01*
X-85132Y199924D01*
X-85013Y199957D01*
X-84894Y199993D01*
X-84777Y200034D01*
X-84661Y200077D01*
X-84546Y200125D01*
X-84433Y200176D01*
X-84321Y200231D01*
X-84212Y200289D01*
X-84104Y200350D01*
X-83998Y200415D01*
X-83894Y200483D01*
X-83793Y200555D01*
X-83693Y200629D01*
X-83597Y200707D01*
X-83502Y200787D01*
X-83410Y200871D01*
X-83321Y200957D01*
X-83235Y201046D01*
X-83151Y201138D01*
X-83071Y201233D01*
X-82993Y201329D01*
X-82919Y201429D01*
X-82847Y201530D01*
X-82779Y201634D01*
X-82714Y201740D01*
X-82653Y201848D01*
X-82595Y201957D01*
X-82540Y202069D01*
X-82489Y202182D01*
X-82441Y202297D01*
X-82398Y202413D01*
X-82357Y202530D01*
X-82321Y202649D01*
X-82288Y202768D01*
X-82259Y202889D01*
X-82234Y203011D01*
X-82213Y203133D01*
X-82195Y203256D01*
X-82182Y203379D01*
X-82172Y203503D01*
X-82166Y203627D01*
X-82164Y203751D01*
X-82164Y205727D01*
X-82166Y205851D01*
X-82172Y205975D01*
X-82182Y206099D01*
X-82195Y206222D01*
X-82213Y206345D01*
X-82234Y206467D01*
X-82259Y206589D01*
X-82288Y206710D01*
X-82321Y206829D01*
X-82357Y206948D01*
X-82398Y207065D01*
X-82441Y207181D01*
X-82489Y207296D01*
X-82540Y207409D01*
X-82595Y207521D01*
X-82653Y207630D01*
X-82714Y207738D01*
X-82779Y207844D01*
X-82847Y207948D01*
X-82919Y208049D01*
X-82993Y208149D01*
X-83071Y208245D01*
X-83151Y208340D01*
X-83235Y208432D01*
X-83321Y208521D01*
X-83410Y208607D01*
X-83502Y208691D01*
X-83597Y208771D01*
X-83693Y208849D01*
X-83793Y208923D01*
X-83894Y208995D01*
X-83998Y209063D01*
X-84104Y209128D01*
X-84212Y209189D01*
X-84321Y209247D01*
X-84433Y209302D01*
X-84546Y209353D01*
X-84661Y209401D01*
X-84777Y209444D01*
X-84894Y209485D01*
X-85013Y209521D01*
X-85132Y209554D01*
X-85253Y209583D01*
X-85375Y209608D01*
X-85497Y209629D01*
X-85620Y209647D01*
X-85743Y209660D01*
X-85867Y209670D01*
X-85991Y209676D01*
X-86115Y209678D01*
X-92041Y209678D01*
X-92041Y217580D01*
X-82164Y217580D01*
D12*
X68834Y228854D02*
X68834Y235966D01*
X70810Y235966D01*
X70896Y235964D01*
X70982Y235958D01*
X71068Y235949D01*
X71153Y235936D01*
X71238Y235919D01*
X71321Y235899D01*
X71404Y235875D01*
X71486Y235847D01*
X71566Y235816D01*
X71645Y235781D01*
X71722Y235743D01*
X71798Y235701D01*
X71872Y235657D01*
X71943Y235609D01*
X72013Y235558D01*
X72080Y235504D01*
X72145Y235447D01*
X72207Y235387D01*
X72267Y235325D01*
X72324Y235260D01*
X72378Y235193D01*
X72429Y235123D01*
X72477Y235052D01*
X72521Y234978D01*
X72563Y234902D01*
X72601Y234825D01*
X72636Y234746D01*
X72667Y234666D01*
X72695Y234584D01*
X72719Y234501D01*
X72739Y234418D01*
X72756Y234333D01*
X72769Y234248D01*
X72778Y234162D01*
X72784Y234076D01*
X72786Y233990D01*
X72785Y233990D02*
X72785Y230830D01*
X72786Y230830D02*
X72784Y230744D01*
X72778Y230658D01*
X72769Y230572D01*
X72756Y230487D01*
X72739Y230402D01*
X72719Y230319D01*
X72695Y230236D01*
X72667Y230154D01*
X72636Y230074D01*
X72601Y229995D01*
X72563Y229918D01*
X72521Y229842D01*
X72477Y229768D01*
X72429Y229697D01*
X72378Y229627D01*
X72324Y229560D01*
X72267Y229495D01*
X72207Y229433D01*
X72145Y229373D01*
X72080Y229316D01*
X72013Y229262D01*
X71943Y229211D01*
X71872Y229163D01*
X71798Y229119D01*
X71722Y229077D01*
X71645Y229039D01*
X71566Y229004D01*
X71486Y228973D01*
X71404Y228945D01*
X71321Y228921D01*
X71238Y228901D01*
X71153Y228884D01*
X71068Y228871D01*
X70982Y228862D01*
X70896Y228856D01*
X70810Y228854D01*
X68834Y228854D01*
X77483Y228854D02*
X79063Y228854D01*
X77483Y228854D02*
X77405Y228856D01*
X77328Y228862D01*
X77251Y228871D01*
X77175Y228884D01*
X77099Y228901D01*
X77024Y228922D01*
X76951Y228946D01*
X76878Y228974D01*
X76807Y229006D01*
X76738Y229041D01*
X76671Y229079D01*
X76605Y229120D01*
X76542Y229165D01*
X76481Y229213D01*
X76422Y229263D01*
X76366Y229317D01*
X76312Y229373D01*
X76262Y229432D01*
X76214Y229493D01*
X76169Y229556D01*
X76128Y229622D01*
X76090Y229689D01*
X76055Y229758D01*
X76023Y229829D01*
X75995Y229902D01*
X75971Y229975D01*
X75950Y230050D01*
X75933Y230126D01*
X75920Y230202D01*
X75911Y230279D01*
X75905Y230356D01*
X75903Y230434D01*
X75902Y230434D02*
X75902Y234386D01*
X75903Y234386D02*
X75905Y234464D01*
X75911Y234541D01*
X75920Y234618D01*
X75933Y234694D01*
X75950Y234770D01*
X75971Y234845D01*
X75995Y234918D01*
X76023Y234991D01*
X76055Y235062D01*
X76090Y235131D01*
X76128Y235198D01*
X76169Y235264D01*
X76214Y235327D01*
X76262Y235388D01*
X76312Y235447D01*
X76366Y235503D01*
X76422Y235557D01*
X76481Y235607D01*
X76542Y235655D01*
X76605Y235700D01*
X76671Y235741D01*
X76738Y235779D01*
X76807Y235814D01*
X76878Y235846D01*
X76951Y235874D01*
X77024Y235898D01*
X77099Y235919D01*
X77175Y235936D01*
X77251Y235949D01*
X77328Y235958D01*
X77405Y235964D01*
X77483Y235966D01*
X79063Y235966D01*
X86811Y235966D02*
X86811Y228854D01*
X84836Y235966D02*
X88787Y235966D01*
X92360Y228854D02*
X94335Y228854D01*
X92360Y228854D02*
X92294Y228856D01*
X92227Y228861D01*
X92162Y228871D01*
X92096Y228884D01*
X92032Y228900D01*
X91969Y228920D01*
X91907Y228944D01*
X91846Y228971D01*
X91787Y229002D01*
X91730Y229036D01*
X91674Y229073D01*
X91621Y229113D01*
X91570Y229155D01*
X91522Y229201D01*
X91476Y229249D01*
X91434Y229300D01*
X91394Y229353D01*
X91357Y229409D01*
X91323Y229466D01*
X91292Y229525D01*
X91265Y229586D01*
X91241Y229648D01*
X91221Y229711D01*
X91205Y229775D01*
X91192Y229841D01*
X91182Y229906D01*
X91177Y229973D01*
X91175Y230039D01*
X91175Y232015D01*
X91177Y232094D01*
X91183Y232172D01*
X91193Y232250D01*
X91206Y232328D01*
X91224Y232405D01*
X91245Y232481D01*
X91270Y232555D01*
X91299Y232629D01*
X91331Y232701D01*
X91367Y232771D01*
X91407Y232839D01*
X91450Y232905D01*
X91496Y232969D01*
X91545Y233031D01*
X91597Y233090D01*
X91652Y233146D01*
X91710Y233200D01*
X91770Y233250D01*
X91833Y233298D01*
X91898Y233342D01*
X91965Y233383D01*
X92034Y233421D01*
X92105Y233455D01*
X92178Y233486D01*
X92252Y233513D01*
X92327Y233536D01*
X92403Y233555D01*
X92481Y233571D01*
X92559Y233583D01*
X92637Y233591D01*
X92716Y233595D01*
X92794Y233595D01*
X92873Y233591D01*
X92951Y233583D01*
X93029Y233571D01*
X93107Y233555D01*
X93183Y233536D01*
X93258Y233513D01*
X93332Y233486D01*
X93405Y233455D01*
X93476Y233421D01*
X93545Y233383D01*
X93612Y233342D01*
X93677Y233298D01*
X93740Y233250D01*
X93800Y233200D01*
X93858Y233146D01*
X93913Y233090D01*
X93965Y233031D01*
X94014Y232969D01*
X94060Y232905D01*
X94103Y232839D01*
X94143Y232771D01*
X94179Y232701D01*
X94211Y232629D01*
X94240Y232555D01*
X94265Y232481D01*
X94286Y232405D01*
X94304Y232328D01*
X94317Y232250D01*
X94327Y232172D01*
X94333Y232094D01*
X94335Y232015D01*
X94335Y231225D01*
X91175Y231225D01*
X97383Y228854D02*
X97383Y233595D01*
X99754Y233595D01*
X99754Y232805D01*
X102272Y233595D02*
X102272Y228854D01*
X102272Y233595D02*
X105828Y233595D01*
X105894Y233593D01*
X105961Y233588D01*
X106026Y233578D01*
X106092Y233565D01*
X106156Y233549D01*
X106219Y233529D01*
X106281Y233505D01*
X106342Y233478D01*
X106401Y233447D01*
X106458Y233413D01*
X106514Y233376D01*
X106567Y233336D01*
X106618Y233294D01*
X106666Y233248D01*
X106712Y233200D01*
X106754Y233149D01*
X106794Y233096D01*
X106831Y233040D01*
X106865Y232983D01*
X106896Y232924D01*
X106923Y232863D01*
X106947Y232801D01*
X106967Y232738D01*
X106983Y232674D01*
X106996Y232608D01*
X107006Y232543D01*
X107011Y232476D01*
X107013Y232410D01*
X107013Y228854D01*
X104642Y228854D02*
X104642Y233595D01*
D10*
X34087Y195415D02*
X13957Y195415D01*
D13*
X26289Y139265D02*
X26289Y137177D01*
X26287Y137088D01*
X26281Y137000D01*
X26272Y136912D01*
X26259Y136824D01*
X26242Y136737D01*
X26222Y136651D01*
X26197Y136566D01*
X26170Y136481D01*
X26138Y136398D01*
X26104Y136317D01*
X26065Y136237D01*
X26024Y136159D01*
X25979Y136082D01*
X25931Y136008D01*
X25880Y135935D01*
X25826Y135865D01*
X25768Y135798D01*
X25708Y135732D01*
X25646Y135670D01*
X25580Y135610D01*
X25513Y135552D01*
X25443Y135498D01*
X25370Y135447D01*
X25296Y135399D01*
X25219Y135354D01*
X25141Y135313D01*
X25061Y135274D01*
X24980Y135240D01*
X24897Y135208D01*
X24812Y135181D01*
X24727Y135156D01*
X24641Y135136D01*
X24554Y135119D01*
X24466Y135106D01*
X24378Y135097D01*
X24290Y135091D01*
X24201Y135089D01*
X24201Y135088D02*
X18979Y135088D01*
X18888Y135090D01*
X18797Y135096D01*
X18706Y135106D01*
X18616Y135120D01*
X18527Y135138D01*
X18438Y135159D01*
X18351Y135185D01*
X18265Y135214D01*
X18180Y135247D01*
X18096Y135284D01*
X18014Y135324D01*
X17935Y135368D01*
X17857Y135415D01*
X17781Y135466D01*
X17707Y135520D01*
X17636Y135577D01*
X17568Y135637D01*
X17502Y135700D01*
X17439Y135766D01*
X17379Y135834D01*
X17322Y135905D01*
X17268Y135979D01*
X17217Y136055D01*
X17170Y136132D01*
X17126Y136212D01*
X17086Y136294D01*
X17049Y136378D01*
X17016Y136462D01*
X16987Y136549D01*
X16961Y136636D01*
X16940Y136725D01*
X16922Y136814D01*
X16908Y136904D01*
X16898Y136995D01*
X16892Y137086D01*
X16890Y137177D01*
X16891Y137177D02*
X16891Y139265D01*
X18979Y142734D02*
X16891Y145344D01*
X26289Y145344D01*
X26289Y142734D02*
X26289Y147955D01*
X18979Y151878D02*
X16891Y154488D01*
X26289Y154488D01*
X26289Y151878D02*
X26289Y157099D01*
X8509Y140535D02*
X8509Y138447D01*
X8507Y138358D01*
X8501Y138270D01*
X8492Y138182D01*
X8479Y138094D01*
X8462Y138007D01*
X8442Y137921D01*
X8417Y137836D01*
X8390Y137751D01*
X8358Y137668D01*
X8324Y137587D01*
X8285Y137507D01*
X8244Y137429D01*
X8199Y137352D01*
X8151Y137278D01*
X8100Y137205D01*
X8046Y137135D01*
X7988Y137068D01*
X7928Y137002D01*
X7866Y136940D01*
X7800Y136880D01*
X7733Y136822D01*
X7663Y136768D01*
X7590Y136717D01*
X7516Y136669D01*
X7439Y136624D01*
X7361Y136583D01*
X7281Y136544D01*
X7200Y136510D01*
X7117Y136478D01*
X7032Y136451D01*
X6947Y136426D01*
X6861Y136406D01*
X6774Y136389D01*
X6686Y136376D01*
X6598Y136367D01*
X6510Y136361D01*
X6421Y136359D01*
X6421Y136358D02*
X1199Y136358D01*
X1108Y136360D01*
X1017Y136366D01*
X926Y136376D01*
X836Y136390D01*
X747Y136408D01*
X658Y136429D01*
X571Y136455D01*
X485Y136484D01*
X400Y136517D01*
X316Y136554D01*
X234Y136594D01*
X155Y136638D01*
X77Y136685D01*
X1Y136736D01*
X-73Y136790D01*
X-144Y136847D01*
X-212Y136907D01*
X-278Y136970D01*
X-341Y137036D01*
X-401Y137104D01*
X-458Y137175D01*
X-512Y137249D01*
X-563Y137325D01*
X-610Y137402D01*
X-654Y137482D01*
X-694Y137564D01*
X-731Y137648D01*
X-764Y137732D01*
X-793Y137819D01*
X-819Y137906D01*
X-840Y137995D01*
X-858Y138084D01*
X-872Y138174D01*
X-882Y138265D01*
X-888Y138356D01*
X-890Y138447D01*
X-889Y138447D02*
X-889Y140535D01*
X1199Y144004D02*
X-889Y146614D01*
X8509Y146614D01*
X8509Y144004D02*
X8509Y149225D01*
X3810Y153148D02*
X3625Y153150D01*
X3440Y153157D01*
X3256Y153168D01*
X3072Y153183D01*
X2888Y153203D01*
X2704Y153227D01*
X2522Y153256D01*
X2340Y153289D01*
X2159Y153326D01*
X1979Y153368D01*
X1799Y153414D01*
X1621Y153464D01*
X1445Y153518D01*
X1269Y153577D01*
X1095Y153639D01*
X923Y153706D01*
X752Y153777D01*
X583Y153852D01*
X416Y153931D01*
X416Y153930D02*
X336Y153960D01*
X257Y153993D01*
X180Y154030D01*
X104Y154070D01*
X30Y154113D01*
X-42Y154159D01*
X-111Y154209D01*
X-179Y154261D01*
X-244Y154317D01*
X-307Y154375D01*
X-366Y154437D01*
X-424Y154500D01*
X-478Y154567D01*
X-529Y154635D01*
X-577Y154706D01*
X-622Y154779D01*
X-664Y154853D01*
X-702Y154930D01*
X-737Y155008D01*
X-769Y155087D01*
X-797Y155168D01*
X-821Y155250D01*
X-842Y155334D01*
X-859Y155417D01*
X-872Y155502D01*
X-881Y155587D01*
X-887Y155672D01*
X-889Y155758D01*
X-887Y155844D01*
X-881Y155929D01*
X-872Y156014D01*
X-859Y156099D01*
X-842Y156182D01*
X-821Y156266D01*
X-797Y156348D01*
X-769Y156429D01*
X-737Y156508D01*
X-702Y156586D01*
X-664Y156663D01*
X-622Y156737D01*
X-577Y156810D01*
X-529Y156881D01*
X-478Y156949D01*
X-424Y157016D01*
X-366Y157079D01*
X-307Y157141D01*
X-244Y157199D01*
X-179Y157255D01*
X-111Y157307D01*
X-42Y157357D01*
X30Y157403D01*
X104Y157446D01*
X180Y157486D01*
X257Y157523D01*
X336Y157556D01*
X416Y157586D01*
X583Y157665D01*
X752Y157740D01*
X923Y157811D01*
X1095Y157878D01*
X1269Y157940D01*
X1445Y157999D01*
X1621Y158053D01*
X1799Y158103D01*
X1979Y158149D01*
X2159Y158191D01*
X2340Y158228D01*
X2522Y158261D01*
X2704Y158290D01*
X2888Y158314D01*
X3072Y158334D01*
X3256Y158349D01*
X3440Y158360D01*
X3625Y158367D01*
X3810Y158369D01*
X3810Y153148D02*
X3995Y153150D01*
X4180Y153157D01*
X4364Y153168D01*
X4548Y153183D01*
X4732Y153203D01*
X4916Y153227D01*
X5098Y153256D01*
X5280Y153289D01*
X5461Y153326D01*
X5641Y153368D01*
X5821Y153414D01*
X5999Y153464D01*
X6175Y153518D01*
X6351Y153577D01*
X6525Y153639D01*
X6697Y153706D01*
X6868Y153777D01*
X7037Y153852D01*
X7204Y153931D01*
X7204Y153930D02*
X7284Y153960D01*
X7363Y153993D01*
X7440Y154030D01*
X7516Y154070D01*
X7590Y154113D01*
X7662Y154159D01*
X7731Y154209D01*
X7799Y154262D01*
X7864Y154317D01*
X7927Y154376D01*
X7986Y154437D01*
X8044Y154500D01*
X8098Y154567D01*
X8149Y154635D01*
X8197Y154706D01*
X8242Y154779D01*
X8284Y154853D01*
X8322Y154930D01*
X8357Y155008D01*
X8389Y155087D01*
X8417Y155168D01*
X8441Y155250D01*
X8462Y155334D01*
X8479Y155417D01*
X8492Y155502D01*
X8501Y155587D01*
X8507Y155672D01*
X8509Y155758D01*
X7204Y157586D02*
X7037Y157665D01*
X6868Y157740D01*
X6697Y157811D01*
X6525Y157878D01*
X6351Y157940D01*
X6175Y157999D01*
X5999Y158053D01*
X5821Y158103D01*
X5641Y158149D01*
X5461Y158191D01*
X5280Y158228D01*
X5098Y158261D01*
X4916Y158290D01*
X4732Y158314D01*
X4548Y158334D01*
X4364Y158349D01*
X4180Y158360D01*
X3995Y158367D01*
X3810Y158369D01*
X7204Y157586D02*
X7284Y157556D01*
X7363Y157523D01*
X7440Y157486D01*
X7516Y157446D01*
X7590Y157403D01*
X7662Y157357D01*
X7731Y157307D01*
X7799Y157255D01*
X7864Y157199D01*
X7927Y157141D01*
X7986Y157079D01*
X8044Y157016D01*
X8098Y156949D01*
X8149Y156881D01*
X8197Y156810D01*
X8242Y156737D01*
X8284Y156663D01*
X8322Y156586D01*
X8357Y156508D01*
X8389Y156429D01*
X8417Y156348D01*
X8441Y156266D01*
X8462Y156182D01*
X8479Y156099D01*
X8492Y156014D01*
X8501Y155929D01*
X8507Y155844D01*
X8509Y155758D01*
X6421Y153670D02*
X1199Y157847D01*
D14*
X-59860Y213850D02*
X-59860Y298850D01*
X61440Y298850D02*
X61440Y213850D01*
X-59860Y213850D01*
X-59860Y298850D02*
X61440Y298850D01*
D15*
X1040Y219350D03*
D13*
X-60209Y206039D02*
X-60209Y196641D01*
X-60209Y206039D02*
X-57598Y206039D01*
X-57497Y206037D01*
X-57396Y206031D01*
X-57295Y206021D01*
X-57195Y206008D01*
X-57095Y205990D01*
X-56996Y205969D01*
X-56898Y205943D01*
X-56801Y205914D01*
X-56705Y205882D01*
X-56611Y205845D01*
X-56518Y205805D01*
X-56426Y205761D01*
X-56337Y205714D01*
X-56249Y205663D01*
X-56163Y205609D01*
X-56080Y205552D01*
X-55998Y205492D01*
X-55920Y205428D01*
X-55843Y205362D01*
X-55770Y205292D01*
X-55699Y205220D01*
X-55631Y205145D01*
X-55566Y205067D01*
X-55504Y204987D01*
X-55445Y204905D01*
X-55389Y204820D01*
X-55337Y204733D01*
X-55288Y204645D01*
X-55242Y204554D01*
X-55201Y204462D01*
X-55162Y204368D01*
X-55128Y204273D01*
X-55097Y204177D01*
X-55070Y204079D01*
X-55046Y203981D01*
X-55027Y203881D01*
X-55011Y203781D01*
X-54999Y203681D01*
X-54991Y203580D01*
X-54987Y203479D01*
X-54987Y203377D01*
X-54991Y203276D01*
X-54999Y203175D01*
X-55011Y203075D01*
X-55027Y202975D01*
X-55046Y202875D01*
X-55070Y202777D01*
X-55097Y202679D01*
X-55128Y202583D01*
X-55162Y202488D01*
X-55201Y202394D01*
X-55242Y202302D01*
X-55288Y202211D01*
X-55337Y202122D01*
X-55389Y202036D01*
X-55445Y201951D01*
X-55504Y201869D01*
X-55566Y201789D01*
X-55631Y201711D01*
X-55699Y201636D01*
X-55770Y201564D01*
X-55843Y201494D01*
X-55920Y201428D01*
X-55998Y201364D01*
X-56080Y201304D01*
X-56163Y201247D01*
X-56249Y201193D01*
X-56337Y201142D01*
X-56426Y201095D01*
X-56518Y201051D01*
X-56611Y201011D01*
X-56705Y200974D01*
X-56801Y200942D01*
X-56898Y200913D01*
X-56996Y200887D01*
X-57095Y200866D01*
X-57195Y200848D01*
X-57295Y200835D01*
X-57396Y200825D01*
X-57497Y200819D01*
X-57598Y200817D01*
X-57598Y200818D02*
X-60209Y200818D01*
X-48629Y206040D02*
X-48534Y206038D01*
X-48440Y206032D01*
X-48346Y206023D01*
X-48252Y206010D01*
X-48159Y205993D01*
X-48067Y205972D01*
X-47975Y205947D01*
X-47885Y205919D01*
X-47796Y205887D01*
X-47708Y205852D01*
X-47622Y205813D01*
X-47537Y205771D01*
X-47454Y205725D01*
X-47373Y205676D01*
X-47294Y205624D01*
X-47217Y205569D01*
X-47143Y205510D01*
X-47071Y205449D01*
X-47001Y205385D01*
X-46934Y205318D01*
X-46870Y205248D01*
X-46809Y205176D01*
X-46750Y205102D01*
X-46695Y205025D01*
X-46643Y204946D01*
X-46594Y204865D01*
X-46548Y204782D01*
X-46506Y204697D01*
X-46467Y204611D01*
X-46432Y204523D01*
X-46400Y204434D01*
X-46372Y204344D01*
X-46347Y204252D01*
X-46326Y204160D01*
X-46309Y204067D01*
X-46296Y203973D01*
X-46287Y203879D01*
X-46281Y203785D01*
X-46279Y203690D01*
X-48629Y206039D02*
X-48737Y206037D01*
X-48846Y206031D01*
X-48954Y206021D01*
X-49061Y206008D01*
X-49168Y205990D01*
X-49275Y205969D01*
X-49380Y205944D01*
X-49485Y205915D01*
X-49588Y205883D01*
X-49690Y205846D01*
X-49791Y205806D01*
X-49890Y205763D01*
X-49988Y205716D01*
X-50084Y205665D01*
X-50178Y205611D01*
X-50270Y205554D01*
X-50360Y205493D01*
X-50448Y205429D01*
X-50533Y205363D01*
X-50616Y205293D01*
X-50696Y205220D01*
X-50774Y205144D01*
X-50849Y205066D01*
X-50921Y204985D01*
X-50990Y204901D01*
X-51056Y204815D01*
X-51119Y204727D01*
X-51178Y204636D01*
X-51235Y204544D01*
X-51288Y204449D01*
X-51337Y204352D01*
X-51383Y204254D01*
X-51426Y204155D01*
X-51465Y204053D01*
X-51500Y203951D01*
X-47063Y201862D02*
X-46994Y201931D01*
X-46928Y202002D01*
X-46864Y202075D01*
X-46803Y202151D01*
X-46745Y202230D01*
X-46691Y202310D01*
X-46639Y202393D01*
X-46591Y202477D01*
X-46545Y202563D01*
X-46504Y202651D01*
X-46465Y202741D01*
X-46430Y202832D01*
X-46399Y202924D01*
X-46371Y203017D01*
X-46347Y203111D01*
X-46327Y203206D01*
X-46310Y203302D01*
X-46297Y203399D01*
X-46288Y203496D01*
X-46282Y203593D01*
X-46280Y203690D01*
X-47063Y201862D02*
X-51501Y196641D01*
X-46280Y196641D01*
D16*
X36280Y106045D02*
X36282Y106108D01*
X36288Y106170D01*
X36298Y106232D01*
X36311Y106294D01*
X36329Y106354D01*
X36350Y106413D01*
X36375Y106471D01*
X36404Y106527D01*
X36436Y106581D01*
X36471Y106633D01*
X36509Y106682D01*
X36551Y106730D01*
X36595Y106774D01*
X36643Y106816D01*
X36692Y106854D01*
X36744Y106889D01*
X36798Y106921D01*
X36854Y106950D01*
X36912Y106975D01*
X36971Y106996D01*
X37031Y107014D01*
X37093Y107027D01*
X37155Y107037D01*
X37217Y107043D01*
X37280Y107045D01*
X37343Y107043D01*
X37405Y107037D01*
X37467Y107027D01*
X37529Y107014D01*
X37589Y106996D01*
X37648Y106975D01*
X37706Y106950D01*
X37762Y106921D01*
X37816Y106889D01*
X37868Y106854D01*
X37917Y106816D01*
X37965Y106774D01*
X38009Y106730D01*
X38051Y106682D01*
X38089Y106633D01*
X38124Y106581D01*
X38156Y106527D01*
X38185Y106471D01*
X38210Y106413D01*
X38231Y106354D01*
X38249Y106294D01*
X38262Y106232D01*
X38272Y106170D01*
X38278Y106108D01*
X38280Y106045D01*
X38278Y105982D01*
X38272Y105920D01*
X38262Y105858D01*
X38249Y105796D01*
X38231Y105736D01*
X38210Y105677D01*
X38185Y105619D01*
X38156Y105563D01*
X38124Y105509D01*
X38089Y105457D01*
X38051Y105408D01*
X38009Y105360D01*
X37965Y105316D01*
X37917Y105274D01*
X37868Y105236D01*
X37816Y105201D01*
X37762Y105169D01*
X37706Y105140D01*
X37648Y105115D01*
X37589Y105094D01*
X37529Y105076D01*
X37467Y105063D01*
X37405Y105053D01*
X37343Y105047D01*
X37280Y105045D01*
X37217Y105047D01*
X37155Y105053D01*
X37093Y105063D01*
X37031Y105076D01*
X36971Y105094D01*
X36912Y105115D01*
X36854Y105140D01*
X36798Y105169D01*
X36744Y105201D01*
X36692Y105236D01*
X36643Y105274D01*
X36595Y105316D01*
X36551Y105360D01*
X36509Y105408D01*
X36471Y105457D01*
X36436Y105509D01*
X36404Y105563D01*
X36375Y105619D01*
X36350Y105677D01*
X36329Y105736D01*
X36311Y105796D01*
X36298Y105858D01*
X36288Y105920D01*
X36282Y105982D01*
X36280Y106045D01*
D17*
X37030Y130495D02*
X37030Y170495D01*
X87430Y170495D02*
X87430Y130495D01*
D11*
X31506Y112573D02*
X23068Y112573D01*
X31506Y112573D02*
X31619Y112575D01*
X31732Y112581D01*
X31845Y112591D01*
X31958Y112605D01*
X32070Y112622D01*
X32181Y112644D01*
X32291Y112669D01*
X32401Y112699D01*
X32509Y112732D01*
X32616Y112769D01*
X32722Y112809D01*
X32826Y112854D01*
X32929Y112902D01*
X33030Y112953D01*
X33129Y113008D01*
X33226Y113066D01*
X33321Y113128D01*
X33414Y113193D01*
X33504Y113261D01*
X33592Y113332D01*
X33678Y113407D01*
X33761Y113484D01*
X33841Y113564D01*
X33918Y113647D01*
X33993Y113733D01*
X34064Y113821D01*
X34132Y113911D01*
X34197Y114004D01*
X34259Y114099D01*
X34317Y114196D01*
X34372Y114295D01*
X34423Y114396D01*
X34471Y114499D01*
X34516Y114603D01*
X34556Y114709D01*
X34593Y114816D01*
X34626Y114924D01*
X34656Y115034D01*
X34681Y115144D01*
X34703Y115255D01*
X34720Y115367D01*
X34734Y115480D01*
X34744Y115593D01*
X34750Y115706D01*
X34752Y115819D01*
X34750Y115932D01*
X34744Y116045D01*
X34734Y116158D01*
X34720Y116271D01*
X34703Y116383D01*
X34681Y116494D01*
X34656Y116604D01*
X34626Y116714D01*
X34593Y116822D01*
X34556Y116929D01*
X34516Y117035D01*
X34471Y117139D01*
X34423Y117242D01*
X34372Y117343D01*
X34317Y117442D01*
X34259Y117539D01*
X34197Y117634D01*
X34132Y117727D01*
X34064Y117817D01*
X33993Y117905D01*
X33918Y117991D01*
X33841Y118074D01*
X33761Y118154D01*
X33678Y118231D01*
X33592Y118306D01*
X33504Y118377D01*
X33414Y118445D01*
X33321Y118510D01*
X33226Y118572D01*
X33129Y118630D01*
X33030Y118685D01*
X32929Y118736D01*
X32826Y118784D01*
X32722Y118829D01*
X32616Y118869D01*
X32509Y118906D01*
X32401Y118939D01*
X32291Y118969D01*
X32181Y118994D01*
X32070Y119016D01*
X31958Y119033D01*
X31845Y119047D01*
X31732Y119057D01*
X31619Y119063D01*
X31506Y119065D01*
X31506Y119064D02*
X23068Y119064D01*
X23068Y127954D02*
X23070Y128061D01*
X23076Y128167D01*
X23086Y128273D01*
X23099Y128379D01*
X23117Y128485D01*
X23138Y128589D01*
X23163Y128693D01*
X23192Y128796D01*
X23224Y128897D01*
X23261Y128997D01*
X23301Y129096D01*
X23344Y129194D01*
X23391Y129290D01*
X23442Y129384D01*
X23496Y129476D01*
X23553Y129566D01*
X23613Y129654D01*
X23677Y129739D01*
X23744Y129822D01*
X23814Y129903D01*
X23886Y129981D01*
X23962Y130057D01*
X24040Y130129D01*
X24121Y130199D01*
X24204Y130266D01*
X24289Y130330D01*
X24377Y130390D01*
X24467Y130447D01*
X24559Y130501D01*
X24653Y130552D01*
X24749Y130599D01*
X24847Y130642D01*
X24946Y130682D01*
X25046Y130719D01*
X25147Y130751D01*
X25250Y130780D01*
X25354Y130805D01*
X25458Y130826D01*
X25564Y130844D01*
X25670Y130857D01*
X25776Y130867D01*
X25882Y130873D01*
X25989Y130875D01*
X23068Y127954D02*
X23070Y127833D01*
X23076Y127712D01*
X23086Y127592D01*
X23099Y127471D01*
X23117Y127352D01*
X23138Y127232D01*
X23163Y127114D01*
X23192Y126997D01*
X23225Y126880D01*
X23261Y126765D01*
X23302Y126651D01*
X23345Y126538D01*
X23393Y126426D01*
X23444Y126317D01*
X23499Y126209D01*
X23557Y126102D01*
X23618Y125998D01*
X23683Y125896D01*
X23751Y125796D01*
X23822Y125698D01*
X23896Y125602D01*
X23973Y125509D01*
X24054Y125419D01*
X24137Y125331D01*
X24223Y125246D01*
X24312Y125163D01*
X24403Y125084D01*
X24497Y125007D01*
X24593Y124934D01*
X24691Y124864D01*
X24792Y124797D01*
X24895Y124733D01*
X25000Y124673D01*
X25107Y124615D01*
X25215Y124562D01*
X25325Y124512D01*
X25437Y124466D01*
X25550Y124423D01*
X25665Y124384D01*
X28261Y129901D02*
X28183Y129980D01*
X28103Y130056D01*
X28020Y130129D01*
X27934Y130199D01*
X27847Y130266D01*
X27756Y130330D01*
X27664Y130390D01*
X27570Y130448D01*
X27473Y130502D01*
X27375Y130552D01*
X27275Y130599D01*
X27174Y130643D01*
X27071Y130683D01*
X26966Y130719D01*
X26861Y130751D01*
X26754Y130780D01*
X26647Y130805D01*
X26538Y130827D01*
X26429Y130844D01*
X26320Y130858D01*
X26210Y130867D01*
X26099Y130873D01*
X25989Y130875D01*
X28261Y129901D02*
X34752Y124384D01*
X34752Y130875D01*
D13*
X97719Y193421D02*
X99808Y193421D01*
X97719Y193421D02*
X97630Y193423D01*
X97542Y193429D01*
X97454Y193438D01*
X97366Y193451D01*
X97279Y193468D01*
X97193Y193488D01*
X97108Y193513D01*
X97023Y193540D01*
X96940Y193572D01*
X96859Y193606D01*
X96779Y193645D01*
X96701Y193686D01*
X96624Y193731D01*
X96550Y193779D01*
X96477Y193830D01*
X96407Y193884D01*
X96340Y193942D01*
X96274Y194002D01*
X96212Y194064D01*
X96152Y194130D01*
X96094Y194197D01*
X96040Y194267D01*
X95989Y194340D01*
X95941Y194414D01*
X95896Y194491D01*
X95855Y194569D01*
X95816Y194649D01*
X95782Y194730D01*
X95750Y194813D01*
X95723Y194898D01*
X95698Y194983D01*
X95678Y195069D01*
X95661Y195156D01*
X95648Y195244D01*
X95639Y195332D01*
X95633Y195420D01*
X95631Y195509D01*
X95631Y200731D01*
X95633Y200822D01*
X95639Y200913D01*
X95649Y201004D01*
X95663Y201094D01*
X95680Y201183D01*
X95702Y201271D01*
X95728Y201359D01*
X95757Y201445D01*
X95790Y201530D01*
X95827Y201613D01*
X95867Y201695D01*
X95911Y201775D01*
X95958Y201853D01*
X96009Y201929D01*
X96062Y202002D01*
X96119Y202073D01*
X96180Y202142D01*
X96243Y202207D01*
X96308Y202270D01*
X96377Y202330D01*
X96448Y202388D01*
X96521Y202441D01*
X96597Y202492D01*
X96675Y202539D01*
X96755Y202583D01*
X96837Y202623D01*
X96920Y202660D01*
X97005Y202693D01*
X97091Y202722D01*
X97179Y202748D01*
X97267Y202770D01*
X97356Y202787D01*
X97446Y202801D01*
X97537Y202811D01*
X97628Y202817D01*
X97719Y202819D01*
X99808Y202819D01*
X103277Y200731D02*
X105887Y202819D01*
X105887Y193421D01*
X103277Y193421D02*
X108498Y193421D01*
X117642Y200470D02*
X117640Y200565D01*
X117634Y200659D01*
X117625Y200753D01*
X117612Y200847D01*
X117595Y200940D01*
X117574Y201032D01*
X117549Y201124D01*
X117521Y201214D01*
X117489Y201303D01*
X117454Y201391D01*
X117415Y201477D01*
X117373Y201562D01*
X117327Y201645D01*
X117278Y201726D01*
X117226Y201805D01*
X117171Y201882D01*
X117112Y201956D01*
X117051Y202028D01*
X116987Y202098D01*
X116920Y202165D01*
X116850Y202229D01*
X116778Y202290D01*
X116704Y202349D01*
X116627Y202404D01*
X116548Y202456D01*
X116467Y202505D01*
X116384Y202551D01*
X116299Y202593D01*
X116213Y202632D01*
X116125Y202667D01*
X116036Y202699D01*
X115946Y202727D01*
X115854Y202752D01*
X115762Y202773D01*
X115669Y202790D01*
X115575Y202803D01*
X115481Y202812D01*
X115387Y202818D01*
X115292Y202820D01*
X115292Y202819D02*
X115184Y202817D01*
X115075Y202811D01*
X114967Y202801D01*
X114860Y202788D01*
X114753Y202770D01*
X114646Y202749D01*
X114541Y202724D01*
X114436Y202695D01*
X114333Y202663D01*
X114231Y202626D01*
X114130Y202586D01*
X114031Y202543D01*
X113933Y202496D01*
X113837Y202445D01*
X113743Y202391D01*
X113651Y202334D01*
X113561Y202273D01*
X113473Y202209D01*
X113388Y202143D01*
X113305Y202073D01*
X113225Y202000D01*
X113147Y201924D01*
X113072Y201846D01*
X113000Y201765D01*
X112931Y201681D01*
X112865Y201595D01*
X112802Y201507D01*
X112743Y201416D01*
X112686Y201324D01*
X112633Y201229D01*
X112584Y201133D01*
X112538Y201034D01*
X112495Y200935D01*
X112456Y200833D01*
X112421Y200731D01*
X116859Y198642D02*
X116928Y198711D01*
X116994Y198782D01*
X117058Y198855D01*
X117119Y198931D01*
X117177Y199010D01*
X117231Y199090D01*
X117283Y199173D01*
X117331Y199257D01*
X117377Y199343D01*
X117418Y199431D01*
X117457Y199521D01*
X117492Y199612D01*
X117523Y199704D01*
X117551Y199797D01*
X117575Y199891D01*
X117595Y199986D01*
X117612Y200082D01*
X117625Y200179D01*
X117634Y200276D01*
X117640Y200373D01*
X117642Y200470D01*
X116859Y198642D02*
X112421Y193421D01*
X117642Y193421D01*
X98590Y239654D02*
X98590Y249052D01*
X101200Y249052D01*
X101200Y249053D02*
X101301Y249051D01*
X101402Y249045D01*
X101503Y249035D01*
X101603Y249022D01*
X101703Y249004D01*
X101802Y248983D01*
X101900Y248957D01*
X101997Y248928D01*
X102093Y248896D01*
X102187Y248859D01*
X102280Y248819D01*
X102372Y248775D01*
X102461Y248728D01*
X102549Y248677D01*
X102635Y248623D01*
X102718Y248566D01*
X102800Y248506D01*
X102878Y248442D01*
X102955Y248376D01*
X103028Y248306D01*
X103099Y248234D01*
X103167Y248159D01*
X103232Y248081D01*
X103294Y248001D01*
X103353Y247919D01*
X103409Y247834D01*
X103461Y247747D01*
X103510Y247659D01*
X103556Y247568D01*
X103597Y247476D01*
X103636Y247382D01*
X103670Y247287D01*
X103701Y247191D01*
X103728Y247093D01*
X103752Y246995D01*
X103771Y246895D01*
X103787Y246795D01*
X103799Y246695D01*
X103807Y246594D01*
X103811Y246493D01*
X103811Y246391D01*
X103807Y246290D01*
X103799Y246189D01*
X103787Y246089D01*
X103771Y245989D01*
X103752Y245889D01*
X103728Y245791D01*
X103701Y245693D01*
X103670Y245597D01*
X103636Y245502D01*
X103597Y245408D01*
X103556Y245316D01*
X103510Y245225D01*
X103461Y245136D01*
X103409Y245050D01*
X103353Y244965D01*
X103294Y244883D01*
X103232Y244803D01*
X103167Y244725D01*
X103099Y244650D01*
X103028Y244578D01*
X102955Y244508D01*
X102878Y244442D01*
X102800Y244378D01*
X102718Y244318D01*
X102635Y244261D01*
X102549Y244207D01*
X102461Y244156D01*
X102372Y244109D01*
X102280Y244065D01*
X102187Y244025D01*
X102093Y243988D01*
X101997Y243956D01*
X101900Y243927D01*
X101802Y243901D01*
X101703Y243880D01*
X101603Y243862D01*
X101503Y243849D01*
X101402Y243839D01*
X101301Y243833D01*
X101200Y243831D01*
X98590Y243831D01*
X101723Y243831D02*
X103811Y239654D01*
X107677Y248008D02*
X107677Y249052D01*
X112898Y249052D01*
X110287Y239654D01*
X-25659Y162725D02*
X-35057Y162725D01*
X-35057Y165335D01*
X-35058Y165335D02*
X-35056Y165436D01*
X-35050Y165537D01*
X-35040Y165638D01*
X-35027Y165738D01*
X-35009Y165838D01*
X-34988Y165937D01*
X-34962Y166035D01*
X-34933Y166132D01*
X-34901Y166228D01*
X-34864Y166322D01*
X-34824Y166415D01*
X-34780Y166507D01*
X-34733Y166596D01*
X-34682Y166684D01*
X-34628Y166770D01*
X-34571Y166853D01*
X-34511Y166935D01*
X-34447Y167013D01*
X-34381Y167090D01*
X-34311Y167163D01*
X-34239Y167234D01*
X-34164Y167302D01*
X-34086Y167367D01*
X-34006Y167429D01*
X-33924Y167488D01*
X-33839Y167544D01*
X-33753Y167596D01*
X-33664Y167645D01*
X-33573Y167691D01*
X-33481Y167732D01*
X-33387Y167771D01*
X-33292Y167805D01*
X-33196Y167836D01*
X-33098Y167863D01*
X-33000Y167887D01*
X-32900Y167906D01*
X-32800Y167922D01*
X-32700Y167934D01*
X-32599Y167942D01*
X-32498Y167946D01*
X-32396Y167946D01*
X-32295Y167942D01*
X-32194Y167934D01*
X-32094Y167922D01*
X-31994Y167906D01*
X-31894Y167887D01*
X-31796Y167863D01*
X-31698Y167836D01*
X-31602Y167805D01*
X-31507Y167771D01*
X-31413Y167732D01*
X-31321Y167691D01*
X-31230Y167645D01*
X-31142Y167596D01*
X-31055Y167544D01*
X-30970Y167488D01*
X-30888Y167429D01*
X-30808Y167367D01*
X-30730Y167302D01*
X-30655Y167234D01*
X-30583Y167163D01*
X-30513Y167090D01*
X-30447Y167013D01*
X-30383Y166935D01*
X-30323Y166853D01*
X-30266Y166770D01*
X-30212Y166684D01*
X-30161Y166596D01*
X-30114Y166507D01*
X-30070Y166415D01*
X-30030Y166322D01*
X-29993Y166228D01*
X-29961Y166132D01*
X-29932Y166035D01*
X-29906Y165937D01*
X-29885Y165838D01*
X-29867Y165738D01*
X-29854Y165638D01*
X-29844Y165537D01*
X-29838Y165436D01*
X-29836Y165335D01*
X-29836Y162725D01*
X-29836Y165858D02*
X-25659Y167946D01*
X-30880Y171812D02*
X-30880Y174945D01*
X-30878Y175034D01*
X-30872Y175122D01*
X-30863Y175210D01*
X-30850Y175298D01*
X-30833Y175385D01*
X-30813Y175471D01*
X-30788Y175556D01*
X-30761Y175641D01*
X-30729Y175724D01*
X-30695Y175805D01*
X-30656Y175885D01*
X-30615Y175963D01*
X-30570Y176040D01*
X-30522Y176114D01*
X-30471Y176187D01*
X-30417Y176257D01*
X-30359Y176324D01*
X-30299Y176390D01*
X-30237Y176452D01*
X-30171Y176512D01*
X-30104Y176570D01*
X-30034Y176624D01*
X-29961Y176675D01*
X-29887Y176723D01*
X-29810Y176768D01*
X-29732Y176809D01*
X-29652Y176848D01*
X-29571Y176882D01*
X-29488Y176914D01*
X-29403Y176941D01*
X-29318Y176966D01*
X-29232Y176986D01*
X-29145Y177003D01*
X-29057Y177016D01*
X-28969Y177025D01*
X-28881Y177031D01*
X-28792Y177033D01*
X-28270Y177033D01*
X-28169Y177031D01*
X-28068Y177025D01*
X-27967Y177015D01*
X-27867Y177002D01*
X-27767Y176984D01*
X-27668Y176963D01*
X-27570Y176937D01*
X-27473Y176908D01*
X-27377Y176876D01*
X-27283Y176839D01*
X-27190Y176799D01*
X-27098Y176755D01*
X-27009Y176708D01*
X-26921Y176657D01*
X-26835Y176603D01*
X-26752Y176546D01*
X-26670Y176486D01*
X-26592Y176422D01*
X-26515Y176356D01*
X-26442Y176286D01*
X-26371Y176214D01*
X-26303Y176139D01*
X-26238Y176061D01*
X-26176Y175981D01*
X-26117Y175899D01*
X-26061Y175814D01*
X-26009Y175727D01*
X-25960Y175639D01*
X-25914Y175548D01*
X-25873Y175456D01*
X-25834Y175362D01*
X-25800Y175267D01*
X-25769Y175171D01*
X-25742Y175073D01*
X-25718Y174975D01*
X-25699Y174875D01*
X-25683Y174775D01*
X-25671Y174675D01*
X-25663Y174574D01*
X-25659Y174473D01*
X-25659Y174371D01*
X-25663Y174270D01*
X-25671Y174169D01*
X-25683Y174069D01*
X-25699Y173969D01*
X-25718Y173869D01*
X-25742Y173771D01*
X-25769Y173673D01*
X-25800Y173577D01*
X-25834Y173482D01*
X-25873Y173388D01*
X-25914Y173296D01*
X-25960Y173205D01*
X-26009Y173116D01*
X-26061Y173030D01*
X-26117Y172945D01*
X-26176Y172863D01*
X-26238Y172783D01*
X-26303Y172705D01*
X-26371Y172630D01*
X-26442Y172558D01*
X-26515Y172488D01*
X-26592Y172422D01*
X-26670Y172358D01*
X-26752Y172298D01*
X-26835Y172241D01*
X-26921Y172187D01*
X-27009Y172136D01*
X-27098Y172089D01*
X-27190Y172045D01*
X-27283Y172005D01*
X-27377Y171968D01*
X-27473Y171936D01*
X-27570Y171907D01*
X-27668Y171881D01*
X-27767Y171860D01*
X-27867Y171842D01*
X-27967Y171829D01*
X-28068Y171819D01*
X-28169Y171813D01*
X-28270Y171811D01*
X-28270Y171812D02*
X-30880Y171812D01*
X-31009Y171814D01*
X-31137Y171820D01*
X-31265Y171830D01*
X-31393Y171844D01*
X-31521Y171861D01*
X-31648Y171883D01*
X-31774Y171909D01*
X-31899Y171938D01*
X-32023Y171971D01*
X-32146Y172009D01*
X-32268Y172049D01*
X-32389Y172094D01*
X-32508Y172142D01*
X-32626Y172194D01*
X-32742Y172250D01*
X-32856Y172309D01*
X-32968Y172372D01*
X-33079Y172438D01*
X-33187Y172507D01*
X-33293Y172580D01*
X-33397Y172656D01*
X-33499Y172735D01*
X-33598Y172817D01*
X-33694Y172902D01*
X-33788Y172990D01*
X-33879Y173081D01*
X-33967Y173175D01*
X-34052Y173271D01*
X-34134Y173370D01*
X-34213Y173472D01*
X-34289Y173576D01*
X-34362Y173682D01*
X-34431Y173790D01*
X-34497Y173900D01*
X-34560Y174013D01*
X-34619Y174127D01*
X-34675Y174243D01*
X-34727Y174361D01*
X-34775Y174480D01*
X-34820Y174601D01*
X-34860Y174723D01*
X-34898Y174846D01*
X-34931Y174970D01*
X-34960Y175095D01*
X-34986Y175221D01*
X-35008Y175348D01*
X-35025Y175476D01*
X-35039Y175604D01*
X-35049Y175732D01*
X-35055Y175860D01*
X-35057Y175989D01*
D18*
X-9652Y44602D03*
D19*
X1702Y44602D03*
D20*
X-11481Y44755D03*
X-8280Y44755D03*
X8636Y44755D03*
D21*
X-9881Y44755D03*
D22*
X1778Y44755D03*
D20*
X-11786Y44907D03*
X-8280Y44907D03*
D23*
X-10033Y44907D03*
D24*
X2007Y44907D03*
D20*
X-8280Y45060D03*
X9246Y45060D03*
D25*
X-10185Y45060D03*
D26*
X2083Y45060D03*
D20*
X-8280Y45212D03*
D27*
X-10262Y45212D03*
D28*
X2235Y45212D03*
D20*
X-12395Y45364D03*
X-8280Y45364D03*
D29*
X-10338Y45364D03*
D30*
X2311Y45364D03*
D20*
X-8280Y45517D03*
D31*
X-10414Y45517D03*
D32*
X2388Y45517D03*
D20*
X-8280Y45669D03*
X9855Y45669D03*
D33*
X-10490Y45669D03*
D32*
X2388Y45669D03*
D20*
X-12700Y45822D03*
X-8280Y45822D03*
D33*
X-10490Y45822D03*
D34*
X2464Y45822D03*
D20*
X-8280Y45974D03*
D35*
X-10566Y45974D03*
D36*
X2540Y45974D03*
D20*
X-8280Y46126D03*
X10160Y46126D03*
D37*
X-10643Y46126D03*
D36*
X2540Y46126D03*
D20*
X-13005Y46279D03*
X-8280Y46279D03*
D37*
X-10643Y46279D03*
D38*
X2616Y46279D03*
D20*
X-8280Y46431D03*
X10312Y46431D03*
D39*
X-10719Y46431D03*
D38*
X2616Y46431D03*
D20*
X-13157Y46584D03*
X-8280Y46584D03*
D39*
X-10719Y46584D03*
D40*
X2692Y46584D03*
D20*
X-8280Y46736D03*
D41*
X-10795Y46736D03*
D42*
X2769Y46736D03*
D20*
X-8280Y46888D03*
X10617Y46888D03*
D43*
X-10871Y46888D03*
D42*
X2769Y46888D03*
D20*
X-8280Y47041D03*
D43*
X-10871Y47041D03*
D44*
X2845Y47041D03*
D20*
X-8280Y47193D03*
X10770Y47193D03*
D45*
X-10947Y47193D03*
D44*
X2845Y47193D03*
D20*
X-13614Y47346D03*
X-8280Y47346D03*
D45*
X-10947Y47346D03*
D46*
X2921Y47346D03*
D20*
X-8280Y47498D03*
X10922Y47498D03*
D47*
X-11024Y47498D03*
D46*
X2921Y47498D03*
D20*
X-13767Y47650D03*
X-8280Y47650D03*
D47*
X-11024Y47650D03*
D48*
X2997Y47650D03*
D20*
X-8280Y47803D03*
D49*
X-11100Y47803D03*
D50*
X3073Y47803D03*
D20*
X-8280Y47955D03*
X11227Y47955D03*
D51*
X-11176Y47955D03*
D50*
X3073Y47955D03*
D20*
X-14072Y48108D03*
X-8280Y48108D03*
D51*
X-11176Y48108D03*
D52*
X3150Y48108D03*
D20*
X-8280Y48260D03*
X11379Y48260D03*
D53*
X-11252Y48260D03*
D52*
X3150Y48260D03*
D20*
X-14224Y48412D03*
X-8280Y48412D03*
D53*
X-11252Y48412D03*
D54*
X3226Y48412D03*
D20*
X-8280Y48565D03*
D55*
X-11328Y48565D03*
D56*
X3302Y48565D03*
D20*
X-14376Y48717D03*
X-8280Y48717D03*
D55*
X-11328Y48717D03*
D56*
X3302Y48717D03*
D20*
X-8280Y48870D03*
D57*
X-11405Y48870D03*
D58*
X3378Y48870D03*
D20*
X-8280Y49022D03*
X11836Y49022D03*
D59*
X-11481Y49022D03*
D58*
X3378Y49022D03*
D20*
X-14681Y49174D03*
X-8280Y49174D03*
D59*
X-11481Y49174D03*
D60*
X3454Y49174D03*
D20*
X-8280Y49327D03*
X11989Y49327D03*
D61*
X-11557Y49327D03*
D60*
X3454Y49327D03*
D20*
X-14834Y49479D03*
X-8280Y49479D03*
D61*
X-11557Y49479D03*
D62*
X3531Y49479D03*
D20*
X-8280Y49632D03*
D63*
X-11633Y49632D03*
D64*
X3607Y49632D03*
D20*
X-14986Y49784D03*
X-8280Y49784D03*
D63*
X-11633Y49784D03*
D64*
X3607Y49784D03*
D20*
X-8280Y49936D03*
D65*
X-11709Y49936D03*
D66*
X3683Y49936D03*
D20*
X-8280Y50089D03*
X12446Y50089D03*
D67*
X-11786Y50089D03*
D66*
X3683Y50089D03*
D20*
X-15291Y50241D03*
X-8280Y50241D03*
D67*
X-11786Y50241D03*
D68*
X3759Y50241D03*
D20*
X-8280Y50394D03*
X-4928Y50394D03*
X12598Y50394D03*
D69*
X-11862Y50394D03*
D66*
X3835Y50394D03*
D20*
X-15443Y50546D03*
X-8280Y50546D03*
X-4928Y50546D03*
D69*
X-11862Y50546D03*
D68*
X3912Y50546D03*
D20*
X-8280Y50698D03*
X-4928Y50698D03*
X12751Y50698D03*
D70*
X-11938Y50698D03*
D68*
X3912Y50698D03*
D20*
X-8280Y50851D03*
X-4928Y50851D03*
D71*
X-12014Y50851D03*
D72*
X3988Y50851D03*
D20*
X-8280Y51003D03*
X-4928Y51003D03*
D71*
X-12014Y51003D03*
D73*
X4064Y51003D03*
D20*
X-8280Y51156D03*
X-4928Y51156D03*
X13056Y51156D03*
D74*
X-12090Y51156D03*
D73*
X4064Y51156D03*
D20*
X-15900Y51308D03*
X-8280Y51308D03*
X-4928Y51308D03*
D74*
X-12090Y51308D03*
D75*
X4140Y51308D03*
D20*
X-8280Y51460D03*
X-4928Y51460D03*
D76*
X3378Y51460D03*
D20*
X4369Y51460D03*
X13208Y51460D03*
D77*
X-12167Y51460D03*
D78*
X-813Y51460D03*
D79*
X8788Y51460D03*
D20*
X-16053Y51613D03*
X-8280Y51613D03*
X-4928Y51613D03*
X2997Y51613D03*
X4674Y51613D03*
D77*
X-12167Y51613D03*
D80*
X-965Y51613D03*
D81*
X9017Y51613D03*
D20*
X-8280Y51765D03*
X-4928Y51765D03*
X2845Y51765D03*
X13360Y51765D03*
D80*
X-12243Y51765D03*
D77*
X-1041Y51765D03*
D82*
X9093Y51765D03*
D20*
X-8280Y51918D03*
X-4928Y51918D03*
X5131Y51918D03*
X13513Y51918D03*
D83*
X-12319Y51918D03*
D74*
X-1118Y51918D03*
D84*
X9322Y51918D03*
D20*
X-16358Y52070D03*
X-8280Y52070D03*
X-4928Y52070D03*
X2540Y52070D03*
D83*
X-12319Y52070D03*
D71*
X-1194Y52070D03*
D82*
X9398Y52070D03*
D20*
X-8280Y52222D03*
X-4928Y52222D03*
X13665Y52222D03*
D78*
X-12395Y52222D03*
D71*
X-1194Y52222D03*
D85*
X9474Y52222D03*
D20*
X-16510Y52375D03*
X-8280Y52375D03*
X-4928Y52375D03*
D78*
X-12395Y52375D03*
D70*
X-1270Y52375D03*
D82*
X9550Y52375D03*
D20*
X-8280Y52527D03*
X-4928Y52527D03*
X5436Y52527D03*
X13818Y52527D03*
D85*
X-12471Y52527D03*
D70*
X-1270Y52527D03*
D85*
X9627Y52527D03*
D20*
X-16662Y52680D03*
X-8280Y52680D03*
X-4928Y52680D03*
X2235Y52680D03*
D85*
X-12471Y52680D03*
D69*
X-1346Y52680D03*
D82*
X9703Y52680D03*
D20*
X-8280Y52832D03*
X-4928Y52832D03*
X2235Y52832D03*
X13970Y52832D03*
D82*
X-12548Y52832D03*
D69*
X-1346Y52832D03*
D82*
X9703Y52832D03*
D20*
X-8280Y52984D03*
X-4928Y52984D03*
X2235Y52984D03*
D81*
X-12624Y52984D03*
D69*
X-1346Y52984D03*
D81*
X9779Y52984D03*
D20*
X-16967Y53137D03*
X-8280Y53137D03*
X-4928Y53137D03*
X2235Y53137D03*
X14122Y53137D03*
D81*
X-12624Y53137D03*
D69*
X-1346Y53137D03*
D81*
X9779Y53137D03*
D20*
X-8280Y53289D03*
X-4928Y53289D03*
X2235Y53289D03*
D86*
X-12700Y53289D03*
D69*
X-1346Y53289D03*
D79*
X9855Y53289D03*
D20*
X-17120Y53442D03*
X-8280Y53442D03*
X-4928Y53442D03*
X2235Y53442D03*
D86*
X-12700Y53442D03*
D69*
X-1346Y53442D03*
D87*
X9931Y53442D03*
D20*
X-8280Y53594D03*
X-4928Y53594D03*
X2235Y53594D03*
X14427Y53594D03*
D87*
X-12776Y53594D03*
D69*
X-1346Y53594D03*
D87*
X9931Y53594D03*
D20*
X-17272Y53746D03*
X-8280Y53746D03*
X-4928Y53746D03*
X2235Y53746D03*
D87*
X-12776Y53746D03*
D69*
X-1346Y53746D03*
D88*
X10008Y53746D03*
D20*
X-8280Y53899D03*
X-4928Y53899D03*
X2235Y53899D03*
X14580Y53899D03*
D88*
X-12852Y53899D03*
D69*
X-1346Y53899D03*
D88*
X10008Y53899D03*
D20*
X-8280Y54051D03*
X-4928Y54051D03*
X2235Y54051D03*
D89*
X-12929Y54051D03*
D69*
X-1346Y54051D03*
D89*
X10084Y54051D03*
D20*
X-17577Y54204D03*
X-8280Y54204D03*
X-4928Y54204D03*
X2235Y54204D03*
X5588Y54204D03*
X14732Y54204D03*
D89*
X-12929Y54204D03*
D69*
X-1346Y54204D03*
D88*
X10160Y54204D03*
D20*
X-8280Y54356D03*
X-4928Y54356D03*
X2235Y54356D03*
X5588Y54356D03*
D90*
X-13005Y54356D03*
D69*
X-1346Y54356D03*
D89*
X10236Y54356D03*
D20*
X-17729Y54508D03*
X-8280Y54508D03*
X-4928Y54508D03*
X2235Y54508D03*
X5588Y54508D03*
D90*
X-13005Y54508D03*
D69*
X-1346Y54508D03*
D90*
X10312Y54508D03*
D20*
X-8280Y54661D03*
X-4928Y54661D03*
X2235Y54661D03*
X5588Y54661D03*
X15037Y54661D03*
D91*
X-13081Y54661D03*
D69*
X-1346Y54661D03*
D90*
X10312Y54661D03*
D20*
X-17882Y54813D03*
X-8280Y54813D03*
X-4928Y54813D03*
X2235Y54813D03*
X5588Y54813D03*
D91*
X-13081Y54813D03*
D69*
X-1346Y54813D03*
D91*
X10389Y54813D03*
D20*
X-8280Y54966D03*
X-4928Y54966D03*
X2235Y54966D03*
X5588Y54966D03*
X15189Y54966D03*
D92*
X-13157Y54966D03*
D69*
X-1346Y54966D03*
D91*
X10389Y54966D03*
D20*
X-8280Y55118D03*
X-4928Y55118D03*
X2235Y55118D03*
X5588Y55118D03*
D93*
X-13233Y55118D03*
D69*
X-1346Y55118D03*
D92*
X10465Y55118D03*
D20*
X-18186Y55270D03*
X-8280Y55270D03*
X-4928Y55270D03*
X5588Y55270D03*
D93*
X-13233Y55270D03*
D69*
X-1346Y55270D03*
D93*
X10541Y55270D03*
D20*
X-8280Y55423D03*
X-4928Y55423D03*
X5588Y55423D03*
X15494Y55423D03*
D94*
X-13310Y55423D03*
D69*
X-1346Y55423D03*
D93*
X10541Y55423D03*
D20*
X-18339Y55575D03*
X-8280Y55575D03*
X-4928Y55575D03*
X5588Y55575D03*
D94*
X-13310Y55575D03*
D69*
X-1346Y55575D03*
D94*
X10617Y55575D03*
D20*
X-8280Y55728D03*
X-4928Y55728D03*
X5588Y55728D03*
X15646Y55728D03*
D95*
X-13386Y55728D03*
D69*
X-1346Y55728D03*
D94*
X10617Y55728D03*
D20*
X-18491Y55880D03*
X-8280Y55880D03*
X-4928Y55880D03*
X5588Y55880D03*
D95*
X-13386Y55880D03*
D69*
X-1346Y55880D03*
D95*
X10693Y55880D03*
D20*
X-8280Y56032D03*
X-4928Y56032D03*
X5588Y56032D03*
X15799Y56032D03*
D96*
X-13462Y56032D03*
D69*
X-1346Y56032D03*
D95*
X10693Y56032D03*
D20*
X-8280Y56185D03*
X-4928Y56185D03*
X5588Y56185D03*
D97*
X-13538Y56185D03*
D69*
X-1346Y56185D03*
D96*
X10770Y56185D03*
D20*
X-18796Y56337D03*
X-8280Y56337D03*
X-4928Y56337D03*
X5588Y56337D03*
D97*
X-13538Y56337D03*
D69*
X-1346Y56337D03*
D97*
X10846Y56337D03*
D20*
X-8280Y56490D03*
X-4928Y56490D03*
X5588Y56490D03*
X16104Y56490D03*
D98*
X-13614Y56490D03*
D69*
X-1346Y56490D03*
D97*
X10846Y56490D03*
D20*
X-18948Y56642D03*
X-8280Y56642D03*
X-4928Y56642D03*
X5588Y56642D03*
D98*
X-13614Y56642D03*
D69*
X-1346Y56642D03*
D98*
X10922Y56642D03*
D20*
X-8280Y56794D03*
X-4928Y56794D03*
X5588Y56794D03*
X16256Y56794D03*
D99*
X-13691Y56794D03*
D69*
X-1346Y56794D03*
D98*
X10922Y56794D03*
D20*
X-19101Y56947D03*
X-8280Y56947D03*
X-4928Y56947D03*
X5588Y56947D03*
D99*
X-13691Y56947D03*
D69*
X-1346Y56947D03*
D99*
X10998Y56947D03*
D20*
X-8280Y57099D03*
X-4928Y57099D03*
X5588Y57099D03*
X16408Y57099D03*
D100*
X-13767Y57099D03*
D69*
X-1346Y57099D03*
D99*
X10998Y57099D03*
D20*
X-8280Y57252D03*
X-4928Y57252D03*
X5588Y57252D03*
D101*
X-13843Y57252D03*
D69*
X-1346Y57252D03*
D100*
X11074Y57252D03*
D20*
X-19406Y57404D03*
X-8280Y57404D03*
X-4928Y57404D03*
X5588Y57404D03*
D101*
X-13843Y57404D03*
D69*
X-1346Y57404D03*
D101*
X11151Y57404D03*
D20*
X-8280Y57556D03*
X-4928Y57556D03*
X5588Y57556D03*
X16713Y57556D03*
D102*
X-13919Y57556D03*
D69*
X-1346Y57556D03*
D101*
X11151Y57556D03*
D20*
X-19558Y57709D03*
X-8280Y57709D03*
X-4928Y57709D03*
X5588Y57709D03*
D102*
X-13919Y57709D03*
D69*
X-1346Y57709D03*
D102*
X11227Y57709D03*
D20*
X-8280Y57861D03*
X-4928Y57861D03*
X5588Y57861D03*
X16866Y57861D03*
D103*
X-13995Y57861D03*
D69*
X-1346Y57861D03*
D102*
X11227Y57861D03*
D20*
X-8280Y58014D03*
X-4928Y58014D03*
X5588Y58014D03*
D104*
X-14072Y58014D03*
D69*
X-1346Y58014D03*
D103*
X11303Y58014D03*
D20*
X-19863Y58166D03*
X-8280Y58166D03*
X-4928Y58166D03*
X5588Y58166D03*
X17018Y58166D03*
D104*
X-14072Y58166D03*
D69*
X-1346Y58166D03*
D103*
X11303Y58166D03*
D20*
X-8280Y58318D03*
X-4928Y58318D03*
X5588Y58318D03*
X17170Y58318D03*
D105*
X-14148Y58318D03*
D69*
X-1346Y58318D03*
D104*
X11379Y58318D03*
D20*
X-20015Y58471D03*
X-8280Y58471D03*
X-4928Y58471D03*
X5588Y58471D03*
D105*
X-14148Y58471D03*
D69*
X-1346Y58471D03*
D105*
X11455Y58471D03*
D20*
X-8280Y58623D03*
X-4928Y58623D03*
X5588Y58623D03*
X17323Y58623D03*
D106*
X-14224Y58623D03*
D69*
X-1346Y58623D03*
D105*
X11455Y58623D03*
D20*
X-20168Y58776D03*
X-8280Y58776D03*
X-4928Y58776D03*
X5588Y58776D03*
D106*
X-14224Y58776D03*
D69*
X-1346Y58776D03*
D106*
X11532Y58776D03*
D20*
X-8280Y58928D03*
X-4928Y58928D03*
X5588Y58928D03*
X17475Y58928D03*
D107*
X-14300Y58928D03*
D69*
X-1346Y58928D03*
D106*
X11532Y58928D03*
D20*
X-8280Y59080D03*
X-4928Y59080D03*
X5588Y59080D03*
D108*
X-14376Y59080D03*
D69*
X-1346Y59080D03*
D107*
X11608Y59080D03*
D20*
X-20472Y59233D03*
X-8280Y59233D03*
X-4928Y59233D03*
X5588Y59233D03*
D108*
X-14376Y59233D03*
D69*
X-1346Y59233D03*
D108*
X11684Y59233D03*
D20*
X-8280Y59385D03*
X-4928Y59385D03*
X5588Y59385D03*
X17780Y59385D03*
D109*
X-14453Y59385D03*
D69*
X-1346Y59385D03*
D108*
X11684Y59385D03*
D20*
X-20625Y59538D03*
X-8280Y59538D03*
X-4928Y59538D03*
X5588Y59538D03*
D109*
X-14453Y59538D03*
D69*
X-1346Y59538D03*
D109*
X11760Y59538D03*
D20*
X-8280Y59690D03*
X-4928Y59690D03*
X5588Y59690D03*
X17932Y59690D03*
D110*
X-14529Y59690D03*
D69*
X-1346Y59690D03*
D109*
X11760Y59690D03*
D20*
X-20777Y59842D03*
X-8280Y59842D03*
X-4928Y59842D03*
X5588Y59842D03*
D110*
X-14529Y59842D03*
D69*
X-1346Y59842D03*
D110*
X11836Y59842D03*
D20*
X-8280Y59995D03*
X-4928Y59995D03*
X5588Y59995D03*
X18085Y59995D03*
D111*
X-14605Y59995D03*
D69*
X-1346Y59995D03*
D110*
X11836Y59995D03*
D20*
X-8280Y60147D03*
X-4928Y60147D03*
X5588Y60147D03*
D112*
X-14681Y60147D03*
D69*
X-1346Y60147D03*
D111*
X11913Y60147D03*
D20*
X-21082Y60300D03*
X-8280Y60300D03*
X-4928Y60300D03*
X5588Y60300D03*
D112*
X-14681Y60300D03*
D69*
X-1346Y60300D03*
D112*
X11989Y60300D03*
D20*
X-4928Y60452D03*
X5588Y60452D03*
X18390Y60452D03*
D113*
X-14757Y60452D03*
D69*
X-1346Y60452D03*
D112*
X11989Y60452D03*
D20*
X-21234Y60604D03*
X-4928Y60604D03*
X5588Y60604D03*
D113*
X-14757Y60604D03*
D69*
X-1346Y60604D03*
D113*
X12065Y60604D03*
D20*
X-4928Y60757D03*
X5588Y60757D03*
X18542Y60757D03*
D114*
X-14834Y60757D03*
D69*
X-1346Y60757D03*
D113*
X12065Y60757D03*
D20*
X-21387Y60909D03*
X-4928Y60909D03*
X5588Y60909D03*
D114*
X-14834Y60909D03*
D69*
X-1346Y60909D03*
D114*
X12141Y60909D03*
D20*
X-4928Y61062D03*
X5588Y61062D03*
X18694Y61062D03*
D19*
X-14910Y61062D03*
D69*
X-1346Y61062D03*
D114*
X12141Y61062D03*
D20*
X-4775Y61214D03*
X2083Y61214D03*
X5588Y61214D03*
X18847Y61214D03*
D115*
X-14986Y61214D03*
D116*
X-1346Y61214D03*
D19*
X12217Y61214D03*
D20*
X-21692Y61366D03*
X5588Y61366D03*
D115*
X-14986Y61366D03*
X12294Y61366D03*
D20*
X5588Y61519D03*
X18999Y61519D03*
D117*
X-15062Y61519D03*
D115*
X12294Y61519D03*
D20*
X-21844Y61671D03*
X5588Y61671D03*
D117*
X-15062Y61671D03*
X12370Y61671D03*
D20*
X5588Y61824D03*
X19152Y61824D03*
D22*
X-15138Y61824D03*
D117*
X12370Y61824D03*
D20*
X-21996Y61976D03*
X5588Y61976D03*
D22*
X-15138Y61976D03*
X12446Y61976D03*
D20*
X5588Y62128D03*
X19304Y62128D03*
D118*
X-15215Y62128D03*
D22*
X12446Y62128D03*
D20*
X-22149Y62281D03*
X5588Y62281D03*
D118*
X-15215Y62281D03*
X12522Y62281D03*
D20*
X-22149Y62433D03*
X5588Y62433D03*
D118*
X-15215Y62433D03*
X12522Y62433D03*
D20*
X5588Y62586D03*
D119*
X-15291Y62586D03*
D118*
X12522Y62586D03*
D20*
X5588Y62738D03*
X19456Y62738D03*
D119*
X-15291Y62738D03*
D118*
X12522Y62738D03*
D20*
X5588Y62890D03*
X19456Y62890D03*
D119*
X-15291Y62890D03*
D118*
X12522Y62890D03*
D20*
X5588Y63043D03*
X19456Y63043D03*
D119*
X-15291Y63043D03*
D118*
X12522Y63043D03*
D20*
X5588Y63195D03*
X19456Y63195D03*
D119*
X-15291Y63195D03*
D118*
X12522Y63195D03*
D20*
X5588Y63348D03*
X19456Y63348D03*
D119*
X-15291Y63348D03*
D118*
X12522Y63348D03*
D20*
X5588Y63500D03*
D119*
X-15291Y63500D03*
D118*
X12522Y63500D03*
D20*
X-22149Y63652D03*
X5588Y63652D03*
D118*
X-15215Y63652D03*
X12522Y63652D03*
D20*
X5588Y63805D03*
X19304Y63805D03*
D118*
X-15215Y63805D03*
D22*
X12446Y63805D03*
D20*
X5588Y63957D03*
X19304Y63957D03*
D118*
X-15215Y63957D03*
D22*
X12446Y63957D03*
D20*
X-21996Y64110D03*
X5588Y64110D03*
D22*
X-15138Y64110D03*
X12446Y64110D03*
D20*
X5588Y64262D03*
X19152Y64262D03*
D22*
X-15138Y64262D03*
D117*
X12370Y64262D03*
D20*
X-21844Y64414D03*
X5588Y64414D03*
D117*
X-15062Y64414D03*
X12370Y64414D03*
D20*
X5588Y64567D03*
D117*
X-15062Y64567D03*
D115*
X12294Y64567D03*
D20*
X5588Y64719D03*
X18847Y64719D03*
D115*
X-14986Y64719D03*
D19*
X12217Y64719D03*
D20*
X-21539Y64872D03*
X5588Y64872D03*
D19*
X-14910Y64872D03*
D69*
X-1346Y64872D03*
D19*
X12217Y64872D03*
D20*
X-4928Y65024D03*
X5588Y65024D03*
X18694Y65024D03*
D19*
X-14910Y65024D03*
D69*
X-1346Y65024D03*
D114*
X12141Y65024D03*
D20*
X-21387Y65176D03*
X-4928Y65176D03*
X5588Y65176D03*
D114*
X-14834Y65176D03*
D69*
X-1346Y65176D03*
D114*
X12141Y65176D03*
D20*
X-4928Y65329D03*
X5588Y65329D03*
X18542Y65329D03*
D114*
X-14834Y65329D03*
D69*
X-1346Y65329D03*
D113*
X12065Y65329D03*
D20*
X-21234Y65481D03*
X-4928Y65481D03*
X5588Y65481D03*
X18390Y65481D03*
D113*
X-14757Y65481D03*
D69*
X-1346Y65481D03*
D112*
X11989Y65481D03*
D20*
X-21082Y65634D03*
X-4928Y65634D03*
X5588Y65634D03*
D112*
X-14681Y65634D03*
D69*
X-1346Y65634D03*
D112*
X11989Y65634D03*
D20*
X-4928Y65786D03*
X5588Y65786D03*
X18237Y65786D03*
D112*
X-14681Y65786D03*
D69*
X-1346Y65786D03*
D111*
X11913Y65786D03*
D20*
X-20930Y65938D03*
X-4928Y65938D03*
X5588Y65938D03*
D111*
X-14605Y65938D03*
D69*
X-1346Y65938D03*
D111*
X11913Y65938D03*
D20*
X-4928Y66091D03*
X5588Y66091D03*
X18085Y66091D03*
D111*
X-14605Y66091D03*
D69*
X-1346Y66091D03*
D110*
X11836Y66091D03*
D20*
X-20777Y66243D03*
X-4928Y66243D03*
X5588Y66243D03*
D110*
X-14529Y66243D03*
D69*
X-1346Y66243D03*
D110*
X11836Y66243D03*
D20*
X-4928Y66396D03*
X5588Y66396D03*
X17932Y66396D03*
D110*
X-14529Y66396D03*
D69*
X-1346Y66396D03*
D109*
X11760Y66396D03*
D20*
X-4928Y66548D03*
X5588Y66548D03*
X17780Y66548D03*
D109*
X-14453Y66548D03*
D69*
X-1346Y66548D03*
D108*
X11684Y66548D03*
D20*
X-20472Y66700D03*
X-4928Y66700D03*
X5588Y66700D03*
D108*
X-14376Y66700D03*
D69*
X-1346Y66700D03*
D108*
X11684Y66700D03*
D20*
X-4928Y66853D03*
X5588Y66853D03*
X17628Y66853D03*
D108*
X-14376Y66853D03*
D69*
X-1346Y66853D03*
D107*
X11608Y66853D03*
D20*
X-20320Y67005D03*
X-4928Y67005D03*
X5588Y67005D03*
D107*
X-14300Y67005D03*
D69*
X-1346Y67005D03*
D107*
X11608Y67005D03*
D20*
X-4928Y67158D03*
X5588Y67158D03*
X17475Y67158D03*
D107*
X-14300Y67158D03*
D69*
X-1346Y67158D03*
D106*
X11532Y67158D03*
D20*
X-20168Y67310D03*
X-4928Y67310D03*
X5588Y67310D03*
D106*
X-14224Y67310D03*
D69*
X-1346Y67310D03*
D106*
X11532Y67310D03*
D20*
X-4928Y67462D03*
X5588Y67462D03*
D106*
X-14224Y67462D03*
D69*
X-1346Y67462D03*
D105*
X11455Y67462D03*
D20*
X-4928Y67615D03*
X5588Y67615D03*
X17170Y67615D03*
D105*
X-14148Y67615D03*
D69*
X-1346Y67615D03*
D104*
X11379Y67615D03*
D20*
X-19863Y67767D03*
X-4928Y67767D03*
X5588Y67767D03*
D104*
X-14072Y67767D03*
D69*
X-1346Y67767D03*
D104*
X11379Y67767D03*
D20*
X-4928Y67920D03*
X5588Y67920D03*
X17018Y67920D03*
D104*
X-14072Y67920D03*
D69*
X-1346Y67920D03*
D103*
X11303Y67920D03*
D20*
X-19710Y68072D03*
X-4928Y68072D03*
X5588Y68072D03*
D103*
X-13995Y68072D03*
D69*
X-1346Y68072D03*
D103*
X11303Y68072D03*
D20*
X-4928Y68224D03*
X5588Y68224D03*
X16866Y68224D03*
D103*
X-13995Y68224D03*
D69*
X-1346Y68224D03*
D102*
X11227Y68224D03*
D20*
X-19558Y68377D03*
X-4928Y68377D03*
X5588Y68377D03*
D102*
X-13919Y68377D03*
D69*
X-1346Y68377D03*
D102*
X11227Y68377D03*
D20*
X-4928Y68529D03*
X5588Y68529D03*
D102*
X-13919Y68529D03*
D69*
X-1346Y68529D03*
D101*
X11151Y68529D03*
D20*
X-4928Y68682D03*
X5588Y68682D03*
X16561Y68682D03*
D101*
X-13843Y68682D03*
D69*
X-1346Y68682D03*
D100*
X11074Y68682D03*
D20*
X-19253Y68834D03*
X-4928Y68834D03*
X5588Y68834D03*
D100*
X-13767Y68834D03*
D69*
X-1346Y68834D03*
D100*
X11074Y68834D03*
D20*
X-4928Y68986D03*
X5588Y68986D03*
X16408Y68986D03*
D100*
X-13767Y68986D03*
D69*
X-1346Y68986D03*
D99*
X10998Y68986D03*
D20*
X-4928Y69139D03*
X5588Y69139D03*
D99*
X-13691Y69139D03*
D69*
X-1346Y69139D03*
D99*
X10998Y69139D03*
D20*
X-18948Y69291D03*
X-4928Y69291D03*
X5588Y69291D03*
X16256Y69291D03*
D98*
X-13614Y69291D03*
D69*
X-1346Y69291D03*
D98*
X10922Y69291D03*
D20*
X-4928Y69444D03*
X5588Y69444D03*
X16104Y69444D03*
D98*
X-13614Y69444D03*
D69*
X-1346Y69444D03*
D97*
X10846Y69444D03*
D20*
X-18796Y69596D03*
X-4928Y69596D03*
X5588Y69596D03*
D97*
X-13538Y69596D03*
D69*
X-1346Y69596D03*
D97*
X10846Y69596D03*
D20*
X-4928Y69748D03*
X5588Y69748D03*
X15951Y69748D03*
D97*
X-13538Y69748D03*
D69*
X-1346Y69748D03*
D96*
X10770Y69748D03*
D20*
X-18644Y69901D03*
X-8280Y69901D03*
X-4928Y69901D03*
X5588Y69901D03*
D96*
X-13462Y69901D03*
D69*
X-1346Y69901D03*
D96*
X10770Y69901D03*
D20*
X-18491Y70053D03*
X-8280Y70053D03*
X-4928Y70053D03*
X5588Y70053D03*
X15799Y70053D03*
D95*
X-13386Y70053D03*
D69*
X-1346Y70053D03*
D95*
X10693Y70053D03*
D20*
X-8280Y70206D03*
X-4928Y70206D03*
X5588Y70206D03*
D95*
X-13386Y70206D03*
D69*
X-1346Y70206D03*
D95*
X10693Y70206D03*
D20*
X-18339Y70358D03*
X-8280Y70358D03*
X-4928Y70358D03*
X5588Y70358D03*
X15646Y70358D03*
D94*
X-13310Y70358D03*
D69*
X-1346Y70358D03*
D94*
X10617Y70358D03*
D20*
X-8280Y70510D03*
X-4928Y70510D03*
X5588Y70510D03*
X15494Y70510D03*
D94*
X-13310Y70510D03*
D69*
X-1346Y70510D03*
D93*
X10541Y70510D03*
D20*
X-18186Y70663D03*
X-8280Y70663D03*
X-4928Y70663D03*
X5588Y70663D03*
D93*
X-13233Y70663D03*
D69*
X-1346Y70663D03*
D93*
X10541Y70663D03*
D20*
X-8280Y70815D03*
X-4928Y70815D03*
X5588Y70815D03*
X15342Y70815D03*
D93*
X-13233Y70815D03*
D69*
X-1346Y70815D03*
D92*
X10465Y70815D03*
D20*
X-18034Y70968D03*
X-8280Y70968D03*
X-4928Y70968D03*
X5588Y70968D03*
D92*
X-13157Y70968D03*
D69*
X-1346Y70968D03*
D92*
X10465Y70968D03*
D20*
X-17882Y71120D03*
X-8280Y71120D03*
X-4928Y71120D03*
X5588Y71120D03*
X15189Y71120D03*
D91*
X-13081Y71120D03*
D69*
X-1346Y71120D03*
D91*
X10389Y71120D03*
D20*
X-8280Y71272D03*
X-4928Y71272D03*
X5588Y71272D03*
D91*
X-13081Y71272D03*
D69*
X-1346Y71272D03*
D91*
X10389Y71272D03*
D20*
X-17729Y71425D03*
X-8280Y71425D03*
X-4928Y71425D03*
X5588Y71425D03*
D90*
X-13005Y71425D03*
D69*
X-1346Y71425D03*
D90*
X10312Y71425D03*
D20*
X-8280Y71577D03*
X-4928Y71577D03*
X5588Y71577D03*
X14884Y71577D03*
D90*
X-13005Y71577D03*
D69*
X-1346Y71577D03*
D89*
X10236Y71577D03*
D20*
X-17577Y71730D03*
X-8280Y71730D03*
X-4928Y71730D03*
X5588Y71730D03*
D89*
X-12929Y71730D03*
D69*
X-1346Y71730D03*
D89*
X10236Y71730D03*
D20*
X-8280Y71882D03*
X-4928Y71882D03*
X5588Y71882D03*
X14732Y71882D03*
D89*
X-12929Y71882D03*
D69*
X-1346Y71882D03*
D88*
X10160Y71882D03*
D20*
X-17424Y72034D03*
X-8280Y72034D03*
X-4928Y72034D03*
X5588Y72034D03*
D88*
X-12852Y72034D03*
D69*
X-1346Y72034D03*
D88*
X10160Y72034D03*
D20*
X-17272Y72187D03*
X-8280Y72187D03*
X-4928Y72187D03*
X5588Y72187D03*
X14580Y72187D03*
D87*
X-12776Y72187D03*
D69*
X-1346Y72187D03*
D87*
X10084Y72187D03*
D20*
X-8280Y72339D03*
X-4928Y72339D03*
X5588Y72339D03*
X14427Y72339D03*
D87*
X-12776Y72339D03*
D69*
X-1346Y72339D03*
D86*
X10008Y72339D03*
D20*
X-17120Y72492D03*
X-8280Y72492D03*
X-4928Y72492D03*
X5588Y72492D03*
D86*
X-12700Y72492D03*
D69*
X-1346Y72492D03*
D86*
X10008Y72492D03*
D20*
X-8280Y72644D03*
X-4928Y72644D03*
X5588Y72644D03*
X14275Y72644D03*
D86*
X-12700Y72644D03*
D69*
X-1346Y72644D03*
D81*
X9931Y72644D03*
D20*
X-16967Y72796D03*
X-8280Y72796D03*
X-4928Y72796D03*
X5588Y72796D03*
D81*
X-12624Y72796D03*
D69*
X-1346Y72796D03*
D81*
X9931Y72796D03*
D20*
X-8280Y72949D03*
X-4928Y72949D03*
X5588Y72949D03*
X14122Y72949D03*
D81*
X-12624Y72949D03*
D69*
X-1346Y72949D03*
D82*
X9855Y72949D03*
D20*
X-8280Y73101D03*
X-4928Y73101D03*
X5588Y73101D03*
D82*
X-12548Y73101D03*
D69*
X-1346Y73101D03*
D82*
X9855Y73101D03*
D20*
X-16662Y73254D03*
X-8280Y73254D03*
X-4928Y73254D03*
X5588Y73254D03*
X13970Y73254D03*
D85*
X-12471Y73254D03*
D69*
X-1346Y73254D03*
D85*
X9779Y73254D03*
D20*
X-8280Y73406D03*
X5588Y73406D03*
X13818Y73406D03*
D85*
X-12471Y73406D03*
D70*
X-1422Y73406D03*
D78*
X9703Y73406D03*
D20*
X-16510Y73558D03*
X5588Y73558D03*
D85*
X-12319Y73558D03*
D70*
X-1422Y73558D03*
D78*
X9703Y73558D03*
D20*
X-8128Y73711D03*
X-5080Y73711D03*
X5588Y73711D03*
X13665Y73711D03*
D85*
X-12319Y73711D03*
D70*
X-1422Y73711D03*
D83*
X9627Y73711D03*
D20*
X-16358Y73863D03*
X5588Y73863D03*
D85*
X-12167Y73863D03*
D71*
X-1499Y73863D03*
D83*
X9627Y73863D03*
D20*
X-16205Y74016D03*
X-7976Y74016D03*
X5588Y74016D03*
X13513Y74016D03*
D78*
X-12090Y74016D03*
D74*
X-1575Y74016D03*
D80*
X9550Y74016D03*
D20*
X-7823Y74168D03*
X-5385Y74168D03*
X5588Y74168D03*
D84*
X-12014Y74168D03*
D74*
X-1575Y74168D03*
D80*
X9550Y74168D03*
D20*
X-16053Y74320D03*
X-7671Y74320D03*
X-5537Y74320D03*
X5588Y74320D03*
X13360Y74320D03*
D85*
X-11862Y74320D03*
D77*
X-1651Y74320D03*
X9474Y74320D03*
D20*
X-7366Y74473D03*
X-5842Y74473D03*
X5588Y74473D03*
X13208Y74473D03*
D81*
X-11709Y74473D03*
D83*
X-1803Y74473D03*
D74*
X9398Y74473D03*
D20*
X-15900Y74625D03*
D120*
X-6909Y74625D03*
X-6299Y74625D03*
D20*
X5588Y74625D03*
D79*
X-11481Y74625D03*
D85*
X-1956Y74625D03*
D74*
X9398Y74625D03*
D20*
X5588Y74778D03*
X13056Y74778D03*
D75*
X-6833Y74778D03*
D71*
X9322Y74778D03*
D20*
X-15748Y74930D03*
X5588Y74930D03*
D73*
X-6756Y74930D03*
D71*
X9322Y74930D03*
D20*
X-15596Y75082D03*
X5588Y75082D03*
X12903Y75082D03*
D72*
X-6680Y75082D03*
D70*
X9246Y75082D03*
D20*
X5588Y75235D03*
D72*
X-6680Y75235D03*
D70*
X9246Y75235D03*
D20*
X-15443Y75387D03*
X5588Y75387D03*
D68*
X-6604Y75387D03*
D69*
X9169Y75387D03*
D20*
X5588Y75540D03*
X12598Y75540D03*
D68*
X-6604Y75540D03*
D67*
X9093Y75540D03*
D20*
X-15291Y75692D03*
X5588Y75692D03*
D66*
X-6528Y75692D03*
D67*
X9093Y75692D03*
D20*
X5588Y75844D03*
X12446Y75844D03*
D66*
X-6528Y75844D03*
D65*
X9017Y75844D03*
D20*
X-15138Y75997D03*
X5588Y75997D03*
D64*
X-6452Y75997D03*
D65*
X9017Y75997D03*
D20*
X-14986Y76149D03*
X5588Y76149D03*
X12294Y76149D03*
D62*
X-6375Y76149D03*
D63*
X8941Y76149D03*
D20*
X5588Y76302D03*
X12141Y76302D03*
D62*
X-6375Y76302D03*
D61*
X8865Y76302D03*
D20*
X-14834Y76454D03*
X5588Y76454D03*
D60*
X-6299Y76454D03*
D61*
X8865Y76454D03*
D20*
X5588Y76606D03*
X11989Y76606D03*
D60*
X-6299Y76606D03*
D59*
X8788Y76606D03*
D20*
X-14681Y76759D03*
X5588Y76759D03*
D58*
X-6223Y76759D03*
D59*
X8788Y76759D03*
D20*
X-14529Y76911D03*
X5588Y76911D03*
X11836Y76911D03*
D56*
X-6147Y76911D03*
D57*
X8712Y76911D03*
D20*
X5588Y77064D03*
D56*
X-6147Y77064D03*
D57*
X8712Y77064D03*
D20*
X-14376Y77216D03*
X5588Y77216D03*
X11684Y77216D03*
D54*
X-6071Y77216D03*
D55*
X8636Y77216D03*
D20*
X5588Y77368D03*
X11532Y77368D03*
D54*
X-6071Y77368D03*
D53*
X8560Y77368D03*
D20*
X-14224Y77521D03*
X5588Y77521D03*
D52*
X-5994Y77521D03*
D53*
X8560Y77521D03*
D20*
X5588Y77673D03*
X11379Y77673D03*
D52*
X-5994Y77673D03*
D51*
X8484Y77673D03*
D20*
X-14072Y77826D03*
X5588Y77826D03*
D50*
X-5918Y77826D03*
D51*
X8484Y77826D03*
D20*
X-13919Y77978D03*
X5588Y77978D03*
X11227Y77978D03*
D48*
X-5842Y77978D03*
D49*
X8407Y77978D03*
D20*
X5588Y78130D03*
D48*
X-5842Y78130D03*
D49*
X8407Y78130D03*
D20*
X-13767Y78283D03*
X5588Y78283D03*
X11074Y78283D03*
D46*
X-5766Y78283D03*
D47*
X8331Y78283D03*
D20*
X5588Y78435D03*
X10922Y78435D03*
D46*
X-5766Y78435D03*
D45*
X8255Y78435D03*
D20*
X-13614Y78588D03*
X5588Y78588D03*
D44*
X-5690Y78588D03*
D45*
X8255Y78588D03*
D20*
X5588Y78740D03*
X10770Y78740D03*
D44*
X-5690Y78740D03*
D43*
X8179Y78740D03*
D20*
X-13462Y78892D03*
X5588Y78892D03*
D42*
X-5613Y78892D03*
D43*
X8179Y78892D03*
D20*
X-13310Y79045D03*
X5588Y79045D03*
X10617Y79045D03*
D40*
X-5537Y79045D03*
D41*
X8103Y79045D03*
D20*
X5588Y79197D03*
X10465Y79197D03*
D40*
X-5537Y79197D03*
D39*
X8026Y79197D03*
D20*
X-13157Y79350D03*
X5588Y79350D03*
D38*
X-5461Y79350D03*
D39*
X8026Y79350D03*
D20*
X5588Y79502D03*
X10312Y79502D03*
D38*
X-5461Y79502D03*
D37*
X7950Y79502D03*
D76*
X-12776Y79654D03*
D20*
X-13005Y79654D03*
X5588Y79654D03*
D32*
X-5232Y79654D03*
D37*
X7950Y79654D03*
D121*
X-12471Y79807D03*
D20*
X5588Y79807D03*
X10160Y79807D03*
X-12852Y79807D03*
D122*
X-5004Y79807D03*
D35*
X7874Y79807D03*
D123*
X-12243Y79959D03*
D20*
X-12852Y79959D03*
X5588Y79959D03*
D119*
X-4775Y79959D03*
D35*
X7874Y79959D03*
D124*
X-12014Y80112D03*
D20*
X-12700Y80112D03*
X5588Y80112D03*
X10008Y80112D03*
D22*
X-4623Y80112D03*
D33*
X7798Y80112D03*
D125*
X-11709Y80264D03*
D20*
X5588Y80264D03*
X9855Y80264D03*
X-12548Y80264D03*
D19*
X-4394Y80264D03*
D31*
X7722Y80264D03*
D126*
X-11557Y80416D03*
D127*
X5817Y80416D03*
D20*
X-12548Y80416D03*
X5588Y80416D03*
D113*
X-4242Y80416D03*
D27*
X7874Y80416D03*
D128*
X-11252Y80569D03*
D129*
X6045Y80569D03*
D20*
X-12395Y80569D03*
X5588Y80569D03*
D110*
X-4013Y80569D03*
D130*
X8026Y80569D03*
D131*
X-10947Y80721D03*
D132*
X6198Y80721D03*
D20*
X-12243Y80721D03*
X5588Y80721D03*
D107*
X-3785Y80721D03*
D133*
X8103Y80721D03*
D134*
X-10719Y80874D03*
D125*
X6426Y80874D03*
D20*
X-12090Y80874D03*
X5588Y80874D03*
X9246Y80874D03*
D105*
X-3632Y80874D03*
D135*
X8179Y80874D03*
D133*
X-10338Y81026D03*
D126*
X6579Y81026D03*
D20*
X-11786Y81026D03*
X5588Y81026D03*
X9093Y81026D03*
D102*
X-3404Y81026D03*
D125*
X8255Y81026D03*
D133*
X-10033Y81178D03*
D136*
X6807Y81178D03*
D20*
X-11481Y81178D03*
X5588Y81178D03*
X8788Y81178D03*
D100*
X-3251Y81178D03*
D129*
X8331Y81178D03*
D131*
X-9423Y81331D03*
D136*
X6807Y81331D03*
D120*
X-11024Y81331D03*
D20*
X5588Y81331D03*
D127*
X8255Y81331D03*
D20*
X-10719Y81331D03*
D97*
X-3023Y81331D03*
D20*
X8026Y81331D03*
M02*
