G04 EAGLE Gerber RS-274X export*
G75*
%MOMM*%
%FSLAX34Y34*%
%LPD*%
%INSilkscreen Bottom*%
%IPPOS*%
%AMOC8*
5,1,8,0,0,1.08239X$1,22.5*%
G01*
%ADD10C,0.101600*%
%ADD11C,0.152400*%
%ADD12C,0.076200*%
%ADD13C,0.254000*%
%ADD14C,0.050800*%
%ADD15C,0.304800*%
%ADD16C,0.150000*%

G36*
X-8056Y186057D02*
X-8056Y186057D01*
X-8054Y186056D01*
X-8011Y186076D01*
X-7967Y186094D01*
X-7967Y186096D01*
X-7965Y186097D01*
X-7932Y186182D01*
X-7932Y188722D01*
X-7933Y188724D01*
X-7932Y188726D01*
X-7952Y188769D01*
X-7970Y188813D01*
X-7972Y188813D01*
X-7973Y188815D01*
X-8058Y188848D01*
X-11868Y188848D01*
X-11870Y188847D01*
X-11872Y188848D01*
X-11915Y188828D01*
X-11959Y188810D01*
X-11959Y188808D01*
X-11961Y188807D01*
X-11994Y188722D01*
X-11994Y186182D01*
X-11993Y186180D01*
X-11994Y186178D01*
X-11974Y186135D01*
X-11956Y186091D01*
X-11954Y186091D01*
X-11953Y186089D01*
X-11868Y186056D01*
X-8058Y186056D01*
X-8056Y186057D01*
G37*
G36*
X-37590Y141519D02*
X-37590Y141519D01*
X-37588Y141518D01*
X-37545Y141538D01*
X-37501Y141556D01*
X-37501Y141558D01*
X-37499Y141559D01*
X-37466Y141644D01*
X-37466Y145454D01*
X-37467Y145456D01*
X-37466Y145458D01*
X-37486Y145501D01*
X-37504Y145545D01*
X-37506Y145545D01*
X-37507Y145547D01*
X-37592Y145580D01*
X-40132Y145580D01*
X-40134Y145579D01*
X-40136Y145580D01*
X-40179Y145560D01*
X-40223Y145542D01*
X-40223Y145540D01*
X-40225Y145539D01*
X-40258Y145454D01*
X-40258Y141644D01*
X-40257Y141642D01*
X-40258Y141640D01*
X-40238Y141597D01*
X-40220Y141553D01*
X-40218Y141553D01*
X-40217Y141551D01*
X-40132Y141518D01*
X-37592Y141518D01*
X-37590Y141519D01*
G37*
G36*
X45214Y126516D02*
X45214Y126516D01*
X45216Y126515D01*
X45259Y126535D01*
X45303Y126553D01*
X45303Y126555D01*
X45305Y126556D01*
X45338Y126641D01*
X45338Y130451D01*
X45337Y130453D01*
X45338Y130455D01*
X45318Y130498D01*
X45300Y130542D01*
X45298Y130542D01*
X45297Y130544D01*
X45212Y130577D01*
X42672Y130577D01*
X42670Y130576D01*
X42668Y130577D01*
X42625Y130557D01*
X42581Y130539D01*
X42581Y130537D01*
X42579Y130536D01*
X42546Y130451D01*
X42546Y126641D01*
X42547Y126639D01*
X42546Y126637D01*
X42566Y126594D01*
X42584Y126550D01*
X42586Y126550D01*
X42587Y126548D01*
X42672Y126515D01*
X45212Y126515D01*
X45214Y126516D01*
G37*
G36*
X-3055Y103253D02*
X-3055Y103253D01*
X-3053Y103252D01*
X-3010Y103272D01*
X-2966Y103290D01*
X-2966Y103292D01*
X-2964Y103293D01*
X-2931Y103378D01*
X-2931Y105918D01*
X-2932Y105920D01*
X-2931Y105922D01*
X-2951Y105965D01*
X-2969Y106009D01*
X-2971Y106009D01*
X-2972Y106011D01*
X-3057Y106044D01*
X-6867Y106044D01*
X-6869Y106043D01*
X-6871Y106044D01*
X-6914Y106024D01*
X-6958Y106006D01*
X-6958Y106004D01*
X-6960Y106003D01*
X-6993Y105918D01*
X-6993Y103378D01*
X-6992Y103376D01*
X-6993Y103374D01*
X-6973Y103331D01*
X-6955Y103287D01*
X-6953Y103287D01*
X-6952Y103285D01*
X-6867Y103252D01*
X-3057Y103252D01*
X-3055Y103253D01*
G37*
D10*
X82656Y270603D02*
X81061Y271720D01*
X77338Y266403D01*
X80528Y264169D01*
X80611Y264114D01*
X80695Y264062D01*
X80782Y264013D01*
X80870Y263967D01*
X80960Y263925D01*
X81052Y263886D01*
X81145Y263851D01*
X81239Y263819D01*
X81334Y263791D01*
X81431Y263767D01*
X81528Y263746D01*
X81626Y263730D01*
X81725Y263716D01*
X81824Y263707D01*
X81923Y263702D01*
X82023Y263700D01*
X82122Y263702D01*
X82221Y263708D01*
X82320Y263718D01*
X82419Y263731D01*
X82517Y263749D01*
X82614Y263770D01*
X82710Y263794D01*
X82806Y263823D01*
X82900Y263855D01*
X82993Y263890D01*
X83084Y263929D01*
X83174Y263972D01*
X83262Y264018D01*
X83348Y264067D01*
X83433Y264120D01*
X83515Y264176D01*
X83595Y264235D01*
X83673Y264297D01*
X83748Y264362D01*
X83821Y264429D01*
X83891Y264500D01*
X83959Y264573D01*
X84023Y264649D01*
X84085Y264727D01*
X84144Y264807D01*
X87867Y270124D01*
X87922Y270207D01*
X87974Y270291D01*
X88023Y270378D01*
X88069Y270466D01*
X88111Y270556D01*
X88150Y270648D01*
X88185Y270741D01*
X88217Y270835D01*
X88245Y270930D01*
X88269Y271027D01*
X88290Y271124D01*
X88306Y271222D01*
X88320Y271321D01*
X88329Y271420D01*
X88334Y271519D01*
X88336Y271619D01*
X88334Y271718D01*
X88328Y271817D01*
X88318Y271916D01*
X88305Y272015D01*
X88287Y272113D01*
X88266Y272210D01*
X88242Y272306D01*
X88213Y272402D01*
X88181Y272496D01*
X88146Y272589D01*
X88107Y272680D01*
X88064Y272770D01*
X88018Y272858D01*
X87969Y272944D01*
X87916Y273029D01*
X87860Y273111D01*
X87801Y273191D01*
X87739Y273269D01*
X87674Y273344D01*
X87607Y273417D01*
X87536Y273487D01*
X87463Y273555D01*
X87387Y273619D01*
X87309Y273681D01*
X87229Y273740D01*
X87230Y273740D02*
X84039Y275974D01*
X79370Y279244D02*
X72668Y269673D01*
X67351Y273396D02*
X79370Y279244D01*
X74052Y282967D02*
X67351Y273396D01*
X62681Y276666D02*
X69382Y286237D01*
X66724Y288098D01*
X66724Y288099D02*
X66630Y288162D01*
X66534Y288222D01*
X66436Y288279D01*
X66336Y288332D01*
X66234Y288382D01*
X66130Y288428D01*
X66025Y288470D01*
X65919Y288509D01*
X65811Y288544D01*
X65702Y288575D01*
X65592Y288603D01*
X65481Y288626D01*
X65370Y288646D01*
X65258Y288662D01*
X65145Y288674D01*
X65032Y288682D01*
X64919Y288686D01*
X64805Y288686D01*
X64692Y288682D01*
X64579Y288674D01*
X64466Y288662D01*
X64354Y288646D01*
X64243Y288626D01*
X64132Y288603D01*
X64022Y288575D01*
X63913Y288544D01*
X63805Y288509D01*
X63699Y288470D01*
X63594Y288428D01*
X63490Y288382D01*
X63388Y288332D01*
X63288Y288279D01*
X63190Y288222D01*
X63094Y288162D01*
X63000Y288099D01*
X62909Y288032D01*
X62819Y287963D01*
X62732Y287890D01*
X62648Y287814D01*
X62567Y287735D01*
X62488Y287654D01*
X62412Y287570D01*
X62339Y287483D01*
X62270Y287394D01*
X62203Y287302D01*
X62204Y287301D02*
X59225Y283048D01*
X59162Y282954D01*
X59102Y282858D01*
X59045Y282760D01*
X58992Y282660D01*
X58942Y282558D01*
X58896Y282454D01*
X58854Y282349D01*
X58815Y282243D01*
X58780Y282135D01*
X58749Y282026D01*
X58721Y281916D01*
X58698Y281805D01*
X58678Y281694D01*
X58662Y281582D01*
X58650Y281469D01*
X58642Y281356D01*
X58638Y281243D01*
X58638Y281129D01*
X58642Y281016D01*
X58650Y280903D01*
X58662Y280790D01*
X58678Y280678D01*
X58698Y280567D01*
X58721Y280456D01*
X58749Y280346D01*
X58780Y280237D01*
X58815Y280129D01*
X58854Y280023D01*
X58896Y279918D01*
X58942Y279814D01*
X58992Y279712D01*
X59045Y279612D01*
X59102Y279514D01*
X59162Y279418D01*
X59225Y279324D01*
X59292Y279232D01*
X59361Y279143D01*
X59434Y279056D01*
X59510Y278972D01*
X59589Y278891D01*
X59670Y278812D01*
X59754Y278736D01*
X59841Y278663D01*
X59931Y278594D01*
X60022Y278527D01*
X62681Y276666D01*
X146609Y141674D02*
X146609Y139726D01*
X146609Y141674D02*
X140118Y141674D01*
X140118Y137779D01*
X140120Y137680D01*
X140126Y137580D01*
X140135Y137481D01*
X140148Y137383D01*
X140165Y137285D01*
X140186Y137187D01*
X140211Y137091D01*
X140239Y136996D01*
X140271Y136902D01*
X140306Y136809D01*
X140345Y136717D01*
X140388Y136627D01*
X140433Y136539D01*
X140483Y136452D01*
X140535Y136368D01*
X140591Y136285D01*
X140649Y136205D01*
X140711Y136127D01*
X140776Y136052D01*
X140844Y135979D01*
X140914Y135909D01*
X140987Y135841D01*
X141062Y135776D01*
X141140Y135714D01*
X141220Y135656D01*
X141303Y135600D01*
X141387Y135548D01*
X141474Y135498D01*
X141562Y135453D01*
X141652Y135410D01*
X141744Y135371D01*
X141837Y135336D01*
X141931Y135304D01*
X142026Y135276D01*
X142122Y135251D01*
X142220Y135230D01*
X142318Y135213D01*
X142416Y135200D01*
X142515Y135191D01*
X142615Y135185D01*
X142714Y135183D01*
X149206Y135183D01*
X149305Y135185D01*
X149405Y135191D01*
X149504Y135200D01*
X149602Y135213D01*
X149700Y135230D01*
X149798Y135251D01*
X149894Y135276D01*
X149989Y135304D01*
X150083Y135336D01*
X150176Y135371D01*
X150268Y135410D01*
X150358Y135453D01*
X150446Y135498D01*
X150533Y135548D01*
X150617Y135600D01*
X150700Y135656D01*
X150780Y135714D01*
X150858Y135776D01*
X150933Y135841D01*
X151006Y135909D01*
X151076Y135979D01*
X151144Y136052D01*
X151209Y136127D01*
X151271Y136205D01*
X151329Y136285D01*
X151385Y136368D01*
X151437Y136452D01*
X151487Y136539D01*
X151532Y136627D01*
X151575Y136717D01*
X151614Y136809D01*
X151649Y136901D01*
X151681Y136996D01*
X151709Y137091D01*
X151734Y137187D01*
X151755Y137285D01*
X151772Y137383D01*
X151785Y137481D01*
X151794Y137580D01*
X151800Y137680D01*
X151802Y137779D01*
X151802Y141674D01*
X151802Y147374D02*
X140118Y147374D01*
X140118Y153866D02*
X151802Y147374D01*
X151802Y153866D02*
X140118Y153866D01*
X140118Y159566D02*
X151802Y159566D01*
X151802Y162812D01*
X151800Y162925D01*
X151794Y163038D01*
X151784Y163151D01*
X151770Y163264D01*
X151753Y163376D01*
X151731Y163487D01*
X151706Y163597D01*
X151676Y163707D01*
X151643Y163815D01*
X151606Y163922D01*
X151566Y164028D01*
X151521Y164132D01*
X151473Y164235D01*
X151422Y164336D01*
X151367Y164435D01*
X151309Y164532D01*
X151247Y164627D01*
X151182Y164720D01*
X151114Y164810D01*
X151043Y164898D01*
X150968Y164984D01*
X150891Y165067D01*
X150811Y165147D01*
X150728Y165224D01*
X150642Y165299D01*
X150554Y165370D01*
X150464Y165438D01*
X150371Y165503D01*
X150276Y165565D01*
X150179Y165623D01*
X150080Y165678D01*
X149979Y165729D01*
X149876Y165777D01*
X149772Y165822D01*
X149666Y165862D01*
X149559Y165899D01*
X149451Y165932D01*
X149341Y165962D01*
X149231Y165987D01*
X149120Y166009D01*
X149008Y166026D01*
X148895Y166040D01*
X148782Y166050D01*
X148669Y166056D01*
X148556Y166058D01*
X143364Y166058D01*
X143251Y166056D01*
X143138Y166050D01*
X143025Y166040D01*
X142912Y166026D01*
X142800Y166009D01*
X142689Y165987D01*
X142579Y165962D01*
X142469Y165932D01*
X142361Y165899D01*
X142254Y165862D01*
X142148Y165822D01*
X142044Y165777D01*
X141941Y165729D01*
X141840Y165678D01*
X141741Y165623D01*
X141644Y165565D01*
X141549Y165503D01*
X141456Y165438D01*
X141366Y165370D01*
X141278Y165299D01*
X141192Y165224D01*
X141109Y165147D01*
X141029Y165067D01*
X140952Y164984D01*
X140877Y164898D01*
X140806Y164810D01*
X140738Y164720D01*
X140673Y164627D01*
X140611Y164532D01*
X140553Y164435D01*
X140498Y164336D01*
X140447Y164235D01*
X140399Y164132D01*
X140354Y164028D01*
X140314Y163922D01*
X140277Y163815D01*
X140244Y163707D01*
X140214Y163597D01*
X140189Y163487D01*
X140167Y163376D01*
X140150Y163264D01*
X140136Y163151D01*
X140126Y163038D01*
X140120Y162925D01*
X140118Y162812D01*
X140118Y159566D01*
X81911Y31700D02*
X80316Y30583D01*
X84039Y25266D01*
X87230Y27500D01*
X87229Y27500D02*
X87309Y27559D01*
X87387Y27621D01*
X87463Y27685D01*
X87536Y27753D01*
X87607Y27823D01*
X87674Y27896D01*
X87739Y27971D01*
X87801Y28049D01*
X87860Y28129D01*
X87916Y28211D01*
X87969Y28296D01*
X88018Y28382D01*
X88064Y28470D01*
X88107Y28560D01*
X88146Y28651D01*
X88181Y28744D01*
X88213Y28838D01*
X88242Y28934D01*
X88266Y29030D01*
X88287Y29127D01*
X88305Y29225D01*
X88318Y29324D01*
X88328Y29423D01*
X88334Y29522D01*
X88336Y29621D01*
X88334Y29721D01*
X88329Y29820D01*
X88319Y29919D01*
X88306Y30018D01*
X88290Y30116D01*
X88269Y30213D01*
X88245Y30310D01*
X88217Y30405D01*
X88185Y30499D01*
X88150Y30592D01*
X88111Y30684D01*
X88069Y30774D01*
X88023Y30862D01*
X87974Y30949D01*
X87922Y31033D01*
X87867Y31116D01*
X84144Y36433D01*
X84085Y36513D01*
X84023Y36591D01*
X83959Y36667D01*
X83891Y36740D01*
X83821Y36811D01*
X83748Y36878D01*
X83673Y36943D01*
X83595Y37005D01*
X83515Y37064D01*
X83433Y37120D01*
X83348Y37173D01*
X83262Y37222D01*
X83174Y37268D01*
X83084Y37311D01*
X82993Y37350D01*
X82900Y37385D01*
X82806Y37417D01*
X82710Y37446D01*
X82614Y37470D01*
X82517Y37491D01*
X82419Y37509D01*
X82320Y37522D01*
X82221Y37532D01*
X82122Y37538D01*
X82023Y37540D01*
X81923Y37538D01*
X81824Y37533D01*
X81725Y37524D01*
X81626Y37510D01*
X81528Y37494D01*
X81431Y37473D01*
X81334Y37449D01*
X81239Y37421D01*
X81145Y37389D01*
X81052Y37354D01*
X80960Y37315D01*
X80870Y37273D01*
X80782Y37227D01*
X80695Y37178D01*
X80611Y37126D01*
X80528Y37071D01*
X77338Y34837D01*
X72668Y31567D02*
X79369Y21996D01*
X74052Y18273D02*
X72668Y31567D01*
X67351Y27844D02*
X74052Y18273D01*
X69382Y15003D02*
X62681Y24574D01*
X60022Y22712D01*
X60022Y22713D02*
X59931Y22646D01*
X59841Y22577D01*
X59754Y22504D01*
X59670Y22428D01*
X59589Y22349D01*
X59510Y22268D01*
X59434Y22184D01*
X59361Y22097D01*
X59292Y22008D01*
X59225Y21916D01*
X59162Y21822D01*
X59102Y21726D01*
X59045Y21628D01*
X58992Y21528D01*
X58942Y21426D01*
X58896Y21322D01*
X58854Y21217D01*
X58815Y21111D01*
X58780Y21003D01*
X58749Y20894D01*
X58721Y20784D01*
X58698Y20673D01*
X58678Y20562D01*
X58662Y20450D01*
X58650Y20337D01*
X58642Y20224D01*
X58638Y20111D01*
X58638Y19997D01*
X58642Y19884D01*
X58650Y19771D01*
X58662Y19658D01*
X58678Y19546D01*
X58698Y19435D01*
X58721Y19324D01*
X58749Y19214D01*
X58780Y19105D01*
X58815Y18997D01*
X58854Y18891D01*
X58896Y18786D01*
X58942Y18682D01*
X58992Y18580D01*
X59045Y18480D01*
X59102Y18382D01*
X59162Y18286D01*
X59225Y18192D01*
X62204Y13938D01*
X62203Y13938D02*
X62270Y13847D01*
X62339Y13757D01*
X62412Y13670D01*
X62488Y13586D01*
X62567Y13505D01*
X62648Y13426D01*
X62732Y13350D01*
X62819Y13277D01*
X62909Y13208D01*
X63000Y13141D01*
X63094Y13078D01*
X63190Y13018D01*
X63288Y12961D01*
X63388Y12908D01*
X63490Y12858D01*
X63594Y12812D01*
X63699Y12770D01*
X63805Y12731D01*
X63913Y12696D01*
X64022Y12665D01*
X64132Y12637D01*
X64243Y12614D01*
X64354Y12594D01*
X64466Y12578D01*
X64579Y12566D01*
X64692Y12558D01*
X64805Y12554D01*
X64919Y12554D01*
X65032Y12558D01*
X65145Y12566D01*
X65258Y12578D01*
X65370Y12594D01*
X65481Y12614D01*
X65592Y12637D01*
X65702Y12665D01*
X65811Y12696D01*
X65919Y12731D01*
X66025Y12770D01*
X66130Y12812D01*
X66234Y12858D01*
X66336Y12908D01*
X66436Y12961D01*
X66534Y13018D01*
X66630Y13078D01*
X66724Y13141D01*
X69382Y15003D01*
X-62544Y19203D02*
X-64139Y20320D01*
X-67862Y15003D01*
X-64672Y12769D01*
X-64589Y12714D01*
X-64505Y12662D01*
X-64418Y12613D01*
X-64330Y12567D01*
X-64240Y12525D01*
X-64148Y12486D01*
X-64055Y12451D01*
X-63961Y12419D01*
X-63866Y12391D01*
X-63769Y12367D01*
X-63672Y12346D01*
X-63574Y12330D01*
X-63475Y12317D01*
X-63376Y12307D01*
X-63277Y12302D01*
X-63177Y12300D01*
X-63078Y12302D01*
X-62979Y12308D01*
X-62880Y12318D01*
X-62781Y12331D01*
X-62683Y12349D01*
X-62586Y12370D01*
X-62490Y12394D01*
X-62394Y12423D01*
X-62300Y12455D01*
X-62207Y12490D01*
X-62116Y12529D01*
X-62026Y12572D01*
X-61938Y12618D01*
X-61852Y12667D01*
X-61767Y12720D01*
X-61685Y12776D01*
X-61605Y12835D01*
X-61527Y12897D01*
X-61452Y12962D01*
X-61379Y13029D01*
X-61309Y13100D01*
X-61241Y13173D01*
X-61177Y13249D01*
X-61115Y13327D01*
X-61056Y13407D01*
X-57333Y18724D01*
X-57278Y18807D01*
X-57226Y18891D01*
X-57177Y18978D01*
X-57131Y19066D01*
X-57089Y19156D01*
X-57050Y19248D01*
X-57015Y19341D01*
X-56983Y19435D01*
X-56955Y19530D01*
X-56931Y19627D01*
X-56910Y19724D01*
X-56894Y19822D01*
X-56881Y19921D01*
X-56871Y20020D01*
X-56866Y20119D01*
X-56864Y20219D01*
X-56866Y20318D01*
X-56872Y20417D01*
X-56882Y20516D01*
X-56895Y20615D01*
X-56913Y20713D01*
X-56934Y20810D01*
X-56958Y20906D01*
X-56987Y21002D01*
X-57019Y21096D01*
X-57054Y21189D01*
X-57093Y21280D01*
X-57136Y21370D01*
X-57182Y21458D01*
X-57231Y21544D01*
X-57284Y21629D01*
X-57340Y21711D01*
X-57399Y21791D01*
X-57461Y21869D01*
X-57526Y21944D01*
X-57593Y22017D01*
X-57664Y22087D01*
X-57737Y22155D01*
X-57813Y22219D01*
X-57891Y22281D01*
X-57971Y22340D01*
X-57970Y22340D02*
X-61161Y24574D01*
X-65831Y27844D02*
X-72532Y18273D01*
X-77850Y21996D02*
X-65831Y27844D01*
X-71148Y31567D02*
X-77850Y21996D01*
X-82519Y25266D02*
X-75818Y34837D01*
X-78476Y36698D01*
X-78476Y36699D02*
X-78570Y36762D01*
X-78666Y36822D01*
X-78764Y36879D01*
X-78864Y36932D01*
X-78966Y36982D01*
X-79070Y37028D01*
X-79175Y37070D01*
X-79281Y37109D01*
X-79389Y37144D01*
X-79498Y37175D01*
X-79608Y37203D01*
X-79719Y37226D01*
X-79830Y37246D01*
X-79942Y37262D01*
X-80055Y37274D01*
X-80168Y37282D01*
X-80281Y37286D01*
X-80395Y37286D01*
X-80508Y37282D01*
X-80621Y37274D01*
X-80734Y37262D01*
X-80846Y37246D01*
X-80957Y37226D01*
X-81068Y37203D01*
X-81178Y37175D01*
X-81287Y37144D01*
X-81395Y37109D01*
X-81501Y37070D01*
X-81606Y37028D01*
X-81710Y36982D01*
X-81812Y36932D01*
X-81912Y36879D01*
X-82010Y36822D01*
X-82106Y36762D01*
X-82200Y36699D01*
X-82291Y36632D01*
X-82381Y36563D01*
X-82468Y36490D01*
X-82552Y36414D01*
X-82633Y36335D01*
X-82712Y36254D01*
X-82788Y36170D01*
X-82861Y36083D01*
X-82930Y35994D01*
X-82997Y35902D01*
X-82997Y35901D02*
X-85975Y31648D01*
X-85976Y31648D02*
X-86039Y31554D01*
X-86099Y31458D01*
X-86156Y31360D01*
X-86209Y31260D01*
X-86259Y31158D01*
X-86305Y31054D01*
X-86347Y30949D01*
X-86386Y30843D01*
X-86421Y30735D01*
X-86452Y30626D01*
X-86480Y30516D01*
X-86503Y30405D01*
X-86523Y30294D01*
X-86539Y30182D01*
X-86551Y30069D01*
X-86559Y29956D01*
X-86563Y29843D01*
X-86563Y29729D01*
X-86559Y29616D01*
X-86551Y29503D01*
X-86539Y29390D01*
X-86523Y29278D01*
X-86503Y29167D01*
X-86480Y29056D01*
X-86452Y28946D01*
X-86421Y28837D01*
X-86386Y28729D01*
X-86347Y28623D01*
X-86305Y28518D01*
X-86259Y28414D01*
X-86209Y28312D01*
X-86156Y28212D01*
X-86099Y28114D01*
X-86039Y28018D01*
X-85976Y27924D01*
X-85909Y27832D01*
X-85840Y27743D01*
X-85767Y27656D01*
X-85691Y27572D01*
X-85612Y27491D01*
X-85531Y27412D01*
X-85447Y27336D01*
X-85360Y27263D01*
X-85270Y27194D01*
X-85179Y27127D01*
X-85178Y27127D02*
X-82519Y25266D01*
X-143791Y139726D02*
X-143791Y141674D01*
X-150282Y141674D01*
X-150282Y137779D01*
X-150280Y137680D01*
X-150274Y137580D01*
X-150265Y137481D01*
X-150252Y137383D01*
X-150235Y137285D01*
X-150214Y137187D01*
X-150189Y137091D01*
X-150161Y136996D01*
X-150129Y136902D01*
X-150094Y136809D01*
X-150055Y136717D01*
X-150012Y136627D01*
X-149967Y136539D01*
X-149917Y136452D01*
X-149865Y136368D01*
X-149809Y136285D01*
X-149751Y136205D01*
X-149689Y136127D01*
X-149624Y136052D01*
X-149556Y135979D01*
X-149486Y135909D01*
X-149413Y135841D01*
X-149338Y135776D01*
X-149260Y135714D01*
X-149180Y135656D01*
X-149097Y135600D01*
X-149013Y135548D01*
X-148926Y135498D01*
X-148838Y135453D01*
X-148748Y135410D01*
X-148656Y135371D01*
X-148563Y135336D01*
X-148469Y135304D01*
X-148374Y135276D01*
X-148278Y135251D01*
X-148180Y135230D01*
X-148082Y135213D01*
X-147984Y135200D01*
X-147885Y135191D01*
X-147785Y135185D01*
X-147686Y135183D01*
X-141194Y135183D01*
X-141194Y135182D02*
X-141095Y135184D01*
X-140995Y135190D01*
X-140896Y135199D01*
X-140798Y135212D01*
X-140700Y135230D01*
X-140602Y135250D01*
X-140506Y135275D01*
X-140410Y135303D01*
X-140316Y135335D01*
X-140223Y135370D01*
X-140132Y135409D01*
X-140042Y135452D01*
X-139953Y135497D01*
X-139867Y135547D01*
X-139782Y135599D01*
X-139700Y135655D01*
X-139620Y135714D01*
X-139542Y135775D01*
X-139466Y135840D01*
X-139393Y135908D01*
X-139323Y135978D01*
X-139255Y136051D01*
X-139190Y136127D01*
X-139129Y136205D01*
X-139070Y136285D01*
X-139014Y136367D01*
X-138962Y136452D01*
X-138913Y136538D01*
X-138867Y136627D01*
X-138824Y136717D01*
X-138785Y136808D01*
X-138750Y136901D01*
X-138718Y136995D01*
X-138690Y137091D01*
X-138665Y137187D01*
X-138645Y137285D01*
X-138627Y137383D01*
X-138614Y137481D01*
X-138605Y137580D01*
X-138599Y137679D01*
X-138597Y137779D01*
X-138598Y137779D02*
X-138598Y141674D01*
X-138598Y147374D02*
X-150282Y147374D01*
X-150282Y153866D02*
X-138598Y147374D01*
X-138598Y153866D02*
X-150282Y153866D01*
X-150282Y159566D02*
X-138598Y159566D01*
X-138598Y162812D01*
X-138600Y162925D01*
X-138606Y163038D01*
X-138616Y163151D01*
X-138630Y163264D01*
X-138647Y163376D01*
X-138669Y163487D01*
X-138694Y163597D01*
X-138724Y163707D01*
X-138757Y163815D01*
X-138794Y163922D01*
X-138834Y164028D01*
X-138879Y164132D01*
X-138927Y164235D01*
X-138978Y164336D01*
X-139033Y164435D01*
X-139091Y164532D01*
X-139153Y164627D01*
X-139218Y164720D01*
X-139286Y164810D01*
X-139357Y164898D01*
X-139432Y164984D01*
X-139509Y165067D01*
X-139589Y165147D01*
X-139672Y165224D01*
X-139758Y165299D01*
X-139846Y165370D01*
X-139936Y165438D01*
X-140029Y165503D01*
X-140124Y165565D01*
X-140221Y165623D01*
X-140320Y165678D01*
X-140421Y165729D01*
X-140524Y165777D01*
X-140628Y165822D01*
X-140734Y165862D01*
X-140841Y165899D01*
X-140949Y165932D01*
X-141059Y165962D01*
X-141169Y165987D01*
X-141280Y166009D01*
X-141392Y166026D01*
X-141505Y166040D01*
X-141618Y166050D01*
X-141731Y166056D01*
X-141844Y166058D01*
X-147036Y166058D01*
X-147149Y166056D01*
X-147262Y166050D01*
X-147375Y166040D01*
X-147488Y166026D01*
X-147600Y166009D01*
X-147711Y165987D01*
X-147821Y165962D01*
X-147931Y165932D01*
X-148039Y165899D01*
X-148146Y165862D01*
X-148252Y165822D01*
X-148356Y165777D01*
X-148459Y165729D01*
X-148560Y165678D01*
X-148659Y165623D01*
X-148756Y165565D01*
X-148851Y165503D01*
X-148944Y165438D01*
X-149034Y165370D01*
X-149122Y165299D01*
X-149208Y165224D01*
X-149291Y165147D01*
X-149371Y165067D01*
X-149448Y164984D01*
X-149523Y164898D01*
X-149594Y164810D01*
X-149662Y164720D01*
X-149727Y164627D01*
X-149789Y164532D01*
X-149847Y164435D01*
X-149902Y164336D01*
X-149953Y164235D01*
X-150001Y164132D01*
X-150046Y164028D01*
X-150086Y163922D01*
X-150123Y163815D01*
X-150156Y163707D01*
X-150186Y163597D01*
X-150211Y163487D01*
X-150233Y163376D01*
X-150250Y163264D01*
X-150264Y163151D01*
X-150274Y163038D01*
X-150280Y162925D01*
X-150282Y162812D01*
X-150282Y159566D01*
X-64884Y281983D02*
X-63289Y283100D01*
X-64884Y281983D02*
X-61161Y276666D01*
X-57971Y278900D01*
X-57891Y278959D01*
X-57813Y279021D01*
X-57737Y279085D01*
X-57664Y279153D01*
X-57593Y279223D01*
X-57526Y279296D01*
X-57461Y279371D01*
X-57399Y279449D01*
X-57340Y279529D01*
X-57284Y279611D01*
X-57231Y279696D01*
X-57182Y279782D01*
X-57136Y279870D01*
X-57093Y279960D01*
X-57054Y280051D01*
X-57019Y280144D01*
X-56987Y280238D01*
X-56958Y280334D01*
X-56934Y280430D01*
X-56913Y280527D01*
X-56895Y280625D01*
X-56882Y280724D01*
X-56872Y280823D01*
X-56866Y280922D01*
X-56864Y281021D01*
X-56866Y281121D01*
X-56871Y281220D01*
X-56881Y281319D01*
X-56894Y281418D01*
X-56910Y281516D01*
X-56931Y281613D01*
X-56955Y281710D01*
X-56983Y281805D01*
X-57015Y281899D01*
X-57050Y281992D01*
X-57089Y282084D01*
X-57131Y282174D01*
X-57177Y282262D01*
X-57226Y282349D01*
X-57278Y282433D01*
X-57333Y282516D01*
X-61056Y287833D01*
X-61115Y287913D01*
X-61177Y287991D01*
X-61241Y288067D01*
X-61309Y288140D01*
X-61379Y288211D01*
X-61452Y288278D01*
X-61527Y288343D01*
X-61605Y288405D01*
X-61685Y288464D01*
X-61767Y288520D01*
X-61852Y288573D01*
X-61938Y288622D01*
X-62026Y288668D01*
X-62116Y288711D01*
X-62207Y288750D01*
X-62300Y288785D01*
X-62394Y288817D01*
X-62490Y288846D01*
X-62586Y288870D01*
X-62683Y288891D01*
X-62781Y288909D01*
X-62880Y288922D01*
X-62979Y288932D01*
X-63078Y288938D01*
X-63177Y288940D01*
X-63277Y288938D01*
X-63376Y288933D01*
X-63475Y288923D01*
X-63574Y288910D01*
X-63672Y288894D01*
X-63769Y288873D01*
X-63866Y288849D01*
X-63961Y288821D01*
X-64055Y288789D01*
X-64148Y288754D01*
X-64240Y288715D01*
X-64330Y288673D01*
X-64418Y288627D01*
X-64505Y288578D01*
X-64589Y288526D01*
X-64672Y288471D01*
X-67862Y286237D01*
X-72532Y282967D02*
X-65831Y273396D01*
X-71148Y269673D02*
X-72532Y282967D01*
X-77850Y279244D02*
X-71148Y269673D01*
X-75818Y266403D02*
X-82520Y275974D01*
X-85178Y274112D01*
X-85179Y274113D02*
X-85270Y274046D01*
X-85360Y273977D01*
X-85447Y273904D01*
X-85531Y273828D01*
X-85612Y273749D01*
X-85691Y273668D01*
X-85767Y273584D01*
X-85840Y273497D01*
X-85909Y273407D01*
X-85976Y273316D01*
X-86039Y273222D01*
X-86099Y273126D01*
X-86156Y273028D01*
X-86209Y272928D01*
X-86259Y272826D01*
X-86305Y272722D01*
X-86347Y272617D01*
X-86386Y272511D01*
X-86421Y272403D01*
X-86452Y272294D01*
X-86480Y272184D01*
X-86503Y272073D01*
X-86523Y271962D01*
X-86539Y271850D01*
X-86551Y271737D01*
X-86559Y271624D01*
X-86563Y271511D01*
X-86563Y271397D01*
X-86559Y271284D01*
X-86551Y271171D01*
X-86539Y271058D01*
X-86523Y270946D01*
X-86503Y270835D01*
X-86480Y270724D01*
X-86452Y270614D01*
X-86421Y270505D01*
X-86386Y270397D01*
X-86347Y270291D01*
X-86305Y270186D01*
X-86259Y270082D01*
X-86209Y269980D01*
X-86156Y269880D01*
X-86099Y269782D01*
X-86039Y269686D01*
X-85976Y269592D01*
X-85975Y269592D02*
X-82997Y265338D01*
X-82930Y265247D01*
X-82861Y265157D01*
X-82788Y265070D01*
X-82712Y264986D01*
X-82633Y264905D01*
X-82552Y264826D01*
X-82468Y264750D01*
X-82381Y264677D01*
X-82291Y264608D01*
X-82200Y264541D01*
X-82106Y264478D01*
X-82010Y264418D01*
X-81912Y264361D01*
X-81812Y264308D01*
X-81710Y264258D01*
X-81606Y264212D01*
X-81501Y264170D01*
X-81395Y264131D01*
X-81287Y264096D01*
X-81178Y264065D01*
X-81068Y264037D01*
X-80957Y264014D01*
X-80846Y263994D01*
X-80734Y263978D01*
X-80621Y263966D01*
X-80508Y263958D01*
X-80395Y263954D01*
X-80281Y263954D01*
X-80168Y263958D01*
X-80055Y263966D01*
X-79942Y263978D01*
X-79830Y263994D01*
X-79719Y264014D01*
X-79608Y264037D01*
X-79498Y264065D01*
X-79389Y264096D01*
X-79281Y264131D01*
X-79175Y264170D01*
X-79070Y264212D01*
X-78966Y264258D01*
X-78864Y264308D01*
X-78764Y264361D01*
X-78666Y264418D01*
X-78570Y264478D01*
X-78476Y264541D01*
X-75818Y266403D01*
D11*
X110826Y223930D02*
X110826Y206150D01*
X110826Y223930D02*
X105888Y223930D01*
X105748Y223928D01*
X105609Y223922D01*
X105469Y223912D01*
X105330Y223898D01*
X105191Y223881D01*
X105053Y223859D01*
X104916Y223833D01*
X104779Y223804D01*
X104643Y223771D01*
X104509Y223734D01*
X104375Y223693D01*
X104243Y223648D01*
X104111Y223599D01*
X103982Y223547D01*
X103854Y223492D01*
X103727Y223432D01*
X103602Y223369D01*
X103479Y223303D01*
X103358Y223233D01*
X103239Y223160D01*
X103122Y223083D01*
X103008Y223003D01*
X102895Y222920D01*
X102785Y222834D01*
X102678Y222744D01*
X102573Y222652D01*
X102471Y222557D01*
X102371Y222459D01*
X102274Y222358D01*
X102180Y222254D01*
X102090Y222148D01*
X102002Y222039D01*
X101917Y221928D01*
X101836Y221814D01*
X101757Y221699D01*
X101682Y221581D01*
X101611Y221461D01*
X101543Y221338D01*
X101478Y221215D01*
X101417Y221089D01*
X101359Y220961D01*
X101305Y220833D01*
X101255Y220702D01*
X101208Y220570D01*
X101165Y220437D01*
X101126Y220303D01*
X101091Y220168D01*
X101060Y220032D01*
X101032Y219894D01*
X101009Y219757D01*
X100989Y219618D01*
X100973Y219479D01*
X100961Y219340D01*
X100953Y219201D01*
X100949Y219061D01*
X100949Y218921D01*
X100953Y218781D01*
X100961Y218642D01*
X100973Y218503D01*
X100989Y218364D01*
X101009Y218225D01*
X101032Y218088D01*
X101060Y217950D01*
X101091Y217814D01*
X101126Y217679D01*
X101165Y217545D01*
X101208Y217412D01*
X101255Y217280D01*
X101305Y217149D01*
X101359Y217021D01*
X101417Y216893D01*
X101478Y216767D01*
X101543Y216644D01*
X101611Y216521D01*
X101682Y216401D01*
X101757Y216283D01*
X101836Y216168D01*
X101917Y216054D01*
X102002Y215943D01*
X102090Y215834D01*
X102180Y215728D01*
X102274Y215624D01*
X102371Y215523D01*
X102471Y215425D01*
X102573Y215330D01*
X102678Y215238D01*
X102785Y215148D01*
X102895Y215062D01*
X103008Y214979D01*
X103122Y214899D01*
X103239Y214822D01*
X103358Y214749D01*
X103479Y214679D01*
X103602Y214613D01*
X103727Y214550D01*
X103854Y214490D01*
X103982Y214435D01*
X104111Y214383D01*
X104243Y214334D01*
X104375Y214289D01*
X104509Y214248D01*
X104643Y214211D01*
X104779Y214178D01*
X104916Y214149D01*
X105053Y214123D01*
X105191Y214101D01*
X105330Y214084D01*
X105469Y214070D01*
X105609Y214060D01*
X105748Y214054D01*
X105888Y214052D01*
X110826Y214052D01*
X94831Y219979D02*
X89892Y223930D01*
X89892Y206150D01*
X84954Y206150D02*
X94831Y206150D01*
X108298Y91280D02*
X108298Y73500D01*
X108298Y91280D02*
X103359Y91280D01*
X103219Y91278D01*
X103080Y91272D01*
X102940Y91262D01*
X102801Y91248D01*
X102662Y91231D01*
X102524Y91209D01*
X102387Y91183D01*
X102250Y91154D01*
X102114Y91121D01*
X101980Y91084D01*
X101846Y91043D01*
X101714Y90998D01*
X101582Y90949D01*
X101453Y90897D01*
X101325Y90842D01*
X101198Y90782D01*
X101073Y90719D01*
X100950Y90653D01*
X100829Y90583D01*
X100710Y90510D01*
X100593Y90433D01*
X100479Y90353D01*
X100366Y90270D01*
X100256Y90184D01*
X100149Y90094D01*
X100044Y90002D01*
X99942Y89907D01*
X99842Y89809D01*
X99745Y89708D01*
X99651Y89604D01*
X99561Y89498D01*
X99473Y89389D01*
X99388Y89278D01*
X99307Y89164D01*
X99228Y89049D01*
X99153Y88931D01*
X99082Y88810D01*
X99014Y88688D01*
X98949Y88565D01*
X98888Y88439D01*
X98830Y88311D01*
X98776Y88183D01*
X98726Y88052D01*
X98679Y87920D01*
X98636Y87787D01*
X98597Y87653D01*
X98562Y87518D01*
X98531Y87382D01*
X98503Y87244D01*
X98480Y87107D01*
X98460Y86968D01*
X98444Y86829D01*
X98432Y86690D01*
X98424Y86551D01*
X98420Y86411D01*
X98420Y86271D01*
X98424Y86131D01*
X98432Y85992D01*
X98444Y85853D01*
X98460Y85714D01*
X98480Y85575D01*
X98503Y85438D01*
X98531Y85300D01*
X98562Y85164D01*
X98597Y85029D01*
X98636Y84895D01*
X98679Y84762D01*
X98726Y84630D01*
X98776Y84499D01*
X98830Y84371D01*
X98888Y84243D01*
X98949Y84117D01*
X99014Y83994D01*
X99082Y83871D01*
X99153Y83751D01*
X99228Y83633D01*
X99307Y83518D01*
X99388Y83404D01*
X99473Y83293D01*
X99561Y83184D01*
X99651Y83078D01*
X99745Y82974D01*
X99842Y82873D01*
X99942Y82775D01*
X100044Y82680D01*
X100149Y82588D01*
X100256Y82498D01*
X100366Y82412D01*
X100479Y82329D01*
X100593Y82249D01*
X100710Y82172D01*
X100829Y82099D01*
X100950Y82029D01*
X101073Y81963D01*
X101198Y81900D01*
X101325Y81840D01*
X101453Y81785D01*
X101582Y81733D01*
X101714Y81684D01*
X101846Y81639D01*
X101980Y81598D01*
X102114Y81561D01*
X102250Y81528D01*
X102387Y81499D01*
X102524Y81473D01*
X102662Y81451D01*
X102801Y81434D01*
X102940Y81420D01*
X103080Y81410D01*
X103219Y81404D01*
X103359Y81402D01*
X108298Y81402D01*
X86870Y91280D02*
X86738Y91278D01*
X86607Y91272D01*
X86475Y91262D01*
X86344Y91249D01*
X86214Y91231D01*
X86084Y91210D01*
X85954Y91185D01*
X85826Y91156D01*
X85698Y91123D01*
X85572Y91086D01*
X85446Y91046D01*
X85322Y91002D01*
X85199Y90954D01*
X85078Y90903D01*
X84958Y90848D01*
X84840Y90790D01*
X84724Y90728D01*
X84610Y90662D01*
X84497Y90594D01*
X84387Y90522D01*
X84279Y90447D01*
X84173Y90368D01*
X84069Y90287D01*
X83968Y90202D01*
X83870Y90115D01*
X83774Y90024D01*
X83681Y89931D01*
X83590Y89835D01*
X83503Y89737D01*
X83418Y89636D01*
X83337Y89532D01*
X83258Y89426D01*
X83183Y89318D01*
X83111Y89208D01*
X83043Y89095D01*
X82977Y88981D01*
X82915Y88865D01*
X82857Y88747D01*
X82802Y88627D01*
X82751Y88506D01*
X82703Y88383D01*
X82659Y88259D01*
X82619Y88133D01*
X82582Y88007D01*
X82549Y87879D01*
X82520Y87751D01*
X82495Y87621D01*
X82474Y87491D01*
X82456Y87361D01*
X82443Y87230D01*
X82433Y87098D01*
X82427Y86967D01*
X82425Y86835D01*
X86870Y91280D02*
X87020Y91278D01*
X87169Y91272D01*
X87318Y91262D01*
X87467Y91249D01*
X87616Y91231D01*
X87764Y91210D01*
X87912Y91184D01*
X88058Y91155D01*
X88204Y91122D01*
X88349Y91085D01*
X88493Y91044D01*
X88636Y91000D01*
X88778Y90952D01*
X88918Y90900D01*
X89057Y90845D01*
X89195Y90786D01*
X89330Y90723D01*
X89465Y90657D01*
X89597Y90587D01*
X89727Y90514D01*
X89856Y90437D01*
X89983Y90357D01*
X90107Y90274D01*
X90229Y90188D01*
X90349Y90098D01*
X90466Y90005D01*
X90581Y89910D01*
X90694Y89811D01*
X90804Y89709D01*
X90911Y89605D01*
X91015Y89498D01*
X91117Y89388D01*
X91215Y89275D01*
X91311Y89160D01*
X91403Y89042D01*
X91493Y88922D01*
X91579Y88800D01*
X91662Y88676D01*
X91742Y88549D01*
X91818Y88421D01*
X91891Y88290D01*
X91961Y88157D01*
X92027Y88023D01*
X92089Y87887D01*
X92148Y87750D01*
X92204Y87611D01*
X92255Y87470D01*
X92303Y87329D01*
X83907Y83378D02*
X83811Y83471D01*
X83719Y83567D01*
X83629Y83666D01*
X83542Y83767D01*
X83458Y83870D01*
X83376Y83975D01*
X83298Y84083D01*
X83223Y84193D01*
X83150Y84305D01*
X83081Y84419D01*
X83015Y84535D01*
X82953Y84653D01*
X82894Y84772D01*
X82838Y84893D01*
X82785Y85016D01*
X82736Y85140D01*
X82691Y85265D01*
X82648Y85392D01*
X82610Y85519D01*
X82575Y85648D01*
X82544Y85777D01*
X82516Y85908D01*
X82492Y86039D01*
X82471Y86171D01*
X82455Y86303D01*
X82442Y86436D01*
X82432Y86569D01*
X82427Y86702D01*
X82425Y86835D01*
X83907Y83378D02*
X92303Y73500D01*
X82425Y73500D01*
X70055Y80414D02*
X70055Y86341D01*
X70055Y80414D02*
X66598Y75969D01*
X70055Y80414D02*
X73512Y75969D01*
X70055Y80414D02*
X64622Y82390D01*
X70055Y80414D02*
X75488Y82390D01*
X13696Y36640D02*
X13696Y18860D01*
X13696Y36640D02*
X8758Y36640D01*
X8618Y36638D01*
X8479Y36632D01*
X8339Y36622D01*
X8200Y36608D01*
X8061Y36591D01*
X7923Y36569D01*
X7786Y36543D01*
X7649Y36514D01*
X7513Y36481D01*
X7379Y36444D01*
X7245Y36403D01*
X7113Y36358D01*
X6981Y36309D01*
X6852Y36257D01*
X6724Y36202D01*
X6597Y36142D01*
X6472Y36079D01*
X6349Y36013D01*
X6228Y35943D01*
X6109Y35870D01*
X5992Y35793D01*
X5878Y35713D01*
X5765Y35630D01*
X5655Y35544D01*
X5548Y35454D01*
X5443Y35362D01*
X5341Y35267D01*
X5241Y35169D01*
X5144Y35068D01*
X5050Y34964D01*
X4960Y34858D01*
X4872Y34749D01*
X4787Y34638D01*
X4706Y34524D01*
X4627Y34409D01*
X4552Y34291D01*
X4481Y34170D01*
X4413Y34048D01*
X4348Y33925D01*
X4287Y33799D01*
X4229Y33671D01*
X4175Y33543D01*
X4125Y33412D01*
X4078Y33280D01*
X4035Y33147D01*
X3996Y33013D01*
X3961Y32878D01*
X3930Y32742D01*
X3902Y32604D01*
X3879Y32467D01*
X3859Y32328D01*
X3843Y32189D01*
X3831Y32050D01*
X3823Y31911D01*
X3819Y31771D01*
X3819Y31631D01*
X3823Y31491D01*
X3831Y31352D01*
X3843Y31213D01*
X3859Y31074D01*
X3879Y30935D01*
X3902Y30798D01*
X3930Y30660D01*
X3961Y30524D01*
X3996Y30389D01*
X4035Y30255D01*
X4078Y30122D01*
X4125Y29990D01*
X4175Y29859D01*
X4229Y29731D01*
X4287Y29603D01*
X4348Y29477D01*
X4413Y29354D01*
X4481Y29231D01*
X4552Y29111D01*
X4627Y28993D01*
X4706Y28878D01*
X4787Y28764D01*
X4872Y28653D01*
X4960Y28544D01*
X5050Y28438D01*
X5144Y28334D01*
X5241Y28233D01*
X5341Y28135D01*
X5443Y28040D01*
X5548Y27948D01*
X5655Y27858D01*
X5765Y27772D01*
X5878Y27689D01*
X5992Y27609D01*
X6109Y27532D01*
X6228Y27459D01*
X6349Y27389D01*
X6472Y27323D01*
X6597Y27260D01*
X6724Y27200D01*
X6852Y27145D01*
X6981Y27093D01*
X7113Y27044D01*
X7245Y26999D01*
X7379Y26958D01*
X7513Y26921D01*
X7649Y26888D01*
X7786Y26859D01*
X7923Y26833D01*
X8061Y26811D01*
X8200Y26794D01*
X8339Y26780D01*
X8479Y26770D01*
X8618Y26764D01*
X8758Y26762D01*
X13696Y26762D01*
X-2299Y18860D02*
X-7238Y18860D01*
X-7378Y18862D01*
X-7517Y18868D01*
X-7657Y18878D01*
X-7796Y18892D01*
X-7935Y18909D01*
X-8073Y18931D01*
X-8210Y18957D01*
X-8347Y18986D01*
X-8483Y19019D01*
X-8617Y19056D01*
X-8751Y19097D01*
X-8883Y19142D01*
X-9015Y19191D01*
X-9144Y19243D01*
X-9272Y19298D01*
X-9399Y19358D01*
X-9524Y19421D01*
X-9647Y19487D01*
X-9768Y19557D01*
X-9887Y19630D01*
X-10004Y19707D01*
X-10118Y19787D01*
X-10231Y19870D01*
X-10341Y19956D01*
X-10448Y20046D01*
X-10553Y20138D01*
X-10655Y20233D01*
X-10755Y20331D01*
X-10852Y20432D01*
X-10946Y20536D01*
X-11036Y20642D01*
X-11124Y20751D01*
X-11209Y20862D01*
X-11290Y20976D01*
X-11369Y21091D01*
X-11444Y21209D01*
X-11515Y21329D01*
X-11583Y21452D01*
X-11648Y21575D01*
X-11709Y21701D01*
X-11767Y21829D01*
X-11821Y21957D01*
X-11871Y22088D01*
X-11918Y22220D01*
X-11961Y22353D01*
X-12000Y22487D01*
X-12035Y22622D01*
X-12066Y22758D01*
X-12094Y22896D01*
X-12117Y23033D01*
X-12137Y23172D01*
X-12153Y23311D01*
X-12165Y23450D01*
X-12173Y23589D01*
X-12177Y23729D01*
X-12177Y23869D01*
X-12173Y24009D01*
X-12165Y24148D01*
X-12153Y24287D01*
X-12137Y24426D01*
X-12117Y24565D01*
X-12094Y24702D01*
X-12066Y24840D01*
X-12035Y24976D01*
X-12000Y25111D01*
X-11961Y25245D01*
X-11918Y25378D01*
X-11871Y25510D01*
X-11821Y25641D01*
X-11767Y25769D01*
X-11709Y25897D01*
X-11648Y26023D01*
X-11583Y26146D01*
X-11515Y26268D01*
X-11444Y26389D01*
X-11369Y26507D01*
X-11290Y26622D01*
X-11209Y26736D01*
X-11124Y26847D01*
X-11036Y26956D01*
X-10946Y27062D01*
X-10852Y27166D01*
X-10755Y27267D01*
X-10655Y27365D01*
X-10553Y27460D01*
X-10448Y27552D01*
X-10341Y27642D01*
X-10231Y27728D01*
X-10118Y27811D01*
X-10004Y27891D01*
X-9887Y27968D01*
X-9768Y28041D01*
X-9647Y28111D01*
X-9524Y28177D01*
X-9399Y28240D01*
X-9272Y28300D01*
X-9144Y28355D01*
X-9015Y28407D01*
X-8883Y28456D01*
X-8751Y28501D01*
X-8617Y28542D01*
X-8483Y28579D01*
X-8347Y28612D01*
X-8210Y28641D01*
X-8073Y28667D01*
X-7935Y28689D01*
X-7796Y28706D01*
X-7657Y28720D01*
X-7517Y28730D01*
X-7378Y28736D01*
X-7238Y28738D01*
X-8225Y36640D02*
X-2299Y36640D01*
X-8225Y36640D02*
X-8349Y36638D01*
X-8473Y36632D01*
X-8597Y36622D01*
X-8720Y36609D01*
X-8843Y36591D01*
X-8965Y36570D01*
X-9087Y36545D01*
X-9208Y36516D01*
X-9327Y36483D01*
X-9446Y36447D01*
X-9563Y36406D01*
X-9679Y36363D01*
X-9794Y36315D01*
X-9907Y36264D01*
X-10019Y36209D01*
X-10128Y36151D01*
X-10236Y36090D01*
X-10342Y36025D01*
X-10446Y35957D01*
X-10547Y35885D01*
X-10647Y35811D01*
X-10743Y35733D01*
X-10838Y35653D01*
X-10930Y35569D01*
X-11019Y35483D01*
X-11105Y35394D01*
X-11189Y35302D01*
X-11269Y35207D01*
X-11347Y35111D01*
X-11421Y35011D01*
X-11493Y34910D01*
X-11561Y34806D01*
X-11626Y34700D01*
X-11687Y34592D01*
X-11745Y34483D01*
X-11800Y34371D01*
X-11851Y34258D01*
X-11899Y34143D01*
X-11942Y34027D01*
X-11983Y33910D01*
X-12019Y33791D01*
X-12052Y33672D01*
X-12081Y33551D01*
X-12106Y33429D01*
X-12127Y33307D01*
X-12145Y33184D01*
X-12158Y33061D01*
X-12168Y32937D01*
X-12174Y32813D01*
X-12176Y32689D01*
X-12174Y32565D01*
X-12168Y32441D01*
X-12158Y32317D01*
X-12145Y32194D01*
X-12127Y32071D01*
X-12106Y31949D01*
X-12081Y31827D01*
X-12052Y31706D01*
X-12019Y31587D01*
X-11983Y31468D01*
X-11942Y31351D01*
X-11899Y31235D01*
X-11851Y31120D01*
X-11800Y31007D01*
X-11745Y30895D01*
X-11687Y30786D01*
X-11626Y30678D01*
X-11561Y30572D01*
X-11493Y30468D01*
X-11421Y30367D01*
X-11347Y30267D01*
X-11269Y30171D01*
X-11189Y30076D01*
X-11105Y29984D01*
X-11019Y29895D01*
X-10930Y29809D01*
X-10838Y29725D01*
X-10743Y29645D01*
X-10647Y29567D01*
X-10547Y29493D01*
X-10446Y29421D01*
X-10342Y29353D01*
X-10236Y29288D01*
X-10128Y29227D01*
X-10019Y29169D01*
X-9907Y29114D01*
X-9794Y29063D01*
X-9679Y29015D01*
X-9563Y28972D01*
X-9446Y28931D01*
X-9327Y28895D01*
X-9208Y28862D01*
X-9087Y28833D01*
X-8965Y28808D01*
X-8843Y28787D01*
X-8720Y28769D01*
X-8597Y28756D01*
X-8473Y28746D01*
X-8349Y28740D01*
X-8225Y28738D01*
X-4274Y28738D01*
X-80894Y76040D02*
X-80894Y93820D01*
X-85833Y93820D01*
X-85973Y93818D01*
X-86112Y93812D01*
X-86252Y93802D01*
X-86391Y93788D01*
X-86530Y93771D01*
X-86668Y93749D01*
X-86805Y93723D01*
X-86942Y93694D01*
X-87078Y93661D01*
X-87212Y93624D01*
X-87346Y93583D01*
X-87478Y93538D01*
X-87610Y93489D01*
X-87739Y93437D01*
X-87867Y93382D01*
X-87994Y93322D01*
X-88119Y93259D01*
X-88242Y93193D01*
X-88363Y93123D01*
X-88482Y93050D01*
X-88599Y92973D01*
X-88713Y92893D01*
X-88826Y92810D01*
X-88936Y92724D01*
X-89043Y92634D01*
X-89148Y92542D01*
X-89250Y92447D01*
X-89350Y92349D01*
X-89447Y92248D01*
X-89541Y92144D01*
X-89631Y92038D01*
X-89719Y91929D01*
X-89804Y91818D01*
X-89885Y91704D01*
X-89964Y91589D01*
X-90039Y91471D01*
X-90110Y91350D01*
X-90178Y91228D01*
X-90243Y91105D01*
X-90304Y90979D01*
X-90362Y90851D01*
X-90416Y90723D01*
X-90466Y90592D01*
X-90513Y90460D01*
X-90556Y90327D01*
X-90595Y90193D01*
X-90630Y90058D01*
X-90661Y89922D01*
X-90689Y89784D01*
X-90712Y89647D01*
X-90732Y89508D01*
X-90748Y89369D01*
X-90760Y89230D01*
X-90768Y89091D01*
X-90772Y88951D01*
X-90772Y88811D01*
X-90768Y88671D01*
X-90760Y88532D01*
X-90748Y88393D01*
X-90732Y88254D01*
X-90712Y88115D01*
X-90689Y87978D01*
X-90661Y87840D01*
X-90630Y87704D01*
X-90595Y87569D01*
X-90556Y87435D01*
X-90513Y87302D01*
X-90466Y87170D01*
X-90416Y87039D01*
X-90362Y86911D01*
X-90304Y86783D01*
X-90243Y86657D01*
X-90178Y86534D01*
X-90110Y86411D01*
X-90039Y86291D01*
X-89964Y86173D01*
X-89885Y86058D01*
X-89804Y85944D01*
X-89719Y85833D01*
X-89631Y85724D01*
X-89541Y85618D01*
X-89447Y85514D01*
X-89350Y85413D01*
X-89250Y85315D01*
X-89148Y85220D01*
X-89043Y85128D01*
X-88936Y85038D01*
X-88826Y84952D01*
X-88713Y84869D01*
X-88599Y84789D01*
X-88482Y84712D01*
X-88363Y84639D01*
X-88242Y84569D01*
X-88119Y84503D01*
X-87994Y84440D01*
X-87867Y84380D01*
X-87739Y84325D01*
X-87610Y84273D01*
X-87478Y84224D01*
X-87346Y84179D01*
X-87212Y84138D01*
X-87078Y84101D01*
X-86942Y84068D01*
X-86805Y84039D01*
X-86668Y84013D01*
X-86530Y83991D01*
X-86391Y83974D01*
X-86252Y83960D01*
X-86112Y83950D01*
X-85973Y83944D01*
X-85833Y83942D01*
X-80894Y83942D01*
X-96889Y79991D02*
X-100840Y93820D01*
X-96889Y79991D02*
X-106766Y79991D01*
X-103803Y83942D02*
X-103803Y76040D01*
X-83434Y212500D02*
X-83434Y230280D01*
X-88373Y230280D01*
X-88513Y230278D01*
X-88652Y230272D01*
X-88792Y230262D01*
X-88931Y230248D01*
X-89070Y230231D01*
X-89208Y230209D01*
X-89345Y230183D01*
X-89482Y230154D01*
X-89618Y230121D01*
X-89752Y230084D01*
X-89886Y230043D01*
X-90018Y229998D01*
X-90150Y229949D01*
X-90279Y229897D01*
X-90407Y229842D01*
X-90534Y229782D01*
X-90659Y229719D01*
X-90782Y229653D01*
X-90903Y229583D01*
X-91022Y229510D01*
X-91139Y229433D01*
X-91253Y229353D01*
X-91366Y229270D01*
X-91476Y229184D01*
X-91583Y229094D01*
X-91688Y229002D01*
X-91790Y228907D01*
X-91890Y228809D01*
X-91987Y228708D01*
X-92081Y228604D01*
X-92171Y228498D01*
X-92259Y228389D01*
X-92344Y228278D01*
X-92425Y228164D01*
X-92504Y228049D01*
X-92579Y227931D01*
X-92650Y227811D01*
X-92718Y227688D01*
X-92783Y227565D01*
X-92844Y227439D01*
X-92902Y227311D01*
X-92956Y227183D01*
X-93006Y227052D01*
X-93053Y226920D01*
X-93096Y226787D01*
X-93135Y226653D01*
X-93170Y226518D01*
X-93201Y226382D01*
X-93229Y226244D01*
X-93252Y226107D01*
X-93272Y225968D01*
X-93288Y225829D01*
X-93300Y225690D01*
X-93308Y225551D01*
X-93312Y225411D01*
X-93312Y225271D01*
X-93308Y225131D01*
X-93300Y224992D01*
X-93288Y224853D01*
X-93272Y224714D01*
X-93252Y224575D01*
X-93229Y224438D01*
X-93201Y224300D01*
X-93170Y224164D01*
X-93135Y224029D01*
X-93096Y223895D01*
X-93053Y223762D01*
X-93006Y223630D01*
X-92956Y223499D01*
X-92902Y223371D01*
X-92844Y223243D01*
X-92783Y223117D01*
X-92718Y222994D01*
X-92650Y222871D01*
X-92579Y222751D01*
X-92504Y222633D01*
X-92425Y222518D01*
X-92344Y222404D01*
X-92259Y222293D01*
X-92171Y222184D01*
X-92081Y222078D01*
X-91987Y221974D01*
X-91890Y221873D01*
X-91790Y221775D01*
X-91688Y221680D01*
X-91583Y221588D01*
X-91476Y221498D01*
X-91366Y221412D01*
X-91253Y221329D01*
X-91139Y221249D01*
X-91022Y221172D01*
X-90903Y221099D01*
X-90782Y221029D01*
X-90659Y220963D01*
X-90534Y220900D01*
X-90407Y220840D01*
X-90279Y220785D01*
X-90150Y220733D01*
X-90018Y220684D01*
X-89886Y220639D01*
X-89752Y220598D01*
X-89618Y220561D01*
X-89482Y220528D01*
X-89345Y220499D01*
X-89208Y220473D01*
X-89070Y220451D01*
X-88931Y220434D01*
X-88792Y220420D01*
X-88652Y220410D01*
X-88513Y220404D01*
X-88373Y220402D01*
X-83434Y220402D01*
X-99429Y212500D02*
X-105355Y212500D01*
X-105479Y212502D01*
X-105603Y212508D01*
X-105727Y212518D01*
X-105850Y212531D01*
X-105973Y212549D01*
X-106095Y212570D01*
X-106217Y212595D01*
X-106338Y212624D01*
X-106457Y212657D01*
X-106576Y212693D01*
X-106693Y212734D01*
X-106809Y212777D01*
X-106924Y212825D01*
X-107037Y212876D01*
X-107149Y212931D01*
X-107258Y212989D01*
X-107366Y213050D01*
X-107472Y213115D01*
X-107576Y213183D01*
X-107677Y213255D01*
X-107777Y213329D01*
X-107873Y213407D01*
X-107968Y213487D01*
X-108060Y213571D01*
X-108149Y213657D01*
X-108235Y213746D01*
X-108319Y213838D01*
X-108399Y213933D01*
X-108477Y214029D01*
X-108551Y214129D01*
X-108623Y214230D01*
X-108691Y214334D01*
X-108756Y214440D01*
X-108817Y214548D01*
X-108875Y214657D01*
X-108930Y214769D01*
X-108981Y214882D01*
X-109029Y214997D01*
X-109072Y215113D01*
X-109113Y215230D01*
X-109149Y215349D01*
X-109182Y215468D01*
X-109211Y215589D01*
X-109236Y215711D01*
X-109257Y215833D01*
X-109275Y215956D01*
X-109288Y216079D01*
X-109298Y216203D01*
X-109304Y216327D01*
X-109306Y216451D01*
X-109306Y218427D01*
X-109304Y218551D01*
X-109298Y218675D01*
X-109288Y218799D01*
X-109275Y218922D01*
X-109257Y219045D01*
X-109236Y219167D01*
X-109211Y219289D01*
X-109182Y219410D01*
X-109149Y219529D01*
X-109113Y219648D01*
X-109072Y219765D01*
X-109029Y219881D01*
X-108981Y219996D01*
X-108930Y220109D01*
X-108875Y220221D01*
X-108817Y220330D01*
X-108756Y220438D01*
X-108691Y220544D01*
X-108623Y220648D01*
X-108551Y220749D01*
X-108477Y220849D01*
X-108399Y220945D01*
X-108319Y221040D01*
X-108235Y221132D01*
X-108149Y221221D01*
X-108060Y221307D01*
X-107968Y221391D01*
X-107873Y221471D01*
X-107777Y221549D01*
X-107677Y221623D01*
X-107576Y221695D01*
X-107472Y221763D01*
X-107366Y221828D01*
X-107258Y221889D01*
X-107149Y221947D01*
X-107037Y222002D01*
X-106924Y222053D01*
X-106809Y222101D01*
X-106693Y222144D01*
X-106576Y222185D01*
X-106457Y222221D01*
X-106338Y222254D01*
X-106217Y222283D01*
X-106095Y222308D01*
X-105973Y222329D01*
X-105850Y222347D01*
X-105727Y222360D01*
X-105603Y222370D01*
X-105479Y222376D01*
X-105355Y222378D01*
X-99429Y222378D01*
X-99429Y230280D01*
X-109306Y230280D01*
X48694Y62753D02*
X48694Y44973D01*
X48694Y54851D02*
X38816Y54851D01*
X38816Y62753D02*
X38816Y44973D01*
X31385Y58802D02*
X26446Y62753D01*
X26446Y44973D01*
X31385Y44973D02*
X21507Y44973D01*
X14076Y44973D02*
X14076Y62753D01*
X9137Y62753D01*
X8998Y62751D01*
X8860Y62745D01*
X8722Y62736D01*
X8584Y62722D01*
X8447Y62705D01*
X8310Y62683D01*
X8173Y62658D01*
X8038Y62629D01*
X7903Y62596D01*
X7770Y62560D01*
X7637Y62520D01*
X7506Y62476D01*
X7376Y62428D01*
X7247Y62377D01*
X7120Y62322D01*
X6994Y62264D01*
X6870Y62202D01*
X6748Y62137D01*
X6628Y62068D01*
X6509Y61996D01*
X6393Y61921D01*
X6279Y61842D01*
X6167Y61760D01*
X6058Y61675D01*
X5950Y61588D01*
X5846Y61497D01*
X5744Y61403D01*
X5645Y61306D01*
X5548Y61207D01*
X5454Y61105D01*
X5363Y61001D01*
X5276Y60893D01*
X5191Y60784D01*
X5109Y60672D01*
X5030Y60558D01*
X4955Y60442D01*
X4883Y60323D01*
X4814Y60203D01*
X4749Y60081D01*
X4687Y59957D01*
X4629Y59831D01*
X4574Y59704D01*
X4523Y59575D01*
X4475Y59445D01*
X4431Y59314D01*
X4391Y59181D01*
X4355Y59048D01*
X4322Y58913D01*
X4293Y58778D01*
X4268Y58641D01*
X4246Y58504D01*
X4229Y58367D01*
X4215Y58229D01*
X4206Y58091D01*
X4200Y57953D01*
X4198Y57814D01*
X4198Y49912D01*
X4200Y49773D01*
X4206Y49635D01*
X4215Y49497D01*
X4229Y49359D01*
X4246Y49222D01*
X4268Y49085D01*
X4293Y48948D01*
X4322Y48813D01*
X4355Y48678D01*
X4391Y48545D01*
X4431Y48412D01*
X4475Y48281D01*
X4523Y48151D01*
X4574Y48022D01*
X4629Y47895D01*
X4687Y47769D01*
X4749Y47645D01*
X4814Y47523D01*
X4883Y47403D01*
X4955Y47284D01*
X5030Y47168D01*
X5109Y47054D01*
X5191Y46942D01*
X5276Y46833D01*
X5363Y46725D01*
X5454Y46621D01*
X5548Y46519D01*
X5645Y46420D01*
X5744Y46323D01*
X5846Y46229D01*
X5950Y46138D01*
X6058Y46051D01*
X6167Y45966D01*
X6279Y45884D01*
X6393Y45805D01*
X6509Y45730D01*
X6628Y45658D01*
X6748Y45589D01*
X6870Y45524D01*
X6994Y45462D01*
X7120Y45404D01*
X7247Y45349D01*
X7376Y45298D01*
X7506Y45250D01*
X7637Y45206D01*
X7770Y45166D01*
X7903Y45130D01*
X8038Y45097D01*
X8173Y45068D01*
X8310Y45043D01*
X8447Y45021D01*
X8584Y45004D01*
X8722Y44990D01*
X8860Y44981D01*
X8998Y44975D01*
X9137Y44973D01*
X14076Y44973D01*
X-3877Y44973D02*
X-3877Y62753D01*
X-8815Y62753D01*
X-8955Y62751D01*
X-9094Y62745D01*
X-9234Y62735D01*
X-9373Y62721D01*
X-9512Y62704D01*
X-9650Y62682D01*
X-9787Y62656D01*
X-9924Y62627D01*
X-10060Y62594D01*
X-10194Y62557D01*
X-10328Y62516D01*
X-10460Y62471D01*
X-10592Y62422D01*
X-10721Y62370D01*
X-10849Y62315D01*
X-10976Y62255D01*
X-11101Y62192D01*
X-11224Y62126D01*
X-11345Y62056D01*
X-11464Y61983D01*
X-11581Y61906D01*
X-11695Y61826D01*
X-11808Y61743D01*
X-11918Y61657D01*
X-12025Y61567D01*
X-12130Y61475D01*
X-12232Y61380D01*
X-12332Y61282D01*
X-12429Y61181D01*
X-12523Y61077D01*
X-12613Y60971D01*
X-12701Y60862D01*
X-12786Y60751D01*
X-12867Y60637D01*
X-12946Y60522D01*
X-13021Y60404D01*
X-13092Y60283D01*
X-13160Y60161D01*
X-13225Y60038D01*
X-13286Y59912D01*
X-13344Y59784D01*
X-13398Y59656D01*
X-13448Y59525D01*
X-13495Y59393D01*
X-13538Y59260D01*
X-13577Y59126D01*
X-13612Y58991D01*
X-13643Y58855D01*
X-13671Y58717D01*
X-13694Y58580D01*
X-13714Y58441D01*
X-13730Y58302D01*
X-13742Y58163D01*
X-13750Y58024D01*
X-13754Y57884D01*
X-13754Y57744D01*
X-13750Y57604D01*
X-13742Y57465D01*
X-13730Y57326D01*
X-13714Y57187D01*
X-13694Y57048D01*
X-13671Y56911D01*
X-13643Y56773D01*
X-13612Y56637D01*
X-13577Y56502D01*
X-13538Y56368D01*
X-13495Y56235D01*
X-13448Y56103D01*
X-13398Y55972D01*
X-13344Y55844D01*
X-13286Y55716D01*
X-13225Y55590D01*
X-13160Y55467D01*
X-13092Y55344D01*
X-13021Y55224D01*
X-12946Y55106D01*
X-12867Y54991D01*
X-12786Y54877D01*
X-12701Y54766D01*
X-12613Y54657D01*
X-12523Y54551D01*
X-12429Y54447D01*
X-12332Y54346D01*
X-12232Y54248D01*
X-12130Y54153D01*
X-12025Y54061D01*
X-11918Y53971D01*
X-11808Y53885D01*
X-11695Y53802D01*
X-11581Y53722D01*
X-11464Y53645D01*
X-11345Y53572D01*
X-11224Y53502D01*
X-11101Y53436D01*
X-10976Y53373D01*
X-10849Y53313D01*
X-10721Y53258D01*
X-10592Y53206D01*
X-10460Y53157D01*
X-10328Y53112D01*
X-10194Y53071D01*
X-10060Y53034D01*
X-9924Y53001D01*
X-9787Y52972D01*
X-9650Y52946D01*
X-9512Y52924D01*
X-9373Y52907D01*
X-9234Y52893D01*
X-9094Y52883D01*
X-8955Y52877D01*
X-8815Y52875D01*
X-3877Y52875D01*
X-9803Y52875D02*
X-13754Y44973D01*
X-20541Y58802D02*
X-25480Y62753D01*
X-25480Y44973D01*
X-20541Y44973D02*
X-30419Y44973D01*
X-37292Y53863D02*
X-37296Y54213D01*
X-37309Y54562D01*
X-37330Y54911D01*
X-37359Y55260D01*
X-37396Y55608D01*
X-37442Y55955D01*
X-37496Y56300D01*
X-37558Y56644D01*
X-37629Y56987D01*
X-37708Y57328D01*
X-37794Y57667D01*
X-37889Y58003D01*
X-37992Y58338D01*
X-38103Y58669D01*
X-38221Y58999D01*
X-38348Y59325D01*
X-38482Y59648D01*
X-38624Y59967D01*
X-38774Y60284D01*
X-38774Y60283D02*
X-38814Y60396D01*
X-38858Y60506D01*
X-38906Y60616D01*
X-38957Y60724D01*
X-39012Y60829D01*
X-39070Y60934D01*
X-39132Y61036D01*
X-39197Y61136D01*
X-39265Y61234D01*
X-39336Y61330D01*
X-39411Y61423D01*
X-39488Y61514D01*
X-39568Y61602D01*
X-39652Y61687D01*
X-39737Y61770D01*
X-39826Y61850D01*
X-39917Y61927D01*
X-40011Y62001D01*
X-40107Y62072D01*
X-40205Y62140D01*
X-40305Y62204D01*
X-40408Y62266D01*
X-40512Y62323D01*
X-40618Y62378D01*
X-40726Y62429D01*
X-40836Y62476D01*
X-40947Y62520D01*
X-41059Y62560D01*
X-41173Y62596D01*
X-41287Y62629D01*
X-41403Y62658D01*
X-41520Y62683D01*
X-41637Y62704D01*
X-41755Y62722D01*
X-41874Y62735D01*
X-41993Y62745D01*
X-42112Y62751D01*
X-42231Y62753D01*
X-42231Y62754D02*
X-42350Y62752D01*
X-42469Y62746D01*
X-42588Y62736D01*
X-42707Y62723D01*
X-42825Y62705D01*
X-42942Y62684D01*
X-43059Y62659D01*
X-43175Y62630D01*
X-43289Y62597D01*
X-43403Y62561D01*
X-43515Y62521D01*
X-43626Y62477D01*
X-43736Y62430D01*
X-43844Y62379D01*
X-43950Y62324D01*
X-44054Y62267D01*
X-44157Y62205D01*
X-44257Y62141D01*
X-44355Y62073D01*
X-44451Y62002D01*
X-44545Y61928D01*
X-44636Y61851D01*
X-44725Y61771D01*
X-44811Y61688D01*
X-44894Y61603D01*
X-44974Y61515D01*
X-45051Y61424D01*
X-45126Y61331D01*
X-45197Y61235D01*
X-45265Y61137D01*
X-45330Y61037D01*
X-45392Y60935D01*
X-45450Y60830D01*
X-45505Y60724D01*
X-45556Y60617D01*
X-45604Y60507D01*
X-45648Y60397D01*
X-45688Y60284D01*
X-45838Y59967D01*
X-45980Y59648D01*
X-46114Y59325D01*
X-46241Y58999D01*
X-46359Y58669D01*
X-46470Y58338D01*
X-46573Y58003D01*
X-46668Y57667D01*
X-46754Y57328D01*
X-46833Y56987D01*
X-46904Y56644D01*
X-46966Y56300D01*
X-47020Y55955D01*
X-47066Y55608D01*
X-47103Y55260D01*
X-47132Y54911D01*
X-47153Y54562D01*
X-47166Y54213D01*
X-47170Y53863D01*
X-37292Y53863D02*
X-37296Y53513D01*
X-37309Y53164D01*
X-37330Y52815D01*
X-37359Y52466D01*
X-37396Y52118D01*
X-37442Y51771D01*
X-37496Y51426D01*
X-37558Y51082D01*
X-37629Y50739D01*
X-37708Y50398D01*
X-37794Y50059D01*
X-37889Y49723D01*
X-37992Y49388D01*
X-38103Y49057D01*
X-38221Y48728D01*
X-38348Y48401D01*
X-38482Y48078D01*
X-38624Y47759D01*
X-38774Y47443D01*
X-38814Y47330D01*
X-38858Y47220D01*
X-38906Y47110D01*
X-38957Y47002D01*
X-39012Y46896D01*
X-39070Y46792D01*
X-39132Y46690D01*
X-39197Y46590D01*
X-39265Y46492D01*
X-39336Y46396D01*
X-39411Y46303D01*
X-39488Y46212D01*
X-39568Y46124D01*
X-39652Y46039D01*
X-39737Y45956D01*
X-39826Y45876D01*
X-39917Y45799D01*
X-40011Y45725D01*
X-40107Y45654D01*
X-40205Y45586D01*
X-40305Y45522D01*
X-40408Y45460D01*
X-40512Y45402D01*
X-40618Y45348D01*
X-40726Y45297D01*
X-40836Y45250D01*
X-40947Y45206D01*
X-41059Y45166D01*
X-41173Y45130D01*
X-41287Y45097D01*
X-41403Y45068D01*
X-41520Y45043D01*
X-41637Y45022D01*
X-41755Y45004D01*
X-41874Y44991D01*
X-41993Y44981D01*
X-42112Y44975D01*
X-42231Y44973D01*
X-45687Y47443D02*
X-45837Y47759D01*
X-45979Y48078D01*
X-46113Y48401D01*
X-46240Y48728D01*
X-46358Y49057D01*
X-46469Y49388D01*
X-46572Y49723D01*
X-46667Y50059D01*
X-46753Y50398D01*
X-46832Y50739D01*
X-46903Y51082D01*
X-46965Y51426D01*
X-47019Y51771D01*
X-47065Y52118D01*
X-47102Y52466D01*
X-47131Y52815D01*
X-47152Y53164D01*
X-47165Y53513D01*
X-47169Y53863D01*
X-45688Y47443D02*
X-45648Y47330D01*
X-45604Y47220D01*
X-45556Y47110D01*
X-45505Y47003D01*
X-45450Y46897D01*
X-45392Y46792D01*
X-45330Y46690D01*
X-45265Y46590D01*
X-45197Y46492D01*
X-45126Y46396D01*
X-45051Y46303D01*
X-44974Y46212D01*
X-44894Y46124D01*
X-44811Y46039D01*
X-44725Y45956D01*
X-44636Y45876D01*
X-44545Y45799D01*
X-44451Y45725D01*
X-44355Y45654D01*
X-44257Y45586D01*
X-44157Y45522D01*
X-44054Y45460D01*
X-43950Y45403D01*
X-43844Y45348D01*
X-43736Y45297D01*
X-43626Y45250D01*
X-43515Y45206D01*
X-43403Y45166D01*
X-43289Y45130D01*
X-43175Y45097D01*
X-43059Y45068D01*
X-42942Y45043D01*
X-42825Y45022D01*
X-42707Y45004D01*
X-42588Y44991D01*
X-42469Y44981D01*
X-42350Y44975D01*
X-42231Y44973D01*
X-38280Y48924D02*
X-46182Y58802D01*
D12*
X-18276Y236093D02*
X-18276Y243459D01*
X-16230Y243459D02*
X-20322Y243459D01*
X-25104Y243459D02*
X-22648Y236093D01*
X-27559Y236093D02*
X-25104Y243459D01*
X-26945Y237935D02*
X-23262Y237935D01*
X31206Y236093D02*
X31206Y243459D01*
X33252Y243459D02*
X29160Y243459D01*
X26063Y240185D02*
X24017Y240185D01*
X23928Y240183D01*
X23839Y240177D01*
X23750Y240167D01*
X23662Y240154D01*
X23574Y240137D01*
X23487Y240115D01*
X23402Y240090D01*
X23317Y240062D01*
X23234Y240029D01*
X23152Y239993D01*
X23072Y239954D01*
X22994Y239911D01*
X22918Y239865D01*
X22843Y239815D01*
X22771Y239762D01*
X22702Y239706D01*
X22635Y239647D01*
X22570Y239586D01*
X22509Y239521D01*
X22450Y239454D01*
X22394Y239385D01*
X22341Y239313D01*
X22291Y239238D01*
X22245Y239162D01*
X22202Y239084D01*
X22163Y239004D01*
X22127Y238922D01*
X22094Y238839D01*
X22066Y238754D01*
X22041Y238669D01*
X22019Y238582D01*
X22002Y238494D01*
X21989Y238406D01*
X21979Y238317D01*
X21973Y238228D01*
X21971Y238139D01*
X21973Y238050D01*
X21979Y237961D01*
X21989Y237872D01*
X22002Y237784D01*
X22019Y237696D01*
X22041Y237609D01*
X22066Y237524D01*
X22094Y237439D01*
X22127Y237356D01*
X22163Y237274D01*
X22202Y237194D01*
X22245Y237116D01*
X22291Y237040D01*
X22341Y236965D01*
X22394Y236893D01*
X22450Y236824D01*
X22509Y236757D01*
X22570Y236692D01*
X22635Y236631D01*
X22702Y236572D01*
X22771Y236516D01*
X22843Y236463D01*
X22918Y236413D01*
X22994Y236367D01*
X23072Y236324D01*
X23152Y236285D01*
X23234Y236249D01*
X23317Y236216D01*
X23402Y236188D01*
X23487Y236163D01*
X23574Y236141D01*
X23662Y236124D01*
X23750Y236111D01*
X23839Y236101D01*
X23928Y236095D01*
X24017Y236093D01*
X26063Y236093D01*
X26063Y243459D01*
X24017Y243459D01*
X23938Y243457D01*
X23859Y243451D01*
X23780Y243442D01*
X23702Y243429D01*
X23625Y243411D01*
X23549Y243391D01*
X23474Y243366D01*
X23400Y243338D01*
X23327Y243307D01*
X23256Y243271D01*
X23187Y243233D01*
X23120Y243191D01*
X23055Y243146D01*
X22992Y243098D01*
X22931Y243047D01*
X22874Y242993D01*
X22818Y242937D01*
X22766Y242878D01*
X22716Y242816D01*
X22670Y242752D01*
X22626Y242686D01*
X22586Y242618D01*
X22550Y242548D01*
X22516Y242476D01*
X22486Y242402D01*
X22460Y242328D01*
X22437Y242252D01*
X22419Y242175D01*
X22403Y242098D01*
X22392Y242019D01*
X22384Y241941D01*
X22380Y241862D01*
X22380Y241782D01*
X22384Y241703D01*
X22392Y241625D01*
X22403Y241546D01*
X22419Y241469D01*
X22437Y241392D01*
X22460Y241316D01*
X22486Y241242D01*
X22516Y241168D01*
X22550Y241096D01*
X22586Y241026D01*
X22626Y240958D01*
X22670Y240892D01*
X22716Y240828D01*
X22766Y240766D01*
X22818Y240707D01*
X22874Y240651D01*
X22931Y240597D01*
X22992Y240546D01*
X23055Y240498D01*
X23120Y240453D01*
X23187Y240411D01*
X23256Y240373D01*
X23327Y240337D01*
X23400Y240306D01*
X23474Y240278D01*
X23549Y240253D01*
X23625Y240233D01*
X23702Y240215D01*
X23780Y240202D01*
X23859Y240193D01*
X23938Y240187D01*
X24017Y240185D01*
X-39751Y250571D02*
X-39751Y259969D01*
X-42362Y259969D01*
X-42462Y259967D01*
X-42562Y259961D01*
X-42661Y259952D01*
X-42761Y259938D01*
X-42859Y259921D01*
X-42957Y259900D01*
X-43054Y259876D01*
X-43150Y259847D01*
X-43245Y259815D01*
X-43338Y259780D01*
X-43430Y259741D01*
X-43521Y259698D01*
X-43609Y259652D01*
X-43696Y259602D01*
X-43781Y259550D01*
X-43864Y259494D01*
X-43945Y259435D01*
X-44023Y259372D01*
X-44099Y259307D01*
X-44173Y259239D01*
X-44243Y259169D01*
X-44311Y259095D01*
X-44376Y259019D01*
X-44439Y258941D01*
X-44498Y258860D01*
X-44554Y258777D01*
X-44606Y258692D01*
X-44656Y258605D01*
X-44702Y258517D01*
X-44745Y258426D01*
X-44784Y258334D01*
X-44819Y258241D01*
X-44851Y258146D01*
X-44880Y258050D01*
X-44904Y257953D01*
X-44925Y257855D01*
X-44942Y257757D01*
X-44956Y257657D01*
X-44965Y257558D01*
X-44971Y257458D01*
X-44973Y257358D01*
X-44972Y257358D02*
X-44972Y253182D01*
X-44973Y253182D02*
X-44971Y253082D01*
X-44965Y252982D01*
X-44956Y252883D01*
X-44942Y252783D01*
X-44925Y252685D01*
X-44904Y252587D01*
X-44880Y252490D01*
X-44851Y252394D01*
X-44819Y252299D01*
X-44784Y252206D01*
X-44745Y252114D01*
X-44702Y252023D01*
X-44656Y251935D01*
X-44606Y251848D01*
X-44554Y251763D01*
X-44498Y251680D01*
X-44439Y251599D01*
X-44376Y251521D01*
X-44311Y251445D01*
X-44243Y251371D01*
X-44173Y251301D01*
X-44099Y251233D01*
X-44023Y251168D01*
X-43945Y251105D01*
X-43864Y251046D01*
X-43781Y250990D01*
X-43696Y250938D01*
X-43609Y250888D01*
X-43521Y250842D01*
X-43430Y250799D01*
X-43338Y250760D01*
X-43245Y250725D01*
X-43150Y250693D01*
X-43054Y250664D01*
X-42957Y250640D01*
X-42859Y250619D01*
X-42761Y250602D01*
X-42661Y250588D01*
X-42562Y250579D01*
X-42462Y250573D01*
X-42362Y250571D01*
X-39751Y250571D01*
X-51262Y250571D02*
X-53351Y250571D01*
X-51262Y250571D02*
X-51173Y250573D01*
X-51085Y250579D01*
X-50997Y250588D01*
X-50909Y250601D01*
X-50822Y250618D01*
X-50736Y250638D01*
X-50651Y250663D01*
X-50566Y250690D01*
X-50483Y250722D01*
X-50402Y250756D01*
X-50322Y250795D01*
X-50244Y250836D01*
X-50167Y250881D01*
X-50093Y250929D01*
X-50020Y250980D01*
X-49950Y251034D01*
X-49883Y251092D01*
X-49817Y251152D01*
X-49755Y251214D01*
X-49695Y251280D01*
X-49637Y251347D01*
X-49583Y251417D01*
X-49532Y251490D01*
X-49484Y251564D01*
X-49439Y251641D01*
X-49398Y251719D01*
X-49359Y251799D01*
X-49325Y251880D01*
X-49293Y251963D01*
X-49266Y252048D01*
X-49241Y252133D01*
X-49221Y252219D01*
X-49204Y252306D01*
X-49191Y252394D01*
X-49182Y252482D01*
X-49176Y252570D01*
X-49174Y252659D01*
X-49174Y257881D01*
X-49175Y257881D02*
X-49177Y257972D01*
X-49183Y258063D01*
X-49193Y258154D01*
X-49207Y258244D01*
X-49224Y258333D01*
X-49246Y258421D01*
X-49272Y258509D01*
X-49301Y258595D01*
X-49334Y258680D01*
X-49371Y258763D01*
X-49411Y258845D01*
X-49455Y258925D01*
X-49502Y259003D01*
X-49553Y259079D01*
X-49606Y259152D01*
X-49663Y259223D01*
X-49724Y259292D01*
X-49787Y259357D01*
X-49852Y259420D01*
X-49921Y259480D01*
X-49992Y259538D01*
X-50065Y259591D01*
X-50141Y259642D01*
X-50219Y259689D01*
X-50299Y259733D01*
X-50381Y259773D01*
X-50464Y259810D01*
X-50549Y259843D01*
X-50635Y259872D01*
X-50723Y259898D01*
X-50811Y259920D01*
X-50900Y259937D01*
X-50990Y259951D01*
X-51081Y259961D01*
X-51172Y259967D01*
X-51263Y259969D01*
X-51262Y259969D02*
X-53351Y259969D01*
X-63697Y259969D02*
X-63697Y250571D01*
X-61087Y259969D02*
X-66308Y259969D01*
X-71100Y250571D02*
X-73711Y250571D01*
X-71100Y250571D02*
X-71023Y250573D01*
X-70947Y250579D01*
X-70870Y250588D01*
X-70794Y250601D01*
X-70719Y250618D01*
X-70645Y250638D01*
X-70572Y250663D01*
X-70501Y250690D01*
X-70430Y250721D01*
X-70362Y250756D01*
X-70295Y250794D01*
X-70230Y250835D01*
X-70167Y250879D01*
X-70107Y250926D01*
X-70048Y250977D01*
X-69993Y251030D01*
X-69940Y251085D01*
X-69889Y251144D01*
X-69842Y251204D01*
X-69798Y251267D01*
X-69757Y251332D01*
X-69719Y251399D01*
X-69684Y251467D01*
X-69653Y251538D01*
X-69626Y251609D01*
X-69601Y251682D01*
X-69581Y251756D01*
X-69564Y251831D01*
X-69551Y251907D01*
X-69542Y251984D01*
X-69536Y252060D01*
X-69534Y252137D01*
X-69534Y254748D01*
X-69536Y254838D01*
X-69542Y254927D01*
X-69551Y255017D01*
X-69565Y255106D01*
X-69582Y255194D01*
X-69603Y255281D01*
X-69628Y255368D01*
X-69657Y255453D01*
X-69689Y255537D01*
X-69724Y255619D01*
X-69764Y255700D01*
X-69806Y255779D01*
X-69852Y255856D01*
X-69902Y255931D01*
X-69954Y256004D01*
X-70010Y256075D01*
X-70068Y256143D01*
X-70130Y256208D01*
X-70194Y256271D01*
X-70261Y256331D01*
X-70330Y256388D01*
X-70402Y256442D01*
X-70476Y256493D01*
X-70552Y256541D01*
X-70630Y256585D01*
X-70710Y256626D01*
X-70792Y256664D01*
X-70875Y256698D01*
X-70960Y256728D01*
X-71046Y256755D01*
X-71132Y256778D01*
X-71220Y256797D01*
X-71309Y256812D01*
X-71398Y256824D01*
X-71487Y256832D01*
X-71577Y256836D01*
X-71667Y256836D01*
X-71757Y256832D01*
X-71846Y256824D01*
X-71935Y256812D01*
X-72024Y256797D01*
X-72112Y256778D01*
X-72198Y256755D01*
X-72284Y256728D01*
X-72369Y256698D01*
X-72452Y256664D01*
X-72534Y256626D01*
X-72614Y256585D01*
X-72692Y256541D01*
X-72768Y256493D01*
X-72842Y256442D01*
X-72914Y256388D01*
X-72983Y256331D01*
X-73050Y256271D01*
X-73114Y256208D01*
X-73176Y256143D01*
X-73234Y256075D01*
X-73290Y256004D01*
X-73342Y255931D01*
X-73392Y255856D01*
X-73438Y255779D01*
X-73480Y255700D01*
X-73520Y255619D01*
X-73555Y255537D01*
X-73587Y255453D01*
X-73616Y255368D01*
X-73641Y255281D01*
X-73662Y255194D01*
X-73679Y255106D01*
X-73693Y255017D01*
X-73702Y254927D01*
X-73708Y254838D01*
X-73710Y254748D01*
X-73711Y254748D02*
X-73711Y253704D01*
X-69534Y253704D01*
X-77815Y250571D02*
X-77815Y256836D01*
X-80947Y256836D01*
X-80947Y255792D01*
X-84339Y256836D02*
X-84339Y250571D01*
X-84339Y256836D02*
X-89038Y256836D01*
X-89115Y256834D01*
X-89191Y256828D01*
X-89268Y256819D01*
X-89344Y256806D01*
X-89419Y256789D01*
X-89493Y256769D01*
X-89566Y256744D01*
X-89637Y256717D01*
X-89708Y256686D01*
X-89776Y256651D01*
X-89843Y256613D01*
X-89908Y256572D01*
X-89971Y256528D01*
X-90031Y256481D01*
X-90090Y256430D01*
X-90145Y256377D01*
X-90198Y256322D01*
X-90249Y256263D01*
X-90296Y256203D01*
X-90340Y256140D01*
X-90381Y256075D01*
X-90419Y256008D01*
X-90454Y255940D01*
X-90485Y255869D01*
X-90512Y255798D01*
X-90537Y255725D01*
X-90557Y255651D01*
X-90574Y255576D01*
X-90587Y255500D01*
X-90596Y255423D01*
X-90602Y255347D01*
X-90604Y255270D01*
X-90604Y250571D01*
X-87472Y250571D02*
X-87472Y256836D01*
X18893Y281173D02*
X18893Y288539D01*
X16847Y288539D01*
X16758Y288537D01*
X16669Y288531D01*
X16580Y288521D01*
X16492Y288508D01*
X16404Y288491D01*
X16317Y288469D01*
X16232Y288444D01*
X16147Y288416D01*
X16064Y288383D01*
X15982Y288347D01*
X15902Y288308D01*
X15824Y288265D01*
X15748Y288219D01*
X15673Y288169D01*
X15601Y288116D01*
X15532Y288060D01*
X15465Y288001D01*
X15400Y287940D01*
X15339Y287875D01*
X15280Y287808D01*
X15224Y287739D01*
X15171Y287667D01*
X15121Y287592D01*
X15075Y287516D01*
X15032Y287438D01*
X14993Y287358D01*
X14957Y287276D01*
X14924Y287193D01*
X14896Y287108D01*
X14871Y287023D01*
X14849Y286936D01*
X14832Y286848D01*
X14819Y286760D01*
X14809Y286671D01*
X14803Y286582D01*
X14801Y286493D01*
X14803Y286404D01*
X14809Y286315D01*
X14819Y286226D01*
X14832Y286138D01*
X14849Y286050D01*
X14871Y285963D01*
X14896Y285878D01*
X14924Y285793D01*
X14957Y285710D01*
X14993Y285628D01*
X15032Y285548D01*
X15075Y285470D01*
X15121Y285394D01*
X15171Y285319D01*
X15224Y285247D01*
X15280Y285178D01*
X15339Y285111D01*
X15400Y285046D01*
X15465Y284985D01*
X15532Y284926D01*
X15601Y284870D01*
X15673Y284817D01*
X15748Y284767D01*
X15824Y284721D01*
X15902Y284678D01*
X15982Y284639D01*
X16064Y284603D01*
X16147Y284570D01*
X16232Y284542D01*
X16317Y284517D01*
X16404Y284495D01*
X16492Y284478D01*
X16580Y284465D01*
X16669Y284455D01*
X16758Y284449D01*
X16847Y284447D01*
X18893Y284447D01*
X16438Y284447D02*
X14801Y281173D01*
X11629Y281173D02*
X9174Y281173D01*
X9094Y281175D01*
X9014Y281181D01*
X8934Y281191D01*
X8855Y281204D01*
X8776Y281222D01*
X8699Y281243D01*
X8623Y281269D01*
X8548Y281298D01*
X8474Y281330D01*
X8402Y281366D01*
X8332Y281406D01*
X8265Y281449D01*
X8199Y281495D01*
X8136Y281545D01*
X8075Y281597D01*
X8016Y281652D01*
X7961Y281711D01*
X7909Y281771D01*
X7859Y281835D01*
X7813Y281900D01*
X7770Y281968D01*
X7730Y282038D01*
X7694Y282110D01*
X7662Y282184D01*
X7633Y282258D01*
X7608Y282335D01*
X7586Y282412D01*
X7568Y282491D01*
X7555Y282570D01*
X7545Y282649D01*
X7539Y282730D01*
X7537Y282810D01*
X7537Y283628D01*
X7539Y283706D01*
X7544Y283784D01*
X7554Y283861D01*
X7567Y283938D01*
X7583Y284014D01*
X7603Y284089D01*
X7627Y284163D01*
X7654Y284236D01*
X7685Y284308D01*
X7719Y284378D01*
X7756Y284447D01*
X7797Y284513D01*
X7841Y284578D01*
X7887Y284640D01*
X7937Y284700D01*
X7989Y284758D01*
X8044Y284813D01*
X8102Y284865D01*
X8162Y284915D01*
X8224Y284961D01*
X8289Y285005D01*
X8356Y285046D01*
X8424Y285083D01*
X8494Y285117D01*
X8566Y285148D01*
X8639Y285175D01*
X8713Y285199D01*
X8788Y285219D01*
X8864Y285235D01*
X8941Y285248D01*
X9018Y285258D01*
X9096Y285263D01*
X9174Y285265D01*
X11629Y285265D01*
X11629Y288539D01*
X7537Y288539D01*
X65273Y256281D02*
X65273Y246883D01*
X65273Y256281D02*
X62662Y256281D01*
X62561Y256279D01*
X62460Y256273D01*
X62359Y256263D01*
X62259Y256250D01*
X62159Y256232D01*
X62060Y256211D01*
X61962Y256185D01*
X61865Y256156D01*
X61769Y256124D01*
X61675Y256087D01*
X61582Y256047D01*
X61490Y256003D01*
X61401Y255956D01*
X61313Y255905D01*
X61227Y255851D01*
X61144Y255794D01*
X61062Y255734D01*
X60984Y255670D01*
X60907Y255604D01*
X60834Y255534D01*
X60763Y255462D01*
X60695Y255387D01*
X60630Y255309D01*
X60568Y255229D01*
X60509Y255147D01*
X60453Y255062D01*
X60401Y254976D01*
X60352Y254887D01*
X60306Y254796D01*
X60265Y254704D01*
X60226Y254610D01*
X60192Y254515D01*
X60161Y254419D01*
X60134Y254321D01*
X60110Y254223D01*
X60091Y254123D01*
X60075Y254023D01*
X60063Y253923D01*
X60055Y253822D01*
X60051Y253721D01*
X60051Y253619D01*
X60055Y253518D01*
X60063Y253417D01*
X60075Y253317D01*
X60091Y253217D01*
X60110Y253117D01*
X60134Y253019D01*
X60161Y252921D01*
X60192Y252825D01*
X60226Y252730D01*
X60265Y252636D01*
X60306Y252544D01*
X60352Y252453D01*
X60401Y252365D01*
X60453Y252278D01*
X60509Y252193D01*
X60568Y252111D01*
X60630Y252031D01*
X60695Y251953D01*
X60763Y251878D01*
X60834Y251806D01*
X60907Y251736D01*
X60984Y251670D01*
X61062Y251606D01*
X61144Y251546D01*
X61227Y251489D01*
X61313Y251435D01*
X61401Y251384D01*
X61490Y251337D01*
X61582Y251293D01*
X61675Y251253D01*
X61769Y251216D01*
X61865Y251184D01*
X61962Y251155D01*
X62060Y251129D01*
X62159Y251108D01*
X62259Y251090D01*
X62359Y251077D01*
X62460Y251067D01*
X62561Y251061D01*
X62662Y251059D01*
X62662Y251060D02*
X65273Y251060D01*
X62140Y251060D02*
X60052Y246883D01*
X56186Y248971D02*
X54098Y256281D01*
X56186Y248971D02*
X50965Y248971D01*
X52531Y251060D02*
X52531Y246883D01*
D13*
X58420Y213614D02*
X65278Y213614D01*
D12*
X69469Y222631D02*
X69469Y229997D01*
X66195Y229997D01*
X66195Y226723D02*
X69469Y226723D01*
X63027Y226723D02*
X60981Y226723D01*
X60892Y226721D01*
X60803Y226715D01*
X60714Y226705D01*
X60626Y226692D01*
X60538Y226675D01*
X60451Y226653D01*
X60366Y226628D01*
X60281Y226600D01*
X60198Y226567D01*
X60116Y226531D01*
X60036Y226492D01*
X59958Y226449D01*
X59882Y226403D01*
X59807Y226353D01*
X59735Y226300D01*
X59666Y226244D01*
X59599Y226185D01*
X59534Y226124D01*
X59473Y226059D01*
X59414Y225992D01*
X59358Y225923D01*
X59305Y225851D01*
X59255Y225776D01*
X59209Y225700D01*
X59166Y225622D01*
X59127Y225542D01*
X59091Y225460D01*
X59058Y225377D01*
X59030Y225292D01*
X59005Y225207D01*
X58983Y225120D01*
X58966Y225032D01*
X58953Y224944D01*
X58943Y224855D01*
X58937Y224766D01*
X58935Y224677D01*
X58937Y224588D01*
X58943Y224499D01*
X58953Y224410D01*
X58966Y224322D01*
X58983Y224234D01*
X59005Y224147D01*
X59030Y224062D01*
X59058Y223977D01*
X59091Y223894D01*
X59127Y223812D01*
X59166Y223732D01*
X59209Y223654D01*
X59255Y223578D01*
X59305Y223503D01*
X59358Y223431D01*
X59414Y223362D01*
X59473Y223295D01*
X59534Y223230D01*
X59599Y223169D01*
X59666Y223110D01*
X59735Y223054D01*
X59807Y223001D01*
X59882Y222951D01*
X59958Y222905D01*
X60036Y222862D01*
X60116Y222823D01*
X60198Y222787D01*
X60281Y222754D01*
X60366Y222726D01*
X60451Y222701D01*
X60538Y222679D01*
X60626Y222662D01*
X60714Y222649D01*
X60803Y222639D01*
X60892Y222633D01*
X60981Y222631D01*
X63027Y222631D01*
X63027Y229997D01*
X60981Y229997D01*
X60902Y229995D01*
X60823Y229989D01*
X60744Y229980D01*
X60666Y229967D01*
X60589Y229949D01*
X60513Y229929D01*
X60438Y229904D01*
X60364Y229876D01*
X60291Y229845D01*
X60220Y229809D01*
X60151Y229771D01*
X60084Y229729D01*
X60019Y229684D01*
X59956Y229636D01*
X59895Y229585D01*
X59838Y229531D01*
X59782Y229475D01*
X59730Y229416D01*
X59680Y229354D01*
X59634Y229290D01*
X59590Y229224D01*
X59550Y229156D01*
X59514Y229086D01*
X59480Y229014D01*
X59450Y228940D01*
X59424Y228866D01*
X59401Y228790D01*
X59383Y228713D01*
X59367Y228636D01*
X59356Y228557D01*
X59348Y228479D01*
X59344Y228400D01*
X59344Y228320D01*
X59348Y228241D01*
X59356Y228163D01*
X59367Y228084D01*
X59383Y228007D01*
X59401Y227930D01*
X59424Y227854D01*
X59450Y227780D01*
X59480Y227706D01*
X59514Y227634D01*
X59550Y227564D01*
X59590Y227496D01*
X59634Y227430D01*
X59680Y227366D01*
X59730Y227304D01*
X59782Y227245D01*
X59838Y227189D01*
X59895Y227135D01*
X59956Y227084D01*
X60019Y227036D01*
X60084Y226991D01*
X60151Y226949D01*
X60220Y226911D01*
X60291Y226875D01*
X60364Y226844D01*
X60438Y226816D01*
X60513Y226791D01*
X60589Y226771D01*
X60666Y226753D01*
X60744Y226740D01*
X60823Y226731D01*
X60902Y226725D01*
X60981Y226723D01*
X56074Y228360D02*
X54027Y229997D01*
X54027Y222631D01*
X51981Y222631D02*
X56074Y222631D01*
D13*
X102870Y158242D02*
X102870Y151892D01*
D12*
X112141Y151511D02*
X119507Y151511D01*
X119507Y153557D01*
X119505Y153646D01*
X119499Y153735D01*
X119489Y153824D01*
X119476Y153912D01*
X119459Y154000D01*
X119437Y154087D01*
X119412Y154172D01*
X119384Y154257D01*
X119351Y154340D01*
X119315Y154422D01*
X119276Y154502D01*
X119233Y154580D01*
X119187Y154656D01*
X119137Y154731D01*
X119084Y154803D01*
X119028Y154872D01*
X118969Y154939D01*
X118908Y155004D01*
X118843Y155065D01*
X118776Y155124D01*
X118707Y155180D01*
X118635Y155233D01*
X118560Y155283D01*
X118484Y155329D01*
X118406Y155372D01*
X118326Y155411D01*
X118244Y155447D01*
X118161Y155480D01*
X118076Y155508D01*
X117991Y155533D01*
X117904Y155555D01*
X117816Y155572D01*
X117728Y155585D01*
X117639Y155595D01*
X117550Y155601D01*
X117461Y155603D01*
X117372Y155601D01*
X117283Y155595D01*
X117194Y155585D01*
X117106Y155572D01*
X117018Y155555D01*
X116931Y155533D01*
X116846Y155508D01*
X116761Y155480D01*
X116678Y155447D01*
X116596Y155411D01*
X116516Y155372D01*
X116438Y155329D01*
X116362Y155283D01*
X116287Y155233D01*
X116215Y155180D01*
X116146Y155124D01*
X116079Y155065D01*
X116014Y155004D01*
X115953Y154939D01*
X115894Y154872D01*
X115838Y154803D01*
X115785Y154731D01*
X115735Y154656D01*
X115689Y154580D01*
X115646Y154502D01*
X115607Y154422D01*
X115571Y154340D01*
X115538Y154257D01*
X115510Y154172D01*
X115485Y154087D01*
X115463Y154000D01*
X115446Y153912D01*
X115433Y153824D01*
X115423Y153735D01*
X115417Y153646D01*
X115415Y153557D01*
X115415Y151511D01*
X115415Y153966D02*
X112141Y155603D01*
X117870Y158775D02*
X119507Y160821D01*
X112141Y160821D01*
X112141Y158775D02*
X112141Y162867D01*
X83947Y136102D02*
X76581Y131191D01*
X76581Y136102D02*
X83947Y131191D01*
X82310Y138915D02*
X83947Y140962D01*
X76581Y140962D01*
X76581Y143008D02*
X76581Y138915D01*
X36532Y175494D02*
X36532Y179473D01*
X36532Y175494D02*
X34211Y172509D01*
X36532Y175494D02*
X38854Y172509D01*
X36532Y175494D02*
X32885Y176820D01*
X36532Y175494D02*
X40180Y176820D01*
D14*
X-30534Y182203D02*
X-30534Y187706D01*
X-30534Y182203D02*
X-30536Y182112D01*
X-30542Y182021D01*
X-30552Y181930D01*
X-30565Y181840D01*
X-30583Y181751D01*
X-30604Y181662D01*
X-30629Y181575D01*
X-30658Y181488D01*
X-30691Y181403D01*
X-30727Y181320D01*
X-30767Y181238D01*
X-30810Y181158D01*
X-30857Y181079D01*
X-30907Y181003D01*
X-30960Y180929D01*
X-31016Y180858D01*
X-31076Y180789D01*
X-31138Y180722D01*
X-31203Y180659D01*
X-31271Y180598D01*
X-31341Y180540D01*
X-31414Y180485D01*
X-31489Y180433D01*
X-31566Y180385D01*
X-31646Y180340D01*
X-31727Y180298D01*
X-31809Y180260D01*
X-31894Y180226D01*
X-31980Y180195D01*
X-32067Y180168D01*
X-32155Y180145D01*
X-32244Y180126D01*
X-32333Y180110D01*
X-32424Y180098D01*
X-32514Y180090D01*
X-32605Y180086D01*
X-32697Y180086D01*
X-32788Y180090D01*
X-32878Y180098D01*
X-32969Y180110D01*
X-33058Y180126D01*
X-33147Y180145D01*
X-33235Y180168D01*
X-33322Y180195D01*
X-33408Y180226D01*
X-33493Y180260D01*
X-33575Y180298D01*
X-33656Y180340D01*
X-33736Y180385D01*
X-33813Y180433D01*
X-33888Y180485D01*
X-33961Y180540D01*
X-34031Y180598D01*
X-34099Y180659D01*
X-34164Y180722D01*
X-34226Y180789D01*
X-34286Y180858D01*
X-34342Y180929D01*
X-34395Y181003D01*
X-34445Y181079D01*
X-34492Y181158D01*
X-34535Y181238D01*
X-34575Y181320D01*
X-34611Y181403D01*
X-34644Y181488D01*
X-34673Y181575D01*
X-34698Y181662D01*
X-34719Y181751D01*
X-34737Y181840D01*
X-34750Y181930D01*
X-34760Y182021D01*
X-34766Y182112D01*
X-34768Y182203D01*
X-34767Y182203D02*
X-34767Y187706D01*
X-38093Y186013D02*
X-40210Y187706D01*
X-40210Y180086D01*
X-42326Y180086D02*
X-38093Y180086D01*
D13*
X-57150Y168402D02*
X-57150Y162052D01*
D12*
X-54483Y181991D02*
X-61849Y181991D01*
X-54483Y181991D02*
X-54483Y184037D01*
X-54485Y184126D01*
X-54491Y184215D01*
X-54501Y184304D01*
X-54514Y184392D01*
X-54531Y184480D01*
X-54553Y184567D01*
X-54578Y184652D01*
X-54606Y184737D01*
X-54639Y184820D01*
X-54675Y184902D01*
X-54714Y184982D01*
X-54757Y185060D01*
X-54803Y185136D01*
X-54853Y185211D01*
X-54906Y185283D01*
X-54962Y185352D01*
X-55021Y185419D01*
X-55082Y185484D01*
X-55147Y185545D01*
X-55214Y185604D01*
X-55283Y185660D01*
X-55355Y185713D01*
X-55430Y185763D01*
X-55506Y185809D01*
X-55584Y185852D01*
X-55664Y185891D01*
X-55746Y185927D01*
X-55829Y185960D01*
X-55914Y185988D01*
X-55999Y186013D01*
X-56086Y186035D01*
X-56174Y186052D01*
X-56262Y186065D01*
X-56351Y186075D01*
X-56440Y186081D01*
X-56529Y186083D01*
X-56618Y186081D01*
X-56707Y186075D01*
X-56796Y186065D01*
X-56884Y186052D01*
X-56972Y186035D01*
X-57059Y186013D01*
X-57144Y185988D01*
X-57229Y185960D01*
X-57312Y185927D01*
X-57394Y185891D01*
X-57474Y185852D01*
X-57552Y185809D01*
X-57628Y185763D01*
X-57703Y185713D01*
X-57775Y185660D01*
X-57844Y185604D01*
X-57911Y185545D01*
X-57976Y185484D01*
X-58037Y185419D01*
X-58096Y185352D01*
X-58152Y185283D01*
X-58205Y185211D01*
X-58255Y185136D01*
X-58301Y185060D01*
X-58344Y184982D01*
X-58383Y184902D01*
X-58419Y184820D01*
X-58452Y184737D01*
X-58480Y184652D01*
X-58505Y184567D01*
X-58527Y184480D01*
X-58544Y184392D01*
X-58557Y184304D01*
X-58567Y184215D01*
X-58573Y184126D01*
X-58575Y184037D01*
X-58575Y181991D01*
X-58575Y184446D02*
X-61849Y186083D01*
X-61849Y189255D02*
X-61849Y191301D01*
X-61847Y191390D01*
X-61841Y191479D01*
X-61831Y191568D01*
X-61818Y191656D01*
X-61801Y191744D01*
X-61779Y191831D01*
X-61754Y191916D01*
X-61726Y192001D01*
X-61693Y192084D01*
X-61657Y192166D01*
X-61618Y192246D01*
X-61575Y192324D01*
X-61529Y192400D01*
X-61479Y192475D01*
X-61426Y192547D01*
X-61370Y192616D01*
X-61311Y192683D01*
X-61250Y192748D01*
X-61185Y192809D01*
X-61118Y192868D01*
X-61049Y192924D01*
X-60977Y192977D01*
X-60902Y193027D01*
X-60826Y193073D01*
X-60748Y193116D01*
X-60668Y193155D01*
X-60586Y193191D01*
X-60503Y193224D01*
X-60418Y193252D01*
X-60333Y193277D01*
X-60246Y193299D01*
X-60158Y193316D01*
X-60070Y193329D01*
X-59981Y193339D01*
X-59892Y193345D01*
X-59803Y193347D01*
X-59714Y193345D01*
X-59625Y193339D01*
X-59536Y193329D01*
X-59448Y193316D01*
X-59360Y193299D01*
X-59273Y193277D01*
X-59188Y193252D01*
X-59103Y193224D01*
X-59020Y193191D01*
X-58938Y193155D01*
X-58858Y193116D01*
X-58780Y193073D01*
X-58704Y193027D01*
X-58629Y192977D01*
X-58557Y192924D01*
X-58488Y192868D01*
X-58421Y192809D01*
X-58356Y192748D01*
X-58295Y192683D01*
X-58236Y192616D01*
X-58180Y192547D01*
X-58127Y192475D01*
X-58077Y192400D01*
X-58031Y192324D01*
X-57988Y192246D01*
X-57949Y192166D01*
X-57913Y192084D01*
X-57880Y192001D01*
X-57852Y191916D01*
X-57827Y191831D01*
X-57805Y191744D01*
X-57788Y191656D01*
X-57775Y191568D01*
X-57765Y191479D01*
X-57759Y191390D01*
X-57757Y191301D01*
X-54483Y191710D02*
X-54483Y189255D01*
X-54483Y191710D02*
X-54485Y191789D01*
X-54491Y191868D01*
X-54500Y191947D01*
X-54513Y192025D01*
X-54531Y192102D01*
X-54551Y192178D01*
X-54576Y192253D01*
X-54604Y192327D01*
X-54635Y192400D01*
X-54671Y192471D01*
X-54709Y192540D01*
X-54751Y192607D01*
X-54796Y192672D01*
X-54844Y192735D01*
X-54895Y192796D01*
X-54949Y192853D01*
X-55005Y192909D01*
X-55064Y192961D01*
X-55126Y193011D01*
X-55190Y193057D01*
X-55256Y193101D01*
X-55324Y193141D01*
X-55394Y193177D01*
X-55466Y193211D01*
X-55540Y193241D01*
X-55614Y193267D01*
X-55690Y193290D01*
X-55767Y193308D01*
X-55844Y193324D01*
X-55923Y193335D01*
X-56001Y193343D01*
X-56080Y193347D01*
X-56160Y193347D01*
X-56239Y193343D01*
X-56317Y193335D01*
X-56396Y193324D01*
X-56473Y193308D01*
X-56550Y193290D01*
X-56626Y193267D01*
X-56700Y193241D01*
X-56774Y193211D01*
X-56846Y193177D01*
X-56916Y193141D01*
X-56984Y193101D01*
X-57050Y193057D01*
X-57114Y193011D01*
X-57176Y192961D01*
X-57235Y192909D01*
X-57291Y192853D01*
X-57345Y192796D01*
X-57396Y192735D01*
X-57444Y192672D01*
X-57489Y192607D01*
X-57531Y192540D01*
X-57569Y192471D01*
X-57605Y192400D01*
X-57636Y192327D01*
X-57664Y192253D01*
X-57689Y192178D01*
X-57709Y192102D01*
X-57727Y192025D01*
X-57740Y191947D01*
X-57749Y191868D01*
X-57755Y191789D01*
X-57757Y191710D01*
X-57757Y190073D01*
D13*
X60198Y101600D02*
X66802Y101600D01*
D12*
X44972Y96901D02*
X43335Y96901D01*
X44972Y96901D02*
X45050Y96903D01*
X45128Y96908D01*
X45205Y96918D01*
X45282Y96931D01*
X45358Y96947D01*
X45433Y96967D01*
X45507Y96991D01*
X45580Y97018D01*
X45652Y97049D01*
X45722Y97083D01*
X45791Y97120D01*
X45857Y97161D01*
X45922Y97205D01*
X45984Y97251D01*
X46044Y97301D01*
X46102Y97353D01*
X46157Y97408D01*
X46209Y97466D01*
X46259Y97526D01*
X46305Y97588D01*
X46349Y97653D01*
X46390Y97720D01*
X46427Y97788D01*
X46461Y97858D01*
X46492Y97930D01*
X46519Y98003D01*
X46543Y98077D01*
X46563Y98152D01*
X46579Y98228D01*
X46592Y98305D01*
X46602Y98382D01*
X46607Y98460D01*
X46609Y98538D01*
X46609Y102630D01*
X46607Y102708D01*
X46602Y102786D01*
X46592Y102863D01*
X46579Y102940D01*
X46563Y103016D01*
X46543Y103091D01*
X46519Y103165D01*
X46492Y103238D01*
X46461Y103310D01*
X46427Y103380D01*
X46390Y103449D01*
X46349Y103515D01*
X46305Y103580D01*
X46259Y103642D01*
X46209Y103702D01*
X46157Y103760D01*
X46102Y103815D01*
X46044Y103867D01*
X45984Y103917D01*
X45922Y103963D01*
X45857Y104007D01*
X45791Y104048D01*
X45722Y104085D01*
X45652Y104119D01*
X45580Y104150D01*
X45507Y104177D01*
X45433Y104201D01*
X45358Y104221D01*
X45282Y104237D01*
X45205Y104250D01*
X45128Y104260D01*
X45050Y104265D01*
X44972Y104267D01*
X43335Y104267D01*
X40490Y96901D02*
X38444Y96901D01*
X38355Y96903D01*
X38266Y96909D01*
X38177Y96919D01*
X38089Y96932D01*
X38001Y96949D01*
X37914Y96971D01*
X37829Y96996D01*
X37744Y97024D01*
X37661Y97057D01*
X37579Y97093D01*
X37499Y97132D01*
X37421Y97175D01*
X37345Y97221D01*
X37270Y97271D01*
X37198Y97324D01*
X37129Y97380D01*
X37062Y97439D01*
X36997Y97500D01*
X36936Y97565D01*
X36877Y97632D01*
X36821Y97701D01*
X36768Y97773D01*
X36718Y97848D01*
X36672Y97924D01*
X36629Y98002D01*
X36590Y98082D01*
X36554Y98164D01*
X36521Y98247D01*
X36493Y98332D01*
X36468Y98417D01*
X36446Y98504D01*
X36429Y98592D01*
X36416Y98680D01*
X36406Y98769D01*
X36400Y98858D01*
X36398Y98947D01*
X36400Y99036D01*
X36406Y99125D01*
X36416Y99214D01*
X36429Y99302D01*
X36446Y99390D01*
X36468Y99477D01*
X36493Y99562D01*
X36521Y99647D01*
X36554Y99730D01*
X36590Y99812D01*
X36629Y99892D01*
X36672Y99970D01*
X36718Y100046D01*
X36768Y100121D01*
X36821Y100193D01*
X36877Y100262D01*
X36936Y100329D01*
X36997Y100394D01*
X37062Y100455D01*
X37129Y100514D01*
X37198Y100570D01*
X37270Y100623D01*
X37345Y100673D01*
X37421Y100719D01*
X37499Y100762D01*
X37579Y100801D01*
X37661Y100837D01*
X37744Y100870D01*
X37829Y100898D01*
X37914Y100923D01*
X38001Y100945D01*
X38089Y100962D01*
X38177Y100975D01*
X38266Y100985D01*
X38355Y100991D01*
X38444Y100993D01*
X38035Y104267D02*
X40490Y104267D01*
X38035Y104267D02*
X37956Y104265D01*
X37877Y104259D01*
X37798Y104250D01*
X37720Y104237D01*
X37643Y104219D01*
X37567Y104199D01*
X37492Y104174D01*
X37418Y104146D01*
X37345Y104115D01*
X37274Y104079D01*
X37205Y104041D01*
X37138Y103999D01*
X37073Y103954D01*
X37010Y103906D01*
X36949Y103855D01*
X36892Y103801D01*
X36836Y103745D01*
X36784Y103686D01*
X36734Y103624D01*
X36688Y103560D01*
X36644Y103494D01*
X36604Y103426D01*
X36568Y103356D01*
X36534Y103284D01*
X36504Y103210D01*
X36478Y103136D01*
X36455Y103060D01*
X36437Y102983D01*
X36421Y102906D01*
X36410Y102827D01*
X36402Y102749D01*
X36398Y102670D01*
X36398Y102590D01*
X36402Y102511D01*
X36410Y102433D01*
X36421Y102354D01*
X36437Y102277D01*
X36455Y102200D01*
X36478Y102124D01*
X36504Y102050D01*
X36534Y101976D01*
X36568Y101904D01*
X36604Y101834D01*
X36644Y101766D01*
X36688Y101700D01*
X36734Y101636D01*
X36784Y101574D01*
X36836Y101515D01*
X36892Y101459D01*
X36949Y101405D01*
X37010Y101354D01*
X37073Y101306D01*
X37138Y101261D01*
X37205Y101219D01*
X37274Y101181D01*
X37345Y101145D01*
X37418Y101114D01*
X37492Y101086D01*
X37567Y101061D01*
X37643Y101041D01*
X37720Y101023D01*
X37798Y101010D01*
X37877Y101001D01*
X37956Y100995D01*
X38035Y100993D01*
X39672Y100993D01*
D13*
X58928Y187960D02*
X65532Y187960D01*
D12*
X87329Y182753D02*
X88965Y182753D01*
X89043Y182755D01*
X89121Y182760D01*
X89198Y182770D01*
X89275Y182783D01*
X89351Y182799D01*
X89426Y182819D01*
X89500Y182843D01*
X89573Y182870D01*
X89645Y182901D01*
X89715Y182935D01*
X89784Y182972D01*
X89850Y183013D01*
X89915Y183057D01*
X89977Y183103D01*
X90037Y183153D01*
X90095Y183205D01*
X90150Y183260D01*
X90202Y183318D01*
X90252Y183378D01*
X90298Y183440D01*
X90342Y183505D01*
X90383Y183572D01*
X90420Y183640D01*
X90454Y183710D01*
X90485Y183782D01*
X90512Y183855D01*
X90536Y183929D01*
X90556Y184004D01*
X90572Y184080D01*
X90585Y184157D01*
X90595Y184234D01*
X90600Y184312D01*
X90602Y184390D01*
X90602Y188482D01*
X90600Y188560D01*
X90595Y188638D01*
X90585Y188715D01*
X90572Y188792D01*
X90556Y188868D01*
X90536Y188943D01*
X90512Y189017D01*
X90485Y189090D01*
X90454Y189162D01*
X90420Y189232D01*
X90383Y189301D01*
X90342Y189367D01*
X90298Y189432D01*
X90252Y189494D01*
X90202Y189554D01*
X90150Y189612D01*
X90095Y189667D01*
X90037Y189719D01*
X89977Y189769D01*
X89915Y189815D01*
X89850Y189859D01*
X89784Y189900D01*
X89715Y189937D01*
X89645Y189971D01*
X89573Y190002D01*
X89500Y190029D01*
X89426Y190053D01*
X89351Y190073D01*
X89275Y190089D01*
X89198Y190102D01*
X89121Y190112D01*
X89043Y190117D01*
X88965Y190119D01*
X87329Y190119D01*
X84483Y182753D02*
X82028Y182753D01*
X81948Y182755D01*
X81868Y182761D01*
X81788Y182771D01*
X81709Y182784D01*
X81630Y182802D01*
X81553Y182823D01*
X81477Y182849D01*
X81402Y182878D01*
X81328Y182910D01*
X81256Y182946D01*
X81186Y182986D01*
X81119Y183029D01*
X81053Y183075D01*
X80990Y183125D01*
X80929Y183177D01*
X80870Y183232D01*
X80815Y183291D01*
X80763Y183351D01*
X80713Y183415D01*
X80667Y183480D01*
X80624Y183548D01*
X80584Y183618D01*
X80548Y183690D01*
X80516Y183764D01*
X80487Y183838D01*
X80462Y183915D01*
X80440Y183992D01*
X80422Y184071D01*
X80409Y184150D01*
X80399Y184229D01*
X80393Y184310D01*
X80391Y184390D01*
X80391Y185208D01*
X80393Y185286D01*
X80398Y185364D01*
X80408Y185441D01*
X80421Y185518D01*
X80437Y185594D01*
X80457Y185669D01*
X80481Y185743D01*
X80508Y185816D01*
X80539Y185888D01*
X80573Y185958D01*
X80610Y186027D01*
X80651Y186093D01*
X80695Y186158D01*
X80741Y186220D01*
X80791Y186280D01*
X80843Y186338D01*
X80898Y186393D01*
X80956Y186445D01*
X81016Y186495D01*
X81078Y186541D01*
X81143Y186585D01*
X81210Y186626D01*
X81278Y186663D01*
X81348Y186697D01*
X81420Y186728D01*
X81493Y186755D01*
X81567Y186779D01*
X81642Y186799D01*
X81718Y186815D01*
X81795Y186828D01*
X81872Y186838D01*
X81950Y186843D01*
X82028Y186845D01*
X84483Y186845D01*
X84483Y190119D01*
X80391Y190119D01*
D13*
X65532Y196850D02*
X58928Y196850D01*
D12*
X87329Y192913D02*
X88965Y192913D01*
X89043Y192915D01*
X89121Y192920D01*
X89198Y192930D01*
X89275Y192943D01*
X89351Y192959D01*
X89426Y192979D01*
X89500Y193003D01*
X89573Y193030D01*
X89645Y193061D01*
X89715Y193095D01*
X89784Y193132D01*
X89850Y193173D01*
X89915Y193217D01*
X89977Y193263D01*
X90037Y193313D01*
X90095Y193365D01*
X90150Y193420D01*
X90202Y193478D01*
X90252Y193538D01*
X90298Y193600D01*
X90342Y193665D01*
X90383Y193732D01*
X90420Y193800D01*
X90454Y193870D01*
X90485Y193942D01*
X90512Y194015D01*
X90536Y194089D01*
X90556Y194164D01*
X90572Y194240D01*
X90585Y194317D01*
X90595Y194394D01*
X90600Y194472D01*
X90602Y194550D01*
X90602Y198642D01*
X90600Y198720D01*
X90595Y198798D01*
X90585Y198875D01*
X90572Y198952D01*
X90556Y199028D01*
X90536Y199103D01*
X90512Y199177D01*
X90485Y199250D01*
X90454Y199322D01*
X90420Y199392D01*
X90383Y199461D01*
X90342Y199527D01*
X90298Y199592D01*
X90252Y199654D01*
X90202Y199714D01*
X90150Y199772D01*
X90095Y199827D01*
X90037Y199879D01*
X89977Y199929D01*
X89915Y199975D01*
X89850Y200019D01*
X89784Y200060D01*
X89715Y200097D01*
X89645Y200131D01*
X89573Y200162D01*
X89500Y200189D01*
X89426Y200213D01*
X89351Y200233D01*
X89275Y200249D01*
X89198Y200262D01*
X89121Y200272D01*
X89043Y200277D01*
X88965Y200279D01*
X87329Y200279D01*
X84483Y197005D02*
X82028Y197005D01*
X81948Y197003D01*
X81868Y196997D01*
X81788Y196987D01*
X81709Y196974D01*
X81630Y196956D01*
X81553Y196935D01*
X81477Y196909D01*
X81402Y196880D01*
X81328Y196848D01*
X81256Y196812D01*
X81186Y196772D01*
X81119Y196729D01*
X81053Y196683D01*
X80990Y196633D01*
X80929Y196581D01*
X80870Y196526D01*
X80815Y196467D01*
X80763Y196407D01*
X80713Y196343D01*
X80667Y196277D01*
X80624Y196210D01*
X80584Y196140D01*
X80548Y196068D01*
X80516Y195994D01*
X80487Y195920D01*
X80461Y195843D01*
X80440Y195766D01*
X80422Y195687D01*
X80409Y195608D01*
X80399Y195528D01*
X80393Y195448D01*
X80391Y195368D01*
X80391Y194959D01*
X80393Y194870D01*
X80399Y194781D01*
X80409Y194692D01*
X80422Y194604D01*
X80439Y194516D01*
X80461Y194429D01*
X80486Y194344D01*
X80514Y194259D01*
X80547Y194176D01*
X80583Y194094D01*
X80622Y194014D01*
X80665Y193936D01*
X80711Y193860D01*
X80761Y193785D01*
X80814Y193713D01*
X80870Y193644D01*
X80929Y193577D01*
X80990Y193512D01*
X81055Y193451D01*
X81122Y193392D01*
X81191Y193336D01*
X81263Y193283D01*
X81338Y193233D01*
X81414Y193187D01*
X81492Y193144D01*
X81572Y193105D01*
X81654Y193069D01*
X81737Y193036D01*
X81822Y193008D01*
X81907Y192983D01*
X81994Y192961D01*
X82082Y192944D01*
X82170Y192931D01*
X82259Y192921D01*
X82348Y192915D01*
X82437Y192913D01*
X82526Y192915D01*
X82615Y192921D01*
X82704Y192931D01*
X82792Y192944D01*
X82880Y192961D01*
X82967Y192983D01*
X83052Y193008D01*
X83137Y193036D01*
X83220Y193069D01*
X83302Y193105D01*
X83382Y193144D01*
X83460Y193187D01*
X83536Y193233D01*
X83611Y193283D01*
X83683Y193336D01*
X83752Y193392D01*
X83819Y193451D01*
X83884Y193512D01*
X83945Y193577D01*
X84004Y193644D01*
X84060Y193713D01*
X84113Y193785D01*
X84163Y193860D01*
X84209Y193936D01*
X84252Y194014D01*
X84291Y194094D01*
X84327Y194176D01*
X84360Y194259D01*
X84388Y194344D01*
X84413Y194429D01*
X84435Y194516D01*
X84452Y194604D01*
X84465Y194692D01*
X84475Y194781D01*
X84481Y194870D01*
X84483Y194959D01*
X84483Y197005D01*
X84481Y197117D01*
X84475Y197228D01*
X84466Y197340D01*
X84453Y197451D01*
X84435Y197561D01*
X84415Y197671D01*
X84390Y197780D01*
X84362Y197888D01*
X84330Y197995D01*
X84294Y198101D01*
X84255Y198206D01*
X84212Y198309D01*
X84166Y198411D01*
X84116Y198511D01*
X84063Y198610D01*
X84006Y198706D01*
X83947Y198801D01*
X83884Y198893D01*
X83818Y198983D01*
X83749Y199071D01*
X83677Y199157D01*
X83602Y199240D01*
X83524Y199320D01*
X83444Y199398D01*
X83361Y199473D01*
X83275Y199545D01*
X83187Y199614D01*
X83097Y199680D01*
X83005Y199743D01*
X82910Y199802D01*
X82814Y199859D01*
X82715Y199912D01*
X82615Y199962D01*
X82513Y200008D01*
X82410Y200051D01*
X82305Y200090D01*
X82199Y200126D01*
X82092Y200158D01*
X81984Y200186D01*
X81875Y200211D01*
X81765Y200231D01*
X81655Y200249D01*
X81544Y200262D01*
X81432Y200271D01*
X81321Y200277D01*
X81209Y200279D01*
D15*
X69850Y162814D02*
X56134Y162814D01*
D12*
X88599Y158623D02*
X90235Y158623D01*
X90313Y158625D01*
X90391Y158630D01*
X90468Y158640D01*
X90545Y158653D01*
X90621Y158669D01*
X90696Y158689D01*
X90770Y158713D01*
X90843Y158740D01*
X90915Y158771D01*
X90985Y158805D01*
X91054Y158842D01*
X91120Y158883D01*
X91185Y158927D01*
X91247Y158973D01*
X91307Y159023D01*
X91365Y159075D01*
X91420Y159130D01*
X91472Y159188D01*
X91522Y159248D01*
X91568Y159310D01*
X91612Y159375D01*
X91653Y159442D01*
X91690Y159510D01*
X91724Y159580D01*
X91755Y159652D01*
X91782Y159725D01*
X91806Y159799D01*
X91826Y159874D01*
X91842Y159950D01*
X91855Y160027D01*
X91865Y160104D01*
X91870Y160182D01*
X91872Y160260D01*
X91872Y164352D01*
X91870Y164430D01*
X91865Y164508D01*
X91855Y164585D01*
X91842Y164662D01*
X91826Y164738D01*
X91806Y164813D01*
X91782Y164887D01*
X91755Y164960D01*
X91724Y165032D01*
X91690Y165102D01*
X91653Y165171D01*
X91612Y165237D01*
X91568Y165302D01*
X91522Y165364D01*
X91472Y165424D01*
X91420Y165482D01*
X91365Y165537D01*
X91307Y165589D01*
X91247Y165639D01*
X91185Y165685D01*
X91120Y165729D01*
X91054Y165770D01*
X90985Y165807D01*
X90915Y165841D01*
X90843Y165872D01*
X90770Y165899D01*
X90696Y165923D01*
X90621Y165943D01*
X90545Y165959D01*
X90468Y165972D01*
X90391Y165982D01*
X90313Y165987D01*
X90235Y165989D01*
X88599Y165989D01*
X84116Y165989D02*
X85753Y160260D01*
X81661Y160260D01*
X82889Y161897D02*
X82889Y158623D01*
D15*
X69850Y176784D02*
X56134Y176784D01*
D12*
X88599Y171323D02*
X90235Y171323D01*
X90313Y171325D01*
X90391Y171330D01*
X90468Y171340D01*
X90545Y171353D01*
X90621Y171369D01*
X90696Y171389D01*
X90770Y171413D01*
X90843Y171440D01*
X90915Y171471D01*
X90985Y171505D01*
X91054Y171542D01*
X91120Y171583D01*
X91185Y171627D01*
X91247Y171673D01*
X91307Y171723D01*
X91365Y171775D01*
X91420Y171830D01*
X91472Y171888D01*
X91522Y171948D01*
X91568Y172010D01*
X91612Y172075D01*
X91653Y172142D01*
X91690Y172210D01*
X91724Y172280D01*
X91755Y172352D01*
X91782Y172425D01*
X91806Y172499D01*
X91826Y172574D01*
X91842Y172650D01*
X91855Y172727D01*
X91865Y172804D01*
X91870Y172882D01*
X91872Y172960D01*
X91872Y177052D01*
X91870Y177130D01*
X91865Y177208D01*
X91855Y177285D01*
X91842Y177362D01*
X91826Y177438D01*
X91806Y177513D01*
X91782Y177587D01*
X91755Y177660D01*
X91724Y177732D01*
X91690Y177802D01*
X91653Y177871D01*
X91612Y177937D01*
X91568Y178002D01*
X91522Y178064D01*
X91472Y178124D01*
X91420Y178182D01*
X91365Y178237D01*
X91307Y178289D01*
X91247Y178339D01*
X91185Y178385D01*
X91120Y178429D01*
X91054Y178470D01*
X90985Y178507D01*
X90915Y178541D01*
X90843Y178572D01*
X90770Y178599D01*
X90696Y178623D01*
X90621Y178643D01*
X90545Y178659D01*
X90468Y178672D01*
X90391Y178682D01*
X90313Y178687D01*
X90235Y178689D01*
X88599Y178689D01*
X85753Y177052D02*
X83707Y178689D01*
X83707Y171323D01*
X85753Y171323D02*
X81661Y171323D01*
D16*
X86210Y130670D02*
X86210Y113170D01*
X99210Y113170D02*
X99210Y130670D01*
D12*
X102591Y117501D02*
X109957Y117501D01*
X109957Y119547D01*
X109955Y119636D01*
X109949Y119725D01*
X109939Y119814D01*
X109926Y119902D01*
X109909Y119990D01*
X109887Y120077D01*
X109862Y120162D01*
X109834Y120247D01*
X109801Y120330D01*
X109765Y120412D01*
X109726Y120492D01*
X109683Y120570D01*
X109637Y120646D01*
X109587Y120721D01*
X109534Y120793D01*
X109478Y120862D01*
X109419Y120929D01*
X109358Y120994D01*
X109293Y121055D01*
X109226Y121114D01*
X109157Y121170D01*
X109085Y121223D01*
X109010Y121273D01*
X108934Y121319D01*
X108856Y121362D01*
X108776Y121401D01*
X108694Y121437D01*
X108611Y121470D01*
X108526Y121498D01*
X108441Y121523D01*
X108354Y121545D01*
X108266Y121562D01*
X108178Y121575D01*
X108089Y121585D01*
X108000Y121591D01*
X107911Y121593D01*
X104637Y121593D01*
X104548Y121591D01*
X104459Y121585D01*
X104370Y121575D01*
X104282Y121562D01*
X104194Y121545D01*
X104107Y121523D01*
X104022Y121498D01*
X103937Y121470D01*
X103854Y121437D01*
X103772Y121401D01*
X103692Y121362D01*
X103614Y121319D01*
X103538Y121273D01*
X103463Y121223D01*
X103391Y121170D01*
X103322Y121114D01*
X103255Y121055D01*
X103190Y120994D01*
X103129Y120929D01*
X103070Y120862D01*
X103014Y120793D01*
X102961Y120721D01*
X102911Y120646D01*
X102865Y120570D01*
X102822Y120492D01*
X102783Y120412D01*
X102747Y120330D01*
X102714Y120247D01*
X102686Y120162D01*
X102661Y120077D01*
X102639Y119990D01*
X102622Y119902D01*
X102609Y119814D01*
X102599Y119725D01*
X102593Y119636D01*
X102591Y119547D01*
X102591Y117501D01*
X102591Y125060D02*
X102591Y127515D01*
X102593Y127595D01*
X102599Y127675D01*
X102609Y127755D01*
X102622Y127834D01*
X102640Y127913D01*
X102661Y127990D01*
X102687Y128066D01*
X102716Y128141D01*
X102748Y128215D01*
X102784Y128287D01*
X102824Y128357D01*
X102867Y128424D01*
X102913Y128490D01*
X102963Y128553D01*
X103015Y128614D01*
X103070Y128673D01*
X103129Y128728D01*
X103189Y128780D01*
X103253Y128830D01*
X103319Y128876D01*
X103386Y128919D01*
X103456Y128959D01*
X103528Y128995D01*
X103602Y129027D01*
X103676Y129056D01*
X103753Y129082D01*
X103830Y129103D01*
X103909Y129121D01*
X103988Y129134D01*
X104068Y129144D01*
X104148Y129150D01*
X104228Y129152D01*
X105046Y129152D01*
X105124Y129150D01*
X105202Y129145D01*
X105279Y129135D01*
X105356Y129122D01*
X105432Y129106D01*
X105507Y129086D01*
X105581Y129062D01*
X105654Y129035D01*
X105726Y129004D01*
X105796Y128970D01*
X105865Y128933D01*
X105931Y128892D01*
X105996Y128848D01*
X106058Y128802D01*
X106118Y128752D01*
X106176Y128700D01*
X106231Y128645D01*
X106283Y128587D01*
X106333Y128527D01*
X106379Y128465D01*
X106423Y128400D01*
X106464Y128334D01*
X106501Y128265D01*
X106535Y128195D01*
X106566Y128123D01*
X106593Y128050D01*
X106617Y127976D01*
X106637Y127901D01*
X106653Y127825D01*
X106666Y127748D01*
X106676Y127671D01*
X106681Y127593D01*
X106683Y127515D01*
X106683Y125060D01*
X109957Y125060D01*
X109957Y129152D01*
D13*
X17780Y197358D02*
X17780Y203708D01*
D12*
X14351Y217551D02*
X21717Y217551D01*
X21717Y219597D01*
X21715Y219686D01*
X21709Y219775D01*
X21699Y219864D01*
X21686Y219952D01*
X21669Y220040D01*
X21647Y220127D01*
X21622Y220212D01*
X21594Y220297D01*
X21561Y220380D01*
X21525Y220462D01*
X21486Y220542D01*
X21443Y220620D01*
X21397Y220696D01*
X21347Y220771D01*
X21294Y220843D01*
X21238Y220912D01*
X21179Y220979D01*
X21118Y221044D01*
X21053Y221105D01*
X20986Y221164D01*
X20917Y221220D01*
X20845Y221273D01*
X20770Y221323D01*
X20694Y221369D01*
X20616Y221412D01*
X20536Y221451D01*
X20454Y221487D01*
X20371Y221520D01*
X20286Y221548D01*
X20201Y221573D01*
X20114Y221595D01*
X20026Y221612D01*
X19938Y221625D01*
X19849Y221635D01*
X19760Y221641D01*
X19671Y221643D01*
X19582Y221641D01*
X19493Y221635D01*
X19404Y221625D01*
X19316Y221612D01*
X19228Y221595D01*
X19141Y221573D01*
X19056Y221548D01*
X18971Y221520D01*
X18888Y221487D01*
X18806Y221451D01*
X18726Y221412D01*
X18648Y221369D01*
X18572Y221323D01*
X18497Y221273D01*
X18425Y221220D01*
X18356Y221164D01*
X18289Y221105D01*
X18224Y221044D01*
X18163Y220979D01*
X18104Y220912D01*
X18048Y220843D01*
X17995Y220771D01*
X17945Y220696D01*
X17899Y220620D01*
X17856Y220542D01*
X17817Y220462D01*
X17781Y220380D01*
X17748Y220297D01*
X17720Y220212D01*
X17695Y220127D01*
X17673Y220040D01*
X17656Y219952D01*
X17643Y219864D01*
X17633Y219775D01*
X17627Y219686D01*
X17625Y219597D01*
X17625Y217551D01*
X17625Y220006D02*
X14351Y221643D01*
X16397Y224815D02*
X16486Y224817D01*
X16575Y224823D01*
X16664Y224833D01*
X16752Y224846D01*
X16840Y224863D01*
X16927Y224885D01*
X17012Y224910D01*
X17097Y224938D01*
X17180Y224971D01*
X17262Y225007D01*
X17342Y225046D01*
X17420Y225089D01*
X17496Y225135D01*
X17571Y225185D01*
X17643Y225238D01*
X17712Y225294D01*
X17779Y225353D01*
X17844Y225414D01*
X17905Y225479D01*
X17964Y225546D01*
X18020Y225615D01*
X18073Y225687D01*
X18123Y225762D01*
X18169Y225838D01*
X18212Y225916D01*
X18251Y225996D01*
X18287Y226078D01*
X18320Y226161D01*
X18348Y226246D01*
X18373Y226331D01*
X18395Y226418D01*
X18412Y226506D01*
X18425Y226594D01*
X18435Y226683D01*
X18441Y226772D01*
X18443Y226861D01*
X18441Y226950D01*
X18435Y227039D01*
X18425Y227128D01*
X18412Y227216D01*
X18395Y227304D01*
X18373Y227391D01*
X18348Y227476D01*
X18320Y227561D01*
X18287Y227644D01*
X18251Y227726D01*
X18212Y227806D01*
X18169Y227884D01*
X18123Y227960D01*
X18073Y228035D01*
X18020Y228107D01*
X17964Y228176D01*
X17905Y228243D01*
X17844Y228308D01*
X17779Y228369D01*
X17712Y228428D01*
X17643Y228484D01*
X17571Y228537D01*
X17496Y228587D01*
X17420Y228633D01*
X17342Y228676D01*
X17262Y228715D01*
X17180Y228751D01*
X17097Y228784D01*
X17012Y228812D01*
X16927Y228837D01*
X16840Y228859D01*
X16752Y228876D01*
X16664Y228889D01*
X16575Y228899D01*
X16486Y228905D01*
X16397Y228907D01*
X16308Y228905D01*
X16219Y228899D01*
X16130Y228889D01*
X16042Y228876D01*
X15954Y228859D01*
X15867Y228837D01*
X15782Y228812D01*
X15697Y228784D01*
X15614Y228751D01*
X15532Y228715D01*
X15452Y228676D01*
X15374Y228633D01*
X15298Y228587D01*
X15223Y228537D01*
X15151Y228484D01*
X15082Y228428D01*
X15015Y228369D01*
X14950Y228308D01*
X14889Y228243D01*
X14830Y228176D01*
X14774Y228107D01*
X14721Y228035D01*
X14671Y227960D01*
X14625Y227884D01*
X14582Y227806D01*
X14543Y227726D01*
X14507Y227644D01*
X14474Y227561D01*
X14446Y227476D01*
X14421Y227391D01*
X14399Y227304D01*
X14382Y227216D01*
X14369Y227128D01*
X14359Y227039D01*
X14353Y226950D01*
X14351Y226861D01*
X14353Y226772D01*
X14359Y226683D01*
X14369Y226594D01*
X14382Y226506D01*
X14399Y226418D01*
X14421Y226331D01*
X14446Y226246D01*
X14474Y226161D01*
X14507Y226078D01*
X14543Y225996D01*
X14582Y225916D01*
X14625Y225838D01*
X14671Y225762D01*
X14721Y225687D01*
X14774Y225615D01*
X14830Y225546D01*
X14889Y225479D01*
X14950Y225414D01*
X15015Y225353D01*
X15082Y225294D01*
X15151Y225238D01*
X15223Y225185D01*
X15298Y225135D01*
X15374Y225089D01*
X15452Y225046D01*
X15532Y225007D01*
X15614Y224971D01*
X15697Y224938D01*
X15782Y224910D01*
X15867Y224885D01*
X15954Y224863D01*
X16042Y224846D01*
X16130Y224833D01*
X16219Y224823D01*
X16308Y224817D01*
X16397Y224815D01*
X20080Y225224D02*
X20159Y225226D01*
X20238Y225232D01*
X20317Y225241D01*
X20395Y225254D01*
X20472Y225272D01*
X20548Y225292D01*
X20623Y225317D01*
X20697Y225345D01*
X20770Y225376D01*
X20841Y225412D01*
X20910Y225450D01*
X20977Y225492D01*
X21042Y225537D01*
X21105Y225585D01*
X21166Y225636D01*
X21223Y225690D01*
X21279Y225746D01*
X21331Y225805D01*
X21381Y225867D01*
X21427Y225931D01*
X21471Y225997D01*
X21511Y226065D01*
X21547Y226135D01*
X21581Y226207D01*
X21611Y226281D01*
X21637Y226355D01*
X21660Y226431D01*
X21678Y226508D01*
X21694Y226585D01*
X21705Y226664D01*
X21713Y226742D01*
X21717Y226821D01*
X21717Y226901D01*
X21713Y226980D01*
X21705Y227058D01*
X21694Y227137D01*
X21678Y227214D01*
X21660Y227291D01*
X21637Y227367D01*
X21611Y227441D01*
X21581Y227515D01*
X21547Y227587D01*
X21511Y227657D01*
X21471Y227725D01*
X21427Y227791D01*
X21381Y227855D01*
X21331Y227917D01*
X21279Y227976D01*
X21223Y228032D01*
X21166Y228086D01*
X21105Y228137D01*
X21042Y228185D01*
X20977Y228230D01*
X20910Y228272D01*
X20841Y228310D01*
X20770Y228346D01*
X20697Y228377D01*
X20623Y228405D01*
X20548Y228430D01*
X20472Y228450D01*
X20395Y228468D01*
X20317Y228481D01*
X20238Y228490D01*
X20159Y228496D01*
X20080Y228498D01*
X20001Y228496D01*
X19922Y228490D01*
X19843Y228481D01*
X19765Y228468D01*
X19688Y228450D01*
X19612Y228430D01*
X19537Y228405D01*
X19463Y228377D01*
X19390Y228346D01*
X19319Y228310D01*
X19250Y228272D01*
X19183Y228230D01*
X19118Y228185D01*
X19055Y228137D01*
X18994Y228086D01*
X18937Y228032D01*
X18881Y227976D01*
X18829Y227917D01*
X18779Y227855D01*
X18733Y227791D01*
X18689Y227725D01*
X18649Y227657D01*
X18613Y227587D01*
X18579Y227515D01*
X18549Y227441D01*
X18523Y227367D01*
X18500Y227291D01*
X18482Y227214D01*
X18466Y227137D01*
X18455Y227058D01*
X18447Y226980D01*
X18443Y226901D01*
X18443Y226821D01*
X18447Y226742D01*
X18455Y226664D01*
X18466Y226585D01*
X18482Y226508D01*
X18500Y226431D01*
X18523Y226355D01*
X18549Y226281D01*
X18579Y226207D01*
X18613Y226135D01*
X18649Y226065D01*
X18689Y225997D01*
X18733Y225931D01*
X18779Y225867D01*
X18829Y225805D01*
X18881Y225746D01*
X18937Y225690D01*
X18994Y225636D01*
X19055Y225585D01*
X19118Y225537D01*
X19183Y225492D01*
X19250Y225450D01*
X19319Y225412D01*
X19390Y225376D01*
X19463Y225345D01*
X19537Y225317D01*
X19612Y225292D01*
X19688Y225272D01*
X19765Y225254D01*
X19843Y225241D01*
X19922Y225232D01*
X20001Y225226D01*
X20080Y225224D01*
D13*
X-3810Y203708D02*
X-3810Y197358D01*
D12*
X-7239Y217551D02*
X127Y217551D01*
X127Y219597D01*
X125Y219686D01*
X119Y219775D01*
X109Y219864D01*
X96Y219952D01*
X79Y220040D01*
X57Y220127D01*
X32Y220212D01*
X4Y220297D01*
X-29Y220380D01*
X-65Y220462D01*
X-104Y220542D01*
X-147Y220620D01*
X-193Y220696D01*
X-243Y220771D01*
X-296Y220843D01*
X-352Y220912D01*
X-411Y220979D01*
X-472Y221044D01*
X-537Y221105D01*
X-604Y221164D01*
X-673Y221220D01*
X-745Y221273D01*
X-820Y221323D01*
X-896Y221369D01*
X-974Y221412D01*
X-1054Y221451D01*
X-1136Y221487D01*
X-1219Y221520D01*
X-1304Y221548D01*
X-1389Y221573D01*
X-1476Y221595D01*
X-1564Y221612D01*
X-1652Y221625D01*
X-1741Y221635D01*
X-1830Y221641D01*
X-1919Y221643D01*
X-2008Y221641D01*
X-2097Y221635D01*
X-2186Y221625D01*
X-2274Y221612D01*
X-2362Y221595D01*
X-2449Y221573D01*
X-2534Y221548D01*
X-2619Y221520D01*
X-2702Y221487D01*
X-2784Y221451D01*
X-2864Y221412D01*
X-2942Y221369D01*
X-3018Y221323D01*
X-3093Y221273D01*
X-3165Y221220D01*
X-3234Y221164D01*
X-3301Y221105D01*
X-3366Y221044D01*
X-3427Y220979D01*
X-3486Y220912D01*
X-3542Y220843D01*
X-3595Y220771D01*
X-3645Y220696D01*
X-3691Y220620D01*
X-3734Y220542D01*
X-3773Y220462D01*
X-3809Y220380D01*
X-3842Y220297D01*
X-3870Y220212D01*
X-3895Y220127D01*
X-3917Y220040D01*
X-3934Y219952D01*
X-3947Y219864D01*
X-3957Y219775D01*
X-3963Y219686D01*
X-3965Y219597D01*
X-3965Y217551D01*
X-3965Y220006D02*
X-7239Y221643D01*
X-3965Y226452D02*
X-3965Y228907D01*
X-3965Y226452D02*
X-3963Y226374D01*
X-3958Y226296D01*
X-3948Y226219D01*
X-3935Y226142D01*
X-3919Y226066D01*
X-3899Y225991D01*
X-3875Y225917D01*
X-3848Y225844D01*
X-3817Y225772D01*
X-3783Y225702D01*
X-3746Y225634D01*
X-3705Y225567D01*
X-3661Y225502D01*
X-3615Y225440D01*
X-3565Y225380D01*
X-3513Y225322D01*
X-3458Y225267D01*
X-3400Y225215D01*
X-3340Y225165D01*
X-3278Y225119D01*
X-3213Y225075D01*
X-3147Y225034D01*
X-3078Y224997D01*
X-3008Y224963D01*
X-2936Y224932D01*
X-2863Y224905D01*
X-2789Y224881D01*
X-2714Y224861D01*
X-2638Y224845D01*
X-2561Y224832D01*
X-2484Y224822D01*
X-2406Y224817D01*
X-2328Y224815D01*
X-1919Y224815D01*
X-1830Y224817D01*
X-1741Y224823D01*
X-1652Y224833D01*
X-1564Y224846D01*
X-1476Y224863D01*
X-1389Y224885D01*
X-1304Y224910D01*
X-1219Y224938D01*
X-1136Y224971D01*
X-1054Y225007D01*
X-974Y225046D01*
X-896Y225089D01*
X-820Y225135D01*
X-745Y225185D01*
X-673Y225238D01*
X-604Y225294D01*
X-537Y225353D01*
X-472Y225414D01*
X-411Y225479D01*
X-352Y225546D01*
X-296Y225615D01*
X-243Y225687D01*
X-193Y225762D01*
X-147Y225838D01*
X-104Y225916D01*
X-65Y225996D01*
X-29Y226078D01*
X4Y226161D01*
X32Y226246D01*
X57Y226331D01*
X79Y226418D01*
X96Y226506D01*
X109Y226594D01*
X119Y226683D01*
X125Y226772D01*
X127Y226861D01*
X125Y226950D01*
X119Y227039D01*
X109Y227128D01*
X96Y227216D01*
X79Y227304D01*
X57Y227391D01*
X32Y227476D01*
X4Y227561D01*
X-29Y227644D01*
X-65Y227726D01*
X-104Y227806D01*
X-147Y227884D01*
X-193Y227960D01*
X-243Y228035D01*
X-296Y228107D01*
X-352Y228176D01*
X-411Y228243D01*
X-472Y228308D01*
X-537Y228369D01*
X-604Y228428D01*
X-673Y228484D01*
X-745Y228537D01*
X-820Y228587D01*
X-896Y228633D01*
X-974Y228676D01*
X-1054Y228715D01*
X-1136Y228751D01*
X-1219Y228784D01*
X-1304Y228812D01*
X-1389Y228837D01*
X-1476Y228859D01*
X-1564Y228876D01*
X-1652Y228889D01*
X-1741Y228899D01*
X-1830Y228905D01*
X-1919Y228907D01*
X-3965Y228907D01*
X-4077Y228905D01*
X-4188Y228899D01*
X-4300Y228890D01*
X-4411Y228877D01*
X-4521Y228859D01*
X-4631Y228839D01*
X-4740Y228814D01*
X-4848Y228786D01*
X-4955Y228754D01*
X-5061Y228718D01*
X-5166Y228679D01*
X-5269Y228636D01*
X-5371Y228590D01*
X-5471Y228540D01*
X-5570Y228487D01*
X-5666Y228430D01*
X-5761Y228371D01*
X-5853Y228308D01*
X-5943Y228242D01*
X-6031Y228173D01*
X-6117Y228101D01*
X-6200Y228026D01*
X-6280Y227948D01*
X-6358Y227868D01*
X-6433Y227785D01*
X-6505Y227699D01*
X-6574Y227611D01*
X-6640Y227521D01*
X-6703Y227429D01*
X-6762Y227334D01*
X-6819Y227238D01*
X-6872Y227139D01*
X-6922Y227039D01*
X-6968Y226937D01*
X-7011Y226834D01*
X-7050Y226729D01*
X-7086Y226623D01*
X-7118Y226516D01*
X-7146Y226408D01*
X-7171Y226299D01*
X-7191Y226189D01*
X-7209Y226079D01*
X-7222Y225968D01*
X-7231Y225856D01*
X-7237Y225745D01*
X-7239Y225633D01*
M02*
