G04 EAGLE Gerber RS-274X export*
G75*
%MOMM*%
%FSLAX34Y34*%
%LPD*%
%INSolderpaste Top*%
%IPPOS*%
%AMOC8*
5,1,8,0,0,1.08239X$1,22.5*%
G01*
%ADD10R,1.500000X1.300000*%
%ADD11R,1.000000X1.100000*%
%ADD12C,0.147500*%
%ADD13R,1.100000X1.000000*%
%ADD14R,0.800000X0.800000*%
%ADD15R,1.200000X1.200000*%


D10*
X24130Y184760D03*
X24130Y165760D03*
D11*
X3810Y183760D03*
X3810Y166760D03*
D12*
X45393Y134858D02*
X45393Y116632D01*
X40967Y116632D01*
X40967Y134858D01*
X45393Y134858D01*
X45393Y118033D02*
X40967Y118033D01*
X40967Y119434D02*
X45393Y119434D01*
X45393Y120835D02*
X40967Y120835D01*
X40967Y122236D02*
X45393Y122236D01*
X45393Y123637D02*
X40967Y123637D01*
X40967Y125038D02*
X45393Y125038D01*
X45393Y126439D02*
X40967Y126439D01*
X40967Y127840D02*
X45393Y127840D01*
X45393Y129241D02*
X40967Y129241D01*
X40967Y130642D02*
X45393Y130642D01*
X45393Y132043D02*
X40967Y132043D01*
X40967Y133444D02*
X45393Y133444D01*
X45393Y134845D02*
X40967Y134845D01*
X58093Y134858D02*
X58093Y116632D01*
X53667Y116632D01*
X53667Y134858D01*
X58093Y134858D01*
X58093Y118033D02*
X53667Y118033D01*
X53667Y119434D02*
X58093Y119434D01*
X58093Y120835D02*
X53667Y120835D01*
X53667Y122236D02*
X58093Y122236D01*
X58093Y123637D02*
X53667Y123637D01*
X53667Y125038D02*
X58093Y125038D01*
X58093Y126439D02*
X53667Y126439D01*
X53667Y127840D02*
X58093Y127840D01*
X58093Y129241D02*
X53667Y129241D01*
X53667Y130642D02*
X58093Y130642D01*
X58093Y132043D02*
X53667Y132043D01*
X53667Y133444D02*
X58093Y133444D01*
X58093Y134845D02*
X53667Y134845D01*
X70793Y134858D02*
X70793Y116632D01*
X66367Y116632D01*
X66367Y134858D01*
X70793Y134858D01*
X70793Y118033D02*
X66367Y118033D01*
X66367Y119434D02*
X70793Y119434D01*
X70793Y120835D02*
X66367Y120835D01*
X66367Y122236D02*
X70793Y122236D01*
X70793Y123637D02*
X66367Y123637D01*
X66367Y125038D02*
X70793Y125038D01*
X70793Y126439D02*
X66367Y126439D01*
X66367Y127840D02*
X70793Y127840D01*
X70793Y129241D02*
X66367Y129241D01*
X66367Y130642D02*
X70793Y130642D01*
X70793Y132043D02*
X66367Y132043D01*
X66367Y133444D02*
X70793Y133444D01*
X70793Y134845D02*
X66367Y134845D01*
X83493Y134858D02*
X83493Y116632D01*
X79067Y116632D01*
X79067Y134858D01*
X83493Y134858D01*
X83493Y118033D02*
X79067Y118033D01*
X79067Y119434D02*
X83493Y119434D01*
X83493Y120835D02*
X79067Y120835D01*
X79067Y122236D02*
X83493Y122236D01*
X83493Y123637D02*
X79067Y123637D01*
X79067Y125038D02*
X83493Y125038D01*
X83493Y126439D02*
X79067Y126439D01*
X79067Y127840D02*
X83493Y127840D01*
X83493Y129241D02*
X79067Y129241D01*
X79067Y130642D02*
X83493Y130642D01*
X83493Y132043D02*
X79067Y132043D01*
X79067Y133444D02*
X83493Y133444D01*
X83493Y134845D02*
X79067Y134845D01*
X83493Y166132D02*
X83493Y184358D01*
X83493Y166132D02*
X79067Y166132D01*
X79067Y184358D01*
X83493Y184358D01*
X83493Y167533D02*
X79067Y167533D01*
X79067Y168934D02*
X83493Y168934D01*
X83493Y170335D02*
X79067Y170335D01*
X79067Y171736D02*
X83493Y171736D01*
X83493Y173137D02*
X79067Y173137D01*
X79067Y174538D02*
X83493Y174538D01*
X83493Y175939D02*
X79067Y175939D01*
X79067Y177340D02*
X83493Y177340D01*
X83493Y178741D02*
X79067Y178741D01*
X79067Y180142D02*
X83493Y180142D01*
X83493Y181543D02*
X79067Y181543D01*
X79067Y182944D02*
X83493Y182944D01*
X83493Y184345D02*
X79067Y184345D01*
X70793Y184358D02*
X70793Y166132D01*
X66367Y166132D01*
X66367Y184358D01*
X70793Y184358D01*
X70793Y167533D02*
X66367Y167533D01*
X66367Y168934D02*
X70793Y168934D01*
X70793Y170335D02*
X66367Y170335D01*
X66367Y171736D02*
X70793Y171736D01*
X70793Y173137D02*
X66367Y173137D01*
X66367Y174538D02*
X70793Y174538D01*
X70793Y175939D02*
X66367Y175939D01*
X66367Y177340D02*
X70793Y177340D01*
X70793Y178741D02*
X66367Y178741D01*
X66367Y180142D02*
X70793Y180142D01*
X70793Y181543D02*
X66367Y181543D01*
X66367Y182944D02*
X70793Y182944D01*
X70793Y184345D02*
X66367Y184345D01*
X58093Y184358D02*
X58093Y166132D01*
X53667Y166132D01*
X53667Y184358D01*
X58093Y184358D01*
X58093Y167533D02*
X53667Y167533D01*
X53667Y168934D02*
X58093Y168934D01*
X58093Y170335D02*
X53667Y170335D01*
X53667Y171736D02*
X58093Y171736D01*
X58093Y173137D02*
X53667Y173137D01*
X53667Y174538D02*
X58093Y174538D01*
X58093Y175939D02*
X53667Y175939D01*
X53667Y177340D02*
X58093Y177340D01*
X58093Y178741D02*
X53667Y178741D01*
X53667Y180142D02*
X58093Y180142D01*
X58093Y181543D02*
X53667Y181543D01*
X53667Y182944D02*
X58093Y182944D01*
X58093Y184345D02*
X53667Y184345D01*
X45393Y184358D02*
X45393Y166132D01*
X40967Y166132D01*
X40967Y184358D01*
X45393Y184358D01*
X45393Y167533D02*
X40967Y167533D01*
X40967Y168934D02*
X45393Y168934D01*
X45393Y170335D02*
X40967Y170335D01*
X40967Y171736D02*
X45393Y171736D01*
X45393Y173137D02*
X40967Y173137D01*
X40967Y174538D02*
X45393Y174538D01*
X45393Y175939D02*
X40967Y175939D01*
X40967Y177340D02*
X45393Y177340D01*
X45393Y178741D02*
X40967Y178741D01*
X40967Y180142D02*
X45393Y180142D01*
X45393Y181543D02*
X40967Y181543D01*
X40967Y182944D02*
X45393Y182944D01*
X45393Y184345D02*
X40967Y184345D01*
D13*
X70240Y198120D03*
X87240Y198120D03*
D11*
X86605Y238125D03*
X69605Y238125D03*
D13*
X-16510Y183760D03*
X-16510Y166760D03*
D14*
X-2540Y81400D03*
X-2540Y96400D03*
D13*
X13970Y98670D03*
X13970Y81670D03*
D15*
X-52070Y169840D03*
X-52070Y190840D03*
X-38100Y169840D03*
X-38100Y190840D03*
M02*
