G04 EAGLE Gerber RS-274X export*
G75*
%MOMM*%
%FSLAX34Y34*%
%LPD*%
%INSolderpaste Bottom*%
%IPPOS*%
%AMOC8*
5,1,8,0,0,1.08239X$1,22.5*%
G01*
%ADD10R,1.500000X1.300000*%
%ADD11R,1.000000X1.100000*%
%ADD12R,1.100000X1.000000*%
%ADD13R,0.800000X0.800000*%
%ADD14R,1.399997X0.400000*%
%ADD15R,0.550000X0.254000*%
%ADD16R,0.254000X0.550000*%
%ADD17R,0.500000X0.800000*%
%ADD18R,1.200000X1.200000*%

G36*
X-12682Y161149D02*
X-12682Y161149D01*
X-12680Y161148D01*
X-12637Y161168D01*
X-12593Y161186D01*
X-12593Y161188D01*
X-12591Y161189D01*
X-12558Y161274D01*
X-12558Y173498D01*
X-12559Y173500D01*
X-12558Y173502D01*
X-12578Y173545D01*
X-12596Y173589D01*
X-12598Y173589D01*
X-12599Y173591D01*
X-12684Y173624D01*
X-24908Y173624D01*
X-24910Y173623D01*
X-24912Y173624D01*
X-24955Y173604D01*
X-24999Y173586D01*
X-24999Y173584D01*
X-25001Y173583D01*
X-25034Y173498D01*
X-25034Y161274D01*
X-25033Y161272D01*
X-25034Y161270D01*
X-25014Y161227D01*
X-24996Y161183D01*
X-24994Y161183D01*
X-24993Y161181D01*
X-24908Y161148D01*
X-12684Y161148D01*
X-12682Y161149D01*
G37*
G36*
X15766Y161149D02*
X15766Y161149D01*
X15768Y161148D01*
X15811Y161168D01*
X15855Y161186D01*
X15855Y161188D01*
X15857Y161189D01*
X15890Y161274D01*
X15890Y173498D01*
X15889Y173500D01*
X15890Y173502D01*
X15870Y173545D01*
X15852Y173589D01*
X15850Y173589D01*
X15849Y173591D01*
X15764Y173624D01*
X3540Y173624D01*
X3538Y173623D01*
X3536Y173624D01*
X3493Y173604D01*
X3449Y173586D01*
X3449Y173584D01*
X3447Y173583D01*
X3414Y173498D01*
X3414Y161274D01*
X3415Y161272D01*
X3414Y161270D01*
X3434Y161227D01*
X3452Y161183D01*
X3454Y161183D01*
X3455Y161181D01*
X3540Y161148D01*
X15764Y161148D01*
X15766Y161149D01*
G37*
G36*
X1542Y161149D02*
X1542Y161149D01*
X1544Y161148D01*
X1587Y161168D01*
X1631Y161186D01*
X1631Y161188D01*
X1633Y161189D01*
X1666Y161274D01*
X1666Y173498D01*
X1665Y173500D01*
X1666Y173502D01*
X1646Y173545D01*
X1628Y173589D01*
X1626Y173589D01*
X1625Y173591D01*
X1540Y173624D01*
X-10684Y173624D01*
X-10686Y173623D01*
X-10688Y173624D01*
X-10731Y173604D01*
X-10775Y173586D01*
X-10775Y173584D01*
X-10777Y173583D01*
X-10810Y173498D01*
X-10810Y161274D01*
X-10809Y161272D01*
X-10810Y161270D01*
X-10790Y161227D01*
X-10772Y161183D01*
X-10770Y161183D01*
X-10769Y161181D01*
X-10684Y161148D01*
X1540Y161148D01*
X1542Y161149D01*
G37*
G36*
X29990Y161149D02*
X29990Y161149D01*
X29992Y161148D01*
X30035Y161168D01*
X30079Y161186D01*
X30079Y161188D01*
X30081Y161189D01*
X30114Y161274D01*
X30114Y173498D01*
X30113Y173500D01*
X30114Y173502D01*
X30094Y173545D01*
X30076Y173589D01*
X30074Y173589D01*
X30073Y173591D01*
X29988Y173624D01*
X17764Y173624D01*
X17762Y173623D01*
X17760Y173624D01*
X17717Y173604D01*
X17673Y173586D01*
X17673Y173584D01*
X17671Y173583D01*
X17638Y173498D01*
X17638Y161274D01*
X17639Y161272D01*
X17638Y161270D01*
X17658Y161227D01*
X17676Y161183D01*
X17678Y161183D01*
X17679Y161181D01*
X17764Y161148D01*
X29988Y161148D01*
X29990Y161149D01*
G37*
G36*
X15766Y146925D02*
X15766Y146925D01*
X15768Y146924D01*
X15811Y146944D01*
X15855Y146962D01*
X15855Y146964D01*
X15857Y146965D01*
X15890Y147050D01*
X15890Y159274D01*
X15889Y159276D01*
X15890Y159278D01*
X15870Y159321D01*
X15852Y159365D01*
X15850Y159365D01*
X15849Y159367D01*
X15764Y159400D01*
X3540Y159400D01*
X3538Y159399D01*
X3536Y159400D01*
X3493Y159380D01*
X3449Y159362D01*
X3449Y159360D01*
X3447Y159359D01*
X3414Y159274D01*
X3414Y147050D01*
X3415Y147048D01*
X3414Y147046D01*
X3434Y147003D01*
X3452Y146959D01*
X3454Y146959D01*
X3455Y146957D01*
X3540Y146924D01*
X15764Y146924D01*
X15766Y146925D01*
G37*
G36*
X-12682Y146925D02*
X-12682Y146925D01*
X-12680Y146924D01*
X-12637Y146944D01*
X-12593Y146962D01*
X-12593Y146964D01*
X-12591Y146965D01*
X-12558Y147050D01*
X-12558Y159274D01*
X-12559Y159276D01*
X-12558Y159278D01*
X-12578Y159321D01*
X-12596Y159365D01*
X-12598Y159365D01*
X-12599Y159367D01*
X-12684Y159400D01*
X-24908Y159400D01*
X-24910Y159399D01*
X-24912Y159400D01*
X-24955Y159380D01*
X-24999Y159362D01*
X-24999Y159360D01*
X-25001Y159359D01*
X-25034Y159274D01*
X-25034Y147050D01*
X-25033Y147048D01*
X-25034Y147046D01*
X-25014Y147003D01*
X-24996Y146959D01*
X-24994Y146959D01*
X-24993Y146957D01*
X-24908Y146924D01*
X-12684Y146924D01*
X-12682Y146925D01*
G37*
G36*
X1542Y146925D02*
X1542Y146925D01*
X1544Y146924D01*
X1587Y146944D01*
X1631Y146962D01*
X1631Y146964D01*
X1633Y146965D01*
X1666Y147050D01*
X1666Y159274D01*
X1665Y159276D01*
X1666Y159278D01*
X1646Y159321D01*
X1628Y159365D01*
X1626Y159365D01*
X1625Y159367D01*
X1540Y159400D01*
X-10684Y159400D01*
X-10686Y159399D01*
X-10688Y159400D01*
X-10731Y159380D01*
X-10775Y159362D01*
X-10775Y159360D01*
X-10777Y159359D01*
X-10810Y159274D01*
X-10810Y147050D01*
X-10809Y147048D01*
X-10810Y147046D01*
X-10790Y147003D01*
X-10772Y146959D01*
X-10770Y146959D01*
X-10769Y146957D01*
X-10684Y146924D01*
X1540Y146924D01*
X1542Y146925D01*
G37*
G36*
X29990Y146925D02*
X29990Y146925D01*
X29992Y146924D01*
X30035Y146944D01*
X30079Y146962D01*
X30079Y146964D01*
X30081Y146965D01*
X30114Y147050D01*
X30114Y159274D01*
X30113Y159276D01*
X30114Y159278D01*
X30094Y159321D01*
X30076Y159365D01*
X30074Y159365D01*
X30073Y159367D01*
X29988Y159400D01*
X17764Y159400D01*
X17762Y159399D01*
X17760Y159400D01*
X17717Y159380D01*
X17673Y159362D01*
X17673Y159360D01*
X17671Y159359D01*
X17638Y159274D01*
X17638Y147050D01*
X17639Y147048D01*
X17638Y147046D01*
X17658Y147003D01*
X17676Y146959D01*
X17678Y146959D01*
X17679Y146957D01*
X17764Y146924D01*
X29988Y146924D01*
X29990Y146925D01*
G37*
G36*
X-12682Y132701D02*
X-12682Y132701D01*
X-12680Y132700D01*
X-12637Y132720D01*
X-12593Y132738D01*
X-12593Y132740D01*
X-12591Y132741D01*
X-12558Y132826D01*
X-12558Y145050D01*
X-12559Y145052D01*
X-12558Y145054D01*
X-12578Y145097D01*
X-12596Y145141D01*
X-12598Y145141D01*
X-12599Y145143D01*
X-12684Y145176D01*
X-24908Y145176D01*
X-24910Y145175D01*
X-24912Y145176D01*
X-24955Y145156D01*
X-24999Y145138D01*
X-24999Y145136D01*
X-25001Y145135D01*
X-25034Y145050D01*
X-25034Y132826D01*
X-25033Y132824D01*
X-25034Y132822D01*
X-25014Y132779D01*
X-24996Y132735D01*
X-24994Y132735D01*
X-24993Y132733D01*
X-24908Y132700D01*
X-12684Y132700D01*
X-12682Y132701D01*
G37*
G36*
X15766Y132701D02*
X15766Y132701D01*
X15768Y132700D01*
X15811Y132720D01*
X15855Y132738D01*
X15855Y132740D01*
X15857Y132741D01*
X15890Y132826D01*
X15890Y145050D01*
X15889Y145052D01*
X15890Y145054D01*
X15870Y145097D01*
X15852Y145141D01*
X15850Y145141D01*
X15849Y145143D01*
X15764Y145176D01*
X3540Y145176D01*
X3538Y145175D01*
X3536Y145176D01*
X3493Y145156D01*
X3449Y145138D01*
X3449Y145136D01*
X3447Y145135D01*
X3414Y145050D01*
X3414Y132826D01*
X3415Y132824D01*
X3414Y132822D01*
X3434Y132779D01*
X3452Y132735D01*
X3454Y132735D01*
X3455Y132733D01*
X3540Y132700D01*
X15764Y132700D01*
X15766Y132701D01*
G37*
G36*
X1542Y132701D02*
X1542Y132701D01*
X1544Y132700D01*
X1587Y132720D01*
X1631Y132738D01*
X1631Y132740D01*
X1633Y132741D01*
X1666Y132826D01*
X1666Y145050D01*
X1665Y145052D01*
X1666Y145054D01*
X1646Y145097D01*
X1628Y145141D01*
X1626Y145141D01*
X1625Y145143D01*
X1540Y145176D01*
X-10684Y145176D01*
X-10686Y145175D01*
X-10688Y145176D01*
X-10731Y145156D01*
X-10775Y145138D01*
X-10775Y145136D01*
X-10777Y145135D01*
X-10810Y145050D01*
X-10810Y132826D01*
X-10809Y132824D01*
X-10810Y132822D01*
X-10790Y132779D01*
X-10772Y132735D01*
X-10770Y132735D01*
X-10769Y132733D01*
X-10684Y132700D01*
X1540Y132700D01*
X1542Y132701D01*
G37*
G36*
X29990Y132701D02*
X29990Y132701D01*
X29992Y132700D01*
X30035Y132720D01*
X30079Y132738D01*
X30079Y132740D01*
X30081Y132741D01*
X30114Y132826D01*
X30114Y145050D01*
X30113Y145052D01*
X30114Y145054D01*
X30094Y145097D01*
X30076Y145141D01*
X30074Y145141D01*
X30073Y145143D01*
X29988Y145176D01*
X17764Y145176D01*
X17762Y145175D01*
X17760Y145176D01*
X17717Y145156D01*
X17673Y145138D01*
X17673Y145136D01*
X17671Y145135D01*
X17638Y145050D01*
X17638Y132826D01*
X17639Y132824D01*
X17638Y132822D01*
X17658Y132779D01*
X17676Y132735D01*
X17678Y132735D01*
X17679Y132733D01*
X17764Y132700D01*
X29988Y132700D01*
X29990Y132701D01*
G37*
G36*
X1542Y118477D02*
X1542Y118477D01*
X1544Y118476D01*
X1587Y118496D01*
X1631Y118514D01*
X1631Y118516D01*
X1633Y118517D01*
X1666Y118602D01*
X1666Y130826D01*
X1665Y130828D01*
X1666Y130830D01*
X1646Y130873D01*
X1628Y130917D01*
X1626Y130917D01*
X1625Y130919D01*
X1540Y130952D01*
X-10684Y130952D01*
X-10686Y130951D01*
X-10688Y130952D01*
X-10731Y130932D01*
X-10775Y130914D01*
X-10775Y130912D01*
X-10777Y130911D01*
X-10810Y130826D01*
X-10810Y118602D01*
X-10809Y118600D01*
X-10810Y118598D01*
X-10790Y118555D01*
X-10772Y118511D01*
X-10770Y118511D01*
X-10769Y118509D01*
X-10684Y118476D01*
X1540Y118476D01*
X1542Y118477D01*
G37*
G36*
X15766Y118477D02*
X15766Y118477D01*
X15768Y118476D01*
X15811Y118496D01*
X15855Y118514D01*
X15855Y118516D01*
X15857Y118517D01*
X15890Y118602D01*
X15890Y130826D01*
X15889Y130828D01*
X15890Y130830D01*
X15870Y130873D01*
X15852Y130917D01*
X15850Y130917D01*
X15849Y130919D01*
X15764Y130952D01*
X3540Y130952D01*
X3538Y130951D01*
X3536Y130952D01*
X3493Y130932D01*
X3449Y130914D01*
X3449Y130912D01*
X3447Y130911D01*
X3414Y130826D01*
X3414Y118602D01*
X3415Y118600D01*
X3414Y118598D01*
X3434Y118555D01*
X3452Y118511D01*
X3454Y118511D01*
X3455Y118509D01*
X3540Y118476D01*
X15764Y118476D01*
X15766Y118477D01*
G37*
G36*
X29990Y118477D02*
X29990Y118477D01*
X29992Y118476D01*
X30035Y118496D01*
X30079Y118514D01*
X30079Y118516D01*
X30081Y118517D01*
X30114Y118602D01*
X30114Y130826D01*
X30113Y130828D01*
X30114Y130830D01*
X30094Y130873D01*
X30076Y130917D01*
X30074Y130917D01*
X30073Y130919D01*
X29988Y130952D01*
X17764Y130952D01*
X17762Y130951D01*
X17760Y130952D01*
X17717Y130932D01*
X17673Y130914D01*
X17673Y130912D01*
X17671Y130911D01*
X17638Y130826D01*
X17638Y118602D01*
X17639Y118600D01*
X17638Y118598D01*
X17658Y118555D01*
X17676Y118511D01*
X17678Y118511D01*
X17679Y118509D01*
X17764Y118476D01*
X29988Y118476D01*
X29990Y118477D01*
G37*
G36*
X-12682Y118477D02*
X-12682Y118477D01*
X-12680Y118476D01*
X-12637Y118496D01*
X-12593Y118514D01*
X-12593Y118516D01*
X-12591Y118517D01*
X-12558Y118602D01*
X-12558Y130826D01*
X-12559Y130828D01*
X-12558Y130830D01*
X-12578Y130873D01*
X-12596Y130917D01*
X-12598Y130917D01*
X-12599Y130919D01*
X-12684Y130952D01*
X-24908Y130952D01*
X-24910Y130951D01*
X-24912Y130952D01*
X-24955Y130932D01*
X-24999Y130914D01*
X-24999Y130912D01*
X-25001Y130911D01*
X-25034Y130826D01*
X-25034Y118602D01*
X-25033Y118600D01*
X-25034Y118598D01*
X-25014Y118555D01*
X-24996Y118511D01*
X-24994Y118511D01*
X-24993Y118509D01*
X-24908Y118476D01*
X-12684Y118476D01*
X-12682Y118477D01*
G37*
D10*
X54610Y265380D03*
X54610Y246380D03*
D11*
X76590Y242570D03*
X93590Y242570D03*
X110100Y177800D03*
X93100Y177800D03*
D12*
X90170Y98180D03*
X90170Y115180D03*
D13*
X-2540Y82430D03*
X-2540Y67430D03*
D14*
X64770Y125160D03*
X64770Y137160D03*
X64770Y149160D03*
D15*
X36340Y173557D03*
X36340Y168556D03*
X36340Y163554D03*
X36340Y158553D03*
X36340Y153552D03*
X36340Y148551D03*
X36340Y143549D03*
X36340Y138548D03*
X36340Y133547D03*
X36340Y128546D03*
X36340Y123544D03*
X36340Y118543D03*
D16*
X30047Y112250D03*
X25046Y112250D03*
X20044Y112250D03*
X15043Y112250D03*
X10042Y112250D03*
X5041Y112250D03*
X39Y112250D03*
X-4962Y112250D03*
X-9963Y112250D03*
X-14964Y112250D03*
X-19966Y112250D03*
X-24967Y112250D03*
D15*
X-31260Y118543D03*
X-31260Y123544D03*
X-31260Y128546D03*
X-31260Y133547D03*
X-31260Y138548D03*
X-31260Y143549D03*
X-31260Y148551D03*
X-31260Y153552D03*
X-31260Y158553D03*
X-31260Y163554D03*
X-31260Y168556D03*
X-31260Y173557D03*
D16*
X-24967Y179850D03*
X-19966Y179850D03*
X-14964Y179850D03*
X-9963Y179850D03*
X-4962Y179850D03*
X39Y179850D03*
X5041Y179850D03*
X10042Y179850D03*
X15043Y179850D03*
X20044Y179850D03*
X25046Y179850D03*
X30047Y179850D03*
D12*
X-57150Y156600D03*
X-57150Y173600D03*
X13970Y99940D03*
X13970Y82940D03*
X55000Y101600D03*
X72000Y101600D03*
D11*
X132080Y154550D03*
X132080Y137550D03*
D12*
X124850Y179070D03*
X141850Y179070D03*
D10*
X88900Y155550D03*
X88900Y136550D03*
X110490Y155550D03*
X110490Y136550D03*
D17*
X82550Y78310D03*
X82550Y56310D03*
D12*
X17780Y209160D03*
X17780Y192160D03*
X-3810Y209160D03*
X-3810Y192160D03*
D18*
X39710Y224790D03*
X18710Y224790D03*
X-25740Y224790D03*
X-4740Y224790D03*
M02*
