M48
;GenerationSoftware,Autodesk,EAGLE,9.6.1*%
;CreationDate,2024-04-25T13:17:47Z*%
FMAT,2
ICI,OFF
METRIC,TZ,000.000
T5C0.250
T4C0.254
T3C0.350
T2C1.016
T1C1.500
%
G90
M71
T1
X-2286Y26035
X2794Y26035
T2
X-11557Y12446
X-11557Y14986
X-7874Y24130
X13081Y12319
T3
X1042Y9144
X3111Y9144
X11788Y17018
X13993Y17018
X-572Y16701
X-5461Y4572
X-7594Y7112
X-7620Y9271
X-2159Y21971
X4191Y21463
X-8255Y19431
X-8255Y10922
X8255Y10462
X9042Y24574
T4
X-5715Y17592
T5
X-9626Y7618
X-4318Y14605
X-4318Y15494
X-7366Y22225
X10349Y14986
X9548Y8533
X2581Y2203
X11684Y19558
X-6025Y15423
X-3937Y11698
M30