G04 EAGLE Gerber RS-274X export*
G75*
%MOMM*%
%FSLAX34Y34*%
%LPD*%
%INBottom Copper*%
%IPPOS*%
%AMOC8*
5,1,8,0,0,1.08239X$1,22.5*%
G01*
%ADD10R,1.000000X1.100000*%
%ADD11R,1.500000X1.300000*%
%ADD12C,0.124994*%
%ADD13R,5.699988X5.699988*%
%ADD14R,1.399997X0.400000*%
%ADD15R,1.100000X1.000000*%
%ADD16C,0.499997*%
%ADD17C,1.000000*%
%ADD18R,1.300000X1.500000*%
%ADD19C,1.524000*%
%ADD20C,0.756400*%
%ADD21C,0.254000*%
%ADD22C,0.355600*%

G36*
X278630Y195708D02*
X278630Y195708D01*
X278658Y195706D01*
X278726Y195728D01*
X278797Y195742D01*
X278820Y195758D01*
X278847Y195767D01*
X278902Y195814D01*
X278961Y195855D01*
X278976Y195879D01*
X278998Y195897D01*
X279029Y195962D01*
X279068Y196022D01*
X279073Y196050D01*
X279085Y196076D01*
X279094Y196177D01*
X279101Y196219D01*
X279099Y196229D01*
X279100Y196242D01*
X278982Y197719D01*
X316815Y197719D01*
X316900Y197736D01*
X316985Y197748D01*
X316997Y197756D01*
X317011Y197758D01*
X317083Y197807D01*
X317157Y197852D01*
X317165Y197863D01*
X317177Y197871D01*
X317224Y197943D01*
X317275Y198014D01*
X317279Y198028D01*
X317286Y198039D01*
X317296Y198094D01*
X317320Y198188D01*
X317422Y199547D01*
X317413Y199617D01*
X317413Y199687D01*
X317401Y199718D01*
X317397Y199746D01*
X317372Y199790D01*
X317346Y199854D01*
X317343Y199859D01*
X317487Y200492D01*
X317488Y200526D01*
X317499Y200567D01*
X317547Y201214D01*
X317551Y201217D01*
X317595Y201273D01*
X317644Y201323D01*
X317657Y201353D01*
X317674Y201376D01*
X317688Y201425D01*
X317715Y201489D01*
X318242Y203799D01*
X318244Y203869D01*
X318254Y203939D01*
X318247Y203971D01*
X318247Y203999D01*
X318228Y204047D01*
X318213Y204114D01*
X318210Y204119D01*
X318447Y204723D01*
X318454Y204758D01*
X318470Y204796D01*
X318614Y205429D01*
X318619Y205431D01*
X318670Y205480D01*
X318727Y205522D01*
X318744Y205550D01*
X318764Y205570D01*
X318785Y205617D01*
X318821Y205676D01*
X319687Y207881D01*
X319699Y207951D01*
X319719Y208018D01*
X319717Y208051D01*
X319722Y208078D01*
X319710Y208129D01*
X319704Y208198D01*
X319703Y208203D01*
X320027Y208765D01*
X320039Y208798D01*
X320060Y208833D01*
X320297Y209437D01*
X320303Y209439D01*
X320360Y209480D01*
X320423Y209513D01*
X320444Y209538D01*
X320467Y209554D01*
X320494Y209598D01*
X320539Y209651D01*
X321724Y211702D01*
X321733Y211730D01*
X321736Y211735D01*
X321738Y211745D01*
X321746Y211769D01*
X321776Y211833D01*
X321779Y211866D01*
X321787Y211892D01*
X321784Y211944D01*
X321788Y212013D01*
X321788Y212018D01*
X322192Y212526D01*
X322208Y212557D01*
X322235Y212588D01*
X322559Y213150D01*
X322565Y213152D01*
X322628Y213183D01*
X322694Y213207D01*
X322719Y213228D01*
X322744Y213241D01*
X322778Y213280D01*
X322830Y213325D01*
X324307Y215178D01*
X324339Y215240D01*
X324379Y215299D01*
X324386Y215331D01*
X324399Y215356D01*
X324403Y215407D01*
X324417Y215475D01*
X324418Y215480D01*
X324893Y215922D01*
X324914Y215950D01*
X324945Y215977D01*
X325349Y216485D01*
X325355Y216485D01*
X325422Y216507D01*
X325491Y216520D01*
X325519Y216538D01*
X325546Y216547D01*
X325585Y216580D01*
X325643Y216618D01*
X327380Y218229D01*
X327421Y218286D01*
X327469Y218338D01*
X327481Y218369D01*
X327497Y218392D01*
X327509Y218442D01*
X327533Y218507D01*
X327534Y218512D01*
X328070Y218877D01*
X328095Y218902D01*
X328130Y218925D01*
X328605Y219366D01*
X328611Y219366D01*
X328680Y219377D01*
X328751Y219380D01*
X328781Y219394D01*
X328809Y219398D01*
X328852Y219425D01*
X328916Y219454D01*
X330873Y220788D01*
X330922Y220839D01*
X330977Y220883D01*
X330993Y220912D01*
X331013Y220932D01*
X331032Y220980D01*
X331066Y221040D01*
X331068Y221045D01*
X331653Y221327D01*
X331680Y221348D01*
X331718Y221365D01*
X332254Y221730D01*
X332260Y221729D01*
X332330Y221730D01*
X332401Y221722D01*
X332432Y221731D01*
X332460Y221731D01*
X332507Y221752D01*
X332574Y221770D01*
X334709Y222798D01*
X334765Y222841D01*
X334826Y222877D01*
X334846Y222902D01*
X334868Y222919D01*
X334894Y222964D01*
X334937Y223018D01*
X334940Y223023D01*
X335560Y223214D01*
X335590Y223231D01*
X335630Y223242D01*
X336215Y223524D01*
X336220Y223522D01*
X336290Y223512D01*
X336358Y223494D01*
X336391Y223498D01*
X336419Y223494D01*
X336469Y223508D01*
X336537Y223516D01*
X338801Y224214D01*
X338863Y224248D01*
X338929Y224274D01*
X338952Y224297D01*
X338977Y224310D01*
X339009Y224350D01*
X339060Y224398D01*
X339063Y224402D01*
X339704Y224499D01*
X339737Y224511D01*
X339778Y224516D01*
X340399Y224707D01*
X340403Y224704D01*
X340471Y224684D01*
X340536Y224657D01*
X340569Y224656D01*
X340596Y224648D01*
X340647Y224653D01*
X340716Y224651D01*
X343059Y225004D01*
X343125Y225029D01*
X343194Y225045D01*
X343221Y225063D01*
X343247Y225073D01*
X343285Y225108D01*
X343342Y225147D01*
X343346Y225151D01*
X343995Y225151D01*
X344029Y225158D01*
X344070Y225157D01*
X344712Y225254D01*
X344716Y225250D01*
X344780Y225221D01*
X344840Y225183D01*
X344872Y225177D01*
X344898Y225166D01*
X344949Y225164D01*
X345017Y225151D01*
X347387Y225151D01*
X347456Y225165D01*
X347526Y225171D01*
X347556Y225185D01*
X347583Y225191D01*
X347626Y225220D01*
X347688Y225250D01*
X347692Y225254D01*
X348334Y225157D01*
X348369Y225159D01*
X348409Y225151D01*
X349058Y225151D01*
X349062Y225147D01*
X349121Y225108D01*
X349175Y225062D01*
X349206Y225052D01*
X349229Y225036D01*
X349280Y225027D01*
X349345Y225004D01*
X351688Y224651D01*
X351759Y224655D01*
X351829Y224650D01*
X351860Y224660D01*
X351888Y224661D01*
X351935Y224684D01*
X352001Y224704D01*
X352005Y224707D01*
X352626Y224516D01*
X352660Y224512D01*
X352700Y224499D01*
X353341Y224402D01*
X353344Y224398D01*
X353397Y224350D01*
X353443Y224297D01*
X353472Y224282D01*
X353493Y224263D01*
X353542Y224246D01*
X353603Y224214D01*
X355867Y223516D01*
X355937Y223509D01*
X356006Y223494D01*
X356038Y223499D01*
X356066Y223496D01*
X356116Y223511D01*
X356184Y223522D01*
X356189Y223524D01*
X356774Y223242D01*
X356807Y223234D01*
X356844Y223214D01*
X357464Y223023D01*
X357467Y223018D01*
X357512Y222964D01*
X357550Y222904D01*
X357576Y222885D01*
X357594Y222863D01*
X357639Y222839D01*
X357695Y222798D01*
X359830Y221770D01*
X359898Y221753D01*
X359964Y221727D01*
X359997Y221728D01*
X360024Y221721D01*
X360075Y221728D01*
X360144Y221729D01*
X360165Y221733D01*
X360166Y221732D01*
X360213Y221702D01*
X360257Y221694D01*
X360299Y221676D01*
X360355Y221676D01*
X360410Y221666D01*
X360454Y221676D01*
X360499Y221676D01*
X360551Y221697D01*
X360606Y221710D01*
X360643Y221736D01*
X360684Y221753D01*
X360724Y221793D01*
X360769Y221826D01*
X360793Y221864D01*
X360825Y221896D01*
X360846Y221948D01*
X360875Y221996D01*
X360884Y222045D01*
X360899Y222082D01*
X360898Y222123D01*
X360907Y222173D01*
X360907Y293758D01*
X360907Y293760D01*
X360907Y293763D01*
X360887Y293858D01*
X360868Y293954D01*
X360866Y293957D01*
X360866Y293959D01*
X360810Y294040D01*
X360755Y294120D01*
X360753Y294122D01*
X360751Y294124D01*
X360668Y294177D01*
X360587Y294229D01*
X360584Y294230D01*
X360582Y294231D01*
X360486Y294248D01*
X360390Y294265D01*
X360387Y294264D01*
X360385Y294265D01*
X360290Y294243D01*
X360194Y294221D01*
X360192Y294220D01*
X360189Y294219D01*
X360041Y294117D01*
X359068Y293143D01*
X354672Y293143D01*
X351514Y296301D01*
X351509Y296304D01*
X351506Y296309D01*
X351426Y296360D01*
X351347Y296412D01*
X351342Y296413D01*
X351337Y296416D01*
X351243Y296432D01*
X351150Y296450D01*
X351145Y296449D01*
X351140Y296450D01*
X351047Y296428D01*
X350954Y296408D01*
X350949Y296405D01*
X350944Y296404D01*
X350796Y296301D01*
X347638Y293143D01*
X343242Y293143D01*
X340133Y296252D01*
X340133Y300648D01*
X340759Y301274D01*
X340763Y301280D01*
X340769Y301285D01*
X340818Y301363D01*
X340870Y301441D01*
X340871Y301448D01*
X340875Y301455D01*
X340907Y301632D01*
X340907Y312979D01*
X340927Y313090D01*
X340927Y315467D01*
X342187Y316727D01*
X345217Y316727D01*
X345843Y316101D01*
X345848Y316098D01*
X345851Y316094D01*
X345931Y316042D01*
X346010Y315990D01*
X346015Y315989D01*
X346020Y315986D01*
X346114Y315970D01*
X346207Y315952D01*
X346212Y315953D01*
X346218Y315952D01*
X346310Y315974D01*
X346403Y315994D01*
X346408Y315997D01*
X346413Y315998D01*
X346561Y316101D01*
X347187Y316727D01*
X350217Y316727D01*
X350843Y316101D01*
X350848Y316098D01*
X350851Y316094D01*
X350931Y316042D01*
X351010Y315990D01*
X351015Y315989D01*
X351020Y315986D01*
X351114Y315970D01*
X351207Y315952D01*
X351212Y315953D01*
X351218Y315952D01*
X351310Y315974D01*
X351403Y315994D01*
X351408Y315997D01*
X351413Y315998D01*
X351561Y316101D01*
X352187Y316727D01*
X355217Y316727D01*
X355843Y316101D01*
X355848Y316098D01*
X355851Y316094D01*
X355931Y316042D01*
X356010Y315990D01*
X356015Y315989D01*
X356020Y315986D01*
X356114Y315970D01*
X356207Y315952D01*
X356212Y315953D01*
X356218Y315952D01*
X356310Y315974D01*
X356403Y315994D01*
X356408Y315997D01*
X356413Y315998D01*
X356561Y316101D01*
X357187Y316727D01*
X360217Y316727D01*
X360843Y316101D01*
X360848Y316098D01*
X360851Y316094D01*
X360931Y316042D01*
X361010Y315990D01*
X361015Y315989D01*
X361020Y315986D01*
X361114Y315970D01*
X361207Y315952D01*
X361212Y315953D01*
X361218Y315952D01*
X361310Y315974D01*
X361403Y315994D01*
X361408Y315997D01*
X361413Y315998D01*
X361561Y316101D01*
X362187Y316727D01*
X365217Y316727D01*
X365843Y316101D01*
X365848Y316098D01*
X365851Y316094D01*
X365931Y316042D01*
X366010Y315990D01*
X366015Y315989D01*
X366020Y315986D01*
X366114Y315970D01*
X366207Y315952D01*
X366212Y315953D01*
X366218Y315952D01*
X366310Y315974D01*
X366403Y315994D01*
X366408Y315997D01*
X366413Y315998D01*
X366561Y316101D01*
X367187Y316727D01*
X370217Y316727D01*
X370843Y316101D01*
X370848Y316098D01*
X370851Y316094D01*
X370931Y316042D01*
X371010Y315990D01*
X371015Y315989D01*
X371020Y315986D01*
X371114Y315970D01*
X371207Y315952D01*
X371212Y315953D01*
X371218Y315952D01*
X371310Y315974D01*
X371403Y315994D01*
X371408Y315997D01*
X371413Y315998D01*
X371561Y316101D01*
X372187Y316727D01*
X375170Y316727D01*
X375175Y316728D01*
X375180Y316727D01*
X375273Y316748D01*
X375367Y316766D01*
X375371Y316769D01*
X375376Y316770D01*
X375454Y316826D01*
X375532Y316879D01*
X375535Y316883D01*
X375540Y316886D01*
X375590Y316968D01*
X375642Y317047D01*
X375643Y317052D01*
X375645Y317057D01*
X375677Y317234D01*
X375677Y320217D01*
X376303Y320843D01*
X376306Y320848D01*
X376310Y320851D01*
X376362Y320931D01*
X376414Y321010D01*
X376415Y321015D01*
X376418Y321020D01*
X376434Y321114D01*
X376452Y321207D01*
X376451Y321212D01*
X376452Y321218D01*
X376430Y321310D01*
X376410Y321403D01*
X376407Y321408D01*
X376406Y321413D01*
X376303Y321561D01*
X375677Y322187D01*
X375677Y325217D01*
X376303Y325843D01*
X376306Y325848D01*
X376310Y325851D01*
X376362Y325931D01*
X376414Y326010D01*
X376415Y326015D01*
X376418Y326020D01*
X376434Y326114D01*
X376452Y326207D01*
X376451Y326212D01*
X376452Y326218D01*
X376430Y326310D01*
X376410Y326403D01*
X376407Y326408D01*
X376406Y326413D01*
X376303Y326561D01*
X375677Y327187D01*
X375677Y330217D01*
X376303Y330843D01*
X376306Y330848D01*
X376310Y330851D01*
X376362Y330931D01*
X376414Y331010D01*
X376415Y331015D01*
X376418Y331020D01*
X376434Y331114D01*
X376452Y331207D01*
X376451Y331212D01*
X376452Y331218D01*
X376430Y331310D01*
X376410Y331403D01*
X376407Y331408D01*
X376406Y331413D01*
X376303Y331561D01*
X375677Y332187D01*
X375677Y335217D01*
X376303Y335843D01*
X376306Y335848D01*
X376310Y335851D01*
X376362Y335931D01*
X376414Y336010D01*
X376415Y336015D01*
X376418Y336020D01*
X376434Y336114D01*
X376452Y336207D01*
X376451Y336212D01*
X376452Y336218D01*
X376430Y336310D01*
X376410Y336403D01*
X376407Y336408D01*
X376406Y336413D01*
X376303Y336561D01*
X375677Y337187D01*
X375677Y340217D01*
X376303Y340843D01*
X376306Y340848D01*
X376310Y340851D01*
X376362Y340931D01*
X376414Y341010D01*
X376415Y341015D01*
X376418Y341020D01*
X376434Y341114D01*
X376452Y341207D01*
X376451Y341212D01*
X376452Y341218D01*
X376430Y341310D01*
X376410Y341403D01*
X376407Y341408D01*
X376406Y341413D01*
X376303Y341561D01*
X375677Y342187D01*
X375677Y345217D01*
X376303Y345843D01*
X376306Y345848D01*
X376310Y345851D01*
X376362Y345931D01*
X376414Y346010D01*
X376415Y346015D01*
X376418Y346020D01*
X376434Y346114D01*
X376452Y346207D01*
X376451Y346212D01*
X376452Y346218D01*
X376430Y346310D01*
X376410Y346403D01*
X376407Y346408D01*
X376406Y346413D01*
X376303Y346561D01*
X375677Y347187D01*
X375677Y350217D01*
X376303Y350843D01*
X376306Y350848D01*
X376310Y350851D01*
X376362Y350931D01*
X376414Y351010D01*
X376415Y351015D01*
X376418Y351020D01*
X376434Y351114D01*
X376452Y351207D01*
X376451Y351212D01*
X376452Y351218D01*
X376430Y351310D01*
X376410Y351403D01*
X376407Y351408D01*
X376406Y351413D01*
X376303Y351561D01*
X375677Y352187D01*
X375677Y355217D01*
X376303Y355843D01*
X376306Y355848D01*
X376310Y355851D01*
X376362Y355931D01*
X376414Y356010D01*
X376415Y356015D01*
X376418Y356020D01*
X376434Y356114D01*
X376452Y356207D01*
X376451Y356212D01*
X376452Y356218D01*
X376430Y356310D01*
X376410Y356403D01*
X376407Y356408D01*
X376406Y356413D01*
X376303Y356561D01*
X375677Y357187D01*
X375677Y360217D01*
X376303Y360843D01*
X376306Y360848D01*
X376310Y360851D01*
X376362Y360931D01*
X376414Y361010D01*
X376415Y361015D01*
X376418Y361020D01*
X376434Y361114D01*
X376452Y361207D01*
X376451Y361212D01*
X376452Y361218D01*
X376430Y361310D01*
X376410Y361403D01*
X376407Y361408D01*
X376406Y361413D01*
X376303Y361561D01*
X375677Y362187D01*
X375677Y365217D01*
X376937Y366477D01*
X384468Y366477D01*
X385727Y365217D01*
X385727Y362187D01*
X385101Y361561D01*
X385098Y361556D01*
X385094Y361553D01*
X385043Y361473D01*
X384990Y361394D01*
X384989Y361389D01*
X384986Y361384D01*
X384970Y361290D01*
X384952Y361197D01*
X384953Y361192D01*
X384953Y361187D01*
X384974Y361094D01*
X384994Y361001D01*
X384997Y360996D01*
X384998Y360991D01*
X385101Y360843D01*
X385727Y360217D01*
X385727Y357187D01*
X385589Y357049D01*
X385587Y357047D01*
X385585Y357045D01*
X385532Y356963D01*
X385478Y356882D01*
X385477Y356879D01*
X385476Y356877D01*
X385459Y356780D01*
X385440Y356685D01*
X385441Y356682D01*
X385440Y356680D01*
X385462Y356583D01*
X385482Y356489D01*
X385483Y356487D01*
X385484Y356484D01*
X385542Y356403D01*
X385596Y356324D01*
X385598Y356323D01*
X385600Y356321D01*
X385684Y356268D01*
X385765Y356217D01*
X385768Y356216D01*
X385770Y356215D01*
X385948Y356183D01*
X399501Y356183D01*
X399508Y356184D01*
X399516Y356183D01*
X399606Y356204D01*
X399697Y356222D01*
X399704Y356227D01*
X399711Y356229D01*
X399859Y356331D01*
X409333Y365805D01*
X409734Y365805D01*
X409741Y365806D01*
X409749Y365805D01*
X409839Y365826D01*
X409930Y365845D01*
X409937Y365849D01*
X409944Y365851D01*
X410092Y365953D01*
X410674Y366535D01*
X425937Y366535D01*
X426830Y365642D01*
X426830Y360379D01*
X425937Y359485D01*
X411128Y359485D01*
X411120Y359484D01*
X411113Y359485D01*
X411023Y359464D01*
X410932Y359446D01*
X410925Y359441D01*
X410917Y359440D01*
X410769Y359337D01*
X402701Y351269D01*
X402698Y351264D01*
X402694Y351261D01*
X402643Y351181D01*
X402590Y351102D01*
X402589Y351097D01*
X402586Y351092D01*
X402570Y350998D01*
X402553Y350905D01*
X402554Y350900D01*
X402553Y350894D01*
X402574Y350802D01*
X402594Y350709D01*
X402597Y350704D01*
X402598Y350699D01*
X402701Y350551D01*
X410569Y342684D01*
X410575Y342679D01*
X410580Y342673D01*
X410659Y342624D01*
X410736Y342573D01*
X410743Y342571D01*
X410750Y342567D01*
X410927Y342535D01*
X425937Y342535D01*
X426830Y341642D01*
X426830Y336757D01*
X426830Y336754D01*
X426830Y336752D01*
X426850Y336657D01*
X426870Y336560D01*
X426871Y336558D01*
X426872Y336556D01*
X426928Y336475D01*
X426982Y336395D01*
X426984Y336393D01*
X426986Y336391D01*
X427070Y336338D01*
X427150Y336285D01*
X427153Y336285D01*
X427155Y336283D01*
X427252Y336267D01*
X427348Y336250D01*
X427350Y336250D01*
X427353Y336250D01*
X427446Y336272D01*
X427543Y336293D01*
X427545Y336295D01*
X427548Y336295D01*
X427696Y336398D01*
X434017Y342719D01*
X434021Y342726D01*
X434027Y342730D01*
X434076Y342809D01*
X434128Y342886D01*
X434129Y342894D01*
X434133Y342900D01*
X434165Y343078D01*
X434165Y348152D01*
X435058Y349045D01*
X444824Y349045D01*
X444832Y349046D01*
X444839Y349045D01*
X444929Y349066D01*
X445020Y349084D01*
X445027Y349089D01*
X445034Y349091D01*
X445182Y349193D01*
X446736Y350747D01*
X451132Y350747D01*
X453748Y348131D01*
X453752Y348128D01*
X453755Y348124D01*
X453835Y348073D01*
X453915Y348020D01*
X453920Y348019D01*
X453924Y348016D01*
X454018Y348001D01*
X454111Y347983D01*
X454117Y347984D01*
X454122Y347983D01*
X454214Y348005D01*
X454308Y348024D01*
X454312Y348027D01*
X454317Y348028D01*
X454465Y348131D01*
X454878Y348545D01*
X467142Y348545D01*
X467509Y348177D01*
X467512Y348175D01*
X467513Y348173D01*
X467594Y348121D01*
X467676Y348066D01*
X467679Y348065D01*
X467681Y348064D01*
X467777Y348047D01*
X467873Y348028D01*
X467876Y348029D01*
X467878Y348028D01*
X467975Y348050D01*
X468069Y348070D01*
X468071Y348071D01*
X468074Y348072D01*
X468154Y348129D01*
X468234Y348184D01*
X468235Y348187D01*
X468237Y348188D01*
X468289Y348271D01*
X468341Y348353D01*
X468342Y348356D01*
X468343Y348358D01*
X468375Y348536D01*
X468375Y380902D01*
X468374Y380910D01*
X468375Y380918D01*
X468354Y381008D01*
X468336Y381099D01*
X468331Y381105D01*
X468329Y381113D01*
X468227Y381261D01*
X463783Y385705D01*
X463776Y385709D01*
X463772Y385715D01*
X463693Y385764D01*
X463616Y385816D01*
X463608Y385817D01*
X463602Y385821D01*
X463424Y385853D01*
X460082Y385853D01*
X456973Y388962D01*
X456973Y393358D01*
X460007Y396392D01*
X460036Y396436D01*
X460073Y396473D01*
X460091Y396518D01*
X460118Y396559D01*
X460128Y396611D01*
X460147Y396659D01*
X460146Y396708D01*
X460156Y396756D01*
X460145Y396807D01*
X460144Y396860D01*
X460124Y396904D01*
X460114Y396952D01*
X460084Y396995D01*
X460063Y397043D01*
X460024Y397081D01*
X460000Y397116D01*
X459967Y397137D01*
X459934Y397170D01*
X458799Y397944D01*
X458734Y397972D01*
X458672Y398007D01*
X458640Y398011D01*
X458614Y398022D01*
X458563Y398022D01*
X458494Y398032D01*
X458489Y398032D01*
X458013Y398473D01*
X457984Y398491D01*
X457954Y398521D01*
X457418Y398886D01*
X457417Y398892D01*
X457390Y398957D01*
X457372Y399025D01*
X457352Y399051D01*
X457341Y399077D01*
X457305Y399114D01*
X457263Y399169D01*
X455526Y400783D01*
X455466Y400820D01*
X455410Y400863D01*
X455379Y400873D01*
X455355Y400887D01*
X455304Y400895D01*
X455237Y400915D01*
X455232Y400916D01*
X454828Y401423D01*
X454801Y401446D01*
X454776Y401479D01*
X454300Y401920D01*
X454300Y401926D01*
X454284Y401995D01*
X454276Y402065D01*
X454260Y402093D01*
X454253Y402121D01*
X454223Y402162D01*
X454190Y402223D01*
X452712Y404078D01*
X452658Y404123D01*
X452610Y404175D01*
X452580Y404189D01*
X452559Y404207D01*
X452509Y404222D01*
X452447Y404251D01*
X452442Y404253D01*
X452117Y404815D01*
X452094Y404841D01*
X452075Y404878D01*
X451670Y405385D01*
X451671Y405390D01*
X451665Y405461D01*
X451667Y405531D01*
X451656Y405562D01*
X451654Y405590D01*
X451630Y405636D01*
X451606Y405701D01*
X450421Y407755D01*
X450374Y407808D01*
X450334Y407866D01*
X450307Y407884D01*
X450289Y407905D01*
X450242Y407928D01*
X450185Y407966D01*
X450180Y407969D01*
X449943Y408573D01*
X449924Y408602D01*
X449910Y408641D01*
X449586Y409203D01*
X449587Y409208D01*
X449592Y409279D01*
X449604Y409348D01*
X449598Y409380D01*
X449600Y409408D01*
X449583Y409457D01*
X449569Y409525D01*
X448704Y411733D01*
X448666Y411792D01*
X448635Y411855D01*
X448610Y411878D01*
X448595Y411901D01*
X448553Y411930D01*
X448502Y411977D01*
X448497Y411980D01*
X448353Y412613D01*
X448338Y412644D01*
X448330Y412685D01*
X448093Y413289D01*
X448096Y413294D01*
X448111Y413363D01*
X448134Y413430D01*
X448132Y413463D01*
X448138Y413490D01*
X448129Y413541D01*
X448125Y413610D01*
X447598Y415922D01*
X447570Y415986D01*
X447548Y416054D01*
X447528Y416079D01*
X447516Y416105D01*
X447478Y416140D01*
X447435Y416194D01*
X447431Y416197D01*
X447382Y416844D01*
X447373Y416878D01*
X447371Y416919D01*
X447227Y417552D01*
X447230Y417557D01*
X447255Y417623D01*
X447288Y417685D01*
X447291Y417718D01*
X447301Y417744D01*
X447299Y417796D01*
X447306Y417864D01*
X447130Y420229D01*
X447111Y420297D01*
X447100Y420367D01*
X447083Y420395D01*
X447076Y420422D01*
X447044Y420463D01*
X447009Y420522D01*
X447005Y420526D01*
X447054Y421173D01*
X447049Y421208D01*
X447054Y421249D01*
X447005Y421896D01*
X447009Y421900D01*
X447044Y421962D01*
X447085Y422019D01*
X447094Y422051D01*
X447107Y422075D01*
X447113Y422127D01*
X447131Y422193D01*
X447308Y424558D01*
X447300Y424628D01*
X447299Y424699D01*
X447287Y424729D01*
X447284Y424757D01*
X447258Y424802D01*
X447232Y424866D01*
X447229Y424871D01*
X447374Y425503D01*
X447375Y425538D01*
X447385Y425578D01*
X447434Y426225D01*
X447438Y426229D01*
X447482Y426285D01*
X447531Y426335D01*
X447544Y426365D01*
X447561Y426387D01*
X447575Y426437D01*
X447602Y426500D01*
X448130Y428812D01*
X448132Y428883D01*
X448142Y428953D01*
X448135Y428984D01*
X448135Y429012D01*
X448117Y429061D01*
X448101Y429128D01*
X448099Y429133D01*
X448336Y429737D01*
X448342Y429771D01*
X448358Y429809D01*
X448503Y430442D01*
X448507Y430445D01*
X448559Y430493D01*
X448615Y430536D01*
X448632Y430563D01*
X448653Y430583D01*
X448674Y430630D01*
X448710Y430689D01*
X449577Y432896D01*
X449589Y432966D01*
X449610Y433033D01*
X449607Y433066D01*
X449612Y433093D01*
X449601Y433144D01*
X449595Y433213D01*
X449593Y433218D01*
X449918Y433780D01*
X449929Y433813D01*
X449951Y433848D01*
X450188Y434452D01*
X450193Y434454D01*
X450251Y434495D01*
X450313Y434528D01*
X450335Y434553D01*
X450358Y434569D01*
X450385Y434613D01*
X450430Y434665D01*
X451616Y436719D01*
X451639Y436786D01*
X451669Y436849D01*
X451671Y436882D01*
X451680Y436909D01*
X451676Y436960D01*
X451681Y437029D01*
X451680Y437035D01*
X452085Y437542D01*
X452101Y437573D01*
X452128Y437604D01*
X452452Y438166D01*
X452458Y438168D01*
X452502Y438190D01*
X452527Y438195D01*
X452547Y438208D01*
X452588Y438223D01*
X452612Y438244D01*
X452637Y438257D01*
X452665Y438288D01*
X452693Y438307D01*
X452704Y438324D01*
X452723Y438341D01*
X454202Y440195D01*
X454234Y440258D01*
X454274Y440316D01*
X454281Y440348D01*
X454294Y440373D01*
X454298Y440425D01*
X454313Y440492D01*
X454313Y440498D01*
X454789Y440939D01*
X454809Y440967D01*
X454840Y440994D01*
X455245Y441502D01*
X455250Y441502D01*
X455318Y441524D01*
X455387Y441537D01*
X455415Y441555D01*
X455441Y441564D01*
X455481Y441597D01*
X455539Y441634D01*
X457278Y443247D01*
X457319Y443304D01*
X457367Y443356D01*
X457378Y443387D01*
X457395Y443409D01*
X457406Y443460D01*
X457431Y443524D01*
X457432Y443530D01*
X457968Y443895D01*
X457993Y443920D01*
X458028Y443942D01*
X458503Y444384D01*
X458509Y444383D01*
X458579Y444395D01*
X458649Y444398D01*
X458679Y444411D01*
X458707Y444415D01*
X458751Y444443D01*
X458814Y444471D01*
X459934Y445234D01*
X459994Y445296D01*
X460058Y445355D01*
X460064Y445368D01*
X460074Y445378D01*
X460106Y445458D01*
X460142Y445537D01*
X460143Y445551D01*
X460148Y445564D01*
X460146Y445651D01*
X460149Y445737D01*
X460144Y445751D01*
X460143Y445764D01*
X460121Y445815D01*
X460088Y445907D01*
X441197Y478627D01*
X442516Y479251D01*
X442538Y479268D01*
X442565Y479278D01*
X442617Y479327D01*
X442675Y479370D01*
X442689Y479395D01*
X442710Y479414D01*
X442739Y479480D01*
X442775Y479542D01*
X442778Y479570D01*
X442790Y479596D01*
X442791Y479668D01*
X442800Y479739D01*
X442792Y479766D01*
X442793Y479795D01*
X442757Y479890D01*
X442746Y479930D01*
X442739Y479939D01*
X442735Y479951D01*
X433235Y496451D01*
X433183Y496510D01*
X433137Y496572D01*
X433118Y496583D01*
X433103Y496600D01*
X433033Y496634D01*
X432966Y496674D01*
X432942Y496678D01*
X432924Y496686D01*
X432879Y496688D01*
X432802Y496701D01*
X413802Y496701D01*
X413774Y496696D01*
X413746Y496698D01*
X413678Y496676D01*
X413607Y496662D01*
X413584Y496646D01*
X413557Y496637D01*
X413502Y496590D01*
X413443Y496549D01*
X413428Y496525D01*
X413407Y496507D01*
X413375Y496442D01*
X413336Y496382D01*
X413331Y496354D01*
X413319Y496328D01*
X413310Y496227D01*
X413303Y496185D01*
X413305Y496175D01*
X413304Y496162D01*
X413422Y494685D01*
X278982Y494685D01*
X279100Y496162D01*
X279096Y496191D01*
X279101Y496219D01*
X279084Y496288D01*
X279076Y496360D01*
X279062Y496384D01*
X279055Y496412D01*
X279012Y496470D01*
X278977Y496532D01*
X278954Y496549D01*
X278937Y496572D01*
X278875Y496609D01*
X278818Y496652D01*
X278790Y496659D01*
X278766Y496674D01*
X278666Y496690D01*
X278625Y496701D01*
X278615Y496699D01*
X278602Y496701D01*
X259602Y496701D01*
X259526Y496686D01*
X259448Y496677D01*
X259429Y496666D01*
X259407Y496662D01*
X259343Y496618D01*
X259275Y496579D01*
X259259Y496560D01*
X259243Y496549D01*
X259219Y496511D01*
X259169Y496451D01*
X249669Y479951D01*
X249660Y479924D01*
X249644Y479900D01*
X249629Y479830D01*
X249606Y479762D01*
X249609Y479734D01*
X249603Y479706D01*
X249617Y479636D01*
X249622Y479564D01*
X249635Y479539D01*
X249641Y479511D01*
X249681Y479451D01*
X249714Y479388D01*
X249736Y479370D01*
X249752Y479346D01*
X249835Y479288D01*
X249867Y479261D01*
X249878Y479258D01*
X249889Y479251D01*
X251207Y478627D01*
X232316Y445907D01*
X232289Y445825D01*
X232257Y445744D01*
X232257Y445730D01*
X232252Y445717D01*
X232259Y445630D01*
X232260Y445544D01*
X232266Y445531D01*
X232267Y445517D01*
X232306Y445440D01*
X232342Y445360D01*
X232352Y445350D01*
X232358Y445338D01*
X232401Y445303D01*
X232470Y445234D01*
X233590Y444471D01*
X233655Y444444D01*
X233717Y444409D01*
X233749Y444404D01*
X233775Y444393D01*
X233827Y444393D01*
X233895Y444383D01*
X233901Y444384D01*
X234376Y443942D01*
X234406Y443924D01*
X234436Y443895D01*
X234972Y443530D01*
X234973Y443524D01*
X235000Y443459D01*
X235018Y443391D01*
X235038Y443365D01*
X235048Y443339D01*
X235085Y443302D01*
X235126Y443247D01*
X236865Y441634D01*
X236925Y441598D01*
X236981Y441554D01*
X237012Y441544D01*
X237036Y441530D01*
X237087Y441522D01*
X237154Y441502D01*
X237159Y441502D01*
X237564Y440994D01*
X237590Y440972D01*
X237615Y440939D01*
X238091Y440498D01*
X238091Y440492D01*
X238108Y440424D01*
X238116Y440354D01*
X238132Y440325D01*
X238138Y440297D01*
X238169Y440256D01*
X238202Y440195D01*
X238237Y440150D01*
X238261Y440130D01*
X238279Y440104D01*
X238337Y440066D01*
X238391Y440021D01*
X238421Y440012D01*
X238447Y439995D01*
X238516Y439982D01*
X238582Y439962D01*
X238613Y439965D01*
X238644Y439959D01*
X238712Y439974D01*
X238782Y439981D01*
X238809Y439996D01*
X238840Y440003D01*
X238897Y440043D01*
X238958Y440076D01*
X238978Y440101D01*
X239004Y440119D01*
X239040Y440178D01*
X239084Y440232D01*
X239093Y440262D01*
X239109Y440289D01*
X239124Y440371D01*
X239140Y440425D01*
X239137Y440444D01*
X239141Y440466D01*
X239141Y448667D01*
X241499Y451025D01*
X255833Y451025D01*
X258191Y448667D01*
X258191Y440306D01*
X258188Y440302D01*
X258133Y440219D01*
X258132Y440216D01*
X258131Y440214D01*
X258113Y440118D01*
X258095Y440022D01*
X258095Y440019D01*
X258095Y440017D01*
X258116Y439920D01*
X258136Y439826D01*
X258138Y439824D01*
X258139Y439821D01*
X258195Y439741D01*
X258251Y439661D01*
X258253Y439660D01*
X258255Y439658D01*
X258337Y439606D01*
X258420Y439554D01*
X258423Y439553D01*
X258425Y439552D01*
X258602Y439520D01*
X261151Y439520D01*
X264260Y436411D01*
X264260Y435102D01*
X264260Y435101D01*
X264261Y435097D01*
X264260Y435092D01*
X264281Y434999D01*
X264299Y434905D01*
X264302Y434901D01*
X264303Y434896D01*
X264359Y434818D01*
X264412Y434740D01*
X264416Y434737D01*
X264419Y434733D01*
X264501Y434682D01*
X264580Y434630D01*
X264585Y434630D01*
X264590Y434627D01*
X264767Y434595D01*
X289753Y434595D01*
X289756Y434595D01*
X289758Y434595D01*
X289853Y434615D01*
X289950Y434634D01*
X289952Y434636D01*
X289954Y434636D01*
X290035Y434692D01*
X290115Y434747D01*
X290117Y434749D01*
X290119Y434751D01*
X290172Y434834D01*
X290225Y434915D01*
X290225Y434918D01*
X290227Y434920D01*
X290243Y435016D01*
X290260Y435112D01*
X290260Y435115D01*
X290260Y435117D01*
X290238Y435211D01*
X290217Y435308D01*
X290215Y435310D01*
X290215Y435313D01*
X290112Y435461D01*
X287522Y438050D01*
X286130Y441411D01*
X286130Y460289D01*
X287522Y463650D01*
X290095Y466223D01*
X291008Y466601D01*
X292233Y467108D01*
X293456Y467615D01*
X297094Y467615D01*
X300455Y466223D01*
X300952Y465725D01*
X300957Y465723D01*
X300960Y465718D01*
X301040Y465667D01*
X301119Y465614D01*
X301124Y465613D01*
X301129Y465611D01*
X301223Y465595D01*
X301316Y465577D01*
X301321Y465578D01*
X301326Y465577D01*
X301419Y465599D01*
X301512Y465618D01*
X301516Y465621D01*
X301522Y465623D01*
X301670Y465725D01*
X321847Y485903D01*
X360453Y485903D01*
X360458Y485904D01*
X360463Y485903D01*
X360556Y485924D01*
X360650Y485942D01*
X360654Y485945D01*
X360659Y485946D01*
X360737Y486002D01*
X360815Y486055D01*
X360818Y486059D01*
X360822Y486062D01*
X360873Y486144D01*
X360925Y486223D01*
X360925Y486228D01*
X360928Y486233D01*
X360960Y486410D01*
X360960Y490732D01*
X361853Y491625D01*
X376117Y491625D01*
X377010Y490732D01*
X377010Y474468D01*
X376117Y473575D01*
X361853Y473575D01*
X360960Y474468D01*
X360960Y478790D01*
X360959Y478795D01*
X360960Y478800D01*
X360939Y478893D01*
X360921Y478987D01*
X360918Y478991D01*
X360917Y478996D01*
X360861Y479074D01*
X360808Y479152D01*
X360804Y479155D01*
X360801Y479159D01*
X360719Y479210D01*
X360640Y479262D01*
X360635Y479262D01*
X360630Y479265D01*
X360453Y479297D01*
X324793Y479297D01*
X324785Y479296D01*
X324778Y479297D01*
X324688Y479276D01*
X324597Y479258D01*
X324590Y479253D01*
X324582Y479251D01*
X324434Y479149D01*
X304568Y459283D01*
X304564Y459276D01*
X304558Y459271D01*
X304509Y459193D01*
X304457Y459116D01*
X304456Y459108D01*
X304452Y459101D01*
X304420Y458924D01*
X304420Y441411D01*
X303028Y438050D01*
X300438Y435461D01*
X300437Y435458D01*
X300435Y435457D01*
X300382Y435376D01*
X300327Y435294D01*
X300327Y435291D01*
X300325Y435289D01*
X300308Y435193D01*
X300290Y435097D01*
X300290Y435094D01*
X300290Y435092D01*
X300311Y434995D01*
X300331Y434901D01*
X300333Y434899D01*
X300333Y434896D01*
X300390Y434816D01*
X300446Y434736D01*
X300448Y434735D01*
X300449Y434733D01*
X300532Y434681D01*
X300615Y434629D01*
X300617Y434628D01*
X300620Y434627D01*
X300797Y434595D01*
X313968Y434595D01*
X347079Y401483D01*
X347084Y401480D01*
X347087Y401476D01*
X347167Y401425D01*
X347246Y401372D01*
X347251Y401371D01*
X347256Y401368D01*
X347350Y401352D01*
X347443Y401334D01*
X347448Y401336D01*
X347454Y401335D01*
X347546Y401356D01*
X347639Y401376D01*
X347644Y401379D01*
X347649Y401380D01*
X347797Y401483D01*
X348198Y401885D01*
X360462Y401885D01*
X361355Y400992D01*
X361355Y389728D01*
X360462Y388835D01*
X357004Y388835D01*
X356999Y388834D01*
X356994Y388835D01*
X356901Y388814D01*
X356807Y388796D01*
X356803Y388793D01*
X356798Y388792D01*
X356720Y388736D01*
X356642Y388683D01*
X356639Y388679D01*
X356635Y388676D01*
X356584Y388594D01*
X356532Y388515D01*
X356532Y388510D01*
X356529Y388505D01*
X356497Y388328D01*
X356497Y386234D01*
X356498Y386229D01*
X356497Y386224D01*
X356518Y386131D01*
X356536Y386038D01*
X356539Y386033D01*
X356540Y386028D01*
X356596Y385950D01*
X356649Y385872D01*
X356653Y385869D01*
X356656Y385865D01*
X356738Y385814D01*
X356817Y385763D01*
X356822Y385762D01*
X356827Y385759D01*
X357004Y385727D01*
X360217Y385727D01*
X360843Y385101D01*
X360848Y385098D01*
X360851Y385094D01*
X360931Y385043D01*
X361010Y384990D01*
X361015Y384989D01*
X361020Y384986D01*
X361114Y384970D01*
X361207Y384952D01*
X361212Y384953D01*
X361217Y384953D01*
X361310Y384974D01*
X361403Y384994D01*
X361408Y384997D01*
X361413Y384998D01*
X361561Y385101D01*
X362187Y385727D01*
X365217Y385727D01*
X366477Y384468D01*
X366477Y376937D01*
X365217Y375677D01*
X362187Y375677D01*
X361561Y376303D01*
X361556Y376306D01*
X361553Y376310D01*
X361473Y376362D01*
X361394Y376414D01*
X361389Y376415D01*
X361384Y376418D01*
X361290Y376434D01*
X361197Y376452D01*
X361192Y376451D01*
X361186Y376452D01*
X361094Y376430D01*
X361001Y376410D01*
X360996Y376407D01*
X360991Y376406D01*
X360843Y376303D01*
X360217Y375677D01*
X357187Y375677D01*
X356561Y376303D01*
X356556Y376306D01*
X356553Y376310D01*
X356473Y376362D01*
X356394Y376414D01*
X356389Y376415D01*
X356384Y376418D01*
X356290Y376434D01*
X356197Y376452D01*
X356192Y376451D01*
X356186Y376452D01*
X356094Y376430D01*
X356001Y376410D01*
X355996Y376407D01*
X355991Y376406D01*
X355843Y376303D01*
X355217Y375677D01*
X352187Y375677D01*
X351561Y376303D01*
X351556Y376306D01*
X351553Y376310D01*
X351473Y376362D01*
X351394Y376414D01*
X351389Y376415D01*
X351384Y376418D01*
X351290Y376434D01*
X351197Y376452D01*
X351192Y376451D01*
X351186Y376452D01*
X351094Y376430D01*
X351001Y376410D01*
X350996Y376407D01*
X350991Y376406D01*
X350843Y376303D01*
X350217Y375677D01*
X347187Y375677D01*
X346561Y376303D01*
X346556Y376306D01*
X346553Y376310D01*
X346473Y376362D01*
X346394Y376414D01*
X346389Y376415D01*
X346384Y376418D01*
X346290Y376434D01*
X346197Y376452D01*
X346192Y376451D01*
X346186Y376452D01*
X346094Y376430D01*
X346001Y376410D01*
X345996Y376407D01*
X345991Y376406D01*
X345843Y376303D01*
X345217Y375677D01*
X342187Y375677D01*
X341561Y376303D01*
X341556Y376306D01*
X341553Y376310D01*
X341473Y376362D01*
X341394Y376414D01*
X341389Y376415D01*
X341384Y376418D01*
X341290Y376434D01*
X341197Y376452D01*
X341192Y376451D01*
X341186Y376452D01*
X341094Y376430D01*
X341001Y376410D01*
X340996Y376407D01*
X340991Y376406D01*
X340843Y376303D01*
X340217Y375677D01*
X337187Y375677D01*
X336561Y376303D01*
X336556Y376306D01*
X336553Y376310D01*
X336473Y376362D01*
X336394Y376414D01*
X336389Y376415D01*
X336384Y376418D01*
X336290Y376434D01*
X336197Y376452D01*
X336192Y376451D01*
X336186Y376452D01*
X336094Y376430D01*
X336001Y376410D01*
X335996Y376407D01*
X335991Y376406D01*
X335843Y376303D01*
X335217Y375677D01*
X332187Y375677D01*
X331561Y376303D01*
X331556Y376306D01*
X331553Y376310D01*
X331473Y376362D01*
X331394Y376414D01*
X331389Y376415D01*
X331384Y376418D01*
X331290Y376434D01*
X331197Y376452D01*
X331192Y376451D01*
X331186Y376452D01*
X331094Y376430D01*
X331001Y376410D01*
X330996Y376407D01*
X330991Y376406D01*
X330843Y376303D01*
X330217Y375677D01*
X327187Y375677D01*
X326561Y376303D01*
X326556Y376306D01*
X326553Y376310D01*
X326473Y376361D01*
X326394Y376414D01*
X326389Y376415D01*
X326384Y376418D01*
X326290Y376434D01*
X326197Y376452D01*
X326192Y376451D01*
X326187Y376452D01*
X326094Y376430D01*
X326001Y376410D01*
X325996Y376407D01*
X325991Y376406D01*
X325843Y376303D01*
X325217Y375677D01*
X322187Y375677D01*
X321561Y376303D01*
X321556Y376306D01*
X321553Y376310D01*
X321473Y376362D01*
X321394Y376414D01*
X321389Y376415D01*
X321384Y376418D01*
X321290Y376434D01*
X321197Y376452D01*
X321192Y376451D01*
X321186Y376452D01*
X321094Y376430D01*
X321001Y376410D01*
X320996Y376407D01*
X320991Y376406D01*
X320843Y376303D01*
X320217Y375677D01*
X317234Y375677D01*
X317229Y375676D01*
X317224Y375677D01*
X317131Y375656D01*
X317037Y375638D01*
X317033Y375635D01*
X317028Y375634D01*
X316950Y375578D01*
X316872Y375525D01*
X316869Y375521D01*
X316864Y375518D01*
X316814Y375436D01*
X316762Y375357D01*
X316761Y375352D01*
X316759Y375347D01*
X316727Y375170D01*
X316727Y372187D01*
X315467Y370927D01*
X313090Y370927D01*
X313082Y370926D01*
X313074Y370927D01*
X312989Y370907D01*
X310425Y370907D01*
X310314Y370927D01*
X307936Y370927D01*
X306677Y372187D01*
X306677Y375217D01*
X306735Y375275D01*
X306738Y375280D01*
X306742Y375283D01*
X306794Y375363D01*
X306846Y375442D01*
X306847Y375447D01*
X306850Y375452D01*
X306866Y375546D01*
X306884Y375639D01*
X306883Y375644D01*
X306883Y375649D01*
X306862Y375742D01*
X306842Y375835D01*
X306839Y375839D01*
X306838Y375845D01*
X306735Y375993D01*
X299131Y383597D01*
X299124Y383601D01*
X299120Y383607D01*
X299041Y383656D01*
X298964Y383708D01*
X298956Y383709D01*
X298950Y383713D01*
X298772Y383745D01*
X290278Y383745D01*
X289385Y384638D01*
X289385Y386690D01*
X289384Y386695D01*
X289385Y386700D01*
X289364Y386793D01*
X289346Y386887D01*
X289343Y386891D01*
X289342Y386896D01*
X289286Y386974D01*
X289233Y387052D01*
X289229Y387055D01*
X289226Y387059D01*
X289144Y387110D01*
X289065Y387162D01*
X289060Y387162D01*
X289055Y387165D01*
X288878Y387197D01*
X285122Y387197D01*
X285117Y387196D01*
X285112Y387197D01*
X285019Y387176D01*
X284925Y387158D01*
X284921Y387155D01*
X284916Y387154D01*
X284838Y387098D01*
X284760Y387045D01*
X284757Y387041D01*
X284753Y387038D01*
X284702Y386956D01*
X284650Y386877D01*
X284650Y386872D01*
X284647Y386867D01*
X284615Y386690D01*
X284615Y383368D01*
X283722Y382475D01*
X267458Y382475D01*
X266565Y383368D01*
X266565Y384836D01*
X266565Y384838D01*
X266565Y384841D01*
X266545Y384936D01*
X266526Y385032D01*
X266524Y385035D01*
X266524Y385037D01*
X266468Y385118D01*
X266413Y385198D01*
X266411Y385200D01*
X266409Y385202D01*
X266326Y385255D01*
X266245Y385307D01*
X266242Y385308D01*
X266240Y385309D01*
X266144Y385326D01*
X266048Y385343D01*
X266045Y385342D01*
X266043Y385343D01*
X265948Y385321D01*
X265852Y385299D01*
X265850Y385298D01*
X265847Y385297D01*
X265699Y385195D01*
X265088Y384583D01*
X260692Y384583D01*
X257583Y387692D01*
X257583Y392088D01*
X260692Y395197D01*
X265088Y395197D01*
X265699Y394585D01*
X265702Y394584D01*
X265703Y394582D01*
X265783Y394530D01*
X265866Y394475D01*
X265869Y394474D01*
X265871Y394473D01*
X265967Y394455D01*
X266063Y394437D01*
X266066Y394437D01*
X266068Y394437D01*
X266165Y394458D01*
X266259Y394479D01*
X266261Y394480D01*
X266264Y394481D01*
X266344Y394537D01*
X266424Y394593D01*
X266425Y394595D01*
X266427Y394597D01*
X266479Y394679D01*
X266531Y394762D01*
X266532Y394765D01*
X266533Y394767D01*
X266565Y394944D01*
X266565Y397632D01*
X267458Y398525D01*
X283722Y398525D01*
X284615Y397632D01*
X284615Y394310D01*
X284616Y394305D01*
X284615Y394300D01*
X284636Y394207D01*
X284654Y394113D01*
X284657Y394109D01*
X284658Y394104D01*
X284714Y394026D01*
X284767Y393948D01*
X284771Y393945D01*
X284774Y393941D01*
X284856Y393890D01*
X284935Y393838D01*
X284940Y393838D01*
X284945Y393835D01*
X285122Y393803D01*
X288878Y393803D01*
X288883Y393804D01*
X288888Y393803D01*
X288981Y393824D01*
X289075Y393842D01*
X289079Y393845D01*
X289084Y393846D01*
X289162Y393902D01*
X289240Y393955D01*
X289243Y393959D01*
X289247Y393962D01*
X289298Y394044D01*
X289350Y394123D01*
X289350Y394128D01*
X289353Y394133D01*
X289385Y394310D01*
X289385Y396902D01*
X290278Y397795D01*
X301542Y397795D01*
X302435Y396902D01*
X302435Y388408D01*
X302436Y388400D01*
X302435Y388392D01*
X302456Y388302D01*
X302474Y388211D01*
X302479Y388205D01*
X302481Y388197D01*
X302583Y388049D01*
X314007Y376625D01*
X314014Y376621D01*
X314018Y376614D01*
X314097Y376566D01*
X314174Y376514D01*
X314182Y376513D01*
X314188Y376509D01*
X314366Y376477D01*
X315420Y376477D01*
X315425Y376478D01*
X315430Y376477D01*
X315523Y376498D01*
X315617Y376516D01*
X315621Y376519D01*
X315626Y376520D01*
X315704Y376576D01*
X315782Y376629D01*
X315785Y376633D01*
X315790Y376636D01*
X315840Y376718D01*
X315892Y376797D01*
X315893Y376802D01*
X315895Y376807D01*
X315927Y376984D01*
X315927Y379314D01*
X315926Y379319D01*
X315927Y379325D01*
X315927Y379327D01*
X315927Y379330D01*
X315907Y379415D01*
X315907Y396210D01*
X315906Y396218D01*
X315907Y396226D01*
X315886Y396316D01*
X315868Y396407D01*
X315863Y396413D01*
X315861Y396421D01*
X315759Y396569D01*
X305061Y407267D01*
X305054Y407271D01*
X305050Y407277D01*
X304971Y407326D01*
X304894Y407378D01*
X304886Y407379D01*
X304880Y407383D01*
X304702Y407415D01*
X265528Y407415D01*
X265520Y407414D01*
X265512Y407415D01*
X265422Y407394D01*
X265331Y407376D01*
X265325Y407371D01*
X265317Y407369D01*
X265169Y407267D01*
X231035Y373133D01*
X231031Y373126D01*
X231025Y373122D01*
X230976Y373043D01*
X230924Y372966D01*
X230923Y372958D01*
X230919Y372952D01*
X230887Y372774D01*
X230887Y361790D01*
X230888Y361782D01*
X230887Y361775D01*
X230908Y361685D01*
X230926Y361594D01*
X230931Y361587D01*
X230933Y361580D01*
X231035Y361432D01*
X233399Y359068D01*
X233399Y354672D01*
X232065Y353339D01*
X232064Y353336D01*
X232062Y353335D01*
X232010Y353255D01*
X231955Y353172D01*
X231954Y353169D01*
X231953Y353167D01*
X231935Y353071D01*
X231917Y352975D01*
X231917Y352972D01*
X231917Y352970D01*
X231938Y352873D01*
X231959Y352779D01*
X231960Y352777D01*
X231961Y352774D01*
X232017Y352694D01*
X232073Y352614D01*
X232075Y352613D01*
X232077Y352610D01*
X232160Y352558D01*
X232242Y352507D01*
X232245Y352506D01*
X232247Y352505D01*
X232424Y352473D01*
X235259Y352473D01*
X237617Y350115D01*
X237617Y341781D01*
X235259Y339423D01*
X220925Y339423D01*
X218567Y341781D01*
X218567Y350115D01*
X220925Y352473D01*
X223760Y352473D01*
X223762Y352473D01*
X223765Y352473D01*
X223860Y352493D01*
X223956Y352512D01*
X223959Y352514D01*
X223961Y352514D01*
X224042Y352570D01*
X224122Y352625D01*
X224124Y352627D01*
X224126Y352629D01*
X224179Y352712D01*
X224231Y352793D01*
X224232Y352796D01*
X224233Y352798D01*
X224250Y352894D01*
X224267Y352990D01*
X224266Y352993D01*
X224267Y352995D01*
X224245Y353089D01*
X224223Y353186D01*
X224222Y353188D01*
X224221Y353191D01*
X224119Y353339D01*
X222785Y354672D01*
X222785Y359068D01*
X225149Y361432D01*
X225153Y361438D01*
X225159Y361443D01*
X225208Y361521D01*
X225260Y361599D01*
X225261Y361606D01*
X225265Y361613D01*
X225297Y361790D01*
X225297Y375300D01*
X263002Y413005D01*
X267876Y413005D01*
X267878Y413005D01*
X267881Y413005D01*
X267976Y413025D01*
X268072Y413044D01*
X268075Y413046D01*
X268077Y413046D01*
X268158Y413102D01*
X268238Y413157D01*
X268240Y413159D01*
X268242Y413161D01*
X268295Y413244D01*
X268347Y413325D01*
X268348Y413328D01*
X268349Y413330D01*
X268366Y413426D01*
X268383Y413522D01*
X268382Y413525D01*
X268383Y413527D01*
X268361Y413622D01*
X268339Y413718D01*
X268338Y413720D01*
X268337Y413723D01*
X268235Y413871D01*
X266473Y415632D01*
X266473Y420028D01*
X267647Y421201D01*
X267648Y421204D01*
X267650Y421205D01*
X267702Y421285D01*
X267757Y421368D01*
X267758Y421371D01*
X267759Y421373D01*
X267777Y421469D01*
X267795Y421565D01*
X267795Y421568D01*
X267795Y421570D01*
X267774Y421667D01*
X267753Y421761D01*
X267752Y421763D01*
X267751Y421766D01*
X267695Y421846D01*
X267639Y421926D01*
X267637Y421927D01*
X267635Y421929D01*
X267551Y421982D01*
X267470Y422033D01*
X267467Y422034D01*
X267465Y422035D01*
X267288Y422067D01*
X245882Y422067D01*
X245797Y422050D01*
X245711Y422038D01*
X245699Y422030D01*
X245686Y422028D01*
X245614Y421979D01*
X245540Y421934D01*
X245531Y421923D01*
X245520Y421915D01*
X245473Y421842D01*
X245421Y421772D01*
X245418Y421758D01*
X245411Y421747D01*
X245401Y421692D01*
X245376Y421598D01*
X245350Y421249D01*
X245355Y421215D01*
X245350Y421173D01*
X245399Y420526D01*
X245395Y420522D01*
X245361Y420461D01*
X245319Y420404D01*
X245311Y420372D01*
X245297Y420347D01*
X245291Y420296D01*
X245274Y420229D01*
X245098Y417864D01*
X245106Y417794D01*
X245107Y417724D01*
X245119Y417693D01*
X245123Y417665D01*
X245148Y417621D01*
X245174Y417557D01*
X245177Y417552D01*
X245033Y416919D01*
X245032Y416885D01*
X245022Y416844D01*
X244973Y416197D01*
X244969Y416194D01*
X244926Y416138D01*
X244876Y416088D01*
X244863Y416058D01*
X244846Y416035D01*
X244833Y415985D01*
X244806Y415922D01*
X244279Y413610D01*
X244277Y413539D01*
X244267Y413469D01*
X244274Y413438D01*
X244274Y413410D01*
X244292Y413361D01*
X244308Y413294D01*
X244311Y413289D01*
X244074Y412685D01*
X244068Y412651D01*
X244051Y412613D01*
X243907Y411980D01*
X243902Y411977D01*
X243851Y411928D01*
X243795Y411886D01*
X243778Y411858D01*
X243757Y411839D01*
X243737Y411792D01*
X243700Y411733D01*
X242835Y409525D01*
X242822Y409455D01*
X242802Y409388D01*
X242805Y409355D01*
X242800Y409328D01*
X242811Y409277D01*
X242817Y409208D01*
X242818Y409203D01*
X242494Y408641D01*
X242483Y408608D01*
X242461Y408573D01*
X242224Y407969D01*
X242219Y407966D01*
X242161Y407926D01*
X242099Y407893D01*
X242078Y407868D01*
X242055Y407851D01*
X242028Y407808D01*
X241983Y407755D01*
X240798Y405701D01*
X240775Y405634D01*
X240745Y405570D01*
X240743Y405538D01*
X240734Y405511D01*
X240738Y405460D01*
X240733Y405390D01*
X240734Y405385D01*
X240329Y404878D01*
X240313Y404847D01*
X240287Y404815D01*
X239962Y404253D01*
X239957Y404251D01*
X239894Y404220D01*
X239827Y404196D01*
X239803Y404175D01*
X239778Y404162D01*
X239744Y404123D01*
X239692Y404078D01*
X238214Y402223D01*
X238182Y402160D01*
X238142Y402102D01*
X238135Y402070D01*
X238122Y402045D01*
X238119Y401993D01*
X238104Y401926D01*
X238104Y401920D01*
X237628Y401479D01*
X237608Y401451D01*
X237576Y401423D01*
X237172Y400916D01*
X237167Y400915D01*
X237099Y400893D01*
X237030Y400880D01*
X237002Y400862D01*
X236976Y400854D01*
X236937Y400820D01*
X236878Y400783D01*
X235141Y399169D01*
X235099Y399112D01*
X235052Y399060D01*
X235040Y399029D01*
X235024Y399007D01*
X235012Y398956D01*
X234987Y398892D01*
X234986Y398886D01*
X234450Y398521D01*
X234426Y398496D01*
X234391Y398473D01*
X233915Y398032D01*
X233910Y398032D01*
X233840Y398021D01*
X233770Y398018D01*
X233740Y398004D01*
X233712Y398000D01*
X233668Y397972D01*
X233605Y397944D01*
X231646Y396608D01*
X231597Y396557D01*
X231542Y396513D01*
X231526Y396484D01*
X231506Y396464D01*
X231487Y396416D01*
X231453Y396356D01*
X231452Y396351D01*
X230867Y396069D01*
X230839Y396048D01*
X230801Y396031D01*
X230265Y395665D01*
X230260Y395666D01*
X230189Y395666D01*
X230119Y395673D01*
X230088Y395664D01*
X230060Y395664D01*
X230012Y395643D01*
X229946Y395625D01*
X227809Y394595D01*
X227753Y394553D01*
X227692Y394517D01*
X227672Y394491D01*
X227650Y394474D01*
X227624Y394430D01*
X227581Y394375D01*
X227579Y394370D01*
X226958Y394179D01*
X226928Y394162D01*
X226888Y394151D01*
X226303Y393870D01*
X226298Y393871D01*
X226228Y393881D01*
X226160Y393899D01*
X226127Y393895D01*
X226100Y393899D01*
X226050Y393886D01*
X225981Y393877D01*
X223715Y393178D01*
X223653Y393144D01*
X223588Y393118D01*
X223564Y393095D01*
X223539Y393082D01*
X223507Y393041D01*
X223457Y392994D01*
X223454Y392989D01*
X222812Y392893D01*
X222779Y392881D01*
X222738Y392876D01*
X222118Y392684D01*
X222113Y392687D01*
X222045Y392707D01*
X221981Y392735D01*
X221948Y392736D01*
X221921Y392744D01*
X221870Y392738D01*
X221800Y392740D01*
X219456Y392386D01*
X219389Y392361D01*
X219321Y392345D01*
X219294Y392327D01*
X219267Y392317D01*
X219229Y392282D01*
X219173Y392243D01*
X219169Y392239D01*
X218520Y392239D01*
X218486Y392232D01*
X218444Y392233D01*
X217803Y392136D01*
X217798Y392139D01*
X217734Y392169D01*
X217674Y392206D01*
X217642Y392212D01*
X217617Y392224D01*
X217565Y392226D01*
X217497Y392238D01*
X215126Y392237D01*
X215056Y392223D01*
X214986Y392218D01*
X214957Y392203D01*
X214929Y392198D01*
X214886Y392169D01*
X214824Y392138D01*
X214820Y392135D01*
X214178Y392231D01*
X214144Y392230D01*
X214103Y392237D01*
X213454Y392237D01*
X213450Y392241D01*
X213391Y392280D01*
X213337Y392326D01*
X213306Y392336D01*
X213283Y392352D01*
X213232Y392361D01*
X213167Y392384D01*
X210822Y392736D01*
X210751Y392733D01*
X210681Y392738D01*
X210650Y392728D01*
X210622Y392726D01*
X210575Y392704D01*
X210509Y392683D01*
X210504Y392680D01*
X209884Y392872D01*
X209850Y392875D01*
X209810Y392888D01*
X209169Y392985D01*
X209165Y392989D01*
X209113Y393037D01*
X209067Y393090D01*
X209038Y393105D01*
X209017Y393124D01*
X208968Y393141D01*
X208907Y393173D01*
X206640Y393871D01*
X206570Y393878D01*
X206501Y393893D01*
X206469Y393888D01*
X206441Y393891D01*
X206392Y393876D01*
X206323Y393865D01*
X206318Y393863D01*
X205733Y394145D01*
X205700Y394153D01*
X205663Y394172D01*
X205043Y394363D01*
X205040Y394368D01*
X204996Y394423D01*
X204958Y394482D01*
X204931Y394502D01*
X204913Y394523D01*
X204868Y394547D01*
X204812Y394588D01*
X203574Y395184D01*
X203490Y395205D01*
X203407Y395231D01*
X203393Y395230D01*
X203380Y395233D01*
X203294Y395220D01*
X203208Y395212D01*
X203195Y395206D01*
X203181Y395204D01*
X203108Y395159D01*
X203031Y395118D01*
X203021Y395106D01*
X203010Y395099D01*
X202977Y395055D01*
X202915Y394980D01*
X184023Y362259D01*
X182786Y363113D01*
X182759Y363124D01*
X182737Y363143D01*
X182668Y363163D01*
X182603Y363191D01*
X182574Y363191D01*
X182546Y363199D01*
X182475Y363191D01*
X182404Y363192D01*
X182377Y363180D01*
X182348Y363177D01*
X182286Y363142D01*
X182221Y363114D01*
X182200Y363094D01*
X182175Y363079D01*
X182112Y363002D01*
X182082Y362972D01*
X182078Y362962D01*
X182069Y362951D01*
X172569Y346451D01*
X172545Y346378D01*
X172514Y346308D01*
X172514Y346284D01*
X172506Y346262D01*
X172513Y346186D01*
X172512Y346109D01*
X172521Y346085D01*
X172522Y346064D01*
X172543Y346025D01*
X172562Y345973D01*
X172563Y345967D01*
X172565Y345965D01*
X172569Y345953D01*
X182069Y329453D01*
X182088Y329431D01*
X182101Y329405D01*
X182154Y329357D01*
X182201Y329304D01*
X182227Y329291D01*
X182249Y329272D01*
X182316Y329249D01*
X182380Y329218D01*
X182409Y329217D01*
X182436Y329207D01*
X182508Y329212D01*
X182579Y329209D01*
X182606Y329219D01*
X182635Y329221D01*
X182725Y329263D01*
X182765Y329278D01*
X182773Y329285D01*
X182786Y329291D01*
X184023Y330145D01*
X202915Y297424D01*
X202972Y297359D01*
X203026Y297291D01*
X203038Y297284D01*
X203047Y297273D01*
X203125Y297236D01*
X203201Y297194D01*
X203215Y297192D01*
X203228Y297186D01*
X203314Y297182D01*
X203400Y297172D01*
X203415Y297176D01*
X203428Y297176D01*
X203480Y297194D01*
X203574Y297220D01*
X204812Y297816D01*
X204868Y297859D01*
X204929Y297894D01*
X204949Y297920D01*
X204972Y297937D01*
X204998Y297982D01*
X205040Y298036D01*
X205043Y298041D01*
X205663Y298232D01*
X205693Y298248D01*
X205733Y298259D01*
X206318Y298541D01*
X206323Y298539D01*
X206393Y298529D01*
X206462Y298511D01*
X206494Y298515D01*
X206522Y298511D01*
X206572Y298525D01*
X206640Y298533D01*
X208907Y299231D01*
X208969Y299265D01*
X209034Y299291D01*
X209058Y299314D01*
X209083Y299327D01*
X209115Y299367D01*
X209165Y299415D01*
X209169Y299419D01*
X209810Y299516D01*
X209843Y299527D01*
X209884Y299532D01*
X210504Y299724D01*
X210509Y299721D01*
X210533Y299714D01*
X210543Y299708D01*
X210569Y299703D01*
X210577Y299701D01*
X210642Y299673D01*
X210674Y299672D01*
X210701Y299664D01*
X210753Y299670D01*
X210822Y299668D01*
X213167Y300020D01*
X213233Y300044D01*
X213302Y300061D01*
X213329Y300079D01*
X213355Y300089D01*
X213393Y300124D01*
X213450Y300163D01*
X213454Y300167D01*
X214103Y300167D01*
X214137Y300174D01*
X214178Y300173D01*
X214820Y300269D01*
X214824Y300266D01*
X214888Y300236D01*
X214948Y300199D01*
X214981Y300193D01*
X215006Y300181D01*
X215058Y300179D01*
X215126Y300167D01*
X217497Y300166D01*
X217566Y300180D01*
X217637Y300185D01*
X217666Y300200D01*
X217693Y300205D01*
X217736Y300234D01*
X217798Y300265D01*
X217803Y300268D01*
X218444Y300171D01*
X218479Y300173D01*
X218520Y300165D01*
X219169Y300165D01*
X219173Y300161D01*
X219231Y300122D01*
X219285Y300077D01*
X219316Y300066D01*
X219340Y300050D01*
X219390Y300041D01*
X219456Y300018D01*
X221800Y299664D01*
X221871Y299668D01*
X221941Y299663D01*
X221973Y299673D01*
X222001Y299674D01*
X222047Y299696D01*
X222113Y299717D01*
X222118Y299720D01*
X222738Y299528D01*
X222772Y299525D01*
X222812Y299511D01*
X223454Y299415D01*
X223457Y299410D01*
X223509Y299363D01*
X223555Y299309D01*
X223585Y299294D01*
X223605Y299275D01*
X223654Y299258D01*
X223715Y299226D01*
X225981Y298527D01*
X226051Y298520D01*
X226120Y298504D01*
X226153Y298509D01*
X226181Y298507D01*
X226230Y298522D01*
X226298Y298533D01*
X226303Y298534D01*
X226888Y298253D01*
X226922Y298244D01*
X226958Y298225D01*
X227579Y298034D01*
X227581Y298029D01*
X227626Y297974D01*
X227664Y297914D01*
X227690Y297895D01*
X227708Y297873D01*
X227753Y297849D01*
X227809Y297809D01*
X229946Y296779D01*
X230014Y296762D01*
X230080Y296736D01*
X230113Y296736D01*
X230140Y296729D01*
X230191Y296737D01*
X230260Y296738D01*
X230265Y296739D01*
X230801Y296373D01*
X230833Y296359D01*
X230867Y296335D01*
X231452Y296053D01*
X231453Y296048D01*
X231489Y295987D01*
X231518Y295923D01*
X231541Y295900D01*
X231556Y295876D01*
X231597Y295845D01*
X231646Y295796D01*
X233605Y294460D01*
X233670Y294432D01*
X233732Y294397D01*
X233764Y294393D01*
X233790Y294382D01*
X233841Y294382D01*
X233910Y294372D01*
X233915Y294372D01*
X234391Y293931D01*
X234420Y293913D01*
X234450Y293883D01*
X234986Y293518D01*
X234987Y293512D01*
X235014Y293447D01*
X235032Y293379D01*
X235052Y293353D01*
X235063Y293327D01*
X235099Y293290D01*
X235141Y293235D01*
X236878Y291621D01*
X236938Y291584D01*
X236994Y291541D01*
X237025Y291531D01*
X237049Y291517D01*
X237100Y291509D01*
X237167Y291489D01*
X237172Y291488D01*
X237576Y290981D01*
X237603Y290958D01*
X237628Y290925D01*
X238104Y290484D01*
X238104Y290478D01*
X238120Y290409D01*
X238128Y290339D01*
X238144Y290311D01*
X238151Y290283D01*
X238181Y290242D01*
X238214Y290181D01*
X239692Y288326D01*
X239746Y288281D01*
X239794Y288229D01*
X239824Y288215D01*
X239845Y288197D01*
X239895Y288182D01*
X239957Y288153D01*
X239962Y288151D01*
X240287Y287589D01*
X240310Y287563D01*
X240329Y287526D01*
X240734Y287019D01*
X240733Y287014D01*
X240735Y286989D01*
X240734Y286984D01*
X240737Y286975D01*
X240739Y286943D01*
X240737Y286873D01*
X240748Y286842D01*
X240750Y286814D01*
X240774Y286768D01*
X240798Y286703D01*
X241983Y284649D01*
X242030Y284596D01*
X242070Y284538D01*
X242097Y284520D01*
X242115Y284499D01*
X242162Y284476D01*
X242219Y284438D01*
X242224Y284435D01*
X242461Y283831D01*
X242480Y283802D01*
X242494Y283763D01*
X242520Y283718D01*
X242569Y283663D01*
X242612Y283603D01*
X242634Y283588D01*
X242652Y283568D01*
X242719Y283536D01*
X242782Y283497D01*
X242810Y283492D01*
X242833Y283481D01*
X242886Y283478D01*
X242959Y283465D01*
X302162Y283465D01*
X302170Y283466D01*
X302178Y283465D01*
X302268Y283486D01*
X302359Y283504D01*
X302365Y283509D01*
X302373Y283511D01*
X302521Y283613D01*
X325759Y306851D01*
X325763Y306858D01*
X325769Y306862D01*
X325818Y306941D01*
X325870Y307018D01*
X325871Y307026D01*
X325875Y307032D01*
X325907Y307210D01*
X325907Y312979D01*
X325927Y313090D01*
X325927Y315467D01*
X327187Y316727D01*
X330217Y316727D01*
X330843Y316101D01*
X330848Y316098D01*
X330851Y316094D01*
X330931Y316042D01*
X331010Y315990D01*
X331015Y315989D01*
X331020Y315986D01*
X331114Y315970D01*
X331207Y315952D01*
X331212Y315953D01*
X331218Y315952D01*
X331310Y315974D01*
X331403Y315994D01*
X331408Y315997D01*
X331413Y315998D01*
X331561Y316101D01*
X332187Y316727D01*
X335217Y316727D01*
X336477Y315467D01*
X336477Y313090D01*
X336478Y313082D01*
X336477Y313074D01*
X336497Y312989D01*
X336497Y300794D01*
X307208Y271506D01*
X254996Y271506D01*
X254991Y271505D01*
X254986Y271505D01*
X254893Y271485D01*
X254800Y271466D01*
X254795Y271463D01*
X254790Y271462D01*
X254712Y271407D01*
X254634Y271353D01*
X254631Y271349D01*
X254627Y271346D01*
X254576Y271264D01*
X254525Y271185D01*
X254524Y271180D01*
X254521Y271176D01*
X254489Y270998D01*
X254489Y269562D01*
X251380Y266454D01*
X246984Y266454D01*
X245959Y267478D01*
X245920Y267504D01*
X245888Y267538D01*
X245838Y267559D01*
X245792Y267589D01*
X245746Y267598D01*
X245703Y267616D01*
X245649Y267617D01*
X245595Y267627D01*
X245550Y267617D01*
X245503Y267618D01*
X245453Y267597D01*
X245399Y267585D01*
X245361Y267559D01*
X245318Y267541D01*
X245279Y267502D01*
X245235Y267471D01*
X245209Y267432D01*
X245177Y267399D01*
X245153Y267342D01*
X245127Y267302D01*
X245121Y267269D01*
X245106Y267233D01*
X245030Y266901D01*
X245029Y266866D01*
X245019Y266826D01*
X244970Y266179D01*
X244966Y266175D01*
X244922Y266119D01*
X244873Y266069D01*
X244860Y266039D01*
X244843Y266017D01*
X244829Y265967D01*
X244802Y265904D01*
X244274Y263592D01*
X244272Y263521D01*
X244262Y263451D01*
X244269Y263420D01*
X244269Y263392D01*
X244287Y263343D01*
X244303Y263276D01*
X244305Y263271D01*
X244068Y262667D01*
X244062Y262633D01*
X244046Y262595D01*
X243901Y261962D01*
X243897Y261959D01*
X243845Y261911D01*
X243789Y261868D01*
X243772Y261841D01*
X243751Y261821D01*
X243730Y261774D01*
X243694Y261715D01*
X242827Y259508D01*
X242815Y259438D01*
X242794Y259371D01*
X242797Y259338D01*
X242792Y259311D01*
X242803Y259260D01*
X242809Y259191D01*
X242811Y259186D01*
X242486Y258624D01*
X242475Y258591D01*
X242453Y258556D01*
X242216Y257952D01*
X242211Y257950D01*
X242153Y257909D01*
X242091Y257876D01*
X242069Y257851D01*
X242046Y257835D01*
X242019Y257791D01*
X241974Y257739D01*
X240788Y255685D01*
X240765Y255618D01*
X240735Y255555D01*
X240733Y255522D01*
X240724Y255495D01*
X240728Y255444D01*
X240723Y255375D01*
X240724Y255369D01*
X240319Y254862D01*
X240303Y254831D01*
X240276Y254800D01*
X239952Y254238D01*
X239946Y254236D01*
X239883Y254205D01*
X239816Y254181D01*
X239792Y254160D01*
X239767Y254147D01*
X239733Y254108D01*
X239681Y254063D01*
X238202Y252209D01*
X238170Y252146D01*
X238130Y252088D01*
X238123Y252056D01*
X238110Y252031D01*
X238106Y251979D01*
X238091Y251912D01*
X238091Y251906D01*
X237615Y251465D01*
X237595Y251437D01*
X237564Y251410D01*
X237159Y250902D01*
X237154Y250902D01*
X237086Y250880D01*
X237017Y250867D01*
X236989Y250849D01*
X236963Y250840D01*
X236923Y250807D01*
X236865Y250770D01*
X235126Y249157D01*
X235085Y249100D01*
X235037Y249048D01*
X235026Y249017D01*
X235009Y248995D01*
X234998Y248944D01*
X234973Y248880D01*
X234972Y248874D01*
X234436Y248509D01*
X234411Y248484D01*
X234376Y248462D01*
X233901Y248020D01*
X233895Y248021D01*
X233825Y248009D01*
X233755Y248006D01*
X233725Y247993D01*
X233697Y247989D01*
X233653Y247961D01*
X233590Y247933D01*
X232470Y247170D01*
X232410Y247108D01*
X232346Y247049D01*
X232340Y247036D01*
X232330Y247026D01*
X232298Y246946D01*
X232262Y246867D01*
X232261Y246853D01*
X232256Y246840D01*
X232258Y246753D01*
X232255Y246667D01*
X232260Y246653D01*
X232261Y246640D01*
X232283Y246589D01*
X232316Y246497D01*
X251207Y213777D01*
X249889Y213153D01*
X249866Y213136D01*
X249839Y213126D01*
X249787Y213077D01*
X249729Y213034D01*
X249715Y213009D01*
X249694Y212990D01*
X249665Y212924D01*
X249629Y212862D01*
X249626Y212834D01*
X249614Y212808D01*
X249613Y212736D01*
X249604Y212665D01*
X249612Y212638D01*
X249612Y212609D01*
X249647Y212514D01*
X249658Y212474D01*
X249665Y212465D01*
X249669Y212453D01*
X259169Y195953D01*
X259221Y195895D01*
X259267Y195832D01*
X259286Y195821D01*
X259301Y195804D01*
X259371Y195770D01*
X259438Y195730D01*
X259463Y195726D01*
X259480Y195718D01*
X259525Y195716D01*
X259602Y195703D01*
X278602Y195703D01*
X278630Y195708D01*
G37*
G36*
X432878Y195718D02*
X432878Y195718D01*
X432956Y195727D01*
X432975Y195738D01*
X432997Y195742D01*
X433061Y195786D01*
X433129Y195825D01*
X433145Y195844D01*
X433161Y195855D01*
X433185Y195893D01*
X433235Y195953D01*
X442735Y212453D01*
X442744Y212480D01*
X442760Y212504D01*
X442775Y212574D01*
X442798Y212642D01*
X442795Y212670D01*
X442801Y212698D01*
X442788Y212769D01*
X442782Y212840D01*
X442769Y212865D01*
X442763Y212893D01*
X442723Y212953D01*
X442690Y213016D01*
X442668Y213034D01*
X442652Y213058D01*
X442569Y213116D01*
X442537Y213143D01*
X442526Y213146D01*
X442516Y213153D01*
X441197Y213777D01*
X460088Y246497D01*
X460115Y246579D01*
X460147Y246660D01*
X460147Y246674D01*
X460152Y246687D01*
X460145Y246774D01*
X460144Y246860D01*
X460138Y246873D01*
X460137Y246887D01*
X460098Y246964D01*
X460062Y247044D01*
X460052Y247054D01*
X460046Y247066D01*
X460003Y247102D01*
X459934Y247170D01*
X458814Y247933D01*
X458749Y247960D01*
X458687Y247995D01*
X458655Y248000D01*
X458629Y248011D01*
X458577Y248011D01*
X458509Y248021D01*
X458503Y248021D01*
X458028Y248462D01*
X457998Y248480D01*
X457968Y248509D01*
X457432Y248874D01*
X457431Y248880D01*
X457404Y248945D01*
X457386Y249013D01*
X457366Y249039D01*
X457356Y249065D01*
X457319Y249102D01*
X457278Y249157D01*
X455539Y250770D01*
X455478Y250806D01*
X455423Y250850D01*
X455392Y250860D01*
X455368Y250874D01*
X455317Y250882D01*
X455250Y250902D01*
X455245Y250902D01*
X454840Y251410D01*
X454814Y251432D01*
X454789Y251465D01*
X454313Y251906D01*
X454313Y251912D01*
X454296Y251980D01*
X454288Y252051D01*
X454272Y252079D01*
X454266Y252107D01*
X454235Y252148D01*
X454202Y252209D01*
X452723Y254063D01*
X452669Y254108D01*
X452621Y254159D01*
X452591Y254173D01*
X452570Y254191D01*
X452520Y254207D01*
X452458Y254236D01*
X452452Y254238D01*
X452128Y254800D01*
X452105Y254826D01*
X452085Y254862D01*
X451680Y255369D01*
X451681Y255375D01*
X451675Y255445D01*
X451677Y255516D01*
X451666Y255546D01*
X451664Y255574D01*
X451640Y255620D01*
X451616Y255685D01*
X450430Y257739D01*
X450383Y257792D01*
X450343Y257850D01*
X450316Y257868D01*
X450297Y257889D01*
X450251Y257911D01*
X450193Y257950D01*
X450188Y257952D01*
X449951Y258556D01*
X449932Y258585D01*
X449918Y258624D01*
X449593Y259186D01*
X449595Y259191D01*
X449599Y259262D01*
X449612Y259331D01*
X449606Y259363D01*
X449607Y259391D01*
X449590Y259440D01*
X449577Y259508D01*
X448710Y261715D01*
X448672Y261774D01*
X448641Y261838D01*
X448616Y261860D01*
X448601Y261884D01*
X448559Y261913D01*
X448507Y261959D01*
X448503Y261962D01*
X448358Y262595D01*
X448344Y262626D01*
X448336Y262667D01*
X448099Y263271D01*
X448101Y263276D01*
X448116Y263345D01*
X448139Y263412D01*
X448137Y263445D01*
X448143Y263472D01*
X448133Y263523D01*
X448130Y263592D01*
X447602Y265904D01*
X447573Y265968D01*
X447552Y266035D01*
X447531Y266061D01*
X447519Y266086D01*
X447482Y266121D01*
X447438Y266175D01*
X447434Y266179D01*
X447385Y266826D01*
X447376Y266859D01*
X447374Y266901D01*
X447229Y267533D01*
X447232Y267538D01*
X447257Y267604D01*
X447290Y267667D01*
X447293Y267699D01*
X447303Y267726D01*
X447301Y267777D01*
X447308Y267846D01*
X447131Y270211D01*
X447111Y270278D01*
X447101Y270348D01*
X447084Y270377D01*
X447076Y270404D01*
X447044Y270444D01*
X447009Y270504D01*
X447005Y270508D01*
X447042Y270992D01*
X447039Y271016D01*
X447043Y271040D01*
X447026Y271115D01*
X447017Y271190D01*
X447005Y271212D01*
X446999Y271235D01*
X446955Y271298D01*
X446917Y271364D01*
X446897Y271379D01*
X446883Y271399D01*
X446818Y271439D01*
X446757Y271486D01*
X446734Y271492D01*
X446713Y271505D01*
X446617Y271522D01*
X446563Y271536D01*
X446550Y271534D01*
X446536Y271537D01*
X402024Y271537D01*
X381761Y291799D01*
X381761Y307100D01*
X381760Y307108D01*
X381761Y307116D01*
X381740Y307206D01*
X381722Y307297D01*
X381717Y307303D01*
X381715Y307311D01*
X381613Y307459D01*
X380313Y308759D01*
X380306Y308763D01*
X380302Y308769D01*
X380223Y308818D01*
X380146Y308870D01*
X380138Y308871D01*
X380132Y308875D01*
X379954Y308907D01*
X376984Y308907D01*
X376979Y308906D01*
X376974Y308907D01*
X376881Y308886D01*
X376787Y308868D01*
X376783Y308865D01*
X376778Y308864D01*
X376700Y308808D01*
X376622Y308755D01*
X376619Y308751D01*
X376614Y308748D01*
X376564Y308666D01*
X376512Y308587D01*
X376511Y308582D01*
X376509Y308577D01*
X376477Y308400D01*
X376477Y307936D01*
X375217Y306677D01*
X372004Y306677D01*
X371999Y306676D01*
X371994Y306677D01*
X371901Y306656D01*
X371807Y306638D01*
X371803Y306635D01*
X371798Y306634D01*
X371720Y306578D01*
X371642Y306525D01*
X371639Y306521D01*
X371635Y306518D01*
X371584Y306436D01*
X371532Y306357D01*
X371532Y306352D01*
X371529Y306347D01*
X371497Y306170D01*
X371497Y223425D01*
X371498Y223420D01*
X371497Y223415D01*
X371518Y223322D01*
X371536Y223229D01*
X371539Y223224D01*
X371540Y223219D01*
X371596Y223141D01*
X371649Y223063D01*
X371653Y223060D01*
X371656Y223056D01*
X371738Y223005D01*
X371817Y222954D01*
X371822Y222953D01*
X371827Y222950D01*
X372004Y222918D01*
X373447Y222918D01*
X376556Y219809D01*
X376556Y215413D01*
X373447Y212304D01*
X371212Y212304D01*
X371175Y212297D01*
X371138Y212299D01*
X371078Y212277D01*
X371015Y212265D01*
X370984Y212244D01*
X370949Y212231D01*
X370902Y212188D01*
X370849Y212152D01*
X370829Y212121D01*
X370801Y212096D01*
X370775Y212037D01*
X370740Y211984D01*
X370733Y211947D01*
X370718Y211913D01*
X370716Y211850D01*
X370704Y211787D01*
X370712Y211750D01*
X370711Y211713D01*
X370736Y211644D01*
X370748Y211591D01*
X370762Y211571D01*
X370772Y211544D01*
X371865Y209651D01*
X371912Y209598D01*
X371952Y209540D01*
X371979Y209521D01*
X371998Y209500D01*
X372044Y209478D01*
X372101Y209439D01*
X372107Y209437D01*
X372344Y208833D01*
X372362Y208804D01*
X372377Y208765D01*
X372701Y208203D01*
X372700Y208198D01*
X372695Y208127D01*
X372682Y208058D01*
X372689Y208026D01*
X372687Y207998D01*
X372704Y207949D01*
X372717Y207881D01*
X373583Y205676D01*
X373621Y205616D01*
X373652Y205553D01*
X373676Y205531D01*
X373691Y205507D01*
X373734Y205478D01*
X373785Y205431D01*
X373790Y205429D01*
X373934Y204796D01*
X373948Y204764D01*
X373957Y204723D01*
X374194Y204119D01*
X374191Y204114D01*
X374177Y204045D01*
X374154Y203979D01*
X374155Y203946D01*
X374149Y203918D01*
X374159Y203868D01*
X374162Y203799D01*
X374689Y201489D01*
X374718Y201425D01*
X374739Y201357D01*
X374760Y201332D01*
X374771Y201306D01*
X374809Y201271D01*
X374853Y201217D01*
X374857Y201214D01*
X374905Y200567D01*
X374915Y200533D01*
X374917Y200492D01*
X375061Y199859D01*
X375058Y199854D01*
X375033Y199788D01*
X375000Y199726D01*
X374997Y199693D01*
X374987Y199667D01*
X374989Y199615D01*
X374982Y199547D01*
X375084Y198188D01*
X375107Y198105D01*
X375126Y198020D01*
X375134Y198009D01*
X375138Y197995D01*
X375191Y197927D01*
X375242Y197857D01*
X375254Y197849D01*
X375262Y197838D01*
X375338Y197797D01*
X375412Y197751D01*
X375427Y197748D01*
X375438Y197742D01*
X375494Y197736D01*
X375589Y197719D01*
X413422Y197719D01*
X413304Y196242D01*
X413308Y196213D01*
X413303Y196185D01*
X413320Y196116D01*
X413328Y196044D01*
X413343Y196020D01*
X413349Y195992D01*
X413392Y195934D01*
X413428Y195872D01*
X413450Y195855D01*
X413467Y195832D01*
X413529Y195795D01*
X413586Y195752D01*
X413614Y195745D01*
X413638Y195730D01*
X413738Y195714D01*
X413779Y195703D01*
X413789Y195705D01*
X413802Y195703D01*
X432802Y195703D01*
X432878Y195718D01*
G37*
%LPC*%
G36*
X267458Y297435D02*
X267458Y297435D01*
X266565Y298328D01*
X266565Y299746D01*
X266565Y299748D01*
X266565Y299751D01*
X266545Y299846D01*
X266526Y299942D01*
X266524Y299945D01*
X266524Y299947D01*
X266468Y300028D01*
X266413Y300108D01*
X266411Y300110D01*
X266409Y300112D01*
X266326Y300165D01*
X266245Y300217D01*
X266242Y300218D01*
X266240Y300219D01*
X266144Y300236D01*
X266048Y300253D01*
X266045Y300252D01*
X266043Y300253D01*
X265948Y300231D01*
X265852Y300209D01*
X265850Y300208D01*
X265847Y300207D01*
X265699Y300105D01*
X265088Y299493D01*
X260692Y299493D01*
X257583Y302602D01*
X257583Y306998D01*
X260692Y310107D01*
X265088Y310107D01*
X265699Y309495D01*
X265702Y309494D01*
X265703Y309492D01*
X265783Y309440D01*
X265866Y309385D01*
X265869Y309384D01*
X265871Y309383D01*
X265967Y309365D01*
X266063Y309347D01*
X266066Y309347D01*
X266068Y309347D01*
X266165Y309368D01*
X266259Y309389D01*
X266261Y309390D01*
X266264Y309391D01*
X266344Y309447D01*
X266424Y309503D01*
X266425Y309505D01*
X266427Y309507D01*
X266479Y309590D01*
X266531Y309672D01*
X266532Y309675D01*
X266533Y309677D01*
X266565Y309854D01*
X266565Y312592D01*
X267458Y313485D01*
X283722Y313485D01*
X284615Y312592D01*
X284615Y309270D01*
X284616Y309265D01*
X284615Y309260D01*
X284636Y309167D01*
X284654Y309073D01*
X284657Y309069D01*
X284658Y309064D01*
X284714Y308986D01*
X284767Y308908D01*
X284771Y308905D01*
X284774Y308901D01*
X284856Y308850D01*
X284935Y308798D01*
X284940Y308798D01*
X284945Y308795D01*
X285122Y308763D01*
X288878Y308763D01*
X288883Y308764D01*
X288888Y308763D01*
X288981Y308784D01*
X289075Y308802D01*
X289079Y308805D01*
X289084Y308806D01*
X289162Y308862D01*
X289240Y308915D01*
X289243Y308919D01*
X289247Y308922D01*
X289298Y309004D01*
X289350Y309083D01*
X289350Y309088D01*
X289353Y309093D01*
X289385Y309270D01*
X289385Y312592D01*
X290278Y313485D01*
X301542Y313485D01*
X302435Y312592D01*
X302435Y309762D01*
X302436Y309757D01*
X302435Y309752D01*
X302456Y309658D01*
X302474Y309565D01*
X302477Y309561D01*
X302478Y309556D01*
X302534Y309478D01*
X302587Y309400D01*
X302591Y309397D01*
X302594Y309393D01*
X302676Y309342D01*
X302755Y309290D01*
X302760Y309290D01*
X302765Y309287D01*
X302942Y309255D01*
X314632Y309255D01*
X314640Y309256D01*
X314648Y309255D01*
X314738Y309276D01*
X314829Y309294D01*
X314835Y309299D01*
X314843Y309301D01*
X314991Y309403D01*
X315759Y310171D01*
X315763Y310178D01*
X315769Y310182D01*
X315818Y310261D01*
X315870Y310338D01*
X315871Y310346D01*
X315875Y310352D01*
X315907Y310530D01*
X315907Y312979D01*
X315927Y313090D01*
X315927Y315420D01*
X315926Y315425D01*
X315927Y315430D01*
X315906Y315523D01*
X315888Y315617D01*
X315885Y315621D01*
X315884Y315626D01*
X315828Y315704D01*
X315775Y315782D01*
X315771Y315785D01*
X315768Y315790D01*
X315686Y315840D01*
X315607Y315892D01*
X315602Y315893D01*
X315597Y315895D01*
X315420Y315927D01*
X307936Y315927D01*
X306677Y317187D01*
X306677Y320217D01*
X307303Y320843D01*
X307306Y320848D01*
X307310Y320851D01*
X307361Y320931D01*
X307414Y321010D01*
X307415Y321015D01*
X307418Y321020D01*
X307434Y321114D01*
X307452Y321207D01*
X307451Y321212D01*
X307451Y321217D01*
X307430Y321310D01*
X307410Y321403D01*
X307407Y321408D01*
X307406Y321413D01*
X307303Y321561D01*
X306677Y322187D01*
X306677Y325217D01*
X307303Y325843D01*
X307306Y325848D01*
X307310Y325851D01*
X307361Y325931D01*
X307414Y326010D01*
X307415Y326015D01*
X307418Y326020D01*
X307434Y326114D01*
X307452Y326207D01*
X307451Y326212D01*
X307451Y326217D01*
X307430Y326310D01*
X307410Y326403D01*
X307407Y326408D01*
X307406Y326413D01*
X307303Y326561D01*
X306677Y327187D01*
X306677Y330217D01*
X307303Y330843D01*
X307306Y330848D01*
X307310Y330851D01*
X307361Y330930D01*
X307414Y331010D01*
X307415Y331015D01*
X307418Y331020D01*
X307434Y331114D01*
X307452Y331207D01*
X307451Y331212D01*
X307451Y331217D01*
X307430Y331310D01*
X307410Y331403D01*
X307407Y331408D01*
X307406Y331413D01*
X307303Y331561D01*
X307223Y331641D01*
X307218Y331644D01*
X307215Y331649D01*
X307135Y331699D01*
X307056Y331752D01*
X307050Y331753D01*
X307046Y331756D01*
X306952Y331772D01*
X306859Y331790D01*
X306854Y331789D01*
X306848Y331790D01*
X306756Y331768D01*
X306663Y331748D01*
X306658Y331745D01*
X306653Y331744D01*
X306505Y331641D01*
X303823Y328959D01*
X299427Y328959D01*
X296643Y331743D01*
X296639Y331746D01*
X296636Y331750D01*
X296556Y331801D01*
X296476Y331854D01*
X296471Y331855D01*
X296467Y331858D01*
X296373Y331874D01*
X296280Y331891D01*
X296274Y331890D01*
X296269Y331891D01*
X296177Y331870D01*
X296083Y331850D01*
X296079Y331847D01*
X296074Y331846D01*
X295926Y331743D01*
X293142Y328959D01*
X288746Y328959D01*
X285638Y332068D01*
X285638Y336464D01*
X288746Y339573D01*
X291370Y339573D01*
X291378Y339574D01*
X291386Y339573D01*
X291475Y339594D01*
X291567Y339612D01*
X291573Y339617D01*
X291581Y339619D01*
X291729Y339721D01*
X295720Y343712D01*
X295721Y343715D01*
X295724Y343716D01*
X295776Y343796D01*
X295831Y343879D01*
X295831Y343882D01*
X295833Y343884D01*
X295850Y343980D01*
X295868Y344076D01*
X295868Y344079D01*
X295868Y344081D01*
X295847Y344178D01*
X295827Y344272D01*
X295825Y344274D01*
X295825Y344277D01*
X295768Y344357D01*
X295713Y344437D01*
X295710Y344438D01*
X295709Y344440D01*
X295626Y344492D01*
X295543Y344544D01*
X295541Y344545D01*
X295539Y344546D01*
X295361Y344578D01*
X294347Y344578D01*
X291260Y347666D01*
X291255Y347669D01*
X291252Y347673D01*
X291172Y347724D01*
X291093Y347777D01*
X291087Y347778D01*
X291083Y347780D01*
X290989Y347796D01*
X290896Y347814D01*
X290891Y347813D01*
X290885Y347814D01*
X290793Y347792D01*
X290700Y347773D01*
X290695Y347770D01*
X290690Y347768D01*
X290542Y347666D01*
X287384Y344507D01*
X282988Y344507D01*
X279879Y347616D01*
X279879Y349541D01*
X279879Y349543D01*
X279879Y349546D01*
X279859Y349641D01*
X279840Y349737D01*
X279838Y349740D01*
X279837Y349742D01*
X279781Y349823D01*
X279727Y349903D01*
X279725Y349905D01*
X279723Y349907D01*
X279639Y349960D01*
X279559Y350012D01*
X279556Y350013D01*
X279554Y350014D01*
X279458Y350031D01*
X279362Y350048D01*
X279359Y350047D01*
X279356Y350048D01*
X279263Y350026D01*
X279166Y350004D01*
X279164Y350003D01*
X279161Y350002D01*
X279013Y349900D01*
X250565Y321452D01*
X250561Y321445D01*
X250555Y321441D01*
X250506Y321362D01*
X250454Y321285D01*
X250453Y321277D01*
X250449Y321270D01*
X250417Y321093D01*
X250417Y317842D01*
X247308Y314733D01*
X242912Y314733D01*
X240548Y317097D01*
X240542Y317101D01*
X240537Y317107D01*
X240459Y317156D01*
X240381Y317208D01*
X240374Y317209D01*
X240367Y317213D01*
X240190Y317245D01*
X238124Y317245D01*
X238119Y317244D01*
X238114Y317245D01*
X238021Y317224D01*
X237927Y317206D01*
X237923Y317203D01*
X237918Y317202D01*
X237840Y317146D01*
X237762Y317093D01*
X237759Y317089D01*
X237754Y317086D01*
X237704Y317004D01*
X237652Y316925D01*
X237651Y316920D01*
X237649Y316915D01*
X237617Y316738D01*
X237617Y316381D01*
X235259Y314023D01*
X220925Y314023D01*
X218567Y316381D01*
X218567Y324715D01*
X220925Y327073D01*
X235259Y327073D01*
X237617Y324715D01*
X237617Y323342D01*
X237618Y323337D01*
X237617Y323332D01*
X237638Y323239D01*
X237656Y323145D01*
X237659Y323141D01*
X237660Y323136D01*
X237716Y323058D01*
X237769Y322980D01*
X237773Y322977D01*
X237776Y322973D01*
X237858Y322922D01*
X237937Y322870D01*
X237942Y322870D01*
X237947Y322867D01*
X238124Y322835D01*
X240190Y322835D01*
X240198Y322836D01*
X240205Y322835D01*
X240295Y322856D01*
X240386Y322874D01*
X240393Y322879D01*
X240400Y322881D01*
X240548Y322983D01*
X242912Y325347D01*
X246346Y325347D01*
X246353Y325348D01*
X246361Y325347D01*
X246451Y325368D01*
X246542Y325386D01*
X246549Y325391D01*
X246556Y325393D01*
X246704Y325495D01*
X287706Y366497D01*
X312979Y366497D01*
X313090Y366477D01*
X315467Y366477D01*
X316727Y365217D01*
X316727Y362187D01*
X316101Y361561D01*
X316098Y361556D01*
X316094Y361553D01*
X316042Y361473D01*
X315990Y361394D01*
X315989Y361389D01*
X315986Y361384D01*
X315970Y361290D01*
X315952Y361197D01*
X315953Y361192D01*
X315952Y361186D01*
X315974Y361094D01*
X315994Y361001D01*
X315997Y360996D01*
X315998Y360991D01*
X316101Y360843D01*
X316727Y360217D01*
X316727Y357187D01*
X316101Y356561D01*
X316098Y356556D01*
X316094Y356553D01*
X316042Y356473D01*
X315990Y356394D01*
X315989Y356389D01*
X315986Y356384D01*
X315970Y356290D01*
X315952Y356197D01*
X315953Y356192D01*
X315952Y356186D01*
X315974Y356094D01*
X315994Y356001D01*
X315997Y355996D01*
X315998Y355991D01*
X316101Y355843D01*
X316727Y355217D01*
X316727Y352187D01*
X316101Y351561D01*
X316098Y351556D01*
X316094Y351553D01*
X316042Y351473D01*
X315990Y351394D01*
X315989Y351389D01*
X315986Y351384D01*
X315970Y351290D01*
X315952Y351197D01*
X315953Y351192D01*
X315952Y351186D01*
X315974Y351094D01*
X315994Y351001D01*
X315997Y350996D01*
X315998Y350991D01*
X316101Y350843D01*
X316727Y350217D01*
X316727Y347187D01*
X316101Y346561D01*
X316098Y346556D01*
X316094Y346553D01*
X316042Y346473D01*
X315990Y346394D01*
X315989Y346389D01*
X315986Y346384D01*
X315970Y346290D01*
X315952Y346197D01*
X315953Y346192D01*
X315952Y346186D01*
X315974Y346094D01*
X315994Y346001D01*
X315997Y345996D01*
X315998Y345991D01*
X316101Y345843D01*
X316727Y345217D01*
X316727Y342187D01*
X316101Y341561D01*
X316098Y341556D01*
X316094Y341553D01*
X316042Y341473D01*
X315990Y341394D01*
X315989Y341389D01*
X315986Y341384D01*
X315970Y341290D01*
X315952Y341197D01*
X315953Y341192D01*
X315952Y341186D01*
X315974Y341094D01*
X315994Y341001D01*
X315997Y340996D01*
X315998Y340991D01*
X316101Y340843D01*
X316727Y340217D01*
X316727Y337187D01*
X316101Y336561D01*
X316098Y336556D01*
X316094Y336553D01*
X316042Y336473D01*
X315990Y336394D01*
X315989Y336389D01*
X315986Y336384D01*
X315970Y336290D01*
X315952Y336197D01*
X315953Y336192D01*
X315952Y336186D01*
X315974Y336094D01*
X315994Y336001D01*
X315997Y335996D01*
X315998Y335991D01*
X316101Y335843D01*
X316727Y335217D01*
X316727Y332187D01*
X316101Y331561D01*
X316098Y331556D01*
X316094Y331553D01*
X316042Y331473D01*
X315990Y331394D01*
X315989Y331389D01*
X315986Y331384D01*
X315970Y331290D01*
X315952Y331197D01*
X315953Y331192D01*
X315952Y331186D01*
X315974Y331094D01*
X315994Y331001D01*
X315997Y330996D01*
X315998Y330991D01*
X316101Y330843D01*
X316727Y330217D01*
X316727Y327187D01*
X316101Y326561D01*
X316098Y326556D01*
X316094Y326553D01*
X316042Y326473D01*
X315990Y326394D01*
X315989Y326389D01*
X315986Y326384D01*
X315970Y326290D01*
X315952Y326197D01*
X315953Y326192D01*
X315952Y326186D01*
X315974Y326093D01*
X315994Y326001D01*
X315997Y325996D01*
X315998Y325991D01*
X316101Y325843D01*
X316727Y325217D01*
X316727Y322187D01*
X316101Y321561D01*
X316098Y321556D01*
X316094Y321553D01*
X316042Y321473D01*
X315990Y321394D01*
X315989Y321389D01*
X315986Y321384D01*
X315970Y321290D01*
X315952Y321197D01*
X315953Y321192D01*
X315952Y321186D01*
X315974Y321094D01*
X315994Y321001D01*
X315997Y320996D01*
X315998Y320991D01*
X316101Y320843D01*
X316727Y320217D01*
X316727Y317234D01*
X316728Y317229D01*
X316727Y317224D01*
X316748Y317131D01*
X316766Y317037D01*
X316769Y317033D01*
X316770Y317028D01*
X316826Y316950D01*
X316879Y316872D01*
X316883Y316869D01*
X316886Y316864D01*
X316968Y316814D01*
X317047Y316762D01*
X317052Y316761D01*
X317057Y316759D01*
X317234Y316727D01*
X320217Y316727D01*
X321477Y315467D01*
X321477Y313090D01*
X321478Y313082D01*
X321477Y313074D01*
X321497Y312989D01*
X321497Y307957D01*
X320172Y306632D01*
X320169Y306631D01*
X320021Y306529D01*
X317158Y303665D01*
X302942Y303665D01*
X302937Y303664D01*
X302932Y303665D01*
X302839Y303644D01*
X302745Y303626D01*
X302741Y303623D01*
X302736Y303622D01*
X302658Y303566D01*
X302580Y303513D01*
X302577Y303509D01*
X302573Y303506D01*
X302522Y303424D01*
X302470Y303345D01*
X302470Y303340D01*
X302467Y303335D01*
X302435Y303158D01*
X302435Y300328D01*
X301542Y299435D01*
X290278Y299435D01*
X289385Y300328D01*
X289385Y301650D01*
X289384Y301655D01*
X289385Y301660D01*
X289364Y301753D01*
X289346Y301847D01*
X289343Y301851D01*
X289342Y301856D01*
X289286Y301934D01*
X289233Y302012D01*
X289229Y302015D01*
X289226Y302019D01*
X289144Y302070D01*
X289065Y302122D01*
X289060Y302122D01*
X289055Y302125D01*
X288878Y302157D01*
X285122Y302157D01*
X285117Y302156D01*
X285112Y302157D01*
X285019Y302136D01*
X284925Y302118D01*
X284921Y302115D01*
X284916Y302114D01*
X284838Y302058D01*
X284760Y302005D01*
X284757Y302001D01*
X284753Y301998D01*
X284702Y301916D01*
X284650Y301837D01*
X284650Y301832D01*
X284647Y301827D01*
X284615Y301650D01*
X284615Y298328D01*
X283722Y297435D01*
X267458Y297435D01*
G37*
%LPD*%
G36*
X489110Y297184D02*
X489110Y297184D01*
X489196Y297192D01*
X489209Y297198D01*
X489223Y297200D01*
X489296Y297245D01*
X489373Y297286D01*
X489383Y297298D01*
X489394Y297305D01*
X489427Y297349D01*
X489489Y297424D01*
X508381Y330145D01*
X509618Y329291D01*
X509645Y329280D01*
X509667Y329261D01*
X509736Y329241D01*
X509801Y329213D01*
X509830Y329213D01*
X509858Y329205D01*
X509929Y329213D01*
X510000Y329213D01*
X510027Y329224D01*
X510056Y329227D01*
X510118Y329262D01*
X510183Y329290D01*
X510204Y329310D01*
X510229Y329325D01*
X510292Y329402D01*
X510322Y329432D01*
X510326Y329442D01*
X510335Y329453D01*
X519835Y345953D01*
X519845Y345985D01*
X519854Y345998D01*
X519858Y346022D01*
X519859Y346026D01*
X519890Y346096D01*
X519890Y346120D01*
X519898Y346142D01*
X519892Y346218D01*
X519893Y346295D01*
X519883Y346319D01*
X519882Y346340D01*
X519861Y346379D01*
X519835Y346451D01*
X510335Y362951D01*
X510316Y362973D01*
X510303Y362999D01*
X510250Y363047D01*
X510203Y363100D01*
X510177Y363113D01*
X510156Y363132D01*
X510088Y363155D01*
X510024Y363186D01*
X509995Y363188D01*
X509968Y363197D01*
X509896Y363192D01*
X509825Y363195D01*
X509798Y363185D01*
X509769Y363183D01*
X509679Y363141D01*
X509639Y363126D01*
X509631Y363119D01*
X509618Y363113D01*
X508381Y362259D01*
X489489Y394980D01*
X489432Y395045D01*
X489378Y395113D01*
X489366Y395120D01*
X489357Y395131D01*
X489279Y395168D01*
X489203Y395210D01*
X489189Y395212D01*
X489176Y395218D01*
X489090Y395222D01*
X489004Y395232D01*
X488989Y395228D01*
X488976Y395228D01*
X488924Y395210D01*
X488830Y395184D01*
X487592Y394588D01*
X487536Y394545D01*
X487475Y394510D01*
X487455Y394484D01*
X487432Y394467D01*
X487406Y394422D01*
X487364Y394368D01*
X487361Y394363D01*
X486741Y394172D01*
X486711Y394156D01*
X486671Y394145D01*
X486086Y393863D01*
X486081Y393865D01*
X486011Y393875D01*
X485942Y393893D01*
X485910Y393889D01*
X485882Y393893D01*
X485832Y393879D01*
X485764Y393871D01*
X483497Y393173D01*
X483435Y393139D01*
X483370Y393113D01*
X483346Y393090D01*
X483321Y393077D01*
X483289Y393037D01*
X483239Y392989D01*
X483235Y392985D01*
X482594Y392888D01*
X482561Y392877D01*
X482520Y392872D01*
X481900Y392680D01*
X481895Y392683D01*
X481827Y392703D01*
X481762Y392731D01*
X481730Y392732D01*
X481703Y392740D01*
X481651Y392734D01*
X481582Y392736D01*
X480747Y392611D01*
X480683Y392587D01*
X480616Y392573D01*
X480589Y392553D01*
X480558Y392542D01*
X480508Y392496D01*
X480453Y392457D01*
X480435Y392429D01*
X480411Y392406D01*
X480383Y392344D01*
X480347Y392286D01*
X480340Y392251D01*
X480328Y392224D01*
X480326Y392174D01*
X480315Y392109D01*
X480315Y331582D01*
X478529Y329797D01*
X476366Y327634D01*
X476365Y327632D01*
X476363Y327630D01*
X476310Y327549D01*
X476255Y327467D01*
X476255Y327464D01*
X476253Y327462D01*
X476236Y327366D01*
X476218Y327270D01*
X476218Y327267D01*
X476218Y327265D01*
X476239Y327168D01*
X476259Y327074D01*
X476261Y327072D01*
X476261Y327069D01*
X476318Y326989D01*
X476374Y326909D01*
X476376Y326908D01*
X476377Y326906D01*
X476460Y326854D01*
X476543Y326802D01*
X476545Y326801D01*
X476548Y326800D01*
X476725Y326768D01*
X488909Y326768D01*
X491266Y324410D01*
X491266Y316076D01*
X488909Y313718D01*
X486221Y313718D01*
X486218Y313718D01*
X486216Y313718D01*
X486121Y313698D01*
X486024Y313679D01*
X486022Y313677D01*
X486020Y313677D01*
X485939Y313621D01*
X485859Y313566D01*
X485857Y313564D01*
X485855Y313563D01*
X485802Y313479D01*
X485749Y313398D01*
X485749Y313396D01*
X485748Y313393D01*
X485731Y313297D01*
X485714Y313201D01*
X485714Y313198D01*
X485714Y313196D01*
X485736Y313102D01*
X485757Y313005D01*
X485759Y313003D01*
X485760Y313001D01*
X485862Y312853D01*
X486637Y312078D01*
X486637Y307682D01*
X483528Y304573D01*
X479132Y304573D01*
X476023Y307682D01*
X476023Y312078D01*
X476798Y312853D01*
X476799Y312855D01*
X476801Y312856D01*
X476853Y312936D01*
X476909Y313019D01*
X476909Y313022D01*
X476911Y313024D01*
X476928Y313120D01*
X476946Y313216D01*
X476946Y313219D01*
X476946Y313222D01*
X476925Y313318D01*
X476905Y313412D01*
X476903Y313415D01*
X476903Y313417D01*
X476846Y313497D01*
X476790Y313577D01*
X476788Y313579D01*
X476787Y313581D01*
X476703Y313632D01*
X476621Y313685D01*
X476619Y313685D01*
X476616Y313686D01*
X476439Y313718D01*
X474574Y313718D01*
X472217Y316076D01*
X472217Y322260D01*
X472216Y322262D01*
X472217Y322265D01*
X472197Y322360D01*
X472177Y322456D01*
X472176Y322459D01*
X472175Y322461D01*
X472119Y322542D01*
X472065Y322622D01*
X472062Y322624D01*
X472061Y322626D01*
X471977Y322679D01*
X471896Y322731D01*
X471894Y322732D01*
X471892Y322733D01*
X471795Y322750D01*
X471699Y322767D01*
X471697Y322766D01*
X471694Y322767D01*
X471600Y322745D01*
X471504Y322723D01*
X471501Y322722D01*
X471499Y322721D01*
X471351Y322619D01*
X465611Y316879D01*
X465607Y316872D01*
X465601Y316868D01*
X465552Y316789D01*
X465500Y316712D01*
X465499Y316704D01*
X465495Y316698D01*
X465463Y316520D01*
X465463Y300042D01*
X464289Y298868D01*
X464246Y298803D01*
X464197Y298742D01*
X464191Y298720D01*
X464178Y298701D01*
X464164Y298624D01*
X464142Y298549D01*
X464145Y298527D01*
X464141Y298504D01*
X464157Y298428D01*
X464166Y298350D01*
X464178Y298330D01*
X464182Y298308D01*
X464227Y298244D01*
X464266Y298176D01*
X464284Y298162D01*
X464297Y298144D01*
X464363Y298102D01*
X464425Y298054D01*
X464447Y298048D01*
X464466Y298036D01*
X464543Y298023D01*
X464619Y298003D01*
X464643Y298006D01*
X464663Y298003D01*
X464717Y298015D01*
X464798Y298025D01*
X465446Y298225D01*
X465476Y298242D01*
X465516Y298253D01*
X466101Y298534D01*
X466106Y298533D01*
X466176Y298523D01*
X466244Y298505D01*
X466277Y298509D01*
X466304Y298505D01*
X466354Y298518D01*
X466423Y298527D01*
X468689Y299226D01*
X468751Y299260D01*
X468816Y299286D01*
X468840Y299309D01*
X468865Y299322D01*
X468897Y299363D01*
X468947Y299410D01*
X468950Y299415D01*
X469592Y299511D01*
X469625Y299523D01*
X469666Y299528D01*
X470286Y299720D01*
X470291Y299717D01*
X470313Y299711D01*
X470317Y299708D01*
X470330Y299706D01*
X470359Y299697D01*
X470423Y299669D01*
X470456Y299668D01*
X470483Y299660D01*
X470534Y299666D01*
X470604Y299664D01*
X472948Y300018D01*
X473015Y300043D01*
X473083Y300059D01*
X473110Y300077D01*
X473137Y300087D01*
X473175Y300122D01*
X473231Y300161D01*
X473235Y300165D01*
X473884Y300165D01*
X473918Y300172D01*
X473960Y300171D01*
X474601Y300268D01*
X474606Y300265D01*
X474670Y300235D01*
X474730Y300198D01*
X474762Y300192D01*
X474787Y300180D01*
X474839Y300178D01*
X474907Y300166D01*
X477278Y300167D01*
X477348Y300181D01*
X477418Y300186D01*
X477447Y300201D01*
X477475Y300206D01*
X477518Y300235D01*
X477580Y300266D01*
X477584Y300269D01*
X478226Y300173D01*
X478260Y300174D01*
X478301Y300167D01*
X478950Y300167D01*
X478954Y300163D01*
X479013Y300124D01*
X479067Y300078D01*
X479098Y300068D01*
X479121Y300052D01*
X479172Y300043D01*
X479237Y300020D01*
X481582Y299668D01*
X481653Y299671D01*
X481723Y299666D01*
X481754Y299676D01*
X481782Y299678D01*
X481829Y299700D01*
X481874Y299714D01*
X481880Y299716D01*
X481883Y299717D01*
X481895Y299721D01*
X481900Y299724D01*
X482520Y299532D01*
X482554Y299529D01*
X482594Y299516D01*
X483235Y299419D01*
X483239Y299415D01*
X483291Y299367D01*
X483337Y299314D01*
X483366Y299299D01*
X483387Y299280D01*
X483436Y299263D01*
X483497Y299231D01*
X485764Y298533D01*
X485834Y298526D01*
X485903Y298511D01*
X485935Y298516D01*
X485963Y298513D01*
X486012Y298528D01*
X486081Y298539D01*
X486086Y298541D01*
X486671Y298259D01*
X486704Y298251D01*
X486741Y298232D01*
X487361Y298041D01*
X487364Y298036D01*
X487408Y297981D01*
X487446Y297922D01*
X487473Y297902D01*
X487491Y297881D01*
X487536Y297857D01*
X487592Y297816D01*
X488830Y297220D01*
X488914Y297199D01*
X488997Y297173D01*
X489011Y297174D01*
X489024Y297171D01*
X489110Y297184D01*
G37*
%LPC*%
G36*
X431117Y411888D02*
X431117Y411888D01*
X429261Y413744D01*
X429255Y413748D01*
X429250Y413754D01*
X429172Y413803D01*
X429095Y413855D01*
X429087Y413856D01*
X429080Y413860D01*
X428903Y413892D01*
X395762Y413892D01*
X395757Y413891D01*
X395752Y413892D01*
X395659Y413871D01*
X395565Y413853D01*
X395561Y413850D01*
X395556Y413849D01*
X395478Y413793D01*
X395400Y413740D01*
X395397Y413736D01*
X395393Y413733D01*
X395342Y413651D01*
X395290Y413572D01*
X395290Y413567D01*
X395287Y413562D01*
X395273Y413487D01*
X394362Y412575D01*
X382098Y412575D01*
X381205Y413468D01*
X381205Y423446D01*
X381204Y423451D01*
X381205Y423455D01*
X381205Y423456D01*
X381184Y423549D01*
X381166Y423643D01*
X381163Y423647D01*
X381162Y423652D01*
X381106Y423730D01*
X381053Y423808D01*
X381049Y423811D01*
X381046Y423815D01*
X380964Y423866D01*
X380885Y423918D01*
X380880Y423918D01*
X380875Y423921D01*
X380698Y423953D01*
X378762Y423953D01*
X378757Y423952D01*
X378752Y423953D01*
X378659Y423932D01*
X378565Y423914D01*
X378561Y423911D01*
X378556Y423910D01*
X378478Y423854D01*
X378400Y423801D01*
X378397Y423797D01*
X378393Y423794D01*
X378342Y423712D01*
X378290Y423633D01*
X378290Y423628D01*
X378287Y423623D01*
X378255Y423446D01*
X378255Y413468D01*
X377362Y412575D01*
X365098Y412575D01*
X364205Y413468D01*
X364205Y418122D01*
X364204Y418127D01*
X364205Y418132D01*
X364184Y418225D01*
X364166Y418319D01*
X364163Y418323D01*
X364162Y418328D01*
X364106Y418406D01*
X364053Y418484D01*
X364049Y418487D01*
X364046Y418491D01*
X363964Y418542D01*
X363885Y418594D01*
X363880Y418594D01*
X363875Y418597D01*
X363698Y418629D01*
X348225Y418629D01*
X328975Y437880D01*
X328970Y437883D01*
X328967Y437887D01*
X328887Y437938D01*
X328808Y437991D01*
X328802Y437992D01*
X328798Y437994D01*
X328704Y438010D01*
X328611Y438028D01*
X328606Y438027D01*
X328600Y438028D01*
X328508Y438006D01*
X328415Y437987D01*
X328410Y437984D01*
X328405Y437982D01*
X328257Y437880D01*
X325855Y435477D01*
X324877Y435072D01*
X324876Y435072D01*
X323652Y434565D01*
X322494Y434085D01*
X318856Y434085D01*
X315495Y435477D01*
X312922Y438050D01*
X311530Y441411D01*
X311530Y460289D01*
X312922Y463650D01*
X315495Y466223D01*
X316408Y466601D01*
X317633Y467108D01*
X318856Y467615D01*
X322494Y467615D01*
X325855Y466223D01*
X328428Y463650D01*
X329820Y460289D01*
X329820Y446586D01*
X329821Y446578D01*
X329820Y446571D01*
X329841Y446481D01*
X329859Y446390D01*
X329864Y446383D01*
X329866Y446375D01*
X329968Y446227D01*
X336644Y439552D01*
X336645Y439551D01*
X336646Y439550D01*
X336727Y439497D01*
X336811Y439441D01*
X336812Y439440D01*
X336814Y439440D01*
X336910Y439422D01*
X337008Y439403D01*
X337009Y439403D01*
X337011Y439403D01*
X337108Y439424D01*
X337204Y439445D01*
X337205Y439445D01*
X337206Y439446D01*
X337287Y439502D01*
X337369Y439559D01*
X337369Y439560D01*
X337371Y439561D01*
X337422Y439643D01*
X337476Y439728D01*
X337477Y439729D01*
X337477Y439731D01*
X337493Y439826D01*
X337510Y439926D01*
X337510Y439927D01*
X337510Y439928D01*
X337471Y440104D01*
X336930Y441411D01*
X336930Y460289D01*
X338322Y463650D01*
X340895Y466223D01*
X341808Y466601D01*
X343033Y467108D01*
X344256Y467615D01*
X347894Y467615D01*
X351255Y466223D01*
X353828Y463650D01*
X355220Y460289D01*
X355220Y441411D01*
X353828Y438050D01*
X351255Y435477D01*
X350277Y435072D01*
X350276Y435072D01*
X349052Y434565D01*
X347894Y434085D01*
X344256Y434085D01*
X342949Y434626D01*
X342948Y434627D01*
X342947Y434627D01*
X342850Y434646D01*
X342753Y434665D01*
X342751Y434665D01*
X342750Y434665D01*
X342655Y434645D01*
X342556Y434625D01*
X342555Y434624D01*
X342554Y434623D01*
X342472Y434567D01*
X342391Y434511D01*
X342390Y434510D01*
X342389Y434509D01*
X342336Y434425D01*
X342283Y434342D01*
X342283Y434341D01*
X342282Y434340D01*
X342266Y434244D01*
X342248Y434145D01*
X342249Y434144D01*
X342248Y434142D01*
X342271Y434046D01*
X342293Y433950D01*
X342294Y433948D01*
X342294Y433947D01*
X342397Y433799D01*
X350812Y425383D01*
X350819Y425379D01*
X350824Y425373D01*
X350902Y425324D01*
X350979Y425272D01*
X350987Y425271D01*
X350994Y425267D01*
X351171Y425235D01*
X364498Y425235D01*
X364506Y425236D01*
X364514Y425235D01*
X364603Y425256D01*
X364695Y425274D01*
X364701Y425279D01*
X364709Y425281D01*
X364857Y425383D01*
X365098Y425625D01*
X369064Y425625D01*
X369072Y425626D01*
X369079Y425625D01*
X369169Y425646D01*
X369260Y425664D01*
X369267Y425669D01*
X369275Y425671D01*
X369423Y425773D01*
X370011Y426361D01*
X374275Y430625D01*
X374279Y430632D01*
X374285Y430637D01*
X374334Y430715D01*
X374386Y430792D01*
X374387Y430800D01*
X374391Y430807D01*
X374423Y430984D01*
X374423Y431458D01*
X377532Y434567D01*
X381928Y434567D01*
X385037Y431458D01*
X385037Y427062D01*
X384465Y426491D01*
X384464Y426488D01*
X384462Y426487D01*
X384410Y426407D01*
X384355Y426324D01*
X384354Y426321D01*
X384353Y426319D01*
X384335Y426223D01*
X384317Y426127D01*
X384317Y426124D01*
X384317Y426122D01*
X384338Y426025D01*
X384359Y425931D01*
X384360Y425929D01*
X384361Y425926D01*
X384417Y425846D01*
X384473Y425766D01*
X384475Y425765D01*
X384477Y425763D01*
X384560Y425711D01*
X384642Y425659D01*
X384645Y425658D01*
X384647Y425657D01*
X384824Y425625D01*
X394362Y425625D01*
X395255Y424732D01*
X395255Y421005D01*
X395256Y421000D01*
X395255Y420995D01*
X395276Y420902D01*
X395294Y420808D01*
X395297Y420804D01*
X395298Y420799D01*
X395354Y420721D01*
X395407Y420643D01*
X395411Y420640D01*
X395414Y420636D01*
X395496Y420585D01*
X395575Y420533D01*
X395580Y420533D01*
X395585Y420530D01*
X395762Y420498D01*
X428903Y420498D01*
X428911Y420499D01*
X428918Y420498D01*
X429008Y420519D01*
X429099Y420537D01*
X429106Y420542D01*
X429113Y420544D01*
X429261Y420646D01*
X431117Y422502D01*
X433177Y422502D01*
X433180Y422502D01*
X433183Y422502D01*
X433277Y422522D01*
X433374Y422541D01*
X433376Y422543D01*
X433379Y422543D01*
X433459Y422599D01*
X433540Y422654D01*
X433541Y422656D01*
X433543Y422658D01*
X433597Y422741D01*
X433649Y422822D01*
X433649Y422825D01*
X433651Y422827D01*
X433667Y422923D01*
X433685Y423019D01*
X433684Y423022D01*
X433684Y423024D01*
X433662Y423119D01*
X433641Y423215D01*
X433639Y423217D01*
X433639Y423220D01*
X433536Y423368D01*
X432505Y424398D01*
X432505Y436662D01*
X433398Y437555D01*
X444662Y437555D01*
X445555Y436662D01*
X445555Y424398D01*
X444662Y423505D01*
X442205Y423505D01*
X442200Y423504D01*
X442195Y423505D01*
X442102Y423484D01*
X442008Y423466D01*
X442004Y423463D01*
X441999Y423462D01*
X441921Y423406D01*
X441843Y423353D01*
X441840Y423349D01*
X441836Y423346D01*
X441785Y423264D01*
X441733Y423185D01*
X441733Y423180D01*
X441730Y423175D01*
X441698Y422998D01*
X441698Y420907D01*
X438770Y417980D01*
X438766Y417973D01*
X438760Y417968D01*
X438711Y417890D01*
X438659Y417813D01*
X438658Y417805D01*
X438654Y417798D01*
X438622Y417621D01*
X438622Y414997D01*
X435513Y411888D01*
X431117Y411888D01*
G37*
%LPD*%
G36*
X478143Y393769D02*
X478143Y393769D01*
X478186Y393768D01*
X482179Y394369D01*
X482209Y394380D01*
X482252Y394385D01*
X486111Y395574D01*
X486139Y395589D01*
X486180Y395601D01*
X489818Y397352D01*
X489840Y397369D01*
X489866Y397378D01*
X489919Y397428D01*
X489977Y397472D01*
X489990Y397496D01*
X490010Y397515D01*
X490040Y397581D01*
X490076Y397645D01*
X490079Y397672D01*
X490090Y397697D01*
X490091Y397770D01*
X490100Y397842D01*
X490092Y397868D01*
X490092Y397896D01*
X490056Y397994D01*
X490044Y398033D01*
X490038Y398041D01*
X490034Y398052D01*
X463034Y444852D01*
X463016Y444872D01*
X463005Y444897D01*
X462951Y444946D01*
X462903Y445001D01*
X462878Y445012D01*
X462858Y445031D01*
X462789Y445055D01*
X462723Y445086D01*
X462696Y445088D01*
X462671Y445097D01*
X462598Y445092D01*
X462525Y445095D01*
X462499Y445086D01*
X462472Y445084D01*
X462376Y445040D01*
X462338Y445026D01*
X462331Y445019D01*
X462321Y445015D01*
X458984Y442741D01*
X458962Y442718D01*
X458926Y442695D01*
X455965Y439949D01*
X455946Y439923D01*
X455914Y439895D01*
X453396Y436739D01*
X453381Y436710D01*
X453354Y436677D01*
X451334Y433181D01*
X451324Y433151D01*
X451301Y433114D01*
X449825Y429356D01*
X449820Y429324D01*
X449803Y429284D01*
X448903Y425348D01*
X448903Y425316D01*
X448892Y425274D01*
X448589Y421248D01*
X448592Y421225D01*
X448589Y421205D01*
X448591Y421195D01*
X448589Y421174D01*
X448890Y417147D01*
X448898Y417116D01*
X448901Y417073D01*
X449798Y413137D01*
X449811Y413108D01*
X449820Y413065D01*
X451294Y409306D01*
X451311Y409279D01*
X451326Y409239D01*
X453344Y405742D01*
X453365Y405718D01*
X453386Y405680D01*
X455902Y402522D01*
X455927Y402502D01*
X455953Y402468D01*
X458912Y399720D01*
X458939Y399704D01*
X458970Y399674D01*
X462306Y397398D01*
X462335Y397386D01*
X462370Y397361D01*
X466008Y395608D01*
X466038Y395600D01*
X466077Y395581D01*
X469935Y394389D01*
X469967Y394386D01*
X470008Y394373D01*
X474000Y393770D01*
X474032Y393771D01*
X474074Y393764D01*
X478112Y393763D01*
X478143Y393769D01*
G37*
G36*
X218330Y393764D02*
X218330Y393764D01*
X218361Y393770D01*
X218404Y393770D01*
X222396Y394373D01*
X222426Y394384D01*
X222469Y394389D01*
X226327Y395581D01*
X226355Y395596D01*
X226397Y395608D01*
X230034Y397361D01*
X230059Y397380D01*
X230098Y397398D01*
X233434Y399674D01*
X233456Y399697D01*
X233492Y399720D01*
X236451Y402468D01*
X236470Y402493D01*
X236502Y402522D01*
X239018Y405680D01*
X239033Y405708D01*
X239060Y405742D01*
X241078Y409239D01*
X241088Y409269D01*
X241110Y409306D01*
X242584Y413065D01*
X242590Y413097D01*
X242606Y413137D01*
X243503Y417073D01*
X243504Y417105D01*
X243514Y417147D01*
X243815Y421174D01*
X243811Y421205D01*
X243812Y421221D01*
X243815Y421238D01*
X243814Y421242D01*
X243815Y421248D01*
X243512Y425274D01*
X243503Y425305D01*
X243501Y425348D01*
X242601Y429284D01*
X242588Y429313D01*
X242579Y429356D01*
X241103Y433114D01*
X241085Y433141D01*
X241070Y433181D01*
X239050Y436677D01*
X239029Y436701D01*
X239008Y436739D01*
X236490Y439895D01*
X236465Y439915D01*
X236439Y439949D01*
X233478Y442695D01*
X233451Y442711D01*
X233420Y442741D01*
X230083Y445015D01*
X230058Y445025D01*
X230037Y445042D01*
X229967Y445063D01*
X229900Y445092D01*
X229872Y445092D01*
X229846Y445099D01*
X229774Y445091D01*
X229701Y445091D01*
X229676Y445080D01*
X229649Y445077D01*
X229585Y445041D01*
X229518Y445013D01*
X229499Y444993D01*
X229476Y444980D01*
X229409Y444899D01*
X229380Y444869D01*
X229377Y444860D01*
X229370Y444852D01*
X202370Y398052D01*
X202361Y398026D01*
X202345Y398003D01*
X202330Y397932D01*
X202306Y397863D01*
X202309Y397836D01*
X202303Y397809D01*
X202316Y397738D01*
X202322Y397665D01*
X202335Y397640D01*
X202340Y397614D01*
X202380Y397553D01*
X202414Y397488D01*
X202435Y397471D01*
X202450Y397448D01*
X202536Y397387D01*
X202567Y397362D01*
X202576Y397359D01*
X202586Y397352D01*
X206224Y395601D01*
X206255Y395594D01*
X206293Y395574D01*
X210152Y394385D01*
X210184Y394382D01*
X210225Y394369D01*
X214218Y393768D01*
X214249Y393770D01*
X214292Y393763D01*
X218330Y393764D01*
G37*
G36*
X462630Y247313D02*
X462630Y247313D01*
X462703Y247313D01*
X462728Y247324D01*
X462755Y247327D01*
X462819Y247363D01*
X462886Y247391D01*
X462905Y247411D01*
X462928Y247424D01*
X462996Y247505D01*
X463024Y247535D01*
X463027Y247544D01*
X463034Y247553D01*
X490034Y294353D01*
X490043Y294378D01*
X490059Y294401D01*
X490074Y294472D01*
X490098Y294541D01*
X490095Y294568D01*
X490101Y294595D01*
X490088Y294666D01*
X490082Y294739D01*
X490069Y294764D01*
X490064Y294790D01*
X490024Y294851D01*
X489990Y294916D01*
X489969Y294933D01*
X489954Y294956D01*
X489868Y295017D01*
X489837Y295042D01*
X489828Y295045D01*
X489818Y295052D01*
X486180Y296803D01*
X486149Y296810D01*
X486111Y296830D01*
X482252Y298019D01*
X482220Y298022D01*
X482179Y298035D01*
X478186Y298636D01*
X478155Y298634D01*
X478112Y298641D01*
X474074Y298640D01*
X474043Y298634D01*
X474000Y298634D01*
X470008Y298031D01*
X469978Y298020D01*
X469935Y298015D01*
X466077Y296823D01*
X466049Y296808D01*
X466008Y296796D01*
X462370Y295043D01*
X462345Y295024D01*
X462306Y295006D01*
X458970Y292730D01*
X458948Y292707D01*
X458912Y292684D01*
X455953Y289936D01*
X455934Y289911D01*
X455902Y289882D01*
X453386Y286724D01*
X453371Y286696D01*
X453344Y286662D01*
X451326Y283165D01*
X451316Y283135D01*
X451294Y283098D01*
X449820Y279339D01*
X449814Y279307D01*
X449798Y279267D01*
X448901Y275331D01*
X448900Y275299D01*
X448890Y275257D01*
X448589Y271231D01*
X448593Y271199D01*
X448589Y271156D01*
X448892Y267130D01*
X448901Y267099D01*
X448903Y267056D01*
X449803Y263120D01*
X449816Y263091D01*
X449825Y263048D01*
X451301Y259290D01*
X451319Y259263D01*
X451334Y259223D01*
X453354Y255727D01*
X453375Y255703D01*
X453396Y255665D01*
X455914Y252509D01*
X455939Y252489D01*
X455965Y252455D01*
X458926Y249709D01*
X458953Y249693D01*
X458984Y249663D01*
X462321Y247389D01*
X462346Y247379D01*
X462367Y247362D01*
X462437Y247341D01*
X462504Y247312D01*
X462532Y247313D01*
X462558Y247305D01*
X462630Y247313D01*
G37*
G36*
X229806Y247312D02*
X229806Y247312D01*
X229879Y247309D01*
X229905Y247318D01*
X229932Y247320D01*
X230028Y247364D01*
X230066Y247378D01*
X230073Y247385D01*
X230083Y247389D01*
X233420Y249663D01*
X233442Y249686D01*
X233478Y249709D01*
X236439Y252455D01*
X236458Y252481D01*
X236490Y252509D01*
X239008Y255665D01*
X239023Y255694D01*
X239050Y255727D01*
X241070Y259223D01*
X241080Y259253D01*
X241103Y259290D01*
X242579Y263048D01*
X242584Y263080D01*
X242601Y263120D01*
X243501Y267056D01*
X243501Y267088D01*
X243512Y267130D01*
X243815Y271156D01*
X243811Y271187D01*
X243815Y271231D01*
X243514Y275257D01*
X243506Y275288D01*
X243503Y275331D01*
X242606Y279267D01*
X242593Y279296D01*
X242584Y279339D01*
X241110Y283098D01*
X241093Y283125D01*
X241078Y283165D01*
X239060Y286662D01*
X239039Y286686D01*
X239018Y286724D01*
X236502Y289882D01*
X236477Y289902D01*
X236451Y289936D01*
X233492Y292684D01*
X233465Y292700D01*
X233434Y292730D01*
X230098Y295006D01*
X230069Y295018D01*
X230034Y295043D01*
X226397Y296796D01*
X226366Y296804D01*
X226327Y296823D01*
X222469Y298015D01*
X222437Y298018D01*
X222396Y298031D01*
X218404Y298634D01*
X218372Y298633D01*
X218330Y298640D01*
X214292Y298641D01*
X214261Y298635D01*
X214218Y298636D01*
X210225Y298035D01*
X210195Y298024D01*
X210152Y298019D01*
X206293Y296830D01*
X206265Y296815D01*
X206224Y296803D01*
X202586Y295052D01*
X202564Y295035D01*
X202538Y295026D01*
X202485Y294976D01*
X202427Y294932D01*
X202414Y294908D01*
X202394Y294889D01*
X202364Y294823D01*
X202328Y294759D01*
X202325Y294732D01*
X202314Y294707D01*
X202313Y294634D01*
X202304Y294562D01*
X202312Y294536D01*
X202312Y294508D01*
X202348Y294410D01*
X202360Y294371D01*
X202366Y294363D01*
X202370Y294353D01*
X229370Y247553D01*
X229388Y247532D01*
X229399Y247507D01*
X229453Y247458D01*
X229501Y247404D01*
X229526Y247392D01*
X229546Y247373D01*
X229615Y247349D01*
X229681Y247318D01*
X229708Y247317D01*
X229733Y247307D01*
X229806Y247312D01*
G37*
G36*
X373229Y195708D02*
X373229Y195708D01*
X373256Y195706D01*
X373325Y195728D01*
X373397Y195742D01*
X373419Y195758D01*
X373445Y195766D01*
X373501Y195814D01*
X373561Y195855D01*
X373575Y195878D01*
X373596Y195896D01*
X373629Y195961D01*
X373668Y196022D01*
X373672Y196049D01*
X373684Y196074D01*
X373694Y196178D01*
X373701Y196219D01*
X373699Y196228D01*
X373700Y196239D01*
X373398Y200263D01*
X373390Y200294D01*
X373387Y200337D01*
X372489Y204271D01*
X372476Y204300D01*
X372467Y204343D01*
X370993Y208099D01*
X370976Y208126D01*
X370961Y208167D01*
X368943Y211661D01*
X368922Y211685D01*
X368901Y211723D01*
X366385Y214878D01*
X366360Y214898D01*
X366334Y214933D01*
X363376Y217677D01*
X363349Y217694D01*
X363317Y217724D01*
X359983Y219997D01*
X359954Y220010D01*
X359919Y220035D01*
X356283Y221785D01*
X356252Y221793D01*
X356213Y221813D01*
X352357Y223002D01*
X352326Y223005D01*
X352284Y223019D01*
X348294Y223620D01*
X348262Y223619D01*
X348220Y223626D01*
X344184Y223626D01*
X344153Y223619D01*
X344110Y223620D01*
X340120Y223019D01*
X340090Y223008D01*
X340047Y223002D01*
X336191Y221813D01*
X336163Y221797D01*
X336121Y221785D01*
X332485Y220035D01*
X332460Y220015D01*
X332421Y219997D01*
X329087Y217724D01*
X329064Y217701D01*
X329028Y217677D01*
X326070Y214933D01*
X326052Y214907D01*
X326019Y214878D01*
X323503Y211723D01*
X323489Y211695D01*
X323461Y211661D01*
X321443Y208167D01*
X321433Y208136D01*
X321411Y208099D01*
X319937Y204343D01*
X319931Y204311D01*
X319915Y204271D01*
X319017Y200337D01*
X319016Y200305D01*
X319006Y200263D01*
X318704Y196239D01*
X318708Y196212D01*
X318703Y196185D01*
X318720Y196115D01*
X318729Y196042D01*
X318743Y196018D01*
X318749Y195992D01*
X318792Y195933D01*
X318829Y195870D01*
X318851Y195854D01*
X318867Y195832D01*
X318930Y195795D01*
X318988Y195751D01*
X319015Y195744D01*
X319038Y195730D01*
X319142Y195713D01*
X319181Y195703D01*
X319191Y195705D01*
X319202Y195703D01*
X373202Y195703D01*
X373229Y195708D01*
G37*
%LPC*%
G36*
X416398Y423505D02*
X416398Y423505D01*
X415505Y424398D01*
X415505Y436662D01*
X416398Y437555D01*
X418220Y437555D01*
X418225Y437556D01*
X418230Y437555D01*
X418323Y437576D01*
X418417Y437594D01*
X418421Y437597D01*
X418426Y437598D01*
X418504Y437654D01*
X418582Y437707D01*
X418585Y437711D01*
X418589Y437714D01*
X418640Y437796D01*
X418692Y437875D01*
X418692Y437880D01*
X418695Y437885D01*
X418727Y438062D01*
X418727Y450787D01*
X418726Y450795D01*
X418727Y450802D01*
X418706Y450892D01*
X418688Y450983D01*
X418683Y450990D01*
X418681Y450998D01*
X418579Y451146D01*
X395991Y473733D01*
X395987Y473736D01*
X395984Y473740D01*
X395903Y473791D01*
X395824Y473844D01*
X395819Y473845D01*
X395815Y473848D01*
X395721Y473863D01*
X395628Y473881D01*
X395622Y473880D01*
X395617Y473881D01*
X395525Y473860D01*
X395431Y473840D01*
X395427Y473837D01*
X395422Y473836D01*
X395274Y473733D01*
X395117Y473575D01*
X380853Y473575D01*
X379960Y474468D01*
X379960Y490732D01*
X380853Y491625D01*
X395117Y491625D01*
X396010Y490732D01*
X396010Y483266D01*
X396011Y483258D01*
X396010Y483251D01*
X396031Y483161D01*
X396049Y483070D01*
X396054Y483063D01*
X396056Y483055D01*
X396158Y482907D01*
X425333Y453733D01*
X425333Y438062D01*
X425334Y438057D01*
X425333Y438052D01*
X425354Y437959D01*
X425372Y437865D01*
X425375Y437861D01*
X425376Y437856D01*
X425432Y437778D01*
X425485Y437700D01*
X425489Y437697D01*
X425492Y437693D01*
X425574Y437642D01*
X425653Y437590D01*
X425658Y437590D01*
X425663Y437587D01*
X425840Y437555D01*
X427662Y437555D01*
X428555Y436662D01*
X428555Y424398D01*
X427662Y423505D01*
X416398Y423505D01*
G37*
%LPD*%
%LPC*%
G36*
X379425Y370907D02*
X379425Y370907D01*
X379314Y370927D01*
X376937Y370927D01*
X375677Y372187D01*
X375677Y374564D01*
X375676Y374572D01*
X375677Y374580D01*
X375656Y374670D01*
X375638Y374761D01*
X375633Y374767D01*
X375632Y374775D01*
X375529Y374923D01*
X374923Y375529D01*
X374916Y375533D01*
X374912Y375540D01*
X374833Y375588D01*
X374756Y375640D01*
X374748Y375641D01*
X374742Y375645D01*
X374564Y375677D01*
X372187Y375677D01*
X370927Y376937D01*
X370927Y379314D01*
X370926Y379319D01*
X370927Y379325D01*
X370927Y379327D01*
X370927Y379330D01*
X370907Y379415D01*
X370907Y384259D01*
X370927Y384370D01*
X370927Y384468D01*
X372187Y385727D01*
X372284Y385727D01*
X372292Y385728D01*
X372300Y385727D01*
X372390Y385748D01*
X372481Y385766D01*
X372487Y385771D01*
X372495Y385773D01*
X372643Y385875D01*
X381057Y394289D01*
X381061Y394296D01*
X381067Y394300D01*
X381116Y394379D01*
X381168Y394456D01*
X381169Y394464D01*
X381173Y394470D01*
X381205Y394648D01*
X381205Y404412D01*
X382098Y405305D01*
X394362Y405305D01*
X395255Y404412D01*
X395255Y402714D01*
X395255Y402712D01*
X395255Y402709D01*
X395275Y402614D01*
X395294Y402518D01*
X395296Y402515D01*
X395296Y402513D01*
X395352Y402432D01*
X395407Y402352D01*
X395409Y402350D01*
X395411Y402348D01*
X395494Y402295D01*
X395575Y402243D01*
X395578Y402242D01*
X395580Y402241D01*
X395676Y402224D01*
X395772Y402207D01*
X395775Y402208D01*
X395777Y402207D01*
X395872Y402229D01*
X395968Y402251D01*
X395970Y402252D01*
X395973Y402253D01*
X396121Y402356D01*
X396582Y402817D01*
X400978Y402817D01*
X404087Y399708D01*
X404087Y395312D01*
X400978Y392203D01*
X396582Y392203D01*
X395804Y392981D01*
X395800Y392984D01*
X395797Y392988D01*
X395717Y393039D01*
X395637Y393092D01*
X395632Y393093D01*
X395628Y393096D01*
X395534Y393111D01*
X395441Y393129D01*
X395435Y393128D01*
X395430Y393129D01*
X395338Y393107D01*
X395244Y393088D01*
X395240Y393085D01*
X395235Y393084D01*
X395087Y392981D01*
X394362Y392255D01*
X387138Y392255D01*
X387130Y392254D01*
X387122Y392255D01*
X387032Y392234D01*
X386941Y392216D01*
X386935Y392211D01*
X386927Y392209D01*
X386779Y392107D01*
X376873Y382201D01*
X376870Y382196D01*
X376866Y382193D01*
X376815Y382113D01*
X376762Y382034D01*
X376761Y382029D01*
X376758Y382024D01*
X376742Y381930D01*
X376725Y381837D01*
X376726Y381832D01*
X376725Y381827D01*
X376746Y381734D01*
X376766Y381641D01*
X376769Y381636D01*
X376770Y381631D01*
X376873Y381483D01*
X381711Y376645D01*
X381718Y376641D01*
X381722Y376635D01*
X381801Y376586D01*
X381878Y376534D01*
X381886Y376533D01*
X381892Y376529D01*
X382070Y376497D01*
X386954Y376497D01*
X386962Y376498D01*
X386970Y376497D01*
X387060Y376518D01*
X387151Y376536D01*
X387157Y376541D01*
X387165Y376543D01*
X387313Y376645D01*
X389567Y378899D01*
X389571Y378906D01*
X389577Y378910D01*
X389626Y378989D01*
X389678Y379066D01*
X389679Y379074D01*
X389683Y379080D01*
X389715Y379258D01*
X389715Y388012D01*
X390608Y388905D01*
X401872Y388905D01*
X402765Y388012D01*
X402765Y375748D01*
X401872Y374855D01*
X393638Y374855D01*
X393630Y374854D01*
X393622Y374855D01*
X393532Y374834D01*
X393441Y374816D01*
X393435Y374811D01*
X393427Y374809D01*
X393279Y374707D01*
X389480Y370907D01*
X379425Y370907D01*
G37*
%LPD*%
%LPC*%
G36*
X369656Y434085D02*
X369656Y434085D01*
X366295Y435477D01*
X363722Y438050D01*
X362330Y441411D01*
X362330Y460289D01*
X363722Y463650D01*
X366295Y466223D01*
X367208Y466601D01*
X368433Y467108D01*
X369656Y467615D01*
X373294Y467615D01*
X376655Y466223D01*
X379228Y463650D01*
X380620Y460289D01*
X380620Y441411D01*
X379228Y438050D01*
X376655Y435477D01*
X375677Y435072D01*
X375676Y435072D01*
X374452Y434565D01*
X373294Y434085D01*
X369656Y434085D01*
G37*
%LPD*%
D10*
X440690Y342020D03*
X440690Y359020D03*
D11*
X440690Y305460D03*
X440690Y324460D03*
D12*
X377827Y373077D02*
X377827Y374327D01*
X383577Y374327D01*
X383577Y373077D01*
X377827Y373077D01*
X377827Y374264D02*
X383577Y374264D01*
X377827Y369327D02*
X377827Y368077D01*
X377827Y369327D02*
X383577Y369327D01*
X383577Y368077D01*
X377827Y368077D01*
X377827Y369264D02*
X383577Y369264D01*
X377827Y364327D02*
X377827Y363077D01*
X377827Y364327D02*
X383577Y364327D01*
X383577Y363077D01*
X377827Y363077D01*
X377827Y364264D02*
X383577Y364264D01*
X377827Y359327D02*
X377827Y358077D01*
X377827Y359327D02*
X383577Y359327D01*
X383577Y358077D01*
X377827Y358077D01*
X377827Y359264D02*
X383577Y359264D01*
X377827Y354327D02*
X377827Y353077D01*
X377827Y354327D02*
X383577Y354327D01*
X383577Y353077D01*
X377827Y353077D01*
X377827Y354264D02*
X383577Y354264D01*
X377827Y349327D02*
X377827Y348077D01*
X377827Y349327D02*
X383577Y349327D01*
X383577Y348077D01*
X377827Y348077D01*
X377827Y349264D02*
X383577Y349264D01*
X377827Y344327D02*
X377827Y343077D01*
X377827Y344327D02*
X383577Y344327D01*
X383577Y343077D01*
X377827Y343077D01*
X377827Y344264D02*
X383577Y344264D01*
X377827Y339327D02*
X377827Y338077D01*
X377827Y339327D02*
X383577Y339327D01*
X383577Y338077D01*
X377827Y338077D01*
X377827Y339264D02*
X383577Y339264D01*
X377827Y334327D02*
X377827Y333077D01*
X377827Y334327D02*
X383577Y334327D01*
X383577Y333077D01*
X377827Y333077D01*
X377827Y334264D02*
X383577Y334264D01*
X377827Y329327D02*
X377827Y328077D01*
X377827Y329327D02*
X383577Y329327D01*
X383577Y328077D01*
X377827Y328077D01*
X377827Y329264D02*
X383577Y329264D01*
X377827Y324327D02*
X377827Y323077D01*
X377827Y324327D02*
X383577Y324327D01*
X383577Y323077D01*
X377827Y323077D01*
X377827Y324264D02*
X383577Y324264D01*
X377827Y319327D02*
X377827Y318077D01*
X377827Y319327D02*
X383577Y319327D01*
X383577Y318077D01*
X377827Y318077D01*
X377827Y319264D02*
X383577Y319264D01*
X374327Y314577D02*
X373077Y314577D01*
X374327Y314577D02*
X374327Y308827D01*
X373077Y308827D01*
X373077Y314577D01*
X373077Y310014D02*
X374327Y310014D01*
X374327Y311201D02*
X373077Y311201D01*
X373077Y312388D02*
X374327Y312388D01*
X374327Y313575D02*
X373077Y313575D01*
X369327Y314577D02*
X368077Y314577D01*
X369327Y314577D02*
X369327Y308827D01*
X368077Y308827D01*
X368077Y314577D01*
X368077Y310014D02*
X369327Y310014D01*
X369327Y311201D02*
X368077Y311201D01*
X368077Y312388D02*
X369327Y312388D01*
X369327Y313575D02*
X368077Y313575D01*
X364327Y314577D02*
X363077Y314577D01*
X364327Y314577D02*
X364327Y308827D01*
X363077Y308827D01*
X363077Y314577D01*
X363077Y310014D02*
X364327Y310014D01*
X364327Y311201D02*
X363077Y311201D01*
X363077Y312388D02*
X364327Y312388D01*
X364327Y313575D02*
X363077Y313575D01*
X359327Y314577D02*
X358077Y314577D01*
X359327Y314577D02*
X359327Y308827D01*
X358077Y308827D01*
X358077Y314577D01*
X358077Y310014D02*
X359327Y310014D01*
X359327Y311201D02*
X358077Y311201D01*
X358077Y312388D02*
X359327Y312388D01*
X359327Y313575D02*
X358077Y313575D01*
X354327Y314577D02*
X353077Y314577D01*
X354327Y314577D02*
X354327Y308827D01*
X353077Y308827D01*
X353077Y314577D01*
X353077Y310014D02*
X354327Y310014D01*
X354327Y311201D02*
X353077Y311201D01*
X353077Y312388D02*
X354327Y312388D01*
X354327Y313575D02*
X353077Y313575D01*
X349327Y314577D02*
X348077Y314577D01*
X349327Y314577D02*
X349327Y308827D01*
X348077Y308827D01*
X348077Y314577D01*
X348077Y310014D02*
X349327Y310014D01*
X349327Y311201D02*
X348077Y311201D01*
X348077Y312388D02*
X349327Y312388D01*
X349327Y313575D02*
X348077Y313575D01*
X344327Y314577D02*
X343077Y314577D01*
X344327Y314577D02*
X344327Y308827D01*
X343077Y308827D01*
X343077Y314577D01*
X343077Y310014D02*
X344327Y310014D01*
X344327Y311201D02*
X343077Y311201D01*
X343077Y312388D02*
X344327Y312388D01*
X344327Y313575D02*
X343077Y313575D01*
X339327Y314577D02*
X338077Y314577D01*
X339327Y314577D02*
X339327Y308827D01*
X338077Y308827D01*
X338077Y314577D01*
X338077Y310014D02*
X339327Y310014D01*
X339327Y311201D02*
X338077Y311201D01*
X338077Y312388D02*
X339327Y312388D01*
X339327Y313575D02*
X338077Y313575D01*
X334327Y314577D02*
X333077Y314577D01*
X334327Y314577D02*
X334327Y308827D01*
X333077Y308827D01*
X333077Y314577D01*
X333077Y310014D02*
X334327Y310014D01*
X334327Y311201D02*
X333077Y311201D01*
X333077Y312388D02*
X334327Y312388D01*
X334327Y313575D02*
X333077Y313575D01*
X329327Y314577D02*
X328077Y314577D01*
X329327Y314577D02*
X329327Y308827D01*
X328077Y308827D01*
X328077Y314577D01*
X328077Y310014D02*
X329327Y310014D01*
X329327Y311201D02*
X328077Y311201D01*
X328077Y312388D02*
X329327Y312388D01*
X329327Y313575D02*
X328077Y313575D01*
X324327Y314577D02*
X323077Y314577D01*
X324327Y314577D02*
X324327Y308827D01*
X323077Y308827D01*
X323077Y314577D01*
X323077Y310014D02*
X324327Y310014D01*
X324327Y311201D02*
X323077Y311201D01*
X323077Y312388D02*
X324327Y312388D01*
X324327Y313575D02*
X323077Y313575D01*
X319327Y314577D02*
X318077Y314577D01*
X319327Y314577D02*
X319327Y308827D01*
X318077Y308827D01*
X318077Y314577D01*
X318077Y310014D02*
X319327Y310014D01*
X319327Y311201D02*
X318077Y311201D01*
X318077Y312388D02*
X319327Y312388D01*
X319327Y313575D02*
X318077Y313575D01*
X314577Y318077D02*
X314577Y319327D01*
X314577Y318077D02*
X308827Y318077D01*
X308827Y319327D01*
X314577Y319327D01*
X314577Y319264D02*
X308827Y319264D01*
X314577Y323077D02*
X314577Y324327D01*
X314577Y323077D02*
X308827Y323077D01*
X308827Y324327D01*
X314577Y324327D01*
X314577Y324264D02*
X308827Y324264D01*
X314577Y328077D02*
X314577Y329327D01*
X314577Y328077D02*
X308827Y328077D01*
X308827Y329327D01*
X314577Y329327D01*
X314577Y329264D02*
X308827Y329264D01*
X314577Y333077D02*
X314577Y334327D01*
X314577Y333077D02*
X308827Y333077D01*
X308827Y334327D01*
X314577Y334327D01*
X314577Y334264D02*
X308827Y334264D01*
X314577Y338077D02*
X314577Y339327D01*
X314577Y338077D02*
X308827Y338077D01*
X308827Y339327D01*
X314577Y339327D01*
X314577Y339264D02*
X308827Y339264D01*
X314577Y343077D02*
X314577Y344327D01*
X314577Y343077D02*
X308827Y343077D01*
X308827Y344327D01*
X314577Y344327D01*
X314577Y344264D02*
X308827Y344264D01*
X314577Y348077D02*
X314577Y349327D01*
X314577Y348077D02*
X308827Y348077D01*
X308827Y349327D01*
X314577Y349327D01*
X314577Y349264D02*
X308827Y349264D01*
X314577Y353077D02*
X314577Y354327D01*
X314577Y353077D02*
X308827Y353077D01*
X308827Y354327D01*
X314577Y354327D01*
X314577Y354264D02*
X308827Y354264D01*
X314577Y358077D02*
X314577Y359327D01*
X314577Y358077D02*
X308827Y358077D01*
X308827Y359327D01*
X314577Y359327D01*
X314577Y359264D02*
X308827Y359264D01*
X314577Y363077D02*
X314577Y364327D01*
X314577Y363077D02*
X308827Y363077D01*
X308827Y364327D01*
X314577Y364327D01*
X314577Y364264D02*
X308827Y364264D01*
X314577Y368077D02*
X314577Y369327D01*
X314577Y368077D02*
X308827Y368077D01*
X308827Y369327D01*
X314577Y369327D01*
X314577Y369264D02*
X308827Y369264D01*
X314577Y373077D02*
X314577Y374327D01*
X314577Y373077D02*
X308827Y373077D01*
X308827Y374327D01*
X314577Y374327D01*
X314577Y374264D02*
X308827Y374264D01*
X318077Y377827D02*
X319327Y377827D01*
X318077Y377827D02*
X318077Y383577D01*
X319327Y383577D01*
X319327Y377827D01*
X319327Y379014D02*
X318077Y379014D01*
X318077Y380201D02*
X319327Y380201D01*
X319327Y381388D02*
X318077Y381388D01*
X318077Y382575D02*
X319327Y382575D01*
X323077Y377827D02*
X324327Y377827D01*
X323077Y377827D02*
X323077Y383577D01*
X324327Y383577D01*
X324327Y377827D01*
X324327Y379014D02*
X323077Y379014D01*
X323077Y380201D02*
X324327Y380201D01*
X324327Y381388D02*
X323077Y381388D01*
X323077Y382575D02*
X324327Y382575D01*
X328077Y377827D02*
X329327Y377827D01*
X328077Y377827D02*
X328077Y383577D01*
X329327Y383577D01*
X329327Y377827D01*
X329327Y379014D02*
X328077Y379014D01*
X328077Y380201D02*
X329327Y380201D01*
X329327Y381388D02*
X328077Y381388D01*
X328077Y382575D02*
X329327Y382575D01*
X333077Y377827D02*
X334327Y377827D01*
X333077Y377827D02*
X333077Y383577D01*
X334327Y383577D01*
X334327Y377827D01*
X334327Y379014D02*
X333077Y379014D01*
X333077Y380201D02*
X334327Y380201D01*
X334327Y381388D02*
X333077Y381388D01*
X333077Y382575D02*
X334327Y382575D01*
X338077Y377827D02*
X339327Y377827D01*
X338077Y377827D02*
X338077Y383577D01*
X339327Y383577D01*
X339327Y377827D01*
X339327Y379014D02*
X338077Y379014D01*
X338077Y380201D02*
X339327Y380201D01*
X339327Y381388D02*
X338077Y381388D01*
X338077Y382575D02*
X339327Y382575D01*
X343077Y377827D02*
X344327Y377827D01*
X343077Y377827D02*
X343077Y383577D01*
X344327Y383577D01*
X344327Y377827D01*
X344327Y379014D02*
X343077Y379014D01*
X343077Y380201D02*
X344327Y380201D01*
X344327Y381388D02*
X343077Y381388D01*
X343077Y382575D02*
X344327Y382575D01*
X348077Y377827D02*
X349327Y377827D01*
X348077Y377827D02*
X348077Y383577D01*
X349327Y383577D01*
X349327Y377827D01*
X349327Y379014D02*
X348077Y379014D01*
X348077Y380201D02*
X349327Y380201D01*
X349327Y381388D02*
X348077Y381388D01*
X348077Y382575D02*
X349327Y382575D01*
X353077Y377827D02*
X354327Y377827D01*
X353077Y377827D02*
X353077Y383577D01*
X354327Y383577D01*
X354327Y377827D01*
X354327Y379014D02*
X353077Y379014D01*
X353077Y380201D02*
X354327Y380201D01*
X354327Y381388D02*
X353077Y381388D01*
X353077Y382575D02*
X354327Y382575D01*
X358077Y377827D02*
X359327Y377827D01*
X358077Y377827D02*
X358077Y383577D01*
X359327Y383577D01*
X359327Y377827D01*
X359327Y379014D02*
X358077Y379014D01*
X358077Y380201D02*
X359327Y380201D01*
X359327Y381388D02*
X358077Y381388D01*
X358077Y382575D02*
X359327Y382575D01*
X363077Y377827D02*
X364327Y377827D01*
X363077Y377827D02*
X363077Y383577D01*
X364327Y383577D01*
X364327Y377827D01*
X364327Y379014D02*
X363077Y379014D01*
X363077Y380201D02*
X364327Y380201D01*
X364327Y381388D02*
X363077Y381388D01*
X363077Y382575D02*
X364327Y382575D01*
X368077Y377827D02*
X369327Y377827D01*
X368077Y377827D02*
X368077Y383577D01*
X369327Y383577D01*
X369327Y377827D01*
X369327Y379014D02*
X368077Y379014D01*
X368077Y380201D02*
X369327Y380201D01*
X369327Y381388D02*
X368077Y381388D01*
X368077Y382575D02*
X369327Y382575D01*
X373077Y377827D02*
X374327Y377827D01*
X373077Y377827D02*
X373077Y383577D01*
X374327Y383577D01*
X374327Y377827D01*
X374327Y379014D02*
X373077Y379014D01*
X373077Y380201D02*
X374327Y380201D01*
X374327Y381388D02*
X373077Y381388D01*
X373077Y382575D02*
X374327Y382575D01*
D13*
X346202Y346202D03*
D14*
X418305Y363010D03*
X418305Y351010D03*
X418305Y339010D03*
D15*
X354330Y412360D03*
X354330Y395360D03*
D11*
X275590Y390500D03*
X275590Y371500D03*
X275590Y305460D03*
X275590Y324460D03*
D10*
X417830Y306460D03*
X417830Y323460D03*
X295910Y390770D03*
X295910Y373770D03*
X295910Y306460D03*
X295910Y323460D03*
D15*
X388230Y398780D03*
X371230Y398780D03*
D10*
X396240Y381880D03*
X396240Y364880D03*
D15*
X461010Y359020D03*
X461010Y342020D03*
D16*
X233592Y318048D02*
X222592Y318048D01*
X222592Y323048D01*
X233592Y323048D01*
X233592Y318048D01*
X233592Y322798D02*
X222592Y322798D01*
X222592Y348448D02*
X233592Y348448D01*
X233592Y343448D01*
X222592Y343448D01*
X222592Y348448D01*
X222592Y348198D02*
X233592Y348198D01*
X243166Y447000D02*
X254166Y447000D01*
X254166Y442000D01*
X243166Y442000D01*
X243166Y447000D01*
X243166Y446750D02*
X254166Y446750D01*
X476242Y322743D02*
X487242Y322743D01*
X487242Y317743D01*
X476242Y317743D01*
X476242Y322743D01*
X476242Y322493D02*
X487242Y322493D01*
D17*
X428802Y489302D03*
X511402Y346202D03*
X428802Y203102D03*
X263602Y203102D03*
X181002Y346202D03*
X263602Y489302D03*
X470102Y417702D03*
X470102Y274702D03*
X346202Y203102D03*
X222302Y274702D03*
X222302Y417702D03*
D15*
X371230Y419100D03*
X388230Y419100D03*
D18*
X368985Y482600D03*
X387985Y482600D03*
D10*
X422030Y430530D03*
X439030Y430530D03*
D19*
X295275Y443230D02*
X295275Y458470D01*
X320675Y458470D02*
X320675Y443230D01*
X346075Y443230D02*
X346075Y458470D01*
X371475Y458470D02*
X371475Y443230D01*
X396875Y443230D02*
X396875Y458470D01*
D20*
X289560Y231140D03*
D21*
X461010Y359020D02*
X463324Y361334D01*
X463324Y365760D01*
D20*
X463324Y365760D03*
X485366Y365760D03*
X339725Y362585D03*
X401320Y232410D03*
D21*
X380702Y373702D02*
X373702Y380702D01*
D22*
X294910Y305460D02*
X275590Y305460D01*
X294910Y305460D02*
X295910Y306460D01*
D21*
X318702Y309162D02*
X318702Y311702D01*
X318702Y309162D02*
X316000Y306460D01*
X295910Y306460D01*
X373702Y380702D02*
X373702Y382982D01*
D22*
X388230Y397510D02*
X388230Y398780D01*
D21*
X388230Y397510D02*
X373702Y382982D01*
X396240Y381880D02*
X396240Y381620D01*
X388322Y373702D01*
X380702Y373702D01*
D22*
X295640Y390500D02*
X275590Y390500D01*
X295640Y390500D02*
X295910Y390770D01*
D21*
X311702Y374978D02*
X311702Y373702D01*
X311702Y374978D02*
X295910Y390770D01*
D22*
X388230Y397510D02*
X398780Y397510D01*
D20*
X398780Y397510D03*
D22*
X275590Y390500D02*
X263500Y390500D01*
X262890Y389890D01*
D20*
X262890Y389890D03*
D22*
X263550Y305460D02*
X275590Y305460D01*
X263550Y305460D02*
X262890Y304800D01*
D20*
X262890Y304800D03*
D21*
X333702Y301952D02*
X333702Y311702D01*
X306050Y274300D02*
X251722Y274300D01*
X249182Y271760D01*
D20*
X249182Y271760D03*
D21*
X306050Y274300D02*
X333702Y301952D01*
D20*
X301625Y334266D03*
D21*
X311388Y344016D02*
X311702Y343702D01*
X311388Y344016D02*
X307565Y344016D01*
X301625Y338076D01*
X301625Y334266D01*
X328702Y311702D02*
X328702Y305842D01*
X303530Y280670D02*
X223520Y280670D01*
X303530Y280670D02*
X328702Y305842D01*
D22*
X222302Y279452D02*
X222302Y274702D01*
X222302Y279452D02*
X223520Y280670D01*
D21*
X311615Y348615D02*
X311702Y348702D01*
X311615Y348615D02*
X304575Y348615D01*
D20*
X290944Y334266D03*
D21*
X290944Y334984D02*
X304575Y348615D01*
X290944Y334984D02*
X290944Y334266D01*
D20*
X296545Y349885D03*
D21*
X300362Y353702D02*
X311702Y353702D01*
X300362Y353702D02*
X296545Y349885D01*
X380702Y333702D02*
X390588Y333702D01*
X417830Y306460D01*
D22*
X427990Y306460D01*
X439690Y306460D01*
D21*
X440690Y305460D01*
D20*
X427990Y300202D03*
D22*
X427990Y306460D01*
D20*
X271780Y417830D03*
D21*
X328698Y396741D02*
X328698Y380706D01*
X328702Y380702D01*
X328698Y396741D02*
X307609Y417830D01*
X271780Y417830D01*
X333715Y401282D02*
X333715Y380715D01*
X333702Y380702D01*
X333715Y401282D02*
X310135Y424862D01*
X229289Y424862D01*
X222302Y417875D01*
X222302Y417702D01*
X381016Y353388D02*
X400868Y353388D01*
X381016Y353388D02*
X380702Y353702D01*
X410490Y363010D02*
X418305Y363010D01*
X410490Y363010D02*
X400868Y353388D01*
X400598Y348702D02*
X380702Y348702D01*
X410290Y339010D02*
X418305Y339010D01*
X410290Y339010D02*
X400598Y348702D01*
X354330Y395360D02*
X353702Y394732D01*
X353702Y380702D01*
X354330Y395360D02*
X349250Y395360D01*
X312810Y431800D01*
X261366Y431800D02*
X258953Y434213D01*
D22*
X248666Y444500D01*
D21*
X261366Y431800D02*
X312810Y431800D01*
D20*
X258953Y434213D03*
D21*
X407608Y332946D02*
X428196Y332946D01*
X396852Y343702D02*
X380702Y343702D01*
X396852Y343702D02*
X407608Y332946D01*
X440690Y345440D02*
X448934Y345440D01*
D20*
X448934Y345440D03*
D21*
X440690Y345440D02*
X428196Y332946D01*
X440690Y342020D02*
X440690Y345440D01*
D20*
X481330Y309880D03*
D22*
X481330Y319832D01*
X481742Y320243D01*
D21*
X393421Y338702D02*
X380702Y338702D01*
X393421Y338702D02*
X408606Y323516D01*
X417774Y323516D02*
X417830Y323460D01*
X417774Y323516D02*
X408606Y323516D01*
X439690Y323460D02*
X440690Y324460D01*
D22*
X439690Y323460D02*
X417830Y323460D01*
X441960Y324460D02*
X459520Y342020D01*
X441960Y324460D02*
X440690Y324460D01*
X459520Y342020D02*
X461010Y342020D01*
D21*
X381972Y318702D02*
X380702Y318702D01*
X381972Y318702D02*
X389890Y310784D01*
X389890Y295910D01*
X403860Y281940D01*
X439886Y281940D02*
X440919Y280907D01*
D20*
X440919Y280907D03*
D21*
X439886Y281940D02*
X403860Y281940D01*
X368702Y311702D02*
X368702Y220158D01*
X371249Y217611D01*
D20*
X371249Y217611D03*
D21*
X384556Y308468D02*
X381322Y311702D01*
X373702Y311702D01*
X384556Y308468D02*
X384556Y292957D01*
X403181Y274331D01*
X452120Y274331D01*
D22*
X452491Y274702D01*
X470102Y274702D01*
D21*
X363702Y311702D02*
X363702Y220602D01*
X351585Y208485D01*
D22*
X346202Y203102D01*
D21*
X380706Y328698D02*
X380702Y328702D01*
X380706Y328698D02*
X387851Y328698D01*
X448077Y293626D02*
X457334Y302883D01*
X457334Y321444D01*
X399876Y316673D02*
X399876Y303613D01*
X399876Y316673D02*
X387851Y328698D01*
X399876Y303613D02*
X409863Y293626D01*
X448077Y293626D01*
X471170Y382270D02*
X462280Y391160D01*
D20*
X462280Y391160D03*
D21*
X471170Y335280D02*
X457334Y321444D01*
X471170Y335280D02*
X471170Y382270D01*
X385311Y323698D02*
X380706Y323698D01*
X380702Y323702D01*
X385311Y323698D02*
X394970Y314039D01*
X462668Y317888D02*
X462668Y301199D01*
X449759Y288290D01*
X394970Y299720D02*
X394970Y314039D01*
X394970Y299720D02*
X406400Y288290D01*
X449759Y288290D01*
X477520Y410284D02*
X470102Y417702D01*
X477520Y332740D02*
X462668Y317888D01*
X477520Y332740D02*
X477520Y410284D01*
X318702Y397578D02*
X318702Y380702D01*
X318702Y397578D02*
X306070Y410210D01*
X264160Y410210D01*
X228092Y374142D02*
X228092Y356870D01*
X228092Y345948D01*
X228092Y374142D02*
X264160Y410210D01*
D20*
X228092Y356870D03*
X285186Y349814D03*
D21*
X311401Y358401D02*
X311702Y358702D01*
X285269Y349814D02*
X285186Y349814D01*
X293856Y358401D02*
X311401Y358401D01*
X293856Y358401D02*
X285269Y349814D01*
X288863Y363702D02*
X311702Y363702D01*
X288863Y363702D02*
X245201Y320040D01*
X245110Y320040D01*
X228600Y320040D01*
X228092Y320548D01*
D20*
X245110Y320040D03*
D22*
X295275Y450850D02*
X295275Y454660D01*
X323215Y482600D01*
X368985Y482600D01*
X371230Y419520D02*
X371230Y419100D01*
X371230Y419520D02*
X368818Y421932D01*
X349593Y421932D01*
X320675Y450850D01*
D20*
X379730Y429260D03*
D22*
X379340Y428870D01*
X377190Y428870D01*
X371230Y422910D01*
X371230Y419100D01*
D20*
X433315Y417195D03*
D22*
X438395Y429895D02*
X439030Y430530D01*
X438395Y429895D02*
X438395Y422275D01*
X433315Y417195D01*
X389500Y419100D02*
X388230Y419100D01*
X391405Y417195D02*
X433315Y417195D01*
X391405Y417195D02*
X389500Y419100D01*
X422030Y430530D02*
X422030Y452365D01*
X391795Y482600D01*
X387985Y482600D01*
D20*
X356870Y298450D03*
D21*
X348706Y311698D02*
X348702Y311702D01*
X348706Y311698D02*
X348706Y308363D01*
X356870Y300199D02*
X356870Y298450D01*
X356870Y300199D02*
X348706Y308363D01*
D20*
X345440Y298450D03*
D21*
X343702Y300188D02*
X343702Y311702D01*
X343702Y300188D02*
X345440Y298450D01*
M02*
