G04 EAGLE Gerber RS-274X export*
G75*
%MOMM*%
%FSLAX34Y34*%
%LPD*%
%INSilkscreen Top*%
%IPPOS*%
%AMOC8*
5,1,8,0,0,1.08239X$1,22.5*%
G01*
%ADD10C,0.101600*%
%ADD11C,0.152400*%
%ADD12R,0.014731X0.014731*%
%ADD13R,0.147319X0.014731*%
%ADD14R,0.265175X0.014731*%
%ADD15R,0.383031X0.014731*%
%ADD16R,0.515619X0.014731*%
%ADD17R,0.633475X0.014731*%
%ADD18R,0.751331X0.014731*%
%ADD19R,0.883919X0.014731*%
%ADD20R,1.001775X0.014731*%
%ADD21R,1.119631X0.014731*%
%ADD22R,1.134363X0.014731*%
%ADD23R,1.149094X0.014731*%
%ADD24R,1.163825X0.014731*%
%ADD25R,1.178556X0.014731*%
%ADD26R,1.193288X0.014731*%
%ADD27R,1.222756X0.014731*%
%ADD28R,1.237488X0.014731*%
%ADD29R,1.266950X0.014731*%
%ADD30R,1.281681X0.014731*%
%ADD31R,1.311144X0.014731*%
%ADD32R,1.325881X0.014731*%
%ADD33R,1.355344X0.014731*%
%ADD34R,1.370075X0.014731*%
%ADD35R,1.384806X0.014731*%
%ADD36R,1.399538X0.014731*%
%ADD37R,1.414275X0.014731*%
%ADD38R,1.443738X0.014731*%
%ADD39R,1.458469X0.014731*%
%ADD40R,1.487931X0.014731*%
%ADD41R,1.502663X0.014731*%
%ADD42R,1.517394X0.014731*%
%ADD43R,1.532125X0.014731*%
%ADD44R,1.546856X0.014731*%
%ADD45R,1.576319X0.014731*%
%ADD46R,1.605788X0.014731*%
%ADD47R,1.620519X0.014731*%
%ADD48R,1.649981X0.014731*%
%ADD49R,1.664713X0.014731*%
%ADD50R,1.694175X0.014731*%
%ADD51R,1.708913X0.014731*%
%ADD52R,1.738375X0.014731*%
%ADD53R,1.753106X0.014731*%
%ADD54R,1.767838X0.014731*%
%ADD55R,1.782569X0.014731*%
%ADD56R,1.797306X0.014731*%
%ADD57R,0.117856X0.014731*%
%ADD58R,1.826769X0.014731*%
%ADD59R,0.235713X0.014731*%
%ADD60R,0.353569X0.014731*%
%ADD61R,1.856231X0.014731*%
%ADD62R,0.486156X0.014731*%
%ADD63R,1.870963X0.014731*%
%ADD64R,0.604013X0.014731*%
%ADD65R,0.721869X0.014731*%
%ADD66R,1.885694X0.014731*%
%ADD67R,0.839719X0.014731*%
%ADD68R,0.972306X0.014731*%
%ADD69R,1.090169X0.014731*%
%ADD70R,1.208025X0.014731*%
%ADD71R,1.252219X0.014731*%
%ADD72R,1.296412X0.014731*%
%ADD73R,1.340612X0.014731*%
%ADD74R,1.826763X0.014731*%
%ADD75R,1.414269X0.014731*%
%ADD76R,1.812031X0.014731*%
%ADD77R,1.429000X0.014731*%
%ADD78R,1.458462X0.014731*%
%ADD79R,1.473200X0.014731*%
%ADD80R,1.723644X0.014731*%
%ADD81R,1.694181X0.014731*%
%ADD82R,1.679450X0.014731*%
%ADD83R,1.561594X0.014731*%
%ADD84R,1.576325X0.014731*%
%ADD85R,1.591056X0.014731*%
%ADD86R,1.635250X0.014731*%
%ADD87R,1.561588X0.014731*%
%ADD88R,1.443731X0.014731*%
%ADD89R,1.797300X0.014731*%
%ADD90R,1.841500X0.014731*%
%ADD91R,1.311150X0.014731*%
%ADD92R,1.296419X0.014731*%
%ADD93R,1.193294X0.014731*%
%ADD94R,0.957575X0.014731*%
%ADD95R,0.589281X0.014731*%
%ADD96R,0.471425X0.014731*%
%ADD97R,0.220975X0.014731*%
%ADD98R,1.812038X0.014731*%
%ADD99R,0.103119X0.014731*%
%ADD100R,0.029463X0.014731*%
%ADD101R,0.162050X0.014731*%
%ADD102R,0.397763X0.014731*%
%ADD103R,0.648206X0.014731*%
%ADD104R,1.679444X0.014731*%
%ADD105R,1.016506X0.014731*%
%ADD106R,1.104900X0.014731*%
%ADD107R,1.222750X0.014731*%
%ADD108R,1.429006X0.014731*%
%ADD109R,1.208019X0.014731*%
%ADD110R,0.987044X0.014731*%
%ADD111R,0.854456X0.014731*%
%ADD112R,0.618744X0.014731*%
%ADD113R,0.500888X0.014731*%
%ADD114R,0.368300X0.014731*%
%ADD115R,0.132587X0.014731*%
%ADD116R,1.664719X0.014731*%
%ADD117R,1.075438X0.014731*%
%ADD118R,0.942844X0.014731*%
%ADD119R,0.707131X0.014731*%
%ADD120R,0.456694X0.014731*%
%ADD121R,0.088388X0.014731*%
%ADD122C,0.050800*%
%ADD123C,0.127000*%
%ADD124C,0.076200*%
%ADD125C,0.200000*%
%ADD126C,0.762000*%
%ADD127R,0.762000X0.508000*%
%ADD128R,0.762000X1.016000*%


D10*
X412318Y469182D02*
X414976Y467320D01*
X415070Y467257D01*
X415166Y467197D01*
X415264Y467140D01*
X415364Y467087D01*
X415466Y467037D01*
X415570Y466991D01*
X415675Y466949D01*
X415781Y466910D01*
X415889Y466875D01*
X415998Y466844D01*
X416108Y466816D01*
X416219Y466793D01*
X416330Y466773D01*
X416442Y466757D01*
X416555Y466745D01*
X416668Y466737D01*
X416781Y466733D01*
X416895Y466733D01*
X417008Y466737D01*
X417121Y466745D01*
X417234Y466757D01*
X417346Y466773D01*
X417457Y466793D01*
X417568Y466816D01*
X417678Y466844D01*
X417787Y466875D01*
X417895Y466910D01*
X418001Y466949D01*
X418106Y466991D01*
X418210Y467037D01*
X418312Y467087D01*
X418412Y467140D01*
X418510Y467197D01*
X418606Y467257D01*
X418700Y467320D01*
X418791Y467387D01*
X418881Y467456D01*
X418968Y467529D01*
X419052Y467605D01*
X419133Y467684D01*
X419212Y467765D01*
X419288Y467849D01*
X419361Y467936D01*
X419430Y468026D01*
X419497Y468117D01*
X419560Y468211D01*
X419620Y468307D01*
X419677Y468405D01*
X419730Y468505D01*
X419780Y468607D01*
X419826Y468711D01*
X419868Y468816D01*
X419907Y468922D01*
X419942Y469030D01*
X419973Y469139D01*
X420001Y469249D01*
X420024Y469360D01*
X420044Y469471D01*
X420060Y469583D01*
X420072Y469696D01*
X420080Y469809D01*
X420084Y469922D01*
X420084Y470036D01*
X420080Y470149D01*
X420072Y470262D01*
X420060Y470375D01*
X420044Y470487D01*
X420024Y470598D01*
X420001Y470709D01*
X419973Y470819D01*
X419942Y470928D01*
X419907Y471036D01*
X419868Y471142D01*
X419826Y471247D01*
X419780Y471351D01*
X419730Y471453D01*
X419677Y471553D01*
X419620Y471651D01*
X419560Y471747D01*
X419497Y471841D01*
X419430Y471932D01*
X419361Y472022D01*
X419288Y472109D01*
X419212Y472193D01*
X419133Y472274D01*
X419052Y472353D01*
X418968Y472429D01*
X418881Y472502D01*
X418792Y472571D01*
X418700Y472638D01*
X422210Y476519D02*
X419019Y478753D01*
X422209Y476519D02*
X422290Y476459D01*
X422369Y476397D01*
X422446Y476331D01*
X422520Y476263D01*
X422591Y476192D01*
X422659Y476118D01*
X422725Y476041D01*
X422787Y475962D01*
X422847Y475881D01*
X422903Y475797D01*
X422956Y475712D01*
X423005Y475624D01*
X423051Y475535D01*
X423094Y475443D01*
X423133Y475350D01*
X423168Y475256D01*
X423200Y475161D01*
X423228Y475064D01*
X423252Y474966D01*
X423272Y474868D01*
X423289Y474768D01*
X423301Y474668D01*
X423310Y474568D01*
X423315Y474468D01*
X423316Y474367D01*
X423313Y474266D01*
X423306Y474166D01*
X423295Y474066D01*
X423281Y473966D01*
X423262Y473867D01*
X423240Y473769D01*
X423214Y473672D01*
X423184Y473575D01*
X423151Y473481D01*
X423114Y473387D01*
X423073Y473295D01*
X423028Y473204D01*
X422981Y473116D01*
X422929Y473029D01*
X422875Y472945D01*
X422817Y472862D01*
X422756Y472782D01*
X422692Y472704D01*
X422625Y472629D01*
X422556Y472556D01*
X422483Y472487D01*
X422408Y472420D01*
X422330Y472356D01*
X422250Y472295D01*
X422167Y472237D01*
X422083Y472183D01*
X421996Y472131D01*
X421908Y472084D01*
X421817Y472039D01*
X421725Y471998D01*
X421631Y471961D01*
X421537Y471928D01*
X421440Y471898D01*
X421343Y471872D01*
X421245Y471850D01*
X421146Y471831D01*
X421046Y471817D01*
X420946Y471806D01*
X420846Y471799D01*
X420745Y471796D01*
X420644Y471797D01*
X420544Y471802D01*
X420444Y471811D01*
X420344Y471823D01*
X420244Y471840D01*
X420146Y471860D01*
X420048Y471884D01*
X419951Y471912D01*
X419856Y471944D01*
X419762Y471979D01*
X419669Y472018D01*
X419577Y472061D01*
X419488Y472107D01*
X419400Y472156D01*
X419315Y472209D01*
X419231Y472265D01*
X417104Y473755D01*
X427850Y472569D02*
X424339Y460764D01*
X434231Y468102D01*
X431043Y456070D02*
X433702Y454208D01*
X433796Y454145D01*
X433892Y454085D01*
X433990Y454028D01*
X434090Y453975D01*
X434192Y453925D01*
X434296Y453879D01*
X434401Y453837D01*
X434507Y453798D01*
X434615Y453763D01*
X434724Y453732D01*
X434834Y453704D01*
X434945Y453681D01*
X435056Y453661D01*
X435168Y453645D01*
X435281Y453633D01*
X435394Y453625D01*
X435507Y453621D01*
X435621Y453621D01*
X435734Y453625D01*
X435847Y453633D01*
X435960Y453645D01*
X436072Y453661D01*
X436183Y453681D01*
X436294Y453704D01*
X436404Y453732D01*
X436513Y453763D01*
X436621Y453798D01*
X436727Y453837D01*
X436832Y453879D01*
X436936Y453925D01*
X437038Y453975D01*
X437138Y454028D01*
X437236Y454085D01*
X437332Y454145D01*
X437426Y454208D01*
X437517Y454275D01*
X437607Y454344D01*
X437694Y454417D01*
X437778Y454493D01*
X437859Y454572D01*
X437938Y454653D01*
X438014Y454737D01*
X438087Y454824D01*
X438156Y454914D01*
X438223Y455005D01*
X438286Y455099D01*
X438346Y455195D01*
X438403Y455293D01*
X438456Y455393D01*
X438506Y455495D01*
X438552Y455599D01*
X438594Y455704D01*
X438633Y455810D01*
X438668Y455918D01*
X438699Y456027D01*
X438727Y456137D01*
X438750Y456248D01*
X438770Y456359D01*
X438786Y456471D01*
X438798Y456584D01*
X438806Y456697D01*
X438810Y456810D01*
X438810Y456924D01*
X438806Y457037D01*
X438798Y457150D01*
X438786Y457263D01*
X438770Y457375D01*
X438750Y457486D01*
X438727Y457597D01*
X438699Y457707D01*
X438668Y457816D01*
X438633Y457924D01*
X438594Y458030D01*
X438552Y458135D01*
X438506Y458239D01*
X438456Y458341D01*
X438403Y458441D01*
X438346Y458539D01*
X438286Y458635D01*
X438223Y458729D01*
X438156Y458820D01*
X438087Y458910D01*
X438014Y458997D01*
X437938Y459081D01*
X437859Y459162D01*
X437778Y459241D01*
X437694Y459317D01*
X437607Y459390D01*
X437518Y459459D01*
X437426Y459526D01*
X440935Y463407D02*
X437745Y465641D01*
X440935Y463407D02*
X441016Y463347D01*
X441095Y463285D01*
X441172Y463219D01*
X441246Y463151D01*
X441317Y463080D01*
X441385Y463006D01*
X441451Y462929D01*
X441513Y462850D01*
X441573Y462769D01*
X441629Y462685D01*
X441682Y462600D01*
X441731Y462512D01*
X441777Y462423D01*
X441820Y462331D01*
X441859Y462238D01*
X441894Y462144D01*
X441926Y462049D01*
X441954Y461952D01*
X441978Y461854D01*
X441998Y461756D01*
X442015Y461656D01*
X442027Y461556D01*
X442036Y461456D01*
X442041Y461356D01*
X442042Y461255D01*
X442039Y461154D01*
X442032Y461054D01*
X442021Y460954D01*
X442007Y460854D01*
X441988Y460755D01*
X441966Y460657D01*
X441940Y460560D01*
X441910Y460463D01*
X441877Y460369D01*
X441840Y460275D01*
X441799Y460183D01*
X441754Y460092D01*
X441707Y460004D01*
X441655Y459917D01*
X441601Y459833D01*
X441543Y459750D01*
X441482Y459670D01*
X441418Y459592D01*
X441351Y459517D01*
X441282Y459444D01*
X441209Y459375D01*
X441134Y459308D01*
X441056Y459244D01*
X440976Y459183D01*
X440893Y459125D01*
X440809Y459071D01*
X440722Y459019D01*
X440634Y458972D01*
X440543Y458927D01*
X440451Y458886D01*
X440357Y458849D01*
X440263Y458816D01*
X440166Y458786D01*
X440069Y458760D01*
X439971Y458738D01*
X439872Y458719D01*
X439772Y458705D01*
X439672Y458694D01*
X439572Y458687D01*
X439471Y458684D01*
X439370Y458685D01*
X439270Y458690D01*
X439170Y458699D01*
X439070Y458711D01*
X438970Y458728D01*
X438872Y458748D01*
X438774Y458772D01*
X438677Y458800D01*
X438582Y458832D01*
X438488Y458867D01*
X438395Y458906D01*
X438303Y458949D01*
X438214Y458995D01*
X438126Y459044D01*
X438041Y459097D01*
X437957Y459153D01*
X435830Y460643D01*
X497242Y334770D02*
X497242Y331524D01*
X497242Y334770D02*
X497240Y334883D01*
X497234Y334996D01*
X497224Y335109D01*
X497210Y335222D01*
X497193Y335334D01*
X497171Y335445D01*
X497146Y335555D01*
X497116Y335665D01*
X497083Y335773D01*
X497046Y335880D01*
X497006Y335986D01*
X496961Y336090D01*
X496913Y336193D01*
X496862Y336294D01*
X496807Y336393D01*
X496749Y336490D01*
X496687Y336585D01*
X496622Y336678D01*
X496554Y336768D01*
X496483Y336856D01*
X496408Y336942D01*
X496331Y337025D01*
X496251Y337105D01*
X496168Y337182D01*
X496082Y337257D01*
X495994Y337328D01*
X495904Y337396D01*
X495811Y337461D01*
X495716Y337523D01*
X495619Y337581D01*
X495520Y337636D01*
X495419Y337687D01*
X495316Y337735D01*
X495212Y337780D01*
X495106Y337820D01*
X494999Y337857D01*
X494891Y337890D01*
X494781Y337920D01*
X494671Y337945D01*
X494560Y337967D01*
X494448Y337984D01*
X494335Y337998D01*
X494222Y338008D01*
X494109Y338014D01*
X493996Y338016D01*
X493883Y338014D01*
X493770Y338008D01*
X493657Y337998D01*
X493544Y337984D01*
X493432Y337967D01*
X493321Y337945D01*
X493211Y337920D01*
X493101Y337890D01*
X492993Y337857D01*
X492886Y337820D01*
X492780Y337780D01*
X492676Y337735D01*
X492573Y337687D01*
X492472Y337636D01*
X492373Y337581D01*
X492276Y337523D01*
X492181Y337461D01*
X492088Y337396D01*
X491998Y337328D01*
X491910Y337257D01*
X491824Y337182D01*
X491741Y337105D01*
X491661Y337025D01*
X491584Y336942D01*
X491509Y336856D01*
X491438Y336768D01*
X491370Y336678D01*
X491305Y336585D01*
X491243Y336490D01*
X491185Y336393D01*
X491130Y336294D01*
X491079Y336193D01*
X491031Y336090D01*
X490986Y335986D01*
X490946Y335880D01*
X490909Y335773D01*
X490876Y335665D01*
X490846Y335555D01*
X490821Y335445D01*
X490799Y335334D01*
X490782Y335222D01*
X490768Y335109D01*
X490758Y334996D01*
X490752Y334883D01*
X490750Y334770D01*
X485558Y335419D02*
X485558Y331524D01*
X485558Y335419D02*
X485560Y335520D01*
X485566Y335620D01*
X485576Y335720D01*
X485589Y335820D01*
X485607Y335919D01*
X485628Y336018D01*
X485653Y336115D01*
X485682Y336212D01*
X485715Y336307D01*
X485751Y336401D01*
X485791Y336493D01*
X485834Y336584D01*
X485881Y336673D01*
X485931Y336760D01*
X485985Y336846D01*
X486042Y336929D01*
X486102Y337009D01*
X486165Y337088D01*
X486232Y337164D01*
X486301Y337237D01*
X486373Y337307D01*
X486447Y337375D01*
X486524Y337440D01*
X486604Y337501D01*
X486686Y337560D01*
X486770Y337615D01*
X486856Y337667D01*
X486944Y337716D01*
X487034Y337761D01*
X487126Y337803D01*
X487219Y337841D01*
X487314Y337875D01*
X487409Y337906D01*
X487506Y337933D01*
X487604Y337956D01*
X487703Y337976D01*
X487803Y337991D01*
X487903Y338003D01*
X488003Y338011D01*
X488104Y338015D01*
X488204Y338015D01*
X488305Y338011D01*
X488405Y338003D01*
X488505Y337991D01*
X488605Y337976D01*
X488704Y337956D01*
X488802Y337933D01*
X488899Y337906D01*
X488994Y337875D01*
X489089Y337841D01*
X489182Y337803D01*
X489274Y337761D01*
X489364Y337716D01*
X489452Y337667D01*
X489538Y337615D01*
X489622Y337560D01*
X489704Y337501D01*
X489784Y337440D01*
X489861Y337375D01*
X489935Y337307D01*
X490007Y337237D01*
X490076Y337164D01*
X490143Y337088D01*
X490206Y337009D01*
X490266Y336929D01*
X490323Y336846D01*
X490377Y336760D01*
X490427Y336673D01*
X490474Y336584D01*
X490517Y336493D01*
X490557Y336401D01*
X490593Y336307D01*
X490626Y336212D01*
X490655Y336115D01*
X490680Y336018D01*
X490701Y335919D01*
X490719Y335820D01*
X490732Y335720D01*
X490742Y335620D01*
X490748Y335520D01*
X490750Y335419D01*
X490751Y335419D02*
X490751Y332823D01*
X485558Y342305D02*
X497242Y346200D01*
X485558Y350095D01*
X497242Y354384D02*
X497242Y357630D01*
X497240Y357743D01*
X497234Y357856D01*
X497224Y357969D01*
X497210Y358082D01*
X497193Y358194D01*
X497171Y358305D01*
X497146Y358415D01*
X497116Y358525D01*
X497083Y358633D01*
X497046Y358740D01*
X497006Y358846D01*
X496961Y358950D01*
X496913Y359053D01*
X496862Y359154D01*
X496807Y359253D01*
X496749Y359350D01*
X496687Y359445D01*
X496622Y359538D01*
X496554Y359628D01*
X496483Y359716D01*
X496408Y359802D01*
X496331Y359885D01*
X496251Y359965D01*
X496168Y360042D01*
X496082Y360117D01*
X495994Y360188D01*
X495904Y360256D01*
X495811Y360321D01*
X495716Y360383D01*
X495619Y360441D01*
X495520Y360496D01*
X495419Y360547D01*
X495316Y360595D01*
X495212Y360640D01*
X495106Y360680D01*
X494999Y360717D01*
X494891Y360750D01*
X494781Y360780D01*
X494671Y360805D01*
X494560Y360827D01*
X494448Y360844D01*
X494335Y360858D01*
X494222Y360868D01*
X494109Y360874D01*
X493996Y360876D01*
X493883Y360874D01*
X493770Y360868D01*
X493657Y360858D01*
X493544Y360844D01*
X493432Y360827D01*
X493321Y360805D01*
X493211Y360780D01*
X493101Y360750D01*
X492993Y360717D01*
X492886Y360680D01*
X492780Y360640D01*
X492676Y360595D01*
X492573Y360547D01*
X492472Y360496D01*
X492373Y360441D01*
X492276Y360383D01*
X492181Y360321D01*
X492088Y360256D01*
X491998Y360188D01*
X491910Y360117D01*
X491824Y360042D01*
X491741Y359965D01*
X491661Y359885D01*
X491584Y359802D01*
X491509Y359716D01*
X491438Y359628D01*
X491370Y359538D01*
X491305Y359445D01*
X491243Y359350D01*
X491185Y359253D01*
X491130Y359154D01*
X491079Y359053D01*
X491031Y358950D01*
X490986Y358846D01*
X490946Y358740D01*
X490909Y358633D01*
X490876Y358525D01*
X490846Y358415D01*
X490821Y358305D01*
X490799Y358194D01*
X490782Y358082D01*
X490768Y357969D01*
X490758Y357856D01*
X490752Y357743D01*
X490750Y357630D01*
X485558Y358279D02*
X485558Y354384D01*
X485558Y358279D02*
X485560Y358380D01*
X485566Y358480D01*
X485576Y358580D01*
X485589Y358680D01*
X485607Y358779D01*
X485628Y358878D01*
X485653Y358975D01*
X485682Y359072D01*
X485715Y359167D01*
X485751Y359261D01*
X485791Y359353D01*
X485834Y359444D01*
X485881Y359533D01*
X485931Y359620D01*
X485985Y359706D01*
X486042Y359789D01*
X486102Y359869D01*
X486165Y359948D01*
X486232Y360024D01*
X486301Y360097D01*
X486373Y360167D01*
X486447Y360235D01*
X486524Y360300D01*
X486604Y360361D01*
X486686Y360420D01*
X486770Y360475D01*
X486856Y360527D01*
X486944Y360576D01*
X487034Y360621D01*
X487126Y360663D01*
X487219Y360701D01*
X487314Y360735D01*
X487409Y360766D01*
X487506Y360793D01*
X487604Y360816D01*
X487703Y360836D01*
X487803Y360851D01*
X487903Y360863D01*
X488003Y360871D01*
X488104Y360875D01*
X488204Y360875D01*
X488305Y360871D01*
X488405Y360863D01*
X488505Y360851D01*
X488605Y360836D01*
X488704Y360816D01*
X488802Y360793D01*
X488899Y360766D01*
X488994Y360735D01*
X489089Y360701D01*
X489182Y360663D01*
X489274Y360621D01*
X489364Y360576D01*
X489452Y360527D01*
X489538Y360475D01*
X489622Y360420D01*
X489704Y360361D01*
X489784Y360300D01*
X489861Y360235D01*
X489935Y360167D01*
X490007Y360097D01*
X490076Y360024D01*
X490143Y359948D01*
X490206Y359869D01*
X490266Y359789D01*
X490323Y359706D01*
X490377Y359620D01*
X490427Y359533D01*
X490474Y359444D01*
X490517Y359353D01*
X490557Y359261D01*
X490593Y359167D01*
X490626Y359072D01*
X490655Y358975D01*
X490680Y358878D01*
X490701Y358779D01*
X490719Y358680D01*
X490732Y358580D01*
X490742Y358480D01*
X490748Y358380D01*
X490750Y358279D01*
X490751Y358279D02*
X490751Y355683D01*
X412788Y209159D02*
X410129Y207297D01*
X412788Y209158D02*
X412879Y209225D01*
X412969Y209294D01*
X413056Y209367D01*
X413140Y209443D01*
X413221Y209522D01*
X413300Y209603D01*
X413376Y209687D01*
X413449Y209774D01*
X413518Y209864D01*
X413585Y209955D01*
X413648Y210049D01*
X413708Y210145D01*
X413765Y210243D01*
X413818Y210343D01*
X413868Y210445D01*
X413914Y210549D01*
X413956Y210654D01*
X413995Y210760D01*
X414030Y210868D01*
X414061Y210977D01*
X414089Y211087D01*
X414112Y211198D01*
X414132Y211309D01*
X414148Y211421D01*
X414160Y211534D01*
X414168Y211647D01*
X414172Y211760D01*
X414172Y211874D01*
X414168Y211987D01*
X414160Y212100D01*
X414148Y212213D01*
X414132Y212325D01*
X414112Y212436D01*
X414089Y212547D01*
X414061Y212657D01*
X414030Y212766D01*
X413995Y212874D01*
X413956Y212980D01*
X413914Y213085D01*
X413868Y213189D01*
X413818Y213291D01*
X413765Y213391D01*
X413708Y213489D01*
X413648Y213585D01*
X413585Y213679D01*
X413518Y213770D01*
X413449Y213860D01*
X413376Y213947D01*
X413300Y214031D01*
X413221Y214112D01*
X413140Y214191D01*
X413056Y214267D01*
X412969Y214340D01*
X412880Y214409D01*
X412788Y214476D01*
X412694Y214539D01*
X412598Y214599D01*
X412500Y214656D01*
X412400Y214709D01*
X412298Y214759D01*
X412194Y214805D01*
X412089Y214847D01*
X411983Y214886D01*
X411875Y214921D01*
X411766Y214952D01*
X411656Y214980D01*
X411545Y215003D01*
X411434Y215023D01*
X411322Y215039D01*
X411209Y215051D01*
X411096Y215059D01*
X410983Y215063D01*
X410869Y215063D01*
X410756Y215059D01*
X410643Y215051D01*
X410530Y215039D01*
X410418Y215023D01*
X410307Y215003D01*
X410196Y214980D01*
X410086Y214952D01*
X409977Y214921D01*
X409869Y214886D01*
X409763Y214847D01*
X409658Y214805D01*
X409554Y214759D01*
X409452Y214709D01*
X409352Y214656D01*
X409254Y214599D01*
X409158Y214539D01*
X409064Y214476D01*
X406618Y219102D02*
X403428Y216868D01*
X406618Y219102D02*
X406702Y219158D01*
X406787Y219211D01*
X406875Y219260D01*
X406964Y219306D01*
X407056Y219349D01*
X407149Y219388D01*
X407243Y219423D01*
X407338Y219455D01*
X407435Y219483D01*
X407533Y219507D01*
X407631Y219527D01*
X407731Y219544D01*
X407831Y219556D01*
X407931Y219565D01*
X408032Y219570D01*
X408132Y219571D01*
X408233Y219568D01*
X408333Y219561D01*
X408433Y219550D01*
X408533Y219536D01*
X408632Y219517D01*
X408730Y219495D01*
X408827Y219469D01*
X408924Y219439D01*
X409019Y219406D01*
X409112Y219369D01*
X409204Y219328D01*
X409295Y219283D01*
X409383Y219236D01*
X409470Y219184D01*
X409554Y219130D01*
X409637Y219072D01*
X409717Y219011D01*
X409795Y218947D01*
X409870Y218880D01*
X409943Y218811D01*
X410012Y218738D01*
X410079Y218663D01*
X410143Y218585D01*
X410204Y218505D01*
X410262Y218422D01*
X410316Y218338D01*
X410368Y218251D01*
X410415Y218163D01*
X410460Y218072D01*
X410501Y217980D01*
X410538Y217886D01*
X410571Y217792D01*
X410601Y217695D01*
X410627Y217598D01*
X410649Y217500D01*
X410668Y217401D01*
X410682Y217301D01*
X410693Y217201D01*
X410700Y217101D01*
X410703Y217000D01*
X410702Y216900D01*
X410697Y216799D01*
X410688Y216699D01*
X410676Y216599D01*
X410659Y216499D01*
X410639Y216401D01*
X410615Y216303D01*
X410587Y216206D01*
X410555Y216111D01*
X410520Y216017D01*
X410481Y215924D01*
X410438Y215832D01*
X410392Y215743D01*
X410343Y215655D01*
X410290Y215570D01*
X410234Y215486D01*
X410174Y215405D01*
X410112Y215326D01*
X410046Y215249D01*
X409978Y215175D01*
X409907Y215104D01*
X409833Y215036D01*
X409756Y214970D01*
X409677Y214908D01*
X409596Y214848D01*
X407470Y213359D01*
X412259Y223052D02*
X422151Y215714D01*
X418639Y227519D01*
X428855Y220409D02*
X431514Y222270D01*
X431605Y222337D01*
X431695Y222406D01*
X431782Y222479D01*
X431866Y222555D01*
X431947Y222634D01*
X432026Y222715D01*
X432102Y222799D01*
X432175Y222886D01*
X432244Y222976D01*
X432311Y223067D01*
X432374Y223161D01*
X432434Y223257D01*
X432491Y223355D01*
X432544Y223455D01*
X432594Y223557D01*
X432640Y223661D01*
X432682Y223766D01*
X432721Y223872D01*
X432756Y223980D01*
X432787Y224089D01*
X432815Y224199D01*
X432838Y224310D01*
X432858Y224421D01*
X432874Y224533D01*
X432886Y224646D01*
X432894Y224759D01*
X432898Y224872D01*
X432898Y224986D01*
X432894Y225099D01*
X432886Y225212D01*
X432874Y225325D01*
X432858Y225437D01*
X432838Y225548D01*
X432815Y225659D01*
X432787Y225769D01*
X432756Y225878D01*
X432721Y225986D01*
X432682Y226092D01*
X432640Y226197D01*
X432594Y226301D01*
X432544Y226403D01*
X432491Y226503D01*
X432434Y226601D01*
X432374Y226697D01*
X432311Y226791D01*
X432244Y226882D01*
X432175Y226972D01*
X432102Y227059D01*
X432026Y227143D01*
X431947Y227224D01*
X431866Y227303D01*
X431782Y227379D01*
X431695Y227452D01*
X431606Y227521D01*
X431514Y227588D01*
X431420Y227651D01*
X431324Y227711D01*
X431226Y227768D01*
X431126Y227821D01*
X431024Y227871D01*
X430920Y227917D01*
X430815Y227959D01*
X430709Y227998D01*
X430601Y228033D01*
X430492Y228064D01*
X430382Y228092D01*
X430271Y228115D01*
X430160Y228135D01*
X430048Y228151D01*
X429935Y228163D01*
X429822Y228171D01*
X429709Y228175D01*
X429595Y228175D01*
X429482Y228171D01*
X429369Y228163D01*
X429256Y228151D01*
X429144Y228135D01*
X429033Y228115D01*
X428922Y228092D01*
X428812Y228064D01*
X428703Y228033D01*
X428595Y227998D01*
X428489Y227959D01*
X428384Y227917D01*
X428280Y227871D01*
X428178Y227821D01*
X428078Y227768D01*
X427980Y227711D01*
X427884Y227651D01*
X427790Y227588D01*
X425344Y232214D02*
X422153Y229980D01*
X425344Y232214D02*
X425428Y232270D01*
X425513Y232323D01*
X425601Y232372D01*
X425690Y232418D01*
X425782Y232461D01*
X425875Y232500D01*
X425969Y232535D01*
X426064Y232567D01*
X426161Y232595D01*
X426259Y232619D01*
X426357Y232639D01*
X426457Y232656D01*
X426557Y232668D01*
X426657Y232677D01*
X426758Y232682D01*
X426858Y232683D01*
X426959Y232680D01*
X427059Y232673D01*
X427159Y232662D01*
X427259Y232648D01*
X427358Y232629D01*
X427456Y232607D01*
X427553Y232581D01*
X427650Y232551D01*
X427745Y232518D01*
X427838Y232481D01*
X427930Y232440D01*
X428021Y232395D01*
X428109Y232348D01*
X428196Y232296D01*
X428280Y232242D01*
X428363Y232184D01*
X428443Y232123D01*
X428521Y232059D01*
X428596Y231992D01*
X428669Y231923D01*
X428738Y231850D01*
X428805Y231775D01*
X428869Y231697D01*
X428930Y231617D01*
X428988Y231534D01*
X429042Y231450D01*
X429094Y231363D01*
X429141Y231275D01*
X429186Y231184D01*
X429227Y231092D01*
X429264Y230998D01*
X429297Y230904D01*
X429327Y230807D01*
X429353Y230710D01*
X429375Y230612D01*
X429394Y230513D01*
X429408Y230413D01*
X429419Y230313D01*
X429426Y230213D01*
X429429Y230112D01*
X429428Y230012D01*
X429423Y229911D01*
X429414Y229811D01*
X429402Y229711D01*
X429385Y229611D01*
X429365Y229513D01*
X429341Y229415D01*
X429313Y229318D01*
X429281Y229223D01*
X429246Y229129D01*
X429207Y229036D01*
X429164Y228944D01*
X429118Y228855D01*
X429069Y228767D01*
X429016Y228682D01*
X428960Y228598D01*
X428900Y228517D01*
X428838Y228438D01*
X428772Y228361D01*
X428704Y228287D01*
X428633Y228216D01*
X428559Y228148D01*
X428482Y228082D01*
X428403Y228020D01*
X428322Y227960D01*
X426195Y226471D01*
X260886Y222270D02*
X258228Y224132D01*
X260886Y222270D02*
X260980Y222207D01*
X261076Y222147D01*
X261174Y222090D01*
X261274Y222037D01*
X261376Y221987D01*
X261480Y221941D01*
X261585Y221899D01*
X261691Y221860D01*
X261799Y221825D01*
X261908Y221794D01*
X262018Y221766D01*
X262129Y221743D01*
X262240Y221723D01*
X262352Y221707D01*
X262465Y221695D01*
X262578Y221687D01*
X262691Y221683D01*
X262805Y221683D01*
X262918Y221687D01*
X263031Y221695D01*
X263144Y221707D01*
X263256Y221723D01*
X263367Y221743D01*
X263478Y221766D01*
X263588Y221794D01*
X263697Y221825D01*
X263805Y221860D01*
X263911Y221899D01*
X264016Y221941D01*
X264120Y221987D01*
X264222Y222037D01*
X264322Y222090D01*
X264420Y222147D01*
X264516Y222207D01*
X264610Y222270D01*
X264701Y222337D01*
X264791Y222406D01*
X264878Y222479D01*
X264962Y222555D01*
X265043Y222634D01*
X265122Y222715D01*
X265198Y222799D01*
X265271Y222886D01*
X265340Y222976D01*
X265407Y223067D01*
X265470Y223161D01*
X265530Y223257D01*
X265587Y223355D01*
X265640Y223455D01*
X265690Y223557D01*
X265736Y223661D01*
X265778Y223766D01*
X265817Y223872D01*
X265852Y223980D01*
X265883Y224089D01*
X265911Y224199D01*
X265934Y224310D01*
X265954Y224421D01*
X265970Y224533D01*
X265982Y224646D01*
X265990Y224759D01*
X265994Y224872D01*
X265994Y224986D01*
X265990Y225099D01*
X265982Y225212D01*
X265970Y225325D01*
X265954Y225437D01*
X265934Y225548D01*
X265911Y225659D01*
X265883Y225769D01*
X265852Y225878D01*
X265817Y225986D01*
X265778Y226092D01*
X265736Y226197D01*
X265690Y226301D01*
X265640Y226403D01*
X265587Y226503D01*
X265530Y226601D01*
X265470Y226697D01*
X265407Y226791D01*
X265340Y226882D01*
X265271Y226972D01*
X265198Y227059D01*
X265122Y227143D01*
X265043Y227224D01*
X264962Y227303D01*
X264878Y227379D01*
X264791Y227452D01*
X264702Y227521D01*
X264610Y227588D01*
X268120Y231469D02*
X264929Y233703D01*
X268119Y231469D02*
X268200Y231409D01*
X268279Y231347D01*
X268356Y231281D01*
X268430Y231213D01*
X268501Y231142D01*
X268569Y231068D01*
X268635Y230991D01*
X268697Y230912D01*
X268757Y230831D01*
X268813Y230747D01*
X268866Y230662D01*
X268915Y230574D01*
X268961Y230485D01*
X269004Y230393D01*
X269043Y230300D01*
X269078Y230206D01*
X269110Y230111D01*
X269138Y230014D01*
X269162Y229916D01*
X269182Y229818D01*
X269199Y229718D01*
X269211Y229618D01*
X269220Y229518D01*
X269225Y229418D01*
X269226Y229317D01*
X269223Y229216D01*
X269216Y229116D01*
X269205Y229016D01*
X269191Y228916D01*
X269172Y228817D01*
X269150Y228719D01*
X269124Y228622D01*
X269094Y228525D01*
X269061Y228431D01*
X269024Y228337D01*
X268983Y228245D01*
X268938Y228154D01*
X268891Y228066D01*
X268839Y227979D01*
X268785Y227895D01*
X268727Y227812D01*
X268666Y227732D01*
X268602Y227654D01*
X268535Y227579D01*
X268466Y227506D01*
X268393Y227437D01*
X268318Y227370D01*
X268240Y227306D01*
X268160Y227245D01*
X268077Y227187D01*
X267993Y227133D01*
X267906Y227081D01*
X267818Y227034D01*
X267727Y226989D01*
X267635Y226948D01*
X267541Y226911D01*
X267447Y226878D01*
X267350Y226848D01*
X267253Y226822D01*
X267155Y226800D01*
X267056Y226781D01*
X266956Y226767D01*
X266856Y226756D01*
X266756Y226749D01*
X266655Y226746D01*
X266554Y226747D01*
X266454Y226752D01*
X266354Y226761D01*
X266254Y226773D01*
X266154Y226790D01*
X266056Y226810D01*
X265958Y226834D01*
X265861Y226862D01*
X265766Y226894D01*
X265672Y226929D01*
X265579Y226968D01*
X265487Y227011D01*
X265398Y227057D01*
X265310Y227106D01*
X265225Y227159D01*
X265141Y227215D01*
X263014Y228705D01*
X273760Y227519D02*
X270249Y215714D01*
X280141Y223052D01*
X276953Y211020D02*
X279612Y209158D01*
X279706Y209095D01*
X279802Y209035D01*
X279900Y208978D01*
X280000Y208925D01*
X280102Y208875D01*
X280206Y208829D01*
X280311Y208787D01*
X280417Y208748D01*
X280525Y208713D01*
X280634Y208682D01*
X280744Y208654D01*
X280855Y208631D01*
X280966Y208611D01*
X281078Y208595D01*
X281191Y208583D01*
X281304Y208575D01*
X281417Y208571D01*
X281531Y208571D01*
X281644Y208575D01*
X281757Y208583D01*
X281870Y208595D01*
X281982Y208611D01*
X282093Y208631D01*
X282204Y208654D01*
X282314Y208682D01*
X282423Y208713D01*
X282531Y208748D01*
X282637Y208787D01*
X282742Y208829D01*
X282846Y208875D01*
X282948Y208925D01*
X283048Y208978D01*
X283146Y209035D01*
X283242Y209095D01*
X283336Y209158D01*
X283427Y209225D01*
X283517Y209294D01*
X283604Y209367D01*
X283688Y209443D01*
X283769Y209522D01*
X283848Y209603D01*
X283924Y209687D01*
X283997Y209774D01*
X284066Y209864D01*
X284133Y209955D01*
X284196Y210049D01*
X284256Y210145D01*
X284313Y210243D01*
X284366Y210343D01*
X284416Y210445D01*
X284462Y210549D01*
X284504Y210654D01*
X284543Y210760D01*
X284578Y210868D01*
X284609Y210977D01*
X284637Y211087D01*
X284660Y211198D01*
X284680Y211309D01*
X284696Y211421D01*
X284708Y211534D01*
X284716Y211647D01*
X284720Y211760D01*
X284720Y211874D01*
X284716Y211987D01*
X284708Y212100D01*
X284696Y212213D01*
X284680Y212325D01*
X284660Y212436D01*
X284637Y212547D01*
X284609Y212657D01*
X284578Y212766D01*
X284543Y212874D01*
X284504Y212980D01*
X284462Y213085D01*
X284416Y213189D01*
X284366Y213291D01*
X284313Y213391D01*
X284256Y213489D01*
X284196Y213585D01*
X284133Y213679D01*
X284066Y213770D01*
X283997Y213860D01*
X283924Y213947D01*
X283848Y214031D01*
X283769Y214112D01*
X283688Y214191D01*
X283604Y214267D01*
X283517Y214340D01*
X283428Y214409D01*
X283336Y214476D01*
X286845Y218357D02*
X283655Y220591D01*
X286845Y218357D02*
X286926Y218297D01*
X287005Y218235D01*
X287082Y218169D01*
X287156Y218101D01*
X287227Y218030D01*
X287295Y217956D01*
X287361Y217879D01*
X287423Y217800D01*
X287483Y217719D01*
X287539Y217635D01*
X287592Y217550D01*
X287641Y217462D01*
X287687Y217373D01*
X287730Y217281D01*
X287769Y217188D01*
X287804Y217094D01*
X287836Y216999D01*
X287864Y216902D01*
X287888Y216804D01*
X287908Y216706D01*
X287925Y216606D01*
X287937Y216506D01*
X287946Y216406D01*
X287951Y216306D01*
X287952Y216205D01*
X287949Y216104D01*
X287942Y216004D01*
X287931Y215904D01*
X287917Y215804D01*
X287898Y215705D01*
X287876Y215607D01*
X287850Y215510D01*
X287820Y215413D01*
X287787Y215319D01*
X287750Y215225D01*
X287709Y215133D01*
X287664Y215042D01*
X287617Y214954D01*
X287565Y214867D01*
X287511Y214783D01*
X287453Y214700D01*
X287392Y214620D01*
X287328Y214542D01*
X287261Y214467D01*
X287192Y214394D01*
X287119Y214325D01*
X287044Y214258D01*
X286966Y214194D01*
X286886Y214133D01*
X286803Y214075D01*
X286719Y214021D01*
X286632Y213969D01*
X286544Y213922D01*
X286453Y213877D01*
X286361Y213836D01*
X286267Y213799D01*
X286173Y213766D01*
X286076Y213736D01*
X285979Y213710D01*
X285881Y213688D01*
X285782Y213669D01*
X285682Y213655D01*
X285582Y213644D01*
X285482Y213637D01*
X285381Y213634D01*
X285280Y213635D01*
X285180Y213640D01*
X285080Y213649D01*
X284980Y213661D01*
X284880Y213678D01*
X284782Y213698D01*
X284684Y213722D01*
X284587Y213750D01*
X284492Y213782D01*
X284398Y213817D01*
X284305Y213856D01*
X284213Y213899D01*
X284124Y213945D01*
X284036Y213994D01*
X283951Y214047D01*
X283867Y214103D01*
X281740Y215593D01*
X206842Y331524D02*
X206842Y334770D01*
X206840Y334883D01*
X206834Y334996D01*
X206824Y335109D01*
X206810Y335222D01*
X206793Y335334D01*
X206771Y335445D01*
X206746Y335555D01*
X206716Y335665D01*
X206683Y335773D01*
X206646Y335880D01*
X206606Y335986D01*
X206561Y336090D01*
X206513Y336193D01*
X206462Y336294D01*
X206407Y336393D01*
X206349Y336490D01*
X206287Y336585D01*
X206222Y336678D01*
X206154Y336768D01*
X206083Y336856D01*
X206008Y336942D01*
X205931Y337025D01*
X205851Y337105D01*
X205768Y337182D01*
X205682Y337257D01*
X205594Y337328D01*
X205504Y337396D01*
X205411Y337461D01*
X205316Y337523D01*
X205219Y337581D01*
X205120Y337636D01*
X205019Y337687D01*
X204916Y337735D01*
X204812Y337780D01*
X204706Y337820D01*
X204599Y337857D01*
X204491Y337890D01*
X204381Y337920D01*
X204271Y337945D01*
X204160Y337967D01*
X204048Y337984D01*
X203935Y337998D01*
X203822Y338008D01*
X203709Y338014D01*
X203596Y338016D01*
X203483Y338014D01*
X203370Y338008D01*
X203257Y337998D01*
X203144Y337984D01*
X203032Y337967D01*
X202921Y337945D01*
X202811Y337920D01*
X202701Y337890D01*
X202593Y337857D01*
X202486Y337820D01*
X202380Y337780D01*
X202276Y337735D01*
X202173Y337687D01*
X202072Y337636D01*
X201973Y337581D01*
X201876Y337523D01*
X201781Y337461D01*
X201688Y337396D01*
X201598Y337328D01*
X201510Y337257D01*
X201424Y337182D01*
X201341Y337105D01*
X201261Y337025D01*
X201184Y336942D01*
X201109Y336856D01*
X201038Y336768D01*
X200970Y336678D01*
X200905Y336585D01*
X200843Y336490D01*
X200785Y336393D01*
X200730Y336294D01*
X200679Y336193D01*
X200631Y336090D01*
X200586Y335986D01*
X200546Y335880D01*
X200509Y335773D01*
X200476Y335665D01*
X200446Y335555D01*
X200421Y335445D01*
X200399Y335334D01*
X200382Y335222D01*
X200368Y335109D01*
X200358Y334996D01*
X200352Y334883D01*
X200350Y334770D01*
X195158Y335419D02*
X195158Y331524D01*
X195158Y335419D02*
X195160Y335520D01*
X195166Y335620D01*
X195176Y335720D01*
X195189Y335820D01*
X195207Y335919D01*
X195228Y336018D01*
X195253Y336115D01*
X195282Y336212D01*
X195315Y336307D01*
X195351Y336401D01*
X195391Y336493D01*
X195434Y336584D01*
X195481Y336673D01*
X195531Y336760D01*
X195585Y336846D01*
X195642Y336929D01*
X195702Y337009D01*
X195765Y337088D01*
X195832Y337164D01*
X195901Y337237D01*
X195973Y337307D01*
X196047Y337375D01*
X196124Y337440D01*
X196204Y337501D01*
X196286Y337560D01*
X196370Y337615D01*
X196456Y337667D01*
X196544Y337716D01*
X196634Y337761D01*
X196726Y337803D01*
X196819Y337841D01*
X196914Y337875D01*
X197009Y337906D01*
X197106Y337933D01*
X197204Y337956D01*
X197303Y337976D01*
X197403Y337991D01*
X197503Y338003D01*
X197603Y338011D01*
X197704Y338015D01*
X197804Y338015D01*
X197905Y338011D01*
X198005Y338003D01*
X198105Y337991D01*
X198205Y337976D01*
X198304Y337956D01*
X198402Y337933D01*
X198499Y337906D01*
X198594Y337875D01*
X198689Y337841D01*
X198782Y337803D01*
X198874Y337761D01*
X198964Y337716D01*
X199052Y337667D01*
X199138Y337615D01*
X199222Y337560D01*
X199304Y337501D01*
X199384Y337440D01*
X199461Y337375D01*
X199535Y337307D01*
X199607Y337237D01*
X199676Y337164D01*
X199743Y337088D01*
X199806Y337009D01*
X199866Y336929D01*
X199923Y336846D01*
X199977Y336760D01*
X200027Y336673D01*
X200074Y336584D01*
X200117Y336493D01*
X200157Y336401D01*
X200193Y336307D01*
X200226Y336212D01*
X200255Y336115D01*
X200280Y336018D01*
X200301Y335919D01*
X200319Y335820D01*
X200332Y335720D01*
X200342Y335620D01*
X200348Y335520D01*
X200350Y335419D01*
X200351Y335419D02*
X200351Y332823D01*
X195158Y342305D02*
X206842Y346200D01*
X195158Y350095D01*
X206842Y354384D02*
X206842Y357630D01*
X206840Y357743D01*
X206834Y357856D01*
X206824Y357969D01*
X206810Y358082D01*
X206793Y358194D01*
X206771Y358305D01*
X206746Y358415D01*
X206716Y358525D01*
X206683Y358633D01*
X206646Y358740D01*
X206606Y358846D01*
X206561Y358950D01*
X206513Y359053D01*
X206462Y359154D01*
X206407Y359253D01*
X206349Y359350D01*
X206287Y359445D01*
X206222Y359538D01*
X206154Y359628D01*
X206083Y359716D01*
X206008Y359802D01*
X205931Y359885D01*
X205851Y359965D01*
X205768Y360042D01*
X205682Y360117D01*
X205594Y360188D01*
X205504Y360256D01*
X205411Y360321D01*
X205316Y360383D01*
X205219Y360441D01*
X205120Y360496D01*
X205019Y360547D01*
X204916Y360595D01*
X204812Y360640D01*
X204706Y360680D01*
X204599Y360717D01*
X204491Y360750D01*
X204381Y360780D01*
X204271Y360805D01*
X204160Y360827D01*
X204048Y360844D01*
X203935Y360858D01*
X203822Y360868D01*
X203709Y360874D01*
X203596Y360876D01*
X203483Y360874D01*
X203370Y360868D01*
X203257Y360858D01*
X203144Y360844D01*
X203032Y360827D01*
X202921Y360805D01*
X202811Y360780D01*
X202701Y360750D01*
X202593Y360717D01*
X202486Y360680D01*
X202380Y360640D01*
X202276Y360595D01*
X202173Y360547D01*
X202072Y360496D01*
X201973Y360441D01*
X201876Y360383D01*
X201781Y360321D01*
X201688Y360256D01*
X201598Y360188D01*
X201510Y360117D01*
X201424Y360042D01*
X201341Y359965D01*
X201261Y359885D01*
X201184Y359802D01*
X201109Y359716D01*
X201038Y359628D01*
X200970Y359538D01*
X200905Y359445D01*
X200843Y359350D01*
X200785Y359253D01*
X200730Y359154D01*
X200679Y359053D01*
X200631Y358950D01*
X200586Y358846D01*
X200546Y358740D01*
X200509Y358633D01*
X200476Y358525D01*
X200446Y358415D01*
X200421Y358305D01*
X200399Y358194D01*
X200382Y358082D01*
X200368Y357969D01*
X200358Y357856D01*
X200352Y357743D01*
X200350Y357630D01*
X195158Y358279D02*
X195158Y354384D01*
X195158Y358279D02*
X195160Y358380D01*
X195166Y358480D01*
X195176Y358580D01*
X195189Y358680D01*
X195207Y358779D01*
X195228Y358878D01*
X195253Y358975D01*
X195282Y359072D01*
X195315Y359167D01*
X195351Y359261D01*
X195391Y359353D01*
X195434Y359444D01*
X195481Y359533D01*
X195531Y359620D01*
X195585Y359706D01*
X195642Y359789D01*
X195702Y359869D01*
X195765Y359948D01*
X195832Y360024D01*
X195901Y360097D01*
X195973Y360167D01*
X196047Y360235D01*
X196124Y360300D01*
X196204Y360361D01*
X196286Y360420D01*
X196370Y360475D01*
X196456Y360527D01*
X196544Y360576D01*
X196634Y360621D01*
X196726Y360663D01*
X196819Y360701D01*
X196914Y360735D01*
X197009Y360766D01*
X197106Y360793D01*
X197204Y360816D01*
X197303Y360836D01*
X197403Y360851D01*
X197503Y360863D01*
X197603Y360871D01*
X197704Y360875D01*
X197804Y360875D01*
X197905Y360871D01*
X198005Y360863D01*
X198105Y360851D01*
X198205Y360836D01*
X198304Y360816D01*
X198402Y360793D01*
X198499Y360766D01*
X198594Y360735D01*
X198689Y360701D01*
X198782Y360663D01*
X198874Y360621D01*
X198964Y360576D01*
X199052Y360527D01*
X199138Y360475D01*
X199222Y360420D01*
X199304Y360361D01*
X199384Y360300D01*
X199461Y360235D01*
X199535Y360167D01*
X199607Y360097D01*
X199676Y360024D01*
X199743Y359948D01*
X199806Y359869D01*
X199866Y359789D01*
X199923Y359706D01*
X199977Y359620D01*
X200027Y359533D01*
X200074Y359444D01*
X200117Y359353D01*
X200157Y359261D01*
X200193Y359167D01*
X200226Y359072D01*
X200255Y358975D01*
X200280Y358878D01*
X200301Y358779D01*
X200319Y358680D01*
X200332Y358580D01*
X200342Y358480D01*
X200348Y358380D01*
X200350Y358279D01*
X200351Y358279D02*
X200351Y355683D01*
X257309Y453617D02*
X259968Y455479D01*
X259968Y455478D02*
X260059Y455545D01*
X260149Y455614D01*
X260236Y455687D01*
X260320Y455763D01*
X260401Y455842D01*
X260480Y455923D01*
X260556Y456007D01*
X260629Y456094D01*
X260698Y456184D01*
X260765Y456275D01*
X260828Y456369D01*
X260888Y456465D01*
X260945Y456563D01*
X260998Y456663D01*
X261048Y456765D01*
X261094Y456869D01*
X261136Y456974D01*
X261175Y457080D01*
X261210Y457188D01*
X261241Y457297D01*
X261269Y457407D01*
X261292Y457518D01*
X261312Y457629D01*
X261328Y457741D01*
X261340Y457854D01*
X261348Y457967D01*
X261352Y458080D01*
X261352Y458194D01*
X261348Y458307D01*
X261340Y458420D01*
X261328Y458533D01*
X261312Y458645D01*
X261292Y458756D01*
X261269Y458867D01*
X261241Y458977D01*
X261210Y459086D01*
X261175Y459194D01*
X261136Y459300D01*
X261094Y459405D01*
X261048Y459509D01*
X260998Y459611D01*
X260945Y459711D01*
X260888Y459809D01*
X260828Y459905D01*
X260765Y459999D01*
X260698Y460090D01*
X260629Y460180D01*
X260556Y460267D01*
X260480Y460351D01*
X260401Y460432D01*
X260320Y460511D01*
X260236Y460587D01*
X260149Y460660D01*
X260060Y460729D01*
X259968Y460796D01*
X259874Y460859D01*
X259778Y460919D01*
X259680Y460976D01*
X259580Y461029D01*
X259478Y461079D01*
X259374Y461125D01*
X259269Y461167D01*
X259163Y461206D01*
X259055Y461241D01*
X258946Y461272D01*
X258836Y461300D01*
X258725Y461323D01*
X258614Y461343D01*
X258502Y461359D01*
X258389Y461371D01*
X258276Y461379D01*
X258163Y461383D01*
X258049Y461383D01*
X257936Y461379D01*
X257823Y461371D01*
X257710Y461359D01*
X257598Y461343D01*
X257487Y461323D01*
X257376Y461300D01*
X257266Y461272D01*
X257157Y461241D01*
X257049Y461206D01*
X256943Y461167D01*
X256838Y461125D01*
X256734Y461079D01*
X256632Y461029D01*
X256532Y460976D01*
X256434Y460919D01*
X256338Y460859D01*
X256244Y460796D01*
X253798Y465422D02*
X250608Y463188D01*
X253798Y465422D02*
X253882Y465478D01*
X253967Y465531D01*
X254055Y465580D01*
X254144Y465626D01*
X254236Y465669D01*
X254329Y465708D01*
X254423Y465743D01*
X254518Y465775D01*
X254615Y465803D01*
X254713Y465827D01*
X254811Y465847D01*
X254911Y465864D01*
X255011Y465876D01*
X255111Y465885D01*
X255212Y465890D01*
X255312Y465891D01*
X255413Y465888D01*
X255513Y465881D01*
X255613Y465870D01*
X255713Y465856D01*
X255812Y465837D01*
X255910Y465815D01*
X256007Y465789D01*
X256104Y465759D01*
X256199Y465726D01*
X256292Y465689D01*
X256384Y465648D01*
X256475Y465603D01*
X256563Y465556D01*
X256650Y465504D01*
X256734Y465450D01*
X256817Y465392D01*
X256897Y465331D01*
X256975Y465267D01*
X257050Y465200D01*
X257123Y465131D01*
X257192Y465058D01*
X257259Y464983D01*
X257323Y464905D01*
X257384Y464825D01*
X257442Y464742D01*
X257496Y464658D01*
X257548Y464571D01*
X257595Y464483D01*
X257640Y464392D01*
X257681Y464300D01*
X257718Y464206D01*
X257751Y464112D01*
X257781Y464015D01*
X257807Y463918D01*
X257829Y463820D01*
X257848Y463721D01*
X257862Y463621D01*
X257873Y463521D01*
X257880Y463421D01*
X257883Y463320D01*
X257882Y463220D01*
X257877Y463119D01*
X257868Y463019D01*
X257856Y462919D01*
X257839Y462819D01*
X257819Y462721D01*
X257795Y462623D01*
X257767Y462526D01*
X257735Y462431D01*
X257700Y462337D01*
X257661Y462244D01*
X257618Y462152D01*
X257572Y462063D01*
X257523Y461975D01*
X257470Y461890D01*
X257414Y461806D01*
X257354Y461725D01*
X257292Y461646D01*
X257226Y461569D01*
X257158Y461495D01*
X257087Y461424D01*
X257013Y461356D01*
X256936Y461290D01*
X256857Y461228D01*
X256776Y461168D01*
X254650Y459679D01*
X259439Y469372D02*
X269331Y462034D01*
X265819Y473839D01*
X276035Y466729D02*
X278694Y468590D01*
X278785Y468657D01*
X278875Y468726D01*
X278962Y468799D01*
X279046Y468875D01*
X279127Y468954D01*
X279206Y469035D01*
X279282Y469119D01*
X279355Y469206D01*
X279424Y469296D01*
X279491Y469387D01*
X279554Y469481D01*
X279614Y469577D01*
X279671Y469675D01*
X279724Y469775D01*
X279774Y469877D01*
X279820Y469981D01*
X279862Y470086D01*
X279901Y470192D01*
X279936Y470300D01*
X279967Y470409D01*
X279995Y470519D01*
X280018Y470630D01*
X280038Y470741D01*
X280054Y470853D01*
X280066Y470966D01*
X280074Y471079D01*
X280078Y471192D01*
X280078Y471306D01*
X280074Y471419D01*
X280066Y471532D01*
X280054Y471645D01*
X280038Y471757D01*
X280018Y471868D01*
X279995Y471979D01*
X279967Y472089D01*
X279936Y472198D01*
X279901Y472306D01*
X279862Y472412D01*
X279820Y472517D01*
X279774Y472621D01*
X279724Y472723D01*
X279671Y472823D01*
X279614Y472921D01*
X279554Y473017D01*
X279491Y473111D01*
X279424Y473202D01*
X279355Y473292D01*
X279282Y473379D01*
X279206Y473463D01*
X279127Y473544D01*
X279046Y473623D01*
X278962Y473699D01*
X278875Y473772D01*
X278786Y473841D01*
X278694Y473908D01*
X278600Y473971D01*
X278504Y474031D01*
X278406Y474088D01*
X278306Y474141D01*
X278204Y474191D01*
X278100Y474237D01*
X277995Y474279D01*
X277889Y474318D01*
X277781Y474353D01*
X277672Y474384D01*
X277562Y474412D01*
X277451Y474435D01*
X277340Y474455D01*
X277228Y474471D01*
X277115Y474483D01*
X277002Y474491D01*
X276889Y474495D01*
X276775Y474495D01*
X276662Y474491D01*
X276549Y474483D01*
X276436Y474471D01*
X276324Y474455D01*
X276213Y474435D01*
X276102Y474412D01*
X275992Y474384D01*
X275883Y474353D01*
X275775Y474318D01*
X275669Y474279D01*
X275564Y474237D01*
X275460Y474191D01*
X275358Y474141D01*
X275258Y474088D01*
X275160Y474031D01*
X275064Y473971D01*
X274970Y473908D01*
X272524Y478534D02*
X269333Y476300D01*
X272524Y478534D02*
X272608Y478590D01*
X272693Y478643D01*
X272781Y478692D01*
X272870Y478738D01*
X272962Y478781D01*
X273055Y478820D01*
X273149Y478855D01*
X273244Y478887D01*
X273341Y478915D01*
X273439Y478939D01*
X273537Y478959D01*
X273637Y478976D01*
X273737Y478988D01*
X273837Y478997D01*
X273938Y479002D01*
X274038Y479003D01*
X274139Y479000D01*
X274239Y478993D01*
X274339Y478982D01*
X274439Y478968D01*
X274538Y478949D01*
X274636Y478927D01*
X274733Y478901D01*
X274830Y478871D01*
X274925Y478838D01*
X275018Y478801D01*
X275110Y478760D01*
X275201Y478715D01*
X275289Y478668D01*
X275376Y478616D01*
X275460Y478562D01*
X275543Y478504D01*
X275623Y478443D01*
X275701Y478379D01*
X275776Y478312D01*
X275849Y478243D01*
X275918Y478170D01*
X275985Y478095D01*
X276049Y478017D01*
X276110Y477937D01*
X276168Y477854D01*
X276222Y477770D01*
X276274Y477683D01*
X276321Y477595D01*
X276366Y477504D01*
X276407Y477412D01*
X276444Y477318D01*
X276477Y477224D01*
X276507Y477127D01*
X276533Y477030D01*
X276555Y476932D01*
X276574Y476833D01*
X276588Y476733D01*
X276599Y476633D01*
X276606Y476533D01*
X276609Y476432D01*
X276608Y476332D01*
X276603Y476231D01*
X276594Y476131D01*
X276582Y476031D01*
X276565Y475931D01*
X276545Y475833D01*
X276521Y475735D01*
X276493Y475638D01*
X276461Y475543D01*
X276426Y475449D01*
X276387Y475356D01*
X276344Y475264D01*
X276298Y475175D01*
X276249Y475087D01*
X276196Y475002D01*
X276140Y474918D01*
X276080Y474837D01*
X276018Y474758D01*
X275952Y474681D01*
X275884Y474607D01*
X275813Y474536D01*
X275739Y474468D01*
X275662Y474402D01*
X275583Y474340D01*
X275502Y474280D01*
X273375Y472791D01*
D11*
X436744Y406810D02*
X436744Y389030D01*
X436744Y406810D02*
X441683Y406810D01*
X441823Y406808D01*
X441962Y406802D01*
X442102Y406792D01*
X442241Y406778D01*
X442380Y406761D01*
X442518Y406739D01*
X442655Y406713D01*
X442792Y406684D01*
X442928Y406651D01*
X443062Y406614D01*
X443196Y406573D01*
X443328Y406528D01*
X443460Y406479D01*
X443589Y406427D01*
X443717Y406372D01*
X443844Y406312D01*
X443969Y406249D01*
X444092Y406183D01*
X444213Y406113D01*
X444332Y406040D01*
X444449Y405963D01*
X444563Y405883D01*
X444676Y405800D01*
X444786Y405714D01*
X444893Y405624D01*
X444998Y405532D01*
X445100Y405437D01*
X445200Y405339D01*
X445297Y405238D01*
X445391Y405134D01*
X445481Y405028D01*
X445569Y404919D01*
X445654Y404808D01*
X445735Y404694D01*
X445814Y404579D01*
X445889Y404461D01*
X445960Y404341D01*
X446028Y404218D01*
X446093Y404095D01*
X446154Y403969D01*
X446212Y403841D01*
X446266Y403713D01*
X446316Y403582D01*
X446363Y403450D01*
X446406Y403317D01*
X446445Y403183D01*
X446480Y403048D01*
X446511Y402912D01*
X446539Y402774D01*
X446562Y402637D01*
X446582Y402498D01*
X446598Y402359D01*
X446610Y402220D01*
X446618Y402081D01*
X446622Y401941D01*
X446622Y401801D01*
X446618Y401661D01*
X446610Y401522D01*
X446598Y401383D01*
X446582Y401244D01*
X446562Y401105D01*
X446539Y400968D01*
X446511Y400830D01*
X446480Y400694D01*
X446445Y400559D01*
X446406Y400425D01*
X446363Y400292D01*
X446316Y400160D01*
X446266Y400029D01*
X446212Y399901D01*
X446154Y399773D01*
X446093Y399647D01*
X446028Y399524D01*
X445960Y399402D01*
X445889Y399281D01*
X445814Y399163D01*
X445735Y399048D01*
X445654Y398934D01*
X445569Y398823D01*
X445481Y398714D01*
X445391Y398608D01*
X445297Y398504D01*
X445200Y398403D01*
X445100Y398305D01*
X444998Y398210D01*
X444893Y398118D01*
X444786Y398028D01*
X444676Y397942D01*
X444563Y397859D01*
X444449Y397779D01*
X444332Y397702D01*
X444213Y397629D01*
X444092Y397559D01*
X443969Y397493D01*
X443844Y397430D01*
X443717Y397370D01*
X443589Y397315D01*
X443460Y397263D01*
X443328Y397214D01*
X443196Y397169D01*
X443062Y397128D01*
X442928Y397091D01*
X442792Y397058D01*
X442655Y397029D01*
X442518Y397003D01*
X442380Y396981D01*
X442241Y396964D01*
X442102Y396950D01*
X441962Y396940D01*
X441823Y396934D01*
X441683Y396932D01*
X436744Y396932D01*
X452739Y402859D02*
X457678Y406810D01*
X457678Y389030D01*
X462616Y389030D02*
X452739Y389030D01*
X416412Y298290D02*
X416412Y280510D01*
X416412Y298290D02*
X421351Y298290D01*
X421491Y298288D01*
X421630Y298282D01*
X421770Y298272D01*
X421909Y298258D01*
X422048Y298241D01*
X422186Y298219D01*
X422323Y298193D01*
X422460Y298164D01*
X422596Y298131D01*
X422730Y298094D01*
X422864Y298053D01*
X422996Y298008D01*
X423128Y297959D01*
X423257Y297907D01*
X423385Y297852D01*
X423512Y297792D01*
X423637Y297729D01*
X423760Y297663D01*
X423881Y297593D01*
X424000Y297520D01*
X424117Y297443D01*
X424231Y297363D01*
X424344Y297280D01*
X424454Y297194D01*
X424561Y297104D01*
X424666Y297012D01*
X424768Y296917D01*
X424868Y296819D01*
X424965Y296718D01*
X425059Y296614D01*
X425149Y296508D01*
X425237Y296399D01*
X425322Y296288D01*
X425403Y296174D01*
X425482Y296059D01*
X425557Y295941D01*
X425628Y295821D01*
X425696Y295698D01*
X425761Y295575D01*
X425822Y295449D01*
X425880Y295321D01*
X425934Y295193D01*
X425984Y295062D01*
X426031Y294930D01*
X426074Y294797D01*
X426113Y294663D01*
X426148Y294528D01*
X426179Y294392D01*
X426207Y294254D01*
X426230Y294117D01*
X426250Y293978D01*
X426266Y293839D01*
X426278Y293700D01*
X426286Y293561D01*
X426290Y293421D01*
X426290Y293281D01*
X426286Y293141D01*
X426278Y293002D01*
X426266Y292863D01*
X426250Y292724D01*
X426230Y292585D01*
X426207Y292448D01*
X426179Y292310D01*
X426148Y292174D01*
X426113Y292039D01*
X426074Y291905D01*
X426031Y291772D01*
X425984Y291640D01*
X425934Y291509D01*
X425880Y291381D01*
X425822Y291253D01*
X425761Y291127D01*
X425696Y291004D01*
X425628Y290882D01*
X425557Y290761D01*
X425482Y290643D01*
X425403Y290528D01*
X425322Y290414D01*
X425237Y290303D01*
X425149Y290194D01*
X425059Y290088D01*
X424965Y289984D01*
X424868Y289883D01*
X424768Y289785D01*
X424666Y289690D01*
X424561Y289598D01*
X424454Y289508D01*
X424344Y289422D01*
X424231Y289339D01*
X424117Y289259D01*
X424000Y289182D01*
X423881Y289109D01*
X423760Y289039D01*
X423637Y288973D01*
X423512Y288910D01*
X423385Y288850D01*
X423257Y288795D01*
X423128Y288743D01*
X422996Y288694D01*
X422864Y288649D01*
X422730Y288608D01*
X422596Y288571D01*
X422460Y288538D01*
X422323Y288509D01*
X422186Y288483D01*
X422048Y288461D01*
X421909Y288444D01*
X421770Y288430D01*
X421630Y288420D01*
X421491Y288414D01*
X421351Y288412D01*
X416412Y288412D01*
X437840Y298290D02*
X437972Y298288D01*
X438103Y298282D01*
X438235Y298272D01*
X438366Y298259D01*
X438496Y298241D01*
X438626Y298220D01*
X438756Y298195D01*
X438884Y298166D01*
X439012Y298133D01*
X439138Y298096D01*
X439264Y298056D01*
X439388Y298012D01*
X439511Y297964D01*
X439632Y297913D01*
X439752Y297858D01*
X439870Y297800D01*
X439986Y297738D01*
X440100Y297672D01*
X440213Y297604D01*
X440323Y297532D01*
X440431Y297457D01*
X440537Y297378D01*
X440641Y297297D01*
X440742Y297212D01*
X440840Y297125D01*
X440936Y297034D01*
X441029Y296941D01*
X441120Y296845D01*
X441207Y296747D01*
X441292Y296646D01*
X441373Y296542D01*
X441452Y296436D01*
X441527Y296328D01*
X441599Y296218D01*
X441667Y296105D01*
X441733Y295991D01*
X441795Y295875D01*
X441853Y295757D01*
X441908Y295637D01*
X441959Y295516D01*
X442007Y295393D01*
X442051Y295269D01*
X442091Y295143D01*
X442128Y295017D01*
X442161Y294889D01*
X442190Y294761D01*
X442215Y294631D01*
X442236Y294501D01*
X442254Y294371D01*
X442267Y294240D01*
X442277Y294108D01*
X442283Y293977D01*
X442285Y293845D01*
X437840Y298290D02*
X437690Y298288D01*
X437541Y298282D01*
X437392Y298272D01*
X437243Y298259D01*
X437094Y298241D01*
X436946Y298220D01*
X436798Y298194D01*
X436652Y298165D01*
X436506Y298132D01*
X436361Y298095D01*
X436217Y298054D01*
X436074Y298010D01*
X435932Y297962D01*
X435792Y297910D01*
X435653Y297855D01*
X435515Y297796D01*
X435380Y297733D01*
X435245Y297667D01*
X435113Y297597D01*
X434983Y297524D01*
X434854Y297447D01*
X434727Y297367D01*
X434603Y297284D01*
X434481Y297198D01*
X434361Y297108D01*
X434244Y297015D01*
X434129Y296920D01*
X434016Y296821D01*
X433906Y296719D01*
X433799Y296615D01*
X433695Y296508D01*
X433593Y296398D01*
X433495Y296285D01*
X433399Y296170D01*
X433307Y296052D01*
X433217Y295932D01*
X433131Y295810D01*
X433048Y295686D01*
X432968Y295559D01*
X432892Y295431D01*
X432819Y295300D01*
X432749Y295167D01*
X432683Y295033D01*
X432621Y294897D01*
X432562Y294760D01*
X432506Y294621D01*
X432455Y294480D01*
X432407Y294339D01*
X440803Y290388D02*
X440899Y290481D01*
X440991Y290577D01*
X441081Y290676D01*
X441168Y290777D01*
X441253Y290880D01*
X441334Y290985D01*
X441412Y291093D01*
X441487Y291203D01*
X441560Y291315D01*
X441629Y291429D01*
X441695Y291545D01*
X441757Y291663D01*
X441816Y291782D01*
X441872Y291903D01*
X441925Y292026D01*
X441974Y292150D01*
X442019Y292275D01*
X442062Y292402D01*
X442100Y292529D01*
X442135Y292658D01*
X442166Y292787D01*
X442194Y292918D01*
X442218Y293049D01*
X442239Y293181D01*
X442255Y293313D01*
X442268Y293446D01*
X442278Y293579D01*
X442283Y293712D01*
X442285Y293845D01*
X440803Y290388D02*
X432407Y280510D01*
X442285Y280510D01*
X454655Y287424D02*
X454655Y293351D01*
X454655Y287424D02*
X458112Y282979D01*
X454655Y287424D02*
X451198Y282979D01*
X454655Y287424D02*
X460088Y289400D01*
X454655Y287424D02*
X449222Y289400D01*
X333264Y233490D02*
X333264Y215710D01*
X333264Y233490D02*
X338203Y233490D01*
X338343Y233488D01*
X338482Y233482D01*
X338622Y233472D01*
X338761Y233458D01*
X338900Y233441D01*
X339038Y233419D01*
X339175Y233393D01*
X339312Y233364D01*
X339448Y233331D01*
X339582Y233294D01*
X339716Y233253D01*
X339848Y233208D01*
X339980Y233159D01*
X340109Y233107D01*
X340237Y233052D01*
X340364Y232992D01*
X340489Y232929D01*
X340612Y232863D01*
X340733Y232793D01*
X340852Y232720D01*
X340969Y232643D01*
X341083Y232563D01*
X341196Y232480D01*
X341306Y232394D01*
X341413Y232304D01*
X341518Y232212D01*
X341620Y232117D01*
X341720Y232019D01*
X341817Y231918D01*
X341911Y231814D01*
X342001Y231708D01*
X342089Y231599D01*
X342174Y231488D01*
X342255Y231374D01*
X342334Y231259D01*
X342409Y231141D01*
X342480Y231021D01*
X342548Y230898D01*
X342613Y230775D01*
X342674Y230649D01*
X342732Y230521D01*
X342786Y230393D01*
X342836Y230262D01*
X342883Y230130D01*
X342926Y229997D01*
X342965Y229863D01*
X343000Y229728D01*
X343031Y229592D01*
X343059Y229454D01*
X343082Y229317D01*
X343102Y229178D01*
X343118Y229039D01*
X343130Y228900D01*
X343138Y228761D01*
X343142Y228621D01*
X343142Y228481D01*
X343138Y228341D01*
X343130Y228202D01*
X343118Y228063D01*
X343102Y227924D01*
X343082Y227785D01*
X343059Y227648D01*
X343031Y227510D01*
X343000Y227374D01*
X342965Y227239D01*
X342926Y227105D01*
X342883Y226972D01*
X342836Y226840D01*
X342786Y226709D01*
X342732Y226581D01*
X342674Y226453D01*
X342613Y226327D01*
X342548Y226204D01*
X342480Y226082D01*
X342409Y225961D01*
X342334Y225843D01*
X342255Y225728D01*
X342174Y225614D01*
X342089Y225503D01*
X342001Y225394D01*
X341911Y225288D01*
X341817Y225184D01*
X341720Y225083D01*
X341620Y224985D01*
X341518Y224890D01*
X341413Y224798D01*
X341306Y224708D01*
X341196Y224622D01*
X341083Y224539D01*
X340969Y224459D01*
X340852Y224382D01*
X340733Y224309D01*
X340612Y224239D01*
X340489Y224173D01*
X340364Y224110D01*
X340237Y224050D01*
X340109Y223995D01*
X339980Y223943D01*
X339848Y223894D01*
X339716Y223849D01*
X339582Y223808D01*
X339448Y223771D01*
X339312Y223738D01*
X339175Y223709D01*
X339038Y223683D01*
X338900Y223661D01*
X338761Y223644D01*
X338622Y223630D01*
X338482Y223620D01*
X338343Y223614D01*
X338203Y223612D01*
X333264Y223612D01*
X349259Y215710D02*
X354198Y215710D01*
X354338Y215712D01*
X354477Y215718D01*
X354617Y215728D01*
X354756Y215742D01*
X354895Y215759D01*
X355033Y215781D01*
X355170Y215807D01*
X355307Y215836D01*
X355443Y215869D01*
X355577Y215906D01*
X355711Y215947D01*
X355843Y215992D01*
X355975Y216041D01*
X356104Y216093D01*
X356232Y216148D01*
X356359Y216208D01*
X356484Y216271D01*
X356607Y216337D01*
X356728Y216407D01*
X356847Y216480D01*
X356964Y216557D01*
X357078Y216637D01*
X357191Y216720D01*
X357301Y216806D01*
X357408Y216896D01*
X357513Y216988D01*
X357615Y217083D01*
X357715Y217181D01*
X357812Y217282D01*
X357906Y217386D01*
X357996Y217492D01*
X358084Y217601D01*
X358169Y217712D01*
X358250Y217826D01*
X358329Y217941D01*
X358404Y218059D01*
X358475Y218180D01*
X358543Y218302D01*
X358608Y218425D01*
X358669Y218551D01*
X358727Y218679D01*
X358781Y218807D01*
X358831Y218938D01*
X358878Y219070D01*
X358921Y219203D01*
X358960Y219337D01*
X358995Y219472D01*
X359026Y219608D01*
X359054Y219746D01*
X359077Y219883D01*
X359097Y220022D01*
X359113Y220161D01*
X359125Y220300D01*
X359133Y220439D01*
X359137Y220579D01*
X359137Y220719D01*
X359133Y220859D01*
X359125Y220998D01*
X359113Y221137D01*
X359097Y221276D01*
X359077Y221415D01*
X359054Y221552D01*
X359026Y221690D01*
X358995Y221826D01*
X358960Y221961D01*
X358921Y222095D01*
X358878Y222228D01*
X358831Y222360D01*
X358781Y222491D01*
X358727Y222619D01*
X358669Y222747D01*
X358608Y222873D01*
X358543Y222996D01*
X358475Y223119D01*
X358404Y223239D01*
X358329Y223357D01*
X358250Y223472D01*
X358169Y223586D01*
X358084Y223697D01*
X357996Y223806D01*
X357906Y223912D01*
X357812Y224016D01*
X357715Y224117D01*
X357615Y224215D01*
X357513Y224310D01*
X357408Y224402D01*
X357301Y224492D01*
X357191Y224578D01*
X357078Y224661D01*
X356964Y224741D01*
X356847Y224818D01*
X356728Y224891D01*
X356607Y224961D01*
X356484Y225027D01*
X356359Y225090D01*
X356232Y225150D01*
X356104Y225205D01*
X355975Y225257D01*
X355843Y225306D01*
X355711Y225351D01*
X355577Y225392D01*
X355443Y225429D01*
X355307Y225462D01*
X355170Y225491D01*
X355033Y225517D01*
X354895Y225539D01*
X354756Y225556D01*
X354617Y225570D01*
X354477Y225580D01*
X354338Y225586D01*
X354198Y225588D01*
X355185Y233490D02*
X349259Y233490D01*
X355185Y233490D02*
X355309Y233488D01*
X355433Y233482D01*
X355557Y233472D01*
X355680Y233459D01*
X355803Y233441D01*
X355925Y233420D01*
X356047Y233395D01*
X356168Y233366D01*
X356287Y233333D01*
X356406Y233297D01*
X356523Y233256D01*
X356639Y233213D01*
X356754Y233165D01*
X356867Y233114D01*
X356979Y233059D01*
X357088Y233001D01*
X357196Y232940D01*
X357302Y232875D01*
X357406Y232807D01*
X357507Y232735D01*
X357607Y232661D01*
X357703Y232583D01*
X357798Y232503D01*
X357890Y232419D01*
X357979Y232333D01*
X358065Y232244D01*
X358149Y232152D01*
X358229Y232057D01*
X358307Y231961D01*
X358381Y231861D01*
X358453Y231760D01*
X358521Y231656D01*
X358586Y231550D01*
X358647Y231442D01*
X358705Y231333D01*
X358760Y231221D01*
X358811Y231108D01*
X358859Y230993D01*
X358902Y230877D01*
X358943Y230760D01*
X358979Y230641D01*
X359012Y230522D01*
X359041Y230401D01*
X359066Y230279D01*
X359087Y230157D01*
X359105Y230034D01*
X359118Y229911D01*
X359128Y229787D01*
X359134Y229663D01*
X359136Y229539D01*
X359134Y229415D01*
X359128Y229291D01*
X359118Y229167D01*
X359105Y229044D01*
X359087Y228921D01*
X359066Y228799D01*
X359041Y228677D01*
X359012Y228556D01*
X358979Y228437D01*
X358943Y228318D01*
X358902Y228201D01*
X358859Y228085D01*
X358811Y227970D01*
X358760Y227857D01*
X358705Y227745D01*
X358647Y227636D01*
X358586Y227528D01*
X358521Y227422D01*
X358453Y227318D01*
X358381Y227217D01*
X358307Y227117D01*
X358229Y227021D01*
X358149Y226926D01*
X358065Y226834D01*
X357979Y226745D01*
X357890Y226659D01*
X357798Y226575D01*
X357703Y226495D01*
X357607Y226417D01*
X357507Y226343D01*
X357406Y226271D01*
X357302Y226203D01*
X357196Y226138D01*
X357088Y226077D01*
X356979Y226019D01*
X356867Y225964D01*
X356754Y225913D01*
X356639Y225865D01*
X356523Y225822D01*
X356406Y225781D01*
X356287Y225745D01*
X356168Y225712D01*
X356047Y225683D01*
X355925Y225658D01*
X355803Y225637D01*
X355680Y225619D01*
X355557Y225606D01*
X355433Y225596D01*
X355309Y225590D01*
X355185Y225588D01*
X351234Y225588D01*
X234864Y280510D02*
X234864Y298290D01*
X239803Y298290D01*
X239943Y298288D01*
X240082Y298282D01*
X240222Y298272D01*
X240361Y298258D01*
X240500Y298241D01*
X240638Y298219D01*
X240775Y298193D01*
X240912Y298164D01*
X241048Y298131D01*
X241182Y298094D01*
X241316Y298053D01*
X241448Y298008D01*
X241580Y297959D01*
X241709Y297907D01*
X241837Y297852D01*
X241964Y297792D01*
X242089Y297729D01*
X242212Y297663D01*
X242333Y297593D01*
X242452Y297520D01*
X242569Y297443D01*
X242683Y297363D01*
X242796Y297280D01*
X242906Y297194D01*
X243013Y297104D01*
X243118Y297012D01*
X243220Y296917D01*
X243320Y296819D01*
X243417Y296718D01*
X243511Y296614D01*
X243601Y296508D01*
X243689Y296399D01*
X243774Y296288D01*
X243855Y296174D01*
X243934Y296059D01*
X244009Y295941D01*
X244080Y295821D01*
X244148Y295698D01*
X244213Y295575D01*
X244274Y295449D01*
X244332Y295321D01*
X244386Y295193D01*
X244436Y295062D01*
X244483Y294930D01*
X244526Y294797D01*
X244565Y294663D01*
X244600Y294528D01*
X244631Y294392D01*
X244659Y294254D01*
X244682Y294117D01*
X244702Y293978D01*
X244718Y293839D01*
X244730Y293700D01*
X244738Y293561D01*
X244742Y293421D01*
X244742Y293281D01*
X244738Y293141D01*
X244730Y293002D01*
X244718Y292863D01*
X244702Y292724D01*
X244682Y292585D01*
X244659Y292448D01*
X244631Y292310D01*
X244600Y292174D01*
X244565Y292039D01*
X244526Y291905D01*
X244483Y291772D01*
X244436Y291640D01*
X244386Y291509D01*
X244332Y291381D01*
X244274Y291253D01*
X244213Y291127D01*
X244148Y291004D01*
X244080Y290882D01*
X244009Y290761D01*
X243934Y290643D01*
X243855Y290528D01*
X243774Y290414D01*
X243689Y290303D01*
X243601Y290194D01*
X243511Y290088D01*
X243417Y289984D01*
X243320Y289883D01*
X243220Y289785D01*
X243118Y289690D01*
X243013Y289598D01*
X242906Y289508D01*
X242796Y289422D01*
X242683Y289339D01*
X242569Y289259D01*
X242452Y289182D01*
X242333Y289109D01*
X242212Y289039D01*
X242089Y288973D01*
X241964Y288910D01*
X241837Y288850D01*
X241709Y288795D01*
X241580Y288743D01*
X241448Y288694D01*
X241316Y288649D01*
X241182Y288608D01*
X241048Y288571D01*
X240912Y288538D01*
X240775Y288509D01*
X240638Y288483D01*
X240500Y288461D01*
X240361Y288444D01*
X240222Y288430D01*
X240082Y288420D01*
X239943Y288414D01*
X239803Y288412D01*
X234864Y288412D01*
X250859Y284461D02*
X254810Y298290D01*
X250859Y284461D02*
X260736Y284461D01*
X257773Y288412D02*
X257773Y280510D01*
X233594Y387760D02*
X233594Y405540D01*
X238533Y405540D01*
X238673Y405538D01*
X238812Y405532D01*
X238952Y405522D01*
X239091Y405508D01*
X239230Y405491D01*
X239368Y405469D01*
X239505Y405443D01*
X239642Y405414D01*
X239778Y405381D01*
X239912Y405344D01*
X240046Y405303D01*
X240178Y405258D01*
X240310Y405209D01*
X240439Y405157D01*
X240567Y405102D01*
X240694Y405042D01*
X240819Y404979D01*
X240942Y404913D01*
X241063Y404843D01*
X241182Y404770D01*
X241299Y404693D01*
X241413Y404613D01*
X241526Y404530D01*
X241636Y404444D01*
X241743Y404354D01*
X241848Y404262D01*
X241950Y404167D01*
X242050Y404069D01*
X242147Y403968D01*
X242241Y403864D01*
X242331Y403758D01*
X242419Y403649D01*
X242504Y403538D01*
X242585Y403424D01*
X242664Y403309D01*
X242739Y403191D01*
X242810Y403071D01*
X242878Y402948D01*
X242943Y402825D01*
X243004Y402699D01*
X243062Y402571D01*
X243116Y402443D01*
X243166Y402312D01*
X243213Y402180D01*
X243256Y402047D01*
X243295Y401913D01*
X243330Y401778D01*
X243361Y401642D01*
X243389Y401504D01*
X243412Y401367D01*
X243432Y401228D01*
X243448Y401089D01*
X243460Y400950D01*
X243468Y400811D01*
X243472Y400671D01*
X243472Y400531D01*
X243468Y400391D01*
X243460Y400252D01*
X243448Y400113D01*
X243432Y399974D01*
X243412Y399835D01*
X243389Y399698D01*
X243361Y399560D01*
X243330Y399424D01*
X243295Y399289D01*
X243256Y399155D01*
X243213Y399022D01*
X243166Y398890D01*
X243116Y398759D01*
X243062Y398631D01*
X243004Y398503D01*
X242943Y398377D01*
X242878Y398254D01*
X242810Y398132D01*
X242739Y398011D01*
X242664Y397893D01*
X242585Y397778D01*
X242504Y397664D01*
X242419Y397553D01*
X242331Y397444D01*
X242241Y397338D01*
X242147Y397234D01*
X242050Y397133D01*
X241950Y397035D01*
X241848Y396940D01*
X241743Y396848D01*
X241636Y396758D01*
X241526Y396672D01*
X241413Y396589D01*
X241299Y396509D01*
X241182Y396432D01*
X241063Y396359D01*
X240942Y396289D01*
X240819Y396223D01*
X240694Y396160D01*
X240567Y396100D01*
X240439Y396045D01*
X240310Y395993D01*
X240178Y395944D01*
X240046Y395899D01*
X239912Y395858D01*
X239778Y395821D01*
X239642Y395788D01*
X239505Y395759D01*
X239368Y395733D01*
X239230Y395711D01*
X239091Y395694D01*
X238952Y395680D01*
X238812Y395670D01*
X238673Y395664D01*
X238533Y395662D01*
X233594Y395662D01*
X249589Y387760D02*
X255515Y387760D01*
X255639Y387762D01*
X255763Y387768D01*
X255887Y387778D01*
X256010Y387791D01*
X256133Y387809D01*
X256255Y387830D01*
X256377Y387855D01*
X256498Y387884D01*
X256617Y387917D01*
X256736Y387953D01*
X256853Y387994D01*
X256969Y388037D01*
X257084Y388085D01*
X257197Y388136D01*
X257309Y388191D01*
X257418Y388249D01*
X257526Y388310D01*
X257632Y388375D01*
X257736Y388443D01*
X257837Y388515D01*
X257937Y388589D01*
X258033Y388667D01*
X258128Y388747D01*
X258220Y388831D01*
X258309Y388917D01*
X258395Y389006D01*
X258479Y389098D01*
X258559Y389193D01*
X258637Y389289D01*
X258711Y389389D01*
X258783Y389490D01*
X258851Y389594D01*
X258916Y389700D01*
X258977Y389808D01*
X259035Y389917D01*
X259090Y390029D01*
X259141Y390142D01*
X259189Y390257D01*
X259232Y390373D01*
X259273Y390490D01*
X259309Y390609D01*
X259342Y390728D01*
X259371Y390849D01*
X259396Y390971D01*
X259417Y391093D01*
X259435Y391216D01*
X259448Y391339D01*
X259458Y391463D01*
X259464Y391587D01*
X259466Y391711D01*
X259466Y393687D01*
X259464Y393811D01*
X259458Y393935D01*
X259448Y394059D01*
X259435Y394182D01*
X259417Y394305D01*
X259396Y394427D01*
X259371Y394549D01*
X259342Y394670D01*
X259309Y394789D01*
X259273Y394908D01*
X259232Y395025D01*
X259189Y395141D01*
X259141Y395256D01*
X259090Y395369D01*
X259035Y395481D01*
X258977Y395590D01*
X258916Y395698D01*
X258851Y395804D01*
X258783Y395908D01*
X258711Y396009D01*
X258637Y396109D01*
X258559Y396205D01*
X258479Y396300D01*
X258395Y396392D01*
X258309Y396481D01*
X258220Y396567D01*
X258128Y396651D01*
X258033Y396731D01*
X257937Y396809D01*
X257837Y396883D01*
X257736Y396955D01*
X257632Y397023D01*
X257526Y397088D01*
X257418Y397149D01*
X257309Y397207D01*
X257197Y397262D01*
X257084Y397313D01*
X256969Y397361D01*
X256853Y397404D01*
X256736Y397445D01*
X256617Y397481D01*
X256498Y397514D01*
X256377Y397543D01*
X256255Y397568D01*
X256133Y397589D01*
X256010Y397607D01*
X255887Y397620D01*
X255763Y397630D01*
X255639Y397636D01*
X255515Y397638D01*
X249589Y397638D01*
X249589Y405540D01*
X259466Y405540D01*
D12*
X324952Y258679D03*
D13*
X324437Y258826D03*
D14*
X323847Y258973D03*
D15*
X323406Y259121D03*
D16*
X322890Y259268D03*
D17*
X322448Y259415D03*
D18*
X321859Y259563D03*
D19*
X321343Y259710D03*
D20*
X320901Y259857D03*
D21*
X320459Y260005D03*
D22*
X320385Y260152D03*
D23*
X320459Y260299D03*
D24*
X320533Y260447D03*
D25*
X320459Y260594D03*
D26*
X320533Y260741D03*
D27*
X320533Y260888D03*
D28*
X320606Y261036D03*
X320606Y261183D03*
D29*
X320606Y261330D03*
D30*
X320680Y261478D03*
D31*
X320680Y261625D03*
X320680Y261772D03*
D32*
X320754Y261920D03*
D33*
X320754Y262067D03*
D34*
X320827Y262214D03*
D35*
X320754Y262362D03*
D36*
X320827Y262509D03*
D37*
X320901Y262656D03*
D38*
X320901Y262804D03*
X320901Y262951D03*
D39*
X320975Y263098D03*
D40*
X320975Y263246D03*
D41*
X321048Y263393D03*
D42*
X320975Y263540D03*
D43*
X321048Y263688D03*
D44*
X321122Y263835D03*
D45*
X321122Y263982D03*
X321122Y264130D03*
D46*
X321122Y264277D03*
D47*
X321196Y264424D03*
X321196Y264571D03*
D48*
X321196Y264719D03*
D49*
X321269Y264866D03*
D50*
X321269Y265013D03*
X321269Y265161D03*
D51*
X321343Y265308D03*
D52*
X321343Y265455D03*
D53*
X321417Y265603D03*
D54*
X321343Y265750D03*
D55*
X321417Y265897D03*
D56*
X321490Y266045D03*
D57*
X341968Y266045D03*
D58*
X321490Y266192D03*
D59*
X341379Y266192D03*
D58*
X321490Y266339D03*
D60*
X340937Y266339D03*
D61*
X321490Y266487D03*
D62*
X340421Y266487D03*
D63*
X321564Y266634D03*
D64*
X339979Y266634D03*
D63*
X321564Y266781D03*
D65*
X339390Y266781D03*
D66*
X321490Y266929D03*
D67*
X338948Y266929D03*
D66*
X321490Y267076D03*
D68*
X338432Y267076D03*
D63*
X321417Y267223D03*
D69*
X337990Y267223D03*
D66*
X321343Y267371D03*
D21*
X337843Y267371D03*
D66*
X321343Y267518D03*
D23*
X337843Y267518D03*
D66*
X321196Y267665D03*
D24*
X337917Y267665D03*
D66*
X321196Y267813D03*
D25*
X337990Y267813D03*
D63*
X321122Y267960D03*
D26*
X337917Y267960D03*
D66*
X321048Y268107D03*
D70*
X337990Y268107D03*
D66*
X321048Y268254D03*
D28*
X337990Y268254D03*
D66*
X320901Y268402D03*
D71*
X338064Y268402D03*
D66*
X320901Y268549D03*
D71*
X338064Y268549D03*
D63*
X320827Y268696D03*
D30*
X338064Y268696D03*
D66*
X320754Y268844D03*
D72*
X338138Y268844D03*
D66*
X320754Y268991D03*
D32*
X338138Y268991D03*
D66*
X320606Y269138D03*
D32*
X338138Y269138D03*
D66*
X320606Y269286D03*
D73*
X338211Y269286D03*
D63*
X320533Y269433D03*
D34*
X338211Y269433D03*
D61*
X320606Y269580D03*
D35*
X338285Y269580D03*
D61*
X320606Y269728D03*
D36*
X338211Y269728D03*
D74*
X320606Y269875D03*
D75*
X338285Y269875D03*
D76*
X320680Y270022D03*
D77*
X338358Y270022D03*
D55*
X320680Y270170D03*
D78*
X338358Y270170D03*
D55*
X320680Y270317D03*
D78*
X338358Y270317D03*
D54*
X320754Y270464D03*
D79*
X338432Y270464D03*
D52*
X320754Y270612D03*
D41*
X338432Y270612D03*
D80*
X320827Y270759D03*
D41*
X338432Y270759D03*
D51*
X320754Y270906D03*
D43*
X338432Y270906D03*
D81*
X320827Y271054D03*
D44*
X338506Y271054D03*
D82*
X320901Y271201D03*
D83*
X338579Y271201D03*
D48*
X320901Y271348D03*
D84*
X338506Y271348D03*
D48*
X320901Y271496D03*
D85*
X338579Y271496D03*
D86*
X320975Y271643D03*
D47*
X338579Y271643D03*
D46*
X320975Y271790D03*
D86*
X338653Y271790D03*
D46*
X320975Y271937D03*
D86*
X338653Y271937D03*
D84*
X320975Y272085D03*
D49*
X338653Y272085D03*
D87*
X321048Y272232D03*
D82*
X338727Y272232D03*
D44*
X321122Y272379D03*
D51*
X338727Y272379D03*
D43*
X321048Y272527D03*
D51*
X338727Y272527D03*
D42*
X321122Y272674D03*
D80*
X338800Y272674D03*
D40*
X321122Y272821D03*
D53*
X338800Y272821D03*
D79*
X321196Y272969D03*
D54*
X338874Y272969D03*
D79*
X321196Y273116D03*
D55*
X338800Y273116D03*
D88*
X321196Y273263D03*
D89*
X338874Y273263D03*
D77*
X321269Y273411D03*
D76*
X338948Y273411D03*
D36*
X321269Y273558D03*
D90*
X338948Y273558D03*
D36*
X321269Y273705D03*
D90*
X338948Y273705D03*
D35*
X321343Y273853D03*
D63*
X338948Y273853D03*
D33*
X321343Y274000D03*
D66*
X339021Y274000D03*
D73*
X321417Y274147D03*
D63*
X338948Y274147D03*
D32*
X321343Y274295D03*
D66*
X338874Y274295D03*
D91*
X321417Y274442D03*
D66*
X338874Y274442D03*
D92*
X321490Y274589D03*
D63*
X338800Y274589D03*
D29*
X321490Y274737D03*
D66*
X338727Y274737D03*
D29*
X321490Y274884D03*
D66*
X338727Y274884D03*
D71*
X321564Y275031D03*
D66*
X338579Y275031D03*
D27*
X321564Y275179D03*
D66*
X338579Y275179D03*
D70*
X321638Y275326D03*
D63*
X338506Y275326D03*
D93*
X321564Y275473D03*
D66*
X338432Y275473D03*
D25*
X321638Y275620D03*
D66*
X338432Y275620D03*
D24*
X321711Y275768D03*
D66*
X338285Y275768D03*
D23*
X321638Y275915D03*
D66*
X338285Y275915D03*
D22*
X321711Y276062D03*
D63*
X338211Y276062D03*
D69*
X321638Y276210D03*
D66*
X338138Y276210D03*
D94*
X321122Y276357D03*
D66*
X338138Y276357D03*
D67*
X320533Y276504D03*
D66*
X337990Y276504D03*
D65*
X320091Y276652D03*
D66*
X337990Y276652D03*
D95*
X319575Y276799D03*
D61*
X337990Y276799D03*
D96*
X319133Y276946D03*
D90*
X338064Y276946D03*
D60*
X318544Y277094D03*
D90*
X338064Y277094D03*
D97*
X318028Y277241D03*
D98*
X338064Y277241D03*
D99*
X317586Y277388D03*
D56*
X338138Y277388D03*
D100*
X327383Y277536D03*
D55*
X338064Y277536D03*
D101*
X326868Y277683D03*
D54*
X338138Y277683D03*
D14*
X326352Y277830D03*
D53*
X338211Y277830D03*
D102*
X325836Y277978D03*
D80*
X338211Y277978D03*
D16*
X325394Y278125D03*
D80*
X338211Y278125D03*
D103*
X324879Y278272D03*
D81*
X338211Y278272D03*
D18*
X324363Y278420D03*
D104*
X338285Y278420D03*
D19*
X323847Y278567D03*
D49*
X338358Y278567D03*
D105*
X323332Y278714D03*
D48*
X338285Y278714D03*
D106*
X322890Y278862D03*
D86*
X338358Y278862D03*
D22*
X322890Y279009D03*
D47*
X338432Y279009D03*
D23*
X322964Y279156D03*
D85*
X338432Y279156D03*
D24*
X323037Y279303D03*
D85*
X338432Y279303D03*
D25*
X322964Y279451D03*
D87*
X338432Y279451D03*
D26*
X323037Y279598D03*
D44*
X338506Y279598D03*
D107*
X323037Y279745D03*
D43*
X338579Y279745D03*
D28*
X323111Y279893D03*
D42*
X338506Y279893D03*
D28*
X323111Y280040D03*
D41*
X338579Y280040D03*
D29*
X323111Y280187D03*
D79*
X338579Y280187D03*
D30*
X323185Y280335D03*
D39*
X338653Y280335D03*
D31*
X323185Y280482D03*
D39*
X338653Y280482D03*
D31*
X323185Y280629D03*
D108*
X338653Y280629D03*
D32*
X323258Y280777D03*
D75*
X338727Y280777D03*
D33*
X323258Y280924D03*
D35*
X338727Y280924D03*
D34*
X323332Y281071D03*
D35*
X338727Y281071D03*
X323258Y281219D03*
D34*
X338800Y281219D03*
D36*
X323332Y281366D03*
D73*
X338800Y281366D03*
D75*
X323406Y281513D03*
D73*
X338800Y281513D03*
D38*
X323406Y281661D03*
D91*
X338800Y281661D03*
D38*
X323406Y281808D03*
D72*
X338874Y281808D03*
D79*
X323406Y281955D03*
D30*
X338948Y281955D03*
D40*
X323479Y282103D03*
D29*
X338874Y282103D03*
D41*
X323553Y282250D03*
D71*
X338948Y282250D03*
D42*
X323479Y282397D03*
D27*
X338948Y282397D03*
D43*
X323553Y282545D03*
D109*
X339021Y282545D03*
D87*
X323553Y282692D03*
D109*
X339021Y282692D03*
D45*
X323626Y282839D03*
D25*
X339021Y282839D03*
D45*
X323626Y282986D03*
D24*
X339095Y282986D03*
D46*
X323626Y283134D03*
D23*
X339169Y283134D03*
D47*
X323700Y283281D03*
D22*
X339095Y283281D03*
D47*
X323700Y283428D03*
D106*
X339095Y283428D03*
D48*
X323700Y283576D03*
D110*
X338653Y283576D03*
D49*
X323774Y283723D03*
D111*
X338138Y283723D03*
D50*
X323774Y283870D03*
D18*
X337622Y283870D03*
D50*
X323774Y284018D03*
D112*
X337106Y284018D03*
D51*
X323847Y284165D03*
D113*
X336664Y284165D03*
D52*
X323847Y284312D03*
D114*
X336149Y284312D03*
D53*
X323921Y284460D03*
D14*
X335633Y284460D03*
D54*
X323847Y284607D03*
D115*
X335117Y284607D03*
D55*
X323921Y284754D03*
D12*
X334675Y284754D03*
D56*
X323995Y284902D03*
D58*
X323995Y285049D03*
X323995Y285196D03*
D61*
X323995Y285344D03*
D63*
X324068Y285491D03*
X324068Y285638D03*
D66*
X323995Y285786D03*
X323995Y285933D03*
X323847Y286080D03*
X323847Y286228D03*
D63*
X323774Y286375D03*
D66*
X323700Y286522D03*
X323700Y286669D03*
X323553Y286817D03*
X323553Y286964D03*
D63*
X323479Y287111D03*
D66*
X323406Y287259D03*
X323406Y287406D03*
D63*
X323332Y287553D03*
D66*
X323258Y287701D03*
X323258Y287848D03*
X323111Y287995D03*
X323111Y288143D03*
D63*
X323037Y288290D03*
D61*
X323111Y288437D03*
X323111Y288585D03*
D74*
X323111Y288732D03*
D76*
X323185Y288879D03*
D55*
X323185Y289027D03*
X323185Y289174D03*
D54*
X323258Y289321D03*
D52*
X323258Y289469D03*
D80*
X323332Y289616D03*
D51*
X323258Y289763D03*
D81*
X323332Y289911D03*
D82*
X323406Y290058D03*
D116*
X323332Y290205D03*
D48*
X323406Y290352D03*
D47*
X323406Y290500D03*
D46*
X323479Y290647D03*
X323479Y290794D03*
D84*
X323479Y290942D03*
D87*
X323553Y291089D03*
D43*
X323553Y291236D03*
X323553Y291384D03*
D42*
X323626Y291531D03*
D40*
X323626Y291678D03*
D79*
X323700Y291826D03*
X323700Y291973D03*
D88*
X323700Y292120D03*
D77*
X323774Y292268D03*
D36*
X323774Y292415D03*
X323774Y292562D03*
D35*
X323847Y292710D03*
D33*
X323847Y292857D03*
D73*
X323921Y293004D03*
D32*
X323847Y293152D03*
D91*
X323921Y293299D03*
D92*
X323995Y293446D03*
D29*
X323995Y293594D03*
X323995Y293741D03*
D28*
X323995Y293888D03*
D27*
X324068Y294035D03*
D70*
X324142Y294183D03*
D93*
X324068Y294330D03*
D25*
X324142Y294477D03*
D23*
X324142Y294625D03*
X324142Y294772D03*
D22*
X324216Y294919D03*
D117*
X324068Y295067D03*
D118*
X323553Y295214D03*
D67*
X323037Y295361D03*
D119*
X322522Y295509D03*
D95*
X322080Y295656D03*
D120*
X321564Y295803D03*
D60*
X321048Y295951D03*
D97*
X320533Y296098D03*
D121*
X320017Y296245D03*
D11*
X311912Y411030D02*
X328168Y411030D01*
X311912Y406515D02*
X311912Y415546D01*
X311912Y425619D02*
X328168Y420201D01*
X328168Y431038D02*
X311912Y425619D01*
X324104Y429683D02*
X324104Y421555D01*
X305308Y411201D02*
X289052Y411201D01*
X289052Y406686D02*
X289052Y415717D01*
X296277Y422007D02*
X296277Y426522D01*
X296276Y426522D02*
X296278Y426655D01*
X296284Y426787D01*
X296294Y426919D01*
X296307Y427051D01*
X296325Y427183D01*
X296346Y427313D01*
X296371Y427444D01*
X296400Y427573D01*
X296433Y427701D01*
X296469Y427829D01*
X296509Y427955D01*
X296553Y428080D01*
X296601Y428204D01*
X296652Y428326D01*
X296707Y428447D01*
X296765Y428566D01*
X296827Y428684D01*
X296892Y428799D01*
X296961Y428913D01*
X297032Y429024D01*
X297108Y429133D01*
X297186Y429240D01*
X297267Y429345D01*
X297352Y429447D01*
X297439Y429547D01*
X297529Y429644D01*
X297622Y429739D01*
X297718Y429830D01*
X297816Y429919D01*
X297917Y430005D01*
X298021Y430088D01*
X298127Y430168D01*
X298235Y430244D01*
X298345Y430318D01*
X298458Y430388D01*
X298572Y430455D01*
X298689Y430518D01*
X298807Y430578D01*
X298927Y430635D01*
X299049Y430688D01*
X299172Y430737D01*
X299296Y430783D01*
X299422Y430825D01*
X299549Y430863D01*
X299677Y430898D01*
X299806Y430929D01*
X299935Y430956D01*
X300066Y430979D01*
X300197Y430999D01*
X300329Y431014D01*
X300461Y431026D01*
X300593Y431034D01*
X300726Y431038D01*
X300858Y431038D01*
X300991Y431034D01*
X301123Y431026D01*
X301255Y431014D01*
X301387Y430999D01*
X301518Y430979D01*
X301649Y430956D01*
X301778Y430929D01*
X301907Y430898D01*
X302035Y430863D01*
X302162Y430825D01*
X302288Y430783D01*
X302412Y430737D01*
X302535Y430688D01*
X302657Y430635D01*
X302777Y430578D01*
X302895Y430518D01*
X303012Y430455D01*
X303126Y430388D01*
X303239Y430318D01*
X303349Y430244D01*
X303457Y430168D01*
X303563Y430088D01*
X303667Y430005D01*
X303768Y429919D01*
X303866Y429830D01*
X303962Y429739D01*
X304055Y429644D01*
X304145Y429547D01*
X304232Y429447D01*
X304317Y429345D01*
X304398Y429240D01*
X304476Y429133D01*
X304552Y429024D01*
X304623Y428913D01*
X304692Y428799D01*
X304757Y428684D01*
X304819Y428566D01*
X304877Y428447D01*
X304932Y428326D01*
X304983Y428204D01*
X305031Y428080D01*
X305075Y427955D01*
X305115Y427829D01*
X305151Y427701D01*
X305184Y427573D01*
X305213Y427444D01*
X305238Y427313D01*
X305259Y427183D01*
X305277Y427051D01*
X305290Y426919D01*
X305300Y426787D01*
X305306Y426655D01*
X305308Y426522D01*
X305308Y422007D01*
X289052Y422007D01*
X289052Y426522D01*
X289054Y426641D01*
X289060Y426761D01*
X289070Y426880D01*
X289084Y426998D01*
X289101Y427117D01*
X289123Y427234D01*
X289148Y427351D01*
X289178Y427466D01*
X289211Y427581D01*
X289248Y427695D01*
X289288Y427807D01*
X289333Y427918D01*
X289381Y428027D01*
X289432Y428135D01*
X289487Y428241D01*
X289546Y428345D01*
X289608Y428447D01*
X289673Y428547D01*
X289742Y428645D01*
X289814Y428741D01*
X289889Y428834D01*
X289966Y428924D01*
X290047Y429012D01*
X290131Y429097D01*
X290218Y429179D01*
X290307Y429259D01*
X290399Y429335D01*
X290493Y429409D01*
X290590Y429479D01*
X290688Y429546D01*
X290789Y429610D01*
X290893Y429670D01*
X290998Y429727D01*
X291105Y429780D01*
X291213Y429830D01*
X291323Y429876D01*
X291435Y429918D01*
X291548Y429957D01*
X291662Y429992D01*
X291777Y430023D01*
X291894Y430051D01*
X292011Y430074D01*
X292128Y430094D01*
X292247Y430110D01*
X292366Y430122D01*
X292485Y430130D01*
X292604Y430134D01*
X292724Y430134D01*
X292843Y430130D01*
X292962Y430122D01*
X293081Y430110D01*
X293200Y430094D01*
X293317Y430074D01*
X293434Y430051D01*
X293551Y430023D01*
X293666Y429992D01*
X293780Y429957D01*
X293893Y429918D01*
X294005Y429876D01*
X294115Y429830D01*
X294223Y429780D01*
X294330Y429727D01*
X294435Y429670D01*
X294539Y429610D01*
X294640Y429546D01*
X294738Y429479D01*
X294835Y429409D01*
X294929Y429335D01*
X295021Y429259D01*
X295110Y429179D01*
X295197Y429097D01*
X295281Y429012D01*
X295362Y428924D01*
X295439Y428834D01*
X295514Y428741D01*
X295586Y428645D01*
X295655Y428547D01*
X295720Y428447D01*
X295782Y428345D01*
X295841Y428241D01*
X295896Y428135D01*
X295947Y428027D01*
X295995Y427918D01*
X296040Y427807D01*
X296080Y427695D01*
X296117Y427581D01*
X296150Y427466D01*
X296180Y427351D01*
X296205Y427234D01*
X296227Y427117D01*
X296244Y426998D01*
X296258Y426880D01*
X296268Y426761D01*
X296274Y426641D01*
X296276Y426522D01*
D122*
X410464Y415544D02*
X412835Y422656D01*
X415205Y415544D01*
X414613Y417322D02*
X411057Y417322D01*
X419279Y415544D02*
X420860Y415544D01*
X419279Y415544D02*
X419201Y415546D01*
X419124Y415552D01*
X419047Y415561D01*
X418971Y415574D01*
X418895Y415591D01*
X418820Y415612D01*
X418747Y415636D01*
X418674Y415664D01*
X418603Y415696D01*
X418534Y415731D01*
X418467Y415769D01*
X418401Y415810D01*
X418338Y415855D01*
X418277Y415903D01*
X418218Y415953D01*
X418162Y416007D01*
X418108Y416063D01*
X418058Y416122D01*
X418010Y416183D01*
X417965Y416246D01*
X417924Y416312D01*
X417886Y416379D01*
X417851Y416448D01*
X417819Y416519D01*
X417791Y416592D01*
X417767Y416665D01*
X417746Y416740D01*
X417729Y416816D01*
X417716Y416892D01*
X417707Y416969D01*
X417701Y417046D01*
X417699Y417124D01*
X417699Y421076D01*
X417701Y421154D01*
X417707Y421231D01*
X417716Y421308D01*
X417729Y421384D01*
X417746Y421460D01*
X417767Y421535D01*
X417791Y421608D01*
X417819Y421681D01*
X417851Y421752D01*
X417886Y421821D01*
X417924Y421888D01*
X417965Y421954D01*
X418010Y422017D01*
X418058Y422078D01*
X418108Y422137D01*
X418162Y422193D01*
X418218Y422247D01*
X418277Y422297D01*
X418338Y422345D01*
X418401Y422390D01*
X418467Y422431D01*
X418534Y422469D01*
X418603Y422504D01*
X418674Y422536D01*
X418747Y422564D01*
X418820Y422588D01*
X418895Y422609D01*
X418971Y422626D01*
X419047Y422639D01*
X419124Y422648D01*
X419201Y422654D01*
X419279Y422656D01*
X420860Y422656D01*
X428608Y422656D02*
X428608Y415544D01*
X426632Y422656D02*
X430584Y422656D01*
X434156Y415544D02*
X436132Y415544D01*
X434156Y415544D02*
X434090Y415546D01*
X434023Y415551D01*
X433958Y415561D01*
X433892Y415574D01*
X433828Y415590D01*
X433765Y415610D01*
X433703Y415634D01*
X433642Y415661D01*
X433583Y415692D01*
X433526Y415726D01*
X433470Y415763D01*
X433417Y415803D01*
X433366Y415845D01*
X433318Y415891D01*
X433272Y415939D01*
X433230Y415990D01*
X433190Y416043D01*
X433153Y416099D01*
X433119Y416156D01*
X433088Y416215D01*
X433061Y416276D01*
X433037Y416338D01*
X433017Y416401D01*
X433001Y416465D01*
X432988Y416531D01*
X432978Y416596D01*
X432973Y416663D01*
X432971Y416729D01*
X432971Y418705D01*
X432972Y418705D02*
X432974Y418784D01*
X432980Y418862D01*
X432990Y418940D01*
X433003Y419018D01*
X433021Y419095D01*
X433042Y419171D01*
X433067Y419245D01*
X433096Y419319D01*
X433128Y419391D01*
X433164Y419461D01*
X433204Y419529D01*
X433247Y419595D01*
X433293Y419659D01*
X433342Y419721D01*
X433394Y419780D01*
X433449Y419836D01*
X433507Y419890D01*
X433567Y419940D01*
X433630Y419988D01*
X433695Y420032D01*
X433762Y420073D01*
X433831Y420111D01*
X433902Y420145D01*
X433975Y420176D01*
X434049Y420203D01*
X434124Y420226D01*
X434200Y420245D01*
X434278Y420261D01*
X434356Y420273D01*
X434434Y420281D01*
X434513Y420285D01*
X434591Y420285D01*
X434670Y420281D01*
X434748Y420273D01*
X434826Y420261D01*
X434904Y420245D01*
X434980Y420226D01*
X435055Y420203D01*
X435129Y420176D01*
X435202Y420145D01*
X435273Y420111D01*
X435342Y420073D01*
X435409Y420032D01*
X435474Y419988D01*
X435537Y419940D01*
X435597Y419890D01*
X435655Y419836D01*
X435710Y419780D01*
X435762Y419721D01*
X435811Y419659D01*
X435857Y419595D01*
X435900Y419529D01*
X435940Y419461D01*
X435976Y419391D01*
X436008Y419319D01*
X436037Y419245D01*
X436062Y419171D01*
X436083Y419095D01*
X436101Y419018D01*
X436114Y418940D01*
X436124Y418862D01*
X436130Y418784D01*
X436132Y418705D01*
X436132Y417915D01*
X432971Y417915D01*
X439180Y420285D02*
X439180Y415544D01*
X439180Y420285D02*
X441550Y420285D01*
X441550Y419495D01*
X444068Y420285D02*
X444068Y415544D01*
X444068Y420285D02*
X447624Y420285D01*
X447690Y420283D01*
X447757Y420278D01*
X447822Y420268D01*
X447888Y420255D01*
X447952Y420239D01*
X448015Y420219D01*
X448077Y420195D01*
X448138Y420168D01*
X448197Y420137D01*
X448254Y420103D01*
X448310Y420066D01*
X448363Y420026D01*
X448414Y419984D01*
X448462Y419938D01*
X448508Y419890D01*
X448550Y419839D01*
X448590Y419786D01*
X448627Y419730D01*
X448661Y419673D01*
X448692Y419614D01*
X448719Y419553D01*
X448743Y419491D01*
X448763Y419428D01*
X448779Y419364D01*
X448792Y419298D01*
X448802Y419233D01*
X448807Y419166D01*
X448809Y419100D01*
X448809Y415544D01*
X446439Y415544D02*
X446439Y420285D01*
D11*
X395337Y399683D02*
X395337Y396974D01*
X395337Y399683D02*
X404368Y399683D01*
X404368Y394264D01*
X404366Y394146D01*
X404360Y394028D01*
X404351Y393910D01*
X404337Y393793D01*
X404320Y393676D01*
X404299Y393559D01*
X404274Y393444D01*
X404245Y393329D01*
X404212Y393215D01*
X404176Y393103D01*
X404136Y392992D01*
X404093Y392882D01*
X404046Y392773D01*
X403996Y392666D01*
X403941Y392561D01*
X403884Y392458D01*
X403823Y392357D01*
X403759Y392257D01*
X403692Y392160D01*
X403622Y392065D01*
X403548Y391973D01*
X403472Y391882D01*
X403392Y391795D01*
X403310Y391710D01*
X403225Y391628D01*
X403138Y391548D01*
X403047Y391472D01*
X402955Y391398D01*
X402860Y391328D01*
X402763Y391261D01*
X402663Y391197D01*
X402562Y391136D01*
X402459Y391079D01*
X402354Y391024D01*
X402247Y390974D01*
X402138Y390927D01*
X402028Y390884D01*
X401917Y390844D01*
X401805Y390808D01*
X401691Y390775D01*
X401576Y390746D01*
X401461Y390721D01*
X401344Y390700D01*
X401227Y390683D01*
X401110Y390669D01*
X400992Y390660D01*
X400874Y390654D01*
X400756Y390652D01*
X391724Y390652D01*
X391606Y390654D01*
X391488Y390660D01*
X391370Y390669D01*
X391252Y390683D01*
X391135Y390700D01*
X391019Y390721D01*
X390904Y390746D01*
X390789Y390775D01*
X390675Y390808D01*
X390563Y390844D01*
X390451Y390884D01*
X390341Y390927D01*
X390233Y390974D01*
X390126Y391025D01*
X390021Y391079D01*
X389918Y391136D01*
X389816Y391197D01*
X389717Y391261D01*
X389620Y391328D01*
X389525Y391399D01*
X389432Y391472D01*
X389342Y391549D01*
X389254Y391628D01*
X389169Y391710D01*
X389087Y391795D01*
X389008Y391883D01*
X388931Y391973D01*
X388858Y392066D01*
X388787Y392160D01*
X388720Y392258D01*
X388656Y392357D01*
X388595Y392458D01*
X388538Y392562D01*
X388484Y392667D01*
X388433Y392774D01*
X388386Y392882D01*
X388343Y392992D01*
X388303Y393104D01*
X388267Y393216D01*
X388234Y393330D01*
X388205Y393445D01*
X388180Y393560D01*
X388159Y393676D01*
X388142Y393793D01*
X388128Y393911D01*
X388119Y394029D01*
X388113Y394147D01*
X388111Y394265D01*
X388112Y394264D02*
X388112Y399683D01*
X388112Y407325D02*
X404368Y407325D01*
X404368Y416356D02*
X388112Y407325D01*
X388112Y416356D02*
X404368Y416356D01*
X404368Y423999D02*
X388112Y423999D01*
X388112Y428514D01*
X388114Y428645D01*
X388120Y428777D01*
X388129Y428908D01*
X388143Y429038D01*
X388160Y429169D01*
X388181Y429298D01*
X388205Y429427D01*
X388234Y429555D01*
X388266Y429683D01*
X388302Y429809D01*
X388341Y429934D01*
X388384Y430059D01*
X388431Y430181D01*
X388481Y430303D01*
X388535Y430423D01*
X388592Y430541D01*
X388653Y430657D01*
X388717Y430772D01*
X388784Y430885D01*
X388855Y430996D01*
X388929Y431104D01*
X389006Y431211D01*
X389086Y431315D01*
X389169Y431417D01*
X389254Y431516D01*
X389343Y431613D01*
X389435Y431707D01*
X389529Y431799D01*
X389626Y431888D01*
X389725Y431973D01*
X389827Y432056D01*
X389931Y432136D01*
X390038Y432213D01*
X390146Y432287D01*
X390257Y432358D01*
X390370Y432425D01*
X390485Y432489D01*
X390601Y432550D01*
X390719Y432607D01*
X390839Y432661D01*
X390961Y432711D01*
X391083Y432758D01*
X391208Y432801D01*
X391333Y432840D01*
X391459Y432876D01*
X391587Y432908D01*
X391715Y432937D01*
X391844Y432961D01*
X391973Y432982D01*
X392104Y432999D01*
X392234Y433013D01*
X392365Y433022D01*
X392497Y433028D01*
X392628Y433030D01*
X399852Y433030D01*
X399983Y433028D01*
X400115Y433022D01*
X400246Y433013D01*
X400376Y432999D01*
X400507Y432982D01*
X400636Y432961D01*
X400765Y432937D01*
X400893Y432908D01*
X401021Y432876D01*
X401147Y432840D01*
X401272Y432801D01*
X401397Y432758D01*
X401519Y432711D01*
X401641Y432661D01*
X401761Y432607D01*
X401879Y432550D01*
X401995Y432489D01*
X402110Y432425D01*
X402223Y432358D01*
X402334Y432287D01*
X402442Y432213D01*
X402549Y432136D01*
X402653Y432056D01*
X402755Y431973D01*
X402854Y431888D01*
X402951Y431799D01*
X403045Y431707D01*
X403137Y431613D01*
X403226Y431516D01*
X403311Y431417D01*
X403394Y431315D01*
X403474Y431211D01*
X403551Y431104D01*
X403625Y430996D01*
X403696Y430885D01*
X403763Y430772D01*
X403827Y430657D01*
X403888Y430541D01*
X403945Y430423D01*
X403999Y430303D01*
X404049Y430181D01*
X404096Y430059D01*
X404139Y429934D01*
X404178Y429809D01*
X404214Y429683D01*
X404246Y429555D01*
X404275Y429427D01*
X404299Y429298D01*
X404320Y429168D01*
X404337Y429038D01*
X404351Y428908D01*
X404360Y428777D01*
X404366Y428645D01*
X404368Y428514D01*
X404368Y423999D01*
D123*
X283401Y246148D02*
X280901Y246148D01*
X283401Y246148D02*
X285901Y246148D01*
X283401Y246148D02*
X280901Y251148D01*
X285901Y251148D02*
X283401Y246148D01*
X285901Y251148D02*
X280901Y251148D01*
X278401Y261148D02*
X288401Y261148D01*
X288401Y236148D01*
X278401Y236148D01*
X278401Y261148D01*
D124*
X274342Y239546D02*
X264944Y239546D01*
X264944Y242157D01*
X264943Y242157D02*
X264945Y242257D01*
X264951Y242357D01*
X264960Y242456D01*
X264974Y242556D01*
X264991Y242654D01*
X265012Y242752D01*
X265036Y242849D01*
X265065Y242945D01*
X265097Y243040D01*
X265132Y243133D01*
X265171Y243225D01*
X265214Y243316D01*
X265260Y243404D01*
X265310Y243491D01*
X265362Y243576D01*
X265418Y243659D01*
X265477Y243740D01*
X265540Y243818D01*
X265605Y243894D01*
X265673Y243968D01*
X265743Y244038D01*
X265817Y244106D01*
X265893Y244171D01*
X265971Y244234D01*
X266052Y244293D01*
X266135Y244349D01*
X266220Y244401D01*
X266307Y244451D01*
X266395Y244497D01*
X266486Y244540D01*
X266578Y244579D01*
X266671Y244614D01*
X266766Y244646D01*
X266862Y244675D01*
X266959Y244699D01*
X267057Y244720D01*
X267155Y244737D01*
X267255Y244751D01*
X267354Y244760D01*
X267454Y244766D01*
X267554Y244768D01*
X267554Y244767D02*
X271731Y244767D01*
X271731Y244768D02*
X271831Y244766D01*
X271931Y244760D01*
X272030Y244751D01*
X272130Y244737D01*
X272228Y244720D01*
X272326Y244699D01*
X272423Y244675D01*
X272519Y244646D01*
X272614Y244614D01*
X272707Y244579D01*
X272799Y244540D01*
X272890Y244497D01*
X272978Y244451D01*
X273065Y244401D01*
X273150Y244349D01*
X273233Y244293D01*
X273314Y244234D01*
X273392Y244171D01*
X273468Y244106D01*
X273542Y244038D01*
X273612Y243968D01*
X273680Y243894D01*
X273745Y243818D01*
X273808Y243740D01*
X273867Y243659D01*
X273923Y243576D01*
X273975Y243491D01*
X274025Y243404D01*
X274071Y243316D01*
X274114Y243225D01*
X274153Y243133D01*
X274188Y243040D01*
X274220Y242945D01*
X274249Y242849D01*
X274273Y242752D01*
X274294Y242654D01*
X274311Y242556D01*
X274325Y242456D01*
X274334Y242357D01*
X274340Y242257D01*
X274342Y242157D01*
X274342Y239546D01*
X267032Y248995D02*
X264944Y251605D01*
X274342Y251605D01*
X274342Y248995D02*
X274342Y254216D01*
X432521Y241252D02*
X441919Y241252D01*
X432521Y241252D02*
X432521Y245429D01*
X436698Y245429D02*
X436698Y241252D01*
X436698Y249290D02*
X436698Y251901D01*
X436700Y252002D01*
X436706Y252103D01*
X436716Y252204D01*
X436729Y252304D01*
X436747Y252404D01*
X436768Y252503D01*
X436794Y252601D01*
X436823Y252698D01*
X436855Y252794D01*
X436892Y252888D01*
X436932Y252981D01*
X436976Y253073D01*
X437023Y253162D01*
X437074Y253250D01*
X437128Y253336D01*
X437185Y253419D01*
X437245Y253501D01*
X437309Y253579D01*
X437375Y253656D01*
X437445Y253729D01*
X437517Y253800D01*
X437592Y253868D01*
X437670Y253933D01*
X437750Y253995D01*
X437832Y254054D01*
X437917Y254110D01*
X438004Y254162D01*
X438092Y254211D01*
X438183Y254257D01*
X438275Y254298D01*
X438369Y254337D01*
X438464Y254371D01*
X438560Y254402D01*
X438658Y254429D01*
X438756Y254453D01*
X438856Y254472D01*
X438956Y254488D01*
X439056Y254500D01*
X439157Y254508D01*
X439258Y254512D01*
X439360Y254512D01*
X439461Y254508D01*
X439562Y254500D01*
X439662Y254488D01*
X439762Y254472D01*
X439862Y254453D01*
X439960Y254429D01*
X440058Y254402D01*
X440154Y254371D01*
X440249Y254337D01*
X440343Y254298D01*
X440435Y254257D01*
X440526Y254211D01*
X440615Y254162D01*
X440701Y254110D01*
X440786Y254054D01*
X440868Y253995D01*
X440948Y253933D01*
X441026Y253868D01*
X441101Y253800D01*
X441173Y253729D01*
X441243Y253656D01*
X441309Y253579D01*
X441373Y253501D01*
X441433Y253419D01*
X441490Y253336D01*
X441544Y253250D01*
X441595Y253162D01*
X441642Y253073D01*
X441686Y252981D01*
X441726Y252888D01*
X441763Y252794D01*
X441795Y252698D01*
X441824Y252601D01*
X441850Y252503D01*
X441871Y252404D01*
X441889Y252304D01*
X441902Y252204D01*
X441912Y252103D01*
X441918Y252002D01*
X441920Y251901D01*
X441919Y251901D02*
X441919Y249290D01*
X432521Y249290D01*
X432521Y251901D01*
X432522Y251901D02*
X432524Y251991D01*
X432530Y252080D01*
X432539Y252170D01*
X432553Y252259D01*
X432570Y252347D01*
X432591Y252434D01*
X432616Y252521D01*
X432645Y252606D01*
X432677Y252690D01*
X432712Y252772D01*
X432752Y252853D01*
X432794Y252932D01*
X432840Y253009D01*
X432890Y253084D01*
X432942Y253157D01*
X432998Y253228D01*
X433056Y253296D01*
X433118Y253361D01*
X433182Y253424D01*
X433249Y253484D01*
X433318Y253541D01*
X433390Y253595D01*
X433464Y253646D01*
X433540Y253694D01*
X433618Y253738D01*
X433698Y253779D01*
X433780Y253817D01*
X433863Y253851D01*
X433948Y253881D01*
X434034Y253908D01*
X434120Y253931D01*
X434208Y253950D01*
X434297Y253965D01*
X434386Y253977D01*
X434475Y253985D01*
X434565Y253989D01*
X434655Y253989D01*
X434745Y253985D01*
X434834Y253977D01*
X434923Y253965D01*
X435012Y253950D01*
X435100Y253931D01*
X435186Y253908D01*
X435272Y253881D01*
X435357Y253851D01*
X435440Y253817D01*
X435522Y253779D01*
X435602Y253738D01*
X435680Y253694D01*
X435756Y253646D01*
X435830Y253595D01*
X435902Y253541D01*
X435971Y253484D01*
X436038Y253424D01*
X436102Y253361D01*
X436164Y253296D01*
X436222Y253228D01*
X436278Y253157D01*
X436330Y253084D01*
X436380Y253009D01*
X436426Y252932D01*
X436468Y252853D01*
X436508Y252772D01*
X436543Y252690D01*
X436575Y252606D01*
X436604Y252521D01*
X436629Y252434D01*
X436650Y252347D01*
X436667Y252259D01*
X436681Y252170D01*
X436690Y252080D01*
X436696Y251991D01*
X436698Y251901D01*
X434610Y257998D02*
X432521Y260609D01*
X441919Y260609D01*
X441919Y263219D02*
X441919Y257998D01*
X275046Y266766D02*
X265648Y266766D01*
X265648Y269377D01*
X265650Y269478D01*
X265656Y269579D01*
X265666Y269680D01*
X265679Y269780D01*
X265697Y269880D01*
X265718Y269979D01*
X265744Y270077D01*
X265773Y270174D01*
X265805Y270270D01*
X265842Y270364D01*
X265882Y270457D01*
X265926Y270549D01*
X265973Y270638D01*
X266024Y270726D01*
X266078Y270812D01*
X266135Y270895D01*
X266195Y270977D01*
X266259Y271055D01*
X266325Y271132D01*
X266395Y271205D01*
X266467Y271276D01*
X266542Y271344D01*
X266620Y271409D01*
X266700Y271471D01*
X266782Y271530D01*
X266867Y271586D01*
X266954Y271638D01*
X267042Y271687D01*
X267133Y271733D01*
X267225Y271774D01*
X267319Y271813D01*
X267414Y271847D01*
X267510Y271878D01*
X267608Y271905D01*
X267706Y271929D01*
X267806Y271948D01*
X267906Y271964D01*
X268006Y271976D01*
X268107Y271984D01*
X268208Y271988D01*
X268310Y271988D01*
X268411Y271984D01*
X268512Y271976D01*
X268612Y271964D01*
X268712Y271948D01*
X268812Y271929D01*
X268910Y271905D01*
X269008Y271878D01*
X269104Y271847D01*
X269199Y271813D01*
X269293Y271774D01*
X269385Y271733D01*
X269476Y271687D01*
X269565Y271638D01*
X269651Y271586D01*
X269736Y271530D01*
X269818Y271471D01*
X269898Y271409D01*
X269976Y271344D01*
X270051Y271276D01*
X270123Y271205D01*
X270193Y271132D01*
X270259Y271055D01*
X270323Y270977D01*
X270383Y270895D01*
X270440Y270812D01*
X270494Y270726D01*
X270545Y270638D01*
X270592Y270549D01*
X270636Y270457D01*
X270676Y270364D01*
X270713Y270270D01*
X270745Y270174D01*
X270774Y270077D01*
X270800Y269979D01*
X270821Y269880D01*
X270839Y269780D01*
X270852Y269680D01*
X270862Y269579D01*
X270868Y269478D01*
X270870Y269377D01*
X270870Y266766D01*
X270870Y269899D02*
X275046Y271987D01*
X267737Y275853D02*
X265648Y278463D01*
X275046Y278463D01*
X275046Y275853D02*
X275046Y281074D01*
D11*
X240820Y311658D02*
X240820Y329438D01*
X245759Y329438D01*
X245898Y329436D01*
X246036Y329430D01*
X246174Y329421D01*
X246312Y329407D01*
X246449Y329390D01*
X246586Y329368D01*
X246723Y329343D01*
X246858Y329314D01*
X246993Y329281D01*
X247126Y329245D01*
X247259Y329205D01*
X247390Y329161D01*
X247520Y329113D01*
X247649Y329062D01*
X247776Y329007D01*
X247902Y328949D01*
X248026Y328887D01*
X248148Y328822D01*
X248268Y328753D01*
X248387Y328681D01*
X248503Y328606D01*
X248617Y328527D01*
X248729Y328445D01*
X248838Y328360D01*
X248946Y328273D01*
X249050Y328182D01*
X249152Y328088D01*
X249251Y327991D01*
X249348Y327892D01*
X249442Y327790D01*
X249533Y327686D01*
X249620Y327578D01*
X249705Y327469D01*
X249787Y327357D01*
X249866Y327243D01*
X249941Y327127D01*
X250013Y327008D01*
X250082Y326888D01*
X250147Y326766D01*
X250209Y326642D01*
X250267Y326516D01*
X250322Y326389D01*
X250373Y326260D01*
X250421Y326130D01*
X250465Y325999D01*
X250505Y325866D01*
X250541Y325733D01*
X250574Y325598D01*
X250603Y325463D01*
X250628Y325326D01*
X250650Y325189D01*
X250667Y325052D01*
X250681Y324914D01*
X250690Y324776D01*
X250696Y324638D01*
X250698Y324499D01*
X250698Y316597D01*
X250696Y316458D01*
X250690Y316320D01*
X250681Y316182D01*
X250667Y316044D01*
X250650Y315907D01*
X250628Y315770D01*
X250603Y315633D01*
X250574Y315498D01*
X250541Y315363D01*
X250505Y315230D01*
X250465Y315097D01*
X250421Y314966D01*
X250373Y314836D01*
X250322Y314707D01*
X250267Y314580D01*
X250209Y314454D01*
X250147Y314330D01*
X250082Y314208D01*
X250013Y314088D01*
X249941Y313969D01*
X249866Y313853D01*
X249787Y313739D01*
X249705Y313627D01*
X249620Y313518D01*
X249533Y313410D01*
X249442Y313306D01*
X249348Y313204D01*
X249251Y313105D01*
X249152Y313008D01*
X249050Y312914D01*
X248946Y312823D01*
X248838Y312736D01*
X248729Y312651D01*
X248617Y312569D01*
X248503Y312490D01*
X248387Y312415D01*
X248268Y312343D01*
X248148Y312274D01*
X248026Y312209D01*
X247902Y312147D01*
X247776Y312089D01*
X247649Y312034D01*
X247520Y311983D01*
X247390Y311935D01*
X247259Y311891D01*
X247126Y311851D01*
X246993Y311815D01*
X246858Y311782D01*
X246723Y311753D01*
X246586Y311728D01*
X246449Y311706D01*
X246312Y311689D01*
X246174Y311675D01*
X246036Y311666D01*
X245898Y311660D01*
X245759Y311658D01*
X240820Y311658D01*
X244994Y337530D02*
X248945Y337530D01*
X244994Y337531D02*
X244870Y337533D01*
X244746Y337539D01*
X244622Y337549D01*
X244499Y337562D01*
X244376Y337580D01*
X244254Y337601D01*
X244132Y337626D01*
X244011Y337655D01*
X243892Y337688D01*
X243773Y337724D01*
X243656Y337765D01*
X243540Y337808D01*
X243425Y337856D01*
X243312Y337907D01*
X243200Y337962D01*
X243091Y338020D01*
X242983Y338081D01*
X242877Y338146D01*
X242773Y338214D01*
X242672Y338286D01*
X242572Y338360D01*
X242476Y338438D01*
X242381Y338518D01*
X242289Y338602D01*
X242200Y338688D01*
X242114Y338777D01*
X242030Y338869D01*
X241950Y338964D01*
X241872Y339060D01*
X241798Y339160D01*
X241726Y339261D01*
X241658Y339365D01*
X241593Y339471D01*
X241532Y339579D01*
X241474Y339688D01*
X241419Y339800D01*
X241368Y339913D01*
X241320Y340028D01*
X241277Y340144D01*
X241236Y340261D01*
X241200Y340380D01*
X241167Y340499D01*
X241138Y340620D01*
X241113Y340742D01*
X241092Y340864D01*
X241074Y340987D01*
X241061Y341110D01*
X241051Y341234D01*
X241045Y341358D01*
X241043Y341482D01*
X241043Y351359D01*
X241045Y351483D01*
X241051Y351607D01*
X241061Y351731D01*
X241074Y351854D01*
X241092Y351977D01*
X241113Y352099D01*
X241138Y352221D01*
X241167Y352342D01*
X241200Y352461D01*
X241236Y352580D01*
X241277Y352697D01*
X241320Y352813D01*
X241368Y352928D01*
X241419Y353041D01*
X241474Y353153D01*
X241532Y353262D01*
X241593Y353370D01*
X241658Y353476D01*
X241726Y353580D01*
X241798Y353681D01*
X241872Y353781D01*
X241950Y353877D01*
X242030Y353972D01*
X242114Y354064D01*
X242200Y354153D01*
X242289Y354239D01*
X242381Y354323D01*
X242476Y354403D01*
X242572Y354481D01*
X242672Y354555D01*
X242773Y354627D01*
X242877Y354695D01*
X242983Y354760D01*
X243091Y354821D01*
X243200Y354879D01*
X243312Y354934D01*
X243425Y354985D01*
X243540Y355033D01*
X243656Y355076D01*
X243773Y355117D01*
X243892Y355153D01*
X244011Y355186D01*
X244132Y355215D01*
X244254Y355240D01*
X244376Y355261D01*
X244499Y355279D01*
X244622Y355292D01*
X244746Y355302D01*
X244870Y355308D01*
X244994Y355310D01*
X248945Y355310D01*
X265016Y445053D02*
X269955Y445053D01*
X270095Y445051D01*
X270234Y445045D01*
X270374Y445035D01*
X270513Y445021D01*
X270652Y445004D01*
X270790Y444982D01*
X270927Y444956D01*
X271064Y444927D01*
X271200Y444894D01*
X271334Y444857D01*
X271468Y444816D01*
X271600Y444771D01*
X271732Y444722D01*
X271861Y444670D01*
X271989Y444615D01*
X272116Y444555D01*
X272241Y444492D01*
X272364Y444426D01*
X272485Y444356D01*
X272604Y444283D01*
X272721Y444206D01*
X272835Y444126D01*
X272948Y444043D01*
X273058Y443957D01*
X273165Y443867D01*
X273270Y443775D01*
X273372Y443680D01*
X273472Y443582D01*
X273569Y443481D01*
X273663Y443377D01*
X273753Y443271D01*
X273841Y443162D01*
X273926Y443051D01*
X274007Y442937D01*
X274086Y442822D01*
X274161Y442704D01*
X274232Y442584D01*
X274300Y442461D01*
X274365Y442338D01*
X274426Y442212D01*
X274484Y442084D01*
X274538Y441956D01*
X274588Y441825D01*
X274635Y441693D01*
X274678Y441560D01*
X274717Y441426D01*
X274752Y441291D01*
X274783Y441155D01*
X274811Y441017D01*
X274834Y440880D01*
X274854Y440741D01*
X274870Y440602D01*
X274882Y440463D01*
X274890Y440324D01*
X274894Y440184D01*
X274894Y440044D01*
X274890Y439904D01*
X274882Y439765D01*
X274870Y439626D01*
X274854Y439487D01*
X274834Y439348D01*
X274811Y439211D01*
X274783Y439073D01*
X274752Y438937D01*
X274717Y438802D01*
X274678Y438668D01*
X274635Y438535D01*
X274588Y438403D01*
X274538Y438272D01*
X274484Y438144D01*
X274426Y438016D01*
X274365Y437890D01*
X274300Y437767D01*
X274232Y437645D01*
X274161Y437524D01*
X274086Y437406D01*
X274007Y437291D01*
X273926Y437177D01*
X273841Y437066D01*
X273753Y436957D01*
X273663Y436851D01*
X273569Y436747D01*
X273472Y436646D01*
X273372Y436548D01*
X273270Y436453D01*
X273165Y436361D01*
X273058Y436271D01*
X272948Y436185D01*
X272835Y436102D01*
X272721Y436022D01*
X272604Y435945D01*
X272485Y435872D01*
X272364Y435802D01*
X272241Y435736D01*
X272116Y435673D01*
X271989Y435613D01*
X271861Y435558D01*
X271732Y435506D01*
X271600Y435457D01*
X271468Y435412D01*
X271334Y435371D01*
X271200Y435334D01*
X271064Y435301D01*
X270927Y435272D01*
X270790Y435246D01*
X270652Y435224D01*
X270513Y435207D01*
X270374Y435193D01*
X270234Y435183D01*
X270095Y435177D01*
X269955Y435175D01*
X269955Y435176D02*
X265016Y435176D01*
X265016Y452956D01*
X269955Y452956D01*
X269955Y452955D02*
X270079Y452953D01*
X270203Y452947D01*
X270327Y452937D01*
X270450Y452924D01*
X270573Y452906D01*
X270695Y452885D01*
X270817Y452860D01*
X270938Y452831D01*
X271057Y452798D01*
X271176Y452762D01*
X271293Y452721D01*
X271409Y452678D01*
X271524Y452630D01*
X271637Y452579D01*
X271749Y452524D01*
X271858Y452466D01*
X271966Y452405D01*
X272072Y452340D01*
X272176Y452272D01*
X272277Y452200D01*
X272377Y452126D01*
X272473Y452048D01*
X272568Y451968D01*
X272660Y451884D01*
X272749Y451798D01*
X272835Y451709D01*
X272919Y451617D01*
X272999Y451522D01*
X273077Y451426D01*
X273151Y451326D01*
X273223Y451225D01*
X273291Y451121D01*
X273356Y451015D01*
X273417Y450907D01*
X273475Y450798D01*
X273530Y450686D01*
X273581Y450573D01*
X273629Y450458D01*
X273672Y450342D01*
X273713Y450225D01*
X273749Y450106D01*
X273782Y449987D01*
X273811Y449866D01*
X273836Y449744D01*
X273857Y449622D01*
X273875Y449499D01*
X273888Y449376D01*
X273898Y449252D01*
X273904Y449128D01*
X273906Y449004D01*
X273904Y448880D01*
X273898Y448756D01*
X273888Y448632D01*
X273875Y448509D01*
X273857Y448386D01*
X273836Y448264D01*
X273811Y448142D01*
X273782Y448021D01*
X273749Y447902D01*
X273713Y447783D01*
X273672Y447666D01*
X273629Y447550D01*
X273581Y447435D01*
X273530Y447322D01*
X273475Y447210D01*
X273417Y447101D01*
X273356Y446993D01*
X273291Y446887D01*
X273223Y446783D01*
X273151Y446682D01*
X273077Y446582D01*
X272999Y446486D01*
X272919Y446391D01*
X272835Y446299D01*
X272749Y446210D01*
X272660Y446124D01*
X272568Y446040D01*
X272473Y445960D01*
X272377Y445882D01*
X272277Y445808D01*
X272176Y445736D01*
X272072Y445668D01*
X271966Y445603D01*
X271858Y445542D01*
X271749Y445484D01*
X271637Y445429D01*
X271524Y445378D01*
X271409Y445330D01*
X271293Y445287D01*
X271176Y445246D01*
X271057Y445210D01*
X270938Y445177D01*
X270817Y445148D01*
X270695Y445123D01*
X270573Y445102D01*
X270450Y445084D01*
X270327Y445071D01*
X270203Y445061D01*
X270079Y445055D01*
X269955Y445053D01*
X460914Y330911D02*
X460914Y313131D01*
X460914Y330911D02*
X465852Y330911D01*
X465992Y330909D01*
X466131Y330903D01*
X466271Y330893D01*
X466410Y330879D01*
X466549Y330862D01*
X466687Y330840D01*
X466824Y330814D01*
X466961Y330785D01*
X467097Y330752D01*
X467231Y330715D01*
X467365Y330674D01*
X467497Y330629D01*
X467629Y330580D01*
X467758Y330528D01*
X467886Y330473D01*
X468013Y330413D01*
X468138Y330350D01*
X468261Y330284D01*
X468382Y330214D01*
X468501Y330141D01*
X468618Y330064D01*
X468732Y329984D01*
X468845Y329901D01*
X468955Y329815D01*
X469062Y329725D01*
X469167Y329633D01*
X469269Y329538D01*
X469369Y329440D01*
X469466Y329339D01*
X469560Y329235D01*
X469650Y329129D01*
X469738Y329020D01*
X469823Y328909D01*
X469904Y328795D01*
X469983Y328680D01*
X470058Y328562D01*
X470129Y328442D01*
X470197Y328319D01*
X470262Y328196D01*
X470323Y328070D01*
X470381Y327942D01*
X470435Y327814D01*
X470485Y327683D01*
X470532Y327551D01*
X470575Y327418D01*
X470614Y327284D01*
X470649Y327149D01*
X470680Y327013D01*
X470708Y326875D01*
X470731Y326738D01*
X470751Y326599D01*
X470767Y326460D01*
X470779Y326321D01*
X470787Y326182D01*
X470791Y326042D01*
X470791Y325902D01*
X470787Y325762D01*
X470779Y325623D01*
X470767Y325484D01*
X470751Y325345D01*
X470731Y325206D01*
X470708Y325069D01*
X470680Y324931D01*
X470649Y324795D01*
X470614Y324660D01*
X470575Y324526D01*
X470532Y324393D01*
X470485Y324261D01*
X470435Y324130D01*
X470381Y324002D01*
X470323Y323874D01*
X470262Y323748D01*
X470197Y323625D01*
X470129Y323503D01*
X470058Y323382D01*
X469983Y323264D01*
X469904Y323149D01*
X469823Y323035D01*
X469738Y322924D01*
X469650Y322815D01*
X469560Y322709D01*
X469466Y322605D01*
X469369Y322504D01*
X469269Y322406D01*
X469167Y322311D01*
X469062Y322219D01*
X468955Y322129D01*
X468845Y322043D01*
X468732Y321960D01*
X468618Y321880D01*
X468501Y321803D01*
X468382Y321730D01*
X468261Y321660D01*
X468138Y321594D01*
X468013Y321531D01*
X467886Y321471D01*
X467758Y321416D01*
X467629Y321364D01*
X467497Y321315D01*
X467365Y321270D01*
X467231Y321229D01*
X467097Y321192D01*
X466961Y321159D01*
X466824Y321130D01*
X466687Y321104D01*
X466549Y321082D01*
X466410Y321065D01*
X466271Y321051D01*
X466131Y321041D01*
X465992Y321035D01*
X465852Y321033D01*
X460914Y321033D01*
X466840Y321033D02*
X470791Y313131D01*
X379527Y390995D02*
X359397Y390995D01*
D124*
X371729Y334845D02*
X371729Y332757D01*
X371727Y332668D01*
X371721Y332580D01*
X371712Y332492D01*
X371699Y332404D01*
X371682Y332317D01*
X371662Y332231D01*
X371637Y332146D01*
X371610Y332061D01*
X371578Y331978D01*
X371544Y331897D01*
X371505Y331817D01*
X371464Y331739D01*
X371419Y331662D01*
X371371Y331588D01*
X371320Y331515D01*
X371266Y331445D01*
X371208Y331378D01*
X371148Y331312D01*
X371086Y331250D01*
X371020Y331190D01*
X370953Y331132D01*
X370883Y331078D01*
X370810Y331027D01*
X370736Y330979D01*
X370659Y330934D01*
X370581Y330893D01*
X370501Y330854D01*
X370420Y330820D01*
X370337Y330788D01*
X370252Y330761D01*
X370167Y330736D01*
X370081Y330716D01*
X369994Y330699D01*
X369906Y330686D01*
X369818Y330677D01*
X369730Y330671D01*
X369641Y330669D01*
X369641Y330668D02*
X364419Y330668D01*
X364328Y330670D01*
X364237Y330676D01*
X364146Y330686D01*
X364056Y330700D01*
X363967Y330718D01*
X363878Y330739D01*
X363791Y330765D01*
X363705Y330794D01*
X363620Y330827D01*
X363536Y330864D01*
X363454Y330904D01*
X363375Y330948D01*
X363297Y330995D01*
X363221Y331046D01*
X363147Y331100D01*
X363076Y331157D01*
X363008Y331217D01*
X362942Y331280D01*
X362879Y331346D01*
X362819Y331414D01*
X362762Y331485D01*
X362708Y331559D01*
X362657Y331635D01*
X362610Y331712D01*
X362566Y331792D01*
X362526Y331874D01*
X362489Y331958D01*
X362456Y332042D01*
X362427Y332129D01*
X362401Y332216D01*
X362380Y332305D01*
X362362Y332394D01*
X362348Y332484D01*
X362338Y332575D01*
X362332Y332666D01*
X362330Y332757D01*
X362331Y332757D02*
X362331Y334845D01*
X364419Y338314D02*
X362331Y340924D01*
X371729Y340924D01*
X371729Y338314D02*
X371729Y343535D01*
X364419Y347458D02*
X362331Y350068D01*
X371729Y350068D01*
X371729Y347458D02*
X371729Y352679D01*
X353949Y336115D02*
X353949Y334027D01*
X353947Y333938D01*
X353941Y333850D01*
X353932Y333762D01*
X353919Y333674D01*
X353902Y333587D01*
X353882Y333501D01*
X353857Y333416D01*
X353830Y333331D01*
X353798Y333248D01*
X353764Y333167D01*
X353725Y333087D01*
X353684Y333009D01*
X353639Y332932D01*
X353591Y332858D01*
X353540Y332785D01*
X353486Y332715D01*
X353428Y332648D01*
X353368Y332582D01*
X353306Y332520D01*
X353240Y332460D01*
X353173Y332402D01*
X353103Y332348D01*
X353030Y332297D01*
X352956Y332249D01*
X352879Y332204D01*
X352801Y332163D01*
X352721Y332124D01*
X352640Y332090D01*
X352557Y332058D01*
X352472Y332031D01*
X352387Y332006D01*
X352301Y331986D01*
X352214Y331969D01*
X352126Y331956D01*
X352038Y331947D01*
X351950Y331941D01*
X351861Y331939D01*
X351861Y331938D02*
X346639Y331938D01*
X346548Y331940D01*
X346457Y331946D01*
X346366Y331956D01*
X346276Y331970D01*
X346187Y331988D01*
X346098Y332009D01*
X346011Y332035D01*
X345925Y332064D01*
X345840Y332097D01*
X345756Y332134D01*
X345674Y332174D01*
X345595Y332218D01*
X345517Y332265D01*
X345441Y332316D01*
X345367Y332370D01*
X345296Y332427D01*
X345228Y332487D01*
X345162Y332550D01*
X345099Y332616D01*
X345039Y332684D01*
X344982Y332755D01*
X344928Y332829D01*
X344877Y332905D01*
X344830Y332982D01*
X344786Y333062D01*
X344746Y333144D01*
X344709Y333228D01*
X344676Y333312D01*
X344647Y333399D01*
X344621Y333486D01*
X344600Y333575D01*
X344582Y333664D01*
X344568Y333754D01*
X344558Y333845D01*
X344552Y333936D01*
X344550Y334027D01*
X344551Y334027D02*
X344551Y336115D01*
X346639Y339584D02*
X344551Y342194D01*
X353949Y342194D01*
X353949Y339584D02*
X353949Y344805D01*
X349250Y348728D02*
X349065Y348730D01*
X348880Y348737D01*
X348696Y348748D01*
X348512Y348763D01*
X348328Y348783D01*
X348144Y348807D01*
X347962Y348836D01*
X347780Y348869D01*
X347599Y348906D01*
X347419Y348948D01*
X347239Y348994D01*
X347061Y349044D01*
X346885Y349098D01*
X346709Y349157D01*
X346535Y349219D01*
X346363Y349286D01*
X346192Y349357D01*
X346023Y349432D01*
X345856Y349511D01*
X345856Y349510D02*
X345776Y349540D01*
X345697Y349573D01*
X345620Y349610D01*
X345544Y349650D01*
X345470Y349693D01*
X345398Y349739D01*
X345329Y349789D01*
X345261Y349841D01*
X345196Y349897D01*
X345133Y349955D01*
X345074Y350017D01*
X345016Y350080D01*
X344962Y350147D01*
X344911Y350215D01*
X344863Y350286D01*
X344818Y350359D01*
X344776Y350433D01*
X344738Y350510D01*
X344703Y350588D01*
X344671Y350667D01*
X344643Y350748D01*
X344619Y350830D01*
X344598Y350914D01*
X344581Y350997D01*
X344568Y351082D01*
X344559Y351167D01*
X344553Y351252D01*
X344551Y351338D01*
X344553Y351424D01*
X344559Y351509D01*
X344568Y351594D01*
X344581Y351679D01*
X344598Y351762D01*
X344619Y351846D01*
X344643Y351928D01*
X344671Y352009D01*
X344703Y352088D01*
X344738Y352166D01*
X344776Y352243D01*
X344818Y352317D01*
X344863Y352390D01*
X344911Y352461D01*
X344962Y352529D01*
X345016Y352596D01*
X345074Y352659D01*
X345133Y352721D01*
X345196Y352779D01*
X345261Y352835D01*
X345329Y352887D01*
X345398Y352937D01*
X345470Y352983D01*
X345544Y353026D01*
X345620Y353066D01*
X345697Y353103D01*
X345776Y353136D01*
X345856Y353166D01*
X346023Y353245D01*
X346192Y353320D01*
X346363Y353391D01*
X346535Y353458D01*
X346709Y353520D01*
X346885Y353579D01*
X347061Y353633D01*
X347239Y353683D01*
X347419Y353729D01*
X347599Y353771D01*
X347780Y353808D01*
X347962Y353841D01*
X348144Y353870D01*
X348328Y353894D01*
X348512Y353914D01*
X348696Y353929D01*
X348880Y353940D01*
X349065Y353947D01*
X349250Y353949D01*
X349250Y348728D02*
X349435Y348730D01*
X349620Y348737D01*
X349804Y348748D01*
X349988Y348763D01*
X350172Y348783D01*
X350356Y348807D01*
X350538Y348836D01*
X350720Y348869D01*
X350901Y348906D01*
X351081Y348948D01*
X351261Y348994D01*
X351439Y349044D01*
X351615Y349098D01*
X351791Y349157D01*
X351965Y349219D01*
X352137Y349286D01*
X352308Y349357D01*
X352477Y349432D01*
X352644Y349511D01*
X352644Y349510D02*
X352724Y349540D01*
X352803Y349573D01*
X352880Y349610D01*
X352956Y349650D01*
X353030Y349693D01*
X353102Y349739D01*
X353171Y349789D01*
X353239Y349842D01*
X353304Y349897D01*
X353367Y349956D01*
X353426Y350017D01*
X353484Y350080D01*
X353538Y350147D01*
X353589Y350215D01*
X353637Y350286D01*
X353682Y350359D01*
X353724Y350433D01*
X353762Y350510D01*
X353797Y350588D01*
X353829Y350667D01*
X353857Y350748D01*
X353881Y350830D01*
X353902Y350914D01*
X353919Y350997D01*
X353932Y351082D01*
X353941Y351167D01*
X353947Y351252D01*
X353949Y351338D01*
X352644Y353166D02*
X352477Y353245D01*
X352308Y353320D01*
X352137Y353391D01*
X351965Y353458D01*
X351791Y353520D01*
X351615Y353579D01*
X351439Y353633D01*
X351261Y353683D01*
X351081Y353729D01*
X350901Y353771D01*
X350720Y353808D01*
X350538Y353841D01*
X350356Y353870D01*
X350172Y353894D01*
X349988Y353914D01*
X349804Y353929D01*
X349620Y353940D01*
X349435Y353947D01*
X349250Y353949D01*
X352644Y353166D02*
X352724Y353136D01*
X352803Y353103D01*
X352880Y353066D01*
X352956Y353026D01*
X353030Y352983D01*
X353102Y352937D01*
X353171Y352887D01*
X353239Y352835D01*
X353304Y352779D01*
X353367Y352721D01*
X353426Y352659D01*
X353484Y352596D01*
X353538Y352529D01*
X353589Y352461D01*
X353637Y352390D01*
X353682Y352317D01*
X353724Y352243D01*
X353762Y352166D01*
X353797Y352088D01*
X353829Y352009D01*
X353857Y351928D01*
X353881Y351846D01*
X353902Y351762D01*
X353919Y351679D01*
X353932Y351594D01*
X353941Y351509D01*
X353947Y351424D01*
X353949Y351338D01*
X351861Y349250D02*
X346639Y353427D01*
D125*
X381720Y301625D02*
X381722Y301688D01*
X381728Y301750D01*
X381738Y301812D01*
X381751Y301874D01*
X381769Y301934D01*
X381790Y301993D01*
X381815Y302051D01*
X381844Y302107D01*
X381876Y302161D01*
X381911Y302213D01*
X381949Y302262D01*
X381991Y302310D01*
X382035Y302354D01*
X382083Y302396D01*
X382132Y302434D01*
X382184Y302469D01*
X382238Y302501D01*
X382294Y302530D01*
X382352Y302555D01*
X382411Y302576D01*
X382471Y302594D01*
X382533Y302607D01*
X382595Y302617D01*
X382657Y302623D01*
X382720Y302625D01*
X382783Y302623D01*
X382845Y302617D01*
X382907Y302607D01*
X382969Y302594D01*
X383029Y302576D01*
X383088Y302555D01*
X383146Y302530D01*
X383202Y302501D01*
X383256Y302469D01*
X383308Y302434D01*
X383357Y302396D01*
X383405Y302354D01*
X383449Y302310D01*
X383491Y302262D01*
X383529Y302213D01*
X383564Y302161D01*
X383596Y302107D01*
X383625Y302051D01*
X383650Y301993D01*
X383671Y301934D01*
X383689Y301874D01*
X383702Y301812D01*
X383712Y301750D01*
X383718Y301688D01*
X383720Y301625D01*
X383718Y301562D01*
X383712Y301500D01*
X383702Y301438D01*
X383689Y301376D01*
X383671Y301316D01*
X383650Y301257D01*
X383625Y301199D01*
X383596Y301143D01*
X383564Y301089D01*
X383529Y301037D01*
X383491Y300988D01*
X383449Y300940D01*
X383405Y300896D01*
X383357Y300854D01*
X383308Y300816D01*
X383256Y300781D01*
X383202Y300749D01*
X383146Y300720D01*
X383088Y300695D01*
X383029Y300674D01*
X382969Y300656D01*
X382907Y300643D01*
X382845Y300633D01*
X382783Y300627D01*
X382720Y300625D01*
X382657Y300627D01*
X382595Y300633D01*
X382533Y300643D01*
X382471Y300656D01*
X382411Y300674D01*
X382352Y300695D01*
X382294Y300720D01*
X382238Y300749D01*
X382184Y300781D01*
X382132Y300816D01*
X382083Y300854D01*
X382035Y300896D01*
X381991Y300940D01*
X381949Y300988D01*
X381911Y301037D01*
X381876Y301089D01*
X381844Y301143D01*
X381815Y301199D01*
X381790Y301257D01*
X381769Y301316D01*
X381751Y301376D01*
X381738Y301438D01*
X381728Y301500D01*
X381722Y301562D01*
X381720Y301625D01*
D123*
X382470Y326075D02*
X382470Y366075D01*
X432870Y366075D02*
X432870Y326075D01*
D10*
X376946Y308153D02*
X368508Y308153D01*
X376946Y308153D02*
X377059Y308155D01*
X377172Y308161D01*
X377285Y308171D01*
X377398Y308185D01*
X377510Y308202D01*
X377621Y308224D01*
X377731Y308249D01*
X377841Y308279D01*
X377949Y308312D01*
X378056Y308349D01*
X378162Y308389D01*
X378266Y308434D01*
X378369Y308482D01*
X378470Y308533D01*
X378569Y308588D01*
X378666Y308646D01*
X378761Y308708D01*
X378854Y308773D01*
X378944Y308841D01*
X379032Y308912D01*
X379118Y308987D01*
X379201Y309064D01*
X379281Y309144D01*
X379358Y309227D01*
X379433Y309313D01*
X379504Y309401D01*
X379572Y309491D01*
X379637Y309584D01*
X379699Y309679D01*
X379757Y309776D01*
X379812Y309875D01*
X379863Y309976D01*
X379911Y310079D01*
X379956Y310183D01*
X379996Y310289D01*
X380033Y310396D01*
X380066Y310504D01*
X380096Y310614D01*
X380121Y310724D01*
X380143Y310835D01*
X380160Y310947D01*
X380174Y311060D01*
X380184Y311173D01*
X380190Y311286D01*
X380192Y311399D01*
X380190Y311512D01*
X380184Y311625D01*
X380174Y311738D01*
X380160Y311851D01*
X380143Y311963D01*
X380121Y312074D01*
X380096Y312184D01*
X380066Y312294D01*
X380033Y312402D01*
X379996Y312509D01*
X379956Y312615D01*
X379911Y312719D01*
X379863Y312822D01*
X379812Y312923D01*
X379757Y313022D01*
X379699Y313119D01*
X379637Y313214D01*
X379572Y313307D01*
X379504Y313397D01*
X379433Y313485D01*
X379358Y313571D01*
X379281Y313654D01*
X379201Y313734D01*
X379118Y313811D01*
X379032Y313886D01*
X378944Y313957D01*
X378854Y314025D01*
X378761Y314090D01*
X378666Y314152D01*
X378569Y314210D01*
X378470Y314265D01*
X378369Y314316D01*
X378266Y314364D01*
X378162Y314409D01*
X378056Y314449D01*
X377949Y314486D01*
X377841Y314519D01*
X377731Y314549D01*
X377621Y314574D01*
X377510Y314596D01*
X377398Y314613D01*
X377285Y314627D01*
X377172Y314637D01*
X377059Y314643D01*
X376946Y314645D01*
X376946Y314644D02*
X368508Y314644D01*
X368508Y323534D02*
X368510Y323641D01*
X368516Y323747D01*
X368526Y323853D01*
X368539Y323959D01*
X368557Y324065D01*
X368578Y324169D01*
X368603Y324273D01*
X368632Y324376D01*
X368664Y324477D01*
X368701Y324577D01*
X368741Y324676D01*
X368784Y324774D01*
X368831Y324870D01*
X368882Y324964D01*
X368936Y325056D01*
X368993Y325146D01*
X369053Y325234D01*
X369117Y325319D01*
X369184Y325402D01*
X369254Y325483D01*
X369326Y325561D01*
X369402Y325637D01*
X369480Y325709D01*
X369561Y325779D01*
X369644Y325846D01*
X369729Y325910D01*
X369817Y325970D01*
X369907Y326027D01*
X369999Y326081D01*
X370093Y326132D01*
X370189Y326179D01*
X370287Y326222D01*
X370386Y326262D01*
X370486Y326299D01*
X370587Y326331D01*
X370690Y326360D01*
X370794Y326385D01*
X370898Y326406D01*
X371004Y326424D01*
X371110Y326437D01*
X371216Y326447D01*
X371322Y326453D01*
X371429Y326455D01*
X368508Y323534D02*
X368510Y323413D01*
X368516Y323292D01*
X368526Y323172D01*
X368539Y323051D01*
X368557Y322932D01*
X368578Y322812D01*
X368603Y322694D01*
X368632Y322577D01*
X368665Y322460D01*
X368701Y322345D01*
X368742Y322231D01*
X368785Y322118D01*
X368833Y322006D01*
X368884Y321897D01*
X368939Y321789D01*
X368997Y321682D01*
X369058Y321578D01*
X369123Y321476D01*
X369191Y321376D01*
X369262Y321278D01*
X369336Y321182D01*
X369413Y321089D01*
X369494Y320999D01*
X369577Y320911D01*
X369663Y320826D01*
X369752Y320743D01*
X369843Y320664D01*
X369937Y320587D01*
X370033Y320514D01*
X370131Y320444D01*
X370232Y320377D01*
X370335Y320313D01*
X370440Y320253D01*
X370547Y320195D01*
X370655Y320142D01*
X370765Y320092D01*
X370877Y320046D01*
X370990Y320003D01*
X371105Y319964D01*
X373701Y325481D02*
X373623Y325560D01*
X373543Y325636D01*
X373460Y325709D01*
X373374Y325779D01*
X373287Y325846D01*
X373196Y325910D01*
X373104Y325970D01*
X373010Y326028D01*
X372913Y326082D01*
X372815Y326132D01*
X372715Y326179D01*
X372614Y326223D01*
X372511Y326263D01*
X372406Y326299D01*
X372301Y326331D01*
X372194Y326360D01*
X372087Y326385D01*
X371978Y326407D01*
X371869Y326424D01*
X371760Y326438D01*
X371650Y326447D01*
X371539Y326453D01*
X371429Y326455D01*
X373701Y325481D02*
X380192Y319964D01*
X380192Y326455D01*
D124*
X414185Y438409D02*
X414185Y447807D01*
X416795Y447807D01*
X416795Y447808D02*
X416896Y447806D01*
X416997Y447800D01*
X417098Y447790D01*
X417198Y447777D01*
X417298Y447759D01*
X417397Y447738D01*
X417495Y447712D01*
X417592Y447683D01*
X417688Y447651D01*
X417782Y447614D01*
X417875Y447574D01*
X417967Y447530D01*
X418056Y447483D01*
X418144Y447432D01*
X418230Y447378D01*
X418313Y447321D01*
X418395Y447261D01*
X418473Y447197D01*
X418550Y447131D01*
X418623Y447061D01*
X418694Y446989D01*
X418762Y446914D01*
X418827Y446836D01*
X418889Y446756D01*
X418948Y446674D01*
X419004Y446589D01*
X419056Y446502D01*
X419105Y446414D01*
X419151Y446323D01*
X419192Y446231D01*
X419231Y446137D01*
X419265Y446042D01*
X419296Y445946D01*
X419323Y445848D01*
X419347Y445750D01*
X419366Y445650D01*
X419382Y445550D01*
X419394Y445450D01*
X419402Y445349D01*
X419406Y445248D01*
X419406Y445146D01*
X419402Y445045D01*
X419394Y444944D01*
X419382Y444844D01*
X419366Y444744D01*
X419347Y444644D01*
X419323Y444546D01*
X419296Y444448D01*
X419265Y444352D01*
X419231Y444257D01*
X419192Y444163D01*
X419151Y444071D01*
X419105Y443980D01*
X419056Y443892D01*
X419004Y443805D01*
X418948Y443720D01*
X418889Y443638D01*
X418827Y443558D01*
X418762Y443480D01*
X418694Y443405D01*
X418623Y443333D01*
X418550Y443263D01*
X418473Y443197D01*
X418395Y443133D01*
X418313Y443073D01*
X418230Y443016D01*
X418144Y442962D01*
X418056Y442911D01*
X417967Y442864D01*
X417875Y442820D01*
X417782Y442780D01*
X417688Y442743D01*
X417592Y442711D01*
X417495Y442682D01*
X417397Y442656D01*
X417298Y442635D01*
X417198Y442617D01*
X417098Y442604D01*
X416997Y442594D01*
X416896Y442588D01*
X416795Y442586D01*
X414185Y442586D01*
X417318Y442586D02*
X419406Y438409D01*
X423272Y446763D02*
X423272Y447807D01*
X428493Y447807D01*
X425882Y438409D01*
X319781Y358305D02*
X310383Y358305D01*
X310383Y360915D01*
X310382Y360915D02*
X310384Y361016D01*
X310390Y361117D01*
X310400Y361218D01*
X310413Y361318D01*
X310431Y361418D01*
X310452Y361517D01*
X310478Y361615D01*
X310507Y361712D01*
X310539Y361808D01*
X310576Y361902D01*
X310616Y361995D01*
X310660Y362087D01*
X310707Y362176D01*
X310758Y362264D01*
X310812Y362350D01*
X310869Y362433D01*
X310929Y362515D01*
X310993Y362593D01*
X311059Y362670D01*
X311129Y362743D01*
X311201Y362814D01*
X311276Y362882D01*
X311354Y362947D01*
X311434Y363009D01*
X311516Y363068D01*
X311601Y363124D01*
X311688Y363176D01*
X311776Y363225D01*
X311867Y363271D01*
X311959Y363312D01*
X312053Y363351D01*
X312148Y363385D01*
X312244Y363416D01*
X312342Y363443D01*
X312440Y363467D01*
X312540Y363486D01*
X312640Y363502D01*
X312740Y363514D01*
X312841Y363522D01*
X312942Y363526D01*
X313044Y363526D01*
X313145Y363522D01*
X313246Y363514D01*
X313346Y363502D01*
X313446Y363486D01*
X313546Y363467D01*
X313644Y363443D01*
X313742Y363416D01*
X313838Y363385D01*
X313933Y363351D01*
X314027Y363312D01*
X314119Y363271D01*
X314210Y363225D01*
X314299Y363176D01*
X314385Y363124D01*
X314470Y363068D01*
X314552Y363009D01*
X314632Y362947D01*
X314710Y362882D01*
X314785Y362814D01*
X314857Y362743D01*
X314927Y362670D01*
X314993Y362593D01*
X315057Y362515D01*
X315117Y362433D01*
X315174Y362350D01*
X315228Y362264D01*
X315279Y362176D01*
X315326Y362087D01*
X315370Y361995D01*
X315410Y361902D01*
X315447Y361808D01*
X315479Y361712D01*
X315508Y361615D01*
X315534Y361517D01*
X315555Y361418D01*
X315573Y361318D01*
X315586Y361218D01*
X315596Y361117D01*
X315602Y361016D01*
X315604Y360915D01*
X315604Y358305D01*
X315604Y361438D02*
X319781Y363526D01*
X314560Y367392D02*
X314560Y370525D01*
X314562Y370614D01*
X314568Y370702D01*
X314577Y370790D01*
X314590Y370878D01*
X314607Y370965D01*
X314627Y371051D01*
X314652Y371136D01*
X314679Y371221D01*
X314711Y371304D01*
X314745Y371385D01*
X314784Y371465D01*
X314825Y371543D01*
X314870Y371620D01*
X314918Y371694D01*
X314969Y371767D01*
X315023Y371837D01*
X315081Y371904D01*
X315141Y371970D01*
X315203Y372032D01*
X315269Y372092D01*
X315336Y372150D01*
X315406Y372204D01*
X315479Y372255D01*
X315553Y372303D01*
X315630Y372348D01*
X315708Y372389D01*
X315788Y372428D01*
X315869Y372462D01*
X315952Y372494D01*
X316037Y372521D01*
X316122Y372546D01*
X316208Y372566D01*
X316295Y372583D01*
X316383Y372596D01*
X316471Y372605D01*
X316559Y372611D01*
X316648Y372613D01*
X317170Y372613D01*
X317271Y372611D01*
X317372Y372605D01*
X317473Y372595D01*
X317573Y372582D01*
X317673Y372564D01*
X317772Y372543D01*
X317870Y372517D01*
X317967Y372488D01*
X318063Y372456D01*
X318157Y372419D01*
X318250Y372379D01*
X318342Y372335D01*
X318431Y372288D01*
X318519Y372237D01*
X318605Y372183D01*
X318688Y372126D01*
X318770Y372066D01*
X318848Y372002D01*
X318925Y371936D01*
X318998Y371866D01*
X319069Y371794D01*
X319137Y371719D01*
X319202Y371641D01*
X319264Y371561D01*
X319323Y371479D01*
X319379Y371394D01*
X319431Y371307D01*
X319480Y371219D01*
X319526Y371128D01*
X319567Y371036D01*
X319606Y370942D01*
X319640Y370847D01*
X319671Y370751D01*
X319698Y370653D01*
X319722Y370555D01*
X319741Y370455D01*
X319757Y370355D01*
X319769Y370255D01*
X319777Y370154D01*
X319781Y370053D01*
X319781Y369951D01*
X319777Y369850D01*
X319769Y369749D01*
X319757Y369649D01*
X319741Y369549D01*
X319722Y369449D01*
X319698Y369351D01*
X319671Y369253D01*
X319640Y369157D01*
X319606Y369062D01*
X319567Y368968D01*
X319526Y368876D01*
X319480Y368785D01*
X319431Y368697D01*
X319379Y368610D01*
X319323Y368525D01*
X319264Y368443D01*
X319202Y368363D01*
X319137Y368285D01*
X319069Y368210D01*
X318998Y368138D01*
X318925Y368068D01*
X318848Y368002D01*
X318770Y367938D01*
X318688Y367878D01*
X318605Y367821D01*
X318519Y367767D01*
X318431Y367716D01*
X318342Y367669D01*
X318250Y367625D01*
X318157Y367585D01*
X318063Y367548D01*
X317967Y367516D01*
X317870Y367487D01*
X317772Y367461D01*
X317673Y367440D01*
X317573Y367422D01*
X317473Y367409D01*
X317372Y367399D01*
X317271Y367393D01*
X317170Y367391D01*
X317170Y367392D02*
X314560Y367392D01*
X314431Y367394D01*
X314303Y367400D01*
X314175Y367410D01*
X314047Y367424D01*
X313919Y367441D01*
X313792Y367463D01*
X313666Y367489D01*
X313541Y367518D01*
X313417Y367551D01*
X313294Y367589D01*
X313172Y367629D01*
X313051Y367674D01*
X312932Y367722D01*
X312814Y367774D01*
X312698Y367830D01*
X312584Y367889D01*
X312472Y367952D01*
X312361Y368018D01*
X312253Y368087D01*
X312147Y368160D01*
X312043Y368236D01*
X311941Y368315D01*
X311842Y368397D01*
X311746Y368482D01*
X311652Y368570D01*
X311561Y368661D01*
X311473Y368755D01*
X311388Y368851D01*
X311306Y368950D01*
X311227Y369052D01*
X311151Y369156D01*
X311078Y369262D01*
X311009Y369370D01*
X310943Y369480D01*
X310880Y369593D01*
X310821Y369707D01*
X310765Y369823D01*
X310713Y369941D01*
X310665Y370060D01*
X310620Y370181D01*
X310580Y370303D01*
X310542Y370426D01*
X310509Y370550D01*
X310480Y370675D01*
X310454Y370801D01*
X310432Y370928D01*
X310415Y371056D01*
X310401Y371184D01*
X310391Y371312D01*
X310385Y371440D01*
X310383Y371569D01*
X383799Y266197D02*
X393197Y266197D01*
X383799Y266197D02*
X383799Y268808D01*
X383801Y268909D01*
X383807Y269010D01*
X383817Y269111D01*
X383830Y269211D01*
X383848Y269311D01*
X383869Y269410D01*
X383895Y269508D01*
X383924Y269605D01*
X383956Y269701D01*
X383993Y269795D01*
X384033Y269888D01*
X384077Y269980D01*
X384124Y270069D01*
X384175Y270157D01*
X384229Y270243D01*
X384286Y270326D01*
X384346Y270408D01*
X384410Y270486D01*
X384476Y270563D01*
X384546Y270636D01*
X384618Y270707D01*
X384693Y270775D01*
X384771Y270840D01*
X384851Y270902D01*
X384933Y270961D01*
X385018Y271017D01*
X385105Y271069D01*
X385193Y271118D01*
X385284Y271164D01*
X385376Y271205D01*
X385470Y271244D01*
X385565Y271278D01*
X385661Y271309D01*
X385759Y271336D01*
X385857Y271360D01*
X385957Y271379D01*
X386057Y271395D01*
X386157Y271407D01*
X386258Y271415D01*
X386359Y271419D01*
X386461Y271419D01*
X386562Y271415D01*
X386663Y271407D01*
X386763Y271395D01*
X386863Y271379D01*
X386963Y271360D01*
X387061Y271336D01*
X387159Y271309D01*
X387255Y271278D01*
X387350Y271244D01*
X387444Y271205D01*
X387536Y271164D01*
X387627Y271118D01*
X387716Y271069D01*
X387802Y271017D01*
X387887Y270961D01*
X387969Y270902D01*
X388049Y270840D01*
X388127Y270775D01*
X388202Y270707D01*
X388274Y270636D01*
X388344Y270563D01*
X388410Y270486D01*
X388474Y270408D01*
X388534Y270326D01*
X388591Y270243D01*
X388645Y270157D01*
X388696Y270069D01*
X388743Y269980D01*
X388787Y269888D01*
X388827Y269795D01*
X388864Y269701D01*
X388896Y269605D01*
X388925Y269508D01*
X388951Y269410D01*
X388972Y269311D01*
X388990Y269211D01*
X389003Y269111D01*
X389013Y269010D01*
X389019Y268909D01*
X389021Y268808D01*
X389020Y268808D02*
X389020Y266197D01*
X389020Y269330D02*
X393197Y271418D01*
X390587Y275284D02*
X390486Y275286D01*
X390385Y275292D01*
X390284Y275302D01*
X390184Y275315D01*
X390084Y275333D01*
X389985Y275354D01*
X389887Y275380D01*
X389790Y275409D01*
X389694Y275441D01*
X389600Y275478D01*
X389507Y275518D01*
X389415Y275562D01*
X389326Y275609D01*
X389238Y275660D01*
X389152Y275714D01*
X389069Y275771D01*
X388987Y275831D01*
X388909Y275895D01*
X388832Y275961D01*
X388759Y276031D01*
X388688Y276103D01*
X388620Y276178D01*
X388555Y276256D01*
X388493Y276336D01*
X388434Y276418D01*
X388378Y276503D01*
X388326Y276590D01*
X388277Y276678D01*
X388231Y276769D01*
X388190Y276861D01*
X388151Y276955D01*
X388117Y277050D01*
X388086Y277146D01*
X388059Y277244D01*
X388035Y277342D01*
X388016Y277442D01*
X388000Y277542D01*
X387988Y277642D01*
X387980Y277743D01*
X387976Y277844D01*
X387976Y277946D01*
X387980Y278047D01*
X387988Y278148D01*
X388000Y278248D01*
X388016Y278348D01*
X388035Y278448D01*
X388059Y278546D01*
X388086Y278644D01*
X388117Y278740D01*
X388151Y278835D01*
X388190Y278929D01*
X388231Y279021D01*
X388277Y279112D01*
X388326Y279201D01*
X388378Y279287D01*
X388434Y279372D01*
X388493Y279454D01*
X388555Y279534D01*
X388620Y279612D01*
X388688Y279687D01*
X388759Y279759D01*
X388832Y279829D01*
X388909Y279895D01*
X388987Y279959D01*
X389069Y280019D01*
X389152Y280076D01*
X389238Y280130D01*
X389326Y280181D01*
X389415Y280228D01*
X389507Y280272D01*
X389600Y280312D01*
X389694Y280349D01*
X389790Y280381D01*
X389887Y280410D01*
X389985Y280436D01*
X390084Y280457D01*
X390184Y280475D01*
X390284Y280488D01*
X390385Y280498D01*
X390486Y280504D01*
X390587Y280506D01*
X390688Y280504D01*
X390789Y280498D01*
X390890Y280488D01*
X390990Y280475D01*
X391090Y280457D01*
X391189Y280436D01*
X391287Y280410D01*
X391384Y280381D01*
X391480Y280349D01*
X391574Y280312D01*
X391667Y280272D01*
X391759Y280228D01*
X391848Y280181D01*
X391936Y280130D01*
X392022Y280076D01*
X392105Y280019D01*
X392187Y279959D01*
X392265Y279895D01*
X392342Y279829D01*
X392415Y279759D01*
X392486Y279687D01*
X392554Y279612D01*
X392619Y279534D01*
X392681Y279454D01*
X392740Y279372D01*
X392796Y279287D01*
X392848Y279200D01*
X392897Y279112D01*
X392943Y279021D01*
X392984Y278929D01*
X393023Y278835D01*
X393057Y278740D01*
X393088Y278644D01*
X393115Y278546D01*
X393139Y278448D01*
X393158Y278348D01*
X393174Y278248D01*
X393186Y278148D01*
X393194Y278047D01*
X393198Y277946D01*
X393198Y277844D01*
X393194Y277743D01*
X393186Y277642D01*
X393174Y277542D01*
X393158Y277442D01*
X393139Y277342D01*
X393115Y277244D01*
X393088Y277146D01*
X393057Y277050D01*
X393023Y276955D01*
X392984Y276861D01*
X392943Y276769D01*
X392897Y276678D01*
X392848Y276590D01*
X392796Y276503D01*
X392740Y276418D01*
X392681Y276336D01*
X392619Y276256D01*
X392554Y276178D01*
X392486Y276103D01*
X392415Y276031D01*
X392342Y275961D01*
X392265Y275895D01*
X392187Y275831D01*
X392105Y275771D01*
X392022Y275714D01*
X391936Y275660D01*
X391848Y275609D01*
X391759Y275562D01*
X391667Y275518D01*
X391574Y275478D01*
X391480Y275441D01*
X391384Y275409D01*
X391287Y275380D01*
X391189Y275354D01*
X391090Y275333D01*
X390990Y275315D01*
X390890Y275302D01*
X390789Y275292D01*
X390688Y275286D01*
X390587Y275284D01*
X385888Y275807D02*
X385798Y275809D01*
X385709Y275815D01*
X385619Y275824D01*
X385530Y275838D01*
X385442Y275855D01*
X385355Y275876D01*
X385268Y275901D01*
X385183Y275930D01*
X385099Y275962D01*
X385017Y275997D01*
X384936Y276037D01*
X384857Y276079D01*
X384780Y276125D01*
X384705Y276175D01*
X384632Y276227D01*
X384561Y276283D01*
X384493Y276341D01*
X384428Y276403D01*
X384365Y276467D01*
X384305Y276534D01*
X384248Y276603D01*
X384194Y276675D01*
X384143Y276749D01*
X384095Y276825D01*
X384051Y276903D01*
X384010Y276983D01*
X383972Y277065D01*
X383938Y277148D01*
X383908Y277233D01*
X383881Y277319D01*
X383858Y277405D01*
X383839Y277493D01*
X383824Y277582D01*
X383812Y277671D01*
X383804Y277760D01*
X383800Y277850D01*
X383800Y277940D01*
X383804Y278030D01*
X383812Y278119D01*
X383824Y278208D01*
X383839Y278297D01*
X383858Y278385D01*
X383881Y278471D01*
X383908Y278557D01*
X383938Y278642D01*
X383972Y278725D01*
X384010Y278807D01*
X384051Y278887D01*
X384095Y278965D01*
X384143Y279041D01*
X384194Y279115D01*
X384248Y279187D01*
X384305Y279256D01*
X384365Y279323D01*
X384428Y279387D01*
X384493Y279449D01*
X384561Y279507D01*
X384632Y279563D01*
X384705Y279615D01*
X384780Y279665D01*
X384857Y279711D01*
X384936Y279753D01*
X385017Y279793D01*
X385099Y279828D01*
X385183Y279860D01*
X385268Y279889D01*
X385355Y279914D01*
X385442Y279935D01*
X385530Y279952D01*
X385619Y279966D01*
X385709Y279975D01*
X385798Y279981D01*
X385888Y279983D01*
X385978Y279981D01*
X386067Y279975D01*
X386157Y279966D01*
X386246Y279952D01*
X386334Y279935D01*
X386421Y279914D01*
X386508Y279889D01*
X386593Y279860D01*
X386677Y279828D01*
X386759Y279793D01*
X386840Y279753D01*
X386919Y279711D01*
X386996Y279665D01*
X387071Y279615D01*
X387144Y279563D01*
X387215Y279507D01*
X387283Y279449D01*
X387348Y279387D01*
X387411Y279323D01*
X387471Y279256D01*
X387528Y279187D01*
X387582Y279115D01*
X387633Y279041D01*
X387681Y278965D01*
X387725Y278887D01*
X387766Y278807D01*
X387804Y278725D01*
X387838Y278642D01*
X387868Y278557D01*
X387895Y278471D01*
X387918Y278385D01*
X387937Y278297D01*
X387952Y278208D01*
X387964Y278119D01*
X387972Y278030D01*
X387976Y277940D01*
X387976Y277850D01*
X387972Y277760D01*
X387964Y277671D01*
X387952Y277582D01*
X387937Y277493D01*
X387918Y277405D01*
X387895Y277319D01*
X387868Y277233D01*
X387838Y277148D01*
X387804Y277065D01*
X387766Y276983D01*
X387725Y276903D01*
X387681Y276825D01*
X387633Y276749D01*
X387582Y276675D01*
X387528Y276603D01*
X387471Y276534D01*
X387411Y276467D01*
X387348Y276403D01*
X387283Y276341D01*
X387215Y276283D01*
X387144Y276227D01*
X387071Y276175D01*
X386996Y276125D01*
X386919Y276079D01*
X386840Y276037D01*
X386759Y275997D01*
X386677Y275962D01*
X386593Y275930D01*
X386508Y275901D01*
X386421Y275876D01*
X386334Y275855D01*
X386246Y275838D01*
X386157Y275824D01*
X386067Y275815D01*
X385978Y275809D01*
X385888Y275807D01*
X366527Y266197D02*
X357129Y266197D01*
X357129Y268808D01*
X357131Y268909D01*
X357137Y269010D01*
X357147Y269111D01*
X357160Y269211D01*
X357178Y269311D01*
X357199Y269410D01*
X357225Y269508D01*
X357254Y269605D01*
X357286Y269701D01*
X357323Y269795D01*
X357363Y269888D01*
X357407Y269980D01*
X357454Y270069D01*
X357505Y270157D01*
X357559Y270243D01*
X357616Y270326D01*
X357676Y270408D01*
X357740Y270486D01*
X357806Y270563D01*
X357876Y270636D01*
X357948Y270707D01*
X358023Y270775D01*
X358101Y270840D01*
X358181Y270902D01*
X358263Y270961D01*
X358348Y271017D01*
X358435Y271069D01*
X358523Y271118D01*
X358614Y271164D01*
X358706Y271205D01*
X358800Y271244D01*
X358895Y271278D01*
X358991Y271309D01*
X359089Y271336D01*
X359187Y271360D01*
X359287Y271379D01*
X359387Y271395D01*
X359487Y271407D01*
X359588Y271415D01*
X359689Y271419D01*
X359791Y271419D01*
X359892Y271415D01*
X359993Y271407D01*
X360093Y271395D01*
X360193Y271379D01*
X360293Y271360D01*
X360391Y271336D01*
X360489Y271309D01*
X360585Y271278D01*
X360680Y271244D01*
X360774Y271205D01*
X360866Y271164D01*
X360957Y271118D01*
X361046Y271069D01*
X361132Y271017D01*
X361217Y270961D01*
X361299Y270902D01*
X361379Y270840D01*
X361457Y270775D01*
X361532Y270707D01*
X361604Y270636D01*
X361674Y270563D01*
X361740Y270486D01*
X361804Y270408D01*
X361864Y270326D01*
X361921Y270243D01*
X361975Y270157D01*
X362026Y270069D01*
X362073Y269980D01*
X362117Y269888D01*
X362157Y269795D01*
X362194Y269701D01*
X362226Y269605D01*
X362255Y269508D01*
X362281Y269410D01*
X362302Y269311D01*
X362320Y269211D01*
X362333Y269111D01*
X362343Y269010D01*
X362349Y268909D01*
X362351Y268808D01*
X362350Y268808D02*
X362350Y266197D01*
X362350Y269330D02*
X366527Y271418D01*
X362350Y277372D02*
X362350Y280505D01*
X362350Y277372D02*
X362348Y277283D01*
X362342Y277195D01*
X362333Y277107D01*
X362320Y277019D01*
X362303Y276932D01*
X362283Y276846D01*
X362258Y276761D01*
X362231Y276676D01*
X362199Y276593D01*
X362165Y276512D01*
X362126Y276432D01*
X362085Y276354D01*
X362040Y276277D01*
X361992Y276203D01*
X361941Y276130D01*
X361887Y276060D01*
X361829Y275993D01*
X361769Y275927D01*
X361707Y275865D01*
X361641Y275805D01*
X361574Y275747D01*
X361504Y275693D01*
X361431Y275642D01*
X361357Y275594D01*
X361280Y275549D01*
X361202Y275508D01*
X361122Y275469D01*
X361041Y275435D01*
X360958Y275403D01*
X360873Y275376D01*
X360788Y275351D01*
X360702Y275331D01*
X360615Y275314D01*
X360527Y275301D01*
X360439Y275292D01*
X360351Y275286D01*
X360262Y275284D01*
X359740Y275284D01*
X359639Y275286D01*
X359538Y275292D01*
X359437Y275302D01*
X359337Y275315D01*
X359237Y275333D01*
X359138Y275354D01*
X359040Y275380D01*
X358943Y275409D01*
X358847Y275441D01*
X358753Y275478D01*
X358660Y275518D01*
X358568Y275562D01*
X358479Y275609D01*
X358391Y275660D01*
X358305Y275714D01*
X358222Y275771D01*
X358140Y275831D01*
X358062Y275895D01*
X357985Y275961D01*
X357912Y276031D01*
X357841Y276103D01*
X357773Y276178D01*
X357708Y276256D01*
X357646Y276336D01*
X357587Y276418D01*
X357531Y276503D01*
X357479Y276590D01*
X357430Y276678D01*
X357384Y276769D01*
X357343Y276861D01*
X357304Y276955D01*
X357270Y277050D01*
X357239Y277146D01*
X357212Y277244D01*
X357188Y277342D01*
X357169Y277442D01*
X357153Y277542D01*
X357141Y277642D01*
X357133Y277743D01*
X357129Y277844D01*
X357129Y277946D01*
X357133Y278047D01*
X357141Y278148D01*
X357153Y278248D01*
X357169Y278348D01*
X357188Y278448D01*
X357212Y278546D01*
X357239Y278644D01*
X357270Y278740D01*
X357304Y278835D01*
X357343Y278929D01*
X357384Y279021D01*
X357430Y279112D01*
X357479Y279201D01*
X357531Y279287D01*
X357587Y279372D01*
X357646Y279454D01*
X357708Y279534D01*
X357773Y279612D01*
X357841Y279687D01*
X357912Y279759D01*
X357985Y279829D01*
X358062Y279895D01*
X358140Y279959D01*
X358222Y280019D01*
X358305Y280076D01*
X358391Y280130D01*
X358479Y280181D01*
X358568Y280228D01*
X358660Y280272D01*
X358753Y280312D01*
X358847Y280349D01*
X358943Y280381D01*
X359040Y280410D01*
X359138Y280436D01*
X359237Y280457D01*
X359337Y280475D01*
X359437Y280488D01*
X359538Y280498D01*
X359639Y280504D01*
X359740Y280506D01*
X359740Y280505D02*
X362350Y280505D01*
X362476Y280503D01*
X362602Y280497D01*
X362728Y280488D01*
X362853Y280475D01*
X362978Y280457D01*
X363103Y280437D01*
X363227Y280412D01*
X363350Y280384D01*
X363472Y280352D01*
X363593Y280316D01*
X363713Y280277D01*
X363831Y280234D01*
X363948Y280187D01*
X364064Y280137D01*
X364179Y280083D01*
X364291Y280027D01*
X364402Y279966D01*
X364511Y279903D01*
X364618Y279836D01*
X364723Y279766D01*
X364826Y279692D01*
X364926Y279616D01*
X365024Y279537D01*
X365120Y279455D01*
X365213Y279369D01*
X365304Y279282D01*
X365391Y279191D01*
X365477Y279098D01*
X365559Y279002D01*
X365638Y278904D01*
X365714Y278804D01*
X365788Y278701D01*
X365858Y278596D01*
X365925Y278489D01*
X365988Y278380D01*
X366049Y278269D01*
X366105Y278157D01*
X366159Y278042D01*
X366209Y277926D01*
X366256Y277809D01*
X366299Y277691D01*
X366338Y277571D01*
X366374Y277450D01*
X366406Y277328D01*
X366434Y277205D01*
X366459Y277081D01*
X366479Y276956D01*
X366497Y276831D01*
X366510Y276706D01*
X366519Y276580D01*
X366525Y276454D01*
X366527Y276328D01*
D123*
X372150Y246420D02*
X374650Y246420D01*
X377150Y246420D01*
X374650Y246420D02*
X372150Y251420D01*
X377150Y251420D02*
X374650Y246420D01*
X377150Y251420D02*
X372150Y251420D01*
X369650Y261420D02*
X379650Y261420D01*
X379650Y236420D01*
X369650Y236420D01*
X369650Y261420D01*
D124*
X366889Y238191D02*
X357491Y238191D01*
X357491Y240802D01*
X357493Y240902D01*
X357499Y241002D01*
X357508Y241101D01*
X357522Y241201D01*
X357539Y241299D01*
X357560Y241397D01*
X357584Y241494D01*
X357613Y241590D01*
X357645Y241685D01*
X357680Y241778D01*
X357719Y241870D01*
X357762Y241961D01*
X357808Y242049D01*
X357858Y242136D01*
X357910Y242221D01*
X357966Y242304D01*
X358025Y242385D01*
X358088Y242463D01*
X358153Y242539D01*
X358221Y242613D01*
X358291Y242683D01*
X358365Y242751D01*
X358441Y242816D01*
X358519Y242879D01*
X358600Y242938D01*
X358683Y242994D01*
X358768Y243046D01*
X358855Y243096D01*
X358943Y243142D01*
X359034Y243185D01*
X359126Y243224D01*
X359219Y243259D01*
X359314Y243291D01*
X359410Y243320D01*
X359507Y243344D01*
X359605Y243365D01*
X359703Y243382D01*
X359803Y243396D01*
X359902Y243405D01*
X360002Y243411D01*
X360102Y243413D01*
X360102Y243412D02*
X364278Y243412D01*
X364278Y243413D02*
X364378Y243411D01*
X364478Y243405D01*
X364577Y243396D01*
X364677Y243382D01*
X364775Y243365D01*
X364873Y243344D01*
X364970Y243320D01*
X365066Y243291D01*
X365161Y243259D01*
X365254Y243224D01*
X365346Y243185D01*
X365437Y243142D01*
X365525Y243096D01*
X365612Y243046D01*
X365697Y242994D01*
X365780Y242938D01*
X365861Y242879D01*
X365939Y242816D01*
X366015Y242751D01*
X366089Y242683D01*
X366159Y242613D01*
X366227Y242539D01*
X366292Y242463D01*
X366355Y242385D01*
X366414Y242304D01*
X366470Y242221D01*
X366522Y242136D01*
X366572Y242049D01*
X366618Y241961D01*
X366661Y241870D01*
X366700Y241778D01*
X366735Y241685D01*
X366767Y241590D01*
X366796Y241494D01*
X366820Y241397D01*
X366841Y241299D01*
X366858Y241201D01*
X366872Y241101D01*
X366881Y241002D01*
X366887Y240902D01*
X366889Y240802D01*
X366889Y238191D01*
X366889Y247640D02*
X366889Y250250D01*
X366887Y250351D01*
X366881Y250452D01*
X366871Y250553D01*
X366858Y250653D01*
X366840Y250753D01*
X366819Y250852D01*
X366793Y250950D01*
X366764Y251047D01*
X366732Y251143D01*
X366695Y251237D01*
X366655Y251330D01*
X366611Y251422D01*
X366564Y251511D01*
X366513Y251599D01*
X366459Y251685D01*
X366402Y251768D01*
X366342Y251850D01*
X366278Y251928D01*
X366212Y252005D01*
X366142Y252078D01*
X366070Y252149D01*
X365995Y252217D01*
X365917Y252282D01*
X365837Y252344D01*
X365755Y252403D01*
X365670Y252459D01*
X365584Y252511D01*
X365495Y252560D01*
X365404Y252606D01*
X365312Y252647D01*
X365218Y252686D01*
X365123Y252720D01*
X365027Y252751D01*
X364929Y252778D01*
X364831Y252802D01*
X364731Y252821D01*
X364631Y252837D01*
X364531Y252849D01*
X364430Y252857D01*
X364329Y252861D01*
X364227Y252861D01*
X364126Y252857D01*
X364025Y252849D01*
X363925Y252837D01*
X363825Y252821D01*
X363725Y252802D01*
X363627Y252778D01*
X363529Y252751D01*
X363433Y252720D01*
X363338Y252686D01*
X363244Y252647D01*
X363152Y252606D01*
X363061Y252560D01*
X362973Y252511D01*
X362886Y252459D01*
X362801Y252403D01*
X362719Y252344D01*
X362639Y252282D01*
X362561Y252217D01*
X362486Y252149D01*
X362414Y252078D01*
X362344Y252005D01*
X362278Y251928D01*
X362214Y251850D01*
X362154Y251768D01*
X362097Y251685D01*
X362043Y251599D01*
X361992Y251511D01*
X361945Y251422D01*
X361901Y251330D01*
X361861Y251237D01*
X361824Y251143D01*
X361792Y251047D01*
X361763Y250950D01*
X361737Y250852D01*
X361716Y250753D01*
X361698Y250653D01*
X361685Y250553D01*
X361675Y250452D01*
X361669Y250351D01*
X361667Y250250D01*
X357491Y250772D02*
X357491Y247640D01*
X357491Y250772D02*
X357493Y250862D01*
X357499Y250951D01*
X357508Y251041D01*
X357522Y251130D01*
X357539Y251218D01*
X357560Y251305D01*
X357585Y251392D01*
X357614Y251477D01*
X357646Y251561D01*
X357681Y251643D01*
X357721Y251724D01*
X357763Y251803D01*
X357809Y251880D01*
X357859Y251955D01*
X357911Y252028D01*
X357967Y252099D01*
X358025Y252167D01*
X358087Y252232D01*
X358151Y252295D01*
X358218Y252355D01*
X358287Y252412D01*
X358359Y252466D01*
X358433Y252517D01*
X358509Y252565D01*
X358587Y252609D01*
X358667Y252650D01*
X358749Y252688D01*
X358832Y252722D01*
X358917Y252752D01*
X359003Y252779D01*
X359089Y252802D01*
X359177Y252821D01*
X359266Y252836D01*
X359355Y252848D01*
X359444Y252856D01*
X359534Y252860D01*
X359624Y252860D01*
X359714Y252856D01*
X359803Y252848D01*
X359892Y252836D01*
X359981Y252821D01*
X360069Y252802D01*
X360155Y252779D01*
X360241Y252752D01*
X360326Y252722D01*
X360409Y252688D01*
X360491Y252650D01*
X360571Y252609D01*
X360649Y252565D01*
X360725Y252517D01*
X360799Y252466D01*
X360871Y252412D01*
X360940Y252355D01*
X361007Y252295D01*
X361071Y252232D01*
X361133Y252167D01*
X361191Y252099D01*
X361247Y252028D01*
X361299Y251955D01*
X361349Y251880D01*
X361395Y251803D01*
X361437Y251724D01*
X361477Y251643D01*
X361512Y251561D01*
X361544Y251477D01*
X361573Y251392D01*
X361598Y251305D01*
X361619Y251218D01*
X361636Y251130D01*
X361650Y251041D01*
X361659Y250951D01*
X361665Y250862D01*
X361667Y250772D01*
X361668Y250772D02*
X361668Y248684D01*
D123*
X398820Y246420D02*
X401320Y246420D01*
X403820Y246420D01*
X401320Y246420D02*
X398820Y251420D01*
X403820Y251420D02*
X401320Y246420D01*
X403820Y251420D02*
X398820Y251420D01*
X396320Y261420D02*
X406320Y261420D01*
X406320Y236420D01*
X396320Y236420D01*
X396320Y261420D01*
D124*
X393559Y238191D02*
X384161Y238191D01*
X384161Y240802D01*
X384163Y240902D01*
X384169Y241002D01*
X384178Y241101D01*
X384192Y241201D01*
X384209Y241299D01*
X384230Y241397D01*
X384254Y241494D01*
X384283Y241590D01*
X384315Y241685D01*
X384350Y241778D01*
X384389Y241870D01*
X384432Y241961D01*
X384478Y242049D01*
X384528Y242136D01*
X384580Y242221D01*
X384636Y242304D01*
X384695Y242385D01*
X384758Y242463D01*
X384823Y242539D01*
X384891Y242613D01*
X384961Y242683D01*
X385035Y242751D01*
X385111Y242816D01*
X385189Y242879D01*
X385270Y242938D01*
X385353Y242994D01*
X385438Y243046D01*
X385525Y243096D01*
X385613Y243142D01*
X385704Y243185D01*
X385796Y243224D01*
X385889Y243259D01*
X385984Y243291D01*
X386080Y243320D01*
X386177Y243344D01*
X386275Y243365D01*
X386373Y243382D01*
X386473Y243396D01*
X386572Y243405D01*
X386672Y243411D01*
X386772Y243413D01*
X386772Y243412D02*
X390948Y243412D01*
X390948Y243413D02*
X391048Y243411D01*
X391148Y243405D01*
X391247Y243396D01*
X391347Y243382D01*
X391445Y243365D01*
X391543Y243344D01*
X391640Y243320D01*
X391736Y243291D01*
X391831Y243259D01*
X391924Y243224D01*
X392016Y243185D01*
X392107Y243142D01*
X392195Y243096D01*
X392282Y243046D01*
X392367Y242994D01*
X392450Y242938D01*
X392531Y242879D01*
X392609Y242816D01*
X392685Y242751D01*
X392759Y242683D01*
X392829Y242613D01*
X392897Y242539D01*
X392962Y242463D01*
X393025Y242385D01*
X393084Y242304D01*
X393140Y242221D01*
X393192Y242136D01*
X393242Y242049D01*
X393288Y241961D01*
X393331Y241870D01*
X393370Y241778D01*
X393405Y241685D01*
X393437Y241590D01*
X393466Y241494D01*
X393490Y241397D01*
X393511Y241299D01*
X393528Y241201D01*
X393542Y241101D01*
X393551Y241002D01*
X393557Y240902D01*
X393559Y240802D01*
X393559Y238191D01*
X384161Y250511D02*
X384163Y250606D01*
X384169Y250700D01*
X384178Y250794D01*
X384191Y250888D01*
X384208Y250981D01*
X384229Y251073D01*
X384254Y251165D01*
X384282Y251255D01*
X384314Y251344D01*
X384349Y251432D01*
X384388Y251518D01*
X384430Y251603D01*
X384476Y251686D01*
X384525Y251767D01*
X384577Y251846D01*
X384632Y251923D01*
X384691Y251997D01*
X384752Y252069D01*
X384816Y252139D01*
X384883Y252206D01*
X384953Y252270D01*
X385025Y252331D01*
X385099Y252390D01*
X385176Y252445D01*
X385255Y252497D01*
X385336Y252546D01*
X385419Y252592D01*
X385504Y252634D01*
X385590Y252673D01*
X385678Y252708D01*
X385767Y252740D01*
X385857Y252768D01*
X385949Y252793D01*
X386041Y252814D01*
X386134Y252831D01*
X386228Y252844D01*
X386322Y252853D01*
X386416Y252859D01*
X386511Y252861D01*
X384161Y250511D02*
X384163Y250403D01*
X384169Y250294D01*
X384179Y250186D01*
X384192Y250079D01*
X384210Y249972D01*
X384231Y249865D01*
X384256Y249760D01*
X384285Y249655D01*
X384317Y249552D01*
X384354Y249450D01*
X384394Y249349D01*
X384437Y249250D01*
X384484Y249152D01*
X384535Y249056D01*
X384589Y248962D01*
X384646Y248870D01*
X384707Y248780D01*
X384771Y248692D01*
X384837Y248607D01*
X384907Y248524D01*
X384980Y248444D01*
X385056Y248366D01*
X385134Y248291D01*
X385215Y248219D01*
X385299Y248150D01*
X385385Y248084D01*
X385473Y248021D01*
X385564Y247962D01*
X385656Y247905D01*
X385751Y247852D01*
X385848Y247803D01*
X385946Y247757D01*
X386045Y247714D01*
X386147Y247675D01*
X386249Y247640D01*
X388339Y252078D02*
X388270Y252147D01*
X388199Y252213D01*
X388126Y252277D01*
X388050Y252338D01*
X387971Y252396D01*
X387891Y252450D01*
X387808Y252502D01*
X387724Y252550D01*
X387638Y252596D01*
X387550Y252637D01*
X387460Y252676D01*
X387369Y252711D01*
X387277Y252742D01*
X387184Y252770D01*
X387090Y252794D01*
X386995Y252814D01*
X386899Y252831D01*
X386802Y252844D01*
X386705Y252853D01*
X386608Y252859D01*
X386511Y252861D01*
X388338Y252078D02*
X393559Y247640D01*
X393559Y252861D01*
D11*
X307975Y469900D02*
X282575Y469900D01*
X307975Y469900D02*
X307975Y495300D01*
X282575Y495300D01*
X282575Y469900D01*
D126*
X295275Y501650D02*
X295275Y558800D01*
D11*
X307975Y469900D02*
X333375Y469900D01*
X333375Y495300D01*
X307975Y495300D01*
D126*
X320675Y501650D02*
X320675Y558800D01*
D11*
X333375Y469900D02*
X358775Y469900D01*
X358775Y495300D01*
X333375Y495300D01*
D126*
X346075Y501650D02*
X346075Y558800D01*
D11*
X358775Y469900D02*
X384175Y469900D01*
X384175Y495300D01*
X358775Y495300D01*
D126*
X371475Y501650D02*
X371475Y558800D01*
D11*
X384175Y469900D02*
X409575Y469900D01*
X409575Y495300D01*
X384175Y495300D01*
D126*
X396875Y501650D02*
X396875Y558800D01*
D127*
X295275Y497840D03*
X320675Y497840D03*
X346075Y497840D03*
X371475Y497840D03*
X396875Y497840D03*
D128*
X295275Y464820D03*
X320675Y464820D03*
X346075Y464820D03*
X371475Y464820D03*
X396875Y464820D03*
D10*
X297171Y480695D02*
X297171Y487807D01*
X297171Y480695D02*
X297169Y480606D01*
X297163Y480518D01*
X297154Y480430D01*
X297140Y480342D01*
X297123Y480255D01*
X297102Y480169D01*
X297077Y480084D01*
X297048Y480000D01*
X297016Y479917D01*
X296981Y479836D01*
X296941Y479757D01*
X296899Y479679D01*
X296853Y479603D01*
X296804Y479529D01*
X296751Y479458D01*
X296696Y479389D01*
X296637Y479322D01*
X296576Y479258D01*
X296512Y479197D01*
X296445Y479138D01*
X296376Y479083D01*
X296305Y479030D01*
X296231Y478981D01*
X296155Y478935D01*
X296077Y478893D01*
X295998Y478853D01*
X295917Y478818D01*
X295834Y478786D01*
X295750Y478757D01*
X295665Y478732D01*
X295579Y478711D01*
X295492Y478694D01*
X295404Y478680D01*
X295316Y478671D01*
X295228Y478665D01*
X295139Y478663D01*
X294123Y478663D01*
X301955Y478663D02*
X301955Y487807D01*
X304495Y487807D01*
X304595Y487805D01*
X304694Y487799D01*
X304794Y487789D01*
X304892Y487776D01*
X304991Y487758D01*
X305088Y487737D01*
X305184Y487712D01*
X305280Y487683D01*
X305374Y487650D01*
X305467Y487614D01*
X305558Y487574D01*
X305648Y487530D01*
X305736Y487483D01*
X305822Y487433D01*
X305906Y487379D01*
X305988Y487322D01*
X306067Y487262D01*
X306145Y487198D01*
X306219Y487132D01*
X306291Y487063D01*
X306360Y486991D01*
X306426Y486917D01*
X306490Y486839D01*
X306550Y486760D01*
X306607Y486678D01*
X306661Y486594D01*
X306711Y486508D01*
X306758Y486420D01*
X306802Y486330D01*
X306842Y486239D01*
X306878Y486146D01*
X306911Y486052D01*
X306940Y485956D01*
X306965Y485860D01*
X306986Y485763D01*
X307004Y485664D01*
X307017Y485566D01*
X307027Y485466D01*
X307033Y485367D01*
X307035Y485267D01*
X307033Y485167D01*
X307027Y485068D01*
X307017Y484968D01*
X307004Y484870D01*
X306986Y484771D01*
X306965Y484674D01*
X306940Y484578D01*
X306911Y484482D01*
X306878Y484388D01*
X306842Y484295D01*
X306802Y484204D01*
X306758Y484114D01*
X306711Y484026D01*
X306661Y483940D01*
X306607Y483856D01*
X306550Y483774D01*
X306490Y483695D01*
X306426Y483617D01*
X306360Y483543D01*
X306291Y483471D01*
X306219Y483402D01*
X306145Y483336D01*
X306067Y483272D01*
X305988Y483212D01*
X305906Y483155D01*
X305822Y483101D01*
X305736Y483051D01*
X305648Y483004D01*
X305558Y482960D01*
X305467Y482920D01*
X305374Y482884D01*
X305280Y482851D01*
X305184Y482822D01*
X305088Y482797D01*
X304991Y482776D01*
X304892Y482758D01*
X304794Y482745D01*
X304694Y482735D01*
X304595Y482729D01*
X304495Y482727D01*
X301955Y482727D01*
X310642Y485775D02*
X313182Y487807D01*
X313182Y478663D01*
X310642Y478663D02*
X315722Y478663D01*
M02*
