G04 EAGLE Gerber RS-274X export*
G75*
%MOMM*%
%FSLAX34Y34*%
%LPD*%
%INBottom Copper*%
%IPPOS*%
%AMOC8*
5,1,8,0,0,1.08239X$1,22.5*%
G01*
%ADD10P,1.649562X8X22.500000*%
%ADD11C,5.080000*%
%ADD12C,1.000000*%
%ADD13C,1.524000*%
%ADD14C,0.609600*%

G36*
X265492Y-12328D02*
X265492Y-12328D01*
X265560Y-12327D01*
X265613Y-12309D01*
X265668Y-12300D01*
X265728Y-12268D01*
X265792Y-12245D01*
X265836Y-12211D01*
X265886Y-12184D01*
X265932Y-12135D01*
X265985Y-12094D01*
X266032Y-12030D01*
X266055Y-12006D01*
X266064Y-11987D01*
X266085Y-11959D01*
X289898Y29289D01*
X289910Y29319D01*
X289928Y29346D01*
X289953Y29434D01*
X289985Y29519D01*
X289987Y29552D01*
X289995Y29583D01*
X289991Y29674D01*
X289994Y29765D01*
X289985Y29796D01*
X289984Y29828D01*
X289931Y29988D01*
X289902Y30050D01*
X289898Y30057D01*
X289895Y30065D01*
X289806Y30207D01*
X288408Y31958D01*
X288402Y31963D01*
X288398Y31971D01*
X288277Y32087D01*
X287949Y32338D01*
X287568Y32997D01*
X287547Y33023D01*
X287504Y33091D01*
X287029Y33686D01*
X286915Y34083D01*
X286911Y34091D01*
X286910Y34099D01*
X286843Y34253D01*
X285722Y36192D01*
X285716Y36199D01*
X285713Y36207D01*
X285611Y36340D01*
X285324Y36638D01*
X285046Y37346D01*
X285029Y37374D01*
X284996Y37448D01*
X284616Y38107D01*
X284562Y38517D01*
X284559Y38525D01*
X284559Y38533D01*
X284516Y38695D01*
X283696Y40780D01*
X283692Y40788D01*
X283690Y40796D01*
X283609Y40943D01*
X283369Y41280D01*
X283200Y42021D01*
X283187Y42052D01*
X283166Y42130D01*
X282888Y42838D01*
X282896Y43252D01*
X282894Y43260D01*
X282896Y43268D01*
X282877Y43435D01*
X282377Y45619D01*
X282374Y45627D01*
X282373Y45635D01*
X282315Y45793D01*
X282128Y46161D01*
X282071Y46920D01*
X282064Y46952D01*
X282054Y47033D01*
X281885Y47774D01*
X281954Y48182D01*
X281954Y48190D01*
X281957Y48199D01*
X281962Y48366D01*
X281794Y50600D01*
X281792Y50608D01*
X281793Y50617D01*
X281758Y50781D01*
X281629Y51174D01*
X281686Y51932D01*
X281683Y51965D01*
X281685Y52046D01*
X281628Y52805D01*
X281757Y53197D01*
X281759Y53206D01*
X281763Y53214D01*
X281793Y53379D01*
X281960Y55612D01*
X281959Y55621D01*
X281961Y55629D01*
X281951Y55797D01*
X281882Y56204D01*
X282051Y56946D01*
X282053Y56979D01*
X282068Y57059D01*
X282125Y57817D01*
X282311Y58186D01*
X282313Y58194D01*
X282318Y58201D01*
X282373Y58360D01*
X282871Y60544D01*
X282872Y60553D01*
X282875Y60561D01*
X282890Y60728D01*
X282882Y61141D01*
X283160Y61849D01*
X283167Y61881D01*
X283193Y61958D01*
X283362Y62700D01*
X283602Y63037D01*
X283605Y63045D01*
X283611Y63051D01*
X283689Y63199D01*
X284507Y65285D01*
X284509Y65293D01*
X284513Y65301D01*
X284553Y65464D01*
X284607Y65874D01*
X284987Y66533D01*
X284999Y66563D01*
X285036Y66635D01*
X285314Y67343D01*
X285320Y67349D01*
X285371Y67424D01*
X285429Y67493D01*
X285441Y67524D01*
X285460Y67552D01*
X285485Y67639D01*
X285517Y67723D01*
X285518Y67756D01*
X285528Y67788D01*
X285524Y67878D01*
X285527Y67969D01*
X285518Y68001D01*
X285517Y68034D01*
X285484Y68118D01*
X285459Y68205D01*
X285440Y68232D01*
X285428Y68263D01*
X285370Y68333D01*
X285319Y68407D01*
X285292Y68427D01*
X285271Y68452D01*
X285194Y68500D01*
X285121Y68554D01*
X285090Y68564D01*
X285061Y68582D01*
X284973Y68602D01*
X284887Y68630D01*
X284854Y68630D01*
X284822Y68637D01*
X284732Y68628D01*
X284641Y68627D01*
X284601Y68616D01*
X284577Y68613D01*
X284548Y68600D01*
X284480Y68581D01*
X278827Y66239D01*
X269813Y66239D01*
X261484Y69689D01*
X255109Y76064D01*
X251659Y84393D01*
X251659Y93407D01*
X255109Y101736D01*
X261484Y108111D01*
X269813Y111561D01*
X278827Y111561D01*
X287156Y108111D01*
X293531Y101736D01*
X296981Y93407D01*
X296981Y84393D01*
X295471Y80749D01*
X295465Y80723D01*
X295453Y80699D01*
X295437Y80603D01*
X295415Y80509D01*
X295418Y80483D01*
X295413Y80456D01*
X295429Y80361D01*
X295438Y80264D01*
X295449Y80240D01*
X295454Y80214D01*
X295499Y80128D01*
X295538Y80040D01*
X295556Y80020D01*
X295569Y79996D01*
X295639Y79930D01*
X295705Y79858D01*
X295728Y79846D01*
X295748Y79827D01*
X295835Y79787D01*
X295920Y79740D01*
X295947Y79735D01*
X295971Y79724D01*
X296067Y79713D01*
X296162Y79696D01*
X296189Y79700D01*
X296215Y79697D01*
X296310Y79718D01*
X296406Y79732D01*
X296429Y79744D01*
X296456Y79750D01*
X296604Y79829D01*
X297345Y80334D01*
X297351Y80340D01*
X297359Y80344D01*
X297483Y80456D01*
X297759Y80764D01*
X298444Y81095D01*
X298471Y81113D01*
X298543Y81151D01*
X299171Y81580D01*
X299576Y81665D01*
X299584Y81668D01*
X299592Y81668D01*
X299751Y81724D01*
X301768Y82697D01*
X301775Y82702D01*
X301784Y82704D01*
X301924Y82796D01*
X302242Y83060D01*
X302969Y83285D01*
X302999Y83299D01*
X303075Y83326D01*
X303760Y83657D01*
X304173Y83680D01*
X304181Y83682D01*
X304190Y83681D01*
X304355Y83713D01*
X306495Y84374D01*
X306503Y84377D01*
X306511Y84379D01*
X306512Y84379D01*
X306513Y84379D01*
X306515Y84381D01*
X306663Y84449D01*
X307017Y84663D01*
X307770Y84776D01*
X307801Y84786D01*
X307881Y84802D01*
X308607Y85026D01*
X309019Y84987D01*
X309028Y84988D01*
X309036Y84986D01*
X309204Y84993D01*
X311419Y85327D01*
X311427Y85330D01*
X311435Y85330D01*
X311596Y85377D01*
X311978Y85535D01*
X312739Y85535D01*
X312772Y85541D01*
X312852Y85544D01*
X313605Y85658D01*
X314006Y85558D01*
X314015Y85557D01*
X314022Y85554D01*
X314189Y85536D01*
X316429Y85537D01*
X316438Y85538D01*
X316446Y85537D01*
X316613Y85559D01*
X317014Y85659D01*
X317766Y85545D01*
X317799Y85546D01*
X317879Y85537D01*
X318640Y85537D01*
X319022Y85379D01*
X319031Y85377D01*
X319038Y85373D01*
X319200Y85330D01*
X321415Y84997D01*
X321424Y84997D01*
X321432Y84994D01*
X321600Y84992D01*
X321692Y85000D01*
X321723Y85008D01*
X321755Y85009D01*
X321842Y85039D01*
X321930Y85063D01*
X321957Y85080D01*
X321987Y85091D01*
X322059Y85147D01*
X322136Y85197D01*
X322156Y85223D01*
X322181Y85242D01*
X322280Y85377D01*
X347857Y129680D01*
X347898Y129787D01*
X347941Y129894D01*
X347942Y129904D01*
X347944Y129910D01*
X347945Y129932D01*
X347959Y130060D01*
X347959Y265578D01*
X347956Y265598D01*
X347958Y265617D01*
X347936Y265719D01*
X347920Y265821D01*
X347910Y265838D01*
X347906Y265858D01*
X347853Y265947D01*
X347804Y266038D01*
X347790Y266052D01*
X347780Y266069D01*
X347701Y266136D01*
X347626Y266208D01*
X347608Y266216D01*
X347593Y266229D01*
X347497Y266268D01*
X347403Y266311D01*
X347383Y266313D01*
X347365Y266321D01*
X347198Y266339D01*
X23642Y266339D01*
X23622Y266336D01*
X23603Y266338D01*
X23501Y266316D01*
X23399Y266300D01*
X23382Y266290D01*
X23362Y266286D01*
X23273Y266233D01*
X23182Y266184D01*
X23168Y266170D01*
X23151Y266160D01*
X23084Y266081D01*
X23012Y266006D01*
X23004Y265988D01*
X22991Y265973D01*
X22952Y265877D01*
X22909Y265783D01*
X22907Y265763D01*
X22899Y265745D01*
X22881Y265578D01*
X22881Y130060D01*
X22899Y129947D01*
X22915Y129833D01*
X22919Y129824D01*
X22920Y129818D01*
X22931Y129798D01*
X22983Y129680D01*
X48560Y85377D01*
X48580Y85353D01*
X48594Y85324D01*
X48658Y85258D01*
X48716Y85187D01*
X48743Y85170D01*
X48765Y85147D01*
X48846Y85105D01*
X48924Y85056D01*
X48955Y85049D01*
X48984Y85034D01*
X49148Y85000D01*
X49240Y84992D01*
X49249Y84992D01*
X49257Y84990D01*
X49425Y84997D01*
X51640Y85330D01*
X51648Y85332D01*
X51657Y85333D01*
X51818Y85379D01*
X52200Y85537D01*
X52961Y85537D01*
X52993Y85542D01*
X53074Y85545D01*
X53826Y85659D01*
X54227Y85559D01*
X54236Y85558D01*
X54244Y85555D01*
X54411Y85537D01*
X56651Y85536D01*
X56659Y85537D01*
X56668Y85536D01*
X56834Y85558D01*
X57235Y85658D01*
X57988Y85544D01*
X58021Y85544D01*
X58101Y85535D01*
X58862Y85535D01*
X59244Y85377D01*
X59252Y85375D01*
X59259Y85370D01*
X59421Y85327D01*
X61636Y84993D01*
X61645Y84993D01*
X61653Y84990D01*
X61821Y84987D01*
X62233Y85026D01*
X62959Y84802D01*
X62992Y84797D01*
X63070Y84776D01*
X63823Y84663D01*
X64177Y84449D01*
X64185Y84446D01*
X64191Y84440D01*
X64345Y84374D01*
X66485Y83713D01*
X66494Y83711D01*
X66502Y83708D01*
X66667Y83680D01*
X67080Y83657D01*
X67765Y83326D01*
X67797Y83317D01*
X67871Y83285D01*
X68598Y83060D01*
X68916Y82796D01*
X68924Y82792D01*
X68929Y82786D01*
X69072Y82697D01*
X71089Y81724D01*
X71098Y81722D01*
X71105Y81717D01*
X71264Y81665D01*
X71669Y81580D01*
X72297Y81151D01*
X72327Y81138D01*
X72396Y81095D01*
X73081Y80764D01*
X73357Y80456D01*
X73363Y80450D01*
X73368Y80443D01*
X73495Y80334D01*
X74236Y79829D01*
X74261Y79817D01*
X74281Y79800D01*
X74371Y79766D01*
X74459Y79725D01*
X74486Y79722D01*
X74511Y79712D01*
X74607Y79708D01*
X74704Y79697D01*
X74730Y79703D01*
X74756Y79702D01*
X74850Y79729D01*
X74944Y79749D01*
X74967Y79763D01*
X74993Y79770D01*
X75072Y79825D01*
X75155Y79875D01*
X75173Y79895D01*
X75195Y79910D01*
X75253Y79988D01*
X75316Y80062D01*
X75326Y80086D01*
X75342Y80108D01*
X75372Y80200D01*
X75408Y80290D01*
X75409Y80316D01*
X75418Y80342D01*
X75417Y80439D01*
X75423Y80535D01*
X75416Y80561D01*
X75415Y80588D01*
X75369Y80749D01*
X73859Y84393D01*
X73859Y93407D01*
X77309Y101736D01*
X83684Y108111D01*
X92013Y111561D01*
X101027Y111561D01*
X109356Y108111D01*
X115731Y101736D01*
X119181Y93407D01*
X119181Y84393D01*
X115731Y76064D01*
X109356Y69689D01*
X101027Y66239D01*
X92013Y66239D01*
X86360Y68581D01*
X86272Y68601D01*
X86186Y68630D01*
X86153Y68629D01*
X86120Y68637D01*
X86030Y68628D01*
X85940Y68628D01*
X85909Y68617D01*
X85875Y68614D01*
X85793Y68577D01*
X85708Y68548D01*
X85681Y68527D01*
X85651Y68514D01*
X85584Y68453D01*
X85513Y68398D01*
X85494Y68370D01*
X85469Y68347D01*
X85426Y68268D01*
X85376Y68193D01*
X85367Y68161D01*
X85351Y68132D01*
X85335Y68043D01*
X85311Y67956D01*
X85313Y67923D01*
X85307Y67890D01*
X85320Y67801D01*
X85326Y67711D01*
X85338Y67680D01*
X85343Y67647D01*
X85384Y67566D01*
X85418Y67482D01*
X85444Y67449D01*
X85454Y67427D01*
X85477Y67405D01*
X85520Y67350D01*
X85526Y67343D01*
X85804Y66635D01*
X85820Y66607D01*
X85853Y66533D01*
X86233Y65874D01*
X86287Y65464D01*
X86289Y65455D01*
X86289Y65447D01*
X86333Y65285D01*
X87151Y63199D01*
X87155Y63192D01*
X87157Y63184D01*
X87238Y63037D01*
X87478Y62700D01*
X87647Y61958D01*
X87659Y61927D01*
X87680Y61849D01*
X87958Y61141D01*
X87950Y60728D01*
X87951Y60719D01*
X87950Y60711D01*
X87969Y60544D01*
X88467Y58360D01*
X88470Y58352D01*
X88471Y58343D01*
X88529Y58186D01*
X88715Y57817D01*
X88772Y57059D01*
X88780Y57027D01*
X88789Y56946D01*
X88958Y56204D01*
X88889Y55797D01*
X88889Y55788D01*
X88886Y55780D01*
X88880Y55612D01*
X89047Y53379D01*
X89049Y53370D01*
X89048Y53362D01*
X89082Y53197D01*
X89212Y52805D01*
X89155Y52046D01*
X89157Y52013D01*
X89154Y51932D01*
X89211Y51174D01*
X89082Y50781D01*
X89080Y50773D01*
X89077Y50765D01*
X89046Y50600D01*
X88878Y48366D01*
X88878Y48358D01*
X88876Y48349D01*
X88886Y48182D01*
X88955Y47774D01*
X88786Y47033D01*
X88784Y47000D01*
X88769Y46920D01*
X88712Y46162D01*
X88525Y45793D01*
X88523Y45784D01*
X88518Y45777D01*
X88463Y45619D01*
X87963Y43435D01*
X87963Y43427D01*
X87960Y43419D01*
X87944Y43251D01*
X87952Y42838D01*
X87674Y42130D01*
X87667Y42098D01*
X87640Y42021D01*
X87471Y41280D01*
X87231Y40943D01*
X87228Y40935D01*
X87222Y40929D01*
X87144Y40780D01*
X86324Y38695D01*
X86323Y38687D01*
X86318Y38679D01*
X86278Y38517D01*
X86224Y38107D01*
X85844Y37448D01*
X85832Y37417D01*
X85794Y37346D01*
X85516Y36638D01*
X85229Y36340D01*
X85224Y36333D01*
X85218Y36328D01*
X85118Y36192D01*
X83998Y34253D01*
X83994Y34245D01*
X83989Y34238D01*
X83925Y34083D01*
X83811Y33686D01*
X83336Y33091D01*
X83320Y33062D01*
X83272Y32997D01*
X82891Y32338D01*
X82563Y32087D01*
X82557Y32081D01*
X82550Y32076D01*
X82432Y31958D01*
X81034Y30207D01*
X81030Y30199D01*
X81024Y30193D01*
X80938Y30050D01*
X80909Y29988D01*
X80901Y29956D01*
X80885Y29928D01*
X80868Y29838D01*
X80844Y29750D01*
X80846Y29718D01*
X80840Y29686D01*
X80853Y29596D01*
X80858Y29505D01*
X80870Y29475D01*
X80874Y29443D01*
X80942Y29289D01*
X104755Y-11959D01*
X104798Y-12011D01*
X104833Y-12069D01*
X104875Y-12105D01*
X104911Y-12149D01*
X104968Y-12185D01*
X105020Y-12229D01*
X105072Y-12250D01*
X105119Y-12280D01*
X105185Y-12296D01*
X105248Y-12321D01*
X105327Y-12330D01*
X105359Y-12337D01*
X105379Y-12335D01*
X105415Y-12339D01*
X265425Y-12339D01*
X265492Y-12328D01*
G37*
%LPC*%
G36*
X131892Y52323D02*
X131892Y52323D01*
X126850Y54412D01*
X122992Y58270D01*
X120903Y63312D01*
X120903Y84008D01*
X122992Y89050D01*
X125252Y91311D01*
X125305Y91385D01*
X125365Y91454D01*
X125377Y91484D01*
X125396Y91510D01*
X125423Y91597D01*
X125457Y91682D01*
X125461Y91723D01*
X125468Y91746D01*
X125467Y91778D01*
X125475Y91849D01*
X125475Y123013D01*
X125461Y123103D01*
X125453Y123194D01*
X125441Y123223D01*
X125436Y123255D01*
X125393Y123336D01*
X125357Y123420D01*
X125331Y123452D01*
X125320Y123473D01*
X125297Y123495D01*
X125252Y123551D01*
X107817Y140986D01*
X106425Y144347D01*
X106425Y161170D01*
X107817Y164531D01*
X118425Y175139D01*
X121786Y176531D01*
X129794Y176531D01*
X129814Y176534D01*
X129833Y176532D01*
X129935Y176554D01*
X130037Y176570D01*
X130054Y176580D01*
X130074Y176584D01*
X130163Y176637D01*
X130254Y176686D01*
X130268Y176700D01*
X130285Y176710D01*
X130352Y176789D01*
X130424Y176864D01*
X130432Y176882D01*
X130445Y176897D01*
X130484Y176993D01*
X130527Y177087D01*
X130529Y177107D01*
X130537Y177125D01*
X130555Y177292D01*
X130555Y184752D01*
X138590Y192787D01*
X149954Y192787D01*
X157450Y185291D01*
X157466Y185279D01*
X157478Y185263D01*
X157566Y185207D01*
X157649Y185147D01*
X157668Y185141D01*
X157685Y185130D01*
X157786Y185105D01*
X157885Y185075D01*
X157904Y185075D01*
X157924Y185070D01*
X158027Y185078D01*
X158130Y185081D01*
X158149Y185088D01*
X158169Y185090D01*
X158264Y185130D01*
X158361Y185166D01*
X158377Y185178D01*
X158395Y185186D01*
X158526Y185291D01*
X166022Y192787D01*
X177386Y192787D01*
X184882Y185291D01*
X184898Y185279D01*
X184910Y185263D01*
X184998Y185207D01*
X185081Y185147D01*
X185100Y185141D01*
X185117Y185130D01*
X185218Y185105D01*
X185317Y185075D01*
X185336Y185075D01*
X185356Y185070D01*
X185459Y185078D01*
X185562Y185081D01*
X185581Y185088D01*
X185601Y185090D01*
X185696Y185130D01*
X185793Y185166D01*
X185809Y185178D01*
X185827Y185186D01*
X185958Y185291D01*
X193454Y192787D01*
X204818Y192787D01*
X212314Y185291D01*
X212330Y185279D01*
X212342Y185263D01*
X212430Y185207D01*
X212513Y185147D01*
X212532Y185141D01*
X212549Y185130D01*
X212650Y185105D01*
X212749Y185075D01*
X212768Y185075D01*
X212788Y185070D01*
X212891Y185078D01*
X212994Y185081D01*
X213013Y185088D01*
X213033Y185090D01*
X213128Y185130D01*
X213225Y185166D01*
X213241Y185178D01*
X213259Y185186D01*
X213390Y185291D01*
X220886Y192787D01*
X232250Y192787D01*
X240285Y184752D01*
X240285Y173388D01*
X232250Y165353D01*
X222405Y165353D01*
X222334Y165342D01*
X222262Y165340D01*
X222214Y165322D01*
X222162Y165314D01*
X222099Y165280D01*
X222031Y165255D01*
X221991Y165223D01*
X221945Y165198D01*
X221895Y165146D01*
X221839Y165102D01*
X221811Y165058D01*
X221775Y165020D01*
X221745Y164955D01*
X221706Y164895D01*
X221694Y164844D01*
X221672Y164797D01*
X221664Y164726D01*
X221646Y164656D01*
X221650Y164604D01*
X221645Y164553D01*
X221660Y164482D01*
X221666Y164411D01*
X221686Y164363D01*
X221697Y164312D01*
X221734Y164251D01*
X221762Y164185D01*
X221807Y164129D01*
X221823Y164101D01*
X221841Y164086D01*
X221867Y164054D01*
X226569Y159352D01*
X226569Y147988D01*
X218534Y139953D01*
X207170Y139953D01*
X199674Y147449D01*
X199658Y147461D01*
X199646Y147477D01*
X199558Y147533D01*
X199475Y147593D01*
X199456Y147599D01*
X199439Y147610D01*
X199338Y147635D01*
X199239Y147665D01*
X199220Y147665D01*
X199200Y147670D01*
X199097Y147662D01*
X198994Y147659D01*
X198975Y147652D01*
X198955Y147650D01*
X198860Y147610D01*
X198763Y147574D01*
X198747Y147562D01*
X198729Y147554D01*
X198598Y147449D01*
X191102Y139953D01*
X179738Y139953D01*
X172242Y147449D01*
X172226Y147461D01*
X172214Y147477D01*
X172126Y147533D01*
X172043Y147593D01*
X172024Y147599D01*
X172007Y147610D01*
X171906Y147635D01*
X171807Y147665D01*
X171788Y147665D01*
X171768Y147670D01*
X171665Y147662D01*
X171562Y147659D01*
X171543Y147652D01*
X171523Y147650D01*
X171428Y147610D01*
X171331Y147574D01*
X171315Y147562D01*
X171297Y147554D01*
X171166Y147449D01*
X163670Y139953D01*
X152025Y139953D01*
X151954Y139942D01*
X151882Y139940D01*
X151833Y139922D01*
X151782Y139914D01*
X151718Y139880D01*
X151651Y139855D01*
X151610Y139823D01*
X151564Y139798D01*
X151515Y139746D01*
X151459Y139702D01*
X151431Y139658D01*
X151395Y139620D01*
X151365Y139555D01*
X151326Y139495D01*
X151313Y139444D01*
X151291Y139397D01*
X151283Y139326D01*
X151266Y139256D01*
X151270Y139204D01*
X151264Y139153D01*
X151280Y139082D01*
X151285Y139011D01*
X151305Y138963D01*
X151317Y138912D01*
X151353Y138851D01*
X151381Y138785D01*
X151426Y138729D01*
X151443Y138701D01*
X151461Y138686D01*
X151486Y138654D01*
X167773Y122367D01*
X169165Y119006D01*
X169165Y91849D01*
X169179Y91759D01*
X169187Y91668D01*
X169199Y91638D01*
X169204Y91606D01*
X169247Y91526D01*
X169283Y91442D01*
X169309Y91410D01*
X169320Y91389D01*
X169343Y91367D01*
X169388Y91311D01*
X171648Y89050D01*
X172017Y88161D01*
X172054Y88100D01*
X172084Y88035D01*
X172119Y87996D01*
X172146Y87952D01*
X172202Y87906D01*
X172250Y87853D01*
X172296Y87828D01*
X172336Y87795D01*
X172403Y87769D01*
X172466Y87735D01*
X172517Y87726D01*
X172565Y87707D01*
X172637Y87704D01*
X172708Y87691D01*
X172759Y87699D01*
X172811Y87697D01*
X172880Y87716D01*
X172951Y87727D01*
X172997Y87751D01*
X173047Y87765D01*
X173106Y87806D01*
X173170Y87838D01*
X173207Y87876D01*
X173249Y87905D01*
X173292Y87963D01*
X173342Y88014D01*
X173377Y88077D01*
X173396Y88103D01*
X173404Y88125D01*
X173423Y88161D01*
X173792Y89050D01*
X177650Y92908D01*
X182692Y94997D01*
X188148Y94997D01*
X193190Y92908D01*
X197048Y89050D01*
X197417Y88161D01*
X197454Y88100D01*
X197484Y88035D01*
X197519Y87996D01*
X197546Y87952D01*
X197602Y87906D01*
X197650Y87853D01*
X197696Y87828D01*
X197736Y87795D01*
X197803Y87769D01*
X197866Y87735D01*
X197917Y87726D01*
X197965Y87707D01*
X198037Y87704D01*
X198108Y87691D01*
X198159Y87699D01*
X198211Y87697D01*
X198280Y87716D01*
X198351Y87727D01*
X198397Y87751D01*
X198447Y87765D01*
X198506Y87806D01*
X198570Y87838D01*
X198607Y87876D01*
X198649Y87905D01*
X198692Y87963D01*
X198742Y88014D01*
X198777Y88077D01*
X198796Y88103D01*
X198804Y88125D01*
X198823Y88161D01*
X199192Y89050D01*
X203050Y92908D01*
X208092Y94997D01*
X213548Y94997D01*
X218590Y92908D01*
X222448Y89050D01*
X224537Y84008D01*
X224537Y63312D01*
X222448Y58270D01*
X218590Y54412D01*
X213548Y52323D01*
X208092Y52323D01*
X203050Y54412D01*
X199192Y58270D01*
X198823Y59159D01*
X198786Y59220D01*
X198756Y59285D01*
X198721Y59324D01*
X198694Y59368D01*
X198639Y59414D01*
X198590Y59467D01*
X198544Y59492D01*
X198504Y59525D01*
X198437Y59551D01*
X198374Y59585D01*
X198323Y59594D01*
X198275Y59613D01*
X198203Y59616D01*
X198132Y59629D01*
X198081Y59621D01*
X198029Y59623D01*
X197960Y59604D01*
X197889Y59593D01*
X197843Y59569D01*
X197793Y59555D01*
X197734Y59514D01*
X197670Y59482D01*
X197633Y59444D01*
X197591Y59415D01*
X197548Y59357D01*
X197498Y59306D01*
X197463Y59243D01*
X197444Y59217D01*
X197437Y59195D01*
X197417Y59159D01*
X197048Y58270D01*
X193190Y54412D01*
X188148Y52323D01*
X182692Y52323D01*
X177650Y54412D01*
X173792Y58270D01*
X173423Y59159D01*
X173386Y59220D01*
X173356Y59285D01*
X173321Y59324D01*
X173294Y59368D01*
X173239Y59414D01*
X173190Y59467D01*
X173144Y59492D01*
X173104Y59525D01*
X173037Y59551D01*
X172974Y59585D01*
X172923Y59594D01*
X172875Y59613D01*
X172803Y59616D01*
X172732Y59629D01*
X172681Y59621D01*
X172629Y59623D01*
X172560Y59604D01*
X172489Y59593D01*
X172443Y59569D01*
X172393Y59555D01*
X172334Y59514D01*
X172270Y59482D01*
X172233Y59444D01*
X172191Y59415D01*
X172148Y59357D01*
X172098Y59306D01*
X172063Y59243D01*
X172044Y59217D01*
X172037Y59195D01*
X172017Y59159D01*
X171648Y58270D01*
X167790Y54412D01*
X162748Y52323D01*
X157292Y52323D01*
X152250Y54412D01*
X148392Y58270D01*
X148023Y59159D01*
X147986Y59220D01*
X147956Y59285D01*
X147921Y59324D01*
X147894Y59368D01*
X147839Y59414D01*
X147790Y59467D01*
X147744Y59492D01*
X147704Y59525D01*
X147637Y59551D01*
X147574Y59585D01*
X147523Y59594D01*
X147475Y59613D01*
X147403Y59616D01*
X147332Y59629D01*
X147281Y59621D01*
X147229Y59623D01*
X147160Y59604D01*
X147089Y59593D01*
X147043Y59569D01*
X146993Y59555D01*
X146934Y59514D01*
X146870Y59482D01*
X146833Y59444D01*
X146791Y59415D01*
X146748Y59357D01*
X146698Y59306D01*
X146663Y59243D01*
X146644Y59217D01*
X146637Y59195D01*
X146617Y59159D01*
X146248Y58270D01*
X142390Y54412D01*
X137348Y52323D01*
X131892Y52323D01*
G37*
%LPD*%
G36*
X301848Y28111D02*
X301848Y28111D01*
X301921Y28111D01*
X301946Y28122D01*
X301973Y28125D01*
X302037Y28161D01*
X302104Y28189D01*
X302123Y28209D01*
X302146Y28222D01*
X302214Y28303D01*
X302242Y28333D01*
X302245Y28342D01*
X302252Y28351D01*
X329252Y75151D01*
X329261Y75176D01*
X329277Y75199D01*
X329292Y75270D01*
X329316Y75339D01*
X329313Y75366D01*
X329319Y75393D01*
X329306Y75464D01*
X329300Y75537D01*
X329287Y75562D01*
X329282Y75588D01*
X329242Y75649D01*
X329208Y75714D01*
X329187Y75731D01*
X329172Y75754D01*
X329086Y75815D01*
X329055Y75840D01*
X329046Y75843D01*
X329036Y75850D01*
X325398Y77601D01*
X325367Y77608D01*
X325329Y77628D01*
X321470Y78817D01*
X321438Y78820D01*
X321397Y78833D01*
X317404Y79434D01*
X317373Y79432D01*
X317330Y79439D01*
X313292Y79438D01*
X313261Y79432D01*
X313218Y79432D01*
X309226Y78829D01*
X309196Y78818D01*
X309153Y78813D01*
X305295Y77621D01*
X305267Y77606D01*
X305226Y77594D01*
X301588Y75841D01*
X301563Y75822D01*
X301524Y75804D01*
X298188Y73528D01*
X298166Y73505D01*
X298130Y73482D01*
X295171Y70734D01*
X295152Y70709D01*
X295120Y70680D01*
X292604Y67522D01*
X292589Y67494D01*
X292562Y67460D01*
X290544Y63963D01*
X290534Y63933D01*
X290512Y63896D01*
X289038Y60137D01*
X289032Y60105D01*
X289016Y60065D01*
X288119Y56129D01*
X288118Y56097D01*
X288108Y56055D01*
X287807Y52029D01*
X287811Y51997D01*
X287807Y51954D01*
X288110Y47928D01*
X288119Y47897D01*
X288121Y47854D01*
X289021Y43918D01*
X289034Y43889D01*
X289043Y43846D01*
X290519Y40088D01*
X290537Y40061D01*
X290552Y40021D01*
X292572Y36525D01*
X292593Y36501D01*
X292614Y36463D01*
X295132Y33307D01*
X295157Y33287D01*
X295183Y33253D01*
X298144Y30507D01*
X298171Y30491D01*
X298202Y30461D01*
X301539Y28187D01*
X301564Y28177D01*
X301585Y28160D01*
X301655Y28139D01*
X301722Y28110D01*
X301750Y28111D01*
X301776Y28103D01*
X301848Y28111D01*
G37*
G36*
X69024Y28110D02*
X69024Y28110D01*
X69097Y28107D01*
X69123Y28116D01*
X69150Y28118D01*
X69246Y28162D01*
X69284Y28176D01*
X69291Y28183D01*
X69301Y28187D01*
X72638Y30461D01*
X72660Y30484D01*
X72696Y30507D01*
X75657Y33253D01*
X75676Y33279D01*
X75708Y33307D01*
X78226Y36463D01*
X78241Y36492D01*
X78268Y36525D01*
X80288Y40021D01*
X80298Y40051D01*
X80321Y40088D01*
X81797Y43846D01*
X81802Y43878D01*
X81819Y43918D01*
X82719Y47854D01*
X82719Y47886D01*
X82730Y47928D01*
X83033Y51954D01*
X83029Y51985D01*
X83033Y52029D01*
X82732Y56055D01*
X82724Y56086D01*
X82721Y56129D01*
X81824Y60065D01*
X81811Y60094D01*
X81802Y60137D01*
X80328Y63896D01*
X80311Y63923D01*
X80296Y63963D01*
X78278Y67460D01*
X78257Y67484D01*
X78236Y67522D01*
X75720Y70680D01*
X75695Y70700D01*
X75669Y70734D01*
X72710Y73482D01*
X72683Y73498D01*
X72652Y73528D01*
X69316Y75804D01*
X69287Y75816D01*
X69252Y75841D01*
X65615Y77594D01*
X65584Y77602D01*
X65545Y77621D01*
X61687Y78813D01*
X61655Y78816D01*
X61614Y78829D01*
X57622Y79432D01*
X57590Y79431D01*
X57548Y79438D01*
X53510Y79439D01*
X53479Y79433D01*
X53436Y79434D01*
X49443Y78833D01*
X49413Y78822D01*
X49370Y78817D01*
X45511Y77628D01*
X45483Y77613D01*
X45442Y77601D01*
X41804Y75850D01*
X41782Y75833D01*
X41756Y75824D01*
X41703Y75774D01*
X41645Y75730D01*
X41632Y75706D01*
X41612Y75687D01*
X41582Y75621D01*
X41546Y75557D01*
X41543Y75530D01*
X41532Y75505D01*
X41531Y75432D01*
X41522Y75360D01*
X41530Y75334D01*
X41530Y75306D01*
X41566Y75208D01*
X41578Y75169D01*
X41584Y75161D01*
X41588Y75151D01*
X68588Y28351D01*
X68606Y28330D01*
X68617Y28305D01*
X68671Y28256D01*
X68719Y28202D01*
X68744Y28190D01*
X68764Y28171D01*
X68833Y28147D01*
X68899Y28116D01*
X68926Y28115D01*
X68951Y28105D01*
X69024Y28110D01*
G37*
D10*
X130556Y153670D03*
X157988Y153670D03*
X185420Y153670D03*
X212852Y153670D03*
X240284Y153670D03*
X144272Y179070D03*
X171704Y179070D03*
X199136Y179070D03*
X226568Y179070D03*
D11*
X60198Y166370D03*
X310642Y166370D03*
D12*
X309320Y55500D03*
X61520Y55500D03*
D13*
X236220Y66040D02*
X236220Y81280D01*
X210820Y81280D02*
X210820Y66040D01*
X185420Y66040D02*
X185420Y81280D01*
X160020Y81280D02*
X160020Y66040D01*
X134620Y66040D02*
X134620Y81280D01*
D14*
X160020Y73660D02*
X160020Y117187D01*
X130556Y146651D01*
X130556Y153670D01*
X134620Y127116D02*
X134620Y73660D01*
X115570Y159351D02*
X123605Y167386D01*
X136237Y167386D01*
X115570Y146166D02*
X134620Y127116D01*
X115570Y146166D02*
X115570Y159351D01*
X149953Y153670D02*
X157988Y153670D01*
X149953Y153670D02*
X136237Y167386D01*
M02*
