G04 EAGLE Gerber RS-274X export*
G75*
%MOMM*%
%FSLAX34Y34*%
%LPD*%
%INSilkscreen Bottom*%
%IPPOS*%
%AMOC8*
5,1,8,0,0,1.08239X$1,22.5*%
G01*
%ADD10C,0.152400*%
%ADD11C,0.127000*%


D10*
X263398Y215392D02*
X263398Y233172D01*
X263398Y225270D02*
X253520Y225270D01*
X253520Y233172D02*
X253520Y215392D01*
X246089Y229221D02*
X241150Y233172D01*
X241150Y215392D01*
X246089Y215392D02*
X236211Y215392D01*
X228780Y215392D02*
X228780Y233172D01*
X223842Y233172D01*
X223703Y233170D01*
X223565Y233164D01*
X223427Y233155D01*
X223289Y233141D01*
X223152Y233124D01*
X223015Y233102D01*
X222878Y233077D01*
X222743Y233048D01*
X222608Y233015D01*
X222475Y232979D01*
X222342Y232939D01*
X222211Y232895D01*
X222081Y232847D01*
X221952Y232796D01*
X221825Y232741D01*
X221699Y232683D01*
X221575Y232621D01*
X221453Y232556D01*
X221333Y232487D01*
X221214Y232415D01*
X221098Y232340D01*
X220984Y232261D01*
X220872Y232179D01*
X220763Y232094D01*
X220655Y232007D01*
X220551Y231916D01*
X220449Y231822D01*
X220350Y231725D01*
X220253Y231626D01*
X220159Y231524D01*
X220068Y231420D01*
X219981Y231312D01*
X219896Y231203D01*
X219814Y231091D01*
X219735Y230977D01*
X219660Y230861D01*
X219588Y230742D01*
X219519Y230622D01*
X219454Y230500D01*
X219392Y230376D01*
X219334Y230250D01*
X219279Y230123D01*
X219228Y229994D01*
X219180Y229864D01*
X219136Y229733D01*
X219096Y229600D01*
X219060Y229467D01*
X219027Y229332D01*
X218998Y229197D01*
X218973Y229060D01*
X218951Y228923D01*
X218934Y228786D01*
X218920Y228648D01*
X218911Y228510D01*
X218905Y228372D01*
X218903Y228233D01*
X218903Y220331D01*
X218905Y220192D01*
X218911Y220054D01*
X218920Y219916D01*
X218934Y219778D01*
X218951Y219641D01*
X218973Y219504D01*
X218998Y219367D01*
X219027Y219232D01*
X219060Y219097D01*
X219096Y218964D01*
X219136Y218831D01*
X219180Y218700D01*
X219228Y218570D01*
X219279Y218441D01*
X219334Y218314D01*
X219392Y218188D01*
X219454Y218064D01*
X219519Y217942D01*
X219588Y217822D01*
X219660Y217703D01*
X219735Y217587D01*
X219814Y217473D01*
X219896Y217361D01*
X219981Y217252D01*
X220068Y217144D01*
X220159Y217040D01*
X220253Y216938D01*
X220350Y216839D01*
X220449Y216742D01*
X220551Y216648D01*
X220655Y216557D01*
X220763Y216470D01*
X220872Y216385D01*
X220984Y216303D01*
X221098Y216224D01*
X221214Y216149D01*
X221333Y216077D01*
X221453Y216008D01*
X221575Y215943D01*
X221699Y215881D01*
X221825Y215823D01*
X221952Y215768D01*
X222081Y215717D01*
X222211Y215669D01*
X222342Y215625D01*
X222475Y215585D01*
X222608Y215549D01*
X222743Y215516D01*
X222878Y215487D01*
X223015Y215462D01*
X223152Y215440D01*
X223289Y215423D01*
X223427Y215409D01*
X223565Y215400D01*
X223703Y215394D01*
X223842Y215392D01*
X228780Y215392D01*
X210828Y215392D02*
X210828Y233172D01*
X205889Y233172D01*
X205749Y233170D01*
X205610Y233164D01*
X205470Y233154D01*
X205331Y233140D01*
X205192Y233123D01*
X205054Y233101D01*
X204917Y233075D01*
X204780Y233046D01*
X204644Y233013D01*
X204510Y232976D01*
X204376Y232935D01*
X204244Y232890D01*
X204112Y232841D01*
X203983Y232789D01*
X203855Y232734D01*
X203728Y232674D01*
X203603Y232611D01*
X203480Y232545D01*
X203359Y232475D01*
X203240Y232402D01*
X203123Y232325D01*
X203009Y232245D01*
X202896Y232162D01*
X202786Y232076D01*
X202679Y231986D01*
X202574Y231894D01*
X202472Y231799D01*
X202372Y231701D01*
X202275Y231600D01*
X202181Y231496D01*
X202091Y231390D01*
X202003Y231281D01*
X201918Y231170D01*
X201837Y231056D01*
X201758Y230941D01*
X201683Y230823D01*
X201612Y230703D01*
X201544Y230580D01*
X201479Y230457D01*
X201418Y230331D01*
X201360Y230203D01*
X201306Y230075D01*
X201256Y229944D01*
X201209Y229812D01*
X201166Y229679D01*
X201127Y229545D01*
X201092Y229410D01*
X201061Y229274D01*
X201033Y229136D01*
X201010Y228999D01*
X200990Y228860D01*
X200974Y228721D01*
X200962Y228582D01*
X200954Y228443D01*
X200950Y228303D01*
X200950Y228163D01*
X200954Y228023D01*
X200962Y227884D01*
X200974Y227745D01*
X200990Y227606D01*
X201010Y227467D01*
X201033Y227330D01*
X201061Y227192D01*
X201092Y227056D01*
X201127Y226921D01*
X201166Y226787D01*
X201209Y226654D01*
X201256Y226522D01*
X201306Y226391D01*
X201360Y226263D01*
X201418Y226135D01*
X201479Y226009D01*
X201544Y225886D01*
X201612Y225763D01*
X201683Y225643D01*
X201758Y225525D01*
X201837Y225410D01*
X201918Y225296D01*
X202003Y225185D01*
X202091Y225076D01*
X202181Y224970D01*
X202275Y224866D01*
X202372Y224765D01*
X202472Y224667D01*
X202574Y224572D01*
X202679Y224480D01*
X202786Y224390D01*
X202896Y224304D01*
X203009Y224221D01*
X203123Y224141D01*
X203240Y224064D01*
X203359Y223991D01*
X203480Y223921D01*
X203603Y223855D01*
X203728Y223792D01*
X203855Y223732D01*
X203983Y223677D01*
X204112Y223625D01*
X204244Y223576D01*
X204376Y223531D01*
X204510Y223490D01*
X204644Y223453D01*
X204780Y223420D01*
X204917Y223391D01*
X205054Y223365D01*
X205192Y223343D01*
X205331Y223326D01*
X205470Y223312D01*
X205610Y223302D01*
X205749Y223296D01*
X205889Y223294D01*
X210828Y223294D01*
X204901Y223294D02*
X200950Y215392D01*
X194163Y229221D02*
X189224Y233172D01*
X189224Y215392D01*
X194163Y215392D02*
X184285Y215392D01*
X178100Y215392D02*
X170198Y227245D01*
X178100Y227245D02*
X170198Y215392D01*
X163883Y222306D02*
X152030Y222306D01*
X146016Y215392D02*
X140089Y233172D01*
X134163Y215392D01*
X135644Y219837D02*
X144534Y219837D01*
X127720Y215392D02*
X127720Y233172D01*
X122781Y233172D01*
X122642Y233170D01*
X122504Y233164D01*
X122366Y233155D01*
X122228Y233141D01*
X122091Y233124D01*
X121954Y233102D01*
X121817Y233077D01*
X121682Y233048D01*
X121547Y233015D01*
X121414Y232979D01*
X121281Y232939D01*
X121150Y232895D01*
X121020Y232847D01*
X120891Y232796D01*
X120764Y232741D01*
X120638Y232683D01*
X120514Y232621D01*
X120392Y232556D01*
X120272Y232487D01*
X120153Y232415D01*
X120037Y232340D01*
X119923Y232261D01*
X119811Y232179D01*
X119702Y232094D01*
X119594Y232007D01*
X119490Y231916D01*
X119388Y231822D01*
X119289Y231725D01*
X119192Y231626D01*
X119098Y231524D01*
X119007Y231420D01*
X118920Y231312D01*
X118835Y231203D01*
X118753Y231091D01*
X118674Y230977D01*
X118599Y230861D01*
X118527Y230742D01*
X118458Y230622D01*
X118393Y230500D01*
X118331Y230376D01*
X118273Y230250D01*
X118218Y230123D01*
X118167Y229994D01*
X118119Y229864D01*
X118075Y229733D01*
X118035Y229600D01*
X117999Y229467D01*
X117966Y229332D01*
X117937Y229197D01*
X117912Y229060D01*
X117890Y228923D01*
X117873Y228786D01*
X117859Y228648D01*
X117850Y228510D01*
X117844Y228372D01*
X117842Y228233D01*
X117842Y220331D01*
X117844Y220192D01*
X117850Y220054D01*
X117859Y219916D01*
X117873Y219778D01*
X117890Y219641D01*
X117912Y219504D01*
X117937Y219367D01*
X117966Y219232D01*
X117999Y219097D01*
X118035Y218964D01*
X118075Y218831D01*
X118119Y218700D01*
X118167Y218570D01*
X118218Y218441D01*
X118273Y218314D01*
X118331Y218188D01*
X118393Y218064D01*
X118458Y217942D01*
X118527Y217822D01*
X118599Y217703D01*
X118674Y217587D01*
X118753Y217473D01*
X118835Y217361D01*
X118920Y217252D01*
X119007Y217144D01*
X119098Y217040D01*
X119192Y216938D01*
X119289Y216839D01*
X119388Y216742D01*
X119490Y216648D01*
X119594Y216557D01*
X119702Y216470D01*
X119811Y216385D01*
X119923Y216303D01*
X120037Y216224D01*
X120153Y216149D01*
X120272Y216077D01*
X120392Y216008D01*
X120514Y215943D01*
X120638Y215881D01*
X120764Y215823D01*
X120891Y215768D01*
X121020Y215717D01*
X121150Y215669D01*
X121281Y215625D01*
X121414Y215585D01*
X121547Y215549D01*
X121682Y215516D01*
X121817Y215487D01*
X121954Y215462D01*
X122091Y215440D01*
X122228Y215423D01*
X122366Y215409D01*
X122504Y215400D01*
X122642Y215394D01*
X122781Y215392D01*
X127720Y215392D01*
X123952Y99681D02*
X141732Y99681D01*
X141732Y94742D02*
X141732Y104620D01*
X133830Y111131D02*
X133830Y116070D01*
X133828Y116210D01*
X133822Y116349D01*
X133812Y116489D01*
X133798Y116628D01*
X133781Y116767D01*
X133759Y116905D01*
X133733Y117042D01*
X133704Y117179D01*
X133671Y117315D01*
X133634Y117449D01*
X133593Y117583D01*
X133548Y117715D01*
X133499Y117847D01*
X133447Y117976D01*
X133392Y118104D01*
X133332Y118231D01*
X133269Y118356D01*
X133203Y118479D01*
X133133Y118600D01*
X133060Y118719D01*
X132983Y118836D01*
X132903Y118950D01*
X132820Y119063D01*
X132734Y119173D01*
X132644Y119280D01*
X132552Y119385D01*
X132457Y119487D01*
X132359Y119587D01*
X132258Y119684D01*
X132154Y119778D01*
X132048Y119868D01*
X131939Y119956D01*
X131828Y120041D01*
X131714Y120122D01*
X131599Y120201D01*
X131481Y120276D01*
X131361Y120347D01*
X131238Y120415D01*
X131115Y120480D01*
X130989Y120541D01*
X130861Y120599D01*
X130733Y120653D01*
X130602Y120703D01*
X130470Y120750D01*
X130337Y120793D01*
X130203Y120832D01*
X130068Y120867D01*
X129932Y120898D01*
X129794Y120926D01*
X129657Y120949D01*
X129518Y120969D01*
X129379Y120985D01*
X129240Y120997D01*
X129101Y121005D01*
X128961Y121009D01*
X128821Y121009D01*
X128681Y121005D01*
X128542Y120997D01*
X128403Y120985D01*
X128264Y120969D01*
X128125Y120949D01*
X127988Y120926D01*
X127850Y120898D01*
X127714Y120867D01*
X127579Y120832D01*
X127445Y120793D01*
X127312Y120750D01*
X127180Y120703D01*
X127049Y120653D01*
X126921Y120599D01*
X126793Y120541D01*
X126667Y120480D01*
X126544Y120415D01*
X126422Y120347D01*
X126301Y120276D01*
X126183Y120201D01*
X126068Y120122D01*
X125954Y120041D01*
X125843Y119956D01*
X125734Y119868D01*
X125628Y119778D01*
X125524Y119684D01*
X125423Y119587D01*
X125325Y119487D01*
X125230Y119385D01*
X125138Y119280D01*
X125048Y119173D01*
X124962Y119063D01*
X124879Y118950D01*
X124799Y118836D01*
X124722Y118719D01*
X124649Y118600D01*
X124579Y118479D01*
X124513Y118356D01*
X124450Y118231D01*
X124390Y118104D01*
X124335Y117976D01*
X124283Y117847D01*
X124234Y117715D01*
X124189Y117583D01*
X124148Y117449D01*
X124111Y117315D01*
X124078Y117179D01*
X124049Y117042D01*
X124023Y116905D01*
X124001Y116767D01*
X123984Y116628D01*
X123970Y116489D01*
X123960Y116349D01*
X123954Y116210D01*
X123952Y116070D01*
X123952Y111131D01*
X141732Y111131D01*
X141732Y116070D01*
X141730Y116194D01*
X141724Y116318D01*
X141714Y116442D01*
X141701Y116565D01*
X141683Y116688D01*
X141662Y116810D01*
X141637Y116932D01*
X141608Y117053D01*
X141575Y117172D01*
X141539Y117291D01*
X141498Y117408D01*
X141455Y117524D01*
X141407Y117639D01*
X141356Y117752D01*
X141301Y117864D01*
X141243Y117973D01*
X141182Y118081D01*
X141117Y118187D01*
X141049Y118291D01*
X140977Y118392D01*
X140903Y118492D01*
X140825Y118588D01*
X140745Y118683D01*
X140661Y118775D01*
X140575Y118864D01*
X140486Y118950D01*
X140394Y119034D01*
X140299Y119114D01*
X140203Y119192D01*
X140103Y119266D01*
X140002Y119338D01*
X139898Y119406D01*
X139792Y119471D01*
X139684Y119532D01*
X139575Y119590D01*
X139463Y119645D01*
X139350Y119696D01*
X139235Y119744D01*
X139119Y119787D01*
X139002Y119828D01*
X138883Y119864D01*
X138764Y119897D01*
X138643Y119926D01*
X138521Y119951D01*
X138399Y119972D01*
X138276Y119990D01*
X138153Y120003D01*
X138029Y120013D01*
X137905Y120019D01*
X137781Y120021D01*
X137657Y120019D01*
X137533Y120013D01*
X137409Y120003D01*
X137286Y119990D01*
X137163Y119972D01*
X137041Y119951D01*
X136919Y119926D01*
X136798Y119897D01*
X136679Y119864D01*
X136560Y119828D01*
X136443Y119787D01*
X136327Y119744D01*
X136212Y119696D01*
X136099Y119645D01*
X135987Y119590D01*
X135878Y119532D01*
X135770Y119471D01*
X135664Y119406D01*
X135560Y119338D01*
X135459Y119266D01*
X135359Y119192D01*
X135263Y119114D01*
X135168Y119034D01*
X135076Y118950D01*
X134987Y118864D01*
X134901Y118775D01*
X134817Y118683D01*
X134737Y118588D01*
X134659Y118492D01*
X134585Y118392D01*
X134513Y118291D01*
X134445Y118187D01*
X134380Y118081D01*
X134319Y117973D01*
X134261Y117864D01*
X134206Y117752D01*
X134155Y117639D01*
X134107Y117524D01*
X134064Y117408D01*
X134023Y117291D01*
X133987Y117172D01*
X133954Y117053D01*
X133925Y116932D01*
X133900Y116810D01*
X133879Y116688D01*
X133861Y116565D01*
X133848Y116442D01*
X133838Y116318D01*
X133832Y116194D01*
X133830Y116070D01*
X151892Y99681D02*
X169672Y99681D01*
X169672Y94742D02*
X169672Y104620D01*
X169672Y115315D02*
X151892Y109388D01*
X151892Y121241D02*
X169672Y115315D01*
X156337Y119760D02*
X156337Y110870D01*
D11*
X236573Y101953D02*
X236573Y99370D01*
X236573Y101953D02*
X227965Y101953D01*
X227965Y96788D01*
X227967Y96673D01*
X227973Y96558D01*
X227982Y96443D01*
X227996Y96329D01*
X228013Y96215D01*
X228034Y96102D01*
X228059Y95990D01*
X228087Y95878D01*
X228120Y95768D01*
X228156Y95659D01*
X228195Y95551D01*
X228238Y95444D01*
X228285Y95339D01*
X228335Y95235D01*
X228389Y95133D01*
X228446Y95033D01*
X228506Y94935D01*
X228569Y94839D01*
X228636Y94746D01*
X228706Y94654D01*
X228779Y94565D01*
X228854Y94478D01*
X228933Y94394D01*
X229014Y94313D01*
X229098Y94234D01*
X229185Y94159D01*
X229274Y94086D01*
X229366Y94016D01*
X229459Y93949D01*
X229555Y93886D01*
X229653Y93826D01*
X229753Y93769D01*
X229855Y93715D01*
X229959Y93665D01*
X230064Y93618D01*
X230171Y93575D01*
X230279Y93536D01*
X230388Y93500D01*
X230498Y93467D01*
X230610Y93439D01*
X230722Y93414D01*
X230835Y93393D01*
X230949Y93376D01*
X231063Y93362D01*
X231178Y93353D01*
X231293Y93347D01*
X231408Y93345D01*
X240016Y93345D01*
X240131Y93347D01*
X240246Y93353D01*
X240361Y93362D01*
X240475Y93376D01*
X240589Y93393D01*
X240702Y93414D01*
X240814Y93439D01*
X240926Y93467D01*
X241036Y93500D01*
X241145Y93536D01*
X241253Y93575D01*
X241360Y93618D01*
X241465Y93665D01*
X241569Y93715D01*
X241671Y93769D01*
X241771Y93826D01*
X241869Y93886D01*
X241965Y93949D01*
X242058Y94016D01*
X242150Y94086D01*
X242239Y94159D01*
X242326Y94234D01*
X242410Y94313D01*
X242491Y94394D01*
X242569Y94478D01*
X242645Y94565D01*
X242718Y94654D01*
X242788Y94746D01*
X242855Y94839D01*
X242918Y94935D01*
X242978Y95033D01*
X243035Y95133D01*
X243089Y95235D01*
X243139Y95339D01*
X243186Y95444D01*
X243229Y95551D01*
X243268Y95659D01*
X243304Y95768D01*
X243337Y95878D01*
X243365Y95990D01*
X243390Y96102D01*
X243411Y96215D01*
X243428Y96329D01*
X243442Y96443D01*
X243451Y96558D01*
X243457Y96673D01*
X243459Y96788D01*
X243459Y101953D01*
X243459Y109202D02*
X227965Y109202D01*
X227965Y117810D02*
X243459Y109202D01*
X243459Y117810D02*
X227965Y117810D01*
X227965Y125059D02*
X243459Y125059D01*
X243459Y129363D01*
X243457Y129493D01*
X243451Y129623D01*
X243441Y129753D01*
X243428Y129882D01*
X243410Y130011D01*
X243389Y130139D01*
X243363Y130266D01*
X243334Y130393D01*
X243301Y130519D01*
X243264Y130643D01*
X243224Y130767D01*
X243179Y130889D01*
X243131Y131010D01*
X243080Y131129D01*
X243025Y131247D01*
X242966Y131363D01*
X242904Y131477D01*
X242838Y131590D01*
X242769Y131700D01*
X242697Y131808D01*
X242622Y131914D01*
X242543Y132017D01*
X242461Y132118D01*
X242377Y132217D01*
X242289Y132313D01*
X242198Y132406D01*
X242105Y132497D01*
X242009Y132585D01*
X241910Y132669D01*
X241809Y132751D01*
X241706Y132830D01*
X241600Y132905D01*
X241492Y132977D01*
X241382Y133046D01*
X241269Y133112D01*
X241155Y133174D01*
X241039Y133233D01*
X240921Y133288D01*
X240802Y133339D01*
X240681Y133387D01*
X240559Y133432D01*
X240435Y133472D01*
X240311Y133509D01*
X240185Y133542D01*
X240058Y133571D01*
X239931Y133597D01*
X239803Y133618D01*
X239674Y133636D01*
X239545Y133649D01*
X239415Y133659D01*
X239285Y133665D01*
X239155Y133667D01*
X239155Y133666D02*
X232269Y133666D01*
X232269Y133667D02*
X232139Y133665D01*
X232009Y133659D01*
X231879Y133649D01*
X231750Y133636D01*
X231621Y133618D01*
X231493Y133597D01*
X231366Y133571D01*
X231239Y133542D01*
X231113Y133509D01*
X230989Y133472D01*
X230865Y133432D01*
X230743Y133387D01*
X230622Y133339D01*
X230503Y133288D01*
X230385Y133233D01*
X230269Y133174D01*
X230155Y133112D01*
X230042Y133046D01*
X229932Y132977D01*
X229824Y132905D01*
X229718Y132830D01*
X229615Y132751D01*
X229514Y132669D01*
X229415Y132585D01*
X229319Y132497D01*
X229226Y132406D01*
X229135Y132313D01*
X229047Y132217D01*
X228963Y132118D01*
X228881Y132017D01*
X228802Y131914D01*
X228727Y131808D01*
X228655Y131700D01*
X228586Y131590D01*
X228520Y131477D01*
X228458Y131363D01*
X228399Y131247D01*
X228344Y131129D01*
X228293Y131010D01*
X228245Y130889D01*
X228200Y130767D01*
X228160Y130643D01*
X228123Y130519D01*
X228090Y130393D01*
X228061Y130266D01*
X228035Y130139D01*
X228014Y130011D01*
X227996Y129882D01*
X227983Y129753D01*
X227973Y129623D01*
X227967Y129493D01*
X227965Y129363D01*
X227965Y125059D01*
D10*
X324358Y107442D02*
X324358Y89662D01*
X324358Y107442D02*
X319419Y107442D01*
X319279Y107440D01*
X319140Y107434D01*
X319000Y107424D01*
X318861Y107410D01*
X318722Y107393D01*
X318584Y107371D01*
X318447Y107345D01*
X318310Y107316D01*
X318174Y107283D01*
X318040Y107246D01*
X317906Y107205D01*
X317774Y107160D01*
X317642Y107111D01*
X317513Y107059D01*
X317385Y107004D01*
X317258Y106944D01*
X317133Y106881D01*
X317010Y106815D01*
X316889Y106745D01*
X316770Y106672D01*
X316653Y106595D01*
X316539Y106515D01*
X316426Y106432D01*
X316316Y106346D01*
X316209Y106256D01*
X316104Y106164D01*
X316002Y106069D01*
X315902Y105971D01*
X315805Y105870D01*
X315711Y105766D01*
X315621Y105660D01*
X315533Y105551D01*
X315448Y105440D01*
X315367Y105326D01*
X315288Y105211D01*
X315213Y105093D01*
X315142Y104972D01*
X315074Y104850D01*
X315009Y104727D01*
X314948Y104601D01*
X314890Y104473D01*
X314836Y104345D01*
X314786Y104214D01*
X314739Y104082D01*
X314696Y103949D01*
X314657Y103815D01*
X314622Y103680D01*
X314591Y103544D01*
X314563Y103406D01*
X314540Y103269D01*
X314520Y103130D01*
X314504Y102991D01*
X314492Y102852D01*
X314484Y102713D01*
X314480Y102573D01*
X314480Y102433D01*
X314484Y102293D01*
X314492Y102154D01*
X314504Y102015D01*
X314520Y101876D01*
X314540Y101737D01*
X314563Y101600D01*
X314591Y101462D01*
X314622Y101326D01*
X314657Y101191D01*
X314696Y101057D01*
X314739Y100924D01*
X314786Y100792D01*
X314836Y100661D01*
X314890Y100533D01*
X314948Y100405D01*
X315009Y100279D01*
X315074Y100156D01*
X315142Y100033D01*
X315213Y99913D01*
X315288Y99795D01*
X315367Y99680D01*
X315448Y99566D01*
X315533Y99455D01*
X315621Y99346D01*
X315711Y99240D01*
X315805Y99136D01*
X315902Y99035D01*
X316002Y98937D01*
X316104Y98842D01*
X316209Y98750D01*
X316316Y98660D01*
X316426Y98574D01*
X316539Y98491D01*
X316653Y98411D01*
X316770Y98334D01*
X316889Y98261D01*
X317010Y98191D01*
X317133Y98125D01*
X317258Y98062D01*
X317385Y98002D01*
X317513Y97947D01*
X317642Y97895D01*
X317774Y97846D01*
X317906Y97801D01*
X318040Y97760D01*
X318174Y97723D01*
X318310Y97690D01*
X318447Y97661D01*
X318584Y97635D01*
X318722Y97613D01*
X318861Y97596D01*
X319000Y97582D01*
X319140Y97572D01*
X319279Y97566D01*
X319419Y97564D01*
X324358Y97564D01*
X302930Y107442D02*
X302798Y107440D01*
X302667Y107434D01*
X302535Y107424D01*
X302404Y107411D01*
X302274Y107393D01*
X302144Y107372D01*
X302014Y107347D01*
X301886Y107318D01*
X301758Y107285D01*
X301632Y107248D01*
X301506Y107208D01*
X301382Y107164D01*
X301259Y107116D01*
X301138Y107065D01*
X301018Y107010D01*
X300900Y106952D01*
X300784Y106890D01*
X300670Y106824D01*
X300557Y106756D01*
X300447Y106684D01*
X300339Y106609D01*
X300233Y106530D01*
X300129Y106449D01*
X300028Y106364D01*
X299930Y106277D01*
X299834Y106186D01*
X299741Y106093D01*
X299650Y105997D01*
X299563Y105899D01*
X299478Y105798D01*
X299397Y105694D01*
X299318Y105588D01*
X299243Y105480D01*
X299171Y105370D01*
X299103Y105257D01*
X299037Y105143D01*
X298975Y105027D01*
X298917Y104909D01*
X298862Y104789D01*
X298811Y104668D01*
X298763Y104545D01*
X298719Y104421D01*
X298679Y104295D01*
X298642Y104169D01*
X298609Y104041D01*
X298580Y103913D01*
X298555Y103783D01*
X298534Y103653D01*
X298516Y103523D01*
X298503Y103392D01*
X298493Y103260D01*
X298487Y103129D01*
X298485Y102997D01*
X302930Y107442D02*
X303080Y107440D01*
X303229Y107434D01*
X303378Y107424D01*
X303527Y107411D01*
X303676Y107393D01*
X303824Y107372D01*
X303972Y107346D01*
X304118Y107317D01*
X304264Y107284D01*
X304409Y107247D01*
X304553Y107206D01*
X304696Y107162D01*
X304838Y107114D01*
X304978Y107062D01*
X305117Y107007D01*
X305255Y106948D01*
X305390Y106885D01*
X305525Y106819D01*
X305657Y106749D01*
X305787Y106676D01*
X305916Y106599D01*
X306043Y106519D01*
X306167Y106436D01*
X306289Y106350D01*
X306409Y106260D01*
X306526Y106167D01*
X306641Y106072D01*
X306754Y105973D01*
X306864Y105871D01*
X306971Y105767D01*
X307075Y105660D01*
X307177Y105550D01*
X307275Y105437D01*
X307371Y105322D01*
X307463Y105204D01*
X307553Y105084D01*
X307639Y104962D01*
X307722Y104838D01*
X307802Y104711D01*
X307878Y104583D01*
X307951Y104452D01*
X308021Y104319D01*
X308087Y104185D01*
X308149Y104049D01*
X308208Y103912D01*
X308264Y103773D01*
X308315Y103632D01*
X308363Y103491D01*
X299968Y99540D02*
X299872Y99633D01*
X299780Y99729D01*
X299690Y99828D01*
X299603Y99929D01*
X299519Y100032D01*
X299437Y100137D01*
X299359Y100245D01*
X299284Y100355D01*
X299211Y100467D01*
X299142Y100581D01*
X299076Y100697D01*
X299014Y100815D01*
X298955Y100934D01*
X298899Y101055D01*
X298846Y101178D01*
X298797Y101302D01*
X298752Y101427D01*
X298709Y101554D01*
X298671Y101681D01*
X298636Y101810D01*
X298605Y101939D01*
X298577Y102070D01*
X298553Y102201D01*
X298532Y102333D01*
X298516Y102465D01*
X298503Y102598D01*
X298493Y102731D01*
X298488Y102864D01*
X298486Y102997D01*
X299967Y99540D02*
X308363Y89662D01*
X298485Y89662D01*
X71628Y88392D02*
X71628Y106172D01*
X66689Y106172D01*
X66549Y106170D01*
X66410Y106164D01*
X66270Y106154D01*
X66131Y106140D01*
X65992Y106123D01*
X65854Y106101D01*
X65717Y106075D01*
X65580Y106046D01*
X65444Y106013D01*
X65310Y105976D01*
X65176Y105935D01*
X65044Y105890D01*
X64912Y105841D01*
X64783Y105789D01*
X64655Y105734D01*
X64528Y105674D01*
X64403Y105611D01*
X64280Y105545D01*
X64159Y105475D01*
X64040Y105402D01*
X63923Y105325D01*
X63809Y105245D01*
X63696Y105162D01*
X63586Y105076D01*
X63479Y104986D01*
X63374Y104894D01*
X63272Y104799D01*
X63172Y104701D01*
X63075Y104600D01*
X62981Y104496D01*
X62891Y104390D01*
X62803Y104281D01*
X62718Y104170D01*
X62637Y104056D01*
X62558Y103941D01*
X62483Y103823D01*
X62412Y103702D01*
X62344Y103580D01*
X62279Y103457D01*
X62218Y103331D01*
X62160Y103203D01*
X62106Y103075D01*
X62056Y102944D01*
X62009Y102812D01*
X61966Y102679D01*
X61927Y102545D01*
X61892Y102410D01*
X61861Y102274D01*
X61833Y102136D01*
X61810Y101999D01*
X61790Y101860D01*
X61774Y101721D01*
X61762Y101582D01*
X61754Y101443D01*
X61750Y101303D01*
X61750Y101163D01*
X61754Y101023D01*
X61762Y100884D01*
X61774Y100745D01*
X61790Y100606D01*
X61810Y100467D01*
X61833Y100330D01*
X61861Y100192D01*
X61892Y100056D01*
X61927Y99921D01*
X61966Y99787D01*
X62009Y99654D01*
X62056Y99522D01*
X62106Y99391D01*
X62160Y99263D01*
X62218Y99135D01*
X62279Y99009D01*
X62344Y98886D01*
X62412Y98763D01*
X62483Y98643D01*
X62558Y98525D01*
X62637Y98410D01*
X62718Y98296D01*
X62803Y98185D01*
X62891Y98076D01*
X62981Y97970D01*
X63075Y97866D01*
X63172Y97765D01*
X63272Y97667D01*
X63374Y97572D01*
X63479Y97480D01*
X63586Y97390D01*
X63696Y97304D01*
X63809Y97221D01*
X63923Y97141D01*
X64040Y97064D01*
X64159Y96991D01*
X64280Y96921D01*
X64403Y96855D01*
X64528Y96792D01*
X64655Y96732D01*
X64783Y96677D01*
X64912Y96625D01*
X65044Y96576D01*
X65176Y96531D01*
X65310Y96490D01*
X65444Y96453D01*
X65580Y96420D01*
X65717Y96391D01*
X65854Y96365D01*
X65992Y96343D01*
X66131Y96326D01*
X66270Y96312D01*
X66410Y96302D01*
X66549Y96296D01*
X66689Y96294D01*
X71628Y96294D01*
X55633Y92343D02*
X51682Y106172D01*
X55633Y92343D02*
X45755Y92343D01*
X48719Y96294D02*
X48719Y88392D01*
M02*
